ISO-10303-21;
HEADER;
/* Generated by software containing ST-Developer
 * from STEP Tools, Inc. (www.steptools.com) 
 */

FILE_DESCRIPTION(
/* description */ (''),
/* implementation_level */ '2;1');

FILE_NAME(
/* name */ 'gripper1.step',
/* time_stamp */ '2026-08-10T18:26:38-05:00',
/* author */ (''),
/* organization */ (''),
/* preprocessor_version */ 'ST-DEVELOPER v20.1',
/* originating_system */ 'Autodesk Translation Framework v15.8.0.0',
/* authorisation */ '');

FILE_SCHEMA (('AUTOMOTIVE_DESIGN { 1 0 10303 214 3 1 1 }'));
ENDSEC;

DATA;
#10=MECHANICAL_DESIGN_GEOMETRIC_PRESENTATION_REPRESENTATION('',(#13),#1819);
#11=SHAPE_REPRESENTATION_RELATIONSHIP('SRR','None',#1826,#12);
#12=ADVANCED_BREP_SHAPE_REPRESENTATION('',(#14),#1818);
#13=STYLED_ITEM('',(#1836),#14);
#14=MANIFOLD_SOLID_BREP('Body1',#1149);
#15=FACE_BOUND('',#100,.T.);
#16=FACE_BOUND('',#104,.T.);
#17=FACE_OUTER_BOUND('',#73,.T.);
#18=FACE_OUTER_BOUND('',#74,.T.);
#19=FACE_OUTER_BOUND('',#75,.T.);
#20=FACE_OUTER_BOUND('',#76,.T.);
#21=FACE_OUTER_BOUND('',#77,.T.);
#22=FACE_OUTER_BOUND('',#78,.T.);
#23=FACE_OUTER_BOUND('',#79,.T.);
#24=FACE_OUTER_BOUND('',#80,.T.);
#25=FACE_OUTER_BOUND('',#81,.T.);
#26=FACE_OUTER_BOUND('',#82,.T.);
#27=FACE_OUTER_BOUND('',#83,.T.);
#28=FACE_OUTER_BOUND('',#84,.T.);
#29=FACE_OUTER_BOUND('',#85,.T.);
#30=FACE_OUTER_BOUND('',#86,.T.);
#31=FACE_OUTER_BOUND('',#87,.T.);
#32=FACE_OUTER_BOUND('',#88,.T.);
#33=FACE_OUTER_BOUND('',#89,.T.);
#34=FACE_OUTER_BOUND('',#90,.T.);
#35=FACE_OUTER_BOUND('',#91,.T.);
#36=FACE_OUTER_BOUND('',#92,.T.);
#37=FACE_OUTER_BOUND('',#93,.T.);
#38=FACE_OUTER_BOUND('',#94,.T.);
#39=FACE_OUTER_BOUND('',#95,.T.);
#40=FACE_OUTER_BOUND('',#96,.T.);
#41=FACE_OUTER_BOUND('',#97,.T.);
#42=FACE_OUTER_BOUND('',#98,.T.);
#43=FACE_OUTER_BOUND('',#99,.T.);
#44=FACE_OUTER_BOUND('',#101,.T.);
#45=FACE_OUTER_BOUND('',#102,.T.);
#46=FACE_OUTER_BOUND('',#103,.T.);
#47=FACE_OUTER_BOUND('',#105,.T.);
#48=FACE_OUTER_BOUND('',#106,.T.);
#49=FACE_OUTER_BOUND('',#107,.T.);
#50=FACE_OUTER_BOUND('',#108,.T.);
#51=FACE_OUTER_BOUND('',#109,.T.);
#52=FACE_OUTER_BOUND('',#110,.T.);
#53=FACE_OUTER_BOUND('',#111,.T.);
#54=FACE_OUTER_BOUND('',#112,.T.);
#55=FACE_OUTER_BOUND('',#113,.T.);
#56=FACE_OUTER_BOUND('',#114,.T.);
#57=FACE_OUTER_BOUND('',#115,.T.);
#58=FACE_OUTER_BOUND('',#116,.T.);
#59=FACE_OUTER_BOUND('',#117,.T.);
#60=FACE_OUTER_BOUND('',#118,.T.);
#61=FACE_OUTER_BOUND('',#119,.T.);
#62=FACE_OUTER_BOUND('',#120,.T.);
#63=FACE_OUTER_BOUND('',#121,.T.);
#64=FACE_OUTER_BOUND('',#122,.T.);
#65=FACE_OUTER_BOUND('',#123,.T.);
#66=FACE_OUTER_BOUND('',#124,.T.);
#67=FACE_OUTER_BOUND('',#125,.T.);
#68=FACE_OUTER_BOUND('',#126,.T.);
#69=FACE_OUTER_BOUND('',#127,.T.);
#70=FACE_OUTER_BOUND('',#128,.T.);
#71=FACE_OUTER_BOUND('',#129,.T.);
#72=FACE_OUTER_BOUND('',#130,.T.);
#73=EDGE_LOOP('',(#717,#718,#719,#720));
#74=EDGE_LOOP('',(#721,#722,#723,#724));
#75=EDGE_LOOP('',(#725,#726,#727,#728));
#76=EDGE_LOOP('',(#729,#730,#731,#732));
#77=EDGE_LOOP('',(#733,#734,#735,#736,#737,#738,#739,#740,#741,#742,#743,
#744,#745,#746,#747,#748,#749,#750,#751,#752,#753,#754,#755,#756,#757,#758,
#759,#760,#761,#762,#763,#764,#765,#766,#767,#768,#769,#770,#771,#772,#773,
#774,#775,#776));
#78=EDGE_LOOP('',(#777,#778,#779,#780));
#79=EDGE_LOOP('',(#781,#782,#783,#784));
#80=EDGE_LOOP('',(#785,#786,#787,#788));
#81=EDGE_LOOP('',(#789,#790,#791,#792));
#82=EDGE_LOOP('',(#793,#794,#795,#796));
#83=EDGE_LOOP('',(#797,#798,#799,#800));
#84=EDGE_LOOP('',(#801,#802,#803,#804));
#85=EDGE_LOOP('',(#805,#806,#807,#808));
#86=EDGE_LOOP('',(#809,#810,#811,#812));
#87=EDGE_LOOP('',(#813,#814,#815,#816));
#88=EDGE_LOOP('',(#817,#818,#819,#820));
#89=EDGE_LOOP('',(#821,#822,#823,#824));
#90=EDGE_LOOP('',(#825,#826,#827,#828));
#91=EDGE_LOOP('',(#829,#830,#831,#832));
#92=EDGE_LOOP('',(#833,#834,#835,#836));
#93=EDGE_LOOP('',(#837,#838,#839,#840));
#94=EDGE_LOOP('',(#841,#842,#843,#844));
#95=EDGE_LOOP('',(#845,#846,#847,#848));
#96=EDGE_LOOP('',(#849,#850,#851,#852));
#97=EDGE_LOOP('',(#853,#854,#855,#856));
#98=EDGE_LOOP('',(#857,#858,#859,#860,#861,#862,#863,#864,#865,#866,#867,
#868,#869,#870,#871,#872,#873,#874,#875,#876,#877,#878,#879,#880,#881,#882,
#883,#884,#885,#886,#887,#888,#889,#890,#891,#892,#893,#894,#895,#896,#897,
#898,#899,#900,#901));
#99=EDGE_LOOP('',(#902,#903,#904,#905,#906));
#100=EDGE_LOOP('',(#907,#908,#909,#910));
#101=EDGE_LOOP('',(#911,#912,#913,#914));
#102=EDGE_LOOP('',(#915,#916,#917,#918));
#103=EDGE_LOOP('',(#919,#920,#921,#922,#923,#924));
#104=EDGE_LOOP('',(#925,#926,#927,#928));
#105=EDGE_LOOP('',(#929,#930,#931,#932,#933));
#106=EDGE_LOOP('',(#934,#935,#936,#937,#938,#939));
#107=EDGE_LOOP('',(#940,#941,#942,#943,#944));
#108=EDGE_LOOP('',(#945,#946,#947,#948));
#109=EDGE_LOOP('',(#949,#950,#951,#952));
#110=EDGE_LOOP('',(#953,#954,#955,#956));
#111=EDGE_LOOP('',(#957,#958,#959,#960));
#112=EDGE_LOOP('',(#961,#962,#963,#964));
#113=EDGE_LOOP('',(#965,#966,#967,#968));
#114=EDGE_LOOP('',(#969,#970,#971,#972));
#115=EDGE_LOOP('',(#973,#974,#975,#976));
#116=EDGE_LOOP('',(#977,#978,#979,#980));
#117=EDGE_LOOP('',(#981,#982,#983,#984));
#118=EDGE_LOOP('',(#985,#986,#987,#988));
#119=EDGE_LOOP('',(#989,#990,#991,#992));
#120=EDGE_LOOP('',(#993,#994,#995,#996));
#121=EDGE_LOOP('',(#997,#998,#999,#1000));
#122=EDGE_LOOP('',(#1001,#1002,#1003,#1004));
#123=EDGE_LOOP('',(#1005,#1006,#1007,#1008));
#124=EDGE_LOOP('',(#1009,#1010,#1011,#1012));
#125=EDGE_LOOP('',(#1013,#1014,#1015,#1016));
#126=EDGE_LOOP('',(#1017,#1018,#1019,#1020));
#127=EDGE_LOOP('',(#1021,#1022,#1023,#1024));
#128=EDGE_LOOP('',(#1025,#1026,#1027,#1028));
#129=EDGE_LOOP('',(#1029,#1030,#1031,#1032));
#130=EDGE_LOOP('',(#1033,#1034,#1035,#1036));
#131=LINE('',#1497,#291);
#132=LINE('',#1499,#292);
#133=LINE('',#1501,#293);
#134=LINE('',#1502,#294);
#135=LINE('',#1505,#295);
#136=LINE('',#1507,#296);
#137=LINE('',#1508,#297);
#138=LINE('',#1511,#298);
#139=LINE('',#1513,#299);
#140=LINE('',#1514,#300);
#141=LINE('',#1516,#301);
#142=LINE('',#1517,#302);
#143=LINE('',#1521,#303);
#144=LINE('',#1523,#304);
#145=LINE('',#1525,#305);
#146=LINE('',#1527,#306);
#147=LINE('',#1529,#307);
#148=LINE('',#1531,#308);
#149=LINE('',#1533,#309);
#150=LINE('',#1535,#310);
#151=LINE('',#1537,#311);
#152=LINE('',#1539,#312);
#153=LINE('',#1541,#313);
#154=LINE('',#1543,#314);
#155=LINE('',#1545,#315);
#156=LINE('',#1547,#316);
#157=LINE('',#1549,#317);
#158=LINE('',#1551,#318);
#159=LINE('',#1553,#319);
#160=LINE('',#1555,#320);
#161=LINE('',#1557,#321);
#162=LINE('',#1559,#322);
#163=LINE('',#1561,#323);
#164=LINE('',#1563,#324);
#165=LINE('',#1565,#325);
#166=LINE('',#1567,#326);
#167=LINE('',#1569,#327);
#168=LINE('',#1571,#328);
#169=LINE('',#1573,#329);
#170=LINE('',#1575,#330);
#171=LINE('',#1577,#331);
#172=LINE('',#1579,#332);
#173=LINE('',#1581,#333);
#174=LINE('',#1583,#334);
#175=LINE('',#1585,#335);
#176=LINE('',#1587,#336);
#177=LINE('',#1589,#337);
#178=LINE('',#1591,#338);
#179=LINE('',#1593,#339);
#180=LINE('',#1595,#340);
#181=LINE('',#1597,#341);
#182=LINE('',#1599,#342);
#183=LINE('',#1601,#343);
#184=LINE('',#1603,#344);
#185=LINE('',#1605,#345);
#186=LINE('',#1606,#346);
#187=LINE('',#1609,#347);
#188=LINE('',#1611,#348);
#189=LINE('',#1612,#349);
#190=LINE('',#1615,#350);
#191=LINE('',#1616,#351);
#192=LINE('',#1619,#352);
#193=LINE('',#1620,#353);
#194=LINE('',#1623,#354);
#195=LINE('',#1624,#355);
#196=LINE('',#1627,#356);
#197=LINE('',#1628,#357);
#198=LINE('',#1631,#358);
#199=LINE('',#1632,#359);
#200=LINE('',#1635,#360);
#201=LINE('',#1636,#361);
#202=LINE('',#1639,#362);
#203=LINE('',#1640,#363);
#204=LINE('',#1643,#364);
#205=LINE('',#1644,#365);
#206=LINE('',#1647,#366);
#207=LINE('',#1648,#367);
#208=LINE('',#1651,#368);
#209=LINE('',#1652,#369);
#210=LINE('',#1655,#370);
#211=LINE('',#1656,#371);
#212=LINE('',#1659,#372);
#213=LINE('',#1660,#373);
#214=LINE('',#1663,#374);
#215=LINE('',#1664,#375);
#216=LINE('',#1667,#376);
#217=LINE('',#1668,#377);
#218=LINE('',#1671,#378);
#219=LINE('',#1672,#379);
#220=LINE('',#1675,#380);
#221=LINE('',#1676,#381);
#222=LINE('',#1679,#382);
#223=LINE('',#1680,#383);
#224=LINE('',#1683,#384);
#225=LINE('',#1684,#385);
#226=LINE('',#1687,#386);
#227=LINE('',#1689,#387);
#228=LINE('',#1691,#388);
#229=LINE('',#1692,#389);
#230=LINE('',#1696,#390);
#231=LINE('',#1698,#391);
#232=LINE('',#1700,#392);
#233=LINE('',#1702,#393);
#234=LINE('',#1704,#394);
#235=LINE('',#1706,#395);
#236=LINE('',#1708,#396);
#237=LINE('',#1710,#397);
#238=LINE('',#1712,#398);
#239=LINE('',#1714,#399);
#240=LINE('',#1716,#400);
#241=LINE('',#1718,#401);
#242=LINE('',#1720,#402);
#243=LINE('',#1722,#403);
#244=LINE('',#1724,#404);
#245=LINE('',#1726,#405);
#246=LINE('',#1728,#406);
#247=LINE('',#1730,#407);
#248=LINE('',#1732,#408);
#249=LINE('',#1734,#409);
#250=LINE('',#1736,#410);
#251=LINE('',#1738,#411);
#252=LINE('',#1739,#412);
#253=LINE('',#1741,#413);
#254=LINE('',#1743,#414);
#255=LINE('',#1744,#415);
#256=LINE('',#1747,#416);
#257=LINE('',#1749,#417);
#258=LINE('',#1750,#418);
#259=LINE('',#1754,#419);
#260=LINE('',#1756,#420);
#261=LINE('',#1758,#421);
#262=LINE('',#1759,#422);
#263=LINE('',#1761,#423);
#264=LINE('',#1762,#424);
#265=LINE('',#1764,#425);
#266=LINE('',#1765,#426);
#267=LINE('',#1766,#427);
#268=LINE('',#1770,#428);
#269=LINE('',#1772,#429);
#270=LINE('',#1774,#430);
#271=LINE('',#1776,#431);
#272=LINE('',#1778,#432);
#273=LINE('',#1780,#433);
#274=LINE('',#1782,#434);
#275=LINE('',#1784,#435);
#276=LINE('',#1786,#436);
#277=LINE('',#1788,#437);
#278=LINE('',#1790,#438);
#279=LINE('',#1792,#439);
#280=LINE('',#1794,#440);
#281=LINE('',#1796,#441);
#282=LINE('',#1798,#442);
#283=LINE('',#1800,#443);
#284=LINE('',#1802,#444);
#285=LINE('',#1804,#445);
#286=LINE('',#1806,#446);
#287=LINE('',#1808,#447);
#288=LINE('',#1810,#448);
#289=LINE('',#1812,#449);
#290=LINE('',#1814,#450);
#291=VECTOR('',#1223,10.);
#292=VECTOR('',#1224,10.);
#293=VECTOR('',#1225,10.);
#294=VECTOR('',#1226,10.);
#295=VECTOR('',#1229,10.);
#296=VECTOR('',#1230,10.);
#297=VECTOR('',#1231,10.);
#298=VECTOR('',#1234,10.);
#299=VECTOR('',#1235,10.);
#300=VECTOR('',#1236,10.);
#301=VECTOR('',#1239,10.);
#302=VECTOR('',#1240,10.);
#303=VECTOR('',#1243,10.);
#304=VECTOR('',#1244,10.);
#305=VECTOR('',#1245,10.);
#306=VECTOR('',#1246,10.);
#307=VECTOR('',#1247,10.);
#308=VECTOR('',#1248,10.);
#309=VECTOR('',#1249,10.);
#310=VECTOR('',#1250,10.);
#311=VECTOR('',#1251,10.);
#312=VECTOR('',#1252,10.);
#313=VECTOR('',#1253,10.);
#314=VECTOR('',#1254,10.);
#315=VECTOR('',#1255,10.);
#316=VECTOR('',#1256,10.);
#317=VECTOR('',#1257,10.);
#318=VECTOR('',#1258,10.);
#319=VECTOR('',#1259,10.);
#320=VECTOR('',#1260,10.);
#321=VECTOR('',#1261,10.);
#322=VECTOR('',#1262,10.);
#323=VECTOR('',#1263,10.);
#324=VECTOR('',#1264,10.);
#325=VECTOR('',#1265,10.);
#326=VECTOR('',#1266,10.);
#327=VECTOR('',#1267,10.);
#328=VECTOR('',#1268,10.);
#329=VECTOR('',#1269,10.);
#330=VECTOR('',#1270,10.);
#331=VECTOR('',#1271,10.);
#332=VECTOR('',#1272,10.);
#333=VECTOR('',#1273,10.);
#334=VECTOR('',#1274,10.);
#335=VECTOR('',#1275,10.);
#336=VECTOR('',#1276,10.);
#337=VECTOR('',#1277,10.);
#338=VECTOR('',#1278,10.);
#339=VECTOR('',#1279,10.);
#340=VECTOR('',#1280,10.);
#341=VECTOR('',#1281,10.);
#342=VECTOR('',#1282,10.);
#343=VECTOR('',#1283,10.);
#344=VECTOR('',#1284,10.);
#345=VECTOR('',#1285,10.);
#346=VECTOR('',#1286,10.);
#347=VECTOR('',#1289,10.);
#348=VECTOR('',#1290,10.);
#349=VECTOR('',#1291,10.);
#350=VECTOR('',#1294,10.);
#351=VECTOR('',#1295,10.);
#352=VECTOR('',#1298,10.);
#353=VECTOR('',#1299,10.);
#354=VECTOR('',#1302,10.);
#355=VECTOR('',#1303,10.);
#356=VECTOR('',#1306,10.);
#357=VECTOR('',#1307,10.);
#358=VECTOR('',#1310,10.);
#359=VECTOR('',#1311,10.);
#360=VECTOR('',#1314,10.);
#361=VECTOR('',#1315,10.);
#362=VECTOR('',#1318,10.);
#363=VECTOR('',#1319,10.);
#364=VECTOR('',#1322,10.);
#365=VECTOR('',#1323,10.);
#366=VECTOR('',#1326,10.);
#367=VECTOR('',#1327,10.);
#368=VECTOR('',#1330,10.);
#369=VECTOR('',#1331,10.);
#370=VECTOR('',#1334,10.);
#371=VECTOR('',#1335,10.);
#372=VECTOR('',#1338,10.);
#373=VECTOR('',#1339,10.);
#374=VECTOR('',#1342,10.);
#375=VECTOR('',#1343,10.);
#376=VECTOR('',#1346,10.);
#377=VECTOR('',#1347,10.);
#378=VECTOR('',#1350,10.);
#379=VECTOR('',#1351,10.);
#380=VECTOR('',#1354,10.);
#381=VECTOR('',#1355,10.);
#382=VECTOR('',#1358,10.);
#383=VECTOR('',#1359,10.);
#384=VECTOR('',#1362,10.);
#385=VECTOR('',#1363,10.);
#386=VECTOR('',#1366,10.);
#387=VECTOR('',#1367,10.);
#388=VECTOR('',#1368,10.);
#389=VECTOR('',#1369,10.);
#390=VECTOR('',#1372,10.);
#391=VECTOR('',#1373,10.);
#392=VECTOR('',#1374,10.);
#393=VECTOR('',#1375,10.);
#394=VECTOR('',#1376,10.);
#395=VECTOR('',#1377,10.);
#396=VECTOR('',#1378,10.);
#397=VECTOR('',#1379,10.);
#398=VECTOR('',#1380,10.);
#399=VECTOR('',#1381,10.);
#400=VECTOR('',#1382,10.);
#401=VECTOR('',#1383,10.);
#402=VECTOR('',#1384,10.);
#403=VECTOR('',#1385,10.);
#404=VECTOR('',#1386,10.);
#405=VECTOR('',#1387,10.);
#406=VECTOR('',#1388,10.);
#407=VECTOR('',#1389,10.);
#408=VECTOR('',#1390,10.);
#409=VECTOR('',#1391,10.);
#410=VECTOR('',#1392,10.);
#411=VECTOR('',#1393,10.);
#412=VECTOR('',#1394,10.);
#413=VECTOR('',#1395,10.);
#414=VECTOR('',#1396,10.);
#415=VECTOR('',#1397,10.);
#416=VECTOR('',#1400,10.);
#417=VECTOR('',#1401,10.);
#418=VECTOR('',#1402,10.);
#419=VECTOR('',#1405,10.);
#420=VECTOR('',#1406,10.);
#421=VECTOR('',#1407,10.);
#422=VECTOR('',#1408,10.);
#423=VECTOR('',#1411,10.);
#424=VECTOR('',#1412,10.);
#425=VECTOR('',#1415,10.);
#426=VECTOR('',#1416,10.);
#427=VECTOR('',#1417,10.);
#428=VECTOR('',#1424,10.);
#429=VECTOR('',#1427,10.);
#430=VECTOR('',#1430,10.);
#431=VECTOR('',#1433,10.);
#432=VECTOR('',#1436,10.);
#433=VECTOR('',#1439,10.);
#434=VECTOR('',#1442,10.);
#435=VECTOR('',#1445,10.);
#436=VECTOR('',#1448,10.);
#437=VECTOR('',#1451,10.);
#438=VECTOR('',#1454,10.);
#439=VECTOR('',#1457,10.);
#440=VECTOR('',#1460,10.);
#441=VECTOR('',#1463,10.);
#442=VECTOR('',#1466,10.);
#443=VECTOR('',#1469,10.);
#444=VECTOR('',#1472,10.);
#445=VECTOR('',#1475,10.);
#446=VECTOR('',#1478,10.);
#447=VECTOR('',#1481,10.);
#448=VECTOR('',#1484,10.);
#449=VECTOR('',#1487,10.);
#450=VECTOR('',#1490,10.);
#451=VERTEX_POINT('',#1495);
#452=VERTEX_POINT('',#1496);
#453=VERTEX_POINT('',#1498);
#454=VERTEX_POINT('',#1500);
#455=VERTEX_POINT('',#1504);
#456=VERTEX_POINT('',#1506);
#457=VERTEX_POINT('',#1510);
#458=VERTEX_POINT('',#1512);
#459=VERTEX_POINT('',#1519);
#460=VERTEX_POINT('',#1520);
#461=VERTEX_POINT('',#1522);
#462=VERTEX_POINT('',#1524);
#463=VERTEX_POINT('',#1526);
#464=VERTEX_POINT('',#1528);
#465=VERTEX_POINT('',#1530);
#466=VERTEX_POINT('',#1532);
#467=VERTEX_POINT('',#1534);
#468=VERTEX_POINT('',#1536);
#469=VERTEX_POINT('',#1538);
#470=VERTEX_POINT('',#1540);
#471=VERTEX_POINT('',#1542);
#472=VERTEX_POINT('',#1544);
#473=VERTEX_POINT('',#1546);
#474=VERTEX_POINT('',#1548);
#475=VERTEX_POINT('',#1550);
#476=VERTEX_POINT('',#1552);
#477=VERTEX_POINT('',#1554);
#478=VERTEX_POINT('',#1556);
#479=VERTEX_POINT('',#1558);
#480=VERTEX_POINT('',#1560);
#481=VERTEX_POINT('',#1562);
#482=VERTEX_POINT('',#1564);
#483=VERTEX_POINT('',#1566);
#484=VERTEX_POINT('',#1568);
#485=VERTEX_POINT('',#1570);
#486=VERTEX_POINT('',#1572);
#487=VERTEX_POINT('',#1574);
#488=VERTEX_POINT('',#1576);
#489=VERTEX_POINT('',#1578);
#490=VERTEX_POINT('',#1580);
#491=VERTEX_POINT('',#1582);
#492=VERTEX_POINT('',#1584);
#493=VERTEX_POINT('',#1586);
#494=VERTEX_POINT('',#1588);
#495=VERTEX_POINT('',#1590);
#496=VERTEX_POINT('',#1592);
#497=VERTEX_POINT('',#1594);
#498=VERTEX_POINT('',#1596);
#499=VERTEX_POINT('',#1598);
#500=VERTEX_POINT('',#1600);
#501=VERTEX_POINT('',#1602);
#502=VERTEX_POINT('',#1604);
#503=VERTEX_POINT('',#1608);
#504=VERTEX_POINT('',#1610);
#505=VERTEX_POINT('',#1614);
#506=VERTEX_POINT('',#1618);
#507=VERTEX_POINT('',#1622);
#508=VERTEX_POINT('',#1626);
#509=VERTEX_POINT('',#1630);
#510=VERTEX_POINT('',#1634);
#511=VERTEX_POINT('',#1638);
#512=VERTEX_POINT('',#1642);
#513=VERTEX_POINT('',#1646);
#514=VERTEX_POINT('',#1650);
#515=VERTEX_POINT('',#1654);
#516=VERTEX_POINT('',#1658);
#517=VERTEX_POINT('',#1662);
#518=VERTEX_POINT('',#1666);
#519=VERTEX_POINT('',#1670);
#520=VERTEX_POINT('',#1674);
#521=VERTEX_POINT('',#1678);
#522=VERTEX_POINT('',#1682);
#523=VERTEX_POINT('',#1686);
#524=VERTEX_POINT('',#1688);
#525=VERTEX_POINT('',#1690);
#526=VERTEX_POINT('',#1694);
#527=VERTEX_POINT('',#1695);
#528=VERTEX_POINT('',#1697);
#529=VERTEX_POINT('',#1699);
#530=VERTEX_POINT('',#1701);
#531=VERTEX_POINT('',#1703);
#532=VERTEX_POINT('',#1705);
#533=VERTEX_POINT('',#1707);
#534=VERTEX_POINT('',#1709);
#535=VERTEX_POINT('',#1711);
#536=VERTEX_POINT('',#1713);
#537=VERTEX_POINT('',#1715);
#538=VERTEX_POINT('',#1717);
#539=VERTEX_POINT('',#1719);
#540=VERTEX_POINT('',#1721);
#541=VERTEX_POINT('',#1723);
#542=VERTEX_POINT('',#1725);
#543=VERTEX_POINT('',#1727);
#544=VERTEX_POINT('',#1729);
#545=VERTEX_POINT('',#1731);
#546=VERTEX_POINT('',#1733);
#547=VERTEX_POINT('',#1735);
#548=VERTEX_POINT('',#1737);
#549=VERTEX_POINT('',#1740);
#550=VERTEX_POINT('',#1742);
#551=VERTEX_POINT('',#1746);
#552=VERTEX_POINT('',#1748);
#553=VERTEX_POINT('',#1752);
#554=VERTEX_POINT('',#1753);
#555=VERTEX_POINT('',#1755);
#556=VERTEX_POINT('',#1757);
#557=EDGE_CURVE('',#451,#452,#131,.T.);
#558=EDGE_CURVE('',#451,#453,#132,.T.);
#559=EDGE_CURVE('',#454,#453,#133,.T.);
#560=EDGE_CURVE('',#452,#454,#134,.T.);
#561=EDGE_CURVE('',#452,#455,#135,.T.);
#562=EDGE_CURVE('',#456,#454,#136,.T.);
#563=EDGE_CURVE('',#455,#456,#137,.T.);
#564=EDGE_CURVE('',#455,#457,#138,.T.);
#565=EDGE_CURVE('',#458,#456,#139,.T.);
#566=EDGE_CURVE('',#457,#458,#140,.T.);
#567=EDGE_CURVE('',#457,#451,#141,.T.);
#568=EDGE_CURVE('',#453,#458,#142,.T.);
#569=EDGE_CURVE('',#459,#460,#143,.T.);
#570=EDGE_CURVE('',#461,#459,#144,.T.);
#571=EDGE_CURVE('',#462,#461,#145,.T.);
#572=EDGE_CURVE('',#463,#462,#146,.T.);
#573=EDGE_CURVE('',#464,#463,#147,.T.);
#574=EDGE_CURVE('',#465,#464,#148,.T.);
#575=EDGE_CURVE('',#466,#465,#149,.T.);
#576=EDGE_CURVE('',#467,#466,#150,.T.);
#577=EDGE_CURVE('',#468,#467,#151,.T.);
#578=EDGE_CURVE('',#469,#468,#152,.T.);
#579=EDGE_CURVE('',#470,#469,#153,.T.);
#580=EDGE_CURVE('',#471,#470,#154,.T.);
#581=EDGE_CURVE('',#472,#471,#155,.T.);
#582=EDGE_CURVE('',#473,#472,#156,.T.);
#583=EDGE_CURVE('',#474,#473,#157,.T.);
#584=EDGE_CURVE('',#475,#474,#158,.T.);
#585=EDGE_CURVE('',#476,#475,#159,.T.);
#586=EDGE_CURVE('',#477,#476,#160,.T.);
#587=EDGE_CURVE('',#478,#477,#161,.T.);
#588=EDGE_CURVE('',#479,#478,#162,.T.);
#589=EDGE_CURVE('',#480,#479,#163,.T.);
#590=EDGE_CURVE('',#481,#480,#164,.T.);
#591=EDGE_CURVE('',#482,#481,#165,.T.);
#592=EDGE_CURVE('',#483,#482,#166,.T.);
#593=EDGE_CURVE('',#484,#483,#167,.T.);
#594=EDGE_CURVE('',#485,#484,#168,.T.);
#595=EDGE_CURVE('',#486,#485,#169,.T.);
#596=EDGE_CURVE('',#487,#486,#170,.T.);
#597=EDGE_CURVE('',#488,#487,#171,.T.);
#598=EDGE_CURVE('',#489,#488,#172,.T.);
#599=EDGE_CURVE('',#490,#489,#173,.T.);
#600=EDGE_CURVE('',#491,#490,#174,.T.);
#601=EDGE_CURVE('',#492,#491,#175,.T.);
#602=EDGE_CURVE('',#493,#492,#176,.T.);
#603=EDGE_CURVE('',#494,#493,#177,.T.);
#604=EDGE_CURVE('',#495,#494,#178,.T.);
#605=EDGE_CURVE('',#496,#495,#179,.T.);
#606=EDGE_CURVE('',#497,#496,#180,.T.);
#607=EDGE_CURVE('',#498,#497,#181,.T.);
#608=EDGE_CURVE('',#499,#498,#182,.T.);
#609=EDGE_CURVE('',#500,#499,#183,.T.);
#610=EDGE_CURVE('',#501,#500,#184,.T.);
#611=EDGE_CURVE('',#502,#501,#185,.T.);
#612=EDGE_CURVE('',#460,#502,#186,.T.);
#613=EDGE_CURVE('',#503,#479,#187,.T.);
#614=EDGE_CURVE('',#504,#503,#188,.T.);
#615=EDGE_CURVE('',#504,#480,#189,.T.);
#616=EDGE_CURVE('',#505,#478,#190,.T.);
#617=EDGE_CURVE('',#503,#505,#191,.T.);
#618=EDGE_CURVE('',#506,#477,#192,.T.);
#619=EDGE_CURVE('',#505,#506,#193,.T.);
#620=EDGE_CURVE('',#507,#476,#194,.T.);
#621=EDGE_CURVE('',#506,#507,#195,.T.);
#622=EDGE_CURVE('',#508,#475,#196,.T.);
#623=EDGE_CURVE('',#507,#508,#197,.T.);
#624=EDGE_CURVE('',#509,#474,#198,.T.);
#625=EDGE_CURVE('',#508,#509,#199,.T.);
#626=EDGE_CURVE('',#510,#473,#200,.T.);
#627=EDGE_CURVE('',#509,#510,#201,.T.);
#628=EDGE_CURVE('',#511,#472,#202,.T.);
#629=EDGE_CURVE('',#510,#511,#203,.T.);
#630=EDGE_CURVE('',#512,#471,#204,.T.);
#631=EDGE_CURVE('',#511,#512,#205,.T.);
#632=EDGE_CURVE('',#513,#470,#206,.T.);
#633=EDGE_CURVE('',#512,#513,#207,.T.);
#634=EDGE_CURVE('',#514,#469,#208,.T.);
#635=EDGE_CURVE('',#513,#514,#209,.T.);
#636=EDGE_CURVE('',#515,#468,#210,.T.);
#637=EDGE_CURVE('',#514,#515,#211,.T.);
#638=EDGE_CURVE('',#516,#467,#212,.T.);
#639=EDGE_CURVE('',#515,#516,#213,.T.);
#640=EDGE_CURVE('',#517,#466,#214,.T.);
#641=EDGE_CURVE('',#516,#517,#215,.T.);
#642=EDGE_CURVE('',#518,#465,#216,.T.);
#643=EDGE_CURVE('',#517,#518,#217,.T.);
#644=EDGE_CURVE('',#519,#464,#218,.T.);
#645=EDGE_CURVE('',#518,#519,#219,.T.);
#646=EDGE_CURVE('',#520,#463,#220,.T.);
#647=EDGE_CURVE('',#519,#520,#221,.T.);
#648=EDGE_CURVE('',#521,#462,#222,.T.);
#649=EDGE_CURVE('',#520,#521,#223,.T.);
#650=EDGE_CURVE('',#461,#522,#224,.T.);
#651=EDGE_CURVE('',#521,#522,#225,.T.);
#652=EDGE_CURVE('',#523,#459,#226,.T.);
#653=EDGE_CURVE('',#459,#524,#227,.T.);
#654=EDGE_CURVE('',#525,#524,#228,.T.);
#655=EDGE_CURVE('',#523,#525,#229,.T.);
#656=EDGE_CURVE('',#526,#527,#230,.T.);
#657=EDGE_CURVE('',#527,#528,#231,.T.);
#658=EDGE_CURVE('',#528,#529,#232,.T.);
#659=EDGE_CURVE('',#529,#530,#233,.T.);
#660=EDGE_CURVE('',#530,#531,#234,.T.);
#661=EDGE_CURVE('',#531,#532,#235,.T.);
#662=EDGE_CURVE('',#532,#533,#236,.T.);
#663=EDGE_CURVE('',#533,#534,#237,.T.);
#664=EDGE_CURVE('',#534,#535,#238,.T.);
#665=EDGE_CURVE('',#535,#536,#239,.T.);
#666=EDGE_CURVE('',#536,#537,#240,.T.);
#667=EDGE_CURVE('',#537,#538,#241,.T.);
#668=EDGE_CURVE('',#538,#539,#242,.T.);
#669=EDGE_CURVE('',#539,#540,#243,.T.);
#670=EDGE_CURVE('',#540,#541,#244,.T.);
#671=EDGE_CURVE('',#541,#542,#245,.T.);
#672=EDGE_CURVE('',#542,#543,#246,.T.);
#673=EDGE_CURVE('',#543,#544,#247,.T.);
#674=EDGE_CURVE('',#544,#545,#248,.T.);
#675=EDGE_CURVE('',#545,#546,#249,.T.);
#676=EDGE_CURVE('',#546,#547,#250,.T.);
#677=EDGE_CURVE('',#547,#548,#251,.T.);
#678=EDGE_CURVE('',#548,#504,#252,.T.);
#679=EDGE_CURVE('',#522,#549,#253,.T.);
#680=EDGE_CURVE('',#549,#550,#254,.T.);
#681=EDGE_CURVE('',#550,#526,#255,.T.);
#682=EDGE_CURVE('',#551,#461,#256,.T.);
#683=EDGE_CURVE('',#552,#523,#257,.T.);
#684=EDGE_CURVE('',#552,#551,#258,.T.);
#685=EDGE_CURVE('',#553,#554,#259,.T.);
#686=EDGE_CURVE('',#553,#555,#260,.T.);
#687=EDGE_CURVE('',#556,#555,#261,.T.);
#688=EDGE_CURVE('',#554,#556,#262,.T.);
#689=EDGE_CURVE('',#554,#552,#263,.T.);
#690=EDGE_CURVE('',#551,#556,#264,.T.);
#691=EDGE_CURVE('',#525,#553,#265,.T.);
#692=EDGE_CURVE('',#524,#550,#266,.T.);
#693=EDGE_CURVE('',#555,#549,#267,.T.);
#694=EDGE_CURVE('',#526,#460,#268,.T.);
#695=EDGE_CURVE('',#527,#502,#269,.T.);
#696=EDGE_CURVE('',#528,#501,#270,.T.);
#697=EDGE_CURVE('',#529,#500,#271,.T.);
#698=EDGE_CURVE('',#530,#499,#272,.T.);
#699=EDGE_CURVE('',#531,#498,#273,.T.);
#700=EDGE_CURVE('',#532,#497,#274,.T.);
#701=EDGE_CURVE('',#533,#496,#275,.T.);
#702=EDGE_CURVE('',#534,#495,#276,.T.);
#703=EDGE_CURVE('',#535,#494,#277,.T.);
#704=EDGE_CURVE('',#536,#493,#278,.T.);
#705=EDGE_CURVE('',#537,#492,#279,.T.);
#706=EDGE_CURVE('',#538,#491,#280,.T.);
#707=EDGE_CURVE('',#539,#490,#281,.T.);
#708=EDGE_CURVE('',#540,#489,#282,.T.);
#709=EDGE_CURVE('',#541,#488,#283,.T.);
#710=EDGE_CURVE('',#542,#487,#284,.T.);
#711=EDGE_CURVE('',#543,#486,#285,.T.);
#712=EDGE_CURVE('',#544,#485,#286,.T.);
#713=EDGE_CURVE('',#545,#484,#287,.T.);
#714=EDGE_CURVE('',#546,#483,#288,.T.);
#715=EDGE_CURVE('',#547,#482,#289,.T.);
#716=EDGE_CURVE('',#548,#481,#290,.T.);
#717=ORIENTED_EDGE('',*,*,#557,.F.);
#718=ORIENTED_EDGE('',*,*,#558,.T.);
#719=ORIENTED_EDGE('',*,*,#559,.F.);
#720=ORIENTED_EDGE('',*,*,#560,.F.);
#721=ORIENTED_EDGE('',*,*,#561,.F.);
#722=ORIENTED_EDGE('',*,*,#560,.T.);
#723=ORIENTED_EDGE('',*,*,#562,.F.);
#724=ORIENTED_EDGE('',*,*,#563,.F.);
#725=ORIENTED_EDGE('',*,*,#564,.F.);
#726=ORIENTED_EDGE('',*,*,#563,.T.);
#727=ORIENTED_EDGE('',*,*,#565,.F.);
#728=ORIENTED_EDGE('',*,*,#566,.F.);
#729=ORIENTED_EDGE('',*,*,#567,.F.);
#730=ORIENTED_EDGE('',*,*,#566,.T.);
#731=ORIENTED_EDGE('',*,*,#568,.F.);
#732=ORIENTED_EDGE('',*,*,#558,.F.);
#733=ORIENTED_EDGE('',*,*,#569,.F.);
#734=ORIENTED_EDGE('',*,*,#570,.F.);
#735=ORIENTED_EDGE('',*,*,#571,.F.);
#736=ORIENTED_EDGE('',*,*,#572,.F.);
#737=ORIENTED_EDGE('',*,*,#573,.F.);
#738=ORIENTED_EDGE('',*,*,#574,.F.);
#739=ORIENTED_EDGE('',*,*,#575,.F.);
#740=ORIENTED_EDGE('',*,*,#576,.F.);
#741=ORIENTED_EDGE('',*,*,#577,.F.);
#742=ORIENTED_EDGE('',*,*,#578,.F.);
#743=ORIENTED_EDGE('',*,*,#579,.F.);
#744=ORIENTED_EDGE('',*,*,#580,.F.);
#745=ORIENTED_EDGE('',*,*,#581,.F.);
#746=ORIENTED_EDGE('',*,*,#582,.F.);
#747=ORIENTED_EDGE('',*,*,#583,.F.);
#748=ORIENTED_EDGE('',*,*,#584,.F.);
#749=ORIENTED_EDGE('',*,*,#585,.F.);
#750=ORIENTED_EDGE('',*,*,#586,.F.);
#751=ORIENTED_EDGE('',*,*,#587,.F.);
#752=ORIENTED_EDGE('',*,*,#588,.F.);
#753=ORIENTED_EDGE('',*,*,#589,.F.);
#754=ORIENTED_EDGE('',*,*,#590,.F.);
#755=ORIENTED_EDGE('',*,*,#591,.F.);
#756=ORIENTED_EDGE('',*,*,#592,.F.);
#757=ORIENTED_EDGE('',*,*,#593,.F.);
#758=ORIENTED_EDGE('',*,*,#594,.F.);
#759=ORIENTED_EDGE('',*,*,#595,.F.);
#760=ORIENTED_EDGE('',*,*,#596,.F.);
#761=ORIENTED_EDGE('',*,*,#597,.F.);
#762=ORIENTED_EDGE('',*,*,#598,.F.);
#763=ORIENTED_EDGE('',*,*,#599,.F.);
#764=ORIENTED_EDGE('',*,*,#600,.F.);
#765=ORIENTED_EDGE('',*,*,#601,.F.);
#766=ORIENTED_EDGE('',*,*,#602,.F.);
#767=ORIENTED_EDGE('',*,*,#603,.F.);
#768=ORIENTED_EDGE('',*,*,#604,.F.);
#769=ORIENTED_EDGE('',*,*,#605,.F.);
#770=ORIENTED_EDGE('',*,*,#606,.F.);
#771=ORIENTED_EDGE('',*,*,#607,.F.);
#772=ORIENTED_EDGE('',*,*,#608,.F.);
#773=ORIENTED_EDGE('',*,*,#609,.F.);
#774=ORIENTED_EDGE('',*,*,#610,.F.);
#775=ORIENTED_EDGE('',*,*,#611,.F.);
#776=ORIENTED_EDGE('',*,*,#612,.F.);
#777=ORIENTED_EDGE('',*,*,#589,.T.);
#778=ORIENTED_EDGE('',*,*,#613,.F.);
#779=ORIENTED_EDGE('',*,*,#614,.F.);
#780=ORIENTED_EDGE('',*,*,#615,.T.);
#781=ORIENTED_EDGE('',*,*,#588,.T.);
#782=ORIENTED_EDGE('',*,*,#616,.F.);
#783=ORIENTED_EDGE('',*,*,#617,.F.);
#784=ORIENTED_EDGE('',*,*,#613,.T.);
#785=ORIENTED_EDGE('',*,*,#587,.T.);
#786=ORIENTED_EDGE('',*,*,#618,.F.);
#787=ORIENTED_EDGE('',*,*,#619,.F.);
#788=ORIENTED_EDGE('',*,*,#616,.T.);
#789=ORIENTED_EDGE('',*,*,#586,.T.);
#790=ORIENTED_EDGE('',*,*,#620,.F.);
#791=ORIENTED_EDGE('',*,*,#621,.F.);
#792=ORIENTED_EDGE('',*,*,#618,.T.);
#793=ORIENTED_EDGE('',*,*,#585,.T.);
#794=ORIENTED_EDGE('',*,*,#622,.F.);
#795=ORIENTED_EDGE('',*,*,#623,.F.);
#796=ORIENTED_EDGE('',*,*,#620,.T.);
#797=ORIENTED_EDGE('',*,*,#584,.T.);
#798=ORIENTED_EDGE('',*,*,#624,.F.);
#799=ORIENTED_EDGE('',*,*,#625,.F.);
#800=ORIENTED_EDGE('',*,*,#622,.T.);
#801=ORIENTED_EDGE('',*,*,#583,.T.);
#802=ORIENTED_EDGE('',*,*,#626,.F.);
#803=ORIENTED_EDGE('',*,*,#627,.F.);
#804=ORIENTED_EDGE('',*,*,#624,.T.);
#805=ORIENTED_EDGE('',*,*,#582,.T.);
#806=ORIENTED_EDGE('',*,*,#628,.F.);
#807=ORIENTED_EDGE('',*,*,#629,.F.);
#808=ORIENTED_EDGE('',*,*,#626,.T.);
#809=ORIENTED_EDGE('',*,*,#581,.T.);
#810=ORIENTED_EDGE('',*,*,#630,.F.);
#811=ORIENTED_EDGE('',*,*,#631,.F.);
#812=ORIENTED_EDGE('',*,*,#628,.T.);
#813=ORIENTED_EDGE('',*,*,#580,.T.);
#814=ORIENTED_EDGE('',*,*,#632,.F.);
#815=ORIENTED_EDGE('',*,*,#633,.F.);
#816=ORIENTED_EDGE('',*,*,#630,.T.);
#817=ORIENTED_EDGE('',*,*,#579,.T.);
#818=ORIENTED_EDGE('',*,*,#634,.F.);
#819=ORIENTED_EDGE('',*,*,#635,.F.);
#820=ORIENTED_EDGE('',*,*,#632,.T.);
#821=ORIENTED_EDGE('',*,*,#578,.T.);
#822=ORIENTED_EDGE('',*,*,#636,.F.);
#823=ORIENTED_EDGE('',*,*,#637,.F.);
#824=ORIENTED_EDGE('',*,*,#634,.T.);
#825=ORIENTED_EDGE('',*,*,#577,.T.);
#826=ORIENTED_EDGE('',*,*,#638,.F.);
#827=ORIENTED_EDGE('',*,*,#639,.F.);
#828=ORIENTED_EDGE('',*,*,#636,.T.);
#829=ORIENTED_EDGE('',*,*,#576,.T.);
#830=ORIENTED_EDGE('',*,*,#640,.F.);
#831=ORIENTED_EDGE('',*,*,#641,.F.);
#832=ORIENTED_EDGE('',*,*,#638,.T.);
#833=ORIENTED_EDGE('',*,*,#575,.T.);
#834=ORIENTED_EDGE('',*,*,#642,.F.);
#835=ORIENTED_EDGE('',*,*,#643,.F.);
#836=ORIENTED_EDGE('',*,*,#640,.T.);
#837=ORIENTED_EDGE('',*,*,#574,.T.);
#838=ORIENTED_EDGE('',*,*,#644,.F.);
#839=ORIENTED_EDGE('',*,*,#645,.F.);
#840=ORIENTED_EDGE('',*,*,#642,.T.);
#841=ORIENTED_EDGE('',*,*,#573,.T.);
#842=ORIENTED_EDGE('',*,*,#646,.F.);
#843=ORIENTED_EDGE('',*,*,#647,.F.);
#844=ORIENTED_EDGE('',*,*,#644,.T.);
#845=ORIENTED_EDGE('',*,*,#572,.T.);
#846=ORIENTED_EDGE('',*,*,#648,.F.);
#847=ORIENTED_EDGE('',*,*,#649,.F.);
#848=ORIENTED_EDGE('',*,*,#646,.T.);
#849=ORIENTED_EDGE('',*,*,#571,.T.);
#850=ORIENTED_EDGE('',*,*,#650,.T.);
#851=ORIENTED_EDGE('',*,*,#651,.F.);
#852=ORIENTED_EDGE('',*,*,#648,.T.);
#853=ORIENTED_EDGE('',*,*,#652,.T.);
#854=ORIENTED_EDGE('',*,*,#653,.T.);
#855=ORIENTED_EDGE('',*,*,#654,.F.);
#856=ORIENTED_EDGE('',*,*,#655,.F.);
#857=ORIENTED_EDGE('',*,*,#656,.T.);
#858=ORIENTED_EDGE('',*,*,#657,.T.);
#859=ORIENTED_EDGE('',*,*,#658,.T.);
#860=ORIENTED_EDGE('',*,*,#659,.T.);
#861=ORIENTED_EDGE('',*,*,#660,.T.);
#862=ORIENTED_EDGE('',*,*,#661,.T.);
#863=ORIENTED_EDGE('',*,*,#662,.T.);
#864=ORIENTED_EDGE('',*,*,#663,.T.);
#865=ORIENTED_EDGE('',*,*,#664,.T.);
#866=ORIENTED_EDGE('',*,*,#665,.T.);
#867=ORIENTED_EDGE('',*,*,#666,.T.);
#868=ORIENTED_EDGE('',*,*,#667,.T.);
#869=ORIENTED_EDGE('',*,*,#668,.T.);
#870=ORIENTED_EDGE('',*,*,#669,.T.);
#871=ORIENTED_EDGE('',*,*,#670,.T.);
#872=ORIENTED_EDGE('',*,*,#671,.T.);
#873=ORIENTED_EDGE('',*,*,#672,.T.);
#874=ORIENTED_EDGE('',*,*,#673,.T.);
#875=ORIENTED_EDGE('',*,*,#674,.T.);
#876=ORIENTED_EDGE('',*,*,#675,.T.);
#877=ORIENTED_EDGE('',*,*,#676,.T.);
#878=ORIENTED_EDGE('',*,*,#677,.T.);
#879=ORIENTED_EDGE('',*,*,#678,.T.);
#880=ORIENTED_EDGE('',*,*,#614,.T.);
#881=ORIENTED_EDGE('',*,*,#617,.T.);
#882=ORIENTED_EDGE('',*,*,#619,.T.);
#883=ORIENTED_EDGE('',*,*,#621,.T.);
#884=ORIENTED_EDGE('',*,*,#623,.T.);
#885=ORIENTED_EDGE('',*,*,#625,.T.);
#886=ORIENTED_EDGE('',*,*,#627,.T.);
#887=ORIENTED_EDGE('',*,*,#629,.T.);
#888=ORIENTED_EDGE('',*,*,#631,.T.);
#889=ORIENTED_EDGE('',*,*,#633,.T.);
#890=ORIENTED_EDGE('',*,*,#635,.T.);
#891=ORIENTED_EDGE('',*,*,#637,.T.);
#892=ORIENTED_EDGE('',*,*,#639,.T.);
#893=ORIENTED_EDGE('',*,*,#641,.T.);
#894=ORIENTED_EDGE('',*,*,#643,.T.);
#895=ORIENTED_EDGE('',*,*,#645,.T.);
#896=ORIENTED_EDGE('',*,*,#647,.T.);
#897=ORIENTED_EDGE('',*,*,#649,.T.);
#898=ORIENTED_EDGE('',*,*,#651,.T.);
#899=ORIENTED_EDGE('',*,*,#679,.T.);
#900=ORIENTED_EDGE('',*,*,#680,.T.);
#901=ORIENTED_EDGE('',*,*,#681,.T.);
#902=ORIENTED_EDGE('',*,*,#682,.T.);
#903=ORIENTED_EDGE('',*,*,#570,.T.);
#904=ORIENTED_EDGE('',*,*,#652,.F.);
#905=ORIENTED_EDGE('',*,*,#683,.F.);
#906=ORIENTED_EDGE('',*,*,#684,.T.);
#907=ORIENTED_EDGE('',*,*,#564,.T.);
#908=ORIENTED_EDGE('',*,*,#567,.T.);
#909=ORIENTED_EDGE('',*,*,#557,.T.);
#910=ORIENTED_EDGE('',*,*,#561,.T.);
#911=ORIENTED_EDGE('',*,*,#685,.F.);
#912=ORIENTED_EDGE('',*,*,#686,.T.);
#913=ORIENTED_EDGE('',*,*,#687,.F.);
#914=ORIENTED_EDGE('',*,*,#688,.F.);
#915=ORIENTED_EDGE('',*,*,#689,.F.);
#916=ORIENTED_EDGE('',*,*,#688,.T.);
#917=ORIENTED_EDGE('',*,*,#690,.F.);
#918=ORIENTED_EDGE('',*,*,#684,.F.);
#919=ORIENTED_EDGE('',*,*,#691,.F.);
#920=ORIENTED_EDGE('',*,*,#654,.T.);
#921=ORIENTED_EDGE('',*,*,#692,.T.);
#922=ORIENTED_EDGE('',*,*,#680,.F.);
#923=ORIENTED_EDGE('',*,*,#693,.F.);
#924=ORIENTED_EDGE('',*,*,#686,.F.);
#925=ORIENTED_EDGE('',*,*,#565,.T.);
#926=ORIENTED_EDGE('',*,*,#562,.T.);
#927=ORIENTED_EDGE('',*,*,#559,.T.);
#928=ORIENTED_EDGE('',*,*,#568,.T.);
#929=ORIENTED_EDGE('',*,*,#691,.T.);
#930=ORIENTED_EDGE('',*,*,#685,.T.);
#931=ORIENTED_EDGE('',*,*,#689,.T.);
#932=ORIENTED_EDGE('',*,*,#683,.T.);
#933=ORIENTED_EDGE('',*,*,#655,.T.);
#934=ORIENTED_EDGE('',*,*,#693,.T.);
#935=ORIENTED_EDGE('',*,*,#679,.F.);
#936=ORIENTED_EDGE('',*,*,#650,.F.);
#937=ORIENTED_EDGE('',*,*,#682,.F.);
#938=ORIENTED_EDGE('',*,*,#690,.T.);
#939=ORIENTED_EDGE('',*,*,#687,.T.);
#940=ORIENTED_EDGE('',*,*,#569,.T.);
#941=ORIENTED_EDGE('',*,*,#694,.F.);
#942=ORIENTED_EDGE('',*,*,#681,.F.);
#943=ORIENTED_EDGE('',*,*,#692,.F.);
#944=ORIENTED_EDGE('',*,*,#653,.F.);
#945=ORIENTED_EDGE('',*,*,#612,.T.);
#946=ORIENTED_EDGE('',*,*,#695,.F.);
#947=ORIENTED_EDGE('',*,*,#656,.F.);
#948=ORIENTED_EDGE('',*,*,#694,.T.);
#949=ORIENTED_EDGE('',*,*,#611,.T.);
#950=ORIENTED_EDGE('',*,*,#696,.F.);
#951=ORIENTED_EDGE('',*,*,#657,.F.);
#952=ORIENTED_EDGE('',*,*,#695,.T.);
#953=ORIENTED_EDGE('',*,*,#610,.T.);
#954=ORIENTED_EDGE('',*,*,#697,.F.);
#955=ORIENTED_EDGE('',*,*,#658,.F.);
#956=ORIENTED_EDGE('',*,*,#696,.T.);
#957=ORIENTED_EDGE('',*,*,#609,.T.);
#958=ORIENTED_EDGE('',*,*,#698,.F.);
#959=ORIENTED_EDGE('',*,*,#659,.F.);
#960=ORIENTED_EDGE('',*,*,#697,.T.);
#961=ORIENTED_EDGE('',*,*,#608,.T.);
#962=ORIENTED_EDGE('',*,*,#699,.F.);
#963=ORIENTED_EDGE('',*,*,#660,.F.);
#964=ORIENTED_EDGE('',*,*,#698,.T.);
#965=ORIENTED_EDGE('',*,*,#607,.T.);
#966=ORIENTED_EDGE('',*,*,#700,.F.);
#967=ORIENTED_EDGE('',*,*,#661,.F.);
#968=ORIENTED_EDGE('',*,*,#699,.T.);
#969=ORIENTED_EDGE('',*,*,#606,.T.);
#970=ORIENTED_EDGE('',*,*,#701,.F.);
#971=ORIENTED_EDGE('',*,*,#662,.F.);
#972=ORIENTED_EDGE('',*,*,#700,.T.);
#973=ORIENTED_EDGE('',*,*,#605,.T.);
#974=ORIENTED_EDGE('',*,*,#702,.F.);
#975=ORIENTED_EDGE('',*,*,#663,.F.);
#976=ORIENTED_EDGE('',*,*,#701,.T.);
#977=ORIENTED_EDGE('',*,*,#604,.T.);
#978=ORIENTED_EDGE('',*,*,#703,.F.);
#979=ORIENTED_EDGE('',*,*,#664,.F.);
#980=ORIENTED_EDGE('',*,*,#702,.T.);
#981=ORIENTED_EDGE('',*,*,#603,.T.);
#982=ORIENTED_EDGE('',*,*,#704,.F.);
#983=ORIENTED_EDGE('',*,*,#665,.F.);
#984=ORIENTED_EDGE('',*,*,#703,.T.);
#985=ORIENTED_EDGE('',*,*,#602,.T.);
#986=ORIENTED_EDGE('',*,*,#705,.F.);
#987=ORIENTED_EDGE('',*,*,#666,.F.);
#988=ORIENTED_EDGE('',*,*,#704,.T.);
#989=ORIENTED_EDGE('',*,*,#601,.T.);
#990=ORIENTED_EDGE('',*,*,#706,.F.);
#991=ORIENTED_EDGE('',*,*,#667,.F.);
#992=ORIENTED_EDGE('',*,*,#705,.T.);
#993=ORIENTED_EDGE('',*,*,#600,.T.);
#994=ORIENTED_EDGE('',*,*,#707,.F.);
#995=ORIENTED_EDGE('',*,*,#668,.F.);
#996=ORIENTED_EDGE('',*,*,#706,.T.);
#997=ORIENTED_EDGE('',*,*,#599,.T.);
#998=ORIENTED_EDGE('',*,*,#708,.F.);
#999=ORIENTED_EDGE('',*,*,#669,.F.);
#1000=ORIENTED_EDGE('',*,*,#707,.T.);
#1001=ORIENTED_EDGE('',*,*,#598,.T.);
#1002=ORIENTED_EDGE('',*,*,#709,.F.);
#1003=ORIENTED_EDGE('',*,*,#670,.F.);
#1004=ORIENTED_EDGE('',*,*,#708,.T.);
#1005=ORIENTED_EDGE('',*,*,#597,.T.);
#1006=ORIENTED_EDGE('',*,*,#710,.F.);
#1007=ORIENTED_EDGE('',*,*,#671,.F.);
#1008=ORIENTED_EDGE('',*,*,#709,.T.);
#1009=ORIENTED_EDGE('',*,*,#596,.T.);
#1010=ORIENTED_EDGE('',*,*,#711,.F.);
#1011=ORIENTED_EDGE('',*,*,#672,.F.);
#1012=ORIENTED_EDGE('',*,*,#710,.T.);
#1013=ORIENTED_EDGE('',*,*,#595,.T.);
#1014=ORIENTED_EDGE('',*,*,#712,.F.);
#1015=ORIENTED_EDGE('',*,*,#673,.F.);
#1016=ORIENTED_EDGE('',*,*,#711,.T.);
#1017=ORIENTED_EDGE('',*,*,#594,.T.);
#1018=ORIENTED_EDGE('',*,*,#713,.F.);
#1019=ORIENTED_EDGE('',*,*,#674,.F.);
#1020=ORIENTED_EDGE('',*,*,#712,.T.);
#1021=ORIENTED_EDGE('',*,*,#593,.T.);
#1022=ORIENTED_EDGE('',*,*,#714,.F.);
#1023=ORIENTED_EDGE('',*,*,#675,.F.);
#1024=ORIENTED_EDGE('',*,*,#713,.T.);
#1025=ORIENTED_EDGE('',*,*,#592,.T.);
#1026=ORIENTED_EDGE('',*,*,#715,.F.);
#1027=ORIENTED_EDGE('',*,*,#676,.F.);
#1028=ORIENTED_EDGE('',*,*,#714,.T.);
#1029=ORIENTED_EDGE('',*,*,#591,.T.);
#1030=ORIENTED_EDGE('',*,*,#716,.F.);
#1031=ORIENTED_EDGE('',*,*,#677,.F.);
#1032=ORIENTED_EDGE('',*,*,#715,.T.);
#1033=ORIENTED_EDGE('',*,*,#590,.T.);
#1034=ORIENTED_EDGE('',*,*,#615,.F.);
#1035=ORIENTED_EDGE('',*,*,#678,.F.);
#1036=ORIENTED_EDGE('',*,*,#716,.T.);
#1037=PLANE('',#1163);
#1038=PLANE('',#1164);
#1039=PLANE('',#1165);
#1040=PLANE('',#1166);
#1041=PLANE('',#1167);
#1042=PLANE('',#1168);
#1043=PLANE('',#1169);
#1044=PLANE('',#1170);
#1045=PLANE('',#1171);
#1046=PLANE('',#1172);
#1047=PLANE('',#1173);
#1048=PLANE('',#1174);
#1049=PLANE('',#1175);
#1050=PLANE('',#1176);
#1051=PLANE('',#1177);
#1052=PLANE('',#1178);
#1053=PLANE('',#1179);
#1054=PLANE('',#1180);
#1055=PLANE('',#1181);
#1056=PLANE('',#1182);
#1057=PLANE('',#1183);
#1058=PLANE('',#1184);
#1059=PLANE('',#1185);
#1060=PLANE('',#1186);
#1061=PLANE('',#1187);
#1062=PLANE('',#1188);
#1063=PLANE('',#1189);
#1064=PLANE('',#1190);
#1065=PLANE('',#1191);
#1066=PLANE('',#1192);
#1067=PLANE('',#1193);
#1068=PLANE('',#1194);
#1069=PLANE('',#1195);
#1070=PLANE('',#1196);
#1071=PLANE('',#1197);
#1072=PLANE('',#1198);
#1073=PLANE('',#1199);
#1074=PLANE('',#1200);
#1075=PLANE('',#1201);
#1076=PLANE('',#1202);
#1077=PLANE('',#1203);
#1078=PLANE('',#1204);
#1079=PLANE('',#1205);
#1080=PLANE('',#1206);
#1081=PLANE('',#1207);
#1082=PLANE('',#1208);
#1083=PLANE('',#1209);
#1084=PLANE('',#1210);
#1085=PLANE('',#1211);
#1086=PLANE('',#1212);
#1087=PLANE('',#1213);
#1088=PLANE('',#1214);
#1089=PLANE('',#1215);
#1090=PLANE('',#1216);
#1091=PLANE('',#1217);
#1092=PLANE('',#1218);
#1093=ADVANCED_FACE('',(#17),#1037,.F.);
#1094=ADVANCED_FACE('',(#18),#1038,.F.);
#1095=ADVANCED_FACE('',(#19),#1039,.F.);
#1096=ADVANCED_FACE('',(#20),#1040,.F.);
#1097=ADVANCED_FACE('',(#21),#1041,.F.);
#1098=ADVANCED_FACE('',(#22),#1042,.T.);
#1099=ADVANCED_FACE('',(#23),#1043,.T.);
#1100=ADVANCED_FACE('',(#24),#1044,.T.);
#1101=ADVANCED_FACE('',(#25),#1045,.T.);
#1102=ADVANCED_FACE('',(#26),#1046,.T.);
#1103=ADVANCED_FACE('',(#27),#1047,.T.);
#1104=ADVANCED_FACE('',(#28),#1048,.T.);
#1105=ADVANCED_FACE('',(#29),#1049,.T.);
#1106=ADVANCED_FACE('',(#30),#1050,.T.);
#1107=ADVANCED_FACE('',(#31),#1051,.T.);
#1108=ADVANCED_FACE('',(#32),#1052,.T.);
#1109=ADVANCED_FACE('',(#33),#1053,.T.);
#1110=ADVANCED_FACE('',(#34),#1054,.T.);
#1111=ADVANCED_FACE('',(#35),#1055,.T.);
#1112=ADVANCED_FACE('',(#36),#1056,.T.);
#1113=ADVANCED_FACE('',(#37),#1057,.T.);
#1114=ADVANCED_FACE('',(#38),#1058,.T.);
#1115=ADVANCED_FACE('',(#39),#1059,.T.);
#1116=ADVANCED_FACE('',(#40),#1060,.T.);
#1117=ADVANCED_FACE('',(#41),#1061,.F.);
#1118=ADVANCED_FACE('',(#42),#1062,.T.);
#1119=ADVANCED_FACE('',(#43,#15),#1063,.T.);
#1120=ADVANCED_FACE('',(#44),#1064,.T.);
#1121=ADVANCED_FACE('',(#45),#1065,.T.);
#1122=ADVANCED_FACE('',(#46,#16),#1066,.T.);
#1123=ADVANCED_FACE('',(#47),#1067,.T.);
#1124=ADVANCED_FACE('',(#48),#1068,.T.);
#1125=ADVANCED_FACE('',(#49),#1069,.T.);
#1126=ADVANCED_FACE('',(#50),#1070,.T.);
#1127=ADVANCED_FACE('',(#51),#1071,.T.);
#1128=ADVANCED_FACE('',(#52),#1072,.T.);
#1129=ADVANCED_FACE('',(#53),#1073,.T.);
#1130=ADVANCED_FACE('',(#54),#1074,.T.);
#1131=ADVANCED_FACE('',(#55),#1075,.T.);
#1132=ADVANCED_FACE('',(#56),#1076,.T.);
#1133=ADVANCED_FACE('',(#57),#1077,.T.);
#1134=ADVANCED_FACE('',(#58),#1078,.T.);
#1135=ADVANCED_FACE('',(#59),#1079,.T.);
#1136=ADVANCED_FACE('',(#60),#1080,.T.);
#1137=ADVANCED_FACE('',(#61),#1081,.T.);
#1138=ADVANCED_FACE('',(#62),#1082,.T.);
#1139=ADVANCED_FACE('',(#63),#1083,.T.);
#1140=ADVANCED_FACE('',(#64),#1084,.T.);
#1141=ADVANCED_FACE('',(#65),#1085,.T.);
#1142=ADVANCED_FACE('',(#66),#1086,.T.);
#1143=ADVANCED_FACE('',(#67),#1087,.T.);
#1144=ADVANCED_FACE('',(#68),#1088,.T.);
#1145=ADVANCED_FACE('',(#69),#1089,.T.);
#1146=ADVANCED_FACE('',(#70),#1090,.T.);
#1147=ADVANCED_FACE('',(#71),#1091,.T.);
#1148=ADVANCED_FACE('',(#72),#1092,.T.);
#1149=CLOSED_SHELL('',(#1093,#1094,#1095,#1096,#1097,#1098,#1099,#1100,
#1101,#1102,#1103,#1104,#1105,#1106,#1107,#1108,#1109,#1110,#1111,#1112,
#1113,#1114,#1115,#1116,#1117,#1118,#1119,#1120,#1121,#1122,#1123,#1124,
#1125,#1126,#1127,#1128,#1129,#1130,#1131,#1132,#1133,#1134,#1135,#1136,
#1137,#1138,#1139,#1140,#1141,#1142,#1143,#1144,#1145,#1146,#1147,#1148));
#1150=DERIVED_UNIT_ELEMENT(#1152,1.);
#1151=DERIVED_UNIT_ELEMENT(#1821,-3.);
#1152=(
MASS_UNIT()
NAMED_UNIT(*)
SI_UNIT(.KILO.,.GRAM.)
);
#1153=DERIVED_UNIT((#1150,#1151));
#1154=MEASURE_REPRESENTATION_ITEM('density measure',
POSITIVE_RATIO_MEASURE(7850.),#1153);
#1155=PROPERTY_DEFINITION_REPRESENTATION(#1160,#1157);
#1156=PROPERTY_DEFINITION_REPRESENTATION(#1161,#1158);
#1157=REPRESENTATION('material name',(#1159),#1818);
#1158=REPRESENTATION('density',(#1154),#1818);
#1159=DESCRIPTIVE_REPRESENTATION_ITEM('Steel','Steel');
#1160=PROPERTY_DEFINITION('material property','material name',#1828);
#1161=PROPERTY_DEFINITION('material property','density of part',#1828);
#1162=AXIS2_PLACEMENT_3D('',#1493,#1219,#1220);
#1163=AXIS2_PLACEMENT_3D('',#1494,#1221,#1222);
#1164=AXIS2_PLACEMENT_3D('',#1503,#1227,#1228);
#1165=AXIS2_PLACEMENT_3D('',#1509,#1232,#1233);
#1166=AXIS2_PLACEMENT_3D('',#1515,#1237,#1238);
#1167=AXIS2_PLACEMENT_3D('',#1518,#1241,#1242);
#1168=AXIS2_PLACEMENT_3D('',#1607,#1287,#1288);
#1169=AXIS2_PLACEMENT_3D('',#1613,#1292,#1293);
#1170=AXIS2_PLACEMENT_3D('',#1617,#1296,#1297);
#1171=AXIS2_PLACEMENT_3D('',#1621,#1300,#1301);
#1172=AXIS2_PLACEMENT_3D('',#1625,#1304,#1305);
#1173=AXIS2_PLACEMENT_3D('',#1629,#1308,#1309);
#1174=AXIS2_PLACEMENT_3D('',#1633,#1312,#1313);
#1175=AXIS2_PLACEMENT_3D('',#1637,#1316,#1317);
#1176=AXIS2_PLACEMENT_3D('',#1641,#1320,#1321);
#1177=AXIS2_PLACEMENT_3D('',#1645,#1324,#1325);
#1178=AXIS2_PLACEMENT_3D('',#1649,#1328,#1329);
#1179=AXIS2_PLACEMENT_3D('',#1653,#1332,#1333);
#1180=AXIS2_PLACEMENT_3D('',#1657,#1336,#1337);
#1181=AXIS2_PLACEMENT_3D('',#1661,#1340,#1341);
#1182=AXIS2_PLACEMENT_3D('',#1665,#1344,#1345);
#1183=AXIS2_PLACEMENT_3D('',#1669,#1348,#1349);
#1184=AXIS2_PLACEMENT_3D('',#1673,#1352,#1353);
#1185=AXIS2_PLACEMENT_3D('',#1677,#1356,#1357);
#1186=AXIS2_PLACEMENT_3D('',#1681,#1360,#1361);
#1187=AXIS2_PLACEMENT_3D('',#1685,#1364,#1365);
#1188=AXIS2_PLACEMENT_3D('',#1693,#1370,#1371);
#1189=AXIS2_PLACEMENT_3D('',#1745,#1398,#1399);
#1190=AXIS2_PLACEMENT_3D('',#1751,#1403,#1404);
#1191=AXIS2_PLACEMENT_3D('',#1760,#1409,#1410);
#1192=AXIS2_PLACEMENT_3D('',#1763,#1413,#1414);
#1193=AXIS2_PLACEMENT_3D('',#1767,#1418,#1419);
#1194=AXIS2_PLACEMENT_3D('',#1768,#1420,#1421);
#1195=AXIS2_PLACEMENT_3D('',#1769,#1422,#1423);
#1196=AXIS2_PLACEMENT_3D('',#1771,#1425,#1426);
#1197=AXIS2_PLACEMENT_3D('',#1773,#1428,#1429);
#1198=AXIS2_PLACEMENT_3D('',#1775,#1431,#1432);
#1199=AXIS2_PLACEMENT_3D('',#1777,#1434,#1435);
#1200=AXIS2_PLACEMENT_3D('',#1779,#1437,#1438);
#1201=AXIS2_PLACEMENT_3D('',#1781,#1440,#1441);
#1202=AXIS2_PLACEMENT_3D('',#1783,#1443,#1444);
#1203=AXIS2_PLACEMENT_3D('',#1785,#1446,#1447);
#1204=AXIS2_PLACEMENT_3D('',#1787,#1449,#1450);
#1205=AXIS2_PLACEMENT_3D('',#1789,#1452,#1453);
#1206=AXIS2_PLACEMENT_3D('',#1791,#1455,#1456);
#1207=AXIS2_PLACEMENT_3D('',#1793,#1458,#1459);
#1208=AXIS2_PLACEMENT_3D('',#1795,#1461,#1462);
#1209=AXIS2_PLACEMENT_3D('',#1797,#1464,#1465);
#1210=AXIS2_PLACEMENT_3D('',#1799,#1467,#1468);
#1211=AXIS2_PLACEMENT_3D('',#1801,#1470,#1471);
#1212=AXIS2_PLACEMENT_3D('',#1803,#1473,#1474);
#1213=AXIS2_PLACEMENT_3D('',#1805,#1476,#1477);
#1214=AXIS2_PLACEMENT_3D('',#1807,#1479,#1480);
#1215=AXIS2_PLACEMENT_3D('',#1809,#1482,#1483);
#1216=AXIS2_PLACEMENT_3D('',#1811,#1485,#1486);
#1217=AXIS2_PLACEMENT_3D('',#1813,#1488,#1489);
#1218=AXIS2_PLACEMENT_3D('',#1815,#1491,#1492);
#1219=DIRECTION('axis',(0.,0.,1.));
#1220=DIRECTION('refdir',(1.,0.,0.));
#1221=DIRECTION('center_axis',(7.40148683083438E-17,-1.,-6.49937442546148E-50));
#1222=DIRECTION('ref_axis',(5.08457657750093E-33,3.11340521532806E-49,1.));
#1223=DIRECTION('',(1.17819586286751E-15,8.72040116315744E-32,1.));
#1224=DIRECTION('',(-1.,-7.40148683083438E-17,0.));
#1225=DIRECTION('',(-1.17819586286751E-15,-8.72040116315744E-32,-1.));
#1226=DIRECTION('',(-1.,-7.40148683083438E-17,0.));
#1227=DIRECTION('center_axis',(9.47390382075204E-82,-1.28000009150648E-65,
1.));
#1228=DIRECTION('ref_axis',(-6.12323399573676E-17,1.,1.28000009150648E-65));
#1229=DIRECTION('',(3.22973970800046E-16,1.,1.28000009150648E-65));
#1230=DIRECTION('',(-1.77635683940025E-16,-1.,-1.28000009150648E-65));
#1231=DIRECTION('',(-1.,-7.40148683083438E-17,0.));
#1232=DIRECTION('center_axis',(-7.40148683083438E-17,1.,4.34488068580074E-50));
#1233=DIRECTION('ref_axis',(-3.39907768361722E-33,-2.08133480264751E-49,
-1.));
#1234=DIRECTION('',(-1.17819586286751E-15,-8.72040116315744E-32,-1.));
#1235=DIRECTION('',(1.17819586286751E-15,8.72040116315744E-32,1.));
#1236=DIRECTION('',(-1.,-7.40148683083438E-17,0.));
#1237=DIRECTION('center_axis',(0.,0.,-1.));
#1238=DIRECTION('ref_axis',(6.12323399573676E-17,-1.,0.));
#1239=DIRECTION('',(-3.22973970800046E-16,-1.,0.));
#1240=DIRECTION('',(1.77635683940025E-16,1.,0.));
#1241=DIRECTION('center_axis',(0.,1.,0.));
#1242=DIRECTION('ref_axis',(0.,0.,1.));
#1243=DIRECTION('',(1.,0.,-4.80484796395564E-15));
#1244=DIRECTION('',(1.21483370475701E-15,5.55111512312577E-17,1.));
#1245=DIRECTION('',(1.21483370475701E-15,0.,1.));
#1246=DIRECTION('',(-1.,0.,1.09372073562606E-15));
#1247=DIRECTION('',(-1.40732496079245E-15,0.,-1.));
#1248=DIRECTION('',(0.250380004054439,0.,-0.968147640378108));
#1249=DIRECTION('',(1.,0.,1.57772181044202E-30));
#1250=DIRECTION('',(0.250380004054442,0.,0.968147640378108));
#1251=DIRECTION('',(1.,0.,-2.4024239819778E-15));
#1252=DIRECTION('',(0.250380004054439,0.,-0.968147640378108));
#1253=DIRECTION('',(1.,0.,1.57772181044202E-30));
#1254=DIRECTION('',(0.250380004054441,0.,0.968147640378108));
#1255=DIRECTION('',(1.,0.,1.57772181044202E-30));
#1256=DIRECTION('',(0.250380004054439,0.,-0.968147640378108));
#1257=DIRECTION('',(1.,0.,-4.21512511583145E-15));
#1258=DIRECTION('',(0.250380004054441,0.,0.968147640378108));
#1259=DIRECTION('',(1.,0.,-2.4024239819778E-15));
#1260=DIRECTION('',(0.250380004054439,0.,-0.968147640378109));
#1261=DIRECTION('',(1.,0.,1.57772181044202E-30));
#1262=DIRECTION('',(0.250380004054441,0.,0.968147640378108));
#1263=DIRECTION('',(1.,0.,1.57772181044202E-30));
#1264=DIRECTION('',(0.250380004054442,0.,-0.968147640378108));
#1265=DIRECTION('',(1.,0.,1.57772181044202E-30));
#1266=DIRECTION('',(0.250380004054442,0.,0.968147640378108));
#1267=DIRECTION('',(1.,0.,1.57772181044202E-30));
#1268=DIRECTION('',(0.250380004054443,0.,-0.968147640378107));
#1269=DIRECTION('',(1.,0.,1.57772181044202E-30));
#1270=DIRECTION('',(0.250380004054441,0.,0.968147640378108));
#1271=DIRECTION('',(1.,0.,-4.80484796395563E-15));
#1272=DIRECTION('',(0.250380004054439,0.,-0.968147640378108));
#1273=DIRECTION('',(1.,0.,-2.10756255791573E-15));
#1274=DIRECTION('',(0.250380004054445,0.,0.968147640378107));
#1275=DIRECTION('',(1.,0.,-4.80484796395564E-15));
#1276=DIRECTION('',(0.250380004054443,0.,-0.968147640378107));
#1277=DIRECTION('',(1.,0.,-2.10756255791573E-15));
#1278=DIRECTION('',(0.250380004054442,0.,0.968147640378108));
#1279=DIRECTION('',(1.,0.,1.57772181044202E-30));
#1280=DIRECTION('',(0.250380004054443,0.,-0.968147640378107));
#1281=DIRECTION('',(1.,0.,-2.10756255791572E-15));
#1282=DIRECTION('',(0.250380004054441,0.,0.968147640378108));
#1283=DIRECTION('',(1.,0.,-4.80484796395566E-15));
#1284=DIRECTION('',(0.250380004054443,0.,-0.968147640378107));
#1285=DIRECTION('',(1.,0.,2.10756255791572E-15));
#1286=DIRECTION('',(0.250380004054441,0.,0.968147640378108));
#1287=DIRECTION('center_axis',(-1.57772181044202E-30,0.,1.));
#1288=DIRECTION('ref_axis',(-1.,-6.12323372854767E-17,-1.57772181044202E-30));
#1289=DIRECTION('',(0.,-1.,0.));
#1290=DIRECTION('',(1.,1.66701651231465E-32,0.));
#1291=DIRECTION('',(0.,-1.,0.));
#1292=DIRECTION('center_axis',(-0.968147640378108,0.,0.250380004054441));
#1293=DIRECTION('ref_axis',(-0.250380004054441,-6.9074342937015E-17,-0.968147640378108));
#1294=DIRECTION('',(0.,-1.,0.));
#1295=DIRECTION('',(0.250380004054441,9.25034335824124E-50,0.968147640378108));
#1296=DIRECTION('center_axis',(-1.57772181044202E-30,0.,1.));
#1297=DIRECTION('ref_axis',(-1.,-6.12323372854767E-17,-1.57772181044202E-30));
#1298=DIRECTION('',(0.,-1.,0.));
#1299=DIRECTION('',(1.,-2.32599195999223E-49,0.));
#1300=DIRECTION('center_axis',(0.968147640378109,0.,0.250380004054439));
#1301=DIRECTION('ref_axis',(-0.250380004054439,3.8411637221414E-17,0.968147640378109));
#1302=DIRECTION('',(0.,-1.,0.));
#1303=DIRECTION('',(0.250380004054439,1.05445253057379E-49,-0.968147640378109));
#1304=DIRECTION('center_axis',(2.4024239819778E-15,0.,1.));
#1305=DIRECTION('ref_axis',(-1.,-6.12323372854766E-17,2.4024239819778E-15));
#1306=DIRECTION('',(0.,-1.,0.));
#1307=DIRECTION('',(1.,0.,-2.4024239819778E-15));
#1308=DIRECTION('center_axis',(-0.968147640378108,0.,0.250380004054441));
#1309=DIRECTION('ref_axis',(-0.250380004054441,-6.9074342937015E-17,-0.968147640378108));
#1310=DIRECTION('',(0.,-1.,0.));
#1311=DIRECTION('',(0.250380004054441,0.,0.968147640378108));
#1312=DIRECTION('center_axis',(4.21512511583145E-15,0.,1.));
#1313=DIRECTION('ref_axis',(-1.,-6.12323372854765E-17,4.21512511583145E-15));
#1314=DIRECTION('',(0.,-1.,0.));
#1315=DIRECTION('',(1.,0.,-4.21512511583146E-15));
#1316=DIRECTION('center_axis',(0.968147640378108,0.,0.250380004054439));
#1317=DIRECTION('ref_axis',(-0.250380004054439,3.8411637221414E-17,0.968147640378108));
#1318=DIRECTION('',(0.,-1.,0.));
#1319=DIRECTION('',(0.250380004054439,0.,-0.968147640378108));
#1320=DIRECTION('center_axis',(-1.57772181044202E-30,0.,1.));
#1321=DIRECTION('ref_axis',(-1.,-6.12323372854767E-17,-1.57772181044202E-30));
#1322=DIRECTION('',(0.,-1.,0.));
#1323=DIRECTION('',(1.,-2.32599195999223E-49,0.));
#1324=DIRECTION('center_axis',(-0.968147640378108,0.,0.250380004054441));
#1325=DIRECTION('ref_axis',(-0.250380004054441,-6.9074342937015E-17,-0.968147640378108));
#1326=DIRECTION('',(0.,-1.,0.));
#1327=DIRECTION('',(0.250380004054441,9.25034335824131E-50,0.968147640378108));
#1328=DIRECTION('center_axis',(-1.57772181044202E-30,0.,1.));
#1329=DIRECTION('ref_axis',(-1.,-6.12323372854767E-17,-1.57772181044202E-30));
#1330=DIRECTION('',(0.,-1.,0.));
#1331=DIRECTION('',(1.,-2.32599195999223E-49,0.));
#1332=DIRECTION('center_axis',(0.968147640378108,0.,0.250380004054439));
#1333=DIRECTION('ref_axis',(-0.250380004054439,3.8411637221414E-17,0.968147640378108));
#1334=DIRECTION('',(0.,-1.,0.));
#1335=DIRECTION('',(0.250380004054439,1.05445253057379E-49,-0.968147640378108));
#1336=DIRECTION('center_axis',(2.4024239819778E-15,0.,1.));
#1337=DIRECTION('ref_axis',(-1.,-6.12323372854766E-17,2.4024239819778E-15));
#1338=DIRECTION('',(0.,-1.,0.));
#1339=DIRECTION('',(1.,0.,-2.40242398197781E-15));
#1340=DIRECTION('center_axis',(-0.968147640378108,0.,0.250380004054442));
#1341=DIRECTION('ref_axis',(-0.250380004054442,-6.9074342937015E-17,-0.968147640378108));
#1342=DIRECTION('',(0.,-1.,0.));
#1343=DIRECTION('',(0.250380004054442,0.,0.968147640378108));
#1344=DIRECTION('center_axis',(-1.57772181044202E-30,0.,1.));
#1345=DIRECTION('ref_axis',(-1.,-6.12323372854767E-17,-1.57772181044202E-30));
#1346=DIRECTION('',(0.,-1.,0.));
#1347=DIRECTION('',(1.,-2.32599195999223E-49,0.));
#1348=DIRECTION('center_axis',(0.968147640378108,0.,0.250380004054439));
#1349=DIRECTION('ref_axis',(-0.250380004054439,3.8411637221414E-17,0.968147640378108));
#1350=DIRECTION('',(0.,-1.,0.));
#1351=DIRECTION('',(0.250380004054438,1.05445253057379E-49,-0.968147640378109));
#1352=DIRECTION('center_axis',(1.,0.,-1.40732496079245E-15));
#1353=DIRECTION('ref_axis',(1.40732496079245E-15,3.68250031407358E-16,1.));
#1354=DIRECTION('',(0.,-1.,0.));
#1355=DIRECTION('',(-1.2509555207044E-15,-3.47209905466994E-32,-1.));
#1356=DIRECTION('center_axis',(-1.09372073562606E-15,0.,-1.));
#1357=DIRECTION('ref_axis',(1.,-7.54827546677808E-17,-1.09372073562606E-15));
#1358=DIRECTION('',(0.,-1.,0.));
#1359=DIRECTION('',(-1.,-1.36715091953257E-16,1.09372073562606E-15));
#1360=DIRECTION('center_axis',(-1.,0.,1.21483370475701E-15));
#1361=DIRECTION('ref_axis',(-1.21483370475701E-15,-5.55111512312577E-17,
-1.));
#1362=DIRECTION('',(0.,1.,0.));
#1363=DIRECTION('',(4.44089209849757E-14,4.44089209849756E-14,1.));
#1364=DIRECTION('center_axis',(-7.54827546677808E-17,-1.,5.55111512312578E-17));
#1365=DIRECTION('ref_axis',(1.,-7.54827546677808E-17,1.58531102258704E-30));
#1366=DIRECTION('',(-1.21483370475701E-15,-5.55111512312577E-17,-1.));
#1367=DIRECTION('',(-1.,7.54827546677808E-17,1.05399771622655E-15));
#1368=DIRECTION('',(-1.17819586286751E-15,-9.06304509898087E-17,-1.));
#1369=DIRECTION('',(-1.,4.44089209850062E-16,1.20736753927986E-15));
#1370=DIRECTION('center_axis',(0.,1.,0.));
#1371=DIRECTION('ref_axis',(0.,0.,1.));
#1372=DIRECTION('',(0.250380004054442,0.,0.968147640378108));
#1373=DIRECTION('',(1.,0.,2.10756255791573E-15));
#1374=DIRECTION('',(0.250380004054444,0.,-0.968147640378107));
#1375=DIRECTION('',(1.,0.,-4.80484796395568E-15));
#1376=DIRECTION('',(0.250380004054442,0.,0.968147640378108));
#1377=DIRECTION('',(1.,0.,-2.10756255791573E-15));
#1378=DIRECTION('',(0.250380004054444,0.,-0.968147640378107));
#1379=DIRECTION('',(1.,-2.32599195999223E-49,0.));
#1380=DIRECTION('',(0.250380004054442,9.25034335824123E-50,0.968147640378108));
#1381=DIRECTION('',(1.,0.,-2.10756255791573E-15));
#1382=DIRECTION('',(0.250380004054443,0.,-0.968147640378107));
#1383=DIRECTION('',(1.,0.,-4.80484796395565E-15));
#1384=DIRECTION('',(0.250380004054445,0.,0.968147640378107));
#1385=DIRECTION('',(1.,0.,-2.10756255791573E-15));
#1386=DIRECTION('',(0.250380004054439,0.,-0.968147640378108));
#1387=DIRECTION('',(1.,0.,-4.80484796395563E-15));
#1388=DIRECTION('',(0.250380004054441,0.,0.968147640378108));
#1389=DIRECTION('',(1.,-2.32599195999223E-49,0.));
#1390=DIRECTION('',(0.250380004054443,1.05445253057378E-49,-0.968147640378107));
#1391=DIRECTION('',(1.,-2.32599195999223E-49,0.));
#1392=DIRECTION('',(0.250380004054442,9.25034335824123E-50,0.968147640378108));
#1393=DIRECTION('',(1.,-2.32599195999223E-49,0.));
#1394=DIRECTION('',(0.250380004054442,-6.62963388868281E-33,-0.968147640378107));
#1395=DIRECTION('',(-1.,-4.42963887209064E-33,1.11022302462516E-15));
#1396=DIRECTION('',(1.17819586286751E-15,-9.06304509898087E-17,1.));
#1397=DIRECTION('',(1.,0.,-1.05399771622655E-15));
#1398=DIRECTION('center_axis',(1.,-3.22973970800046E-16,-1.17819586286751E-15));
#1399=DIRECTION('ref_axis',(-3.22973970800046E-16,-1.,5.55111512312582E-17));
#1400=DIRECTION('',(0.,1.,0.));
#1401=DIRECTION('',(3.22973970800046E-16,1.,-5.55111512312582E-17));
#1402=DIRECTION('',(-1.17819586286751E-15,-9.06304509898087E-17,-1.));
#1403=DIRECTION('center_axis',(-0.948683298050514,-0.316227766016838,1.14639460198423E-15));
#1404=DIRECTION('ref_axis',(-0.316227766016838,0.948683298050514,3.29140637679065E-16));
#1405=DIRECTION('',(0.316227766016838,-0.948683298050514,-3.29140637679065E-16));
#1406=DIRECTION('',(-1.17819586286751E-15,-9.06304509898087E-17,-1.));
#1407=DIRECTION('',(-0.316227766016838,0.948683298050514,3.29140637679065E-16));
#1408=DIRECTION('',(-1.17819586286751E-15,-9.06304509898087E-17,-1.));
#1409=DIRECTION('center_axis',(-1.77635683940025E-15,-1.,9.06304509898108E-17));
#1410=DIRECTION('ref_axis',(-1.,1.77635683940025E-15,1.20736753927986E-15));
#1411=DIRECTION('',(1.,-1.77635683940025E-15,-1.20736753927986E-15));
#1412=DIRECTION('',(-1.,1.77635683940025E-15,1.20736753927986E-15));
#1413=DIRECTION('center_axis',(-1.,1.77635683940025E-16,1.17819586286751E-15));
#1414=DIRECTION('ref_axis',(1.77635683940025E-16,1.,-5.5511151231258E-17));
#1415=DIRECTION('',(-1.77635683940025E-16,-1.,5.5511151231258E-17));
#1416=DIRECTION('',(0.,1.,0.));
#1417=DIRECTION('',(1.77635683940025E-16,1.,-5.5511151231258E-17));
#1418=DIRECTION('center_axis',(1.20736753927986E-15,5.55111512312578E-17,
1.));
#1419=DIRECTION('ref_axis',(-1.,-9.85287982728387E-47,1.20736753927986E-15));
#1420=DIRECTION('center_axis',(-1.17819586286751E-15,-9.06304509898087E-17,
-1.));
#1421=DIRECTION('ref_axis',(-1.,0.,1.17819586286751E-15));
#1422=DIRECTION('center_axis',(4.80484796395564E-15,0.,1.));
#1423=DIRECTION('ref_axis',(-1.,-6.12323372854764E-17,4.80484796395564E-15));
#1424=DIRECTION('',(0.,-1.,0.));
#1425=DIRECTION('center_axis',(-0.968147640378108,0.,0.250380004054441));
#1426=DIRECTION('ref_axis',(-0.250380004054441,-6.9074342937015E-17,-0.968147640378108));
#1427=DIRECTION('',(0.,-1.,0.));
#1428=DIRECTION('center_axis',(-2.10756255791572E-15,0.,1.));
#1429=DIRECTION('ref_axis',(-1.,-6.12323372854768E-17,-2.10756255791572E-15));
#1430=DIRECTION('',(0.,-1.,0.));
#1431=DIRECTION('center_axis',(0.968147640378107,0.,0.250380004054443));
#1432=DIRECTION('ref_axis',(-0.250380004054443,3.84116372214137E-17,0.968147640378107));
#1433=DIRECTION('',(0.,-1.,0.));
#1434=DIRECTION('center_axis',(4.80484796395566E-15,0.,1.));
#1435=DIRECTION('ref_axis',(-1.,-6.12323372854764E-17,4.80484796395566E-15));
#1436=DIRECTION('',(0.,-1.,0.));
#1437=DIRECTION('center_axis',(-0.968147640378108,0.,0.250380004054441));
#1438=DIRECTION('ref_axis',(-0.250380004054441,-6.9074342937015E-17,-0.968147640378108));
#1439=DIRECTION('',(0.,-1.,0.));
#1440=DIRECTION('center_axis',(2.10756255791572E-15,0.,1.));
#1441=DIRECTION('ref_axis',(-1.,-6.12323372854766E-17,2.10756255791572E-15));
#1442=DIRECTION('',(0.,-1.,0.));
#1443=DIRECTION('center_axis',(0.968147640378107,0.,0.250380004054443));
#1444=DIRECTION('ref_axis',(-0.250380004054443,3.84116372214137E-17,0.968147640378107));
#1445=DIRECTION('',(0.,-1.,0.));
#1446=DIRECTION('center_axis',(-1.57772181044202E-30,0.,1.));
#1447=DIRECTION('ref_axis',(-1.,-6.12323372854767E-17,-1.57772181044202E-30));
#1448=DIRECTION('',(0.,-1.,0.));
#1449=DIRECTION('center_axis',(-0.968147640378108,0.,0.250380004054442));
#1450=DIRECTION('ref_axis',(-0.250380004054442,-6.9074342937015E-17,-0.968147640378108));
#1451=DIRECTION('',(0.,-1.,0.));
#1452=DIRECTION('center_axis',(2.10756255791573E-15,0.,1.));
#1453=DIRECTION('ref_axis',(-1.,-6.12323372854766E-17,2.10756255791573E-15));
#1454=DIRECTION('',(0.,-1.,0.));
#1455=DIRECTION('center_axis',(0.968147640378107,0.,0.250380004054443));
#1456=DIRECTION('ref_axis',(-0.250380004054443,3.84116372214137E-17,0.968147640378107));
#1457=DIRECTION('',(0.,-1.,0.));
#1458=DIRECTION('center_axis',(4.80484796395564E-15,0.,1.));
#1459=DIRECTION('ref_axis',(-1.,-6.12323372854764E-17,4.80484796395564E-15));
#1460=DIRECTION('',(0.,-1.,0.));
#1461=DIRECTION('center_axis',(-0.968147640378107,0.,0.250380004054445));
#1462=DIRECTION('ref_axis',(-0.250380004054445,-6.90743429370151E-17,-0.968147640378107));
#1463=DIRECTION('',(0.,-1.,0.));
#1464=DIRECTION('center_axis',(2.10756255791573E-15,0.,1.));
#1465=DIRECTION('ref_axis',(-1.,-6.12323372854766E-17,2.10756255791573E-15));
#1466=DIRECTION('',(0.,-1.,0.));
#1467=DIRECTION('center_axis',(0.968147640378108,0.,0.250380004054439));
#1468=DIRECTION('ref_axis',(-0.250380004054439,3.8411637221414E-17,0.968147640378108));
#1469=DIRECTION('',(0.,-1.,0.));
#1470=DIRECTION('center_axis',(4.80484796395563E-15,0.,1.));
#1471=DIRECTION('ref_axis',(-1.,-6.12323372854764E-17,4.80484796395563E-15));
#1472=DIRECTION('',(0.,-1.,0.));
#1473=DIRECTION('center_axis',(-0.968147640378108,0.,0.250380004054441));
#1474=DIRECTION('ref_axis',(-0.250380004054441,-6.9074342937015E-17,-0.968147640378108));
#1475=DIRECTION('',(0.,-1.,0.));
#1476=DIRECTION('center_axis',(-1.57772181044202E-30,0.,1.));
#1477=DIRECTION('ref_axis',(-1.,-6.12323372854767E-17,-1.57772181044202E-30));
#1478=DIRECTION('',(0.,-1.,0.));
#1479=DIRECTION('center_axis',(0.968147640378107,0.,0.250380004054443));
#1480=DIRECTION('ref_axis',(-0.250380004054443,3.84116372214137E-17,0.968147640378107));
#1481=DIRECTION('',(0.,-1.,0.));
#1482=DIRECTION('center_axis',(-1.57772181044202E-30,0.,1.));
#1483=DIRECTION('ref_axis',(-1.,-6.12323372854767E-17,-1.57772181044202E-30));
#1484=DIRECTION('',(0.,-1.,0.));
#1485=DIRECTION('center_axis',(-0.968147640378108,0.,0.250380004054442));
#1486=DIRECTION('ref_axis',(-0.250380004054442,-6.9074342937015E-17,-0.968147640378108));
#1487=DIRECTION('',(0.,-1.,0.));
#1488=DIRECTION('center_axis',(-1.57772181044202E-30,0.,1.));
#1489=DIRECTION('ref_axis',(-1.,-6.12323372854767E-17,-1.57772181044202E-30));
#1490=DIRECTION('',(0.,-1.,0.));
#1491=DIRECTION('center_axis',(0.968147640378108,0.,0.250380004054442));
#1492=DIRECTION('ref_axis',(-0.250380004054442,3.84116372214137E-17,0.968147640378108));
#1493=CARTESIAN_POINT('',(0.,0.,0.));
#1494=CARTESIAN_POINT('Origin',(40.3725090026855,-41.,-12.7602824700444));
#1495=CARTESIAN_POINT('',(-19.4071457367609,-41.,-12.7602824700444));
#1496=CARTESIAN_POINT('',(-19.4071457367608,-41.,2.));
#1497=CARTESIAN_POINT('',(-19.4071457367608,-41.,3.05500180636938));
#1498=CARTESIAN_POINT('',(-39.4071457367609,-41.,-12.7602824700444));
#1499=CARTESIAN_POINT('',(40.3725090026855,-41.,-12.7602824700444));
#1500=CARTESIAN_POINT('',(-39.4071457367609,-41.,2.));
#1501=CARTESIAN_POINT('',(-39.4071457367608,-41.,3.0550018063694));
#1502=CARTESIAN_POINT('',(40.3725090026855,-41.,2.));
#1503=CARTESIAN_POINT('Origin',(40.3725090026855,-41.,2.));
#1504=CARTESIAN_POINT('',(-19.4071457367608,-34.3934575466654,2.));
#1505=CARTESIAN_POINT('',(-19.4071457367608,-37.,1.99999999999999));
#1506=CARTESIAN_POINT('',(-39.4071457367609,-34.3934575466654,2.));
#1507=CARTESIAN_POINT('',(-39.4071457367609,-49.5,2.));
#1508=CARTESIAN_POINT('',(40.3725090026855,-34.3934575466654,2.));
#1509=CARTESIAN_POINT('Origin',(40.3725090026855,-34.3934575466654,2.));
#1510=CARTESIAN_POINT('',(-19.4071457367609,-34.3934575466654,-12.7602824700444));
#1511=CARTESIAN_POINT('',(-19.4071457367608,-34.3934575466654,10.4351430413916));
#1512=CARTESIAN_POINT('',(-39.4071457367609,-34.3934575466654,-12.7602824700444));
#1513=CARTESIAN_POINT('',(-39.4071457367608,-34.3934575466654,10.4351430413916));
#1514=CARTESIAN_POINT('',(40.3725090026855,-34.3934575466654,-12.7602824700444));
#1515=CARTESIAN_POINT('Origin',(40.3725090026855,-34.3934575466654,-12.7602824700444));
#1516=CARTESIAN_POINT('',(-19.4071457367609,-33.6967287733327,-12.7602824700444));
#1517=CARTESIAN_POINT('',(-39.4071457367609,-46.1967287733327,-12.7602824700444));
#1518=CARTESIAN_POINT('Origin',(-3.16573436420021,-33.,-22.004713917217));
#1519=CARTESIAN_POINT('',(-19.4071457367609,-33.,-16.029713917217));
#1520=CARTESIAN_POINT('',(-17.4159971616323,-33.,-16.029713917217));
#1521=CARTESIAN_POINT('',(-10.2908657629162,-33.,-16.029713917217));
#1522=CARTESIAN_POINT('',(-19.4071457367609,-33.,-30.1297139172169));
#1523=CARTESIAN_POINT('',(-19.4071457367609,-33.,-13.779713917217));
#1524=CARTESIAN_POINT('',(-19.4071457367609,-33.,-30.229713917217));
#1525=CARTESIAN_POINT('',(-19.4071457367609,-33.,-17.892213917217));
#1526=CARTESIAN_POINT('',(13.0756770083604,-33.,-30.229713917217));
#1527=CARTESIAN_POINT('',(-11.2864400504805,-33.,-30.229713917217));
#1528=CARTESIAN_POINT('',(13.0756770083605,-33.,-16.029713917217));
#1529=CARTESIAN_POINT('',(13.0756770083605,-33.,-26.117213917217));
#1530=CARTESIAN_POINT('',(12.4937874435597,-33.,-13.779713917217));
#1531=CARTESIAN_POINT('',(13.2907731500131,-33.,-16.8614289848076));
#1532=CARTESIAN_POINT('',(11.4402262854766,-33.,-13.779713917217));
#1533=CARTESIAN_POINT('',(4.66402653967976,-33.,-13.779713917217));
#1534=CARTESIAN_POINT('',(10.8583367206758,-33.,-16.029713917217));
#1535=CARTESIAN_POINT('',(9.98551159790333,-33.,-19.4046782489981));
#1536=CARTESIAN_POINT('',(9.93408435477067,-33.,-16.029713917217));
#1537=CARTESIAN_POINT('',(3.84630117823783,-33.,-16.029713917217));
#1538=CARTESIAN_POINT('',(9.35219478996993,-33.,-13.779713917217));
#1539=CARTESIAN_POINT('',(10.2476539481623,-33.,-17.2421975701465));
#1540=CARTESIAN_POINT('',(8.29863363188681,-33.,-13.779713917217));
#1541=CARTESIAN_POINT('',(3.09323021288486,-33.,-13.779713917217));
#1542=CARTESIAN_POINT('',(7.71674406708605,-33.,-16.029713917217));
#1543=CARTESIAN_POINT('',(6.9423923960525,-33.,-19.0239096636592));
#1544=CARTESIAN_POINT('',(6.79249170118088,-33.,-16.029713917217));
#1545=CARTESIAN_POINT('',(2.27550485144292,-33.,-16.029713917217));
#1546=CARTESIAN_POINT('',(6.21060213638013,-33.,-13.779713917217));
#1547=CARTESIAN_POINT('',(7.20453474631145,-33.,-17.6229661554853));
#1548=CARTESIAN_POINT('',(5.15704097829702,-33.,-13.779713917217));
#1549=CARTESIAN_POINT('',(1.52243388608998,-33.,-13.779713917217));
#1550=CARTESIAN_POINT('',(4.57515141349626,-33.,-16.029713917217));
#1551=CARTESIAN_POINT('',(3.89927319420166,-33.,-18.6431410783203));
#1552=CARTESIAN_POINT('',(3.65089904759109,-33.,-16.029713917217));
#1553=CARTESIAN_POINT('',(0.704708524648035,-33.,-16.029713917217));
#1554=CARTESIAN_POINT('',(3.06900948279034,-33.,-13.779713917217));
#1555=CARTESIAN_POINT('',(4.16141554446061,-33.,-18.0037347408242));
#1556=CARTESIAN_POINT('',(2.01544832470722,-33.,-13.779713917217));
#1557=CARTESIAN_POINT('',(-0.0483624407049338,-33.,-13.779713917217));
#1558=CARTESIAN_POINT('',(1.43355875990647,-33.,-16.029713917217));
#1559=CARTESIAN_POINT('',(0.856153992350812,-33.,-18.2623724929814));
#1560=CARTESIAN_POINT('',(0.509306394001301,-33.,-16.029713917217));
#1561=CARTESIAN_POINT('',(-0.86608780214687,-33.,-16.029713917217));
#1562=CARTESIAN_POINT('',(-0.0725831707994562,-33.,-13.779713917217));
#1563=CARTESIAN_POINT('',(1.11829634260978,-33.,-18.3845033261631));
#1564=CARTESIAN_POINT('',(-1.12614432888257,-33.,-13.779713917217));
#1565=CARTESIAN_POINT('',(-1.61915876749983,-33.,-13.779713917217));
#1566=CARTESIAN_POINT('',(-1.70803389368333,-33.,-16.029713917217));
#1567=CARTESIAN_POINT('',(-2.18696520950003,-33.,-17.8816039076425));
#1568=CARTESIAN_POINT('',(-2.63228625958849,-33.,-16.029713917217));
#1569=CARTESIAN_POINT('',(-2.43688412894177,-33.,-16.029713917217));
#1570=CARTESIAN_POINT('',(-3.21417582438925,-33.,-13.779713917217));
#1571=CARTESIAN_POINT('',(-1.92482285924106,-33.,-18.765271911502));
#1572=CARTESIAN_POINT('',(-4.26773698247237,-33.,-13.779713917217));
#1573=CARTESIAN_POINT('',(-3.18995509429473,-33.,-13.779713917217));
#1574=CARTESIAN_POINT('',(-4.84962654727312,-33.,-16.029713917217));
#1575=CARTESIAN_POINT('',(-5.23008441135087,-33.,-17.5008353223036));
#1576=CARTESIAN_POINT('',(-5.77387891317829,-33.,-16.029713917217));
#1577=CARTESIAN_POINT('',(-4.00768045573665,-33.,-16.029713917217));
#1578=CARTESIAN_POINT('',(-6.35576847797904,-33.,-13.779713917217));
#1579=CARTESIAN_POINT('',(-4.96794206109191,-33.,-19.1460404968409));
#1580=CARTESIAN_POINT('',(-7.40932963606215,-33.,-13.779713917217));
#1581=CARTESIAN_POINT('',(-4.76075142108961,-33.,-13.779713917217));
#1582=CARTESIAN_POINT('',(-7.99121920086292,-33.,-16.029713917217));
#1583=CARTESIAN_POINT('',(-8.27320361320171,-33.,-17.1200667369647));
#1584=CARTESIAN_POINT('',(-8.91547156676808,-33.,-16.029713917217));
#1585=CARTESIAN_POINT('',(-5.57847678253155,-33.,-16.029713917217));
#1586=CARTESIAN_POINT('',(-9.49736113156884,-33.,-13.779713917217));
#1587=CARTESIAN_POINT('',(-8.01106126294274,-33.,-19.5268090821797));
#1588=CARTESIAN_POINT('',(-10.550922289652,-33.,-13.779713917217));
#1589=CARTESIAN_POINT('',(-6.33154774788451,-33.,-13.779713917217));
#1590=CARTESIAN_POINT('',(-11.1328118544527,-33.,-16.029713917217));
#1591=CARTESIAN_POINT('',(-11.3163228150526,-33.,-16.7392981516258));
#1592=CARTESIAN_POINT('',(-12.0570642203579,-33.,-16.029713917217));
#1593=CARTESIAN_POINT('',(-7.14927310932646,-33.,-16.029713917217));
#1594=CARTESIAN_POINT('',(-12.6389537851586,-33.,-13.779713917217));
#1595=CARTESIAN_POINT('',(-11.0541804647936,-33.,-19.9075776675186));
#1596=CARTESIAN_POINT('',(-13.6925149432418,-33.,-13.779713917217));
#1597=CARTESIAN_POINT('',(-7.90234407467941,-33.,-13.779713917217));
#1598=CARTESIAN_POINT('',(-14.2744045080425,-33.,-16.029713917217));
#1599=CARTESIAN_POINT('',(-14.3594420169034,-33.,-16.358529566287));
#1600=CARTESIAN_POINT('',(-15.1986568739477,-33.,-16.029713917217));
#1601=CARTESIAN_POINT('',(-8.72006943612134,-33.,-16.029713917217));
#1602=CARTESIAN_POINT('',(-15.7805464387484,-33.,-13.779713917217));
#1603=CARTESIAN_POINT('',(-14.0972996666444,-33.,-20.2883462528575));
#1604=CARTESIAN_POINT('',(-16.8341075968316,-33.,-13.779713917217));
#1605=CARTESIAN_POINT('',(-9.47314040147433,-33.,-13.779713917217));
#1606=CARTESIAN_POINT('',(-17.4025612187542,-33.,-15.9777609809481));
#1607=CARTESIAN_POINT('Origin',(1.43355875990647,-33.,-16.029713917217));
#1608=CARTESIAN_POINT('',(1.43355875990647,-28.,-16.029713917217));
#1609=CARTESIAN_POINT('',(1.43355875990647,-33.,-16.029713917217));
#1610=CARTESIAN_POINT('',(0.509306394001303,-28.,-16.029713917217));
#1611=CARTESIAN_POINT('',(0.509306394001303,-28.,-16.029713917217));
#1612=CARTESIAN_POINT('',(0.509306394001301,-33.,-16.029713917217));
#1613=CARTESIAN_POINT('Origin',(2.01544832470722,-33.,-13.779713917217));
#1614=CARTESIAN_POINT('',(2.01544832470722,-28.,-13.779713917217));
#1615=CARTESIAN_POINT('',(2.01544832470722,-33.,-13.779713917217));
#1616=CARTESIAN_POINT('',(1.43355875990647,-28.,-16.029713917217));
#1617=CARTESIAN_POINT('Origin',(3.06900948279034,-33.,-13.779713917217));
#1618=CARTESIAN_POINT('',(3.06900948279034,-28.,-13.779713917217));
#1619=CARTESIAN_POINT('',(3.06900948279034,-33.,-13.779713917217));
#1620=CARTESIAN_POINT('',(2.01544832470722,-28.,-13.779713917217));
#1621=CARTESIAN_POINT('Origin',(3.65089904759109,-33.,-16.029713917217));
#1622=CARTESIAN_POINT('',(3.65089904759109,-28.,-16.029713917217));
#1623=CARTESIAN_POINT('',(3.65089904759109,-33.,-16.029713917217));
#1624=CARTESIAN_POINT('',(3.06900948279034,-28.,-13.779713917217));
#1625=CARTESIAN_POINT('Origin',(4.57515141349626,-33.,-16.029713917217));
#1626=CARTESIAN_POINT('',(4.57515141349626,-28.,-16.029713917217));
#1627=CARTESIAN_POINT('',(4.57515141349626,-33.,-16.029713917217));
#1628=CARTESIAN_POINT('',(3.65089904759109,-28.,-16.029713917217));
#1629=CARTESIAN_POINT('Origin',(5.15704097829701,-33.,-13.779713917217));
#1630=CARTESIAN_POINT('',(5.15704097829702,-28.,-13.779713917217));
#1631=CARTESIAN_POINT('',(5.15704097829701,-33.,-13.779713917217));
#1632=CARTESIAN_POINT('',(4.57515141349626,-28.,-16.029713917217));
#1633=CARTESIAN_POINT('Origin',(6.21060213638013,-33.,-13.779713917217));
#1634=CARTESIAN_POINT('',(6.21060213638014,-28.,-13.779713917217));
#1635=CARTESIAN_POINT('',(6.21060213638013,-33.,-13.779713917217));
#1636=CARTESIAN_POINT('',(5.15704097829702,-28.,-13.779713917217));
#1637=CARTESIAN_POINT('Origin',(6.79249170118088,-33.,-16.029713917217));
#1638=CARTESIAN_POINT('',(6.79249170118088,-28.,-16.029713917217));
#1639=CARTESIAN_POINT('',(6.79249170118088,-33.,-16.029713917217));
#1640=CARTESIAN_POINT('',(6.21060213638013,-28.,-13.779713917217));
#1641=CARTESIAN_POINT('Origin',(7.71674406708605,-33.,-16.029713917217));
#1642=CARTESIAN_POINT('',(7.71674406708606,-28.,-16.029713917217));
#1643=CARTESIAN_POINT('',(7.71674406708605,-33.,-16.029713917217));
#1644=CARTESIAN_POINT('',(6.79249170118088,-28.,-16.029713917217));
#1645=CARTESIAN_POINT('Origin',(8.29863363188681,-33.,-13.779713917217));
#1646=CARTESIAN_POINT('',(8.29863363188681,-28.,-13.779713917217));
#1647=CARTESIAN_POINT('',(8.29863363188681,-33.,-13.779713917217));
#1648=CARTESIAN_POINT('',(7.71674406708606,-28.,-16.029713917217));
#1649=CARTESIAN_POINT('Origin',(9.35219478996993,-33.,-13.779713917217));
#1650=CARTESIAN_POINT('',(9.35219478996993,-28.,-13.779713917217));
#1651=CARTESIAN_POINT('',(9.35219478996993,-33.,-13.779713917217));
#1652=CARTESIAN_POINT('',(8.29863363188681,-28.,-13.779713917217));
#1653=CARTESIAN_POINT('Origin',(9.93408435477068,-33.,-16.029713917217));
#1654=CARTESIAN_POINT('',(9.93408435477068,-28.,-16.029713917217));
#1655=CARTESIAN_POINT('',(9.93408435477068,-33.,-16.029713917217));
#1656=CARTESIAN_POINT('',(9.35219478996993,-28.,-13.779713917217));
#1657=CARTESIAN_POINT('Origin',(10.8583367206758,-33.,-16.029713917217));
#1658=CARTESIAN_POINT('',(10.8583367206758,-28.,-16.029713917217));
#1659=CARTESIAN_POINT('',(10.8583367206758,-33.,-16.029713917217));
#1660=CARTESIAN_POINT('',(9.93408435477068,-28.,-16.029713917217));
#1661=CARTESIAN_POINT('Origin',(11.4402262854766,-33.,-13.779713917217));
#1662=CARTESIAN_POINT('',(11.4402262854766,-28.,-13.779713917217));
#1663=CARTESIAN_POINT('',(11.4402262854766,-33.,-13.779713917217));
#1664=CARTESIAN_POINT('',(10.8583367206758,-28.,-16.029713917217));
#1665=CARTESIAN_POINT('Origin',(12.4937874435597,-33.,-13.779713917217));
#1666=CARTESIAN_POINT('',(12.4937874435597,-28.,-13.779713917217));
#1667=CARTESIAN_POINT('',(12.4937874435597,-33.,-13.779713917217));
#1668=CARTESIAN_POINT('',(11.4402262854766,-28.,-13.779713917217));
#1669=CARTESIAN_POINT('Origin',(13.0756770083605,-33.,-16.029713917217));
#1670=CARTESIAN_POINT('',(13.0756770083605,-28.,-16.029713917217));
#1671=CARTESIAN_POINT('',(13.0756770083605,-33.,-16.029713917217));
#1672=CARTESIAN_POINT('',(12.4937874435597,-28.,-13.779713917217));
#1673=CARTESIAN_POINT('Origin',(13.0756770083604,-33.,-30.229713917217));
#1674=CARTESIAN_POINT('',(13.0756770083605,-28.,-30.229713917217));
#1675=CARTESIAN_POINT('',(13.0756770083604,-33.,-30.229713917217));
#1676=CARTESIAN_POINT('',(13.0756770083605,-28.,-16.029713917217));
#1677=CARTESIAN_POINT('Origin',(-19.4071457367609,-33.,-30.229713917217));
#1678=CARTESIAN_POINT('',(-19.4071457367609,-28.,-30.229713917217));
#1679=CARTESIAN_POINT('',(-19.4071457367609,-33.,-30.229713917217));
#1680=CARTESIAN_POINT('',(13.0756770083605,-28.,-30.229713917217));
#1681=CARTESIAN_POINT('Origin',(-19.4071457367609,-33.,-13.779713917217));
#1682=CARTESIAN_POINT('',(-19.4071457367609,-28.,-30.1297139172169));
#1683=CARTESIAN_POINT('',(-19.4071457367609,-33.,-30.1297139172169));
#1684=CARTESIAN_POINT('',(-19.4071457367609,-28.,-30.229713917217));
#1685=CARTESIAN_POINT('Origin',(-3.1657343642002,-33.,-22.004713917217));
#1686=CARTESIAN_POINT('',(-19.4071457367608,-33.,18.8702860827831));
#1687=CARTESIAN_POINT('',(-19.4071457367609,-33.,-26.117213917217));
#1688=CARTESIAN_POINT('',(-39.4071457367609,-33.,-16.0297139172169));
#1689=CARTESIAN_POINT('',(-21.2864400504805,-33.,-16.029713917217));
#1690=CARTESIAN_POINT('',(-39.4071457367608,-33.,18.8702860827831));
#1691=CARTESIAN_POINT('',(-39.4071457367608,-33.,18.8702860827831));
#1692=CARTESIAN_POINT('',(-19.4071457367608,-33.,18.8702860827831));
#1693=CARTESIAN_POINT('Origin',(-13.1657343642002,-28.,-22.004713917217));
#1694=CARTESIAN_POINT('',(-17.4159971616323,-28.,-16.029713917217));
#1695=CARTESIAN_POINT('',(-16.8341075968315,-28.,-13.779713917217));
#1696=CARTESIAN_POINT('',(-17.4159971616323,-28.,-16.029713917217));
#1697=CARTESIAN_POINT('',(-15.7805464387484,-28.,-13.779713917217));
#1698=CARTESIAN_POINT('',(-16.8341075968315,-28.,-13.779713917217));
#1699=CARTESIAN_POINT('',(-15.1986568739477,-28.,-16.029713917217));
#1700=CARTESIAN_POINT('',(-15.7805464387484,-28.,-13.779713917217));
#1701=CARTESIAN_POINT('',(-14.2744045080425,-28.,-16.029713917217));
#1702=CARTESIAN_POINT('',(-15.1986568739477,-28.,-16.029713917217));
#1703=CARTESIAN_POINT('',(-13.6925149432418,-28.,-13.779713917217));
#1704=CARTESIAN_POINT('',(-14.2744045080425,-28.,-16.029713917217));
#1705=CARTESIAN_POINT('',(-12.6389537851586,-28.,-13.779713917217));
#1706=CARTESIAN_POINT('',(-13.6925149432418,-28.,-13.779713917217));
#1707=CARTESIAN_POINT('',(-12.0570642203579,-28.,-16.029713917217));
#1708=CARTESIAN_POINT('',(-12.6389537851586,-28.,-13.779713917217));
#1709=CARTESIAN_POINT('',(-11.1328118544527,-28.,-16.029713917217));
#1710=CARTESIAN_POINT('',(-12.0570642203579,-28.,-16.029713917217));
#1711=CARTESIAN_POINT('',(-10.550922289652,-28.,-13.779713917217));
#1712=CARTESIAN_POINT('',(-11.1328118544527,-28.,-16.029713917217));
#1713=CARTESIAN_POINT('',(-9.49736113156884,-28.,-13.779713917217));
#1714=CARTESIAN_POINT('',(-10.550922289652,-28.,-13.779713917217));
#1715=CARTESIAN_POINT('',(-8.91547156676808,-28.,-16.029713917217));
#1716=CARTESIAN_POINT('',(-9.49736113156884,-28.,-13.779713917217));
#1717=CARTESIAN_POINT('',(-7.99121920086291,-28.,-16.029713917217));
#1718=CARTESIAN_POINT('',(-8.91547156676808,-28.,-16.029713917217));
#1719=CARTESIAN_POINT('',(-7.40932963606215,-28.,-13.779713917217));
#1720=CARTESIAN_POINT('',(-7.99121920086291,-28.,-16.029713917217));
#1721=CARTESIAN_POINT('',(-6.35576847797904,-28.,-13.779713917217));
#1722=CARTESIAN_POINT('',(-7.40932963606215,-28.,-13.779713917217));
#1723=CARTESIAN_POINT('',(-5.77387891317829,-28.,-16.029713917217));
#1724=CARTESIAN_POINT('',(-6.35576847797904,-28.,-13.779713917217));
#1725=CARTESIAN_POINT('',(-4.84962654727312,-28.,-16.029713917217));
#1726=CARTESIAN_POINT('',(-5.77387891317829,-28.,-16.029713917217));
#1727=CARTESIAN_POINT('',(-4.26773698247237,-28.,-13.779713917217));
#1728=CARTESIAN_POINT('',(-4.84962654727312,-28.,-16.029713917217));
#1729=CARTESIAN_POINT('',(-3.21417582438925,-28.,-13.779713917217));
#1730=CARTESIAN_POINT('',(-4.26773698247237,-28.,-13.779713917217));
#1731=CARTESIAN_POINT('',(-2.63228625958849,-28.,-16.029713917217));
#1732=CARTESIAN_POINT('',(-3.21417582438925,-28.,-13.779713917217));
#1733=CARTESIAN_POINT('',(-1.70803389368333,-28.,-16.029713917217));
#1734=CARTESIAN_POINT('',(-2.63228625958849,-28.,-16.029713917217));
#1735=CARTESIAN_POINT('',(-1.12614432888257,-28.,-13.779713917217));
#1736=CARTESIAN_POINT('',(-1.70803389368333,-28.,-16.029713917217));
#1737=CARTESIAN_POINT('',(-0.072583170799454,-28.,-13.779713917217));
#1738=CARTESIAN_POINT('',(-1.12614432888257,-28.,-13.779713917217));
#1739=CARTESIAN_POINT('',(-0.0725831707994536,-28.,-13.779713917217));
#1740=CARTESIAN_POINT('',(-39.4071457367609,-28.,-30.1297139172169));
#1741=CARTESIAN_POINT('',(-19.4071457367609,-28.,-30.1297139172169));
#1742=CARTESIAN_POINT('',(-39.4071457367609,-28.,-16.0297139172169));
#1743=CARTESIAN_POINT('',(-39.4071457367609,-28.,-30.1297139172169));
#1744=CARTESIAN_POINT('',(-18.3402495275375,-28.,-16.029713917217));
#1745=CARTESIAN_POINT('Origin',(-19.4071457367608,-33.,18.8702860827831));
#1746=CARTESIAN_POINT('',(-19.4071457367609,-88.,-30.1297139172169));
#1747=CARTESIAN_POINT('',(-19.4071457367609,-33.,-30.1297139172169));
#1748=CARTESIAN_POINT('',(-19.4071457367608,-88.,18.8702860827831));
#1749=CARTESIAN_POINT('',(-19.4071457367608,-88.,18.8702860827831));
#1750=CARTESIAN_POINT('',(-19.4071457367608,-88.,18.8702860827831));
#1751=CARTESIAN_POINT('Origin',(-29.4071457367608,-88.,18.8702860827831));
#1752=CARTESIAN_POINT('',(-39.4071457367608,-58.,18.8702860827831));
#1753=CARTESIAN_POINT('',(-29.4071457367608,-88.,18.8702860827831));
#1754=CARTESIAN_POINT('',(-39.4071457367608,-58.,18.8702860827831));
#1755=CARTESIAN_POINT('',(-39.4071457367609,-58.,-30.1297139172169));
#1756=CARTESIAN_POINT('',(-39.4071457367608,-58.,18.8702860827831));
#1757=CARTESIAN_POINT('',(-29.4071457367609,-88.,-30.1297139172169));
#1758=CARTESIAN_POINT('',(-39.4071457367609,-58.,-30.1297139172169));
#1759=CARTESIAN_POINT('',(-29.4071457367608,-88.,18.8702860827831));
#1760=CARTESIAN_POINT('Origin',(-19.4071457367608,-88.,18.8702860827831));
#1761=CARTESIAN_POINT('',(-29.4071457367608,-88.,18.8702860827831));
#1762=CARTESIAN_POINT('',(-29.4071457367609,-88.,-30.1297139172169));
#1763=CARTESIAN_POINT('Origin',(-39.4071457367608,-58.,18.8702860827831));
#1764=CARTESIAN_POINT('',(-39.4071457367608,-33.,18.8702860827831));
#1765=CARTESIAN_POINT('',(-39.4071457367609,-33.,-16.0297139172169));
#1766=CARTESIAN_POINT('',(-39.4071457367609,-33.,-30.1297139172169));
#1767=CARTESIAN_POINT('Origin',(-29.4071457367608,-60.5,18.8702860827831));
#1768=CARTESIAN_POINT('Origin',(-29.4071457367609,-60.5,-30.1297139172169));
#1769=CARTESIAN_POINT('Origin',(-17.4159971616323,-33.,-16.029713917217));
#1770=CARTESIAN_POINT('',(-17.4159971616323,-33.,-16.029713917217));
#1771=CARTESIAN_POINT('Origin',(-16.8341075968316,-33.,-13.779713917217));
#1772=CARTESIAN_POINT('',(-16.8341075968316,-33.,-13.779713917217));
#1773=CARTESIAN_POINT('Origin',(-15.7805464387484,-33.,-13.779713917217));
#1774=CARTESIAN_POINT('',(-15.7805464387484,-33.,-13.779713917217));
#1775=CARTESIAN_POINT('Origin',(-15.1986568739477,-33.,-16.029713917217));
#1776=CARTESIAN_POINT('',(-15.1986568739477,-33.,-16.029713917217));
#1777=CARTESIAN_POINT('Origin',(-14.2744045080425,-33.,-16.029713917217));
#1778=CARTESIAN_POINT('',(-14.2744045080425,-33.,-16.029713917217));
#1779=CARTESIAN_POINT('Origin',(-13.6925149432418,-33.,-13.779713917217));
#1780=CARTESIAN_POINT('',(-13.6925149432418,-33.,-13.779713917217));
#1781=CARTESIAN_POINT('Origin',(-12.6389537851586,-33.,-13.779713917217));
#1782=CARTESIAN_POINT('',(-12.6389537851586,-33.,-13.779713917217));
#1783=CARTESIAN_POINT('Origin',(-12.0570642203579,-33.,-16.029713917217));
#1784=CARTESIAN_POINT('',(-12.0570642203579,-33.,-16.029713917217));
#1785=CARTESIAN_POINT('Origin',(-11.1328118544527,-33.,-16.029713917217));
#1786=CARTESIAN_POINT('',(-11.1328118544527,-33.,-16.029713917217));
#1787=CARTESIAN_POINT('Origin',(-10.550922289652,-33.,-13.779713917217));
#1788=CARTESIAN_POINT('',(-10.550922289652,-33.,-13.779713917217));
#1789=CARTESIAN_POINT('Origin',(-9.49736113156884,-33.,-13.779713917217));
#1790=CARTESIAN_POINT('',(-9.49736113156884,-33.,-13.779713917217));
#1791=CARTESIAN_POINT('Origin',(-8.91547156676808,-33.,-16.029713917217));
#1792=CARTESIAN_POINT('',(-8.91547156676808,-33.,-16.029713917217));
#1793=CARTESIAN_POINT('Origin',(-7.99121920086292,-33.,-16.029713917217));
#1794=CARTESIAN_POINT('',(-7.99121920086292,-33.,-16.029713917217));
#1795=CARTESIAN_POINT('Origin',(-7.40932963606215,-33.,-13.779713917217));
#1796=CARTESIAN_POINT('',(-7.40932963606215,-33.,-13.779713917217));
#1797=CARTESIAN_POINT('Origin',(-6.35576847797904,-33.,-13.779713917217));
#1798=CARTESIAN_POINT('',(-6.35576847797904,-33.,-13.779713917217));
#1799=CARTESIAN_POINT('Origin',(-5.77387891317829,-33.,-16.029713917217));
#1800=CARTESIAN_POINT('',(-5.77387891317829,-33.,-16.029713917217));
#1801=CARTESIAN_POINT('Origin',(-4.84962654727312,-33.,-16.029713917217));
#1802=CARTESIAN_POINT('',(-4.84962654727312,-33.,-16.029713917217));
#1803=CARTESIAN_POINT('Origin',(-4.26773698247237,-33.,-13.779713917217));
#1804=CARTESIAN_POINT('',(-4.26773698247237,-33.,-13.779713917217));
#1805=CARTESIAN_POINT('Origin',(-3.21417582438925,-33.,-13.779713917217));
#1806=CARTESIAN_POINT('',(-3.21417582438925,-33.,-13.779713917217));
#1807=CARTESIAN_POINT('Origin',(-2.63228625958849,-33.,-16.029713917217));
#1808=CARTESIAN_POINT('',(-2.63228625958849,-33.,-16.029713917217));
#1809=CARTESIAN_POINT('Origin',(-1.70803389368333,-33.,-16.029713917217));
#1810=CARTESIAN_POINT('',(-1.70803389368333,-33.,-16.029713917217));
#1811=CARTESIAN_POINT('Origin',(-1.12614432888257,-33.,-13.779713917217));
#1812=CARTESIAN_POINT('',(-1.12614432888257,-33.,-13.779713917217));
#1813=CARTESIAN_POINT('Origin',(-0.072583170799456,-33.,-13.779713917217));
#1814=CARTESIAN_POINT('',(-0.072583170799456,-33.,-13.779713917217));
#1815=CARTESIAN_POINT('Origin',(0.509306394001301,-33.,-16.029713917217));
#1816=UNCERTAINTY_MEASURE_WITH_UNIT(LENGTH_MEASURE(0.01),#1820,
'DISTANCE_ACCURACY_VALUE',
'Maximum model space distance between geometric entities at asserted c
onnectivities');
#1817=UNCERTAINTY_MEASURE_WITH_UNIT(LENGTH_MEASURE(0.01),#1820,
'DISTANCE_ACCURACY_VALUE',
'Maximum model space distance between geometric entities at asserted c
onnectivities');
#1818=(
GEOMETRIC_REPRESENTATION_CONTEXT(3)
GLOBAL_UNCERTAINTY_ASSIGNED_CONTEXT((#1816))
GLOBAL_UNIT_ASSIGNED_CONTEXT((#1820,#1822,#1823))
REPRESENTATION_CONTEXT('','3D')
);
#1819=(
GEOMETRIC_REPRESENTATION_CONTEXT(3)
GLOBAL_UNCERTAINTY_ASSIGNED_CONTEXT((#1817))
GLOBAL_UNIT_ASSIGNED_CONTEXT((#1820,#1822,#1823))
REPRESENTATION_CONTEXT('','3D')
);
#1820=(
LENGTH_UNIT()
NAMED_UNIT(*)
SI_UNIT(.MILLI.,.METRE.)
);
#1821=(
LENGTH_UNIT()
NAMED_UNIT(*)
SI_UNIT($,.METRE.)
);
#1822=(
NAMED_UNIT(*)
PLANE_ANGLE_UNIT()
SI_UNIT($,.RADIAN.)
);
#1823=(
NAMED_UNIT(*)
SI_UNIT($,.STERADIAN.)
SOLID_ANGLE_UNIT()
);
#1824=SHAPE_DEFINITION_REPRESENTATION(#1825,#1826);
#1825=PRODUCT_DEFINITION_SHAPE('',$,#1828);
#1826=SHAPE_REPRESENTATION('',(#1162),#1818);
#1827=PRODUCT_DEFINITION_CONTEXT('part definition',#1832,'design');
#1828=PRODUCT_DEFINITION('gripper1','gripper1',#1829,#1827);
#1829=PRODUCT_DEFINITION_FORMATION('',$,#1834);
#1830=PRODUCT_RELATED_PRODUCT_CATEGORY('gripper1','gripper1',(#1834));
#1831=APPLICATION_PROTOCOL_DEFINITION('international standard',
'automotive_design',2009,#1832);
#1832=APPLICATION_CONTEXT(
'Core Data for Automotive Mechanical Design Process');
#1833=PRODUCT_CONTEXT('part definition',#1832,'mechanical');
#1834=PRODUCT('gripper1','gripper1',$,(#1833));
#1835=PRESENTATION_STYLE_ASSIGNMENT((#1837));
#1836=PRESENTATION_STYLE_ASSIGNMENT((#1838));
#1837=SURFACE_STYLE_USAGE(.BOTH.,#1839);
#1838=SURFACE_STYLE_USAGE(.BOTH.,#1840);
#1839=SURFACE_SIDE_STYLE('',(#1841));
#1840=SURFACE_SIDE_STYLE('',(#1842));
#1841=SURFACE_STYLE_FILL_AREA(#1843);
#1842=SURFACE_STYLE_FILL_AREA(#1844);
#1843=FILL_AREA_STYLE('Steel - Satin',(#1845));
#1844=FILL_AREA_STYLE('Stainless Steel - Satin',(#1846));
#1845=FILL_AREA_STYLE_COLOUR('Steel - Satin',#1847);
#1846=FILL_AREA_STYLE_COLOUR('Stainless Steel - Satin',#1848);
#1847=COLOUR_RGB('Steel - Satin',0.627450980392157,0.627450980392157,0.627450980392157);
#1848=COLOUR_RGB('Stainless Steel - Satin',0.796078431372549,0.796078431372549,
0.796078431372549);
ENDSEC;
END-ISO-10303-21;
