ISO-10303-21;
HEADER;
/* Generated by software containing ST-Developer
 * from STEP Tools, Inc. (www.steptools.com) 
 */

FILE_DESCRIPTION(
/* description */ (''),
/* implementation_level */ '2;1');

FILE_NAME(
/* name */ 'ServoAttachment.step',
/* time_stamp */ '2026-08-10T18:26:42-05:00',
/* author */ (''),
/* organization */ (''),
/* preprocessor_version */ 'ST-DEVELOPER v20.1',
/* originating_system */ 'Autodesk Translation Framework v15.8.0.0',
/* authorisation */ '');

FILE_SCHEMA (('AUTOMOTIVE_DESIGN { 1 0 10303 214 3 1 1 }'));
ENDSEC;

DATA;
#10=MECHANICAL_DESIGN_GEOMETRIC_PRESENTATION_REPRESENTATION('',(#13),#1356);
#11=SHAPE_REPRESENTATION_RELATIONSHIP('SRR','None',#1363,#12);
#12=ADVANCED_BREP_SHAPE_REPRESENTATION('',(#14),#1355);
#13=STYLED_ITEM('',(#1372),#14);
#14=MANIFOLD_SOLID_BREP('Body1',#568);
#15=B_SPLINE_SURFACE_WITH_KNOTS('',3,1,((#1101,#1102),(#1103,#1104),(#1105,
#1106),(#1107,#1108),(#1109,#1110),(#1111,#1112),(#1113,#1114),(#1115,#1116),
(#1117,#1118),(#1119,#1120),(#1121,#1122),(#1123,#1124),(#1125,#1126),(#1127,
#1128)),.UNSPECIFIED.,.F.,.F.,.F.,(4,2,2,2,2,2,4),(2,2),(0.,0.050111023162093,
0.102261479702394,0.156450478837903,0.212677099577453,0.248520475110845,
0.285142803995159),(0.,0.700000846242593),.UNSPECIFIED.);
#16=B_SPLINE_SURFACE_WITH_KNOTS('',3,1,((#1133,#1134),(#1135,#1136),(#1137,
#1138),(#1139,#1140),(#1141,#1142),(#1143,#1144),(#1145,#1146),(#1147,#1148),
(#1149,#1150),(#1151,#1152),(#1153,#1154),(#1155,#1156),(#1157,#1158),(#1159,
#1160)),.UNSPECIFIED.,.F.,.F.,.F.,(4,2,2,2,2,2,4),(2,2),(0.,0.0590386873266644,
0.116033429854773,0.170983407986877,0.223887839039622,0.255505160536078,
0.286347380332251),(0.,0.700000845357249),.UNSPECIFIED.);
#17=B_SPLINE_SURFACE_WITH_KNOTS('',3,1,((#1163,#1164),(#1165,#1166),(#1167,
#1168),(#1169,#1170),(#1171,#1172),(#1173,#1174),(#1175,#1176),(#1177,#1178),
(#1179,#1180),(#1181,#1182),(#1183,#1184),(#1185,#1186),(#1187,#1188),(#1189,
#1190)),.UNSPECIFIED.,.F.,.F.,.F.,(4,2,2,2,2,2,4),(2,2),(0.,0.0501110231620927,
0.102261479702393,0.156450478837903,0.212677099577457,0.248520475110848,
0.285142803995159),(0.,0.700000846242594),.UNSPECIFIED.);
#18=B_SPLINE_SURFACE_WITH_KNOTS('',3,1,((#1195,#1196),(#1197,#1198),(#1199,
#1200),(#1201,#1202),(#1203,#1204),(#1205,#1206),(#1207,#1208),(#1209,#1210),
(#1211,#1212),(#1213,#1214),(#1215,#1216),(#1217,#1218),(#1219,#1220),(#1221,
#1222)),.UNSPECIFIED.,.F.,.F.,.F.,(4,2,2,2,2,2,4),(2,2),(0.,0.0590386873266626,
0.116033429854771,0.170983407986877,0.223887839039625,0.255505160536085,
0.286347380332262),(0.,0.700000845357249),.UNSPECIFIED.);
#19=B_SPLINE_SURFACE_WITH_KNOTS('',3,1,((#1225,#1226),(#1227,#1228),(#1229,
#1230),(#1231,#1232),(#1233,#1234),(#1235,#1236),(#1237,#1238),(#1239,#1240),
(#1241,#1242),(#1243,#1244),(#1245,#1246),(#1247,#1248),(#1249,#1250),(#1251,
#1252)),.UNSPECIFIED.,.F.,.F.,.F.,(4,2,2,2,2,2,4),(2,2),(0.,0.0501110231620933,
0.102261479702394,0.156450478837903,0.212677099577454,0.248520475110845,
0.285142803995159),(0.,0.700000846242593),.UNSPECIFIED.);
#20=B_SPLINE_SURFACE_WITH_KNOTS('',3,1,((#1257,#1258),(#1259,#1260),(#1261,
#1262),(#1263,#1264),(#1265,#1266),(#1267,#1268),(#1269,#1270),(#1271,#1272),
(#1273,#1274),(#1275,#1276),(#1277,#1278),(#1279,#1280),(#1281,#1282),(#1283,
#1284)),.UNSPECIFIED.,.F.,.F.,.F.,(4,2,2,2,2,2,4),(2,2),(0.,0.0590386873266628,
0.11603342985477,0.170983407986873,0.223887839039617,0.255505160536073,
0.286347380332248),(0.,0.700000845357249),.UNSPECIFIED.);
#21=B_SPLINE_SURFACE_WITH_KNOTS('',3,1,((#1287,#1288),(#1289,#1290),(#1291,
#1292),(#1293,#1294),(#1295,#1296),(#1297,#1298),(#1299,#1300),(#1301,#1302),
(#1303,#1304),(#1305,#1306),(#1307,#1308),(#1309,#1310),(#1311,#1312),(#1313,
#1314)),.UNSPECIFIED.,.F.,.F.,.F.,(4,2,2,2,2,2,4),(2,2),(0.,0.0501110231620931,
0.102261479702394,0.156450478837902,0.212677099577453,0.248520475110842,
0.285142803995152),(0.,0.700000846242594),.UNSPECIFIED.);
#22=B_SPLINE_SURFACE_WITH_KNOTS('',3,1,((#1319,#1320),(#1321,#1322),(#1323,
#1324),(#1325,#1326),(#1327,#1328),(#1329,#1330),(#1331,#1332),(#1333,#1334),
(#1335,#1336),(#1337,#1338),(#1339,#1340),(#1341,#1342),(#1343,#1344),(#1345,
#1346)),.UNSPECIFIED.,.F.,.F.,.F.,(4,2,2,2,2,2,4),(2,2),(0.,0.0590386873266632,
0.11603342985477,0.17098340798687,0.223887839039614,0.255505160536068,0.286347380332236),
(0.,0.700000845357249),.UNSPECIFIED.);
#23=FACE_BOUND('',#89,.T.);
#24=FACE_BOUND('',#90,.T.);
#25=FACE_BOUND('',#91,.T.);
#26=FACE_BOUND('',#92,.T.);
#27=FACE_BOUND('',#93,.T.);
#28=FACE_BOUND('',#100,.T.);
#29=FACE_BOUND('',#101,.T.);
#30=FACE_BOUND('',#102,.T.);
#31=FACE_BOUND('',#103,.T.);
#32=FACE_BOUND('',#104,.T.);
#33=B_SPLINE_CURVE_WITH_KNOTS('',3,(#794,#795,#796,#797,#798,#799,#800,
#801,#802,#803,#804,#805,#806,#807),.UNSPECIFIED.,.F.,.F.,(4,2,2,2,2,2,
4),(0.,0.0501110231620931,0.102261479702394,0.156450478837902,0.212677099577453,
0.248520475110842,0.285142803995152),.UNSPECIFIED.);
#34=B_SPLINE_CURVE_WITH_KNOTS('',3,(#811,#812,#813,#814,#815,#816,#817,
#818,#819,#820,#821,#822,#823,#824),.UNSPECIFIED.,.F.,.F.,(4,2,2,2,2,2,
4),(0.,0.0590386873266632,0.11603342985477,0.17098340798687,0.223887839039614,
0.255505160536068,0.286347380332236),.UNSPECIFIED.);
#35=B_SPLINE_CURVE_WITH_KNOTS('',3,(#828,#829,#830,#831,#832,#833,#834,
#835,#836,#837,#838,#839,#840,#841),.UNSPECIFIED.,.F.,.F.,(4,2,2,2,2,2,
4),(0.,0.0501110231620933,0.102261479702394,0.156450478837903,0.212677099577454,
0.248520475110845,0.285142803995159),.UNSPECIFIED.);
#36=B_SPLINE_CURVE_WITH_KNOTS('',3,(#845,#846,#847,#848,#849,#850,#851,
#852,#853,#854,#855,#856,#857,#858),.UNSPECIFIED.,.F.,.F.,(4,2,2,2,2,2,
4),(0.,0.0590386873266628,0.11603342985477,0.170983407986873,0.223887839039617,
0.255505160536073,0.286347380332248),.UNSPECIFIED.);
#37=B_SPLINE_CURVE_WITH_KNOTS('',3,(#862,#863,#864,#865,#866,#867,#868,
#869,#870,#871,#872,#873,#874,#875),.UNSPECIFIED.,.F.,.F.,(4,2,2,2,2,2,
4),(0.,0.0501110231620927,0.102261479702393,0.156450478837903,0.212677099577457,
0.248520475110848,0.285142803995159),.UNSPECIFIED.);
#38=B_SPLINE_CURVE_WITH_KNOTS('',3,(#879,#880,#881,#882,#883,#884,#885,
#886,#887,#888,#889,#890,#891,#892),.UNSPECIFIED.,.F.,.F.,(4,2,2,2,2,2,
4),(0.,0.0590386873266626,0.116033429854771,0.170983407986877,0.223887839039625,
0.255505160536085,0.286347380332262),.UNSPECIFIED.);
#39=B_SPLINE_CURVE_WITH_KNOTS('',3,(#896,#897,#898,#899,#900,#901,#902,
#903,#904,#905,#906,#907,#908,#909),.UNSPECIFIED.,.F.,.F.,(4,2,2,2,2,2,
4),(0.,0.050111023162093,0.102261479702394,0.156450478837903,0.212677099577453,
0.248520475110845,0.285142803995159),.UNSPECIFIED.);
#40=B_SPLINE_CURVE_WITH_KNOTS('',3,(#913,#914,#915,#916,#917,#918,#919,
#920,#921,#922,#923,#924,#925,#926),.UNSPECIFIED.,.F.,.F.,(4,2,2,2,2,2,
4),(0.,0.0590386873266644,0.116033429854773,0.170983407986877,0.223887839039622,
0.255505160536078,0.286347380332251),.UNSPECIFIED.);
#41=B_SPLINE_CURVE_WITH_KNOTS('',3,(#961,#962,#963,#964,#965,#966,#967,
#968,#969,#970,#971,#972,#973,#974),.UNSPECIFIED.,.F.,.F.,(4,2,2,2,2,2,
4),(0.,0.050111023162093,0.102261479702394,0.156450478837903,0.212677099577453,
0.248520475110845,0.285142803995159),.UNSPECIFIED.);
#42=B_SPLINE_CURVE_WITH_KNOTS('',3,(#978,#979,#980,#981,#982,#983,#984,
#985,#986,#987,#988,#989,#990,#991),.UNSPECIFIED.,.F.,.F.,(4,2,2,2,2,2,
4),(0.,0.0590386873266644,0.116033429854773,0.170983407986877,0.223887839039622,
0.255505160536078,0.286347380332251),.UNSPECIFIED.);
#43=B_SPLINE_CURVE_WITH_KNOTS('',3,(#995,#996,#997,#998,#999,#1000,#1001,
#1002,#1003,#1004,#1005,#1006,#1007,#1008),.UNSPECIFIED.,.F.,.F.,(4,2,2,
2,2,2,4),(0.,0.0501110231620927,0.102261479702393,0.156450478837903,0.212677099577457,
0.248520475110848,0.285142803995159),.UNSPECIFIED.);
#44=B_SPLINE_CURVE_WITH_KNOTS('',3,(#1012,#1013,#1014,#1015,#1016,#1017,
#1018,#1019,#1020,#1021,#1022,#1023,#1024,#1025),.UNSPECIFIED.,.F.,.F.,
(4,2,2,2,2,2,4),(0.,0.0590386873266626,0.116033429854771,0.170983407986877,
0.223887839039625,0.255505160536085,0.286347380332262),.UNSPECIFIED.);
#45=B_SPLINE_CURVE_WITH_KNOTS('',3,(#1029,#1030,#1031,#1032,#1033,#1034,
#1035,#1036,#1037,#1038,#1039,#1040,#1041,#1042),.UNSPECIFIED.,.F.,.F.,
(4,2,2,2,2,2,4),(0.,0.0501110231620933,0.102261479702394,0.156450478837903,
0.212677099577454,0.248520475110845,0.285142803995159),.UNSPECIFIED.);
#46=B_SPLINE_CURVE_WITH_KNOTS('',3,(#1046,#1047,#1048,#1049,#1050,#1051,
#1052,#1053,#1054,#1055,#1056,#1057,#1058,#1059),.UNSPECIFIED.,.F.,.F.,
(4,2,2,2,2,2,4),(0.,0.0590386873266628,0.11603342985477,0.170983407986873,
0.223887839039617,0.255505160536073,0.286347380332248),.UNSPECIFIED.);
#47=B_SPLINE_CURVE_WITH_KNOTS('',3,(#1063,#1064,#1065,#1066,#1067,#1068,
#1069,#1070,#1071,#1072,#1073,#1074,#1075,#1076),.UNSPECIFIED.,.F.,.F.,
(4,2,2,2,2,2,4),(0.,0.0501110231620931,0.102261479702394,0.156450478837902,
0.212677099577453,0.248520475110842,0.285142803995152),.UNSPECIFIED.);
#48=B_SPLINE_CURVE_WITH_KNOTS('',3,(#1080,#1081,#1082,#1083,#1084,#1085,
#1086,#1087,#1088,#1089,#1090,#1091,#1092,#1093),.UNSPECIFIED.,.F.,.F.,
(4,2,2,2,2,2,4),(0.,0.0590386873266632,0.11603342985477,0.17098340798687,
0.223887839039614,0.255505160536068,0.286347380332236),.UNSPECIFIED.);
#49=PLANE('',#585);
#50=PLANE('',#598);
#51=PLANE('',#601);
#52=PLANE('',#602);
#53=PLANE('',#604);
#54=PLANE('',#605);
#55=PLANE('',#626);
#56=PLANE('',#627);
#57=PLANE('',#628);
#58=FACE_OUTER_BOUND('',#87,.T.);
#59=FACE_OUTER_BOUND('',#88,.T.);
#60=FACE_OUTER_BOUND('',#94,.T.);
#61=FACE_OUTER_BOUND('',#95,.T.);
#62=FACE_OUTER_BOUND('',#96,.T.);
#63=FACE_OUTER_BOUND('',#97,.T.);
#64=FACE_OUTER_BOUND('',#98,.T.);
#65=FACE_OUTER_BOUND('',#99,.T.);
#66=FACE_OUTER_BOUND('',#105,.T.);
#67=FACE_OUTER_BOUND('',#106,.T.);
#68=FACE_OUTER_BOUND('',#107,.T.);
#69=FACE_OUTER_BOUND('',#108,.T.);
#70=FACE_OUTER_BOUND('',#109,.T.);
#71=FACE_OUTER_BOUND('',#110,.T.);
#72=FACE_OUTER_BOUND('',#111,.T.);
#73=FACE_OUTER_BOUND('',#112,.T.);
#74=FACE_OUTER_BOUND('',#113,.T.);
#75=FACE_OUTER_BOUND('',#114,.T.);
#76=FACE_OUTER_BOUND('',#115,.T.);
#77=FACE_OUTER_BOUND('',#116,.T.);
#78=FACE_OUTER_BOUND('',#117,.T.);
#79=FACE_OUTER_BOUND('',#118,.T.);
#80=FACE_OUTER_BOUND('',#119,.T.);
#81=FACE_OUTER_BOUND('',#120,.T.);
#82=FACE_OUTER_BOUND('',#121,.T.);
#83=FACE_OUTER_BOUND('',#122,.T.);
#84=FACE_OUTER_BOUND('',#123,.T.);
#85=FACE_OUTER_BOUND('',#124,.T.);
#86=FACE_OUTER_BOUND('',#125,.T.);
#87=EDGE_LOOP('',(#365,#366,#367,#368));
#88=EDGE_LOOP('',(#369,#370,#371,#372,#373,#374,#375,#376,#377,#378));
#89=EDGE_LOOP('',(#379,#380,#381,#382));
#90=EDGE_LOOP('',(#383,#384,#385,#386));
#91=EDGE_LOOP('',(#387,#388,#389,#390));
#92=EDGE_LOOP('',(#391,#392,#393,#394));
#93=EDGE_LOOP('',(#395));
#94=EDGE_LOOP('',(#396,#397,#398,#399));
#95=EDGE_LOOP('',(#400,#401,#402,#403));
#96=EDGE_LOOP('',(#404,#405,#406,#407));
#97=EDGE_LOOP('',(#408,#409,#410,#411,#412,#413,#414,#415,#416));
#98=EDGE_LOOP('',(#417,#418,#419,#420));
#99=EDGE_LOOP('',(#421));
#100=EDGE_LOOP('',(#422));
#101=EDGE_LOOP('',(#423,#424,#425,#426));
#102=EDGE_LOOP('',(#427,#428,#429,#430));
#103=EDGE_LOOP('',(#431,#432,#433,#434));
#104=EDGE_LOOP('',(#435,#436,#437,#438));
#105=EDGE_LOOP('',(#439,#440,#441,#442,#443,#444,#445,#446));
#106=EDGE_LOOP('',(#447,#448,#449,#450));
#107=EDGE_LOOP('',(#451,#452,#453,#454));
#108=EDGE_LOOP('',(#455,#456,#457,#458));
#109=EDGE_LOOP('',(#459,#460,#461,#462));
#110=EDGE_LOOP('',(#463,#464,#465,#466));
#111=EDGE_LOOP('',(#467,#468,#469,#470));
#112=EDGE_LOOP('',(#471,#472,#473,#474));
#113=EDGE_LOOP('',(#475,#476,#477,#478));
#114=EDGE_LOOP('',(#479,#480,#481,#482));
#115=EDGE_LOOP('',(#483,#484,#485,#486));
#116=EDGE_LOOP('',(#487,#488,#489,#490));
#117=EDGE_LOOP('',(#491,#492,#493,#494));
#118=EDGE_LOOP('',(#495,#496,#497,#498));
#119=EDGE_LOOP('',(#499,#500,#501,#502));
#120=EDGE_LOOP('',(#503,#504,#505,#506));
#121=EDGE_LOOP('',(#507,#508,#509,#510));
#122=EDGE_LOOP('',(#511,#512,#513,#514));
#123=EDGE_LOOP('',(#515,#516,#517,#518));
#124=EDGE_LOOP('',(#519,#520,#521,#522));
#125=EDGE_LOOP('',(#523,#524,#525,#526));
#126=LINE('',#770,#165);
#127=LINE('',#773,#166);
#128=LINE('',#776,#167);
#129=LINE('',#780,#168);
#130=LINE('',#782,#169);
#131=LINE('',#788,#170);
#132=LINE('',#790,#171);
#133=LINE('',#791,#172);
#134=LINE('',#932,#173);
#135=LINE('',#933,#174);
#136=LINE('',#937,#175);
#137=LINE('',#940,#176);
#138=LINE('',#941,#177);
#139=LINE('',#944,#178);
#140=LINE('',#946,#179);
#141=LINE('',#948,#180);
#142=LINE('',#951,#181);
#143=LINE('',#953,#182);
#144=LINE('',#1096,#183);
#145=LINE('',#1097,#184);
#146=LINE('',#1098,#185);
#147=LINE('',#1100,#186);
#148=LINE('',#1129,#187);
#149=LINE('',#1130,#188);
#150=LINE('',#1132,#189);
#151=LINE('',#1161,#190);
#152=LINE('',#1191,#191);
#153=LINE('',#1192,#192);
#154=LINE('',#1194,#193);
#155=LINE('',#1223,#194);
#156=LINE('',#1253,#195);
#157=LINE('',#1254,#196);
#158=LINE('',#1256,#197);
#159=LINE('',#1285,#198);
#160=LINE('',#1315,#199);
#161=LINE('',#1316,#200);
#162=LINE('',#1318,#201);
#163=LINE('',#1347,#202);
#164=LINE('',#1351,#203);
#165=VECTOR('',#635,10.);
#166=VECTOR('',#638,10.);
#167=VECTOR('',#641,10.);
#168=VECTOR('',#644,10.);
#169=VECTOR('',#645,10.);
#170=VECTOR('',#650,10.);
#171=VECTOR('',#651,10.);
#172=VECTOR('',#652,10.);
#173=VECTOR('',#673,10.);
#174=VECTOR('',#674,10.);
#175=VECTOR('',#679,10.);
#176=VECTOR('',#682,10.);
#177=VECTOR('',#683,10.);
#178=VECTOR('',#686,10.);
#179=VECTOR('',#687,10.);
#180=VECTOR('',#688,10.);
#181=VECTOR('',#691,10.);
#182=VECTOR('',#694,10.);
#183=VECTOR('',#719,10.);
#184=VECTOR('',#720,10.);
#185=VECTOR('',#721,10.);
#186=VECTOR('',#724,1.55);
#187=VECTOR('',#725,10.);
#188=VECTOR('',#726,10.);
#189=VECTOR('',#729,10.);
#190=VECTOR('',#730,10.);
#191=VECTOR('',#733,10.);
#192=VECTOR('',#734,10.);
#193=VECTOR('',#737,10.);
#194=VECTOR('',#738,10.);
#195=VECTOR('',#741,10.);
#196=VECTOR('',#742,10.);
#197=VECTOR('',#745,10.);
#198=VECTOR('',#746,10.);
#199=VECTOR('',#749,10.);
#200=VECTOR('',#750,10.);
#201=VECTOR('',#753,10.);
#202=VECTOR('',#754,10.);
#203=VECTOR('',#761,10.);
#204=CIRCLE('',#583,2.5);
#205=CIRCLE('',#584,2.5);
#206=CIRCLE('',#586,2.5);
#207=CIRCLE('',#587,10.);
#208=CIRCLE('',#588,10.);
#209=CIRCLE('',#589,1.543);
#210=CIRCLE('',#590,1.2645);
#211=CIRCLE('',#591,1.543);
#212=CIRCLE('',#592,1.2645);
#213=CIRCLE('',#593,1.543);
#214=CIRCLE('',#594,1.2645);
#215=CIRCLE('',#595,1.543);
#216=CIRCLE('',#596,1.2645);
#217=CIRCLE('',#597,1.55);
#218=CIRCLE('',#600,2.5);
#219=CIRCLE('',#603,10.);
#220=CIRCLE('',#606,10.);
#221=CIRCLE('',#607,1.55);
#222=CIRCLE('',#608,1.2645);
#223=CIRCLE('',#609,1.543);
#224=CIRCLE('',#610,1.2645);
#225=CIRCLE('',#611,1.543);
#226=CIRCLE('',#612,1.2645);
#227=CIRCLE('',#613,1.543);
#228=CIRCLE('',#614,1.2645);
#229=CIRCLE('',#615,1.543);
#230=VERTEX_POINT('',#766);
#231=VERTEX_POINT('',#767);
#232=VERTEX_POINT('',#769);
#233=VERTEX_POINT('',#771);
#234=VERTEX_POINT('',#775);
#235=VERTEX_POINT('',#777);
#236=VERTEX_POINT('',#779);
#237=VERTEX_POINT('',#781);
#238=VERTEX_POINT('',#783);
#239=VERTEX_POINT('',#785);
#240=VERTEX_POINT('',#787);
#241=VERTEX_POINT('',#789);
#242=VERTEX_POINT('',#792);
#243=VERTEX_POINT('',#793);
#244=VERTEX_POINT('',#808);
#245=VERTEX_POINT('',#810);
#246=VERTEX_POINT('',#826);
#247=VERTEX_POINT('',#827);
#248=VERTEX_POINT('',#842);
#249=VERTEX_POINT('',#844);
#250=VERTEX_POINT('',#860);
#251=VERTEX_POINT('',#861);
#252=VERTEX_POINT('',#876);
#253=VERTEX_POINT('',#878);
#254=VERTEX_POINT('',#894);
#255=VERTEX_POINT('',#895);
#256=VERTEX_POINT('',#910);
#257=VERTEX_POINT('',#912);
#258=VERTEX_POINT('',#928);
#259=VERTEX_POINT('',#931);
#260=VERTEX_POINT('',#935);
#261=VERTEX_POINT('',#939);
#262=VERTEX_POINT('',#943);
#263=VERTEX_POINT('',#945);
#264=VERTEX_POINT('',#947);
#265=VERTEX_POINT('',#949);
#266=VERTEX_POINT('',#955);
#267=VERTEX_POINT('',#957);
#268=VERTEX_POINT('',#959);
#269=VERTEX_POINT('',#960);
#270=VERTEX_POINT('',#975);
#271=VERTEX_POINT('',#977);
#272=VERTEX_POINT('',#993);
#273=VERTEX_POINT('',#994);
#274=VERTEX_POINT('',#1009);
#275=VERTEX_POINT('',#1011);
#276=VERTEX_POINT('',#1027);
#277=VERTEX_POINT('',#1028);
#278=VERTEX_POINT('',#1043);
#279=VERTEX_POINT('',#1045);
#280=VERTEX_POINT('',#1061);
#281=VERTEX_POINT('',#1062);
#282=VERTEX_POINT('',#1077);
#283=VERTEX_POINT('',#1079);
#284=EDGE_CURVE('',#230,#231,#204,.T.);
#285=EDGE_CURVE('',#231,#232,#126,.T.);
#286=EDGE_CURVE('',#232,#233,#205,.T.);
#287=EDGE_CURVE('',#233,#230,#127,.T.);
#288=EDGE_CURVE('',#230,#234,#128,.T.);
#289=EDGE_CURVE('',#235,#234,#206,.T.);
#290=EDGE_CURVE('',#235,#236,#129,.T.);
#291=EDGE_CURVE('',#236,#237,#130,.T.);
#292=EDGE_CURVE('',#237,#238,#207,.T.);
#293=EDGE_CURVE('',#238,#239,#208,.T.);
#294=EDGE_CURVE('',#239,#240,#131,.T.);
#295=EDGE_CURVE('',#240,#241,#132,.T.);
#296=EDGE_CURVE('',#241,#231,#133,.T.);
#297=EDGE_CURVE('',#242,#243,#33,.T.);
#298=EDGE_CURVE('',#243,#244,#209,.T.);
#299=EDGE_CURVE('',#244,#245,#34,.T.);
#300=EDGE_CURVE('',#245,#242,#210,.T.);
#301=EDGE_CURVE('',#246,#247,#35,.T.);
#302=EDGE_CURVE('',#247,#248,#211,.T.);
#303=EDGE_CURVE('',#248,#249,#36,.T.);
#304=EDGE_CURVE('',#249,#246,#212,.T.);
#305=EDGE_CURVE('',#250,#251,#37,.T.);
#306=EDGE_CURVE('',#251,#252,#213,.T.);
#307=EDGE_CURVE('',#252,#253,#38,.T.);
#308=EDGE_CURVE('',#253,#250,#214,.T.);
#309=EDGE_CURVE('',#254,#255,#39,.T.);
#310=EDGE_CURVE('',#255,#256,#215,.T.);
#311=EDGE_CURVE('',#256,#257,#40,.T.);
#312=EDGE_CURVE('',#257,#254,#216,.T.);
#313=EDGE_CURVE('',#258,#258,#217,.T.);
#314=EDGE_CURVE('',#259,#233,#134,.T.);
#315=EDGE_CURVE('',#234,#259,#135,.T.);
#316=EDGE_CURVE('',#259,#260,#218,.T.);
#317=EDGE_CURVE('',#260,#235,#136,.T.);
#318=EDGE_CURVE('',#261,#260,#137,.T.);
#319=EDGE_CURVE('',#261,#236,#138,.T.);
#320=EDGE_CURVE('',#232,#262,#139,.T.);
#321=EDGE_CURVE('',#262,#263,#140,.T.);
#322=EDGE_CURVE('',#263,#264,#141,.T.);
#323=EDGE_CURVE('',#265,#264,#219,.T.);
#324=EDGE_CURVE('',#265,#261,#142,.T.);
#325=EDGE_CURVE('',#262,#241,#143,.T.);
#326=EDGE_CURVE('',#266,#266,#220,.T.);
#327=EDGE_CURVE('',#267,#267,#221,.T.);
#328=EDGE_CURVE('',#268,#269,#41,.T.);
#329=EDGE_CURVE('',#268,#270,#222,.F.);
#330=EDGE_CURVE('',#271,#270,#42,.T.);
#331=EDGE_CURVE('',#269,#271,#223,.T.);
#332=EDGE_CURVE('',#272,#273,#43,.T.);
#333=EDGE_CURVE('',#272,#274,#224,.F.);
#334=EDGE_CURVE('',#275,#274,#44,.T.);
#335=EDGE_CURVE('',#273,#275,#225,.T.);
#336=EDGE_CURVE('',#276,#277,#45,.T.);
#337=EDGE_CURVE('',#276,#278,#226,.F.);
#338=EDGE_CURVE('',#279,#278,#46,.T.);
#339=EDGE_CURVE('',#277,#279,#227,.T.);
#340=EDGE_CURVE('',#280,#281,#47,.T.);
#341=EDGE_CURVE('',#280,#282,#228,.F.);
#342=EDGE_CURVE('',#283,#282,#48,.T.);
#343=EDGE_CURVE('',#281,#283,#229,.T.);
#344=EDGE_CURVE('',#264,#239,#144,.T.);
#345=EDGE_CURVE('',#238,#266,#145,.T.);
#346=EDGE_CURVE('',#237,#265,#146,.T.);
#347=EDGE_CURVE('',#258,#267,#147,.T.);
#348=EDGE_CURVE('',#269,#255,#148,.T.);
#349=EDGE_CURVE('',#268,#254,#149,.T.);
#350=EDGE_CURVE('',#271,#256,#150,.T.);
#351=EDGE_CURVE('',#270,#257,#151,.T.);
#352=EDGE_CURVE('',#273,#251,#152,.T.);
#353=EDGE_CURVE('',#272,#250,#153,.T.);
#354=EDGE_CURVE('',#275,#252,#154,.T.);
#355=EDGE_CURVE('',#274,#253,#155,.T.);
#356=EDGE_CURVE('',#277,#247,#156,.T.);
#357=EDGE_CURVE('',#276,#246,#157,.T.);
#358=EDGE_CURVE('',#279,#248,#158,.T.);
#359=EDGE_CURVE('',#278,#249,#159,.T.);
#360=EDGE_CURVE('',#281,#243,#160,.T.);
#361=EDGE_CURVE('',#280,#242,#161,.T.);
#362=EDGE_CURVE('',#283,#244,#162,.T.);
#363=EDGE_CURVE('',#282,#245,#163,.T.);
#364=EDGE_CURVE('',#263,#240,#164,.T.);
#365=ORIENTED_EDGE('',*,*,#284,.T.);
#366=ORIENTED_EDGE('',*,*,#285,.T.);
#367=ORIENTED_EDGE('',*,*,#286,.T.);
#368=ORIENTED_EDGE('',*,*,#287,.T.);
#369=ORIENTED_EDGE('',*,*,#284,.F.);
#370=ORIENTED_EDGE('',*,*,#288,.T.);
#371=ORIENTED_EDGE('',*,*,#289,.F.);
#372=ORIENTED_EDGE('',*,*,#290,.T.);
#373=ORIENTED_EDGE('',*,*,#291,.T.);
#374=ORIENTED_EDGE('',*,*,#292,.T.);
#375=ORIENTED_EDGE('',*,*,#293,.T.);
#376=ORIENTED_EDGE('',*,*,#294,.T.);
#377=ORIENTED_EDGE('',*,*,#295,.T.);
#378=ORIENTED_EDGE('',*,*,#296,.T.);
#379=ORIENTED_EDGE('',*,*,#297,.T.);
#380=ORIENTED_EDGE('',*,*,#298,.T.);
#381=ORIENTED_EDGE('',*,*,#299,.T.);
#382=ORIENTED_EDGE('',*,*,#300,.T.);
#383=ORIENTED_EDGE('',*,*,#301,.T.);
#384=ORIENTED_EDGE('',*,*,#302,.T.);
#385=ORIENTED_EDGE('',*,*,#303,.T.);
#386=ORIENTED_EDGE('',*,*,#304,.T.);
#387=ORIENTED_EDGE('',*,*,#305,.T.);
#388=ORIENTED_EDGE('',*,*,#306,.T.);
#389=ORIENTED_EDGE('',*,*,#307,.T.);
#390=ORIENTED_EDGE('',*,*,#308,.T.);
#391=ORIENTED_EDGE('',*,*,#309,.T.);
#392=ORIENTED_EDGE('',*,*,#310,.T.);
#393=ORIENTED_EDGE('',*,*,#311,.T.);
#394=ORIENTED_EDGE('',*,*,#312,.T.);
#395=ORIENTED_EDGE('',*,*,#313,.T.);
#396=ORIENTED_EDGE('',*,*,#287,.F.);
#397=ORIENTED_EDGE('',*,*,#314,.F.);
#398=ORIENTED_EDGE('',*,*,#315,.F.);
#399=ORIENTED_EDGE('',*,*,#288,.F.);
#400=ORIENTED_EDGE('',*,*,#316,.T.);
#401=ORIENTED_EDGE('',*,*,#317,.T.);
#402=ORIENTED_EDGE('',*,*,#289,.T.);
#403=ORIENTED_EDGE('',*,*,#315,.T.);
#404=ORIENTED_EDGE('',*,*,#317,.F.);
#405=ORIENTED_EDGE('',*,*,#318,.F.);
#406=ORIENTED_EDGE('',*,*,#319,.T.);
#407=ORIENTED_EDGE('',*,*,#290,.F.);
#408=ORIENTED_EDGE('',*,*,#286,.F.);
#409=ORIENTED_EDGE('',*,*,#320,.T.);
#410=ORIENTED_EDGE('',*,*,#321,.T.);
#411=ORIENTED_EDGE('',*,*,#322,.T.);
#412=ORIENTED_EDGE('',*,*,#323,.F.);
#413=ORIENTED_EDGE('',*,*,#324,.T.);
#414=ORIENTED_EDGE('',*,*,#318,.T.);
#415=ORIENTED_EDGE('',*,*,#316,.F.);
#416=ORIENTED_EDGE('',*,*,#314,.T.);
#417=ORIENTED_EDGE('',*,*,#285,.F.);
#418=ORIENTED_EDGE('',*,*,#296,.F.);
#419=ORIENTED_EDGE('',*,*,#325,.F.);
#420=ORIENTED_EDGE('',*,*,#320,.F.);
#421=ORIENTED_EDGE('',*,*,#326,.F.);
#422=ORIENTED_EDGE('',*,*,#327,.F.);
#423=ORIENTED_EDGE('',*,*,#328,.F.);
#424=ORIENTED_EDGE('',*,*,#329,.T.);
#425=ORIENTED_EDGE('',*,*,#330,.F.);
#426=ORIENTED_EDGE('',*,*,#331,.F.);
#427=ORIENTED_EDGE('',*,*,#332,.F.);
#428=ORIENTED_EDGE('',*,*,#333,.T.);
#429=ORIENTED_EDGE('',*,*,#334,.F.);
#430=ORIENTED_EDGE('',*,*,#335,.F.);
#431=ORIENTED_EDGE('',*,*,#336,.F.);
#432=ORIENTED_EDGE('',*,*,#337,.T.);
#433=ORIENTED_EDGE('',*,*,#338,.F.);
#434=ORIENTED_EDGE('',*,*,#339,.F.);
#435=ORIENTED_EDGE('',*,*,#340,.F.);
#436=ORIENTED_EDGE('',*,*,#341,.T.);
#437=ORIENTED_EDGE('',*,*,#342,.F.);
#438=ORIENTED_EDGE('',*,*,#343,.F.);
#439=ORIENTED_EDGE('',*,*,#344,.T.);
#440=ORIENTED_EDGE('',*,*,#293,.F.);
#441=ORIENTED_EDGE('',*,*,#345,.T.);
#442=ORIENTED_EDGE('',*,*,#326,.T.);
#443=ORIENTED_EDGE('',*,*,#345,.F.);
#444=ORIENTED_EDGE('',*,*,#292,.F.);
#445=ORIENTED_EDGE('',*,*,#346,.T.);
#446=ORIENTED_EDGE('',*,*,#323,.T.);
#447=ORIENTED_EDGE('',*,*,#313,.F.);
#448=ORIENTED_EDGE('',*,*,#347,.T.);
#449=ORIENTED_EDGE('',*,*,#327,.T.);
#450=ORIENTED_EDGE('',*,*,#347,.F.);
#451=ORIENTED_EDGE('',*,*,#328,.T.);
#452=ORIENTED_EDGE('',*,*,#348,.T.);
#453=ORIENTED_EDGE('',*,*,#309,.F.);
#454=ORIENTED_EDGE('',*,*,#349,.F.);
#455=ORIENTED_EDGE('',*,*,#331,.T.);
#456=ORIENTED_EDGE('',*,*,#350,.T.);
#457=ORIENTED_EDGE('',*,*,#310,.F.);
#458=ORIENTED_EDGE('',*,*,#348,.F.);
#459=ORIENTED_EDGE('',*,*,#330,.T.);
#460=ORIENTED_EDGE('',*,*,#351,.T.);
#461=ORIENTED_EDGE('',*,*,#311,.F.);
#462=ORIENTED_EDGE('',*,*,#350,.F.);
#463=ORIENTED_EDGE('',*,*,#329,.F.);
#464=ORIENTED_EDGE('',*,*,#349,.T.);
#465=ORIENTED_EDGE('',*,*,#312,.F.);
#466=ORIENTED_EDGE('',*,*,#351,.F.);
#467=ORIENTED_EDGE('',*,*,#332,.T.);
#468=ORIENTED_EDGE('',*,*,#352,.T.);
#469=ORIENTED_EDGE('',*,*,#305,.F.);
#470=ORIENTED_EDGE('',*,*,#353,.F.);
#471=ORIENTED_EDGE('',*,*,#335,.T.);
#472=ORIENTED_EDGE('',*,*,#354,.T.);
#473=ORIENTED_EDGE('',*,*,#306,.F.);
#474=ORIENTED_EDGE('',*,*,#352,.F.);
#475=ORIENTED_EDGE('',*,*,#334,.T.);
#476=ORIENTED_EDGE('',*,*,#355,.T.);
#477=ORIENTED_EDGE('',*,*,#307,.F.);
#478=ORIENTED_EDGE('',*,*,#354,.F.);
#479=ORIENTED_EDGE('',*,*,#333,.F.);
#480=ORIENTED_EDGE('',*,*,#353,.T.);
#481=ORIENTED_EDGE('',*,*,#308,.F.);
#482=ORIENTED_EDGE('',*,*,#355,.F.);
#483=ORIENTED_EDGE('',*,*,#336,.T.);
#484=ORIENTED_EDGE('',*,*,#356,.T.);
#485=ORIENTED_EDGE('',*,*,#301,.F.);
#486=ORIENTED_EDGE('',*,*,#357,.F.);
#487=ORIENTED_EDGE('',*,*,#339,.T.);
#488=ORIENTED_EDGE('',*,*,#358,.T.);
#489=ORIENTED_EDGE('',*,*,#302,.F.);
#490=ORIENTED_EDGE('',*,*,#356,.F.);
#491=ORIENTED_EDGE('',*,*,#338,.T.);
#492=ORIENTED_EDGE('',*,*,#359,.T.);
#493=ORIENTED_EDGE('',*,*,#303,.F.);
#494=ORIENTED_EDGE('',*,*,#358,.F.);
#495=ORIENTED_EDGE('',*,*,#337,.F.);
#496=ORIENTED_EDGE('',*,*,#357,.T.);
#497=ORIENTED_EDGE('',*,*,#304,.F.);
#498=ORIENTED_EDGE('',*,*,#359,.F.);
#499=ORIENTED_EDGE('',*,*,#340,.T.);
#500=ORIENTED_EDGE('',*,*,#360,.T.);
#501=ORIENTED_EDGE('',*,*,#297,.F.);
#502=ORIENTED_EDGE('',*,*,#361,.F.);
#503=ORIENTED_EDGE('',*,*,#343,.T.);
#504=ORIENTED_EDGE('',*,*,#362,.T.);
#505=ORIENTED_EDGE('',*,*,#298,.F.);
#506=ORIENTED_EDGE('',*,*,#360,.F.);
#507=ORIENTED_EDGE('',*,*,#342,.T.);
#508=ORIENTED_EDGE('',*,*,#363,.T.);
#509=ORIENTED_EDGE('',*,*,#299,.F.);
#510=ORIENTED_EDGE('',*,*,#362,.F.);
#511=ORIENTED_EDGE('',*,*,#341,.F.);
#512=ORIENTED_EDGE('',*,*,#361,.T.);
#513=ORIENTED_EDGE('',*,*,#300,.F.);
#514=ORIENTED_EDGE('',*,*,#363,.F.);
#515=ORIENTED_EDGE('',*,*,#324,.F.);
#516=ORIENTED_EDGE('',*,*,#346,.F.);
#517=ORIENTED_EDGE('',*,*,#291,.F.);
#518=ORIENTED_EDGE('',*,*,#319,.F.);
#519=ORIENTED_EDGE('',*,*,#325,.T.);
#520=ORIENTED_EDGE('',*,*,#295,.F.);
#521=ORIENTED_EDGE('',*,*,#364,.F.);
#522=ORIENTED_EDGE('',*,*,#321,.F.);
#523=ORIENTED_EDGE('',*,*,#364,.T.);
#524=ORIENTED_EDGE('',*,*,#294,.F.);
#525=ORIENTED_EDGE('',*,*,#344,.F.);
#526=ORIENTED_EDGE('',*,*,#322,.F.);
#527=CYLINDRICAL_SURFACE('',#582,2.5);
#528=CYLINDRICAL_SURFACE('',#599,2.5);
#529=CYLINDRICAL_SURFACE('',#616,10.);
#530=CYLINDRICAL_SURFACE('',#617,1.55);
#531=CYLINDRICAL_SURFACE('',#618,1.543);
#532=CYLINDRICAL_SURFACE('',#619,1.2645);
#533=CYLINDRICAL_SURFACE('',#620,1.543);
#534=CYLINDRICAL_SURFACE('',#621,1.2645);
#535=CYLINDRICAL_SURFACE('',#622,1.543);
#536=CYLINDRICAL_SURFACE('',#623,1.2645);
#537=CYLINDRICAL_SURFACE('',#624,1.543);
#538=CYLINDRICAL_SURFACE('',#625,1.2645);
#539=ADVANCED_FACE('',(#58),#527,.T.);
#540=ADVANCED_FACE('',(#59,#23,#24,#25,#26,#27),#49,.T.);
#541=ADVANCED_FACE('',(#60),#50,.T.);
#542=ADVANCED_FACE('',(#61),#528,.T.);
#543=ADVANCED_FACE('',(#62),#51,.T.);
#544=ADVANCED_FACE('',(#63),#52,.F.);
#545=ADVANCED_FACE('',(#64),#53,.T.);
#546=ADVANCED_FACE('',(#65,#28,#29,#30,#31,#32),#54,.F.);
#547=ADVANCED_FACE('',(#66),#529,.T.);
#548=ADVANCED_FACE('',(#67),#530,.F.);
#549=ADVANCED_FACE('',(#68),#15,.T.);
#550=ADVANCED_FACE('',(#69),#531,.F.);
#551=ADVANCED_FACE('',(#70),#16,.T.);
#552=ADVANCED_FACE('',(#71),#532,.F.);
#553=ADVANCED_FACE('',(#72),#17,.T.);
#554=ADVANCED_FACE('',(#73),#533,.F.);
#555=ADVANCED_FACE('',(#74),#18,.T.);
#556=ADVANCED_FACE('',(#75),#534,.F.);
#557=ADVANCED_FACE('',(#76),#19,.T.);
#558=ADVANCED_FACE('',(#77),#535,.F.);
#559=ADVANCED_FACE('',(#78),#20,.T.);
#560=ADVANCED_FACE('',(#79),#536,.F.);
#561=ADVANCED_FACE('',(#80),#21,.T.);
#562=ADVANCED_FACE('',(#81),#537,.F.);
#563=ADVANCED_FACE('',(#82),#22,.T.);
#564=ADVANCED_FACE('',(#83),#538,.F.);
#565=ADVANCED_FACE('',(#84),#55,.T.);
#566=ADVANCED_FACE('',(#85),#56,.T.);
#567=ADVANCED_FACE('',(#86),#57,.T.);
#568=CLOSED_SHELL('',(#539,#540,#541,#542,#543,#544,#545,#546,#547,#548,
#549,#550,#551,#552,#553,#554,#555,#556,#557,#558,#559,#560,#561,#562,#563,
#564,#565,#566,#567));
#569=DERIVED_UNIT_ELEMENT(#571,1.);
#570=DERIVED_UNIT_ELEMENT(#1358,-3.);
#571=(
MASS_UNIT()
NAMED_UNIT(*)
SI_UNIT(.KILO.,.GRAM.)
);
#572=DERIVED_UNIT((#569,#570));
#573=MEASURE_REPRESENTATION_ITEM('density measure',
POSITIVE_RATIO_MEASURE(7850.),#572);
#574=PROPERTY_DEFINITION_REPRESENTATION(#579,#576);
#575=PROPERTY_DEFINITION_REPRESENTATION(#580,#577);
#576=REPRESENTATION('material name',(#578),#1355);
#577=REPRESENTATION('density',(#573),#1355);
#578=DESCRIPTIVE_REPRESENTATION_ITEM('Steel','Steel');
#579=PROPERTY_DEFINITION('material property','material name',#1365);
#580=PROPERTY_DEFINITION('material property','density of part',#1365);
#581=AXIS2_PLACEMENT_3D('',#764,#629,#630);
#582=AXIS2_PLACEMENT_3D('',#765,#631,#632);
#583=AXIS2_PLACEMENT_3D('',#768,#633,#634);
#584=AXIS2_PLACEMENT_3D('',#772,#636,#637);
#585=AXIS2_PLACEMENT_3D('',#774,#639,#640);
#586=AXIS2_PLACEMENT_3D('',#778,#642,#643);
#587=AXIS2_PLACEMENT_3D('',#784,#646,#647);
#588=AXIS2_PLACEMENT_3D('',#786,#648,#649);
#589=AXIS2_PLACEMENT_3D('',#809,#653,#654);
#590=AXIS2_PLACEMENT_3D('',#825,#655,#656);
#591=AXIS2_PLACEMENT_3D('',#843,#657,#658);
#592=AXIS2_PLACEMENT_3D('',#859,#659,#660);
#593=AXIS2_PLACEMENT_3D('',#877,#661,#662);
#594=AXIS2_PLACEMENT_3D('',#893,#663,#664);
#595=AXIS2_PLACEMENT_3D('',#911,#665,#666);
#596=AXIS2_PLACEMENT_3D('',#927,#667,#668);
#597=AXIS2_PLACEMENT_3D('',#929,#669,#670);
#598=AXIS2_PLACEMENT_3D('',#930,#671,#672);
#599=AXIS2_PLACEMENT_3D('',#934,#675,#676);
#600=AXIS2_PLACEMENT_3D('',#936,#677,#678);
#601=AXIS2_PLACEMENT_3D('',#938,#680,#681);
#602=AXIS2_PLACEMENT_3D('',#942,#684,#685);
#603=AXIS2_PLACEMENT_3D('',#950,#689,#690);
#604=AXIS2_PLACEMENT_3D('',#952,#692,#693);
#605=AXIS2_PLACEMENT_3D('',#954,#695,#696);
#606=AXIS2_PLACEMENT_3D('',#956,#697,#698);
#607=AXIS2_PLACEMENT_3D('',#958,#699,#700);
#608=AXIS2_PLACEMENT_3D('',#976,#701,#702);
#609=AXIS2_PLACEMENT_3D('',#992,#703,#704);
#610=AXIS2_PLACEMENT_3D('',#1010,#705,#706);
#611=AXIS2_PLACEMENT_3D('',#1026,#707,#708);
#612=AXIS2_PLACEMENT_3D('',#1044,#709,#710);
#613=AXIS2_PLACEMENT_3D('',#1060,#711,#712);
#614=AXIS2_PLACEMENT_3D('',#1078,#713,#714);
#615=AXIS2_PLACEMENT_3D('',#1094,#715,#716);
#616=AXIS2_PLACEMENT_3D('',#1095,#717,#718);
#617=AXIS2_PLACEMENT_3D('',#1099,#722,#723);
#618=AXIS2_PLACEMENT_3D('',#1131,#727,#728);
#619=AXIS2_PLACEMENT_3D('',#1162,#731,#732);
#620=AXIS2_PLACEMENT_3D('',#1193,#735,#736);
#621=AXIS2_PLACEMENT_3D('',#1224,#739,#740);
#622=AXIS2_PLACEMENT_3D('',#1255,#743,#744);
#623=AXIS2_PLACEMENT_3D('',#1286,#747,#748);
#624=AXIS2_PLACEMENT_3D('',#1317,#751,#752);
#625=AXIS2_PLACEMENT_3D('',#1348,#755,#756);
#626=AXIS2_PLACEMENT_3D('',#1349,#757,#758);
#627=AXIS2_PLACEMENT_3D('',#1350,#759,#760);
#628=AXIS2_PLACEMENT_3D('',#1352,#762,#763);
#629=DIRECTION('axis',(0.,0.,1.));
#630=DIRECTION('refdir',(1.,0.,0.));
#631=DIRECTION('center_axis',(0.,0.,1.));
#632=DIRECTION('ref_axis',(-0.62843067166151,-0.777865599519006,0.));
#633=DIRECTION('center_axis',(0.,0.,-1.));
#634=DIRECTION('ref_axis',(-0.62843067166151,-0.777865599519006,0.));
#635=DIRECTION('',(0.,0.,-1.));
#636=DIRECTION('center_axis',(0.,0.,1.));
#637=DIRECTION('ref_axis',(-0.62843067166151,-0.777865599519006,0.));
#638=DIRECTION('',(0.,0.,1.));
#639=DIRECTION('center_axis',(0.,0.,1.));
#640=DIRECTION('ref_axis',(1.,0.,0.));
#641=DIRECTION('',(1.,0.,0.));
#642=DIRECTION('center_axis',(0.,0.,-1.));
#643=DIRECTION('ref_axis',(0.625394274130394,-0.780308914395393,0.));
#644=DIRECTION('',(0.217764003769836,0.976001454231566,0.));
#645=DIRECTION('',(0.198650920115622,0.980070309690696,0.));
#646=DIRECTION('center_axis',(0.,0.,1.));
#647=DIRECTION('ref_axis',(1.,0.,0.));
#648=DIRECTION('center_axis',(0.,0.,1.));
#649=DIRECTION('ref_axis',(1.,0.,0.));
#650=DIRECTION('',(0.286940327637593,-0.957948458099511,0.));
#651=DIRECTION('',(1.,0.,0.));
#652=DIRECTION('',(0.210149781830127,-0.977669202336225,0.));
#653=DIRECTION('center_axis',(0.,0.,-1.));
#654=DIRECTION('ref_axis',(-1.,7.19522375000103E-15,0.));
#655=DIRECTION('center_axis',(0.,0.,-1.));
#656=DIRECTION('ref_axis',(-1.,0.,0.));
#657=DIRECTION('center_axis',(0.,0.,-1.));
#658=DIRECTION('ref_axis',(-1.,7.91474612500112E-15,0.));
#659=DIRECTION('center_axis',(0.,0.,-1.));
#660=DIRECTION('ref_axis',(-1.,0.,0.));
#661=DIRECTION('center_axis',(0.,0.,-1.));
#662=DIRECTION('ref_axis',(-1.,7.19522375000101E-15,0.));
#663=DIRECTION('center_axis',(0.,0.,-1.));
#664=DIRECTION('ref_axis',(-1.,0.,0.));
#665=DIRECTION('center_axis',(0.,0.,-1.));
#666=DIRECTION('ref_axis',(-1.,7.91474612500111E-15,0.));
#667=DIRECTION('center_axis',(0.,0.,-1.));
#668=DIRECTION('ref_axis',(-1.,0.,0.));
#669=DIRECTION('center_axis',(0.,0.,-1.));
#670=DIRECTION('ref_axis',(-1.,0.,0.));
#671=DIRECTION('center_axis',(0.,-1.,0.));
#672=DIRECTION('ref_axis',(-1.,0.,0.));
#673=DIRECTION('',(-1.,0.,0.));
#674=DIRECTION('',(0.,0.,-1.));
#675=DIRECTION('center_axis',(0.,0.,-1.));
#676=DIRECTION('ref_axis',(0.625394274130394,-0.780308914395393,0.));
#677=DIRECTION('center_axis',(0.,0.,1.));
#678=DIRECTION('ref_axis',(0.625394274130394,-0.780308914395393,0.));
#679=DIRECTION('',(0.,0.,1.));
#680=DIRECTION('center_axis',(0.976001454231566,-0.217764003769836,0.));
#681=DIRECTION('ref_axis',(-0.217764003769836,-0.976001454231566,0.));
#682=DIRECTION('',(-0.217764003769836,-0.976001454231566,0.));
#683=DIRECTION('',(0.,0.,1.));
#684=DIRECTION('center_axis',(0.,0.,1.));
#685=DIRECTION('ref_axis',(-1.,0.,0.));
#686=DIRECTION('',(-0.210149781830127,0.977669202336225,0.));
#687=DIRECTION('',(-1.,0.,3.39907768361722E-33));
#688=DIRECTION('',(-0.286940327637593,0.957948458099511,0.));
#689=DIRECTION('center_axis',(0.,0.,-1.));
#690=DIRECTION('ref_axis',(1.,0.,0.));
#691=DIRECTION('',(-0.198650920115622,-0.980070309690696,6.7522990939504E-34));
#692=DIRECTION('center_axis',(-0.977669202336225,-0.210149781830127,0.));
#693=DIRECTION('ref_axis',(-0.210149781830127,0.977669202336225,0.));
#694=DIRECTION('',(0.,0.,1.));
#695=DIRECTION('center_axis',(0.,0.,1.));
#696=DIRECTION('ref_axis',(1.,0.,0.));
#697=DIRECTION('center_axis',(0.,0.,1.));
#698=DIRECTION('ref_axis',(1.,0.,0.));
#699=DIRECTION('center_axis',(0.,0.,-1.));
#700=DIRECTION('ref_axis',(-1.,0.,0.));
#701=DIRECTION('center_axis',(0.,0.,-1.));
#702=DIRECTION('ref_axis',(-1.,0.,0.));
#703=DIRECTION('center_axis',(0.,0.,-1.));
#704=DIRECTION('ref_axis',(-1.,7.91474612500111E-15,0.));
#705=DIRECTION('center_axis',(0.,0.,-1.));
#706=DIRECTION('ref_axis',(-1.,0.,0.));
#707=DIRECTION('center_axis',(0.,0.,-1.));
#708=DIRECTION('ref_axis',(-1.,7.19522375000101E-15,0.));
#709=DIRECTION('center_axis',(0.,0.,-1.));
#710=DIRECTION('ref_axis',(-1.,0.,0.));
#711=DIRECTION('center_axis',(0.,0.,-1.));
#712=DIRECTION('ref_axis',(-1.,7.91474612500112E-15,0.));
#713=DIRECTION('center_axis',(0.,0.,-1.));
#714=DIRECTION('ref_axis',(-1.,0.,0.));
#715=DIRECTION('center_axis',(0.,0.,-1.));
#716=DIRECTION('ref_axis',(-1.,7.19522375000103E-15,0.));
#717=DIRECTION('center_axis',(0.,0.,1.));
#718=DIRECTION('ref_axis',(1.,0.,0.));
#719=DIRECTION('',(0.,0.,1.));
#720=DIRECTION('',(0.,0.,-1.));
#721=DIRECTION('',(0.,0.,-1.));
#722=DIRECTION('center_axis',(0.,0.,1.));
#723=DIRECTION('ref_axis',(-1.,0.,0.));
#724=DIRECTION('',(0.,0.,-1.));
#725=DIRECTION('',(0.,0.,1.));
#726=DIRECTION('',(0.,0.,1.));
#727=DIRECTION('center_axis',(0.,0.,1.));
#728=DIRECTION('ref_axis',(-1.,7.91474612500111E-15,0.));
#729=DIRECTION('',(0.,0.,1.));
#730=DIRECTION('',(0.,0.,1.));
#731=DIRECTION('center_axis',(0.,0.,1.));
#732=DIRECTION('ref_axis',(-1.,0.,0.));
#733=DIRECTION('',(0.,0.,1.));
#734=DIRECTION('',(0.,0.,1.));
#735=DIRECTION('center_axis',(0.,0.,1.));
#736=DIRECTION('ref_axis',(-1.,7.19522375000101E-15,0.));
#737=DIRECTION('',(0.,0.,1.));
#738=DIRECTION('',(0.,0.,1.));
#739=DIRECTION('center_axis',(0.,0.,1.));
#740=DIRECTION('ref_axis',(-1.,0.,0.));
#741=DIRECTION('',(0.,0.,1.));
#742=DIRECTION('',(0.,0.,1.));
#743=DIRECTION('center_axis',(0.,0.,1.));
#744=DIRECTION('ref_axis',(-1.,7.91474612500112E-15,0.));
#745=DIRECTION('',(0.,0.,1.));
#746=DIRECTION('',(0.,0.,1.));
#747=DIRECTION('center_axis',(0.,0.,1.));
#748=DIRECTION('ref_axis',(-1.,0.,0.));
#749=DIRECTION('',(0.,0.,1.));
#750=DIRECTION('',(0.,0.,1.));
#751=DIRECTION('center_axis',(0.,0.,1.));
#752=DIRECTION('ref_axis',(-1.,7.19522375000103E-15,0.));
#753=DIRECTION('',(0.,0.,1.));
#754=DIRECTION('',(0.,0.,1.));
#755=DIRECTION('center_axis',(0.,0.,1.));
#756=DIRECTION('ref_axis',(-1.,0.,0.));
#757=DIRECTION('center_axis',(0.980070309690696,-0.198650920115622,0.));
#758=DIRECTION('ref_axis',(-0.198650920115622,-0.980070309690696,0.));
#759=DIRECTION('center_axis',(0.,-1.,0.));
#760=DIRECTION('ref_axis',(-1.,0.,0.));
#761=DIRECTION('',(0.,0.,1.));
#762=DIRECTION('center_axis',(-0.957948458099511,-0.286940327637593,0.));
#763=DIRECTION('ref_axis',(-0.286940327637593,0.957948458099511,0.));
#764=CARTESIAN_POINT('',(0.,0.,0.));
#765=CARTESIAN_POINT('Origin',(30.7426340139883,-26.5021954895074,24.9));
#766=CARTESIAN_POINT('',(30.7426340139883,-29.0021954895074,25.7));
#767=CARTESIAN_POINT('',(28.2984610081478,-27.0275699440827,25.7));
#768=CARTESIAN_POINT('Origin',(30.7426340139883,-26.5021954895074,25.7));
#769=CARTESIAN_POINT('',(28.2984610081478,-27.0275699440827,19.7));
#770=CARTESIAN_POINT('',(28.2984610081478,-27.0275699440827,24.9));
#771=CARTESIAN_POINT('',(30.7426340139883,-29.0021954895074,19.7));
#772=CARTESIAN_POINT('Origin',(30.7426340139883,-26.5021954895074,19.7));
#773=CARTESIAN_POINT('',(30.7426340139883,-29.0021954895074,24.9));
#774=CARTESIAN_POINT('Origin',(17.5,0.,25.7));
#775=CARTESIAN_POINT('',(32.0343845159054,-29.0021954895074,25.7));
#776=CARTESIAN_POINT('',(25.7690298997394,-29.0021954895074,25.7));
#777=CARTESIAN_POINT('',(34.4743881514844,-27.046605498932,25.7));
#778=CARTESIAN_POINT('Origin',(32.0343845159054,-26.5021954895074,25.7));
#779=CARTESIAN_POINT('',(34.9497474683057,-24.9160817371143,25.7));
#780=CARTESIAN_POINT('',(31.330926736658,-41.1353568953016,25.7));
#781=CARTESIAN_POINT('',(39.2107562387445,-3.89383737596044,25.7));
#782=CARTESIAN_POINT('',(40.,0.,25.7));
#783=CARTESIAN_POINT('',(20.,-1.54615487913428E-15,25.7));
#784=CARTESIAN_POINT('Origin',(30.,-3.21508079986924E-16,25.7));
#785=CARTESIAN_POINT('',(21.6466950324952,-5.49748088853956,25.7));
#786=CARTESIAN_POINT('Origin',(30.,-3.21508079986924E-16,25.7));
#787=CARTESIAN_POINT('',(27.4632706975451,-24.9160817371143,25.7));
#788=CARTESIAN_POINT('',(20.,0.,25.7));
#789=CARTESIAN_POINT('',(27.8445970785375,-24.9160817371143,25.7));
#790=CARTESIAN_POINT('',(27.4632706975451,-24.9160817371143,25.7));
#791=CARTESIAN_POINT('',(27.8445970785375,-24.9160817371143,25.7));
#792=CARTESIAN_POINT('',(33.9916313155834,4.1245361693694,25.7));
#793=CARTESIAN_POINT('',(34.5512336264487,6.44039689652437,25.7));
#794=CARTESIAN_POINT('Ctrl Pts',(33.9916313155834,4.1245361693694,25.7));
#795=CARTESIAN_POINT('Ctrl Pts',(33.8695507328369,4.23854320915289,25.7));
#796=CARTESIAN_POINT('Ctrl Pts',(33.7713834880626,4.3757141852609,25.7));
#797=CARTESIAN_POINT('Ctrl Pts',(33.629051499713,4.68578062974749,25.7));
#798=CARTESIAN_POINT('Ctrl Pts',(33.5886449215295,4.85676690984965,25.7));
#799=CARTESIAN_POINT('Ctrl Pts',(33.5740604246613,5.21154855500038,25.7));
#800=CARTESIAN_POINT('Ctrl Pts',(33.6026418467065,5.3920145932909,25.7));
#801=CARTESIAN_POINT('Ctrl Pts',(33.7285416815076,5.73886603445627,25.7));
#802=CARTESIAN_POINT('Ctrl Pts',(33.8271038543156,5.90099514135539,25.7));
#803=CARTESIAN_POINT('Ctrl Pts',(34.0341627291057,6.12891286975606,25.7));
#804=CARTESIAN_POINT('Ctrl Pts',(34.1253176300696,6.20745847507174,25.7));
#805=CARTESIAN_POINT('Ctrl Pts',(34.3265033137782,6.34268183940279,25.7));
#806=CARTESIAN_POINT('Ctrl Pts',(34.4361473556575,6.3983448468594,25.7));
#807=CARTESIAN_POINT('Ctrl Pts',(34.5512336264487,6.44039689652438,25.7));
#808=CARTESIAN_POINT('',(35.3482613101631,6.44039689652432,25.7));
#809=CARTESIAN_POINT('Origin',(34.9497474683058,4.94974746830583,25.7));
#810=CARTESIAN_POINT('',(35.9078636210281,4.12453616936928,25.7));
#811=CARTESIAN_POINT('Ctrl Pts',(35.3482613101631,6.44039689652432,25.7));
#812=CARTESIAN_POINT('Ctrl Pts',(35.5331038658953,6.37285618745093,25.7));
#813=CARTESIAN_POINT('Ctrl Pts',(35.7032276326423,6.27045270708362,25.7));
#814=CARTESIAN_POINT('Ctrl Pts',(35.9886741835532,6.00989247214584,25.7));
#815=CARTESIAN_POINT('Ctrl Pts',(36.1029934371167,5.85620242367142,25.7));
#816=CARTESIAN_POINT('Ctrl Pts',(36.2621619554881,5.51933795421528,25.7));
#817=CARTESIAN_POINT('Ctrl Pts',(36.3078363910384,5.34055335132055,25.7));
#818=CARTESIAN_POINT('Ctrl Pts',(36.3264266506421,4.9823654117558,25.7));
#819=CARTESIAN_POINT('Ctrl Pts',(36.301778954093,4.80657359829115,25.7));
#820=CARTESIAN_POINT('Ctrl Pts',(36.2087280313969,4.54159718582691,25.7));
#821=CARTESIAN_POINT('Ctrl Pts',(36.1622397825164,4.44697373769774,25.7));
#822=CARTESIAN_POINT('Ctrl Pts',(36.0487764367713,4.27325468343798,25.7));
#823=CARTESIAN_POINT('Ctrl Pts',(35.9827298177529,4.19445124739737,25.7));
#824=CARTESIAN_POINT('Ctrl Pts',(35.9078636210281,4.12453616936927,25.7));
#825=CARTESIAN_POINT('Origin',(34.9497474683058,4.94974746830583,25.7));
#826=CARTESIAN_POINT('',(24.0921363789718,-5.77495876724228,25.7));
#827=CARTESIAN_POINT('',(24.651738689837,-3.4590980400873,25.7));
#828=CARTESIAN_POINT('Ctrl Pts',(24.0921363789718,-5.77495876724229,25.7));
#829=CARTESIAN_POINT('Ctrl Pts',(23.9700557962253,-5.6609517274588,25.7));
#830=CARTESIAN_POINT('Ctrl Pts',(23.871888551451,-5.52378075135079,25.7));
#831=CARTESIAN_POINT('Ctrl Pts',(23.7295565631014,-5.21371430686421,25.7));
#832=CARTESIAN_POINT('Ctrl Pts',(23.6891499849179,-5.04272802676206,25.7));
#833=CARTESIAN_POINT('Ctrl Pts',(23.6745654880497,-4.68794638161132,25.7));
#834=CARTESIAN_POINT('Ctrl Pts',(23.7031469100948,-4.5074803433208,25.7));
#835=CARTESIAN_POINT('Ctrl Pts',(23.829046744896,-4.16062890215543,25.7));
#836=CARTESIAN_POINT('Ctrl Pts',(23.9276089177039,-3.9984997952563,25.7));
#837=CARTESIAN_POINT('Ctrl Pts',(24.134667792494,-3.77058206685563,25.7));
#838=CARTESIAN_POINT('Ctrl Pts',(24.225822693458,-3.69203646153994,25.7));
#839=CARTESIAN_POINT('Ctrl Pts',(24.4270083771665,-3.55681309720889,25.7));
#840=CARTESIAN_POINT('Ctrl Pts',(24.5366524190458,-3.50115008975227,25.7));
#841=CARTESIAN_POINT('Ctrl Pts',(24.651738689837,-3.45909804008729,25.7));
#842=CARTESIAN_POINT('',(25.4487663735515,-3.45909804008734,25.7));
#843=CARTESIAN_POINT('Origin',(25.0502525316942,-4.94974746830583,25.7));
#844=CARTESIAN_POINT('',(26.0083686844165,-5.77495876724239,25.7));
#845=CARTESIAN_POINT('Ctrl Pts',(25.4487663735515,-3.45909804008734,25.7));
#846=CARTESIAN_POINT('Ctrl Pts',(25.6336089292836,-3.52663874916073,25.7));
#847=CARTESIAN_POINT('Ctrl Pts',(25.8037326960307,-3.62904222952804,25.7));
#848=CARTESIAN_POINT('Ctrl Pts',(26.0891792469415,-3.88960246446582,25.7));
#849=CARTESIAN_POINT('Ctrl Pts',(26.203498500505,-4.04329251294024,25.7));
#850=CARTESIAN_POINT('Ctrl Pts',(26.3626670188765,-4.38015698239639,25.7));
#851=CARTESIAN_POINT('Ctrl Pts',(26.4083414544267,-4.55894158529112,25.7));
#852=CARTESIAN_POINT('Ctrl Pts',(26.4269317140305,-4.91712952485584,25.7));
#853=CARTESIAN_POINT('Ctrl Pts',(26.4022840174814,-5.09292133832051,25.7));
#854=CARTESIAN_POINT('Ctrl Pts',(26.3092330947852,-5.35789775078477,25.7));
#855=CARTESIAN_POINT('Ctrl Pts',(26.2627448459048,-5.45252119891392,25.7));
#856=CARTESIAN_POINT('Ctrl Pts',(26.1492815001597,-5.62624025317369,25.7));
#857=CARTESIAN_POINT('Ctrl Pts',(26.0832348811412,-5.70504368921429,25.7));
#858=CARTESIAN_POINT('Ctrl Pts',(26.0083686844165,-5.77495876724239,25.7));
#859=CARTESIAN_POINT('Origin',(25.0502525316942,-4.94974746830583,25.7));
#860=CARTESIAN_POINT('',(33.9916313155834,-5.77495876724229,25.7));
#861=CARTESIAN_POINT('',(34.5512336264486,-3.4590980400873,25.7));
#862=CARTESIAN_POINT('Ctrl Pts',(33.9916313155834,-5.77495876724229,25.7));
#863=CARTESIAN_POINT('Ctrl Pts',(33.8695507328369,-5.6609517274588,25.7));
#864=CARTESIAN_POINT('Ctrl Pts',(33.7713834880626,-5.5237807513508,25.7));
#865=CARTESIAN_POINT('Ctrl Pts',(33.629051499713,-5.2137143068642,25.7));
#866=CARTESIAN_POINT('Ctrl Pts',(33.5886449215295,-5.04272802676205,25.7));
#867=CARTESIAN_POINT('Ctrl Pts',(33.5740604246613,-4.68794638161132,25.7));
#868=CARTESIAN_POINT('Ctrl Pts',(33.6026418467065,-4.50748034332079,25.7));
#869=CARTESIAN_POINT('Ctrl Pts',(33.7285416815076,-4.16062890215542,25.7));
#870=CARTESIAN_POINT('Ctrl Pts',(33.8271038543155,-3.9984997952563,25.7));
#871=CARTESIAN_POINT('Ctrl Pts',(34.0341627291057,-3.77058206685563,25.7));
#872=CARTESIAN_POINT('Ctrl Pts',(34.1253176300696,-3.69203646153994,25.7));
#873=CARTESIAN_POINT('Ctrl Pts',(34.3265033137781,-3.55681309720889,25.7));
#874=CARTESIAN_POINT('Ctrl Pts',(34.4361473556574,-3.50115008975227,25.7));
#875=CARTESIAN_POINT('Ctrl Pts',(34.5512336264487,-3.45909804008729,25.7));
#876=CARTESIAN_POINT('',(35.3482613101631,-3.45909804008734,25.7));
#877=CARTESIAN_POINT('Origin',(34.9497474683058,-4.94974746830583,25.7));
#878=CARTESIAN_POINT('',(35.9078636210281,-5.77495876724239,25.7));
#879=CARTESIAN_POINT('Ctrl Pts',(35.3482613101631,-3.45909804008734,25.7));
#880=CARTESIAN_POINT('Ctrl Pts',(35.5331038658953,-3.52663874916072,25.7));
#881=CARTESIAN_POINT('Ctrl Pts',(35.7032276326423,-3.62904222952803,25.7));
#882=CARTESIAN_POINT('Ctrl Pts',(35.9886741835532,-3.88960246446582,25.7));
#883=CARTESIAN_POINT('Ctrl Pts',(36.1029934371167,-4.04329251294024,25.7));
#884=CARTESIAN_POINT('Ctrl Pts',(36.2621619554882,-4.38015698239639,25.7));
#885=CARTESIAN_POINT('Ctrl Pts',(36.3078363910384,-4.55894158529112,25.7));
#886=CARTESIAN_POINT('Ctrl Pts',(36.3264266506421,-4.91712952485584,25.7));
#887=CARTESIAN_POINT('Ctrl Pts',(36.301778954093,-5.09292133832051,25.7));
#888=CARTESIAN_POINT('Ctrl Pts',(36.2087280313969,-5.35789775078477,25.7));
#889=CARTESIAN_POINT('Ctrl Pts',(36.1622397825164,-5.45252119891392,25.7));
#890=CARTESIAN_POINT('Ctrl Pts',(36.0487764367713,-5.62624025317368,25.7));
#891=CARTESIAN_POINT('Ctrl Pts',(35.9827298177529,-5.70504368921429,25.7));
#892=CARTESIAN_POINT('Ctrl Pts',(35.9078636210281,-5.77495876724239,25.7));
#893=CARTESIAN_POINT('Origin',(34.9497474683058,-4.94974746830583,25.7));
#894=CARTESIAN_POINT('',(24.0921363789717,4.1245361693694,25.7));
#895=CARTESIAN_POINT('',(24.651738689837,6.44039689652438,25.7));
#896=CARTESIAN_POINT('Ctrl Pts',(24.0921363789717,4.1245361693694,25.7));
#897=CARTESIAN_POINT('Ctrl Pts',(23.9700557962253,4.23854320915289,25.7));
#898=CARTESIAN_POINT('Ctrl Pts',(23.871888551451,4.3757141852609,25.7));
#899=CARTESIAN_POINT('Ctrl Pts',(23.7295565631014,4.6857806297475,25.7));
#900=CARTESIAN_POINT('Ctrl Pts',(23.6891499849179,4.85676690984965,25.7));
#901=CARTESIAN_POINT('Ctrl Pts',(23.6745654880497,5.21154855500038,25.7));
#902=CARTESIAN_POINT('Ctrl Pts',(23.7031469100948,5.39201459329089,25.7));
#903=CARTESIAN_POINT('Ctrl Pts',(23.829046744896,5.73886603445627,25.7));
#904=CARTESIAN_POINT('Ctrl Pts',(23.9276089177039,5.90099514135539,25.7));
#905=CARTESIAN_POINT('Ctrl Pts',(24.1346677924941,6.12891286975607,25.7));
#906=CARTESIAN_POINT('Ctrl Pts',(24.225822693458,6.20745847507175,25.7));
#907=CARTESIAN_POINT('Ctrl Pts',(24.4270083771666,6.34268183940279,25.7));
#908=CARTESIAN_POINT('Ctrl Pts',(24.5366524190458,6.39834484685941,25.7));
#909=CARTESIAN_POINT('Ctrl Pts',(24.6517386898371,6.44039689652438,25.7));
#910=CARTESIAN_POINT('',(25.4487663735515,6.44039689652432,25.7));
#911=CARTESIAN_POINT('Origin',(25.0502525316942,4.94974746830583,25.7));
#912=CARTESIAN_POINT('',(26.0083686844165,4.12453616936927,25.7));
#913=CARTESIAN_POINT('Ctrl Pts',(25.4487663735515,6.44039689652432,25.7));
#914=CARTESIAN_POINT('Ctrl Pts',(25.6336089292836,6.37285618745093,25.7));
#915=CARTESIAN_POINT('Ctrl Pts',(25.8037326960307,6.27045270708362,25.7));
#916=CARTESIAN_POINT('Ctrl Pts',(26.0891792469415,6.00989247214584,25.7));
#917=CARTESIAN_POINT('Ctrl Pts',(26.203498500505,5.85620242367142,25.7));
#918=CARTESIAN_POINT('Ctrl Pts',(26.3626670188765,5.51933795421527,25.7));
#919=CARTESIAN_POINT('Ctrl Pts',(26.4083414544267,5.34055335132054,25.7));
#920=CARTESIAN_POINT('Ctrl Pts',(26.4269317140305,4.98236541175582,25.7));
#921=CARTESIAN_POINT('Ctrl Pts',(26.4022840174814,4.80657359829115,25.7));
#922=CARTESIAN_POINT('Ctrl Pts',(26.3092330947852,4.54159718582689,25.7));
#923=CARTESIAN_POINT('Ctrl Pts',(26.2627448459048,4.44697373769774,25.7));
#924=CARTESIAN_POINT('Ctrl Pts',(26.1492815001597,4.27325468343798,25.7));
#925=CARTESIAN_POINT('Ctrl Pts',(26.0832348811412,4.19445124739737,25.7));
#926=CARTESIAN_POINT('Ctrl Pts',(26.0083686844165,4.12453616936926,25.7));
#927=CARTESIAN_POINT('Origin',(25.0502525316942,4.94974746830583,25.7));
#928=CARTESIAN_POINT('',(31.55,3.04946040513473E-13,25.7));
#929=CARTESIAN_POINT('Origin',(30.,3.04756220259605E-13,25.7));
#930=CARTESIAN_POINT('Origin',(37.6040915768861,-29.0021954895074,24.1));
#931=CARTESIAN_POINT('',(32.0343845159054,-29.0021954895074,19.7));
#932=CARTESIAN_POINT('',(34.016408606253,-29.0021954895074,19.7));
#933=CARTESIAN_POINT('',(32.0343845159054,-29.0021954895074,24.9));
#934=CARTESIAN_POINT('Origin',(32.0343845159054,-26.5021954895074,24.9));
#935=CARTESIAN_POINT('',(34.4743881514844,-27.046605498932,19.7));
#936=CARTESIAN_POINT('Origin',(32.0343845159054,-26.5021954895074,19.7));
#937=CARTESIAN_POINT('',(34.4743881514844,-27.046605498932,24.9));
#938=CARTESIAN_POINT('Origin',(34.9497474683057,-24.9160817371143,25.7));
#939=CARTESIAN_POINT('',(34.9497474683057,-24.9160817371143,19.7));
#940=CARTESIAN_POINT('',(31.330926736658,-41.1353568953016,19.7));
#941=CARTESIAN_POINT('',(34.9497474683057,-24.9160817371143,23.7));
#942=CARTESIAN_POINT('Origin',(30.4287256356199,-15.5893066924101,19.7));
#943=CARTESIAN_POINT('',(27.8445970785375,-24.9160817371143,19.7));
#944=CARTESIAN_POINT('',(27.8445970785375,-24.9160817371143,19.7));
#945=CARTESIAN_POINT('',(27.4632706975451,-24.9160817371143,19.7));
#946=CARTESIAN_POINT('',(24.1085530406115,-24.9160817371143,19.7));
#947=CARTESIAN_POINT('',(21.6466950324952,-5.49748088853956,19.7));
#948=CARTESIAN_POINT('',(20.,0.,19.7));
#949=CARTESIAN_POINT('',(39.2107562387445,-3.89383737596044,19.7));
#950=CARTESIAN_POINT('Origin',(30.,-3.21508079986924E-16,19.7));
#951=CARTESIAN_POINT('',(36.4922063637535,-17.3061589314872,19.7));
#952=CARTESIAN_POINT('Origin',(31.330926736658,-41.1353568953016,25.7));
#953=CARTESIAN_POINT('',(27.8445970785375,-24.9160817371143,23.7));
#954=CARTESIAN_POINT('Origin',(17.5,0.,18.7));
#955=CARTESIAN_POINT('',(20.,-1.54615487913428E-15,18.7));
#956=CARTESIAN_POINT('Origin',(30.,-3.21508079986924E-16,18.7));
#957=CARTESIAN_POINT('',(31.55,3.04946040513473E-13,18.7));
#958=CARTESIAN_POINT('Origin',(30.,3.04756220259605E-13,18.7));
#959=CARTESIAN_POINT('',(24.0921363789717,4.1245361693694,18.7));
#960=CARTESIAN_POINT('',(24.651738689837,6.44039689652438,18.7));
#961=CARTESIAN_POINT('Ctrl Pts',(24.0921363789717,4.1245361693694,18.7));
#962=CARTESIAN_POINT('Ctrl Pts',(23.9700557962253,4.23854320915289,18.7));
#963=CARTESIAN_POINT('Ctrl Pts',(23.871888551451,4.3757141852609,18.7));
#964=CARTESIAN_POINT('Ctrl Pts',(23.7295565631014,4.6857806297475,18.7));
#965=CARTESIAN_POINT('Ctrl Pts',(23.6891499849179,4.85676690984965,18.7));
#966=CARTESIAN_POINT('Ctrl Pts',(23.6745654880497,5.21154855500038,18.7));
#967=CARTESIAN_POINT('Ctrl Pts',(23.7031469100948,5.39201459329089,18.7));
#968=CARTESIAN_POINT('Ctrl Pts',(23.829046744896,5.73886603445627,18.7));
#969=CARTESIAN_POINT('Ctrl Pts',(23.9276089177039,5.90099514135539,18.7));
#970=CARTESIAN_POINT('Ctrl Pts',(24.1346677924941,6.12891286975607,18.7));
#971=CARTESIAN_POINT('Ctrl Pts',(24.225822693458,6.20745847507175,18.7));
#972=CARTESIAN_POINT('Ctrl Pts',(24.4270083771665,6.34268183940279,18.7));
#973=CARTESIAN_POINT('Ctrl Pts',(24.5366524190458,6.39834484685941,18.7));
#974=CARTESIAN_POINT('Ctrl Pts',(24.6517386898371,6.44039689652438,18.7));
#975=CARTESIAN_POINT('',(26.0083686844165,4.12453616936927,18.7));
#976=CARTESIAN_POINT('Origin',(25.0502525316942,4.94974746830583,18.7));
#977=CARTESIAN_POINT('',(25.4487663735515,6.44039689652432,18.7));
#978=CARTESIAN_POINT('Ctrl Pts',(25.4487663735515,6.44039689652432,18.7));
#979=CARTESIAN_POINT('Ctrl Pts',(25.6336089292836,6.37285618745093,18.7));
#980=CARTESIAN_POINT('Ctrl Pts',(25.8037326960307,6.27045270708362,18.7));
#981=CARTESIAN_POINT('Ctrl Pts',(26.0891792469415,6.00989247214584,18.7));
#982=CARTESIAN_POINT('Ctrl Pts',(26.203498500505,5.85620242367142,18.7));
#983=CARTESIAN_POINT('Ctrl Pts',(26.3626670188765,5.51933795421527,18.7));
#984=CARTESIAN_POINT('Ctrl Pts',(26.4083414544267,5.34055335132054,18.7));
#985=CARTESIAN_POINT('Ctrl Pts',(26.4269317140305,4.98236541175582,18.7));
#986=CARTESIAN_POINT('Ctrl Pts',(26.4022840174814,4.80657359829116,18.7));
#987=CARTESIAN_POINT('Ctrl Pts',(26.3092330947852,4.54159718582689,18.7));
#988=CARTESIAN_POINT('Ctrl Pts',(26.2627448459048,4.44697373769774,18.7));
#989=CARTESIAN_POINT('Ctrl Pts',(26.1492815001597,4.27325468343798,18.7));
#990=CARTESIAN_POINT('Ctrl Pts',(26.0832348811412,4.19445124739737,18.7));
#991=CARTESIAN_POINT('Ctrl Pts',(26.0083686844165,4.12453616936926,18.7));
#992=CARTESIAN_POINT('Origin',(25.0502525316942,4.94974746830583,18.7));
#993=CARTESIAN_POINT('',(33.9916313155834,-5.77495876724229,18.7));
#994=CARTESIAN_POINT('',(34.5512336264486,-3.4590980400873,18.7));
#995=CARTESIAN_POINT('Ctrl Pts',(33.9916313155834,-5.77495876724229,18.7));
#996=CARTESIAN_POINT('Ctrl Pts',(33.8695507328369,-5.6609517274588,18.7));
#997=CARTESIAN_POINT('Ctrl Pts',(33.7713834880626,-5.5237807513508,18.7));
#998=CARTESIAN_POINT('Ctrl Pts',(33.629051499713,-5.2137143068642,18.7));
#999=CARTESIAN_POINT('Ctrl Pts',(33.5886449215295,-5.04272802676205,18.7));
#1000=CARTESIAN_POINT('Ctrl Pts',(33.5740604246613,-4.68794638161132,18.7));
#1001=CARTESIAN_POINT('Ctrl Pts',(33.6026418467065,-4.50748034332079,18.7));
#1002=CARTESIAN_POINT('Ctrl Pts',(33.7285416815076,-4.16062890215542,18.7));
#1003=CARTESIAN_POINT('Ctrl Pts',(33.8271038543155,-3.9984997952563,18.7));
#1004=CARTESIAN_POINT('Ctrl Pts',(34.0341627291057,-3.77058206685563,18.7));
#1005=CARTESIAN_POINT('Ctrl Pts',(34.1253176300696,-3.69203646153994,18.7));
#1006=CARTESIAN_POINT('Ctrl Pts',(34.3265033137781,-3.55681309720889,18.7));
#1007=CARTESIAN_POINT('Ctrl Pts',(34.4361473556574,-3.50115008975227,18.7));
#1008=CARTESIAN_POINT('Ctrl Pts',(34.5512336264486,-3.45909804008729,18.7));
#1009=CARTESIAN_POINT('',(35.9078636210281,-5.77495876724239,18.7));
#1010=CARTESIAN_POINT('Origin',(34.9497474683058,-4.94974746830583,18.7));
#1011=CARTESIAN_POINT('',(35.3482613101631,-3.45909804008734,18.7));
#1012=CARTESIAN_POINT('Ctrl Pts',(35.3482613101631,-3.45909804008734,18.7));
#1013=CARTESIAN_POINT('Ctrl Pts',(35.5331038658953,-3.52663874916072,18.7));
#1014=CARTESIAN_POINT('Ctrl Pts',(35.7032276326423,-3.62904222952803,18.7));
#1015=CARTESIAN_POINT('Ctrl Pts',(35.9886741835532,-3.88960246446582,18.7));
#1016=CARTESIAN_POINT('Ctrl Pts',(36.1029934371167,-4.04329251294024,18.7));
#1017=CARTESIAN_POINT('Ctrl Pts',(36.2621619554882,-4.38015698239639,18.7));
#1018=CARTESIAN_POINT('Ctrl Pts',(36.3078363910384,-4.55894158529112,18.7));
#1019=CARTESIAN_POINT('Ctrl Pts',(36.3264266506421,-4.91712952485584,18.7));
#1020=CARTESIAN_POINT('Ctrl Pts',(36.301778954093,-5.09292133832051,18.7));
#1021=CARTESIAN_POINT('Ctrl Pts',(36.2087280313968,-5.35789775078477,18.7));
#1022=CARTESIAN_POINT('Ctrl Pts',(36.1622397825164,-5.45252119891392,18.7));
#1023=CARTESIAN_POINT('Ctrl Pts',(36.0487764367713,-5.62624025317368,18.7));
#1024=CARTESIAN_POINT('Ctrl Pts',(35.9827298177529,-5.70504368921429,18.7));
#1025=CARTESIAN_POINT('Ctrl Pts',(35.9078636210281,-5.77495876724239,18.7));
#1026=CARTESIAN_POINT('Origin',(34.9497474683058,-4.94974746830583,18.7));
#1027=CARTESIAN_POINT('',(24.0921363789718,-5.77495876724228,18.7));
#1028=CARTESIAN_POINT('',(24.651738689837,-3.4590980400873,18.7));
#1029=CARTESIAN_POINT('Ctrl Pts',(24.0921363789718,-5.77495876724229,18.7));
#1030=CARTESIAN_POINT('Ctrl Pts',(23.9700557962253,-5.6609517274588,18.7));
#1031=CARTESIAN_POINT('Ctrl Pts',(23.871888551451,-5.52378075135079,18.7));
#1032=CARTESIAN_POINT('Ctrl Pts',(23.7295565631014,-5.21371430686421,18.7));
#1033=CARTESIAN_POINT('Ctrl Pts',(23.6891499849179,-5.04272802676206,18.7));
#1034=CARTESIAN_POINT('Ctrl Pts',(23.6745654880497,-4.68794638161132,18.7));
#1035=CARTESIAN_POINT('Ctrl Pts',(23.7031469100948,-4.5074803433208,18.7));
#1036=CARTESIAN_POINT('Ctrl Pts',(23.829046744896,-4.16062890215543,18.7));
#1037=CARTESIAN_POINT('Ctrl Pts',(23.9276089177039,-3.9984997952563,18.7));
#1038=CARTESIAN_POINT('Ctrl Pts',(24.134667792494,-3.77058206685563,18.7));
#1039=CARTESIAN_POINT('Ctrl Pts',(24.225822693458,-3.69203646153994,18.7));
#1040=CARTESIAN_POINT('Ctrl Pts',(24.4270083771665,-3.55681309720889,18.7));
#1041=CARTESIAN_POINT('Ctrl Pts',(24.5366524190458,-3.50115008975227,18.7));
#1042=CARTESIAN_POINT('Ctrl Pts',(24.651738689837,-3.45909804008729,18.7));
#1043=CARTESIAN_POINT('',(26.0083686844165,-5.77495876724239,18.7));
#1044=CARTESIAN_POINT('Origin',(25.0502525316942,-4.94974746830583,18.7));
#1045=CARTESIAN_POINT('',(25.4487663735515,-3.45909804008734,18.7));
#1046=CARTESIAN_POINT('Ctrl Pts',(25.4487663735515,-3.45909804008734,18.7));
#1047=CARTESIAN_POINT('Ctrl Pts',(25.6336089292836,-3.52663874916073,18.7));
#1048=CARTESIAN_POINT('Ctrl Pts',(25.8037326960307,-3.62904222952804,18.7));
#1049=CARTESIAN_POINT('Ctrl Pts',(26.0891792469415,-3.88960246446582,18.7));
#1050=CARTESIAN_POINT('Ctrl Pts',(26.203498500505,-4.04329251294024,18.7));
#1051=CARTESIAN_POINT('Ctrl Pts',(26.3626670188765,-4.38015698239639,18.7));
#1052=CARTESIAN_POINT('Ctrl Pts',(26.4083414544267,-4.55894158529112,18.7));
#1053=CARTESIAN_POINT('Ctrl Pts',(26.4269317140305,-4.91712952485584,18.7));
#1054=CARTESIAN_POINT('Ctrl Pts',(26.4022840174814,-5.09292133832051,18.7));
#1055=CARTESIAN_POINT('Ctrl Pts',(26.3092330947852,-5.35789775078477,18.7));
#1056=CARTESIAN_POINT('Ctrl Pts',(26.2627448459048,-5.45252119891392,18.7));
#1057=CARTESIAN_POINT('Ctrl Pts',(26.1492815001597,-5.62624025317369,18.7));
#1058=CARTESIAN_POINT('Ctrl Pts',(26.0832348811412,-5.70504368921429,18.7));
#1059=CARTESIAN_POINT('Ctrl Pts',(26.0083686844165,-5.77495876724239,18.7));
#1060=CARTESIAN_POINT('Origin',(25.0502525316942,-4.94974746830583,18.7));
#1061=CARTESIAN_POINT('',(33.9916313155834,4.1245361693694,18.7));
#1062=CARTESIAN_POINT('',(34.5512336264487,6.44039689652437,18.7));
#1063=CARTESIAN_POINT('Ctrl Pts',(33.9916313155834,4.1245361693694,18.7));
#1064=CARTESIAN_POINT('Ctrl Pts',(33.8695507328369,4.23854320915289,18.7));
#1065=CARTESIAN_POINT('Ctrl Pts',(33.7713834880626,4.3757141852609,18.7));
#1066=CARTESIAN_POINT('Ctrl Pts',(33.629051499713,4.68578062974749,18.7));
#1067=CARTESIAN_POINT('Ctrl Pts',(33.5886449215295,4.85676690984965,18.7));
#1068=CARTESIAN_POINT('Ctrl Pts',(33.5740604246613,5.21154855500038,18.7));
#1069=CARTESIAN_POINT('Ctrl Pts',(33.6026418467065,5.3920145932909,18.7));
#1070=CARTESIAN_POINT('Ctrl Pts',(33.7285416815076,5.73886603445627,18.7));
#1071=CARTESIAN_POINT('Ctrl Pts',(33.8271038543156,5.90099514135539,18.7));
#1072=CARTESIAN_POINT('Ctrl Pts',(34.0341627291057,6.12891286975606,18.7));
#1073=CARTESIAN_POINT('Ctrl Pts',(34.1253176300696,6.20745847507174,18.7));
#1074=CARTESIAN_POINT('Ctrl Pts',(34.3265033137782,6.34268183940279,18.7));
#1075=CARTESIAN_POINT('Ctrl Pts',(34.4361473556574,6.3983448468594,18.7));
#1076=CARTESIAN_POINT('Ctrl Pts',(34.5512336264487,6.44039689652438,18.7));
#1077=CARTESIAN_POINT('',(35.9078636210281,4.12453616936928,18.7));
#1078=CARTESIAN_POINT('Origin',(34.9497474683058,4.94974746830583,18.7));
#1079=CARTESIAN_POINT('',(35.3482613101631,6.44039689652432,18.7));
#1080=CARTESIAN_POINT('Ctrl Pts',(35.3482613101631,6.44039689652432,18.7));
#1081=CARTESIAN_POINT('Ctrl Pts',(35.5331038658953,6.37285618745093,18.7));
#1082=CARTESIAN_POINT('Ctrl Pts',(35.7032276326423,6.27045270708362,18.7));
#1083=CARTESIAN_POINT('Ctrl Pts',(35.9886741835532,6.00989247214584,18.7));
#1084=CARTESIAN_POINT('Ctrl Pts',(36.1029934371167,5.85620242367142,18.7));
#1085=CARTESIAN_POINT('Ctrl Pts',(36.2621619554881,5.51933795421528,18.7));
#1086=CARTESIAN_POINT('Ctrl Pts',(36.3078363910384,5.34055335132055,18.7));
#1087=CARTESIAN_POINT('Ctrl Pts',(36.3264266506421,4.9823654117558,18.7));
#1088=CARTESIAN_POINT('Ctrl Pts',(36.301778954093,4.80657359829115,18.7));
#1089=CARTESIAN_POINT('Ctrl Pts',(36.2087280313968,4.54159718582691,18.7));
#1090=CARTESIAN_POINT('Ctrl Pts',(36.1622397825164,4.44697373769774,18.7));
#1091=CARTESIAN_POINT('Ctrl Pts',(36.0487764367713,4.27325468343798,18.7));
#1092=CARTESIAN_POINT('Ctrl Pts',(35.9827298177529,4.19445124739737,18.7));
#1093=CARTESIAN_POINT('Ctrl Pts',(35.9078636210281,4.12453616936927,18.7));
#1094=CARTESIAN_POINT('Origin',(34.9497474683058,4.94974746830583,18.7));
#1095=CARTESIAN_POINT('Origin',(30.,-3.21508079986924E-16,18.7));
#1096=CARTESIAN_POINT('',(21.6466950324954,-5.49748088854001,18.7));
#1097=CARTESIAN_POINT('',(20.,-1.54615487913428E-15,18.7));
#1098=CARTESIAN_POINT('',(39.2107562387443,-3.89383737596118,18.7));
#1099=CARTESIAN_POINT('Origin',(30.,3.04756220259605E-13,18.7));
#1100=CARTESIAN_POINT('',(31.55,3.04946040513473E-13,18.7));
#1101=CARTESIAN_POINT('Ctrl Pts',(24.0921363789717,4.1245361693694,18.7));
#1102=CARTESIAN_POINT('Ctrl Pts',(24.0921363789717,4.1245361693694,25.7000084624259));
#1103=CARTESIAN_POINT('Ctrl Pts',(23.9700557962253,4.23854320915289,18.7));
#1104=CARTESIAN_POINT('Ctrl Pts',(23.9700557962253,4.23854320915289,25.7000084624259));
#1105=CARTESIAN_POINT('Ctrl Pts',(23.871888551451,4.3757141852609,18.7));
#1106=CARTESIAN_POINT('Ctrl Pts',(23.871888551451,4.3757141852609,25.7000084624259));
#1107=CARTESIAN_POINT('Ctrl Pts',(23.7295565631014,4.6857806297475,18.7));
#1108=CARTESIAN_POINT('Ctrl Pts',(23.7295565631014,4.6857806297475,25.7000084624259));
#1109=CARTESIAN_POINT('Ctrl Pts',(23.6891499849179,4.85676690984965,18.7));
#1110=CARTESIAN_POINT('Ctrl Pts',(23.6891499849179,4.85676690984965,25.7000084624259));
#1111=CARTESIAN_POINT('Ctrl Pts',(23.6745654880497,5.21154855500038,18.7));
#1112=CARTESIAN_POINT('Ctrl Pts',(23.6745654880497,5.21154855500038,25.7000084624259));
#1113=CARTESIAN_POINT('Ctrl Pts',(23.7031469100948,5.39201459329089,18.7));
#1114=CARTESIAN_POINT('Ctrl Pts',(23.7031469100948,5.39201459329089,25.7000084624259));
#1115=CARTESIAN_POINT('Ctrl Pts',(23.829046744896,5.73886603445627,18.7));
#1116=CARTESIAN_POINT('Ctrl Pts',(23.829046744896,5.73886603445627,25.7000084624259));
#1117=CARTESIAN_POINT('Ctrl Pts',(23.9276089177039,5.90099514135539,18.7));
#1118=CARTESIAN_POINT('Ctrl Pts',(23.9276089177039,5.90099514135539,25.7000084624259));
#1119=CARTESIAN_POINT('Ctrl Pts',(24.1346677924941,6.12891286975607,18.7));
#1120=CARTESIAN_POINT('Ctrl Pts',(24.1346677924941,6.12891286975607,25.7000084624259));
#1121=CARTESIAN_POINT('Ctrl Pts',(24.225822693458,6.20745847507175,18.7));
#1122=CARTESIAN_POINT('Ctrl Pts',(24.225822693458,6.20745847507175,25.7000084624259));
#1123=CARTESIAN_POINT('Ctrl Pts',(24.4270083771665,6.34268183940279,18.7));
#1124=CARTESIAN_POINT('Ctrl Pts',(24.4270083771665,6.34268183940279,25.7000084624259));
#1125=CARTESIAN_POINT('Ctrl Pts',(24.5366524190458,6.39834484685941,18.7));
#1126=CARTESIAN_POINT('Ctrl Pts',(24.5366524190458,6.39834484685941,25.7000084624259));
#1127=CARTESIAN_POINT('Ctrl Pts',(24.6517386898371,6.44039689652438,18.7));
#1128=CARTESIAN_POINT('Ctrl Pts',(24.6517386898371,6.44039689652438,25.7000084624259));
#1129=CARTESIAN_POINT('',(24.651738689837,6.44039689652438,18.7));
#1130=CARTESIAN_POINT('',(24.0921363789717,4.1245361693694,18.7));
#1131=CARTESIAN_POINT('Origin',(25.0502525316942,4.94974746830583,18.7));
#1132=CARTESIAN_POINT('',(25.4487663735515,6.44039689652432,18.7));
#1133=CARTESIAN_POINT('Ctrl Pts',(25.4487663735515,6.44039689652432,18.7));
#1134=CARTESIAN_POINT('Ctrl Pts',(25.4487663735515,6.44039689652432,25.7000084535725));
#1135=CARTESIAN_POINT('Ctrl Pts',(25.6336089292836,6.37285618745093,18.7));
#1136=CARTESIAN_POINT('Ctrl Pts',(25.6336089292836,6.37285618745093,25.7000084535725));
#1137=CARTESIAN_POINT('Ctrl Pts',(25.8037326960307,6.27045270708362,18.7));
#1138=CARTESIAN_POINT('Ctrl Pts',(25.8037326960307,6.27045270708362,25.7000084535725));
#1139=CARTESIAN_POINT('Ctrl Pts',(26.0891792469415,6.00989247214584,18.7));
#1140=CARTESIAN_POINT('Ctrl Pts',(26.0891792469415,6.00989247214584,25.7000084535725));
#1141=CARTESIAN_POINT('Ctrl Pts',(26.203498500505,5.85620242367142,18.7));
#1142=CARTESIAN_POINT('Ctrl Pts',(26.203498500505,5.85620242367142,25.7000084535725));
#1143=CARTESIAN_POINT('Ctrl Pts',(26.3626670188765,5.51933795421527,18.7));
#1144=CARTESIAN_POINT('Ctrl Pts',(26.3626670188765,5.51933795421527,25.7000084535725));
#1145=CARTESIAN_POINT('Ctrl Pts',(26.4083414544267,5.34055335132054,18.7));
#1146=CARTESIAN_POINT('Ctrl Pts',(26.4083414544267,5.34055335132054,25.7000084535725));
#1147=CARTESIAN_POINT('Ctrl Pts',(26.4269317140305,4.98236541175582,18.7));
#1148=CARTESIAN_POINT('Ctrl Pts',(26.4269317140305,4.98236541175582,25.7000084535725));
#1149=CARTESIAN_POINT('Ctrl Pts',(26.4022840174814,4.80657359829116,18.7));
#1150=CARTESIAN_POINT('Ctrl Pts',(26.4022840174814,4.80657359829116,25.7000084535725));
#1151=CARTESIAN_POINT('Ctrl Pts',(26.3092330947852,4.54159718582689,18.7));
#1152=CARTESIAN_POINT('Ctrl Pts',(26.3092330947852,4.54159718582689,25.7000084535725));
#1153=CARTESIAN_POINT('Ctrl Pts',(26.2627448459048,4.44697373769774,18.7));
#1154=CARTESIAN_POINT('Ctrl Pts',(26.2627448459048,4.44697373769774,25.7000084535725));
#1155=CARTESIAN_POINT('Ctrl Pts',(26.1492815001597,4.27325468343798,18.7));
#1156=CARTESIAN_POINT('Ctrl Pts',(26.1492815001597,4.27325468343798,25.7000084535725));
#1157=CARTESIAN_POINT('Ctrl Pts',(26.0832348811412,4.19445124739737,18.7));
#1158=CARTESIAN_POINT('Ctrl Pts',(26.0832348811412,4.19445124739737,25.7000084535725));
#1159=CARTESIAN_POINT('Ctrl Pts',(26.0083686844165,4.12453616936926,18.7));
#1160=CARTESIAN_POINT('Ctrl Pts',(26.0083686844165,4.12453616936926,25.7000084535725));
#1161=CARTESIAN_POINT('',(26.0083686844165,4.12453616936927,18.7));
#1162=CARTESIAN_POINT('Origin',(25.0502525316942,4.94974746830583,18.7));
#1163=CARTESIAN_POINT('Ctrl Pts',(33.9916313155834,-5.77495876724229,18.7));
#1164=CARTESIAN_POINT('Ctrl Pts',(33.9916313155834,-5.77495876724229,25.7000084624259));
#1165=CARTESIAN_POINT('Ctrl Pts',(33.8695507328369,-5.6609517274588,18.7));
#1166=CARTESIAN_POINT('Ctrl Pts',(33.8695507328369,-5.6609517274588,25.7000084624259));
#1167=CARTESIAN_POINT('Ctrl Pts',(33.7713834880626,-5.5237807513508,18.7));
#1168=CARTESIAN_POINT('Ctrl Pts',(33.7713834880626,-5.5237807513508,25.7000084624259));
#1169=CARTESIAN_POINT('Ctrl Pts',(33.629051499713,-5.2137143068642,18.7));
#1170=CARTESIAN_POINT('Ctrl Pts',(33.629051499713,-5.2137143068642,25.7000084624259));
#1171=CARTESIAN_POINT('Ctrl Pts',(33.5886449215295,-5.04272802676205,18.7));
#1172=CARTESIAN_POINT('Ctrl Pts',(33.5886449215295,-5.04272802676205,25.7000084624259));
#1173=CARTESIAN_POINT('Ctrl Pts',(33.5740604246613,-4.68794638161132,18.7));
#1174=CARTESIAN_POINT('Ctrl Pts',(33.5740604246613,-4.68794638161132,25.7000084624259));
#1175=CARTESIAN_POINT('Ctrl Pts',(33.6026418467065,-4.50748034332079,18.7));
#1176=CARTESIAN_POINT('Ctrl Pts',(33.6026418467065,-4.50748034332079,25.7000084624259));
#1177=CARTESIAN_POINT('Ctrl Pts',(33.7285416815076,-4.16062890215542,18.7));
#1178=CARTESIAN_POINT('Ctrl Pts',(33.7285416815076,-4.16062890215542,25.7000084624259));
#1179=CARTESIAN_POINT('Ctrl Pts',(33.8271038543155,-3.9984997952563,18.7));
#1180=CARTESIAN_POINT('Ctrl Pts',(33.8271038543155,-3.9984997952563,25.7000084624259));
#1181=CARTESIAN_POINT('Ctrl Pts',(34.0341627291057,-3.77058206685563,18.7));
#1182=CARTESIAN_POINT('Ctrl Pts',(34.0341627291057,-3.77058206685563,25.7000084624259));
#1183=CARTESIAN_POINT('Ctrl Pts',(34.1253176300696,-3.69203646153994,18.7));
#1184=CARTESIAN_POINT('Ctrl Pts',(34.1253176300696,-3.69203646153994,25.7000084624259));
#1185=CARTESIAN_POINT('Ctrl Pts',(34.3265033137781,-3.55681309720889,18.7));
#1186=CARTESIAN_POINT('Ctrl Pts',(34.3265033137781,-3.55681309720889,25.7000084624259));
#1187=CARTESIAN_POINT('Ctrl Pts',(34.4361473556574,-3.50115008975227,18.7));
#1188=CARTESIAN_POINT('Ctrl Pts',(34.4361473556574,-3.50115008975227,25.7000084624259));
#1189=CARTESIAN_POINT('Ctrl Pts',(34.5512336264486,-3.45909804008729,18.7));
#1190=CARTESIAN_POINT('Ctrl Pts',(34.5512336264486,-3.45909804008729,25.7000084624259));
#1191=CARTESIAN_POINT('',(34.5512336264486,-3.4590980400873,18.7));
#1192=CARTESIAN_POINT('',(33.9916313155834,-5.77495876724229,18.7));
#1193=CARTESIAN_POINT('Origin',(34.9497474683058,-4.94974746830583,18.7));
#1194=CARTESIAN_POINT('',(35.3482613101631,-3.45909804008734,18.7));
#1195=CARTESIAN_POINT('Ctrl Pts',(35.3482613101631,-3.45909804008734,18.7));
#1196=CARTESIAN_POINT('Ctrl Pts',(35.3482613101631,-3.45909804008734,25.7000084535725));
#1197=CARTESIAN_POINT('Ctrl Pts',(35.5331038658953,-3.52663874916072,18.7));
#1198=CARTESIAN_POINT('Ctrl Pts',(35.5331038658953,-3.52663874916072,25.7000084535725));
#1199=CARTESIAN_POINT('Ctrl Pts',(35.7032276326423,-3.62904222952803,18.7));
#1200=CARTESIAN_POINT('Ctrl Pts',(35.7032276326423,-3.62904222952803,25.7000084535725));
#1201=CARTESIAN_POINT('Ctrl Pts',(35.9886741835532,-3.88960246446582,18.7));
#1202=CARTESIAN_POINT('Ctrl Pts',(35.9886741835532,-3.88960246446582,25.7000084535725));
#1203=CARTESIAN_POINT('Ctrl Pts',(36.1029934371167,-4.04329251294024,18.7));
#1204=CARTESIAN_POINT('Ctrl Pts',(36.1029934371167,-4.04329251294024,25.7000084535725));
#1205=CARTESIAN_POINT('Ctrl Pts',(36.2621619554882,-4.38015698239639,18.7));
#1206=CARTESIAN_POINT('Ctrl Pts',(36.2621619554882,-4.38015698239639,25.7000084535725));
#1207=CARTESIAN_POINT('Ctrl Pts',(36.3078363910384,-4.55894158529112,18.7));
#1208=CARTESIAN_POINT('Ctrl Pts',(36.3078363910384,-4.55894158529112,25.7000084535725));
#1209=CARTESIAN_POINT('Ctrl Pts',(36.3264266506421,-4.91712952485584,18.7));
#1210=CARTESIAN_POINT('Ctrl Pts',(36.3264266506421,-4.91712952485584,25.7000084535725));
#1211=CARTESIAN_POINT('Ctrl Pts',(36.301778954093,-5.09292133832051,18.7));
#1212=CARTESIAN_POINT('Ctrl Pts',(36.301778954093,-5.09292133832051,25.7000084535725));
#1213=CARTESIAN_POINT('Ctrl Pts',(36.2087280313968,-5.35789775078477,18.7));
#1214=CARTESIAN_POINT('Ctrl Pts',(36.2087280313968,-5.35789775078477,25.7000084535725));
#1215=CARTESIAN_POINT('Ctrl Pts',(36.1622397825164,-5.45252119891392,18.7));
#1216=CARTESIAN_POINT('Ctrl Pts',(36.1622397825164,-5.45252119891392,25.7000084535725));
#1217=CARTESIAN_POINT('Ctrl Pts',(36.0487764367713,-5.62624025317368,18.7));
#1218=CARTESIAN_POINT('Ctrl Pts',(36.0487764367713,-5.62624025317368,25.7000084535725));
#1219=CARTESIAN_POINT('Ctrl Pts',(35.9827298177529,-5.70504368921429,18.7));
#1220=CARTESIAN_POINT('Ctrl Pts',(35.9827298177529,-5.70504368921429,25.7000084535725));
#1221=CARTESIAN_POINT('Ctrl Pts',(35.9078636210281,-5.77495876724239,18.7));
#1222=CARTESIAN_POINT('Ctrl Pts',(35.9078636210281,-5.77495876724239,25.7000084535725));
#1223=CARTESIAN_POINT('',(35.9078636210281,-5.77495876724239,18.7));
#1224=CARTESIAN_POINT('Origin',(34.9497474683058,-4.94974746830583,18.7));
#1225=CARTESIAN_POINT('Ctrl Pts',(24.0921363789718,-5.77495876724229,18.7));
#1226=CARTESIAN_POINT('Ctrl Pts',(24.0921363789718,-5.77495876724229,25.7000084624259));
#1227=CARTESIAN_POINT('Ctrl Pts',(23.9700557962253,-5.6609517274588,18.7));
#1228=CARTESIAN_POINT('Ctrl Pts',(23.9700557962253,-5.6609517274588,25.7000084624259));
#1229=CARTESIAN_POINT('Ctrl Pts',(23.871888551451,-5.52378075135079,18.7));
#1230=CARTESIAN_POINT('Ctrl Pts',(23.871888551451,-5.52378075135079,25.7000084624259));
#1231=CARTESIAN_POINT('Ctrl Pts',(23.7295565631014,-5.21371430686421,18.7));
#1232=CARTESIAN_POINT('Ctrl Pts',(23.7295565631014,-5.21371430686421,25.7000084624259));
#1233=CARTESIAN_POINT('Ctrl Pts',(23.6891499849179,-5.04272802676206,18.7));
#1234=CARTESIAN_POINT('Ctrl Pts',(23.6891499849179,-5.04272802676206,25.7000084624259));
#1235=CARTESIAN_POINT('Ctrl Pts',(23.6745654880497,-4.68794638161132,18.7));
#1236=CARTESIAN_POINT('Ctrl Pts',(23.6745654880497,-4.68794638161132,25.7000084624259));
#1237=CARTESIAN_POINT('Ctrl Pts',(23.7031469100948,-4.5074803433208,18.7));
#1238=CARTESIAN_POINT('Ctrl Pts',(23.7031469100948,-4.5074803433208,25.7000084624259));
#1239=CARTESIAN_POINT('Ctrl Pts',(23.829046744896,-4.16062890215543,18.7));
#1240=CARTESIAN_POINT('Ctrl Pts',(23.829046744896,-4.16062890215543,25.7000084624259));
#1241=CARTESIAN_POINT('Ctrl Pts',(23.9276089177039,-3.9984997952563,18.7));
#1242=CARTESIAN_POINT('Ctrl Pts',(23.9276089177039,-3.9984997952563,25.7000084624259));
#1243=CARTESIAN_POINT('Ctrl Pts',(24.134667792494,-3.77058206685563,18.7));
#1244=CARTESIAN_POINT('Ctrl Pts',(24.134667792494,-3.77058206685563,25.7000084624259));
#1245=CARTESIAN_POINT('Ctrl Pts',(24.225822693458,-3.69203646153994,18.7));
#1246=CARTESIAN_POINT('Ctrl Pts',(24.225822693458,-3.69203646153994,25.7000084624259));
#1247=CARTESIAN_POINT('Ctrl Pts',(24.4270083771665,-3.55681309720889,18.7));
#1248=CARTESIAN_POINT('Ctrl Pts',(24.4270083771665,-3.55681309720889,25.7000084624259));
#1249=CARTESIAN_POINT('Ctrl Pts',(24.5366524190458,-3.50115008975227,18.7));
#1250=CARTESIAN_POINT('Ctrl Pts',(24.5366524190458,-3.50115008975227,25.7000084624259));
#1251=CARTESIAN_POINT('Ctrl Pts',(24.651738689837,-3.45909804008729,18.7));
#1252=CARTESIAN_POINT('Ctrl Pts',(24.651738689837,-3.45909804008729,25.7000084624259));
#1253=CARTESIAN_POINT('',(24.651738689837,-3.4590980400873,18.7));
#1254=CARTESIAN_POINT('',(24.0921363789718,-5.77495876724228,18.7));
#1255=CARTESIAN_POINT('Origin',(25.0502525316942,-4.94974746830583,18.7));
#1256=CARTESIAN_POINT('',(25.4487663735515,-3.45909804008734,18.7));
#1257=CARTESIAN_POINT('Ctrl Pts',(25.4487663735515,-3.45909804008734,18.7));
#1258=CARTESIAN_POINT('Ctrl Pts',(25.4487663735515,-3.45909804008734,25.7000084535725));
#1259=CARTESIAN_POINT('Ctrl Pts',(25.6336089292836,-3.52663874916073,18.7));
#1260=CARTESIAN_POINT('Ctrl Pts',(25.6336089292836,-3.52663874916073,25.7000084535725));
#1261=CARTESIAN_POINT('Ctrl Pts',(25.8037326960307,-3.62904222952804,18.7));
#1262=CARTESIAN_POINT('Ctrl Pts',(25.8037326960307,-3.62904222952804,25.7000084535725));
#1263=CARTESIAN_POINT('Ctrl Pts',(26.0891792469415,-3.88960246446582,18.7));
#1264=CARTESIAN_POINT('Ctrl Pts',(26.0891792469415,-3.88960246446582,25.7000084535725));
#1265=CARTESIAN_POINT('Ctrl Pts',(26.203498500505,-4.04329251294024,18.7));
#1266=CARTESIAN_POINT('Ctrl Pts',(26.203498500505,-4.04329251294024,25.7000084535725));
#1267=CARTESIAN_POINT('Ctrl Pts',(26.3626670188765,-4.38015698239639,18.7));
#1268=CARTESIAN_POINT('Ctrl Pts',(26.3626670188765,-4.38015698239639,25.7000084535725));
#1269=CARTESIAN_POINT('Ctrl Pts',(26.4083414544267,-4.55894158529112,18.7));
#1270=CARTESIAN_POINT('Ctrl Pts',(26.4083414544267,-4.55894158529112,25.7000084535725));
#1271=CARTESIAN_POINT('Ctrl Pts',(26.4269317140305,-4.91712952485584,18.7));
#1272=CARTESIAN_POINT('Ctrl Pts',(26.4269317140305,-4.91712952485584,25.7000084535725));
#1273=CARTESIAN_POINT('Ctrl Pts',(26.4022840174814,-5.09292133832051,18.7));
#1274=CARTESIAN_POINT('Ctrl Pts',(26.4022840174814,-5.09292133832051,25.7000084535725));
#1275=CARTESIAN_POINT('Ctrl Pts',(26.3092330947852,-5.35789775078477,18.7));
#1276=CARTESIAN_POINT('Ctrl Pts',(26.3092330947852,-5.35789775078477,25.7000084535725));
#1277=CARTESIAN_POINT('Ctrl Pts',(26.2627448459048,-5.45252119891392,18.7));
#1278=CARTESIAN_POINT('Ctrl Pts',(26.2627448459048,-5.45252119891392,25.7000084535725));
#1279=CARTESIAN_POINT('Ctrl Pts',(26.1492815001597,-5.62624025317369,18.7));
#1280=CARTESIAN_POINT('Ctrl Pts',(26.1492815001597,-5.62624025317369,25.7000084535725));
#1281=CARTESIAN_POINT('Ctrl Pts',(26.0832348811412,-5.70504368921429,18.7));
#1282=CARTESIAN_POINT('Ctrl Pts',(26.0832348811412,-5.70504368921429,25.7000084535725));
#1283=CARTESIAN_POINT('Ctrl Pts',(26.0083686844165,-5.77495876724239,18.7));
#1284=CARTESIAN_POINT('Ctrl Pts',(26.0083686844165,-5.77495876724239,25.7000084535725));
#1285=CARTESIAN_POINT('',(26.0083686844165,-5.77495876724239,18.7));
#1286=CARTESIAN_POINT('Origin',(25.0502525316942,-4.94974746830583,18.7));
#1287=CARTESIAN_POINT('Ctrl Pts',(33.9916313155834,4.1245361693694,18.7));
#1288=CARTESIAN_POINT('Ctrl Pts',(33.9916313155834,4.1245361693694,25.7000084624259));
#1289=CARTESIAN_POINT('Ctrl Pts',(33.8695507328369,4.23854320915289,18.7));
#1290=CARTESIAN_POINT('Ctrl Pts',(33.8695507328369,4.23854320915289,25.7000084624259));
#1291=CARTESIAN_POINT('Ctrl Pts',(33.7713834880626,4.3757141852609,18.7));
#1292=CARTESIAN_POINT('Ctrl Pts',(33.7713834880626,4.3757141852609,25.7000084624259));
#1293=CARTESIAN_POINT('Ctrl Pts',(33.629051499713,4.68578062974749,18.7));
#1294=CARTESIAN_POINT('Ctrl Pts',(33.629051499713,4.68578062974749,25.7000084624259));
#1295=CARTESIAN_POINT('Ctrl Pts',(33.5886449215295,4.85676690984965,18.7));
#1296=CARTESIAN_POINT('Ctrl Pts',(33.5886449215295,4.85676690984965,25.7000084624259));
#1297=CARTESIAN_POINT('Ctrl Pts',(33.5740604246613,5.21154855500038,18.7));
#1298=CARTESIAN_POINT('Ctrl Pts',(33.5740604246613,5.21154855500038,25.7000084624259));
#1299=CARTESIAN_POINT('Ctrl Pts',(33.6026418467065,5.3920145932909,18.7));
#1300=CARTESIAN_POINT('Ctrl Pts',(33.6026418467065,5.3920145932909,25.7000084624259));
#1301=CARTESIAN_POINT('Ctrl Pts',(33.7285416815076,5.73886603445627,18.7));
#1302=CARTESIAN_POINT('Ctrl Pts',(33.7285416815076,5.73886603445627,25.7000084624259));
#1303=CARTESIAN_POINT('Ctrl Pts',(33.8271038543156,5.90099514135539,18.7));
#1304=CARTESIAN_POINT('Ctrl Pts',(33.8271038543156,5.90099514135539,25.7000084624259));
#1305=CARTESIAN_POINT('Ctrl Pts',(34.0341627291057,6.12891286975606,18.7));
#1306=CARTESIAN_POINT('Ctrl Pts',(34.0341627291057,6.12891286975606,25.7000084624259));
#1307=CARTESIAN_POINT('Ctrl Pts',(34.1253176300696,6.20745847507174,18.7));
#1308=CARTESIAN_POINT('Ctrl Pts',(34.1253176300696,6.20745847507174,25.7000084624259));
#1309=CARTESIAN_POINT('Ctrl Pts',(34.3265033137782,6.34268183940279,18.7));
#1310=CARTESIAN_POINT('Ctrl Pts',(34.3265033137782,6.34268183940279,25.7000084624259));
#1311=CARTESIAN_POINT('Ctrl Pts',(34.4361473556574,6.3983448468594,18.7));
#1312=CARTESIAN_POINT('Ctrl Pts',(34.4361473556574,6.3983448468594,25.7000084624259));
#1313=CARTESIAN_POINT('Ctrl Pts',(34.5512336264487,6.44039689652438,18.7));
#1314=CARTESIAN_POINT('Ctrl Pts',(34.5512336264487,6.44039689652438,25.7000084624259));
#1315=CARTESIAN_POINT('',(34.5512336264487,6.44039689652437,18.7));
#1316=CARTESIAN_POINT('',(33.9916313155834,4.1245361693694,18.7));
#1317=CARTESIAN_POINT('Origin',(34.9497474683058,4.94974746830583,18.7));
#1318=CARTESIAN_POINT('',(35.3482613101631,6.44039689652432,18.7));
#1319=CARTESIAN_POINT('Ctrl Pts',(35.3482613101631,6.44039689652432,18.7));
#1320=CARTESIAN_POINT('Ctrl Pts',(35.3482613101631,6.44039689652432,25.7000084535725));
#1321=CARTESIAN_POINT('Ctrl Pts',(35.5331038658953,6.37285618745093,18.7));
#1322=CARTESIAN_POINT('Ctrl Pts',(35.5331038658953,6.37285618745093,25.7000084535725));
#1323=CARTESIAN_POINT('Ctrl Pts',(35.7032276326423,6.27045270708362,18.7));
#1324=CARTESIAN_POINT('Ctrl Pts',(35.7032276326423,6.27045270708362,25.7000084535725));
#1325=CARTESIAN_POINT('Ctrl Pts',(35.9886741835532,6.00989247214584,18.7));
#1326=CARTESIAN_POINT('Ctrl Pts',(35.9886741835532,6.00989247214584,25.7000084535725));
#1327=CARTESIAN_POINT('Ctrl Pts',(36.1029934371167,5.85620242367142,18.7));
#1328=CARTESIAN_POINT('Ctrl Pts',(36.1029934371167,5.85620242367142,25.7000084535725));
#1329=CARTESIAN_POINT('Ctrl Pts',(36.2621619554881,5.51933795421528,18.7));
#1330=CARTESIAN_POINT('Ctrl Pts',(36.2621619554881,5.51933795421528,25.7000084535725));
#1331=CARTESIAN_POINT('Ctrl Pts',(36.3078363910384,5.34055335132055,18.7));
#1332=CARTESIAN_POINT('Ctrl Pts',(36.3078363910384,5.34055335132055,25.7000084535725));
#1333=CARTESIAN_POINT('Ctrl Pts',(36.3264266506421,4.9823654117558,18.7));
#1334=CARTESIAN_POINT('Ctrl Pts',(36.3264266506421,4.9823654117558,25.7000084535725));
#1335=CARTESIAN_POINT('Ctrl Pts',(36.301778954093,4.80657359829115,18.7));
#1336=CARTESIAN_POINT('Ctrl Pts',(36.301778954093,4.80657359829115,25.7000084535725));
#1337=CARTESIAN_POINT('Ctrl Pts',(36.2087280313968,4.54159718582691,18.7));
#1338=CARTESIAN_POINT('Ctrl Pts',(36.2087280313968,4.54159718582691,25.7000084535725));
#1339=CARTESIAN_POINT('Ctrl Pts',(36.1622397825164,4.44697373769774,18.7));
#1340=CARTESIAN_POINT('Ctrl Pts',(36.1622397825164,4.44697373769774,25.7000084535725));
#1341=CARTESIAN_POINT('Ctrl Pts',(36.0487764367713,4.27325468343798,18.7));
#1342=CARTESIAN_POINT('Ctrl Pts',(36.0487764367713,4.27325468343798,25.7000084535725));
#1343=CARTESIAN_POINT('Ctrl Pts',(35.9827298177529,4.19445124739737,18.7));
#1344=CARTESIAN_POINT('Ctrl Pts',(35.9827298177529,4.19445124739737,25.7000084535725));
#1345=CARTESIAN_POINT('Ctrl Pts',(35.9078636210281,4.12453616936927,18.7));
#1346=CARTESIAN_POINT('Ctrl Pts',(35.9078636210281,4.12453616936927,25.7000084535725));
#1347=CARTESIAN_POINT('',(35.9078636210281,4.12453616936928,18.7));
#1348=CARTESIAN_POINT('Origin',(34.9497474683058,4.94974746830583,18.7));
#1349=CARTESIAN_POINT('Origin',(39.2107562387445,-3.89383737596044,23.7));
#1350=CARTESIAN_POINT('Origin',(27.8445970785375,-24.9160817371143,23.7));
#1351=CARTESIAN_POINT('',(27.4632706975451,-24.9160817371143,23.7));
#1352=CARTESIAN_POINT('Origin',(27.4632706975451,-24.9160817371143,23.7));
#1353=UNCERTAINTY_MEASURE_WITH_UNIT(LENGTH_MEASURE(0.01),#1357,
'DISTANCE_ACCURACY_VALUE',
'Maximum model space distance between geometric entities at asserted c
onnectivities');
#1354=UNCERTAINTY_MEASURE_WITH_UNIT(LENGTH_MEASURE(0.01),#1357,
'DISTANCE_ACCURACY_VALUE',
'Maximum model space distance between geometric entities at asserted c
onnectivities');
#1355=(
GEOMETRIC_REPRESENTATION_CONTEXT(3)
GLOBAL_UNCERTAINTY_ASSIGNED_CONTEXT((#1353))
GLOBAL_UNIT_ASSIGNED_CONTEXT((#1357,#1359,#1360))
REPRESENTATION_CONTEXT('','3D')
);
#1356=(
GEOMETRIC_REPRESENTATION_CONTEXT(3)
GLOBAL_UNCERTAINTY_ASSIGNED_CONTEXT((#1354))
GLOBAL_UNIT_ASSIGNED_CONTEXT((#1357,#1359,#1360))
REPRESENTATION_CONTEXT('','3D')
);
#1357=(
LENGTH_UNIT()
NAMED_UNIT(*)
SI_UNIT(.MILLI.,.METRE.)
);
#1358=(
LENGTH_UNIT()
NAMED_UNIT(*)
SI_UNIT($,.METRE.)
);
#1359=(
NAMED_UNIT(*)
PLANE_ANGLE_UNIT()
SI_UNIT($,.RADIAN.)
);
#1360=(
NAMED_UNIT(*)
SI_UNIT($,.STERADIAN.)
SOLID_ANGLE_UNIT()
);
#1361=SHAPE_DEFINITION_REPRESENTATION(#1362,#1363);
#1362=PRODUCT_DEFINITION_SHAPE('',$,#1365);
#1363=SHAPE_REPRESENTATION('',(#581),#1355);
#1364=PRODUCT_DEFINITION_CONTEXT('part definition',#1369,'design');
#1365=PRODUCT_DEFINITION('ServoAttachment','ServoAttachment',#1366,#1364);
#1366=PRODUCT_DEFINITION_FORMATION('',$,#1371);
#1367=PRODUCT_RELATED_PRODUCT_CATEGORY('ServoAttachment',
'ServoAttachment',(#1371));
#1368=APPLICATION_PROTOCOL_DEFINITION('international standard',
'automotive_design',2009,#1369);
#1369=APPLICATION_CONTEXT(
'Core Data for Automotive Mechanical Design Process');
#1370=PRODUCT_CONTEXT('part definition',#1369,'mechanical');
#1371=PRODUCT('ServoAttachment','ServoAttachment',$,(#1370));
#1372=PRESENTATION_STYLE_ASSIGNMENT((#1373));
#1373=SURFACE_STYLE_USAGE(.BOTH.,#1374);
#1374=SURFACE_SIDE_STYLE('',(#1375));
#1375=SURFACE_STYLE_FILL_AREA(#1376);
#1376=FILL_AREA_STYLE('Steel - Satin',(#1377));
#1377=FILL_AREA_STYLE_COLOUR('Steel - Satin',#1378);
#1378=COLOUR_RGB('Steel - Satin',0.627450980392157,0.627450980392157,0.627450980392157);
ENDSEC;
END-ISO-10303-21;
