ISO-10303-21;
HEADER;
/* Generated by software containing ST-Developer
 * from STEP Tools, Inc. (www.steptools.com) 
 */

FILE_DESCRIPTION(
/* description */ (''),
/* implementation_level */ '2;1');

FILE_NAME(
/* name */ 'ServoMount.step',
/* time_stamp */ '2026-08-10T18:26:56-05:00',
/* author */ (''),
/* organization */ (''),
/* preprocessor_version */ 'ST-DEVELOPER v20.1',
/* originating_system */ 'Autodesk Translation Framework v15.8.0.0',
/* authorisation */ '');

FILE_SCHEMA (('AUTOMOTIVE_DESIGN { 1 0 10303 214 3 1 1 }'));
ENDSEC;

DATA;
#10=MECHANICAL_DESIGN_GEOMETRIC_PRESENTATION_REPRESENTATION('',(#13),#1470);
#11=SHAPE_REPRESENTATION_RELATIONSHIP('SRR','None',#1477,#12);
#12=ADVANCED_BREP_SHAPE_REPRESENTATION('',(#14),#1469);
#13=STYLED_ITEM('',(#1486),#14);
#14=MANIFOLD_SOLID_BREP('Body1',#898);
#15=FACE_BOUND('',#114,.T.);
#16=FACE_BOUND('',#115,.T.);
#17=FACE_BOUND('',#116,.T.);
#18=FACE_BOUND('',#117,.T.);
#19=FACE_BOUND('',#118,.T.);
#20=FACE_BOUND('',#119,.T.);
#21=FACE_BOUND('',#120,.T.);
#22=FACE_BOUND('',#121,.T.);
#23=FACE_BOUND('',#122,.T.);
#24=FACE_BOUND('',#123,.T.);
#25=FACE_BOUND('',#143,.T.);
#26=FACE_BOUND('',#144,.T.);
#27=FACE_BOUND('',#145,.T.);
#28=FACE_BOUND('',#146,.T.);
#29=FACE_BOUND('',#147,.T.);
#30=FACE_BOUND('',#148,.T.);
#31=FACE_BOUND('',#149,.T.);
#32=FACE_BOUND('',#150,.T.);
#33=FACE_BOUND('',#151,.T.);
#34=FACE_BOUND('',#152,.T.);
#35=PLANE('',#921);
#36=PLANE('',#922);
#37=PLANE('',#923);
#38=PLANE('',#934);
#39=PLANE('',#935);
#40=PLANE('',#936);
#41=PLANE('',#937);
#42=PLANE('',#938);
#43=PLANE('',#941);
#44=PLANE('',#942);
#45=PLANE('',#943);
#46=PLANE('',#944);
#47=PLANE('',#945);
#48=PLANE('',#946);
#49=PLANE('',#947);
#50=PLANE('',#952);
#51=PLANE('',#953);
#52=PLANE('',#954);
#53=PLANE('',#955);
#54=PLANE('',#968);
#55=PLANE('',#970);
#56=PLANE('',#972);
#57=PLANE('',#973);
#58=PLANE('',#974);
#59=PLANE('',#975);
#60=PLANE('',#976);
#61=PLANE('',#977);
#62=PLANE('',#978);
#63=PLANE('',#979);
#64=PLANE('',#980);
#65=FACE_OUTER_BOUND('',#108,.T.);
#66=FACE_OUTER_BOUND('',#109,.T.);
#67=FACE_OUTER_BOUND('',#110,.T.);
#68=FACE_OUTER_BOUND('',#111,.T.);
#69=FACE_OUTER_BOUND('',#112,.T.);
#70=FACE_OUTER_BOUND('',#113,.T.);
#71=FACE_OUTER_BOUND('',#124,.T.);
#72=FACE_OUTER_BOUND('',#125,.T.);
#73=FACE_OUTER_BOUND('',#126,.T.);
#74=FACE_OUTER_BOUND('',#127,.T.);
#75=FACE_OUTER_BOUND('',#128,.T.);
#76=FACE_OUTER_BOUND('',#129,.T.);
#77=FACE_OUTER_BOUND('',#130,.T.);
#78=FACE_OUTER_BOUND('',#131,.T.);
#79=FACE_OUTER_BOUND('',#132,.T.);
#80=FACE_OUTER_BOUND('',#133,.T.);
#81=FACE_OUTER_BOUND('',#134,.T.);
#82=FACE_OUTER_BOUND('',#135,.T.);
#83=FACE_OUTER_BOUND('',#136,.T.);
#84=FACE_OUTER_BOUND('',#137,.T.);
#85=FACE_OUTER_BOUND('',#138,.T.);
#86=FACE_OUTER_BOUND('',#139,.T.);
#87=FACE_OUTER_BOUND('',#140,.T.);
#88=FACE_OUTER_BOUND('',#141,.T.);
#89=FACE_OUTER_BOUND('',#142,.T.);
#90=FACE_OUTER_BOUND('',#153,.T.);
#91=FACE_OUTER_BOUND('',#154,.T.);
#92=FACE_OUTER_BOUND('',#155,.T.);
#93=FACE_OUTER_BOUND('',#156,.T.);
#94=FACE_OUTER_BOUND('',#157,.T.);
#95=FACE_OUTER_BOUND('',#158,.T.);
#96=FACE_OUTER_BOUND('',#159,.T.);
#97=FACE_OUTER_BOUND('',#160,.T.);
#98=FACE_OUTER_BOUND('',#161,.T.);
#99=FACE_OUTER_BOUND('',#162,.T.);
#100=FACE_OUTER_BOUND('',#163,.T.);
#101=FACE_OUTER_BOUND('',#164,.T.);
#102=FACE_OUTER_BOUND('',#165,.T.);
#103=FACE_OUTER_BOUND('',#166,.T.);
#104=FACE_OUTER_BOUND('',#167,.T.);
#105=FACE_OUTER_BOUND('',#168,.T.);
#106=FACE_OUTER_BOUND('',#169,.T.);
#107=FACE_OUTER_BOUND('',#170,.T.);
#108=EDGE_LOOP('',(#596,#597,#598,#599));
#109=EDGE_LOOP('',(#600,#601,#602,#603));
#110=EDGE_LOOP('',(#604,#605,#606,#607));
#111=EDGE_LOOP('',(#608,#609,#610,#611));
#112=EDGE_LOOP('',(#612,#613,#614,#615));
#113=EDGE_LOOP('',(#616,#617,#618,#619,#620,#621,#622,#623,#624,#625,#626,
#627,#628,#629,#630,#631,#632,#633,#634,#635));
#114=EDGE_LOOP('',(#636));
#115=EDGE_LOOP('',(#637));
#116=EDGE_LOOP('',(#638,#639,#640,#641));
#117=EDGE_LOOP('',(#642,#643,#644));
#118=EDGE_LOOP('',(#645,#646,#647));
#119=EDGE_LOOP('',(#648,#649));
#120=EDGE_LOOP('',(#650,#651));
#121=EDGE_LOOP('',(#652,#653));
#122=EDGE_LOOP('',(#654,#655));
#123=EDGE_LOOP('',(#656));
#124=EDGE_LOOP('',(#657,#658,#659,#660));
#125=EDGE_LOOP('',(#661,#662,#663,#664));
#126=EDGE_LOOP('',(#665,#666,#667,#668));
#127=EDGE_LOOP('',(#669,#670,#671,#672));
#128=EDGE_LOOP('',(#673,#674,#675,#676));
#129=EDGE_LOOP('',(#677,#678,#679,#680));
#130=EDGE_LOOP('',(#681,#682,#683,#684));
#131=EDGE_LOOP('',(#685,#686,#687,#688));
#132=EDGE_LOOP('',(#689,#690,#691,#692));
#133=EDGE_LOOP('',(#693,#694,#695,#696));
#134=EDGE_LOOP('',(#697,#698,#699,#700));
#135=EDGE_LOOP('',(#701,#702,#703,#704));
#136=EDGE_LOOP('',(#705,#706,#707,#708));
#137=EDGE_LOOP('',(#709,#710,#711,#712));
#138=EDGE_LOOP('',(#713,#714,#715,#716));
#139=EDGE_LOOP('',(#717,#718,#719,#720));
#140=EDGE_LOOP('',(#721,#722,#723,#724));
#141=EDGE_LOOP('',(#725,#726,#727,#728));
#142=EDGE_LOOP('',(#729,#730,#731,#732,#733,#734,#735,#736,#737,#738,#739,
#740,#741,#742,#743,#744,#745,#746,#747,#748));
#143=EDGE_LOOP('',(#749));
#144=EDGE_LOOP('',(#750));
#145=EDGE_LOOP('',(#751,#752));
#146=EDGE_LOOP('',(#753,#754));
#147=EDGE_LOOP('',(#755,#756));
#148=EDGE_LOOP('',(#757,#758));
#149=EDGE_LOOP('',(#759,#760,#761,#762));
#150=EDGE_LOOP('',(#763,#764,#765));
#151=EDGE_LOOP('',(#766,#767,#768));
#152=EDGE_LOOP('',(#769));
#153=EDGE_LOOP('',(#770,#771,#772,#773));
#154=EDGE_LOOP('',(#774,#775,#776,#777));
#155=EDGE_LOOP('',(#778,#779,#780,#781));
#156=EDGE_LOOP('',(#782,#783,#784,#785));
#157=EDGE_LOOP('',(#786,#787,#788,#789));
#158=EDGE_LOOP('',(#790,#791,#792,#793));
#159=EDGE_LOOP('',(#794,#795,#796,#797));
#160=EDGE_LOOP('',(#798,#799,#800,#801));
#161=EDGE_LOOP('',(#802,#803,#804,#805));
#162=EDGE_LOOP('',(#806,#807,#808,#809));
#163=EDGE_LOOP('',(#810,#811,#812,#813));
#164=EDGE_LOOP('',(#814,#815,#816,#817));
#165=EDGE_LOOP('',(#818,#819,#820,#821));
#166=EDGE_LOOP('',(#822,#823,#824,#825));
#167=EDGE_LOOP('',(#826,#827,#828,#829));
#168=EDGE_LOOP('',(#830,#831,#832,#833));
#169=EDGE_LOOP('',(#834,#835,#836,#837));
#170=EDGE_LOOP('',(#838,#839,#840,#841));
#171=LINE('',#1223,#268);
#172=LINE('',#1229,#269);
#173=LINE('',#1235,#270);
#174=LINE('',#1240,#271);
#175=LINE('',#1242,#272);
#176=LINE('',#1244,#273);
#177=LINE('',#1245,#274);
#178=LINE('',#1249,#275);
#179=LINE('',#1251,#276);
#180=LINE('',#1253,#277);
#181=LINE('',#1254,#278);
#182=LINE('',#1259,#279);
#183=LINE('',#1261,#280);
#184=LINE('',#1263,#281);
#185=LINE('',#1265,#282);
#186=LINE('',#1267,#283);
#187=LINE('',#1269,#284);
#188=LINE('',#1271,#285);
#189=LINE('',#1273,#286);
#190=LINE('',#1275,#287);
#191=LINE('',#1277,#288);
#192=LINE('',#1279,#289);
#193=LINE('',#1282,#290);
#194=LINE('',#1284,#291);
#195=LINE('',#1286,#292);
#196=LINE('',#1288,#293);
#197=LINE('',#1289,#294);
#198=LINE('',#1292,#295);
#199=LINE('',#1296,#296);
#200=LINE('',#1300,#297);
#201=LINE('',#1302,#298);
#202=LINE('',#1306,#299);
#203=LINE('',#1309,#300);
#204=LINE('',#1312,#301);
#205=LINE('',#1316,#302);
#206=LINE('',#1320,#303);
#207=LINE('',#1324,#304);
#208=LINE('',#1328,#305);
#209=LINE('',#1330,#306);
#210=LINE('',#1331,#307);
#211=LINE('',#1334,#308);
#212=LINE('',#1335,#309);
#213=LINE('',#1338,#310);
#214=LINE('',#1339,#311);
#215=LINE('',#1342,#312);
#216=LINE('',#1343,#313);
#217=LINE('',#1346,#314);
#218=LINE('',#1347,#315);
#219=LINE('',#1352,#316);
#220=LINE('',#1353,#317);
#221=LINE('',#1356,#318);
#222=LINE('',#1358,#319);
#223=LINE('',#1359,#320);
#224=LINE('',#1362,#321);
#225=LINE('',#1364,#322);
#226=LINE('',#1365,#323);
#227=LINE('',#1368,#324);
#228=LINE('',#1370,#325);
#229=LINE('',#1371,#326);
#230=LINE('',#1374,#327);
#231=LINE('',#1375,#328);
#232=LINE('',#1378,#329);
#233=LINE('',#1380,#330);
#234=LINE('',#1381,#331);
#235=LINE('',#1384,#332);
#236=LINE('',#1386,#333);
#237=LINE('',#1387,#334);
#238=LINE('',#1390,#335);
#239=LINE('',#1393,#336);
#240=LINE('',#1396,#337);
#241=LINE('',#1399,#338);
#242=LINE('',#1402,#339);
#243=LINE('',#1403,#340);
#244=LINE('',#1406,#341);
#245=LINE('',#1407,#342);
#246=LINE('',#1410,#343);
#247=LINE('',#1411,#344);
#248=LINE('',#1414,#345);
#249=LINE('',#1416,#346);
#250=LINE('',#1417,#347);
#251=LINE('',#1419,#348);
#252=LINE('',#1421,#349);
#253=LINE('',#1423,#350);
#254=LINE('',#1425,#351);
#255=LINE('',#1427,#352);
#256=LINE('',#1429,#353);
#257=LINE('',#1436,#354);
#258=LINE('',#1438,#355);
#259=LINE('',#1447,#356);
#260=LINE('',#1450,#357);
#261=LINE('',#1452,#358);
#262=LINE('',#1454,#359);
#263=LINE('',#1456,#360);
#264=LINE('',#1458,#361);
#265=LINE('',#1460,#362);
#266=LINE('',#1463,#363);
#267=LINE('',#1465,#364);
#268=VECTOR('',#987,1.5);
#269=VECTOR('',#994,1.5);
#270=VECTOR('',#1001,1.5);
#271=VECTOR('',#1006,10.);
#272=VECTOR('',#1007,10.);
#273=VECTOR('',#1008,10.);
#274=VECTOR('',#1009,10.);
#275=VECTOR('',#1012,10.);
#276=VECTOR('',#1013,10.);
#277=VECTOR('',#1014,10.);
#278=VECTOR('',#1015,10.);
#279=VECTOR('',#1020,10.);
#280=VECTOR('',#1021,10.);
#281=VECTOR('',#1022,10.);
#282=VECTOR('',#1023,10.);
#283=VECTOR('',#1024,10.);
#284=VECTOR('',#1025,10.);
#285=VECTOR('',#1026,10.);
#286=VECTOR('',#1027,10.);
#287=VECTOR('',#1028,10.);
#288=VECTOR('',#1029,10.);
#289=VECTOR('',#1030,10.);
#290=VECTOR('',#1033,10.);
#291=VECTOR('',#1034,10.);
#292=VECTOR('',#1035,10.);
#293=VECTOR('',#1036,10.);
#294=VECTOR('',#1037,10.);
#295=VECTOR('',#1038,10.);
#296=VECTOR('',#1041,10.);
#297=VECTOR('',#1044,10.);
#298=VECTOR('',#1045,10.);
#299=VECTOR('',#1048,10.);
#300=VECTOR('',#1051,10.);
#301=VECTOR('',#1052,10.);
#302=VECTOR('',#1055,10.);
#303=VECTOR('',#1058,10.);
#304=VECTOR('',#1061,10.);
#305=VECTOR('',#1066,10.);
#306=VECTOR('',#1067,1000.);
#307=VECTOR('',#1068,10.);
#308=VECTOR('',#1071,1000.);
#309=VECTOR('',#1072,10.);
#310=VECTOR('',#1075,1000.);
#311=VECTOR('',#1076,10.);
#312=VECTOR('',#1079,1000.);
#313=VECTOR('',#1080,10.);
#314=VECTOR('',#1083,1000.);
#315=VECTOR('',#1084,10.);
#316=VECTOR('',#1091,10.);
#317=VECTOR('',#1092,10.);
#318=VECTOR('',#1095,10.);
#319=VECTOR('',#1096,10.);
#320=VECTOR('',#1097,10.);
#321=VECTOR('',#1100,10.);
#322=VECTOR('',#1101,10.);
#323=VECTOR('',#1102,10.);
#324=VECTOR('',#1105,10.);
#325=VECTOR('',#1106,10.);
#326=VECTOR('',#1107,10.);
#327=VECTOR('',#1110,10.);
#328=VECTOR('',#1111,10.);
#329=VECTOR('',#1114,10.);
#330=VECTOR('',#1115,10.);
#331=VECTOR('',#1116,10.);
#332=VECTOR('',#1119,10.);
#333=VECTOR('',#1120,10.);
#334=VECTOR('',#1121,10.);
#335=VECTOR('',#1124,10.);
#336=VECTOR('',#1127,10.);
#337=VECTOR('',#1130,10.);
#338=VECTOR('',#1133,10.);
#339=VECTOR('',#1136,10.);
#340=VECTOR('',#1137,10.);
#341=VECTOR('',#1140,10.);
#342=VECTOR('',#1141,10.);
#343=VECTOR('',#1144,10.);
#344=VECTOR('',#1145,10.);
#345=VECTOR('',#1148,10.);
#346=VECTOR('',#1149,10.);
#347=VECTOR('',#1150,10.);
#348=VECTOR('',#1151,1000.);
#349=VECTOR('',#1152,1000.);
#350=VECTOR('',#1153,1000.);
#351=VECTOR('',#1154,1000.);
#352=VECTOR('',#1155,1000.);
#353=VECTOR('',#1156,1000.);
#354=VECTOR('',#1167,1000.);
#355=VECTOR('',#1170,10.);
#356=VECTOR('',#1187,10.);
#357=VECTOR('',#1192,10.);
#358=VECTOR('',#1195,10.);
#359=VECTOR('',#1198,10.);
#360=VECTOR('',#1201,10.);
#361=VECTOR('',#1204,10.);
#362=VECTOR('',#1207,10.);
#363=VECTOR('',#1212,10.);
#364=VECTOR('',#1215,10.);
#365=CIRCLE('',#913,1.5);
#366=CIRCLE('',#914,1.5);
#367=CIRCLE('',#916,1.5);
#368=CIRCLE('',#917,1.5);
#369=CIRCLE('',#919,1.5);
#370=CIRCLE('',#920,1.5);
#371=CIRCLE('',#924,11.0052558883258);
#372=CIRCLE('',#925,11.0052558883258);
#373=CIRCLE('',#926,2.1);
#374=CIRCLE('',#927,2.1);
#375=CIRCLE('',#928,2.1);
#376=CIRCLE('',#929,2.1);
#377=CIRCLE('',#930,0.750000000000001);
#378=CIRCLE('',#931,0.750000000000001);
#379=CIRCLE('',#932,0.750000000000001);
#380=CIRCLE('',#933,0.750000000000001);
#381=CIRCLE('',#940,11.0052558883258);
#382=CIRCLE('',#949,2.1);
#383=CIRCLE('',#951,2.1);
#384=CIRCLE('',#956,11.0052558883258);
#385=CIRCLE('',#957,0.750000000000001);
#386=CIRCLE('',#958,0.750000000000001);
#387=CIRCLE('',#959,0.750000000000001);
#388=CIRCLE('',#960,0.750000000000001);
#389=CIRCLE('',#961,2.1);
#390=CIRCLE('',#962,2.1);
#391=VERTEX_POINT('',#1220);
#392=VERTEX_POINT('',#1222);
#393=VERTEX_POINT('',#1226);
#394=VERTEX_POINT('',#1228);
#395=VERTEX_POINT('',#1232);
#396=VERTEX_POINT('',#1234);
#397=VERTEX_POINT('',#1238);
#398=VERTEX_POINT('',#1239);
#399=VERTEX_POINT('',#1241);
#400=VERTEX_POINT('',#1243);
#401=VERTEX_POINT('',#1247);
#402=VERTEX_POINT('',#1248);
#403=VERTEX_POINT('',#1250);
#404=VERTEX_POINT('',#1252);
#405=VERTEX_POINT('',#1256);
#406=VERTEX_POINT('',#1258);
#407=VERTEX_POINT('',#1260);
#408=VERTEX_POINT('',#1262);
#409=VERTEX_POINT('',#1264);
#410=VERTEX_POINT('',#1266);
#411=VERTEX_POINT('',#1268);
#412=VERTEX_POINT('',#1270);
#413=VERTEX_POINT('',#1272);
#414=VERTEX_POINT('',#1274);
#415=VERTEX_POINT('',#1276);
#416=VERTEX_POINT('',#1278);
#417=VERTEX_POINT('',#1281);
#418=VERTEX_POINT('',#1283);
#419=VERTEX_POINT('',#1285);
#420=VERTEX_POINT('',#1287);
#421=VERTEX_POINT('',#1290);
#422=VERTEX_POINT('',#1291);
#423=VERTEX_POINT('',#1293);
#424=VERTEX_POINT('',#1295);
#425=VERTEX_POINT('',#1298);
#426=VERTEX_POINT('',#1299);
#427=VERTEX_POINT('',#1301);
#428=VERTEX_POINT('',#1304);
#429=VERTEX_POINT('',#1305);
#430=VERTEX_POINT('',#1307);
#431=VERTEX_POINT('',#1310);
#432=VERTEX_POINT('',#1311);
#433=VERTEX_POINT('',#1314);
#434=VERTEX_POINT('',#1315);
#435=VERTEX_POINT('',#1318);
#436=VERTEX_POINT('',#1319);
#437=VERTEX_POINT('',#1322);
#438=VERTEX_POINT('',#1323);
#439=VERTEX_POINT('',#1327);
#440=VERTEX_POINT('',#1329);
#441=VERTEX_POINT('',#1333);
#442=VERTEX_POINT('',#1337);
#443=VERTEX_POINT('',#1341);
#444=VERTEX_POINT('',#1345);
#445=VERTEX_POINT('',#1351);
#446=VERTEX_POINT('',#1355);
#447=VERTEX_POINT('',#1357);
#448=VERTEX_POINT('',#1361);
#449=VERTEX_POINT('',#1363);
#450=VERTEX_POINT('',#1367);
#451=VERTEX_POINT('',#1369);
#452=VERTEX_POINT('',#1373);
#453=VERTEX_POINT('',#1377);
#454=VERTEX_POINT('',#1379);
#455=VERTEX_POINT('',#1383);
#456=VERTEX_POINT('',#1385);
#457=VERTEX_POINT('',#1389);
#458=VERTEX_POINT('',#1391);
#459=VERTEX_POINT('',#1395);
#460=VERTEX_POINT('',#1397);
#461=VERTEX_POINT('',#1401);
#462=VERTEX_POINT('',#1405);
#463=VERTEX_POINT('',#1409);
#464=VERTEX_POINT('',#1413);
#465=VERTEX_POINT('',#1415);
#466=VERTEX_POINT('',#1418);
#467=VERTEX_POINT('',#1420);
#468=VERTEX_POINT('',#1422);
#469=VERTEX_POINT('',#1424);
#470=VERTEX_POINT('',#1426);
#471=VERTEX_POINT('',#1428);
#472=VERTEX_POINT('',#1435);
#473=EDGE_CURVE('',#391,#391,#365,.T.);
#474=EDGE_CURVE('',#391,#392,#171,.T.);
#475=EDGE_CURVE('',#392,#392,#366,.T.);
#476=EDGE_CURVE('',#393,#393,#367,.T.);
#477=EDGE_CURVE('',#393,#394,#172,.T.);
#478=EDGE_CURVE('',#394,#394,#368,.T.);
#479=EDGE_CURVE('',#395,#395,#369,.T.);
#480=EDGE_CURVE('',#395,#396,#173,.T.);
#481=EDGE_CURVE('',#396,#396,#370,.T.);
#482=EDGE_CURVE('',#397,#398,#174,.T.);
#483=EDGE_CURVE('',#399,#397,#175,.T.);
#484=EDGE_CURVE('',#400,#399,#176,.T.);
#485=EDGE_CURVE('',#400,#398,#177,.T.);
#486=EDGE_CURVE('',#401,#402,#178,.T.);
#487=EDGE_CURVE('',#403,#401,#179,.T.);
#488=EDGE_CURVE('',#404,#403,#180,.T.);
#489=EDGE_CURVE('',#402,#404,#181,.T.);
#490=EDGE_CURVE('',#405,#398,#371,.T.);
#491=EDGE_CURVE('',#406,#405,#182,.T.);
#492=EDGE_CURVE('',#407,#406,#183,.T.);
#493=EDGE_CURVE('',#408,#407,#184,.T.);
#494=EDGE_CURVE('',#409,#408,#185,.T.);
#495=EDGE_CURVE('',#410,#409,#186,.T.);
#496=EDGE_CURVE('',#411,#410,#187,.T.);
#497=EDGE_CURVE('',#412,#411,#188,.T.);
#498=EDGE_CURVE('',#413,#412,#189,.T.);
#499=EDGE_CURVE('',#414,#413,#190,.T.);
#500=EDGE_CURVE('',#415,#414,#191,.T.);
#501=EDGE_CURVE('',#416,#415,#192,.T.);
#502=EDGE_CURVE('',#401,#416,#372,.T.);
#503=EDGE_CURVE('',#402,#417,#193,.T.);
#504=EDGE_CURVE('',#417,#418,#194,.T.);
#505=EDGE_CURVE('',#418,#419,#195,.T.);
#506=EDGE_CURVE('',#419,#420,#196,.T.);
#507=EDGE_CURVE('',#420,#397,#197,.T.);
#508=EDGE_CURVE('',#421,#422,#198,.T.);
#509=EDGE_CURVE('',#423,#421,#373,.T.);
#510=EDGE_CURVE('',#424,#423,#199,.T.);
#511=EDGE_CURVE('',#422,#424,#374,.T.);
#512=EDGE_CURVE('',#425,#426,#200,.T.);
#513=EDGE_CURVE('',#427,#425,#201,.T.);
#514=EDGE_CURVE('',#426,#427,#375,.T.);
#515=EDGE_CURVE('',#428,#429,#202,.T.);
#516=EDGE_CURVE('',#430,#428,#376,.T.);
#517=EDGE_CURVE('',#429,#430,#203,.T.);
#518=EDGE_CURVE('',#431,#432,#204,.T.);
#519=EDGE_CURVE('',#432,#431,#377,.T.);
#520=EDGE_CURVE('',#433,#434,#205,.T.);
#521=EDGE_CURVE('',#434,#433,#378,.T.);
#522=EDGE_CURVE('',#435,#436,#206,.T.);
#523=EDGE_CURVE('',#436,#435,#379,.T.);
#524=EDGE_CURVE('',#437,#438,#207,.T.);
#525=EDGE_CURVE('',#438,#437,#380,.T.);
#526=EDGE_CURVE('',#439,#411,#208,.T.);
#527=EDGE_CURVE('',#440,#439,#209,.T.);
#528=EDGE_CURVE('',#440,#412,#210,.T.);
#529=EDGE_CURVE('',#441,#440,#211,.T.);
#530=EDGE_CURVE('',#441,#413,#212,.T.);
#531=EDGE_CURVE('',#442,#441,#213,.T.);
#532=EDGE_CURVE('',#442,#414,#214,.T.);
#533=EDGE_CURVE('',#443,#442,#215,.T.);
#534=EDGE_CURVE('',#443,#415,#216,.T.);
#535=EDGE_CURVE('',#444,#443,#217,.T.);
#536=EDGE_CURVE('',#444,#416,#218,.T.);
#537=EDGE_CURVE('',#403,#444,#381,.T.);
#538=EDGE_CURVE('',#420,#445,#219,.T.);
#539=EDGE_CURVE('',#399,#445,#220,.T.);
#540=EDGE_CURVE('',#446,#438,#221,.T.);
#541=EDGE_CURVE('',#447,#446,#222,.T.);
#542=EDGE_CURVE('',#437,#447,#223,.T.);
#543=EDGE_CURVE('',#448,#436,#224,.T.);
#544=EDGE_CURVE('',#449,#448,#225,.T.);
#545=EDGE_CURVE('',#435,#449,#226,.T.);
#546=EDGE_CURVE('',#450,#430,#227,.T.);
#547=EDGE_CURVE('',#451,#450,#228,.T.);
#548=EDGE_CURVE('',#451,#429,#229,.T.);
#549=EDGE_CURVE('',#452,#404,#230,.T.);
#550=EDGE_CURVE('',#452,#417,#231,.T.);
#551=EDGE_CURVE('',#453,#434,#232,.T.);
#552=EDGE_CURVE('',#454,#453,#233,.T.);
#553=EDGE_CURVE('',#433,#454,#234,.T.);
#554=EDGE_CURVE('',#455,#432,#235,.T.);
#555=EDGE_CURVE('',#456,#455,#236,.T.);
#556=EDGE_CURVE('',#431,#456,#237,.T.);
#557=EDGE_CURVE('',#457,#424,#238,.T.);
#558=EDGE_CURVE('',#458,#457,#382,.T.);
#559=EDGE_CURVE('',#458,#422,#239,.T.);
#560=EDGE_CURVE('',#427,#459,#240,.T.);
#561=EDGE_CURVE('',#460,#459,#383,.T.);
#562=EDGE_CURVE('',#460,#426,#241,.T.);
#563=EDGE_CURVE('',#461,#451,#242,.T.);
#564=EDGE_CURVE('',#428,#461,#243,.T.);
#565=EDGE_CURVE('',#462,#460,#244,.T.);
#566=EDGE_CURVE('',#425,#462,#245,.T.);
#567=EDGE_CURVE('',#463,#458,#246,.T.);
#568=EDGE_CURVE('',#421,#463,#247,.T.);
#569=EDGE_CURVE('',#445,#464,#248,.T.);
#570=EDGE_CURVE('',#464,#465,#249,.T.);
#571=EDGE_CURVE('',#465,#452,#250,.T.);
#572=EDGE_CURVE('',#439,#466,#251,.T.);
#573=EDGE_CURVE('',#466,#467,#252,.T.);
#574=EDGE_CURVE('',#467,#468,#253,.T.);
#575=EDGE_CURVE('',#468,#469,#254,.T.);
#576=EDGE_CURVE('',#469,#470,#255,.T.);
#577=EDGE_CURVE('',#470,#471,#256,.T.);
#578=EDGE_CURVE('',#471,#400,#384,.T.);
#579=EDGE_CURVE('',#446,#447,#385,.T.);
#580=EDGE_CURVE('',#448,#449,#386,.T.);
#581=EDGE_CURVE('',#455,#456,#387,.T.);
#582=EDGE_CURVE('',#453,#454,#388,.T.);
#583=EDGE_CURVE('',#457,#472,#257,.T.);
#584=EDGE_CURVE('',#472,#463,#389,.T.);
#585=EDGE_CURVE('',#459,#462,#258,.T.);
#586=EDGE_CURVE('',#450,#461,#390,.T.);
#587=EDGE_CURVE('',#472,#423,#259,.T.);
#588=EDGE_CURVE('',#471,#405,#260,.T.);
#589=EDGE_CURVE('',#470,#406,#261,.T.);
#590=EDGE_CURVE('',#469,#407,#262,.T.);
#591=EDGE_CURVE('',#468,#408,#263,.T.);
#592=EDGE_CURVE('',#467,#409,#264,.T.);
#593=EDGE_CURVE('',#466,#410,#265,.T.);
#594=EDGE_CURVE('',#465,#418,#266,.T.);
#595=EDGE_CURVE('',#419,#464,#267,.T.);
#596=ORIENTED_EDGE('',*,*,#473,.F.);
#597=ORIENTED_EDGE('',*,*,#474,.T.);
#598=ORIENTED_EDGE('',*,*,#475,.F.);
#599=ORIENTED_EDGE('',*,*,#474,.F.);
#600=ORIENTED_EDGE('',*,*,#476,.F.);
#601=ORIENTED_EDGE('',*,*,#477,.T.);
#602=ORIENTED_EDGE('',*,*,#478,.F.);
#603=ORIENTED_EDGE('',*,*,#477,.F.);
#604=ORIENTED_EDGE('',*,*,#479,.F.);
#605=ORIENTED_EDGE('',*,*,#480,.T.);
#606=ORIENTED_EDGE('',*,*,#481,.F.);
#607=ORIENTED_EDGE('',*,*,#480,.F.);
#608=ORIENTED_EDGE('',*,*,#482,.F.);
#609=ORIENTED_EDGE('',*,*,#483,.F.);
#610=ORIENTED_EDGE('',*,*,#484,.F.);
#611=ORIENTED_EDGE('',*,*,#485,.T.);
#612=ORIENTED_EDGE('',*,*,#486,.F.);
#613=ORIENTED_EDGE('',*,*,#487,.F.);
#614=ORIENTED_EDGE('',*,*,#488,.F.);
#615=ORIENTED_EDGE('',*,*,#489,.F.);
#616=ORIENTED_EDGE('',*,*,#482,.T.);
#617=ORIENTED_EDGE('',*,*,#490,.F.);
#618=ORIENTED_EDGE('',*,*,#491,.F.);
#619=ORIENTED_EDGE('',*,*,#492,.F.);
#620=ORIENTED_EDGE('',*,*,#493,.F.);
#621=ORIENTED_EDGE('',*,*,#494,.F.);
#622=ORIENTED_EDGE('',*,*,#495,.F.);
#623=ORIENTED_EDGE('',*,*,#496,.F.);
#624=ORIENTED_EDGE('',*,*,#497,.F.);
#625=ORIENTED_EDGE('',*,*,#498,.F.);
#626=ORIENTED_EDGE('',*,*,#499,.F.);
#627=ORIENTED_EDGE('',*,*,#500,.F.);
#628=ORIENTED_EDGE('',*,*,#501,.F.);
#629=ORIENTED_EDGE('',*,*,#502,.F.);
#630=ORIENTED_EDGE('',*,*,#486,.T.);
#631=ORIENTED_EDGE('',*,*,#503,.T.);
#632=ORIENTED_EDGE('',*,*,#504,.T.);
#633=ORIENTED_EDGE('',*,*,#505,.T.);
#634=ORIENTED_EDGE('',*,*,#506,.T.);
#635=ORIENTED_EDGE('',*,*,#507,.T.);
#636=ORIENTED_EDGE('',*,*,#478,.T.);
#637=ORIENTED_EDGE('',*,*,#481,.T.);
#638=ORIENTED_EDGE('',*,*,#508,.F.);
#639=ORIENTED_EDGE('',*,*,#509,.F.);
#640=ORIENTED_EDGE('',*,*,#510,.F.);
#641=ORIENTED_EDGE('',*,*,#511,.F.);
#642=ORIENTED_EDGE('',*,*,#512,.F.);
#643=ORIENTED_EDGE('',*,*,#513,.F.);
#644=ORIENTED_EDGE('',*,*,#514,.F.);
#645=ORIENTED_EDGE('',*,*,#515,.F.);
#646=ORIENTED_EDGE('',*,*,#516,.F.);
#647=ORIENTED_EDGE('',*,*,#517,.F.);
#648=ORIENTED_EDGE('',*,*,#518,.F.);
#649=ORIENTED_EDGE('',*,*,#519,.F.);
#650=ORIENTED_EDGE('',*,*,#520,.F.);
#651=ORIENTED_EDGE('',*,*,#521,.F.);
#652=ORIENTED_EDGE('',*,*,#522,.F.);
#653=ORIENTED_EDGE('',*,*,#523,.F.);
#654=ORIENTED_EDGE('',*,*,#524,.F.);
#655=ORIENTED_EDGE('',*,*,#525,.F.);
#656=ORIENTED_EDGE('',*,*,#475,.T.);
#657=ORIENTED_EDGE('',*,*,#497,.T.);
#658=ORIENTED_EDGE('',*,*,#526,.F.);
#659=ORIENTED_EDGE('',*,*,#527,.F.);
#660=ORIENTED_EDGE('',*,*,#528,.T.);
#661=ORIENTED_EDGE('',*,*,#498,.T.);
#662=ORIENTED_EDGE('',*,*,#528,.F.);
#663=ORIENTED_EDGE('',*,*,#529,.F.);
#664=ORIENTED_EDGE('',*,*,#530,.T.);
#665=ORIENTED_EDGE('',*,*,#499,.T.);
#666=ORIENTED_EDGE('',*,*,#530,.F.);
#667=ORIENTED_EDGE('',*,*,#531,.F.);
#668=ORIENTED_EDGE('',*,*,#532,.T.);
#669=ORIENTED_EDGE('',*,*,#500,.T.);
#670=ORIENTED_EDGE('',*,*,#532,.F.);
#671=ORIENTED_EDGE('',*,*,#533,.F.);
#672=ORIENTED_EDGE('',*,*,#534,.T.);
#673=ORIENTED_EDGE('',*,*,#501,.T.);
#674=ORIENTED_EDGE('',*,*,#534,.F.);
#675=ORIENTED_EDGE('',*,*,#535,.F.);
#676=ORIENTED_EDGE('',*,*,#536,.T.);
#677=ORIENTED_EDGE('',*,*,#502,.T.);
#678=ORIENTED_EDGE('',*,*,#536,.F.);
#679=ORIENTED_EDGE('',*,*,#537,.F.);
#680=ORIENTED_EDGE('',*,*,#487,.T.);
#681=ORIENTED_EDGE('',*,*,#483,.T.);
#682=ORIENTED_EDGE('',*,*,#507,.F.);
#683=ORIENTED_EDGE('',*,*,#538,.T.);
#684=ORIENTED_EDGE('',*,*,#539,.F.);
#685=ORIENTED_EDGE('',*,*,#524,.T.);
#686=ORIENTED_EDGE('',*,*,#540,.F.);
#687=ORIENTED_EDGE('',*,*,#541,.F.);
#688=ORIENTED_EDGE('',*,*,#542,.F.);
#689=ORIENTED_EDGE('',*,*,#522,.T.);
#690=ORIENTED_EDGE('',*,*,#543,.F.);
#691=ORIENTED_EDGE('',*,*,#544,.F.);
#692=ORIENTED_EDGE('',*,*,#545,.F.);
#693=ORIENTED_EDGE('',*,*,#517,.T.);
#694=ORIENTED_EDGE('',*,*,#546,.F.);
#695=ORIENTED_EDGE('',*,*,#547,.F.);
#696=ORIENTED_EDGE('',*,*,#548,.T.);
#697=ORIENTED_EDGE('',*,*,#489,.T.);
#698=ORIENTED_EDGE('',*,*,#549,.F.);
#699=ORIENTED_EDGE('',*,*,#550,.T.);
#700=ORIENTED_EDGE('',*,*,#503,.F.);
#701=ORIENTED_EDGE('',*,*,#520,.T.);
#702=ORIENTED_EDGE('',*,*,#551,.F.);
#703=ORIENTED_EDGE('',*,*,#552,.F.);
#704=ORIENTED_EDGE('',*,*,#553,.F.);
#705=ORIENTED_EDGE('',*,*,#518,.T.);
#706=ORIENTED_EDGE('',*,*,#554,.F.);
#707=ORIENTED_EDGE('',*,*,#555,.F.);
#708=ORIENTED_EDGE('',*,*,#556,.F.);
#709=ORIENTED_EDGE('',*,*,#511,.T.);
#710=ORIENTED_EDGE('',*,*,#557,.F.);
#711=ORIENTED_EDGE('',*,*,#558,.F.);
#712=ORIENTED_EDGE('',*,*,#559,.T.);
#713=ORIENTED_EDGE('',*,*,#514,.T.);
#714=ORIENTED_EDGE('',*,*,#560,.T.);
#715=ORIENTED_EDGE('',*,*,#561,.F.);
#716=ORIENTED_EDGE('',*,*,#562,.T.);
#717=ORIENTED_EDGE('',*,*,#515,.T.);
#718=ORIENTED_EDGE('',*,*,#548,.F.);
#719=ORIENTED_EDGE('',*,*,#563,.F.);
#720=ORIENTED_EDGE('',*,*,#564,.F.);
#721=ORIENTED_EDGE('',*,*,#512,.T.);
#722=ORIENTED_EDGE('',*,*,#562,.F.);
#723=ORIENTED_EDGE('',*,*,#565,.F.);
#724=ORIENTED_EDGE('',*,*,#566,.F.);
#725=ORIENTED_EDGE('',*,*,#508,.T.);
#726=ORIENTED_EDGE('',*,*,#559,.F.);
#727=ORIENTED_EDGE('',*,*,#567,.F.);
#728=ORIENTED_EDGE('',*,*,#568,.F.);
#729=ORIENTED_EDGE('',*,*,#484,.T.);
#730=ORIENTED_EDGE('',*,*,#539,.T.);
#731=ORIENTED_EDGE('',*,*,#569,.T.);
#732=ORIENTED_EDGE('',*,*,#570,.T.);
#733=ORIENTED_EDGE('',*,*,#571,.T.);
#734=ORIENTED_EDGE('',*,*,#549,.T.);
#735=ORIENTED_EDGE('',*,*,#488,.T.);
#736=ORIENTED_EDGE('',*,*,#537,.T.);
#737=ORIENTED_EDGE('',*,*,#535,.T.);
#738=ORIENTED_EDGE('',*,*,#533,.T.);
#739=ORIENTED_EDGE('',*,*,#531,.T.);
#740=ORIENTED_EDGE('',*,*,#529,.T.);
#741=ORIENTED_EDGE('',*,*,#527,.T.);
#742=ORIENTED_EDGE('',*,*,#572,.T.);
#743=ORIENTED_EDGE('',*,*,#573,.T.);
#744=ORIENTED_EDGE('',*,*,#574,.T.);
#745=ORIENTED_EDGE('',*,*,#575,.T.);
#746=ORIENTED_EDGE('',*,*,#576,.T.);
#747=ORIENTED_EDGE('',*,*,#577,.T.);
#748=ORIENTED_EDGE('',*,*,#578,.T.);
#749=ORIENTED_EDGE('',*,*,#476,.T.);
#750=ORIENTED_EDGE('',*,*,#479,.T.);
#751=ORIENTED_EDGE('',*,*,#579,.T.);
#752=ORIENTED_EDGE('',*,*,#541,.T.);
#753=ORIENTED_EDGE('',*,*,#580,.T.);
#754=ORIENTED_EDGE('',*,*,#544,.T.);
#755=ORIENTED_EDGE('',*,*,#581,.T.);
#756=ORIENTED_EDGE('',*,*,#555,.T.);
#757=ORIENTED_EDGE('',*,*,#582,.T.);
#758=ORIENTED_EDGE('',*,*,#552,.T.);
#759=ORIENTED_EDGE('',*,*,#567,.T.);
#760=ORIENTED_EDGE('',*,*,#558,.T.);
#761=ORIENTED_EDGE('',*,*,#583,.T.);
#762=ORIENTED_EDGE('',*,*,#584,.T.);
#763=ORIENTED_EDGE('',*,*,#565,.T.);
#764=ORIENTED_EDGE('',*,*,#561,.T.);
#765=ORIENTED_EDGE('',*,*,#585,.T.);
#766=ORIENTED_EDGE('',*,*,#547,.T.);
#767=ORIENTED_EDGE('',*,*,#586,.T.);
#768=ORIENTED_EDGE('',*,*,#563,.T.);
#769=ORIENTED_EDGE('',*,*,#473,.T.);
#770=ORIENTED_EDGE('',*,*,#525,.T.);
#771=ORIENTED_EDGE('',*,*,#542,.T.);
#772=ORIENTED_EDGE('',*,*,#579,.F.);
#773=ORIENTED_EDGE('',*,*,#540,.T.);
#774=ORIENTED_EDGE('',*,*,#523,.T.);
#775=ORIENTED_EDGE('',*,*,#545,.T.);
#776=ORIENTED_EDGE('',*,*,#580,.F.);
#777=ORIENTED_EDGE('',*,*,#543,.T.);
#778=ORIENTED_EDGE('',*,*,#521,.T.);
#779=ORIENTED_EDGE('',*,*,#553,.T.);
#780=ORIENTED_EDGE('',*,*,#582,.F.);
#781=ORIENTED_EDGE('',*,*,#551,.T.);
#782=ORIENTED_EDGE('',*,*,#519,.T.);
#783=ORIENTED_EDGE('',*,*,#556,.T.);
#784=ORIENTED_EDGE('',*,*,#581,.F.);
#785=ORIENTED_EDGE('',*,*,#554,.T.);
#786=ORIENTED_EDGE('',*,*,#516,.T.);
#787=ORIENTED_EDGE('',*,*,#564,.T.);
#788=ORIENTED_EDGE('',*,*,#586,.F.);
#789=ORIENTED_EDGE('',*,*,#546,.T.);
#790=ORIENTED_EDGE('',*,*,#513,.T.);
#791=ORIENTED_EDGE('',*,*,#566,.T.);
#792=ORIENTED_EDGE('',*,*,#585,.F.);
#793=ORIENTED_EDGE('',*,*,#560,.F.);
#794=ORIENTED_EDGE('',*,*,#509,.T.);
#795=ORIENTED_EDGE('',*,*,#568,.T.);
#796=ORIENTED_EDGE('',*,*,#584,.F.);
#797=ORIENTED_EDGE('',*,*,#587,.T.);
#798=ORIENTED_EDGE('',*,*,#510,.T.);
#799=ORIENTED_EDGE('',*,*,#587,.F.);
#800=ORIENTED_EDGE('',*,*,#583,.F.);
#801=ORIENTED_EDGE('',*,*,#557,.T.);
#802=ORIENTED_EDGE('',*,*,#490,.T.);
#803=ORIENTED_EDGE('',*,*,#485,.F.);
#804=ORIENTED_EDGE('',*,*,#578,.F.);
#805=ORIENTED_EDGE('',*,*,#588,.T.);
#806=ORIENTED_EDGE('',*,*,#491,.T.);
#807=ORIENTED_EDGE('',*,*,#588,.F.);
#808=ORIENTED_EDGE('',*,*,#577,.F.);
#809=ORIENTED_EDGE('',*,*,#589,.T.);
#810=ORIENTED_EDGE('',*,*,#492,.T.);
#811=ORIENTED_EDGE('',*,*,#589,.F.);
#812=ORIENTED_EDGE('',*,*,#576,.F.);
#813=ORIENTED_EDGE('',*,*,#590,.T.);
#814=ORIENTED_EDGE('',*,*,#493,.T.);
#815=ORIENTED_EDGE('',*,*,#590,.F.);
#816=ORIENTED_EDGE('',*,*,#575,.F.);
#817=ORIENTED_EDGE('',*,*,#591,.T.);
#818=ORIENTED_EDGE('',*,*,#494,.T.);
#819=ORIENTED_EDGE('',*,*,#591,.F.);
#820=ORIENTED_EDGE('',*,*,#574,.F.);
#821=ORIENTED_EDGE('',*,*,#592,.T.);
#822=ORIENTED_EDGE('',*,*,#496,.T.);
#823=ORIENTED_EDGE('',*,*,#593,.F.);
#824=ORIENTED_EDGE('',*,*,#572,.F.);
#825=ORIENTED_EDGE('',*,*,#526,.T.);
#826=ORIENTED_EDGE('',*,*,#495,.T.);
#827=ORIENTED_EDGE('',*,*,#592,.F.);
#828=ORIENTED_EDGE('',*,*,#573,.F.);
#829=ORIENTED_EDGE('',*,*,#593,.T.);
#830=ORIENTED_EDGE('',*,*,#504,.F.);
#831=ORIENTED_EDGE('',*,*,#550,.F.);
#832=ORIENTED_EDGE('',*,*,#571,.F.);
#833=ORIENTED_EDGE('',*,*,#594,.T.);
#834=ORIENTED_EDGE('',*,*,#505,.F.);
#835=ORIENTED_EDGE('',*,*,#594,.F.);
#836=ORIENTED_EDGE('',*,*,#570,.F.);
#837=ORIENTED_EDGE('',*,*,#595,.F.);
#838=ORIENTED_EDGE('',*,*,#506,.F.);
#839=ORIENTED_EDGE('',*,*,#595,.T.);
#840=ORIENTED_EDGE('',*,*,#569,.F.);
#841=ORIENTED_EDGE('',*,*,#538,.F.);
#842=CYLINDRICAL_SURFACE('',#912,1.5);
#843=CYLINDRICAL_SURFACE('',#915,1.5);
#844=CYLINDRICAL_SURFACE('',#918,1.5);
#845=CYLINDRICAL_SURFACE('',#939,11.0052558883258);
#846=CYLINDRICAL_SURFACE('',#948,2.1);
#847=CYLINDRICAL_SURFACE('',#950,2.1);
#848=CYLINDRICAL_SURFACE('',#963,0.750000000000001);
#849=CYLINDRICAL_SURFACE('',#964,0.750000000000001);
#850=CYLINDRICAL_SURFACE('',#965,0.750000000000001);
#851=CYLINDRICAL_SURFACE('',#966,0.750000000000001);
#852=CYLINDRICAL_SURFACE('',#967,2.1);
#853=CYLINDRICAL_SURFACE('',#969,2.1);
#854=CYLINDRICAL_SURFACE('',#971,11.0052558883258);
#855=ADVANCED_FACE('',(#65),#842,.F.);
#856=ADVANCED_FACE('',(#66),#843,.F.);
#857=ADVANCED_FACE('',(#67),#844,.F.);
#858=ADVANCED_FACE('',(#68),#35,.F.);
#859=ADVANCED_FACE('',(#69),#36,.F.);
#860=ADVANCED_FACE('',(#70,#15,#16,#17,#18,#19,#20,#21,#22,#23,#24),#37,
 .F.);
#861=ADVANCED_FACE('',(#71),#38,.T.);
#862=ADVANCED_FACE('',(#72),#39,.T.);
#863=ADVANCED_FACE('',(#73),#40,.T.);
#864=ADVANCED_FACE('',(#74),#41,.T.);
#865=ADVANCED_FACE('',(#75),#42,.T.);
#866=ADVANCED_FACE('',(#76),#845,.F.);
#867=ADVANCED_FACE('',(#77),#43,.T.);
#868=ADVANCED_FACE('',(#78),#44,.T.);
#869=ADVANCED_FACE('',(#79),#45,.T.);
#870=ADVANCED_FACE('',(#80),#46,.T.);
#871=ADVANCED_FACE('',(#81),#47,.T.);
#872=ADVANCED_FACE('',(#82),#48,.T.);
#873=ADVANCED_FACE('',(#83),#49,.T.);
#874=ADVANCED_FACE('',(#84),#846,.T.);
#875=ADVANCED_FACE('',(#85),#847,.T.);
#876=ADVANCED_FACE('',(#86),#50,.F.);
#877=ADVANCED_FACE('',(#87),#51,.F.);
#878=ADVANCED_FACE('',(#88),#52,.F.);
#879=ADVANCED_FACE('',(#89,#25,#26,#27,#28,#29,#30,#31,#32,#33,#34),#53,
 .F.);
#880=ADVANCED_FACE('',(#90),#848,.F.);
#881=ADVANCED_FACE('',(#91),#849,.F.);
#882=ADVANCED_FACE('',(#92),#850,.F.);
#883=ADVANCED_FACE('',(#93),#851,.F.);
#884=ADVANCED_FACE('',(#94),#852,.T.);
#885=ADVANCED_FACE('',(#95),#54,.T.);
#886=ADVANCED_FACE('',(#96),#853,.T.);
#887=ADVANCED_FACE('',(#97),#55,.T.);
#888=ADVANCED_FACE('',(#98),#854,.F.);
#889=ADVANCED_FACE('',(#99),#56,.T.);
#890=ADVANCED_FACE('',(#100),#57,.T.);
#891=ADVANCED_FACE('',(#101),#58,.T.);
#892=ADVANCED_FACE('',(#102),#59,.T.);
#893=ADVANCED_FACE('',(#103),#60,.T.);
#894=ADVANCED_FACE('',(#104),#61,.T.);
#895=ADVANCED_FACE('',(#105),#62,.F.);
#896=ADVANCED_FACE('',(#106),#63,.T.);
#897=ADVANCED_FACE('',(#107),#64,.T.);
#898=CLOSED_SHELL('',(#855,#856,#857,#858,#859,#860,#861,#862,#863,#864,
#865,#866,#867,#868,#869,#870,#871,#872,#873,#874,#875,#876,#877,#878,#879,
#880,#881,#882,#883,#884,#885,#886,#887,#888,#889,#890,#891,#892,#893,#894,
#895,#896,#897));
#899=DERIVED_UNIT_ELEMENT(#901,1.);
#900=DERIVED_UNIT_ELEMENT(#1472,-3.);
#901=(
MASS_UNIT()
NAMED_UNIT(*)
SI_UNIT(.KILO.,.GRAM.)
);
#902=DERIVED_UNIT((#899,#900));
#903=MEASURE_REPRESENTATION_ITEM('density measure',
POSITIVE_RATIO_MEASURE(7850.),#902);
#904=PROPERTY_DEFINITION_REPRESENTATION(#909,#906);
#905=PROPERTY_DEFINITION_REPRESENTATION(#910,#907);
#906=REPRESENTATION('material name',(#908),#1469);
#907=REPRESENTATION('density',(#903),#1469);
#908=DESCRIPTIVE_REPRESENTATION_ITEM('Steel','Steel');
#909=PROPERTY_DEFINITION('material property','material name',#1479);
#910=PROPERTY_DEFINITION('material property','density of part',#1479);
#911=AXIS2_PLACEMENT_3D('',#1218,#981,#982);
#912=AXIS2_PLACEMENT_3D('',#1219,#983,#984);
#913=AXIS2_PLACEMENT_3D('',#1221,#985,#986);
#914=AXIS2_PLACEMENT_3D('',#1224,#988,#989);
#915=AXIS2_PLACEMENT_3D('',#1225,#990,#991);
#916=AXIS2_PLACEMENT_3D('',#1227,#992,#993);
#917=AXIS2_PLACEMENT_3D('',#1230,#995,#996);
#918=AXIS2_PLACEMENT_3D('',#1231,#997,#998);
#919=AXIS2_PLACEMENT_3D('',#1233,#999,#1000);
#920=AXIS2_PLACEMENT_3D('',#1236,#1002,#1003);
#921=AXIS2_PLACEMENT_3D('',#1237,#1004,#1005);
#922=AXIS2_PLACEMENT_3D('',#1246,#1010,#1011);
#923=AXIS2_PLACEMENT_3D('',#1255,#1016,#1017);
#924=AXIS2_PLACEMENT_3D('',#1257,#1018,#1019);
#925=AXIS2_PLACEMENT_3D('',#1280,#1031,#1032);
#926=AXIS2_PLACEMENT_3D('',#1294,#1039,#1040);
#927=AXIS2_PLACEMENT_3D('',#1297,#1042,#1043);
#928=AXIS2_PLACEMENT_3D('',#1303,#1046,#1047);
#929=AXIS2_PLACEMENT_3D('',#1308,#1049,#1050);
#930=AXIS2_PLACEMENT_3D('',#1313,#1053,#1054);
#931=AXIS2_PLACEMENT_3D('',#1317,#1056,#1057);
#932=AXIS2_PLACEMENT_3D('',#1321,#1059,#1060);
#933=AXIS2_PLACEMENT_3D('',#1325,#1062,#1063);
#934=AXIS2_PLACEMENT_3D('',#1326,#1064,#1065);
#935=AXIS2_PLACEMENT_3D('',#1332,#1069,#1070);
#936=AXIS2_PLACEMENT_3D('',#1336,#1073,#1074);
#937=AXIS2_PLACEMENT_3D('',#1340,#1077,#1078);
#938=AXIS2_PLACEMENT_3D('',#1344,#1081,#1082);
#939=AXIS2_PLACEMENT_3D('',#1348,#1085,#1086);
#940=AXIS2_PLACEMENT_3D('',#1349,#1087,#1088);
#941=AXIS2_PLACEMENT_3D('',#1350,#1089,#1090);
#942=AXIS2_PLACEMENT_3D('',#1354,#1093,#1094);
#943=AXIS2_PLACEMENT_3D('',#1360,#1098,#1099);
#944=AXIS2_PLACEMENT_3D('',#1366,#1103,#1104);
#945=AXIS2_PLACEMENT_3D('',#1372,#1108,#1109);
#946=AXIS2_PLACEMENT_3D('',#1376,#1112,#1113);
#947=AXIS2_PLACEMENT_3D('',#1382,#1117,#1118);
#948=AXIS2_PLACEMENT_3D('',#1388,#1122,#1123);
#949=AXIS2_PLACEMENT_3D('',#1392,#1125,#1126);
#950=AXIS2_PLACEMENT_3D('',#1394,#1128,#1129);
#951=AXIS2_PLACEMENT_3D('',#1398,#1131,#1132);
#952=AXIS2_PLACEMENT_3D('',#1400,#1134,#1135);
#953=AXIS2_PLACEMENT_3D('',#1404,#1138,#1139);
#954=AXIS2_PLACEMENT_3D('',#1408,#1142,#1143);
#955=AXIS2_PLACEMENT_3D('',#1412,#1146,#1147);
#956=AXIS2_PLACEMENT_3D('',#1430,#1157,#1158);
#957=AXIS2_PLACEMENT_3D('',#1431,#1159,#1160);
#958=AXIS2_PLACEMENT_3D('',#1432,#1161,#1162);
#959=AXIS2_PLACEMENT_3D('',#1433,#1163,#1164);
#960=AXIS2_PLACEMENT_3D('',#1434,#1165,#1166);
#961=AXIS2_PLACEMENT_3D('',#1437,#1168,#1169);
#962=AXIS2_PLACEMENT_3D('',#1439,#1171,#1172);
#963=AXIS2_PLACEMENT_3D('',#1440,#1173,#1174);
#964=AXIS2_PLACEMENT_3D('',#1441,#1175,#1176);
#965=AXIS2_PLACEMENT_3D('',#1442,#1177,#1178);
#966=AXIS2_PLACEMENT_3D('',#1443,#1179,#1180);
#967=AXIS2_PLACEMENT_3D('',#1444,#1181,#1182);
#968=AXIS2_PLACEMENT_3D('',#1445,#1183,#1184);
#969=AXIS2_PLACEMENT_3D('',#1446,#1185,#1186);
#970=AXIS2_PLACEMENT_3D('',#1448,#1188,#1189);
#971=AXIS2_PLACEMENT_3D('',#1449,#1190,#1191);
#972=AXIS2_PLACEMENT_3D('',#1451,#1193,#1194);
#973=AXIS2_PLACEMENT_3D('',#1453,#1196,#1197);
#974=AXIS2_PLACEMENT_3D('',#1455,#1199,#1200);
#975=AXIS2_PLACEMENT_3D('',#1457,#1202,#1203);
#976=AXIS2_PLACEMENT_3D('',#1459,#1205,#1206);
#977=AXIS2_PLACEMENT_3D('',#1461,#1208,#1209);
#978=AXIS2_PLACEMENT_3D('',#1462,#1210,#1211);
#979=AXIS2_PLACEMENT_3D('',#1464,#1213,#1214);
#980=AXIS2_PLACEMENT_3D('',#1466,#1216,#1217);
#981=DIRECTION('axis',(0.,0.,1.));
#982=DIRECTION('refdir',(1.,0.,0.));
#983=DIRECTION('center_axis',(0.,0.,-1.));
#984=DIRECTION('ref_axis',(-1.,0.,0.));
#985=DIRECTION('center_axis',(0.,0.,-1.));
#986=DIRECTION('ref_axis',(-1.,0.,0.));
#987=DIRECTION('',(0.,0.,-1.));
#988=DIRECTION('center_axis',(0.,0.,1.));
#989=DIRECTION('ref_axis',(-1.,0.,0.));
#990=DIRECTION('center_axis',(0.,0.,-1.));
#991=DIRECTION('ref_axis',(-1.,0.,0.));
#992=DIRECTION('center_axis',(0.,0.,-1.));
#993=DIRECTION('ref_axis',(-1.,0.,0.));
#994=DIRECTION('',(0.,0.,-1.));
#995=DIRECTION('center_axis',(0.,0.,1.));
#996=DIRECTION('ref_axis',(-1.,0.,0.));
#997=DIRECTION('center_axis',(0.,0.,-1.));
#998=DIRECTION('ref_axis',(-1.,0.,0.));
#999=DIRECTION('center_axis',(0.,0.,-1.));
#1000=DIRECTION('ref_axis',(-1.,0.,0.));
#1001=DIRECTION('',(0.,0.,-1.));
#1002=DIRECTION('center_axis',(0.,0.,1.));
#1003=DIRECTION('ref_axis',(-1.,0.,0.));
#1004=DIRECTION('center_axis',(-1.,1.9628331703415E-15,0.));
#1005=DIRECTION('ref_axis',(1.9628331703415E-15,1.,0.));
#1006=DIRECTION('',(-1.9628331703415E-15,-1.,0.));
#1007=DIRECTION('',(0.,0.,-1.));
#1008=DIRECTION('',(1.9628331703415E-15,1.,0.));
#1009=DIRECTION('',(0.,0.,-1.));
#1010=DIRECTION('center_axis',(-1.,0.,0.));
#1011=DIRECTION('ref_axis',(0.,1.,0.));
#1012=DIRECTION('',(0.,-1.,0.));
#1013=DIRECTION('',(0.,0.,-1.));
#1014=DIRECTION('',(0.,1.,0.));
#1015=DIRECTION('',(0.,0.,1.));
#1016=DIRECTION('center_axis',(0.,0.,1.));
#1017=DIRECTION('ref_axis',(-1.,0.,0.));
#1018=DIRECTION('center_axis',(0.,0.,-1.));
#1019=DIRECTION('ref_axis',(-1.,-2.44929359829471E-16,0.));
#1020=DIRECTION('',(1.,2.44929359829471E-16,0.));
#1021=DIRECTION('',(2.33144553606802E-16,-1.,0.));
#1022=DIRECTION('',(1.,2.44929359829471E-16,0.));
#1023=DIRECTION('',(-2.44929359829471E-16,1.,0.));
#1024=DIRECTION('',(1.,1.50394020539182E-16,0.));
#1025=DIRECTION('',(0.,1.,0.));
#1026=DIRECTION('',(-1.,-9.45353392902892E-17,0.));
#1027=DIRECTION('',(0.,1.,0.));
#1028=DIRECTION('',(-1.,0.,0.));
#1029=DIRECTION('',(1.17848062226685E-17,-1.,0.));
#1030=DIRECTION('',(-1.,0.,0.));
#1031=DIRECTION('center_axis',(0.,0.,-1.));
#1032=DIRECTION('ref_axis',(-1.,0.,0.));
#1033=DIRECTION('',(-1.,0.,0.));
#1034=DIRECTION('',(0.,-1.,0.));
#1035=DIRECTION('',(-1.,0.,0.));
#1036=DIRECTION('',(0.,1.,0.));
#1037=DIRECTION('',(1.,0.,0.));
#1038=DIRECTION('',(0.,1.,0.));
#1039=DIRECTION('center_axis',(0.,0.,1.));
#1040=DIRECTION('ref_axis',(-1.,0.,0.));
#1041=DIRECTION('',(0.,-1.,0.));
#1042=DIRECTION('center_axis',(0.,0.,1.));
#1043=DIRECTION('ref_axis',(-1.,0.,0.));
#1044=DIRECTION('',(0.,1.,0.));
#1045=DIRECTION('',(-1.,0.,0.));
#1046=DIRECTION('center_axis',(0.,0.,1.));
#1047=DIRECTION('ref_axis',(-1.,0.,0.));
#1048=DIRECTION('',(0.,1.,0.));
#1049=DIRECTION('center_axis',(0.,0.,1.));
#1050=DIRECTION('ref_axis',(-1.,0.,0.));
#1051=DIRECTION('',(1.,0.,0.));
#1052=DIRECTION('',(-1.,0.,0.));
#1053=DIRECTION('center_axis',(0.,0.,-1.));
#1054=DIRECTION('ref_axis',(-1.,0.,0.));
#1055=DIRECTION('',(-1.,0.,0.));
#1056=DIRECTION('center_axis',(0.,0.,-1.));
#1057=DIRECTION('ref_axis',(-1.,0.,0.));
#1058=DIRECTION('',(1.,0.,0.));
#1059=DIRECTION('center_axis',(0.,0.,-1.));
#1060=DIRECTION('ref_axis',(-1.,0.,0.));
#1061=DIRECTION('',(1.,0.,0.));
#1062=DIRECTION('center_axis',(0.,0.,-1.));
#1063=DIRECTION('ref_axis',(-1.,0.,0.));
#1064=DIRECTION('center_axis',(-9.45353392902892E-17,1.,0.));
#1065=DIRECTION('ref_axis',(1.,9.45353392902892E-17,0.));
#1066=DIRECTION('',(0.,0.,-1.));
#1067=DIRECTION('',(-1.,-9.45353392902892E-17,0.));
#1068=DIRECTION('',(0.,0.,-1.));
#1069=DIRECTION('center_axis',(1.,0.,0.));
#1070=DIRECTION('ref_axis',(0.,-1.,0.));
#1071=DIRECTION('',(0.,1.,0.));
#1072=DIRECTION('',(0.,0.,-1.));
#1073=DIRECTION('center_axis',(0.,1.,0.));
#1074=DIRECTION('ref_axis',(1.,0.,0.));
#1075=DIRECTION('',(-1.,0.,0.));
#1076=DIRECTION('',(0.,0.,-1.));
#1077=DIRECTION('center_axis',(-1.,-1.17848062226685E-17,0.));
#1078=DIRECTION('ref_axis',(-1.17848062226685E-17,1.,0.));
#1079=DIRECTION('',(1.17848062226685E-17,-1.,0.));
#1080=DIRECTION('',(0.,0.,-1.));
#1081=DIRECTION('center_axis',(0.,1.,0.));
#1082=DIRECTION('ref_axis',(1.,0.,0.));
#1083=DIRECTION('',(-1.,0.,0.));
#1084=DIRECTION('',(0.,0.,-1.));
#1085=DIRECTION('center_axis',(0.,0.,-1.));
#1086=DIRECTION('ref_axis',(-1.,0.,0.));
#1087=DIRECTION('center_axis',(0.,0.,-1.));
#1088=DIRECTION('ref_axis',(-1.,0.,0.));
#1089=DIRECTION('center_axis',(0.,1.,0.));
#1090=DIRECTION('ref_axis',(0.,0.,1.));
#1091=DIRECTION('',(0.,0.,1.));
#1092=DIRECTION('',(-1.,0.,0.));
#1093=DIRECTION('center_axis',(0.,-1.,0.));
#1094=DIRECTION('ref_axis',(0.,0.,-1.));
#1095=DIRECTION('',(0.,0.,-1.));
#1096=DIRECTION('',(1.,0.,0.));
#1097=DIRECTION('',(0.,0.,1.));
#1098=DIRECTION('center_axis',(0.,-1.,0.));
#1099=DIRECTION('ref_axis',(0.,0.,-1.));
#1100=DIRECTION('',(0.,0.,-1.));
#1101=DIRECTION('',(1.,0.,0.));
#1102=DIRECTION('',(0.,0.,1.));
#1103=DIRECTION('center_axis',(0.,-1.,0.));
#1104=DIRECTION('ref_axis',(0.,0.,-1.));
#1105=DIRECTION('',(0.,0.,-1.));
#1106=DIRECTION('',(1.,0.,0.));
#1107=DIRECTION('',(0.,0.,-1.));
#1108=DIRECTION('center_axis',(0.,-1.,0.));
#1109=DIRECTION('ref_axis',(0.,0.,-1.));
#1110=DIRECTION('',(1.,0.,0.));
#1111=DIRECTION('',(0.,0.,-1.));
#1112=DIRECTION('center_axis',(0.,1.,0.));
#1113=DIRECTION('ref_axis',(0.,0.,1.));
#1114=DIRECTION('',(0.,0.,-1.));
#1115=DIRECTION('',(-1.,0.,0.));
#1116=DIRECTION('',(0.,0.,1.));
#1117=DIRECTION('center_axis',(0.,1.,0.));
#1118=DIRECTION('ref_axis',(0.,0.,1.));
#1119=DIRECTION('',(0.,0.,-1.));
#1120=DIRECTION('',(-1.,0.,0.));
#1121=DIRECTION('',(0.,0.,1.));
#1122=DIRECTION('center_axis',(0.,0.,-1.));
#1123=DIRECTION('ref_axis',(-1.,0.,0.));
#1124=DIRECTION('',(0.,0.,-1.));
#1125=DIRECTION('center_axis',(0.,0.,1.));
#1126=DIRECTION('ref_axis',(-1.,0.,0.));
#1127=DIRECTION('',(0.,0.,-1.));
#1128=DIRECTION('center_axis',(0.,0.,-1.));
#1129=DIRECTION('ref_axis',(-1.,0.,0.));
#1130=DIRECTION('',(0.,0.,1.));
#1131=DIRECTION('center_axis',(0.,0.,1.));
#1132=DIRECTION('ref_axis',(-1.,0.,0.));
#1133=DIRECTION('',(0.,0.,-1.));
#1134=DIRECTION('center_axis',(-1.,0.,0.));
#1135=DIRECTION('ref_axis',(0.,-1.,0.));
#1136=DIRECTION('',(0.,1.,0.));
#1137=DIRECTION('',(0.,0.,1.));
#1138=DIRECTION('center_axis',(-1.,0.,0.));
#1139=DIRECTION('ref_axis',(0.,-1.,0.));
#1140=DIRECTION('',(0.,1.,0.));
#1141=DIRECTION('',(0.,0.,1.));
#1142=DIRECTION('center_axis',(-1.,0.,0.));
#1143=DIRECTION('ref_axis',(0.,-1.,0.));
#1144=DIRECTION('',(0.,1.,0.));
#1145=DIRECTION('',(0.,0.,1.));
#1146=DIRECTION('center_axis',(0.,0.,-1.));
#1147=DIRECTION('ref_axis',(1.,0.,0.));
#1148=DIRECTION('',(0.,-1.,0.));
#1149=DIRECTION('',(1.,0.,0.));
#1150=DIRECTION('',(0.,1.,0.));
#1151=DIRECTION('',(0.,1.,0.));
#1152=DIRECTION('',(1.,1.50394020539182E-16,0.));
#1153=DIRECTION('',(-2.44929359829471E-16,1.,0.));
#1154=DIRECTION('',(1.,2.44929359829471E-16,0.));
#1155=DIRECTION('',(2.33144553606802E-16,-1.,0.));
#1156=DIRECTION('',(1.,2.44929359829471E-16,0.));
#1157=DIRECTION('center_axis',(0.,0.,-1.));
#1158=DIRECTION('ref_axis',(-1.,-2.44929359829471E-16,0.));
#1159=DIRECTION('center_axis',(0.,0.,-1.));
#1160=DIRECTION('ref_axis',(-1.,0.,0.));
#1161=DIRECTION('center_axis',(0.,0.,-1.));
#1162=DIRECTION('ref_axis',(-1.,0.,0.));
#1163=DIRECTION('center_axis',(0.,0.,-1.));
#1164=DIRECTION('ref_axis',(-1.,0.,0.));
#1165=DIRECTION('center_axis',(0.,0.,-1.));
#1166=DIRECTION('ref_axis',(-1.,0.,0.));
#1167=DIRECTION('',(0.,-1.,0.));
#1168=DIRECTION('center_axis',(0.,0.,1.));
#1169=DIRECTION('ref_axis',(-1.,0.,0.));
#1170=DIRECTION('',(-1.,0.,0.));
#1171=DIRECTION('center_axis',(0.,0.,1.));
#1172=DIRECTION('ref_axis',(-1.,0.,0.));
#1173=DIRECTION('center_axis',(0.,0.,-1.));
#1174=DIRECTION('ref_axis',(1.83697019872103E-16,-1.,0.));
#1175=DIRECTION('center_axis',(0.,0.,-1.));
#1176=DIRECTION('ref_axis',(1.83697019872103E-16,-1.,0.));
#1177=DIRECTION('center_axis',(0.,0.,-1.));
#1178=DIRECTION('ref_axis',(-6.12323399573677E-17,1.,0.));
#1179=DIRECTION('center_axis',(0.,0.,-1.));
#1180=DIRECTION('ref_axis',(-6.12323399573677E-17,1.,0.));
#1181=DIRECTION('center_axis',(0.,0.,-1.));
#1182=DIRECTION('ref_axis',(-1.,0.,0.));
#1183=DIRECTION('center_axis',(0.,1.,0.));
#1184=DIRECTION('ref_axis',(0.,0.,1.));
#1185=DIRECTION('center_axis',(0.,0.,-1.));
#1186=DIRECTION('ref_axis',(-1.,0.,0.));
#1187=DIRECTION('',(0.,0.,-1.));
#1188=DIRECTION('center_axis',(-1.,0.,0.));
#1189=DIRECTION('ref_axis',(0.,1.,0.));
#1190=DIRECTION('center_axis',(0.,0.,-1.));
#1191=DIRECTION('ref_axis',(-1.,-2.44929359829471E-16,0.));
#1192=DIRECTION('',(0.,0.,-1.));
#1193=DIRECTION('center_axis',(2.44929359829471E-16,-1.,0.));
#1194=DIRECTION('ref_axis',(-1.,-2.44929359829471E-16,0.));
#1195=DIRECTION('',(0.,0.,-1.));
#1196=DIRECTION('center_axis',(-1.,-2.33144553606802E-16,0.));
#1197=DIRECTION('ref_axis',(-2.33144553606802E-16,1.,0.));
#1198=DIRECTION('',(0.,0.,-1.));
#1199=DIRECTION('center_axis',(2.44929359829471E-16,-1.,0.));
#1200=DIRECTION('ref_axis',(-1.,-2.44929359829471E-16,0.));
#1201=DIRECTION('',(0.,0.,-1.));
#1202=DIRECTION('center_axis',(1.,2.44929359829471E-16,0.));
#1203=DIRECTION('ref_axis',(2.44929359829471E-16,-1.,0.));
#1204=DIRECTION('',(0.,0.,-1.));
#1205=DIRECTION('center_axis',(1.,0.,0.));
#1206=DIRECTION('ref_axis',(0.,-1.,0.));
#1207=DIRECTION('',(0.,0.,-1.));
#1208=DIRECTION('center_axis',(1.50394020539182E-16,-1.,0.));
#1209=DIRECTION('ref_axis',(-1.,-1.50394020539182E-16,0.));
#1210=DIRECTION('center_axis',(-1.,0.,0.));
#1211=DIRECTION('ref_axis',(0.,-1.,0.));
#1212=DIRECTION('',(0.,0.,-1.));
#1213=DIRECTION('center_axis',(0.,-1.,0.));
#1214=DIRECTION('ref_axis',(0.,0.,1.));
#1215=DIRECTION('',(0.,0.,1.));
#1216=DIRECTION('center_axis',(-1.,0.,0.));
#1217=DIRECTION('ref_axis',(0.,0.,1.));
#1218=CARTESIAN_POINT('',(0.,0.,0.));
#1219=CARTESIAN_POINT('Origin',(-25.000000372529,0.,19.1));
#1220=CARTESIAN_POINT('',(-23.500000372529,1.83697019872103E-16,19.1));
#1221=CARTESIAN_POINT('Origin',(-25.000000372529,0.,19.1));
#1222=CARTESIAN_POINT('',(-23.500000372529,1.83697019872103E-16,14.4));
#1223=CARTESIAN_POINT('',(-23.500000372529,-1.83697019872103E-16,19.1));
#1224=CARTESIAN_POINT('Origin',(-25.000000372529,0.,14.4));
#1225=CARTESIAN_POINT('Origin',(-10.0000001490116,-15.0000002235174,19.1));
#1226=CARTESIAN_POINT('',(-8.50000014901161,-15.0000002235174,19.1));
#1227=CARTESIAN_POINT('Origin',(-10.0000001490116,-15.0000002235174,19.1));
#1228=CARTESIAN_POINT('',(-8.50000014901161,-15.0000002235174,14.4));
#1229=CARTESIAN_POINT('',(-8.50000014901161,-15.0000002235174,19.1));
#1230=CARTESIAN_POINT('Origin',(-10.0000001490116,-15.0000002235174,14.4));
#1231=CARTESIAN_POINT('Origin',(-10.0000001490116,15.0000002235174,19.1));
#1232=CARTESIAN_POINT('',(-8.50000014901161,15.0000002235174,19.1));
#1233=CARTESIAN_POINT('Origin',(-10.0000001490116,15.0000002235174,19.1));
#1234=CARTESIAN_POINT('',(-8.50000014901161,15.0000002235174,14.4));
#1235=CARTESIAN_POINT('',(-8.50000014901161,15.0000002235174,19.1));
#1236=CARTESIAN_POINT('Origin',(-10.0000001490116,15.0000002235174,14.4));
#1237=CARTESIAN_POINT('Origin',(7.19999999999999,9.64498093142385,19.1));
#1238=CARTESIAN_POINT('',(7.2,16.9980762113533,14.4));
#1239=CARTESIAN_POINT('',(7.2,9.64498093142383,14.4));
#1240=CARTESIAN_POINT('',(7.19999999999998,4.82249046571192,14.4));
#1241=CARTESIAN_POINT('',(7.2,16.9980762113533,19.1));
#1242=CARTESIAN_POINT('',(7.2,16.9980762113533,0.35));
#1243=CARTESIAN_POINT('',(7.2,9.64498093142383,19.1));
#1244=CARTESIAN_POINT('',(7.19999999999998,4.82249046571193,19.1));
#1245=CARTESIAN_POINT('',(7.2,9.64498093142383,-15.9));
#1246=CARTESIAN_POINT('Origin',(7.2,-16.9980762113533,19.1));
#1247=CARTESIAN_POINT('',(7.2,-9.64498093142382,14.4));
#1248=CARTESIAN_POINT('',(7.2,-16.9980762113533,14.4));
#1249=CARTESIAN_POINT('',(7.2,-8.49903810567665,14.4));
#1250=CARTESIAN_POINT('',(7.2,-9.64498093142382,19.1));
#1251=CARTESIAN_POINT('',(7.2,-9.64498093142382,-15.9));
#1252=CARTESIAN_POINT('',(7.2,-16.9980762113533,19.1));
#1253=CARTESIAN_POINT('',(7.2,-8.49903810567665,19.1));
#1254=CARTESIAN_POINT('',(7.2,-16.9980762113533,0.35));
#1255=CARTESIAN_POINT('Origin',(-0.0196212272185159,0.,14.4));
#1256=CARTESIAN_POINT('',(3.61936617309727,6.50000000000001,14.4));
#1257=CARTESIAN_POINT('Origin',(12.5,1.53080849893419E-15,14.4));
#1258=CARTESIAN_POINT('',(0.949999999999998,6.50000000000001,14.4));
#1259=CARTESIAN_POINT('',(1.79987247293938,6.50000000000001,14.4));
#1260=CARTESIAN_POINT('',(0.949999999999997,10.1,14.4));
#1261=CARTESIAN_POINT('',(0.949999999999998,3.25000000000001,14.4));
#1262=CARTESIAN_POINT('',(-4.05,10.1,14.4));
#1263=CARTESIAN_POINT('',(0.465189386390739,10.1,14.4));
#1264=CARTESIAN_POINT('',(-4.05,9.2,14.4));
#1265=CARTESIAN_POINT('',(-4.05,5.05,14.4));
#1266=CARTESIAN_POINT('',(-17.4,9.2,14.4));
#1267=CARTESIAN_POINT('',(-2.03481061360926,9.2,14.4));
#1268=CARTESIAN_POINT('',(-17.4,-9.20000000000001,14.4));
#1269=CARTESIAN_POINT('',(-17.4,4.6,14.4));
#1270=CARTESIAN_POINT('',(-4.05,-9.2,14.4));
#1271=CARTESIAN_POINT('',(-8.70981061360926,-9.20000000000001,14.4));
#1272=CARTESIAN_POINT('',(-4.05,-10.1,14.4));
#1273=CARTESIAN_POINT('',(-4.05,-4.6,14.4));
#1274=CARTESIAN_POINT('',(0.949999999999999,-10.1,14.4));
#1275=CARTESIAN_POINT('',(-2.03481061360926,-10.1,14.4));
#1276=CARTESIAN_POINT('',(0.95,-6.50000000000001,14.4));
#1277=CARTESIAN_POINT('',(0.949999999999999,-5.05,14.4));
#1278=CARTESIAN_POINT('',(3.61936617309727,-6.50000000000001,14.4));
#1279=CARTESIAN_POINT('',(0.465189386390742,-6.50000000000001,14.4));
#1280=CARTESIAN_POINT('Origin',(12.5,1.53080849893419E-15,14.4));
#1281=CARTESIAN_POINT('',(-22.3,-16.9980762113533,14.4));
#1282=CARTESIAN_POINT('',(-3.7,-16.9980762113533,14.4));
#1283=CARTESIAN_POINT('',(-22.3,-17.0019237886467,14.4));
#1284=CARTESIAN_POINT('',(-22.3,-0.00192378864669496,14.4));
#1285=CARTESIAN_POINT('',(-27.3,-17.0019237886467,14.4));
#1286=CARTESIAN_POINT('',(-11.075,-17.0019237886467,14.4));
#1287=CARTESIAN_POINT('',(-27.3,16.9980762113533,14.4));
#1288=CARTESIAN_POINT('',(-27.3,-0.00192378864669496,14.4));
#1289=CARTESIAN_POINT('',(-3.7,16.9980762113533,14.4));
#1290=CARTESIAN_POINT('',(-22.3,-9.60968757625671,14.4));
#1291=CARTESIAN_POINT('',(-22.3,9.60968757625671,14.4));
#1292=CARTESIAN_POINT('',(-22.3,-0.000961894323348034,14.4));
#1293=CARTESIAN_POINT('',(-22.2980762114435,-9.60370946684141,14.4));
#1294=CARTESIAN_POINT('Origin',(-20.3,-10.25,14.4));
#1295=CARTESIAN_POINT('',(-22.2980762113533,9.6037094665524,14.4));
#1296=CARTESIAN_POINT('',(-22.2980762113533,-4.80185473342071,14.4));
#1297=CARTESIAN_POINT('Origin',(-20.3,10.25,14.4));
#1298=CARTESIAN_POINT('',(-22.3,-10.9980762113533,14.4));
#1299=CARTESIAN_POINT('',(-22.3,-10.8903124237433,14.4));
#1300=CARTESIAN_POINT('',(-22.3,-0.000961894323348034,14.4));
#1301=CARTESIAN_POINT('',(-22.2622390226492,-10.9980762113533,14.4));
#1302=CARTESIAN_POINT('',(-3.78481061360926,-10.9980762113533,14.4));
#1303=CARTESIAN_POINT('Origin',(-20.3,-10.25,14.4));
#1304=CARTESIAN_POINT('',(-22.3,10.8903124237433,14.4));
#1305=CARTESIAN_POINT('',(-22.3,10.9980762113533,14.4));
#1306=CARTESIAN_POINT('',(-22.3,-0.000961894323348034,14.4));
#1307=CARTESIAN_POINT('',(-22.2622390226492,10.9980762113533,14.4));
#1308=CARTESIAN_POINT('Origin',(-20.3,10.25,14.4));
#1309=CARTESIAN_POINT('',(-3.78481061360926,10.9980762113533,14.4));
#1310=CARTESIAN_POINT('',(4.2536840945467,-10.9980762113533,14.4));
#1311=CARTESIAN_POINT('',(4.1463159054533,-10.9980762113533,14.4));
#1312=CARTESIAN_POINT('',(-3.78481061360926,-10.9980762113533,14.4));
#1313=CARTESIAN_POINT('Origin',(4.2,-10.25,14.4));
#1314=CARTESIAN_POINT('',(-20.2463159054533,-10.9980762113533,14.4));
#1315=CARTESIAN_POINT('',(-20.3536840945467,-10.9980762113533,14.4));
#1316=CARTESIAN_POINT('',(-3.78481061360926,-10.9980762113533,14.4));
#1317=CARTESIAN_POINT('Origin',(-20.3,-10.25,14.4));
#1318=CARTESIAN_POINT('',(-20.3536840945466,10.9980762113533,14.4));
#1319=CARTESIAN_POINT('',(-20.2463159054534,10.9980762113533,14.4));
#1320=CARTESIAN_POINT('',(-3.78481061360926,10.9980762113533,14.4));
#1321=CARTESIAN_POINT('Origin',(-20.3,10.25,14.4));
#1322=CARTESIAN_POINT('',(4.14631590545339,10.9980762113533,14.4));
#1323=CARTESIAN_POINT('',(4.25368409454661,10.9980762113533,14.4));
#1324=CARTESIAN_POINT('',(-3.78481061360926,10.9980762113533,14.4));
#1325=CARTESIAN_POINT('Origin',(4.2,10.25,14.4));
#1326=CARTESIAN_POINT('Origin',(-17.4,-9.20000000000001,-15.9));
#1327=CARTESIAN_POINT('',(-17.4,-9.20000000000001,19.1));
#1328=CARTESIAN_POINT('',(-17.4,-9.20000000000001,-15.9));
#1329=CARTESIAN_POINT('',(-4.05,-9.2,19.1));
#1330=CARTESIAN_POINT('',(-17.4,-9.20000000000001,19.1));
#1331=CARTESIAN_POINT('',(-4.05,-9.2,-15.9));
#1332=CARTESIAN_POINT('Origin',(-4.05,-9.2,-15.9));
#1333=CARTESIAN_POINT('',(-4.05,-10.1,19.1));
#1334=CARTESIAN_POINT('',(-4.05,-10.1,19.1));
#1335=CARTESIAN_POINT('',(-4.05,-10.1,-15.9));
#1336=CARTESIAN_POINT('Origin',(-4.05,-10.1,-15.9));
#1337=CARTESIAN_POINT('',(0.949999999999999,-10.1,19.1));
#1338=CARTESIAN_POINT('',(0.949999999999999,-10.1,19.1));
#1339=CARTESIAN_POINT('',(0.949999999999999,-10.1,-15.9));
#1340=CARTESIAN_POINT('Origin',(0.949999999999999,-10.1,-15.9));
#1341=CARTESIAN_POINT('',(0.95,-6.50000000000001,19.1));
#1342=CARTESIAN_POINT('',(0.949999999999999,-9.2,19.1));
#1343=CARTESIAN_POINT('',(0.95,-6.50000000000001,-15.9));
#1344=CARTESIAN_POINT('Origin',(0.95,-6.50000000000001,-15.9));
#1345=CARTESIAN_POINT('',(3.61936617309727,-6.50000000000001,19.1));
#1346=CARTESIAN_POINT('',(20.8434297626248,-6.50000000000001,19.1));
#1347=CARTESIAN_POINT('',(3.61936617309727,-6.50000000000001,-15.9));
#1348=CARTESIAN_POINT('Origin',(12.5,1.53080849893419E-15,-15.9));
#1349=CARTESIAN_POINT('Origin',(12.5,1.53080849893419E-15,19.1));
#1350=CARTESIAN_POINT('Origin',(-7.55,16.9980762113533,-18.4));
#1351=CARTESIAN_POINT('',(-27.3,16.9980762113533,19.1));
#1352=CARTESIAN_POINT('',(-27.3,16.9980762113533,-15.9));
#1353=CARTESIAN_POINT('',(-22.3,16.9980762113533,19.1));
#1354=CARTESIAN_POINT('Origin',(-7.55,10.9980762113533,-18.4));
#1355=CARTESIAN_POINT('',(4.25368409454661,10.9980762113533,19.1));
#1356=CARTESIAN_POINT('',(4.25368409454661,10.9980762113533,-15.9));
#1357=CARTESIAN_POINT('',(4.14631590545339,10.9980762113533,19.1));
#1358=CARTESIAN_POINT('',(-22.3,10.9980762113533,19.1));
#1359=CARTESIAN_POINT('',(4.14631590545339,10.9980762113533,-15.9));
#1360=CARTESIAN_POINT('Origin',(-7.55,10.9980762113533,-18.4));
#1361=CARTESIAN_POINT('',(-20.2463159054534,10.9980762113533,19.1));
#1362=CARTESIAN_POINT('',(-20.2463159054534,10.9980762113533,-15.9));
#1363=CARTESIAN_POINT('',(-20.3536840945466,10.9980762113533,19.1));
#1364=CARTESIAN_POINT('',(-22.3,10.9980762113533,19.1));
#1365=CARTESIAN_POINT('',(-20.3536840945466,10.9980762113533,-15.9));
#1366=CARTESIAN_POINT('Origin',(-7.55,10.9980762113533,-18.4));
#1367=CARTESIAN_POINT('',(-22.2622390226492,10.9980762113533,19.1));
#1368=CARTESIAN_POINT('',(-22.2622390226492,10.9980762113533,-15.9));
#1369=CARTESIAN_POINT('',(-22.3,10.9980762113533,19.1));
#1370=CARTESIAN_POINT('',(-22.3,10.9980762113533,19.1));
#1371=CARTESIAN_POINT('',(-22.3,10.9980762113533,-20.9));
#1372=CARTESIAN_POINT('Origin',(-7.55,-16.9980762113533,-18.4));
#1373=CARTESIAN_POINT('',(-22.3,-16.9980762113533,19.1));
#1374=CARTESIAN_POINT('',(7.2,-16.9980762113533,19.1));
#1375=CARTESIAN_POINT('',(-22.3,-16.9980762113533,-20.9));
#1376=CARTESIAN_POINT('Origin',(-7.55,-10.9980762113533,-18.4));
#1377=CARTESIAN_POINT('',(-20.3536840945467,-10.9980762113533,19.1));
#1378=CARTESIAN_POINT('',(-20.3536840945467,-10.9980762113533,-15.9));
#1379=CARTESIAN_POINT('',(-20.2463159054533,-10.9980762113533,19.1));
#1380=CARTESIAN_POINT('',(-22.3,-10.9980762113533,19.1));
#1381=CARTESIAN_POINT('',(-20.2463159054533,-10.9980762113533,-15.9));
#1382=CARTESIAN_POINT('Origin',(-7.55,-10.9980762113533,-18.4));
#1383=CARTESIAN_POINT('',(4.1463159054533,-10.9980762113533,19.1));
#1384=CARTESIAN_POINT('',(4.1463159054533,-10.9980762113533,-15.9));
#1385=CARTESIAN_POINT('',(4.2536840945467,-10.9980762113533,19.1));
#1386=CARTESIAN_POINT('',(-22.3,-10.9980762113533,19.1));
#1387=CARTESIAN_POINT('',(4.2536840945467,-10.9980762113533,-15.9));
#1388=CARTESIAN_POINT('Origin',(-20.3,10.25,-15.9));
#1389=CARTESIAN_POINT('',(-22.2980762113533,9.6037094665524,19.1));
#1390=CARTESIAN_POINT('',(-22.2980762113533,9.6037094665524,-15.9));
#1391=CARTESIAN_POINT('',(-22.3,9.60968757625671,19.1));
#1392=CARTESIAN_POINT('Origin',(-20.3,10.25,19.1));
#1393=CARTESIAN_POINT('',(-22.3,9.60968757625671,-15.9));
#1394=CARTESIAN_POINT('Origin',(-20.3,-10.25,-15.9));
#1395=CARTESIAN_POINT('',(-22.2622390226492,-10.9980762113533,19.1));
#1396=CARTESIAN_POINT('',(-22.2622390226492,-10.9980762113533,-15.9));
#1397=CARTESIAN_POINT('',(-22.3,-10.8903124237433,19.1));
#1398=CARTESIAN_POINT('Origin',(-20.3,-10.25,19.1));
#1399=CARTESIAN_POINT('',(-22.3,-10.8903124237433,-15.9));
#1400=CARTESIAN_POINT('Origin',(-22.3,-0.00192378864669607,-18.4));
#1401=CARTESIAN_POINT('',(-22.3,10.8903124237433,19.1));
#1402=CARTESIAN_POINT('',(-22.3,16.9980762113533,19.1));
#1403=CARTESIAN_POINT('',(-22.3,10.8903124237433,-15.9));
#1404=CARTESIAN_POINT('Origin',(-22.3,-0.00192378864669607,-18.4));
#1405=CARTESIAN_POINT('',(-22.3,-10.9980762113533,19.1));
#1406=CARTESIAN_POINT('',(-22.3,16.9980762113533,19.1));
#1407=CARTESIAN_POINT('',(-22.3,-10.9980762113533,-20.9));
#1408=CARTESIAN_POINT('Origin',(-22.3,-0.00192378864669607,-18.4));
#1409=CARTESIAN_POINT('',(-22.3,-9.60968757625671,19.1));
#1410=CARTESIAN_POINT('',(-22.3,16.9980762113533,19.1));
#1411=CARTESIAN_POINT('',(-22.3,-9.60968757625671,-15.9));
#1412=CARTESIAN_POINT('Origin',(12.5,-3.21508079986924E-16,19.1));
#1413=CARTESIAN_POINT('',(-27.3,-17.0019237886467,19.1));
#1414=CARTESIAN_POINT('',(-27.3,16.9980762113533,19.1));
#1415=CARTESIAN_POINT('',(-22.3,-17.0019237886467,19.1));
#1416=CARTESIAN_POINT('',(-22.3,-17.0019237886467,19.1));
#1417=CARTESIAN_POINT('',(-22.3,16.9980762113533,19.1));
#1418=CARTESIAN_POINT('',(-17.4,9.2,19.1));
#1419=CARTESIAN_POINT('',(-17.4,-5.20417042793042E-15,19.1));
#1420=CARTESIAN_POINT('',(-4.05,9.2,19.1));
#1421=CARTESIAN_POINT('',(-17.4,9.2,19.1));
#1422=CARTESIAN_POINT('',(-4.05,10.1,19.1));
#1423=CARTESIAN_POINT('',(-4.05,10.1,19.1));
#1424=CARTESIAN_POINT('',(0.949999999999996,10.1,19.1));
#1425=CARTESIAN_POINT('',(0.949999999999997,10.1,19.1));
#1426=CARTESIAN_POINT('',(0.949999999999999,6.50000000000001,19.1));
#1427=CARTESIAN_POINT('',(0.949999999999997,9.2,19.1));
#1428=CARTESIAN_POINT('',(3.61936617309727,6.50000000000001,19.1));
#1429=CARTESIAN_POINT('',(20.8434297626248,6.50000000000001,19.1));
#1430=CARTESIAN_POINT('Origin',(12.5,1.53080849893419E-15,19.1));
#1431=CARTESIAN_POINT('Origin',(4.2,10.25,19.1));
#1432=CARTESIAN_POINT('Origin',(-20.3,10.25,19.1));
#1433=CARTESIAN_POINT('Origin',(4.2,-10.25,19.1));
#1434=CARTESIAN_POINT('Origin',(-20.3,-10.25,19.1));
#1435=CARTESIAN_POINT('',(-22.2980762114435,-9.60370946684141,19.1000000003362));
#1436=CARTESIAN_POINT('',(-22.2980762113533,-3.46944695195361E-15,19.1));
#1437=CARTESIAN_POINT('Origin',(-20.3,-10.25,19.1));
#1438=CARTESIAN_POINT('',(-22.3,-10.9980762113533,19.1));
#1439=CARTESIAN_POINT('Origin',(-20.3,10.25,19.1));
#1440=CARTESIAN_POINT('Origin',(4.2,10.25,-15.9));
#1441=CARTESIAN_POINT('Origin',(-20.3,10.25,-15.9));
#1442=CARTESIAN_POINT('Origin',(-20.3,-10.25,-15.9));
#1443=CARTESIAN_POINT('Origin',(4.2,-10.25,-15.9));
#1444=CARTESIAN_POINT('Origin',(-20.3,10.25,-15.9));
#1445=CARTESIAN_POINT('Origin',(-7.55,-10.9980762113533,-18.4));
#1446=CARTESIAN_POINT('Origin',(-20.3,-10.25,-15.9));
#1447=CARTESIAN_POINT('',(-22.2980762114435,-9.60370946684141,-15.8999999996638));
#1448=CARTESIAN_POINT('Origin',(-22.2980762113533,-9.60370946684141,-15.9));
#1449=CARTESIAN_POINT('Origin',(12.5,1.53080849893419E-15,-15.9));
#1450=CARTESIAN_POINT('',(3.61936617309727,6.50000000000001,-15.9));
#1451=CARTESIAN_POINT('Origin',(3.61936617309727,6.50000000000001,-15.9));
#1452=CARTESIAN_POINT('',(0.949999999999998,6.50000000000001,-15.9));
#1453=CARTESIAN_POINT('Origin',(0.949999999999998,6.50000000000001,-15.9));
#1454=CARTESIAN_POINT('',(0.949999999999997,10.1,-15.9));
#1455=CARTESIAN_POINT('Origin',(0.949999999999997,10.1,-15.9));
#1456=CARTESIAN_POINT('',(-4.05,10.1,-15.9));
#1457=CARTESIAN_POINT('Origin',(-4.05,10.1,-15.9));
#1458=CARTESIAN_POINT('',(-4.05,9.2,-15.9));
#1459=CARTESIAN_POINT('Origin',(-17.4,9.2,-15.9));
#1460=CARTESIAN_POINT('',(-17.4,9.2,-15.9));
#1461=CARTESIAN_POINT('Origin',(-4.05,9.2,-15.9));
#1462=CARTESIAN_POINT('Origin',(-22.3,-0.00192378864669607,-18.4));
#1463=CARTESIAN_POINT('',(-22.3,-17.0019237886467,-15.9));
#1464=CARTESIAN_POINT('Origin',(-22.3,-17.0019237886467,-20.9));
#1465=CARTESIAN_POINT('',(-27.3,-17.0019237886467,-15.9));
#1466=CARTESIAN_POINT('Origin',(-27.3,-0.00192378864669607,-18.4));
#1467=UNCERTAINTY_MEASURE_WITH_UNIT(LENGTH_MEASURE(0.01),#1471,
'DISTANCE_ACCURACY_VALUE',
'Maximum model space distance between geometric entities at asserted c
onnectivities');
#1468=UNCERTAINTY_MEASURE_WITH_UNIT(LENGTH_MEASURE(0.01),#1471,
'DISTANCE_ACCURACY_VALUE',
'Maximum model space distance between geometric entities at asserted c
onnectivities');
#1469=(
GEOMETRIC_REPRESENTATION_CONTEXT(3)
GLOBAL_UNCERTAINTY_ASSIGNED_CONTEXT((#1467))
GLOBAL_UNIT_ASSIGNED_CONTEXT((#1471,#1473,#1474))
REPRESENTATION_CONTEXT('','3D')
);
#1470=(
GEOMETRIC_REPRESENTATION_CONTEXT(3)
GLOBAL_UNCERTAINTY_ASSIGNED_CONTEXT((#1468))
GLOBAL_UNIT_ASSIGNED_CONTEXT((#1471,#1473,#1474))
REPRESENTATION_CONTEXT('','3D')
);
#1471=(
LENGTH_UNIT()
NAMED_UNIT(*)
SI_UNIT(.MILLI.,.METRE.)
);
#1472=(
LENGTH_UNIT()
NAMED_UNIT(*)
SI_UNIT($,.METRE.)
);
#1473=(
NAMED_UNIT(*)
PLANE_ANGLE_UNIT()
SI_UNIT($,.RADIAN.)
);
#1474=(
NAMED_UNIT(*)
SI_UNIT($,.STERADIAN.)
SOLID_ANGLE_UNIT()
);
#1475=SHAPE_DEFINITION_REPRESENTATION(#1476,#1477);
#1476=PRODUCT_DEFINITION_SHAPE('',$,#1479);
#1477=SHAPE_REPRESENTATION('',(#911),#1469);
#1478=PRODUCT_DEFINITION_CONTEXT('part definition',#1483,'design');
#1479=PRODUCT_DEFINITION('ServoMount','ServoMount',#1480,#1478);
#1480=PRODUCT_DEFINITION_FORMATION('',$,#1485);
#1481=PRODUCT_RELATED_PRODUCT_CATEGORY('ServoMount','ServoMount',(#1485));
#1482=APPLICATION_PROTOCOL_DEFINITION('international standard',
'automotive_design',2009,#1483);
#1483=APPLICATION_CONTEXT(
'Core Data for Automotive Mechanical Design Process');
#1484=PRODUCT_CONTEXT('part definition',#1483,'mechanical');
#1485=PRODUCT('ServoMount','ServoMount',$,(#1484));
#1486=PRESENTATION_STYLE_ASSIGNMENT((#1487));
#1487=SURFACE_STYLE_USAGE(.BOTH.,#1488);
#1488=SURFACE_SIDE_STYLE('',(#1489));
#1489=SURFACE_STYLE_FILL_AREA(#1490);
#1490=FILL_AREA_STYLE('Steel - Satin',(#1491));
#1491=FILL_AREA_STYLE_COLOUR('Steel - Satin',#1492);
#1492=COLOUR_RGB('Steel - Satin',0.627450980392157,0.627450980392157,0.627450980392157);
ENDSEC;
END-ISO-10303-21;
