ISO-10303-21;
HEADER;
/* Generated by software containing ST-Developer
 * from STEP Tools, Inc. (www.steptools.com) 
 */

FILE_DESCRIPTION(
/* description */ (''),
/* implementation_level */ '2;1');

FILE_NAME(
/* name */ 'J34Cover.step',
/* time_stamp */ '2026-08-05T16:40:56-05:00',
/* author */ (''),
/* organization */ (''),
/* preprocessor_version */ 'ST-DEVELOPER v20.1',
/* originating_system */ 'Autodesk Translation Framework v15.8.0.0',
/* authorisation */ '');

FILE_SCHEMA (('AUTOMOTIVE_DESIGN { 1 0 10303 214 3 1 1 }'));
ENDSEC;

DATA;
#10=MECHANICAL_DESIGN_GEOMETRIC_PRESENTATION_REPRESENTATION('',(#13),#658);
#11=SHAPE_REPRESENTATION_RELATIONSHIP('SRR','None',#665,#12);
#12=ADVANCED_BREP_SHAPE_REPRESENTATION('',(#14),#657);
#13=STYLED_ITEM('',(#674),#14);
#14=MANIFOLD_SOLID_BREP('Body1',#382);
#15=FACE_BOUND('',#72,.T.);
#16=FACE_BOUND('',#73,.T.);
#17=FACE_BOUND('',#74,.T.);
#18=FACE_BOUND('',#75,.T.);
#19=FACE_BOUND('',#76,.T.);
#20=FACE_BOUND('',#77,.T.);
#21=FACE_BOUND('',#79,.T.);
#22=FACE_BOUND('',#80,.T.);
#23=FACE_BOUND('',#81,.T.);
#24=FACE_BOUND('',#82,.T.);
#25=FACE_BOUND('',#83,.T.);
#26=FACE_BOUND('',#84,.T.);
#27=PLANE('',#399);
#28=PLANE('',#403);
#29=PLANE('',#407);
#30=PLANE('',#411);
#31=PLANE('',#430);
#32=PLANE('',#434);
#33=PLANE('',#435);
#34=PLANE('',#436);
#35=FACE_OUTER_BOUND('',#54,.T.);
#36=FACE_OUTER_BOUND('',#55,.T.);
#37=FACE_OUTER_BOUND('',#56,.T.);
#38=FACE_OUTER_BOUND('',#57,.T.);
#39=FACE_OUTER_BOUND('',#58,.T.);
#40=FACE_OUTER_BOUND('',#59,.T.);
#41=FACE_OUTER_BOUND('',#60,.T.);
#42=FACE_OUTER_BOUND('',#61,.T.);
#43=FACE_OUTER_BOUND('',#62,.T.);
#44=FACE_OUTER_BOUND('',#63,.T.);
#45=FACE_OUTER_BOUND('',#64,.T.);
#46=FACE_OUTER_BOUND('',#65,.T.);
#47=FACE_OUTER_BOUND('',#66,.T.);
#48=FACE_OUTER_BOUND('',#67,.T.);
#49=FACE_OUTER_BOUND('',#68,.T.);
#50=FACE_OUTER_BOUND('',#69,.T.);
#51=FACE_OUTER_BOUND('',#70,.T.);
#52=FACE_OUTER_BOUND('',#71,.T.);
#53=FACE_OUTER_BOUND('',#78,.T.);
#54=EDGE_LOOP('',(#250,#251,#252,#253));
#55=EDGE_LOOP('',(#254,#255,#256,#257));
#56=EDGE_LOOP('',(#258,#259,#260,#261));
#57=EDGE_LOOP('',(#262,#263,#264,#265));
#58=EDGE_LOOP('',(#266,#267,#268,#269));
#59=EDGE_LOOP('',(#270,#271,#272,#273));
#60=EDGE_LOOP('',(#274,#275,#276,#277));
#61=EDGE_LOOP('',(#278,#279,#280,#281));
#62=EDGE_LOOP('',(#282,#283,#284,#285));
#63=EDGE_LOOP('',(#286,#287,#288,#289));
#64=EDGE_LOOP('',(#290,#291,#292,#293));
#65=EDGE_LOOP('',(#294,#295,#296,#297));
#66=EDGE_LOOP('',(#298,#299,#300,#301));
#67=EDGE_LOOP('',(#302,#303,#304,#305));
#68=EDGE_LOOP('',(#306,#307,#308,#309));
#69=EDGE_LOOP('',(#310,#311,#312,#313));
#70=EDGE_LOOP('',(#314,#315,#316,#317));
#71=EDGE_LOOP('',(#318,#319,#320,#321));
#72=EDGE_LOOP('',(#322,#323,#324,#325,#326,#327,#328,#329));
#73=EDGE_LOOP('',(#330));
#74=EDGE_LOOP('',(#331));
#75=EDGE_LOOP('',(#332));
#76=EDGE_LOOP('',(#333));
#77=EDGE_LOOP('',(#334));
#78=EDGE_LOOP('',(#335,#336,#337,#338));
#79=EDGE_LOOP('',(#339,#340,#341,#342,#343,#344,#345,#346));
#80=EDGE_LOOP('',(#347));
#81=EDGE_LOOP('',(#348));
#82=EDGE_LOOP('',(#349));
#83=EDGE_LOOP('',(#350));
#84=EDGE_LOOP('',(#351));
#85=LINE('',#556,#114);
#86=LINE('',#559,#115);
#87=LINE('',#562,#116);
#88=LINE('',#564,#117);
#89=LINE('',#565,#118);
#90=LINE('',#571,#119);
#91=LINE('',#574,#120);
#92=LINE('',#576,#121);
#93=LINE('',#577,#122);
#94=LINE('',#583,#123);
#95=LINE('',#586,#124);
#96=LINE('',#588,#125);
#97=LINE('',#589,#126);
#98=LINE('',#594,#127);
#99=LINE('',#597,#128);
#100=LINE('',#598,#129);
#101=LINE('',#603,#130);
#102=LINE('',#609,#131);
#103=LINE('',#615,#132);
#104=LINE('',#621,#133);
#105=LINE('',#627,#134);
#106=LINE('',#634,#135);
#107=LINE('',#637,#136);
#108=LINE('',#640,#137);
#109=LINE('',#642,#138);
#110=LINE('',#643,#139);
#111=LINE('',#649,#140);
#112=LINE('',#651,#141);
#113=LINE('',#652,#142);
#114=VECTOR('',#443,10.);
#115=VECTOR('',#446,10.);
#116=VECTOR('',#449,10.);
#117=VECTOR('',#450,10.);
#118=VECTOR('',#451,10.);
#119=VECTOR('',#456,10.);
#120=VECTOR('',#459,10.);
#121=VECTOR('',#462,10.);
#122=VECTOR('',#463,10.);
#123=VECTOR('',#468,10.);
#124=VECTOR('',#471,10.);
#125=VECTOR('',#474,10.);
#126=VECTOR('',#475,10.);
#127=VECTOR('',#480,10.);
#128=VECTOR('',#485,10.);
#129=VECTOR('',#486,10.);
#130=VECTOR('',#491,1.49999999999999);
#131=VECTOR('',#498,1.5);
#132=VECTOR('',#505,1.49999999999999);
#133=VECTOR('',#512,1.5);
#134=VECTOR('',#519,1.50000000000002);
#135=VECTOR('',#526,10.);
#136=VECTOR('',#529,10.);
#137=VECTOR('',#532,10.);
#138=VECTOR('',#533,10.);
#139=VECTOR('',#534,10.);
#140=VECTOR('',#541,10.);
#141=VECTOR('',#544,10.);
#142=VECTOR('',#545,10.);
#143=CIRCLE('',#397,1.);
#144=CIRCLE('',#398,1.);
#145=CIRCLE('',#401,1.);
#146=CIRCLE('',#402,1.);
#147=CIRCLE('',#405,1.);
#148=CIRCLE('',#406,1.);
#149=CIRCLE('',#409,1.);
#150=CIRCLE('',#410,1.);
#151=CIRCLE('',#413,1.49999999999999);
#152=CIRCLE('',#414,1.49999999999999);
#153=CIRCLE('',#416,1.5);
#154=CIRCLE('',#417,1.5);
#155=CIRCLE('',#419,1.49999999999999);
#156=CIRCLE('',#420,1.49999999999999);
#157=CIRCLE('',#422,1.5);
#158=CIRCLE('',#423,1.5);
#159=CIRCLE('',#425,1.50000000000002);
#160=CIRCLE('',#426,1.50000000000002);
#161=CIRCLE('',#428,22.5);
#162=CIRCLE('',#429,22.5);
#163=CIRCLE('',#432,22.5);
#164=CIRCLE('',#433,22.5);
#165=VERTEX_POINT('',#552);
#166=VERTEX_POINT('',#553);
#167=VERTEX_POINT('',#555);
#168=VERTEX_POINT('',#557);
#169=VERTEX_POINT('',#561);
#170=VERTEX_POINT('',#563);
#171=VERTEX_POINT('',#567);
#172=VERTEX_POINT('',#568);
#173=VERTEX_POINT('',#570);
#174=VERTEX_POINT('',#572);
#175=VERTEX_POINT('',#579);
#176=VERTEX_POINT('',#580);
#177=VERTEX_POINT('',#582);
#178=VERTEX_POINT('',#584);
#179=VERTEX_POINT('',#591);
#180=VERTEX_POINT('',#593);
#181=VERTEX_POINT('',#600);
#182=VERTEX_POINT('',#602);
#183=VERTEX_POINT('',#606);
#184=VERTEX_POINT('',#608);
#185=VERTEX_POINT('',#612);
#186=VERTEX_POINT('',#614);
#187=VERTEX_POINT('',#618);
#188=VERTEX_POINT('',#620);
#189=VERTEX_POINT('',#624);
#190=VERTEX_POINT('',#626);
#191=VERTEX_POINT('',#630);
#192=VERTEX_POINT('',#631);
#193=VERTEX_POINT('',#633);
#194=VERTEX_POINT('',#635);
#195=VERTEX_POINT('',#639);
#196=VERTEX_POINT('',#641);
#197=VERTEX_POINT('',#645);
#198=VERTEX_POINT('',#647);
#199=EDGE_CURVE('',#165,#166,#143,.T.);
#200=EDGE_CURVE('',#166,#167,#85,.T.);
#201=EDGE_CURVE('',#167,#168,#144,.T.);
#202=EDGE_CURVE('',#168,#165,#86,.T.);
#203=EDGE_CURVE('',#169,#166,#87,.T.);
#204=EDGE_CURVE('',#170,#169,#88,.T.);
#205=EDGE_CURVE('',#167,#170,#89,.T.);
#206=EDGE_CURVE('',#171,#172,#145,.T.);
#207=EDGE_CURVE('',#172,#173,#90,.T.);
#208=EDGE_CURVE('',#173,#174,#146,.T.);
#209=EDGE_CURVE('',#174,#171,#91,.T.);
#210=EDGE_CURVE('',#173,#168,#92,.T.);
#211=EDGE_CURVE('',#165,#172,#93,.T.);
#212=EDGE_CURVE('',#175,#176,#147,.T.);
#213=EDGE_CURVE('',#176,#177,#94,.T.);
#214=EDGE_CURVE('',#177,#178,#148,.T.);
#215=EDGE_CURVE('',#178,#175,#95,.T.);
#216=EDGE_CURVE('',#177,#174,#96,.T.);
#217=EDGE_CURVE('',#171,#176,#97,.T.);
#218=EDGE_CURVE('',#169,#179,#149,.T.);
#219=EDGE_CURVE('',#179,#180,#98,.T.);
#220=EDGE_CURVE('',#180,#170,#150,.T.);
#221=EDGE_CURVE('',#180,#178,#99,.T.);
#222=EDGE_CURVE('',#175,#179,#100,.T.);
#223=EDGE_CURVE('',#181,#181,#151,.T.);
#224=EDGE_CURVE('',#181,#182,#101,.T.);
#225=EDGE_CURVE('',#182,#182,#152,.T.);
#226=EDGE_CURVE('',#183,#183,#153,.T.);
#227=EDGE_CURVE('',#183,#184,#102,.T.);
#228=EDGE_CURVE('',#184,#184,#154,.T.);
#229=EDGE_CURVE('',#185,#185,#155,.T.);
#230=EDGE_CURVE('',#185,#186,#103,.T.);
#231=EDGE_CURVE('',#186,#186,#156,.T.);
#232=EDGE_CURVE('',#187,#187,#157,.T.);
#233=EDGE_CURVE('',#187,#188,#104,.T.);
#234=EDGE_CURVE('',#188,#188,#158,.T.);
#235=EDGE_CURVE('',#189,#189,#159,.T.);
#236=EDGE_CURVE('',#189,#190,#105,.T.);
#237=EDGE_CURVE('',#190,#190,#160,.T.);
#238=EDGE_CURVE('',#191,#192,#161,.T.);
#239=EDGE_CURVE('',#192,#193,#106,.T.);
#240=EDGE_CURVE('',#194,#193,#162,.T.);
#241=EDGE_CURVE('',#191,#194,#107,.T.);
#242=EDGE_CURVE('',#195,#191,#108,.T.);
#243=EDGE_CURVE('',#196,#194,#109,.T.);
#244=EDGE_CURVE('',#195,#196,#110,.T.);
#245=EDGE_CURVE('',#197,#195,#163,.T.);
#246=EDGE_CURVE('',#198,#196,#164,.T.);
#247=EDGE_CURVE('',#197,#198,#111,.T.);
#248=EDGE_CURVE('',#192,#197,#112,.T.);
#249=EDGE_CURVE('',#193,#198,#113,.T.);
#250=ORIENTED_EDGE('',*,*,#199,.T.);
#251=ORIENTED_EDGE('',*,*,#200,.T.);
#252=ORIENTED_EDGE('',*,*,#201,.T.);
#253=ORIENTED_EDGE('',*,*,#202,.T.);
#254=ORIENTED_EDGE('',*,*,#200,.F.);
#255=ORIENTED_EDGE('',*,*,#203,.F.);
#256=ORIENTED_EDGE('',*,*,#204,.F.);
#257=ORIENTED_EDGE('',*,*,#205,.F.);
#258=ORIENTED_EDGE('',*,*,#206,.T.);
#259=ORIENTED_EDGE('',*,*,#207,.T.);
#260=ORIENTED_EDGE('',*,*,#208,.T.);
#261=ORIENTED_EDGE('',*,*,#209,.T.);
#262=ORIENTED_EDGE('',*,*,#202,.F.);
#263=ORIENTED_EDGE('',*,*,#210,.F.);
#264=ORIENTED_EDGE('',*,*,#207,.F.);
#265=ORIENTED_EDGE('',*,*,#211,.F.);
#266=ORIENTED_EDGE('',*,*,#212,.T.);
#267=ORIENTED_EDGE('',*,*,#213,.T.);
#268=ORIENTED_EDGE('',*,*,#214,.T.);
#269=ORIENTED_EDGE('',*,*,#215,.T.);
#270=ORIENTED_EDGE('',*,*,#209,.F.);
#271=ORIENTED_EDGE('',*,*,#216,.F.);
#272=ORIENTED_EDGE('',*,*,#213,.F.);
#273=ORIENTED_EDGE('',*,*,#217,.F.);
#274=ORIENTED_EDGE('',*,*,#218,.T.);
#275=ORIENTED_EDGE('',*,*,#219,.T.);
#276=ORIENTED_EDGE('',*,*,#220,.T.);
#277=ORIENTED_EDGE('',*,*,#204,.T.);
#278=ORIENTED_EDGE('',*,*,#215,.F.);
#279=ORIENTED_EDGE('',*,*,#221,.F.);
#280=ORIENTED_EDGE('',*,*,#219,.F.);
#281=ORIENTED_EDGE('',*,*,#222,.F.);
#282=ORIENTED_EDGE('',*,*,#223,.F.);
#283=ORIENTED_EDGE('',*,*,#224,.T.);
#284=ORIENTED_EDGE('',*,*,#225,.F.);
#285=ORIENTED_EDGE('',*,*,#224,.F.);
#286=ORIENTED_EDGE('',*,*,#226,.F.);
#287=ORIENTED_EDGE('',*,*,#227,.T.);
#288=ORIENTED_EDGE('',*,*,#228,.F.);
#289=ORIENTED_EDGE('',*,*,#227,.F.);
#290=ORIENTED_EDGE('',*,*,#229,.F.);
#291=ORIENTED_EDGE('',*,*,#230,.T.);
#292=ORIENTED_EDGE('',*,*,#231,.F.);
#293=ORIENTED_EDGE('',*,*,#230,.F.);
#294=ORIENTED_EDGE('',*,*,#232,.F.);
#295=ORIENTED_EDGE('',*,*,#233,.T.);
#296=ORIENTED_EDGE('',*,*,#234,.F.);
#297=ORIENTED_EDGE('',*,*,#233,.F.);
#298=ORIENTED_EDGE('',*,*,#235,.F.);
#299=ORIENTED_EDGE('',*,*,#236,.T.);
#300=ORIENTED_EDGE('',*,*,#237,.F.);
#301=ORIENTED_EDGE('',*,*,#236,.F.);
#302=ORIENTED_EDGE('',*,*,#238,.T.);
#303=ORIENTED_EDGE('',*,*,#239,.T.);
#304=ORIENTED_EDGE('',*,*,#240,.F.);
#305=ORIENTED_EDGE('',*,*,#241,.F.);
#306=ORIENTED_EDGE('',*,*,#242,.T.);
#307=ORIENTED_EDGE('',*,*,#241,.T.);
#308=ORIENTED_EDGE('',*,*,#243,.F.);
#309=ORIENTED_EDGE('',*,*,#244,.F.);
#310=ORIENTED_EDGE('',*,*,#245,.T.);
#311=ORIENTED_EDGE('',*,*,#244,.T.);
#312=ORIENTED_EDGE('',*,*,#246,.F.);
#313=ORIENTED_EDGE('',*,*,#247,.F.);
#314=ORIENTED_EDGE('',*,*,#248,.T.);
#315=ORIENTED_EDGE('',*,*,#247,.T.);
#316=ORIENTED_EDGE('',*,*,#249,.F.);
#317=ORIENTED_EDGE('',*,*,#239,.F.);
#318=ORIENTED_EDGE('',*,*,#249,.T.);
#319=ORIENTED_EDGE('',*,*,#246,.T.);
#320=ORIENTED_EDGE('',*,*,#243,.T.);
#321=ORIENTED_EDGE('',*,*,#240,.T.);
#322=ORIENTED_EDGE('',*,*,#217,.T.);
#323=ORIENTED_EDGE('',*,*,#212,.F.);
#324=ORIENTED_EDGE('',*,*,#222,.T.);
#325=ORIENTED_EDGE('',*,*,#218,.F.);
#326=ORIENTED_EDGE('',*,*,#203,.T.);
#327=ORIENTED_EDGE('',*,*,#199,.F.);
#328=ORIENTED_EDGE('',*,*,#211,.T.);
#329=ORIENTED_EDGE('',*,*,#206,.F.);
#330=ORIENTED_EDGE('',*,*,#235,.T.);
#331=ORIENTED_EDGE('',*,*,#232,.T.);
#332=ORIENTED_EDGE('',*,*,#229,.T.);
#333=ORIENTED_EDGE('',*,*,#226,.T.);
#334=ORIENTED_EDGE('',*,*,#223,.T.);
#335=ORIENTED_EDGE('',*,*,#248,.F.);
#336=ORIENTED_EDGE('',*,*,#238,.F.);
#337=ORIENTED_EDGE('',*,*,#242,.F.);
#338=ORIENTED_EDGE('',*,*,#245,.F.);
#339=ORIENTED_EDGE('',*,*,#216,.T.);
#340=ORIENTED_EDGE('',*,*,#208,.F.);
#341=ORIENTED_EDGE('',*,*,#210,.T.);
#342=ORIENTED_EDGE('',*,*,#201,.F.);
#343=ORIENTED_EDGE('',*,*,#205,.T.);
#344=ORIENTED_EDGE('',*,*,#220,.F.);
#345=ORIENTED_EDGE('',*,*,#221,.T.);
#346=ORIENTED_EDGE('',*,*,#214,.F.);
#347=ORIENTED_EDGE('',*,*,#237,.T.);
#348=ORIENTED_EDGE('',*,*,#234,.T.);
#349=ORIENTED_EDGE('',*,*,#231,.T.);
#350=ORIENTED_EDGE('',*,*,#228,.T.);
#351=ORIENTED_EDGE('',*,*,#225,.T.);
#352=CYLINDRICAL_SURFACE('',#396,1.);
#353=CYLINDRICAL_SURFACE('',#400,1.);
#354=CYLINDRICAL_SURFACE('',#404,1.);
#355=CYLINDRICAL_SURFACE('',#408,1.);
#356=CYLINDRICAL_SURFACE('',#412,1.49999999999999);
#357=CYLINDRICAL_SURFACE('',#415,1.5);
#358=CYLINDRICAL_SURFACE('',#418,1.49999999999999);
#359=CYLINDRICAL_SURFACE('',#421,1.5);
#360=CYLINDRICAL_SURFACE('',#424,1.50000000000002);
#361=CYLINDRICAL_SURFACE('',#427,22.5);
#362=CYLINDRICAL_SURFACE('',#431,22.5);
#363=ADVANCED_FACE('',(#35),#352,.F.);
#364=ADVANCED_FACE('',(#36),#27,.F.);
#365=ADVANCED_FACE('',(#37),#353,.F.);
#366=ADVANCED_FACE('',(#38),#28,.F.);
#367=ADVANCED_FACE('',(#39),#354,.F.);
#368=ADVANCED_FACE('',(#40),#29,.F.);
#369=ADVANCED_FACE('',(#41),#355,.F.);
#370=ADVANCED_FACE('',(#42),#30,.F.);
#371=ADVANCED_FACE('',(#43),#356,.F.);
#372=ADVANCED_FACE('',(#44),#357,.F.);
#373=ADVANCED_FACE('',(#45),#358,.F.);
#374=ADVANCED_FACE('',(#46),#359,.F.);
#375=ADVANCED_FACE('',(#47),#360,.F.);
#376=ADVANCED_FACE('',(#48),#361,.T.);
#377=ADVANCED_FACE('',(#49),#31,.T.);
#378=ADVANCED_FACE('',(#50),#362,.T.);
#379=ADVANCED_FACE('',(#51),#32,.T.);
#380=ADVANCED_FACE('',(#52,#15,#16,#17,#18,#19,#20),#33,.T.);
#381=ADVANCED_FACE('',(#53,#21,#22,#23,#24,#25,#26),#34,.F.);
#382=CLOSED_SHELL('',(#363,#364,#365,#366,#367,#368,#369,#370,#371,#372,
#373,#374,#375,#376,#377,#378,#379,#380,#381));
#383=DERIVED_UNIT_ELEMENT(#385,1.);
#384=DERIVED_UNIT_ELEMENT(#660,-3.);
#385=(
MASS_UNIT()
NAMED_UNIT(*)
SI_UNIT(.KILO.,.GRAM.)
);
#386=DERIVED_UNIT((#383,#384));
#387=MEASURE_REPRESENTATION_ITEM('density measure',
POSITIVE_RATIO_MEASURE(7850.),#386);
#388=PROPERTY_DEFINITION_REPRESENTATION(#393,#390);
#389=PROPERTY_DEFINITION_REPRESENTATION(#394,#391);
#390=REPRESENTATION('material name',(#392),#657);
#391=REPRESENTATION('density',(#387),#657);
#392=DESCRIPTIVE_REPRESENTATION_ITEM('Steel','Steel');
#393=PROPERTY_DEFINITION('material property','material name',#667);
#394=PROPERTY_DEFINITION('material property','density of part',#667);
#395=AXIS2_PLACEMENT_3D('',#550,#437,#438);
#396=AXIS2_PLACEMENT_3D('',#551,#439,#440);
#397=AXIS2_PLACEMENT_3D('',#554,#441,#442);
#398=AXIS2_PLACEMENT_3D('',#558,#444,#445);
#399=AXIS2_PLACEMENT_3D('',#560,#447,#448);
#400=AXIS2_PLACEMENT_3D('',#566,#452,#453);
#401=AXIS2_PLACEMENT_3D('',#569,#454,#455);
#402=AXIS2_PLACEMENT_3D('',#573,#457,#458);
#403=AXIS2_PLACEMENT_3D('',#575,#460,#461);
#404=AXIS2_PLACEMENT_3D('',#578,#464,#465);
#405=AXIS2_PLACEMENT_3D('',#581,#466,#467);
#406=AXIS2_PLACEMENT_3D('',#585,#469,#470);
#407=AXIS2_PLACEMENT_3D('',#587,#472,#473);
#408=AXIS2_PLACEMENT_3D('',#590,#476,#477);
#409=AXIS2_PLACEMENT_3D('',#592,#478,#479);
#410=AXIS2_PLACEMENT_3D('',#595,#481,#482);
#411=AXIS2_PLACEMENT_3D('',#596,#483,#484);
#412=AXIS2_PLACEMENT_3D('',#599,#487,#488);
#413=AXIS2_PLACEMENT_3D('',#601,#489,#490);
#414=AXIS2_PLACEMENT_3D('',#604,#492,#493);
#415=AXIS2_PLACEMENT_3D('',#605,#494,#495);
#416=AXIS2_PLACEMENT_3D('',#607,#496,#497);
#417=AXIS2_PLACEMENT_3D('',#610,#499,#500);
#418=AXIS2_PLACEMENT_3D('',#611,#501,#502);
#419=AXIS2_PLACEMENT_3D('',#613,#503,#504);
#420=AXIS2_PLACEMENT_3D('',#616,#506,#507);
#421=AXIS2_PLACEMENT_3D('',#617,#508,#509);
#422=AXIS2_PLACEMENT_3D('',#619,#510,#511);
#423=AXIS2_PLACEMENT_3D('',#622,#513,#514);
#424=AXIS2_PLACEMENT_3D('',#623,#515,#516);
#425=AXIS2_PLACEMENT_3D('',#625,#517,#518);
#426=AXIS2_PLACEMENT_3D('',#628,#520,#521);
#427=AXIS2_PLACEMENT_3D('',#629,#522,#523);
#428=AXIS2_PLACEMENT_3D('',#632,#524,#525);
#429=AXIS2_PLACEMENT_3D('',#636,#527,#528);
#430=AXIS2_PLACEMENT_3D('',#638,#530,#531);
#431=AXIS2_PLACEMENT_3D('',#644,#535,#536);
#432=AXIS2_PLACEMENT_3D('',#646,#537,#538);
#433=AXIS2_PLACEMENT_3D('',#648,#539,#540);
#434=AXIS2_PLACEMENT_3D('',#650,#542,#543);
#435=AXIS2_PLACEMENT_3D('',#653,#546,#547);
#436=AXIS2_PLACEMENT_3D('',#654,#548,#549);
#437=DIRECTION('axis',(0.,0.,1.));
#438=DIRECTION('refdir',(1.,0.,0.));
#439=DIRECTION('center_axis',(0.,1.,0.));
#440=DIRECTION('ref_axis',(0.707106781186548,0.,-0.707106781186548));
#441=DIRECTION('center_axis',(0.,-1.,0.));
#442=DIRECTION('ref_axis',(0.707106781186548,0.,-0.707106781186548));
#443=DIRECTION('',(0.,1.,0.));
#444=DIRECTION('center_axis',(0.,1.,0.));
#445=DIRECTION('ref_axis',(0.707106781186548,0.,-0.707106781186548));
#446=DIRECTION('',(0.,-1.,0.));
#447=DIRECTION('center_axis',(1.,0.,0.));
#448=DIRECTION('ref_axis',(0.,0.,-1.));
#449=DIRECTION('',(0.,0.,-1.));
#450=DIRECTION('',(0.,-1.,0.));
#451=DIRECTION('',(0.,0.,1.));
#452=DIRECTION('center_axis',(0.,1.,0.));
#453=DIRECTION('ref_axis',(-0.707106781186548,0.,-0.707106781186548));
#454=DIRECTION('center_axis',(0.,-1.,0.));
#455=DIRECTION('ref_axis',(-0.707106781186548,0.,-0.707106781186548));
#456=DIRECTION('',(0.,1.,0.));
#457=DIRECTION('center_axis',(0.,1.,0.));
#458=DIRECTION('ref_axis',(-0.707106781186548,0.,-0.707106781186548));
#459=DIRECTION('',(0.,-1.,0.));
#460=DIRECTION('center_axis',(0.,0.,-1.));
#461=DIRECTION('ref_axis',(-1.,0.,0.));
#462=DIRECTION('',(1.,0.,0.));
#463=DIRECTION('',(-1.,0.,0.));
#464=DIRECTION('center_axis',(0.,1.,0.));
#465=DIRECTION('ref_axis',(-0.707106781186523,0.,0.707106781186573));
#466=DIRECTION('center_axis',(0.,-1.,0.));
#467=DIRECTION('ref_axis',(-0.707106781186523,0.,0.707106781186573));
#468=DIRECTION('',(0.,1.,0.));
#469=DIRECTION('center_axis',(0.,1.,0.));
#470=DIRECTION('ref_axis',(-0.707106781186523,0.,0.707106781186573));
#471=DIRECTION('',(0.,-1.,0.));
#472=DIRECTION('center_axis',(-1.,0.,0.));
#473=DIRECTION('ref_axis',(0.,0.,1.));
#474=DIRECTION('',(0.,0.,-1.));
#475=DIRECTION('',(0.,0.,1.));
#476=DIRECTION('center_axis',(0.,1.,0.));
#477=DIRECTION('ref_axis',(0.707106781186548,0.,0.707106781186548));
#478=DIRECTION('center_axis',(0.,-1.,0.));
#479=DIRECTION('ref_axis',(0.707106781186548,0.,0.707106781186548));
#480=DIRECTION('',(0.,1.,0.));
#481=DIRECTION('center_axis',(0.,1.,0.));
#482=DIRECTION('ref_axis',(0.707106781186548,0.,0.707106781186548));
#483=DIRECTION('center_axis',(0.,0.,1.));
#484=DIRECTION('ref_axis',(1.,0.,0.));
#485=DIRECTION('',(-1.,0.,0.));
#486=DIRECTION('',(1.,0.,0.));
#487=DIRECTION('center_axis',(0.,1.,0.));
#488=DIRECTION('ref_axis',(1.,0.,0.));
#489=DIRECTION('center_axis',(0.,1.,0.));
#490=DIRECTION('ref_axis',(1.,0.,0.));
#491=DIRECTION('',(0.,1.,0.));
#492=DIRECTION('center_axis',(0.,-1.,0.));
#493=DIRECTION('ref_axis',(1.,0.,0.));
#494=DIRECTION('center_axis',(0.,1.,0.));
#495=DIRECTION('ref_axis',(1.,0.,0.));
#496=DIRECTION('center_axis',(0.,1.,0.));
#497=DIRECTION('ref_axis',(1.,0.,0.));
#498=DIRECTION('',(0.,1.,0.));
#499=DIRECTION('center_axis',(0.,-1.,0.));
#500=DIRECTION('ref_axis',(1.,0.,0.));
#501=DIRECTION('center_axis',(0.,1.,0.));
#502=DIRECTION('ref_axis',(1.,0.,0.));
#503=DIRECTION('center_axis',(0.,1.,0.));
#504=DIRECTION('ref_axis',(1.,0.,0.));
#505=DIRECTION('',(0.,1.,0.));
#506=DIRECTION('center_axis',(0.,-1.,0.));
#507=DIRECTION('ref_axis',(1.,0.,0.));
#508=DIRECTION('center_axis',(0.,1.,0.));
#509=DIRECTION('ref_axis',(1.,0.,0.));
#510=DIRECTION('center_axis',(0.,1.,0.));
#511=DIRECTION('ref_axis',(1.,0.,0.));
#512=DIRECTION('',(0.,1.,0.));
#513=DIRECTION('center_axis',(0.,-1.,0.));
#514=DIRECTION('ref_axis',(1.,0.,0.));
#515=DIRECTION('center_axis',(0.,1.,0.));
#516=DIRECTION('ref_axis',(1.,0.,0.));
#517=DIRECTION('center_axis',(0.,1.,0.));
#518=DIRECTION('ref_axis',(1.,0.,0.));
#519=DIRECTION('',(0.,1.,0.));
#520=DIRECTION('center_axis',(0.,-1.,0.));
#521=DIRECTION('ref_axis',(1.,0.,0.));
#522=DIRECTION('center_axis',(0.,-1.,0.));
#523=DIRECTION('ref_axis',(0.,0.,-1.));
#524=DIRECTION('center_axis',(0.,-1.,-3.94745964311167E-16));
#525=DIRECTION('ref_axis',(0.,3.94745964311167E-16,-1.));
#526=DIRECTION('',(0.,-1.,0.));
#527=DIRECTION('center_axis',(0.,-1.,-3.94745964311167E-16));
#528=DIRECTION('ref_axis',(0.,3.94745964311167E-16,-1.));
#529=DIRECTION('',(0.,-1.,0.));
#530=DIRECTION('center_axis',(0.,0.,-1.));
#531=DIRECTION('ref_axis',(1.,0.,0.));
#532=DIRECTION('',(1.,0.,0.));
#533=DIRECTION('',(1.,0.,0.));
#534=DIRECTION('',(0.,-1.,0.));
#535=DIRECTION('center_axis',(0.,-1.,0.));
#536=DIRECTION('ref_axis',(0.,0.,1.));
#537=DIRECTION('center_axis',(0.,-1.,0.));
#538=DIRECTION('ref_axis',(0.,0.,1.));
#539=DIRECTION('center_axis',(0.,-1.,0.));
#540=DIRECTION('ref_axis',(0.,0.,1.));
#541=DIRECTION('',(0.,-1.,0.));
#542=DIRECTION('center_axis',(0.,0.,1.));
#543=DIRECTION('ref_axis',(-1.,5.9211894646675E-17,0.));
#544=DIRECTION('',(-1.,5.9211894646675E-17,0.));
#545=DIRECTION('',(-1.,5.9211894646675E-17,0.));
#546=DIRECTION('center_axis',(0.,-1.,0.));
#547=DIRECTION('ref_axis',(1.,0.,0.));
#548=DIRECTION('center_axis',(0.,-1.,0.));
#549=DIRECTION('ref_axis',(1.,0.,0.));
#550=CARTESIAN_POINT('',(0.,0.,0.));
#551=CARTESIAN_POINT('Origin',(272.999026072571,-73.2621455328126,181.));
#552=CARTESIAN_POINT('',(272.999026072571,-73.2621455328126,180.));
#553=CARTESIAN_POINT('',(273.999026072571,-73.2621455328126,181.));
#554=CARTESIAN_POINT('Origin',(272.999026072571,-73.2621455328126,181.));
#555=CARTESIAN_POINT('',(273.999026072571,-70.2621455328126,181.));
#556=CARTESIAN_POINT('',(273.999026072571,-73.2621455328126,181.));
#557=CARTESIAN_POINT('',(272.999026072571,-70.2621455328126,180.));
#558=CARTESIAN_POINT('Origin',(272.999026072571,-70.2621455328126,181.));
#559=CARTESIAN_POINT('',(272.999026072571,-73.2621455328126,180.));
#560=CARTESIAN_POINT('Origin',(273.999026072571,-73.2621455328126,202.));
#561=CARTESIAN_POINT('',(273.999026072571,-73.2621455328126,201.));
#562=CARTESIAN_POINT('',(273.999026072571,-73.2621455328126,196.405036122347));
#563=CARTESIAN_POINT('',(273.999026072571,-70.2621455328126,201.));
#564=CARTESIAN_POINT('',(273.999026072571,-73.2621455328126,201.));
#565=CARTESIAN_POINT('',(273.999026072571,-70.2621455328126,196.405036122347));
#566=CARTESIAN_POINT('Origin',(265.609509012324,-73.2621455328126,181.));
#567=CARTESIAN_POINT('',(264.609509012324,-73.2621455328126,181.));
#568=CARTESIAN_POINT('',(265.609509012324,-73.2621455328126,180.));
#569=CARTESIAN_POINT('Origin',(265.609509012324,-73.2621455328126,181.));
#570=CARTESIAN_POINT('',(265.609509012324,-70.2621455328126,180.));
#571=CARTESIAN_POINT('',(265.609509012324,-73.2621455328126,180.));
#572=CARTESIAN_POINT('',(264.609509012324,-70.2621455328126,181.));
#573=CARTESIAN_POINT('Origin',(265.609509012324,-70.2621455328126,181.));
#574=CARTESIAN_POINT('',(264.609509012324,-73.2621455328126,181.));
#575=CARTESIAN_POINT('Origin',(273.999026072571,-73.2621455328126,180.));
#576=CARTESIAN_POINT('',(242.03490926329,-70.2621455328126,180.));
#577=CARTESIAN_POINT('',(242.03490926329,-73.2621455328126,180.));
#578=CARTESIAN_POINT('Origin',(265.609509012324,-73.2621455328126,201.));
#579=CARTESIAN_POINT('',(265.609509012324,-73.2621455328126,202.));
#580=CARTESIAN_POINT('',(264.609509012324,-73.2621455328126,201.));
#581=CARTESIAN_POINT('Origin',(265.609509012324,-73.2621455328126,201.));
#582=CARTESIAN_POINT('',(264.609509012324,-70.2621455328126,201.));
#583=CARTESIAN_POINT('',(264.609509012324,-73.2621455328126,201.));
#584=CARTESIAN_POINT('',(265.609509012324,-70.2621455328126,202.));
#585=CARTESIAN_POINT('Origin',(265.609509012324,-70.2621455328126,201.));
#586=CARTESIAN_POINT('',(265.609509012324,-73.2621455328126,202.));
#587=CARTESIAN_POINT('Origin',(264.609509012324,-73.2621455328126,180.));
#588=CARTESIAN_POINT('',(264.609509012324,-70.2621455328126,185.405036122347));
#589=CARTESIAN_POINT('',(264.609509012324,-73.2621455328126,185.405036122347));
#590=CARTESIAN_POINT('Origin',(272.999026072571,-73.2621455328126,201.));
#591=CARTESIAN_POINT('',(272.999026072571,-73.2621455328126,202.));
#592=CARTESIAN_POINT('Origin',(272.999026072571,-73.2621455328126,201.));
#593=CARTESIAN_POINT('',(272.999026072571,-70.2621455328126,202.));
#594=CARTESIAN_POINT('',(272.999026072571,-73.2621455328126,202.));
#595=CARTESIAN_POINT('Origin',(272.999026072571,-70.2621455328126,201.));
#596=CARTESIAN_POINT('Origin',(264.609509012324,-73.2621455328126,202.));
#597=CARTESIAN_POINT('',(237.340150733167,-70.2621455328126,202.));
#598=CARTESIAN_POINT('',(237.340150733167,-73.2621455328126,202.));
#599=CARTESIAN_POINT('Origin',(115.,-70.2621455328126,190.));
#600=CARTESIAN_POINT('',(113.5,-73.2621455328126,190.));
#601=CARTESIAN_POINT('Origin',(115.,-73.2621455328126,190.));
#602=CARTESIAN_POINT('',(113.5,-70.2621455328126,190.));
#603=CARTESIAN_POINT('',(113.5,-70.2621455328126,190.));
#604=CARTESIAN_POINT('Origin',(115.,-70.2621455328126,190.));
#605=CARTESIAN_POINT('Origin',(145.,-70.2621455328126,205.));
#606=CARTESIAN_POINT('',(143.5,-73.2621455328126,205.));
#607=CARTESIAN_POINT('Origin',(145.,-73.2621455328126,205.));
#608=CARTESIAN_POINT('',(143.5,-70.2621455328126,205.));
#609=CARTESIAN_POINT('',(143.5,-70.2621455328126,205.));
#610=CARTESIAN_POINT('Origin',(145.,-70.2621455328126,205.));
#611=CARTESIAN_POINT('Origin',(245.,-70.2621455328126,205.));
#612=CARTESIAN_POINT('',(243.5,-73.2621455328126,205.));
#613=CARTESIAN_POINT('Origin',(245.,-73.2621455328126,205.));
#614=CARTESIAN_POINT('',(243.5,-70.2621455328126,205.));
#615=CARTESIAN_POINT('',(243.5,-70.2621455328126,205.));
#616=CARTESIAN_POINT('Origin',(245.,-70.2621455328126,205.));
#617=CARTESIAN_POINT('Origin',(145.,-70.2621455328126,175.));
#618=CARTESIAN_POINT('',(143.5,-73.2621455328126,175.));
#619=CARTESIAN_POINT('Origin',(145.,-73.2621455328126,175.));
#620=CARTESIAN_POINT('',(143.5,-70.2621455328126,175.));
#621=CARTESIAN_POINT('',(143.5,-70.2621455328126,175.));
#622=CARTESIAN_POINT('Origin',(145.,-70.2621455328126,175.));
#623=CARTESIAN_POINT('Origin',(245.,-70.2621455328126,180.));
#624=CARTESIAN_POINT('',(243.5,-73.2621455328126,180.));
#625=CARTESIAN_POINT('Origin',(245.,-73.2621455328126,180.));
#626=CARTESIAN_POINT('',(243.5,-70.2621455328126,180.));
#627=CARTESIAN_POINT('',(243.5,-70.2621455328126,180.));
#628=CARTESIAN_POINT('Origin',(245.,-70.2621455328126,180.));
#629=CARTESIAN_POINT('Origin',(285.07079245401,-70.2621455328126,190.810072244694));
#630=CARTESIAN_POINT('',(285.07079245401,-70.2621455328126,168.310072244694));
#631=CARTESIAN_POINT('',(285.07079245401,-70.2621455328126,213.310072244694));
#632=CARTESIAN_POINT('Origin',(285.07079245401,-70.2621455328126,190.810072244694));
#633=CARTESIAN_POINT('',(285.07079245401,-73.2621455328126,213.310072244694));
#634=CARTESIAN_POINT('',(285.07079245401,-70.2621455328126,213.310072244694));
#635=CARTESIAN_POINT('',(285.07079245401,-73.2621455328126,168.310072244694));
#636=CARTESIAN_POINT('Origin',(285.07079245401,-73.2621455328126,190.810072244694));
#637=CARTESIAN_POINT('',(285.07079245401,-70.2621455328126,168.310072244694));
#638=CARTESIAN_POINT('Origin',(135.07079245401,-70.2621455328126,168.310072244694));
#639=CARTESIAN_POINT('',(135.07079245401,-70.2621455328126,168.310072244694));
#640=CARTESIAN_POINT('',(135.07079245401,-70.2621455328126,168.310072244694));
#641=CARTESIAN_POINT('',(135.07079245401,-73.2621455328126,168.310072244694));
#642=CARTESIAN_POINT('',(135.07079245401,-73.2621455328126,168.310072244694));
#643=CARTESIAN_POINT('',(135.07079245401,-70.2621455328126,168.310072244694));
#644=CARTESIAN_POINT('Origin',(135.07079245401,-70.2621455328126,190.810072244694));
#645=CARTESIAN_POINT('',(135.07079245401,-70.2621455328126,213.310072244694));
#646=CARTESIAN_POINT('Origin',(135.07079245401,-70.2621455328126,190.810072244694));
#647=CARTESIAN_POINT('',(135.07079245401,-73.2621455328126,213.310072244694));
#648=CARTESIAN_POINT('Origin',(135.07079245401,-73.2621455328126,190.810072244694));
#649=CARTESIAN_POINT('',(135.07079245401,-70.2621455328126,213.310072244694));
#650=CARTESIAN_POINT('Origin',(285.07079245401,-70.2621455328126,213.310072244694));
#651=CARTESIAN_POINT('',(285.07079245401,-70.2621455328126,213.310072244694));
#652=CARTESIAN_POINT('',(285.07079245401,-73.2621455328126,213.310072244694));
#653=CARTESIAN_POINT('Origin',(210.07079245401,-73.2621455328126,190.810072244694));
#654=CARTESIAN_POINT('Origin',(210.07079245401,-70.2621455328126,190.810072244694));
#655=UNCERTAINTY_MEASURE_WITH_UNIT(LENGTH_MEASURE(0.01),#659,
'DISTANCE_ACCURACY_VALUE',
'Maximum model space distance between geometric entities at asserted c
onnectivities');
#656=UNCERTAINTY_MEASURE_WITH_UNIT(LENGTH_MEASURE(0.01),#659,
'DISTANCE_ACCURACY_VALUE',
'Maximum model space distance between geometric entities at asserted c
onnectivities');
#657=(
GEOMETRIC_REPRESENTATION_CONTEXT(3)
GLOBAL_UNCERTAINTY_ASSIGNED_CONTEXT((#655))
GLOBAL_UNIT_ASSIGNED_CONTEXT((#659,#661,#662))
REPRESENTATION_CONTEXT('','3D')
);
#658=(
GEOMETRIC_REPRESENTATION_CONTEXT(3)
GLOBAL_UNCERTAINTY_ASSIGNED_CONTEXT((#656))
GLOBAL_UNIT_ASSIGNED_CONTEXT((#659,#661,#662))
REPRESENTATION_CONTEXT('','3D')
);
#659=(
LENGTH_UNIT()
NAMED_UNIT(*)
SI_UNIT(.MILLI.,.METRE.)
);
#660=(
LENGTH_UNIT()
NAMED_UNIT(*)
SI_UNIT($,.METRE.)
);
#661=(
NAMED_UNIT(*)
PLANE_ANGLE_UNIT()
SI_UNIT($,.RADIAN.)
);
#662=(
NAMED_UNIT(*)
SI_UNIT($,.STERADIAN.)
SOLID_ANGLE_UNIT()
);
#663=SHAPE_DEFINITION_REPRESENTATION(#664,#665);
#664=PRODUCT_DEFINITION_SHAPE('',$,#667);
#665=SHAPE_REPRESENTATION('',(#395),#657);
#666=PRODUCT_DEFINITION_CONTEXT('part definition',#671,'design');
#667=PRODUCT_DEFINITION('J3/4Cover','J3/4Cover',#668,#666);
#668=PRODUCT_DEFINITION_FORMATION('',$,#673);
#669=PRODUCT_RELATED_PRODUCT_CATEGORY('J3/4Cover','J3/4Cover',(#673));
#670=APPLICATION_PROTOCOL_DEFINITION('international standard',
'automotive_design',2009,#671);
#671=APPLICATION_CONTEXT(
'Core Data for Automotive Mechanical Design Process');
#672=PRODUCT_CONTEXT('part definition',#671,'mechanical');
#673=PRODUCT('J3/4Cover','J3/4Cover',$,(#672));
#674=PRESENTATION_STYLE_ASSIGNMENT((#675));
#675=SURFACE_STYLE_USAGE(.BOTH.,#676);
#676=SURFACE_SIDE_STYLE('',(#677));
#677=SURFACE_STYLE_FILL_AREA(#678);
#678=FILL_AREA_STYLE('Steel - Satin',(#679));
#679=FILL_AREA_STYLE_COLOUR('Steel - Satin',#680);
#680=COLOUR_RGB('Steel - Satin',0.627450980392157,0.627450980392157,0.627450980392157);
ENDSEC;
END-ISO-10303-21;
