ISO-10303-21;
HEADER;
/* Generated by software containing ST-Developer
 * from STEP Tools, Inc. (www.steptools.com) 
 */

FILE_DESCRIPTION(
/* description */ (''),
/* implementation_level */ '2;1');

FILE_NAME(
/* name */ 'J3PlanetaryMount.step',
/* time_stamp */ '2026-08-05T16:39:02-05:00',
/* author */ (''),
/* organization */ (''),
/* preprocessor_version */ 'ST-DEVELOPER v20.1',
/* originating_system */ 'Autodesk Translation Framework v15.8.0.0',
/* authorisation */ '');

FILE_SCHEMA (('AUTOMOTIVE_DESIGN { 1 0 10303 214 3 1 1 }'));
ENDSEC;

DATA;
#10=MECHANICAL_DESIGN_GEOMETRIC_PRESENTATION_REPRESENTATION('',(#13),#510);
#11=SHAPE_REPRESENTATION_RELATIONSHIP('SRR','None',#517,#12);
#12=ADVANCED_BREP_SHAPE_REPRESENTATION('',(#14),#509);
#13=STYLED_ITEM('',(#526),#14);
#14=MANIFOLD_SOLID_BREP('NEMA MOUNT',#306);
#15=CYLINDRICAL_SURFACE('',#330,2.5);
#16=CYLINDRICAL_SURFACE('',#332,2.5);
#17=CYLINDRICAL_SURFACE('',#334,2.5);
#18=CYLINDRICAL_SURFACE('',#336,2.5);
#19=CYLINDRICAL_SURFACE('',#344,12.5);
#20=FACE_BOUND('',#57,.T.);
#21=FACE_BOUND('',#58,.T.);
#22=FACE_BOUND('',#60,.T.);
#23=FACE_BOUND('',#62,.T.);
#24=FACE_BOUND('',#63,.T.);
#25=FACE_BOUND('',#70,.T.);
#26=FACE_BOUND('',#71,.T.);
#27=FACE_BOUND('',#74,.T.);
#28=FACE_BOUND('',#75,.T.);
#29=FACE_BOUND('',#78,.T.);
#30=CIRCLE('',#322,2.5);
#31=CIRCLE('',#323,2.5);
#32=CIRCLE('',#325,12.5);
#33=CIRCLE('',#327,2.5);
#34=CIRCLE('',#328,2.5);
#35=CIRCLE('',#331,2.5);
#36=CIRCLE('',#333,2.5);
#37=CIRCLE('',#335,2.5);
#38=CIRCLE('',#337,2.5);
#39=CIRCLE('',#343,12.5);
#40=FACE_OUTER_BOUND('',#55,.T.);
#41=FACE_OUTER_BOUND('',#56,.T.);
#42=FACE_OUTER_BOUND('',#59,.T.);
#43=FACE_OUTER_BOUND('',#61,.T.);
#44=FACE_OUTER_BOUND('',#64,.T.);
#45=FACE_OUTER_BOUND('',#65,.T.);
#46=FACE_OUTER_BOUND('',#66,.T.);
#47=FACE_OUTER_BOUND('',#67,.T.);
#48=FACE_OUTER_BOUND('',#68,.T.);
#49=FACE_OUTER_BOUND('',#69,.T.);
#50=FACE_OUTER_BOUND('',#72,.T.);
#51=FACE_OUTER_BOUND('',#73,.T.);
#52=FACE_OUTER_BOUND('',#76,.T.);
#53=FACE_OUTER_BOUND('',#77,.T.);
#54=FACE_OUTER_BOUND('',#79,.T.);
#55=EDGE_LOOP('',(#203,#204,#205,#206,#207,#208,#209,#210));
#56=EDGE_LOOP('',(#211,#212,#213,#214));
#57=EDGE_LOOP('',(#215));
#58=EDGE_LOOP('',(#216));
#59=EDGE_LOOP('',(#217,#218,#219,#220));
#60=EDGE_LOOP('',(#221));
#61=EDGE_LOOP('',(#222,#223,#224,#225));
#62=EDGE_LOOP('',(#226));
#63=EDGE_LOOP('',(#227));
#64=EDGE_LOOP('',(#228,#229,#230,#231,#232,#233,#234,#235));
#65=EDGE_LOOP('',(#236,#237,#238,#239));
#66=EDGE_LOOP('',(#240,#241,#242,#243));
#67=EDGE_LOOP('',(#244,#245,#246,#247));
#68=EDGE_LOOP('',(#248,#249,#250,#251));
#69=EDGE_LOOP('',(#252,#253,#254,#255));
#70=EDGE_LOOP('',(#256));
#71=EDGE_LOOP('',(#257));
#72=EDGE_LOOP('',(#258,#259,#260,#261));
#73=EDGE_LOOP('',(#262,#263,#264,#265));
#74=EDGE_LOOP('',(#266));
#75=EDGE_LOOP('',(#267));
#76=EDGE_LOOP('',(#268,#269,#270,#271));
#77=EDGE_LOOP('',(#272,#273,#274,#275));
#78=EDGE_LOOP('',(#276));
#79=EDGE_LOOP('',(#277,#278,#279,#280));
#80=LINE('',#430,#109);
#81=LINE('',#432,#110);
#82=LINE('',#434,#111);
#83=LINE('',#436,#112);
#84=LINE('',#438,#113);
#85=LINE('',#440,#114);
#86=LINE('',#442,#115);
#87=LINE('',#443,#116);
#88=LINE('',#446,#117);
#89=LINE('',#448,#118);
#90=LINE('',#449,#119);
#91=LINE('',#456,#120);
#92=LINE('',#457,#121);
#93=LINE('',#462,#122);
#94=LINE('',#463,#123);
#95=LINE('',#470,#124);
#96=LINE('',#472,#125);
#97=LINE('',#474,#126);
#98=LINE('',#476,#127);
#99=LINE('',#477,#128);
#100=LINE('',#480,#129);
#101=LINE('',#485,#130);
#102=LINE('',#488,#131);
#103=LINE('',#493,#132);
#104=LINE('',#495,#133);
#105=LINE('',#496,#134);
#106=LINE('',#499,#135);
#107=LINE('',#500,#136);
#108=LINE('',#506,#137);
#109=VECTOR('',#349,10.);
#110=VECTOR('',#350,10.);
#111=VECTOR('',#351,10.);
#112=VECTOR('',#352,10.);
#113=VECTOR('',#353,10.);
#114=VECTOR('',#354,10.);
#115=VECTOR('',#355,10.);
#116=VECTOR('',#356,10.);
#117=VECTOR('',#359,10.);
#118=VECTOR('',#360,10.);
#119=VECTOR('',#361,10.);
#120=VECTOR('',#368,10.);
#121=VECTOR('',#369,10.);
#122=VECTOR('',#374,10.);
#123=VECTOR('',#375,10.);
#124=VECTOR('',#382,10.);
#125=VECTOR('',#383,10.);
#126=VECTOR('',#384,10.);
#127=VECTOR('',#385,10.);
#128=VECTOR('',#386,10.);
#129=VECTOR('',#389,2.5);
#130=VECTOR('',#396,2.5);
#131=VECTOR('',#399,2.5);
#132=VECTOR('',#406,2.5);
#133=VECTOR('',#409,10.);
#134=VECTOR('',#410,10.);
#135=VECTOR('',#415,10.);
#136=VECTOR('',#416,10.);
#137=VECTOR('',#425,12.5);
#138=VERTEX_POINT('',#428);
#139=VERTEX_POINT('',#429);
#140=VERTEX_POINT('',#431);
#141=VERTEX_POINT('',#433);
#142=VERTEX_POINT('',#435);
#143=VERTEX_POINT('',#437);
#144=VERTEX_POINT('',#439);
#145=VERTEX_POINT('',#441);
#146=VERTEX_POINT('',#445);
#147=VERTEX_POINT('',#447);
#148=VERTEX_POINT('',#450);
#149=VERTEX_POINT('',#452);
#150=VERTEX_POINT('',#455);
#151=VERTEX_POINT('',#458);
#152=VERTEX_POINT('',#461);
#153=VERTEX_POINT('',#464);
#154=VERTEX_POINT('',#466);
#155=VERTEX_POINT('',#469);
#156=VERTEX_POINT('',#471);
#157=VERTEX_POINT('',#473);
#158=VERTEX_POINT('',#475);
#159=VERTEX_POINT('',#479);
#160=VERTEX_POINT('',#483);
#161=VERTEX_POINT('',#487);
#162=VERTEX_POINT('',#491);
#163=VERTEX_POINT('',#503);
#164=EDGE_CURVE('',#138,#139,#80,.T.);
#165=EDGE_CURVE('',#139,#140,#81,.T.);
#166=EDGE_CURVE('',#140,#141,#82,.T.);
#167=EDGE_CURVE('',#141,#142,#83,.T.);
#168=EDGE_CURVE('',#142,#143,#84,.T.);
#169=EDGE_CURVE('',#143,#144,#85,.T.);
#170=EDGE_CURVE('',#144,#145,#86,.T.);
#171=EDGE_CURVE('',#145,#138,#87,.T.);
#172=EDGE_CURVE('',#146,#138,#88,.T.);
#173=EDGE_CURVE('',#147,#145,#89,.T.);
#174=EDGE_CURVE('',#147,#146,#90,.T.);
#175=EDGE_CURVE('',#148,#148,#30,.T.);
#176=EDGE_CURVE('',#149,#149,#31,.T.);
#177=EDGE_CURVE('',#150,#146,#91,.T.);
#178=EDGE_CURVE('',#139,#150,#92,.T.);
#179=EDGE_CURVE('',#151,#151,#32,.T.);
#180=EDGE_CURVE('',#150,#152,#93,.T.);
#181=EDGE_CURVE('',#152,#140,#94,.T.);
#182=EDGE_CURVE('',#153,#153,#33,.T.);
#183=EDGE_CURVE('',#154,#154,#34,.T.);
#184=EDGE_CURVE('',#155,#147,#95,.T.);
#185=EDGE_CURVE('',#156,#155,#96,.T.);
#186=EDGE_CURVE('',#157,#156,#97,.T.);
#187=EDGE_CURVE('',#157,#158,#98,.T.);
#188=EDGE_CURVE('',#152,#158,#99,.T.);
#189=EDGE_CURVE('',#148,#159,#100,.T.);
#190=EDGE_CURVE('',#159,#159,#35,.T.);
#191=EDGE_CURVE('',#160,#160,#36,.T.);
#192=EDGE_CURVE('',#160,#154,#101,.T.);
#193=EDGE_CURVE('',#149,#161,#102,.T.);
#194=EDGE_CURVE('',#161,#161,#37,.T.);
#195=EDGE_CURVE('',#162,#162,#38,.T.);
#196=EDGE_CURVE('',#162,#153,#103,.T.);
#197=EDGE_CURVE('',#142,#157,#104,.T.);
#198=EDGE_CURVE('',#158,#141,#105,.T.);
#199=EDGE_CURVE('',#156,#143,#106,.T.);
#200=EDGE_CURVE('',#155,#144,#107,.T.);
#201=EDGE_CURVE('',#163,#163,#39,.T.);
#202=EDGE_CURVE('',#163,#151,#108,.T.);
#203=ORIENTED_EDGE('',*,*,#164,.T.);
#204=ORIENTED_EDGE('',*,*,#165,.T.);
#205=ORIENTED_EDGE('',*,*,#166,.T.);
#206=ORIENTED_EDGE('',*,*,#167,.T.);
#207=ORIENTED_EDGE('',*,*,#168,.T.);
#208=ORIENTED_EDGE('',*,*,#169,.T.);
#209=ORIENTED_EDGE('',*,*,#170,.T.);
#210=ORIENTED_EDGE('',*,*,#171,.T.);
#211=ORIENTED_EDGE('',*,*,#172,.T.);
#212=ORIENTED_EDGE('',*,*,#171,.F.);
#213=ORIENTED_EDGE('',*,*,#173,.F.);
#214=ORIENTED_EDGE('',*,*,#174,.T.);
#215=ORIENTED_EDGE('',*,*,#175,.T.);
#216=ORIENTED_EDGE('',*,*,#176,.T.);
#217=ORIENTED_EDGE('',*,*,#177,.F.);
#218=ORIENTED_EDGE('',*,*,#178,.F.);
#219=ORIENTED_EDGE('',*,*,#164,.F.);
#220=ORIENTED_EDGE('',*,*,#172,.F.);
#221=ORIENTED_EDGE('',*,*,#179,.F.);
#222=ORIENTED_EDGE('',*,*,#178,.T.);
#223=ORIENTED_EDGE('',*,*,#180,.T.);
#224=ORIENTED_EDGE('',*,*,#181,.T.);
#225=ORIENTED_EDGE('',*,*,#165,.F.);
#226=ORIENTED_EDGE('',*,*,#182,.T.);
#227=ORIENTED_EDGE('',*,*,#183,.T.);
#228=ORIENTED_EDGE('',*,*,#177,.T.);
#229=ORIENTED_EDGE('',*,*,#174,.F.);
#230=ORIENTED_EDGE('',*,*,#184,.F.);
#231=ORIENTED_EDGE('',*,*,#185,.F.);
#232=ORIENTED_EDGE('',*,*,#186,.F.);
#233=ORIENTED_EDGE('',*,*,#187,.T.);
#234=ORIENTED_EDGE('',*,*,#188,.F.);
#235=ORIENTED_EDGE('',*,*,#180,.F.);
#236=ORIENTED_EDGE('',*,*,#175,.F.);
#237=ORIENTED_EDGE('',*,*,#189,.T.);
#238=ORIENTED_EDGE('',*,*,#190,.F.);
#239=ORIENTED_EDGE('',*,*,#189,.F.);
#240=ORIENTED_EDGE('',*,*,#191,.F.);
#241=ORIENTED_EDGE('',*,*,#192,.T.);
#242=ORIENTED_EDGE('',*,*,#183,.F.);
#243=ORIENTED_EDGE('',*,*,#192,.F.);
#244=ORIENTED_EDGE('',*,*,#176,.F.);
#245=ORIENTED_EDGE('',*,*,#193,.T.);
#246=ORIENTED_EDGE('',*,*,#194,.F.);
#247=ORIENTED_EDGE('',*,*,#193,.F.);
#248=ORIENTED_EDGE('',*,*,#195,.F.);
#249=ORIENTED_EDGE('',*,*,#196,.T.);
#250=ORIENTED_EDGE('',*,*,#182,.F.);
#251=ORIENTED_EDGE('',*,*,#196,.F.);
#252=ORIENTED_EDGE('',*,*,#197,.F.);
#253=ORIENTED_EDGE('',*,*,#167,.F.);
#254=ORIENTED_EDGE('',*,*,#198,.F.);
#255=ORIENTED_EDGE('',*,*,#187,.F.);
#256=ORIENTED_EDGE('',*,*,#191,.T.);
#257=ORIENTED_EDGE('',*,*,#195,.T.);
#258=ORIENTED_EDGE('',*,*,#181,.F.);
#259=ORIENTED_EDGE('',*,*,#188,.T.);
#260=ORIENTED_EDGE('',*,*,#198,.T.);
#261=ORIENTED_EDGE('',*,*,#166,.F.);
#262=ORIENTED_EDGE('',*,*,#199,.F.);
#263=ORIENTED_EDGE('',*,*,#185,.T.);
#264=ORIENTED_EDGE('',*,*,#200,.T.);
#265=ORIENTED_EDGE('',*,*,#169,.F.);
#266=ORIENTED_EDGE('',*,*,#190,.T.);
#267=ORIENTED_EDGE('',*,*,#194,.T.);
#268=ORIENTED_EDGE('',*,*,#200,.F.);
#269=ORIENTED_EDGE('',*,*,#184,.T.);
#270=ORIENTED_EDGE('',*,*,#173,.T.);
#271=ORIENTED_EDGE('',*,*,#170,.F.);
#272=ORIENTED_EDGE('',*,*,#197,.T.);
#273=ORIENTED_EDGE('',*,*,#186,.T.);
#274=ORIENTED_EDGE('',*,*,#199,.T.);
#275=ORIENTED_EDGE('',*,*,#168,.F.);
#276=ORIENTED_EDGE('',*,*,#201,.T.);
#277=ORIENTED_EDGE('',*,*,#201,.F.);
#278=ORIENTED_EDGE('',*,*,#202,.T.);
#279=ORIENTED_EDGE('',*,*,#179,.T.);
#280=ORIENTED_EDGE('',*,*,#202,.F.);
#281=PLANE('',#320);
#282=PLANE('',#321);
#283=PLANE('',#324);
#284=PLANE('',#326);
#285=PLANE('',#329);
#286=PLANE('',#338);
#287=PLANE('',#339);
#288=PLANE('',#340);
#289=PLANE('',#341);
#290=PLANE('',#342);
#291=ADVANCED_FACE('',(#40),#281,.T.);
#292=ADVANCED_FACE('',(#41,#20,#21),#282,.T.);
#293=ADVANCED_FACE('',(#42,#22),#283,.F.);
#294=ADVANCED_FACE('',(#43,#23,#24),#284,.T.);
#295=ADVANCED_FACE('',(#44),#285,.T.);
#296=ADVANCED_FACE('',(#45),#15,.F.);
#297=ADVANCED_FACE('',(#46),#16,.F.);
#298=ADVANCED_FACE('',(#47),#17,.F.);
#299=ADVANCED_FACE('',(#48),#18,.F.);
#300=ADVANCED_FACE('',(#49,#25,#26),#286,.T.);
#301=ADVANCED_FACE('',(#50),#287,.T.);
#302=ADVANCED_FACE('',(#51,#27,#28),#288,.T.);
#303=ADVANCED_FACE('',(#52),#289,.T.);
#304=ADVANCED_FACE('',(#53,#29),#290,.T.);
#305=ADVANCED_FACE('',(#54),#19,.F.);
#306=CLOSED_SHELL('',(#291,#292,#293,#294,#295,#296,#297,#298,#299,#300,
#301,#302,#303,#304,#305));
#307=DERIVED_UNIT_ELEMENT(#309,1.);
#308=DERIVED_UNIT_ELEMENT(#512,-3.);
#309=(
MASS_UNIT()
NAMED_UNIT(*)
SI_UNIT(.KILO.,.GRAM.)
);
#310=DERIVED_UNIT((#307,#308));
#311=MEASURE_REPRESENTATION_ITEM('density measure',
POSITIVE_RATIO_MEASURE(7850.),#310);
#312=PROPERTY_DEFINITION_REPRESENTATION(#317,#314);
#313=PROPERTY_DEFINITION_REPRESENTATION(#318,#315);
#314=REPRESENTATION('material name',(#316),#509);
#315=REPRESENTATION('density',(#311),#509);
#316=DESCRIPTIVE_REPRESENTATION_ITEM('Steel','Steel');
#317=PROPERTY_DEFINITION('material property','material name',#519);
#318=PROPERTY_DEFINITION('material property','density of part',#519);
#319=AXIS2_PLACEMENT_3D('',#426,#345,#346);
#320=AXIS2_PLACEMENT_3D('',#427,#347,#348);
#321=AXIS2_PLACEMENT_3D('',#444,#357,#358);
#322=AXIS2_PLACEMENT_3D('',#451,#362,#363);
#323=AXIS2_PLACEMENT_3D('',#453,#364,#365);
#324=AXIS2_PLACEMENT_3D('',#454,#366,#367);
#325=AXIS2_PLACEMENT_3D('',#459,#370,#371);
#326=AXIS2_PLACEMENT_3D('',#460,#372,#373);
#327=AXIS2_PLACEMENT_3D('',#465,#376,#377);
#328=AXIS2_PLACEMENT_3D('',#467,#378,#379);
#329=AXIS2_PLACEMENT_3D('',#468,#380,#381);
#330=AXIS2_PLACEMENT_3D('',#478,#387,#388);
#331=AXIS2_PLACEMENT_3D('',#481,#390,#391);
#332=AXIS2_PLACEMENT_3D('',#482,#392,#393);
#333=AXIS2_PLACEMENT_3D('',#484,#394,#395);
#334=AXIS2_PLACEMENT_3D('',#486,#397,#398);
#335=AXIS2_PLACEMENT_3D('',#489,#400,#401);
#336=AXIS2_PLACEMENT_3D('',#490,#402,#403);
#337=AXIS2_PLACEMENT_3D('',#492,#404,#405);
#338=AXIS2_PLACEMENT_3D('',#494,#407,#408);
#339=AXIS2_PLACEMENT_3D('',#497,#411,#412);
#340=AXIS2_PLACEMENT_3D('',#498,#413,#414);
#341=AXIS2_PLACEMENT_3D('',#501,#417,#418);
#342=AXIS2_PLACEMENT_3D('',#502,#419,#420);
#343=AXIS2_PLACEMENT_3D('',#504,#421,#422);
#344=AXIS2_PLACEMENT_3D('',#505,#423,#424);
#345=DIRECTION('axis',(0.,0.,1.));
#346=DIRECTION('refdir',(1.,0.,0.));
#347=DIRECTION('center_axis',(-0.224044299649275,0.,0.974578961292858));
#348=DIRECTION('ref_axis',(0.974578961292858,0.,0.224044299649275));
#349=DIRECTION('',(0.,-1.,0.));
#350=DIRECTION('',(0.974578961292858,0.,0.224044299649275));
#351=DIRECTION('',(0.,1.,0.));
#352=DIRECTION('',(-0.974578961292858,0.,-0.224044299649275));
#353=DIRECTION('',(0.,1.,0.));
#354=DIRECTION('',(0.974578961292858,0.,0.224044299649275));
#355=DIRECTION('',(0.,1.,0.));
#356=DIRECTION('',(-0.974578961292858,0.,-0.224044299649275));
#357=DIRECTION('center_axis',(0.,1.,0.));
#358=DIRECTION('ref_axis',(-0.224044299649275,0.,0.974578961292858));
#359=DIRECTION('',(-0.224044299649275,0.,0.974578961292858));
#360=DIRECTION('',(-0.224044299649275,0.,0.974578961292858));
#361=DIRECTION('',(-0.974578961292858,0.,-0.224044299649275));
#362=DIRECTION('center_axis',(0.,-1.,0.));
#363=DIRECTION('ref_axis',(-1.,0.,0.));
#364=DIRECTION('center_axis',(0.,-1.,0.));
#365=DIRECTION('ref_axis',(-1.,0.,0.));
#366=DIRECTION('center_axis',(0.974578961292858,0.,0.224044299649275));
#367=DIRECTION('ref_axis',(0.,1.,0.));
#368=DIRECTION('',(0.,1.,0.));
#369=DIRECTION('',(0.224044299649275,0.,-0.974578961292858));
#370=DIRECTION('center_axis',(-0.974578961292858,0.,-0.224044299649275));
#371=DIRECTION('ref_axis',(0.,1.,0.));
#372=DIRECTION('center_axis',(0.,-1.,0.));
#373=DIRECTION('ref_axis',(0.224044299649275,0.,-0.974578961292858));
#374=DIRECTION('',(0.974578961292858,0.,0.224044299649275));
#375=DIRECTION('',(-0.224044299649275,0.,0.974578961292858));
#376=DIRECTION('center_axis',(0.,1.,0.));
#377=DIRECTION('ref_axis',(-1.,0.,0.));
#378=DIRECTION('center_axis',(0.,1.,0.));
#379=DIRECTION('ref_axis',(-1.,0.,0.));
#380=DIRECTION('center_axis',(0.224044299649275,0.,-0.974578961292858));
#381=DIRECTION('ref_axis',(0.,1.,0.));
#382=DIRECTION('',(0.,1.,0.));
#383=DIRECTION('',(0.974578961292858,0.,0.224044299649275));
#384=DIRECTION('',(0.,1.,0.));
#385=DIRECTION('',(0.974578961292858,0.,0.224044299649275));
#386=DIRECTION('',(0.,1.,0.));
#387=DIRECTION('center_axis',(0.,-1.,0.));
#388=DIRECTION('ref_axis',(-1.,0.,0.));
#389=DIRECTION('',(0.,-1.,0.));
#390=DIRECTION('center_axis',(0.,1.,0.));
#391=DIRECTION('ref_axis',(-1.,0.,0.));
#392=DIRECTION('center_axis',(0.,-1.,0.));
#393=DIRECTION('ref_axis',(-1.,0.,0.));
#394=DIRECTION('center_axis',(0.,-1.,0.));
#395=DIRECTION('ref_axis',(-1.,0.,0.));
#396=DIRECTION('',(0.,-1.,0.));
#397=DIRECTION('center_axis',(0.,-1.,0.));
#398=DIRECTION('ref_axis',(-1.,0.,0.));
#399=DIRECTION('',(0.,-1.,0.));
#400=DIRECTION('center_axis',(0.,1.,0.));
#401=DIRECTION('ref_axis',(-1.,0.,0.));
#402=DIRECTION('center_axis',(0.,-1.,0.));
#403=DIRECTION('ref_axis',(-1.,0.,0.));
#404=DIRECTION('center_axis',(0.,-1.,0.));
#405=DIRECTION('ref_axis',(-1.,0.,0.));
#406=DIRECTION('',(0.,-1.,0.));
#407=DIRECTION('center_axis',(0.,1.,0.));
#408=DIRECTION('ref_axis',(-0.224044299649275,0.,0.974578961292858));
#409=DIRECTION('',(0.224044299649275,0.,-0.974578961292858));
#410=DIRECTION('',(-0.224044299649275,0.,0.974578961292858));
#411=DIRECTION('center_axis',(0.974578961292858,0.,0.224044299649275));
#412=DIRECTION('ref_axis',(0.224044299649275,0.,-0.974578961292858));
#413=DIRECTION('center_axis',(0.,-1.,0.));
#414=DIRECTION('ref_axis',(0.224044299649275,0.,-0.974578961292858));
#415=DIRECTION('',(-0.224044299649275,0.,0.974578961292858));
#416=DIRECTION('',(-0.224044299649275,0.,0.974578961292858));
#417=DIRECTION('center_axis',(0.974578961292858,0.,0.224044299649275));
#418=DIRECTION('ref_axis',(0.224044299649275,0.,-0.974578961292858));
#419=DIRECTION('center_axis',(0.974578961292858,0.,0.224044299649275));
#420=DIRECTION('ref_axis',(0.,1.,0.));
#421=DIRECTION('center_axis',(-0.974578961292858,0.,-0.224044299649275));
#422=DIRECTION('ref_axis',(0.,1.,0.));
#423=DIRECTION('center_axis',(0.974578961292858,0.,0.224044299649275));
#424=DIRECTION('ref_axis',(0.,1.,0.));
#425=DIRECTION('',(-0.974578961292858,0.,-0.224044299649275));
#426=CARTESIAN_POINT('',(0.,0.,0.));
#427=CARTESIAN_POINT('Origin',(138.269040788626,200.5,56.4124535724959));
#428=CARTESIAN_POINT('',(141.192777672504,201.,57.0845864714438));
#429=CARTESIAN_POINT('',(141.192777672504,150.,57.0845864714438));
#430=CARTESIAN_POINT('',(141.192777672504,187.875,57.0845864714437));
#431=CARTESIAN_POINT('',(157.760620014483,150.,60.8933395654814));
#432=CARTESIAN_POINT('',(138.269040788626,150.,56.4124535724959));
#433=CARTESIAN_POINT('',(157.760620014483,155.,60.8933395654814));
#434=CARTESIAN_POINT('',(157.760620014483,155.,60.8933395654814));
#435=CARTESIAN_POINT('',(148.014830401554,155.,58.6528965689887));
#436=CARTESIAN_POINT('',(148.014830401554,155.,58.6528965689887));
#437=CARTESIAN_POINT('',(148.014830401554,195.,58.6528965689887));
#438=CARTESIAN_POINT('',(148.014830401554,150.,58.6528965689887));
#439=CARTESIAN_POINT('',(157.760620014483,195.,60.8933395654814));
#440=CARTESIAN_POINT('',(148.014830401554,195.,58.6528965689887));
#441=CARTESIAN_POINT('',(157.760620014483,201.,60.8933395654814));
#442=CARTESIAN_POINT('',(157.760620014483,200.5,60.8933395654814));
#443=CARTESIAN_POINT('',(138.269040788626,201.,56.4124535724959));
#444=CARTESIAN_POINT('Origin',(148.126989973194,201.,13.5309792756102));
#445=CARTESIAN_POINT('',(151.050726857072,201.,14.203112174558));
#446=CARTESIAN_POINT('',(148.810283860579,201.,23.9489017874866));
#447=CARTESIAN_POINT('',(167.618569199051,201.,18.0118652685957));
#448=CARTESIAN_POINT('',(158.65679721308,201.,56.99502372031));
#449=CARTESIAN_POINT('',(148.126989973194,201.,13.5309792756102));
#450=CARTESIAN_POINT('',(163.086423350533,201.,26.2842533615278));
#451=CARTESIAN_POINT('Origin',(160.586423350533,201.,26.2842533615278));
#452=CARTESIAN_POINT('',(157.376722588612,201.,51.1211014605733));
#453=CARTESIAN_POINT('Origin',(154.876722588612,201.,51.1211014605733));
#454=CARTESIAN_POINT('Origin',(146.569840864087,175.25,33.6946914004152));
#455=CARTESIAN_POINT('',(151.050726857072,150.,14.203112174558));
#456=CARTESIAN_POINT('',(151.050726857072,200.5,14.203112174558));
#457=CARTESIAN_POINT('',(144.329397867594,150.,43.4404810133437));
#458=CARTESIAN_POINT('',(146.569840864087,162.75,33.6946914004152));
#459=CARTESIAN_POINT('Origin',(146.569840864087,175.25,33.6946914004152));
#460=CARTESIAN_POINT('Origin',(139.165217987223,150.,52.5141377273245));
#461=CARTESIAN_POINT('',(167.618569199051,150.,18.0118652685957));
#462=CARTESIAN_POINT('',(148.126989973194,150.,13.5309792756102));
#463=CARTESIAN_POINT('',(158.65679721308,150.,56.99502372031));
#464=CARTESIAN_POINT('',(157.376722588612,150.,51.1211014605733));
#465=CARTESIAN_POINT('Origin',(154.876722588612,150.,51.1211014605733));
#466=CARTESIAN_POINT('',(163.086423350533,150.,26.2842533615278));
#467=CARTESIAN_POINT('Origin',(160.586423350533,150.,26.2842533615278));
#468=CARTESIAN_POINT('Origin',(148.126989973194,150.,13.5309792756102));
#469=CARTESIAN_POINT('',(167.618569199051,195.,18.0118652685957));
#470=CARTESIAN_POINT('',(167.618569199051,200.5,18.0118652685957));
#471=CARTESIAN_POINT('',(157.872779586122,195.,15.7714222721029));
#472=CARTESIAN_POINT('',(157.872779586122,195.,15.7714222721029));
#473=CARTESIAN_POINT('',(157.872779586122,155.,15.7714222721029));
#474=CARTESIAN_POINT('',(157.872779586122,200.5,15.7714222721029));
#475=CARTESIAN_POINT('',(167.618569199051,155.,18.0118652685957));
#476=CARTESIAN_POINT('',(157.872779586122,155.,15.7714222721029));
#477=CARTESIAN_POINT('',(167.618569199051,150.,18.0118652685957));
#478=CARTESIAN_POINT('Origin',(160.586423350533,200.5,26.2842533615278));
#479=CARTESIAN_POINT('',(163.086423350533,195.,26.2842533615278));
#480=CARTESIAN_POINT('',(163.086423350533,200.5,26.2842533615278));
#481=CARTESIAN_POINT('Origin',(160.586423350533,195.,26.2842533615278));
#482=CARTESIAN_POINT('Origin',(160.586423350533,200.5,26.2842533615278));
#483=CARTESIAN_POINT('',(163.086423350533,155.,26.2842533615278));
#484=CARTESIAN_POINT('Origin',(160.586423350533,155.,26.2842533615278));
#485=CARTESIAN_POINT('',(163.086423350533,200.5,26.2842533615278));
#486=CARTESIAN_POINT('Origin',(154.876722588612,200.5,51.1211014605733));
#487=CARTESIAN_POINT('',(157.376722588612,195.,51.1211014605733));
#488=CARTESIAN_POINT('',(157.376722588612,200.5,51.1211014605733));
#489=CARTESIAN_POINT('Origin',(154.876722588612,195.,51.1211014605733));
#490=CARTESIAN_POINT('Origin',(154.876722588612,200.5,51.1211014605733));
#491=CARTESIAN_POINT('',(157.376722588612,155.,51.1211014605733));
#492=CARTESIAN_POINT('Origin',(154.876722588612,155.,51.1211014605733));
#493=CARTESIAN_POINT('',(157.376722588612,200.5,51.1211014605733));
#494=CARTESIAN_POINT('Origin',(157.872779586122,155.,15.7714222721029));
#495=CARTESIAN_POINT('',(155.632336589629,155.,25.5172118850315));
#496=CARTESIAN_POINT('',(167.618569199051,155.,18.0118652685957));
#497=CARTESIAN_POINT('Origin',(163.137683206065,152.5,37.5034444944529));
#498=CARTESIAN_POINT('Origin',(148.911007600151,195.,54.7545807238173));
#499=CARTESIAN_POINT('',(148.911007600151,195.,54.7545807238173));
#500=CARTESIAN_POINT('',(158.65679721308,195.,56.99502372031));
#501=CARTESIAN_POINT('Origin',(163.137683206065,197.75,37.5034444944529));
#502=CARTESIAN_POINT('Origin',(153.391893593137,175.25,35.2630014979601));
#503=CARTESIAN_POINT('',(153.391893593137,162.75,35.2630014979601));
#504=CARTESIAN_POINT('Origin',(153.391893593137,175.25,35.2630014979601));
#505=CARTESIAN_POINT('Origin',(143.646103980208,175.25,33.0225585014673));
#506=CARTESIAN_POINT('',(143.646103980208,162.75,33.0225585014673));
#507=UNCERTAINTY_MEASURE_WITH_UNIT(LENGTH_MEASURE(0.01),#511,
'DISTANCE_ACCURACY_VALUE',
'Maximum model space distance between geometric entities at asserted c
onnectivities');
#508=UNCERTAINTY_MEASURE_WITH_UNIT(LENGTH_MEASURE(0.01),#511,
'DISTANCE_ACCURACY_VALUE',
'Maximum model space distance between geometric entities at asserted c
onnectivities');
#509=(
GEOMETRIC_REPRESENTATION_CONTEXT(3)
GLOBAL_UNCERTAINTY_ASSIGNED_CONTEXT((#507))
GLOBAL_UNIT_ASSIGNED_CONTEXT((#511,#513,#514))
REPRESENTATION_CONTEXT('','3D')
);
#510=(
GEOMETRIC_REPRESENTATION_CONTEXT(3)
GLOBAL_UNCERTAINTY_ASSIGNED_CONTEXT((#508))
GLOBAL_UNIT_ASSIGNED_CONTEXT((#511,#513,#514))
REPRESENTATION_CONTEXT('','3D')
);
#511=(
LENGTH_UNIT()
NAMED_UNIT(*)
SI_UNIT(.MILLI.,.METRE.)
);
#512=(
LENGTH_UNIT()
NAMED_UNIT(*)
SI_UNIT($,.METRE.)
);
#513=(
NAMED_UNIT(*)
PLANE_ANGLE_UNIT()
SI_UNIT($,.RADIAN.)
);
#514=(
NAMED_UNIT(*)
SI_UNIT($,.STERADIAN.)
SOLID_ANGLE_UNIT()
);
#515=SHAPE_DEFINITION_REPRESENTATION(#516,#517);
#516=PRODUCT_DEFINITION_SHAPE('',$,#519);
#517=SHAPE_REPRESENTATION('',(#319),#509);
#518=PRODUCT_DEFINITION_CONTEXT('part definition',#523,'design');
#519=PRODUCT_DEFINITION('J3PlanetaryMount','J3PlanetaryMount',#520,#518);
#520=PRODUCT_DEFINITION_FORMATION('',$,#525);
#521=PRODUCT_RELATED_PRODUCT_CATEGORY('J3PlanetaryMount',
'J3PlanetaryMount',(#525));
#522=APPLICATION_PROTOCOL_DEFINITION('international standard',
'automotive_design',2009,#523);
#523=APPLICATION_CONTEXT(
'Core Data for Automotive Mechanical Design Process');
#524=PRODUCT_CONTEXT('part definition',#523,'mechanical');
#525=PRODUCT('J3PlanetaryMount','J3PlanetaryMount',$,(#524));
#526=PRESENTATION_STYLE_ASSIGNMENT((#527));
#527=SURFACE_STYLE_USAGE(.BOTH.,#528);
#528=SURFACE_SIDE_STYLE('',(#529));
#529=SURFACE_STYLE_FILL_AREA(#530);
#530=FILL_AREA_STYLE('Steel - Satin',(#531));
#531=FILL_AREA_STYLE_COLOUR('Steel - Satin',#532);
#532=COLOUR_RGB('Steel - Satin',0.627450980392157,0.627450980392157,0.627450980392157);
ENDSEC;
END-ISO-10303-21;
