ISO-10303-21;
HEADER;
/* Generated by software containing ST-Developer
 * from STEP Tools, Inc. (www.steptools.com) 
 */

FILE_DESCRIPTION(
/* description */ (''),
/* implementation_level */ '2;1');

FILE_NAME(
/* name */ 'Linkage2.step',
/* time_stamp */ '2026-08-05T16:40:03-05:00',
/* author */ (''),
/* organization */ (''),
/* preprocessor_version */ 'ST-DEVELOPER v20.1',
/* originating_system */ 'Autodesk Translation Framework v15.8.0.0',
/* authorisation */ '');

FILE_SCHEMA (('AUTOMOTIVE_DESIGN { 1 0 10303 214 3 1 1 }'));
ENDSEC;

DATA;
#10=MECHANICAL_DESIGN_GEOMETRIC_PRESENTATION_REPRESENTATION('',(#13),#1151);
#11=SHAPE_REPRESENTATION_RELATIONSHIP('SRR','None',#1158,#12);
#12=ADVANCED_BREP_SHAPE_REPRESENTATION('',(#14),#1150);
#13=STYLED_ITEM('',(#1167),#14);
#14=MANIFOLD_SOLID_BREP('Body1',#675);
#15=(
BOUNDED_CURVE()
B_SPLINE_CURVE(5,(#1062,#1063,#1064,#1065,#1066,#1067,#1068,#1069,#1070,
#1071),.UNSPECIFIED.,.F.,.F.)
B_SPLINE_CURVE_WITH_KNOTS((6,1,1,1,1,6),(0.,0.2,0.4,0.6,0.8,1.),
 .UNSPECIFIED.)
CURVE()
GEOMETRIC_REPRESENTATION_ITEM()
RATIONAL_B_SPLINE_CURVE((1.,1.,1.,1.,1.,1.,1.,1.,1.,1.))
REPRESENTATION_ITEM('')
);
#16=(
BOUNDED_CURVE()
B_SPLINE_CURVE(5,(#1104,#1105,#1106,#1107,#1108,#1109,#1110,#1111,#1112,
#1113),.UNSPECIFIED.,.F.,.F.)
B_SPLINE_CURVE_WITH_KNOTS((6,1,1,1,1,6),(0.,0.2,0.4,0.6,0.8,1.),
 .UNSPECIFIED.)
CURVE()
GEOMETRIC_REPRESENTATION_ITEM()
RATIONAL_B_SPLINE_CURVE((1.,1.,1.,1.,1.,1.,1.,1.,1.,1.))
REPRESENTATION_ITEM('')
);
#17=FACE_BOUND('',#115,.T.);
#18=FACE_BOUND('',#116,.T.);
#19=FACE_BOUND('',#117,.T.);
#20=FACE_BOUND('',#118,.T.);
#21=FACE_BOUND('',#119,.T.);
#22=FACE_BOUND('',#125,.T.);
#23=FACE_BOUND('',#128,.T.);
#24=FACE_BOUND('',#130,.T.);
#25=FACE_BOUND('',#136,.T.);
#26=FACE_BOUND('',#139,.T.);
#27=FACE_BOUND('',#141,.T.);
#28=FACE_BOUND('',#142,.T.);
#29=PLANE('',#692);
#30=PLANE('',#696);
#31=PLANE('',#700);
#32=PLANE('',#707);
#33=PLANE('',#708);
#34=PLANE('',#709);
#35=PLANE('',#710);
#36=PLANE('',#711);
#37=PLANE('',#712);
#38=PLANE('',#713);
#39=PLANE('',#714);
#40=PLANE('',#716);
#41=PLANE('',#717);
#42=PLANE('',#719);
#43=PLANE('',#723);
#44=PLANE('',#728);
#45=PLANE('',#731);
#46=PLANE('',#732);
#47=PLANE('',#736);
#48=PLANE('',#737);
#49=PLANE('',#739);
#50=PLANE('',#742);
#51=PLANE('',#743);
#52=PLANE('',#744);
#53=PLANE('',#745);
#54=PLANE('',#746);
#55=PLANE('',#748);
#56=FACE_OUTER_BOUND('',#94,.T.);
#57=FACE_OUTER_BOUND('',#95,.T.);
#58=FACE_OUTER_BOUND('',#96,.T.);
#59=FACE_OUTER_BOUND('',#97,.T.);
#60=FACE_OUTER_BOUND('',#98,.T.);
#61=FACE_OUTER_BOUND('',#99,.T.);
#62=FACE_OUTER_BOUND('',#100,.T.);
#63=FACE_OUTER_BOUND('',#101,.T.);
#64=FACE_OUTER_BOUND('',#102,.T.);
#65=FACE_OUTER_BOUND('',#103,.T.);
#66=FACE_OUTER_BOUND('',#104,.T.);
#67=FACE_OUTER_BOUND('',#105,.T.);
#68=FACE_OUTER_BOUND('',#106,.T.);
#69=FACE_OUTER_BOUND('',#107,.T.);
#70=FACE_OUTER_BOUND('',#108,.T.);
#71=FACE_OUTER_BOUND('',#109,.T.);
#72=FACE_OUTER_BOUND('',#110,.T.);
#73=FACE_OUTER_BOUND('',#111,.T.);
#74=FACE_OUTER_BOUND('',#112,.T.);
#75=FACE_OUTER_BOUND('',#113,.T.);
#76=FACE_OUTER_BOUND('',#114,.T.);
#77=FACE_OUTER_BOUND('',#120,.T.);
#78=FACE_OUTER_BOUND('',#121,.T.);
#79=FACE_OUTER_BOUND('',#122,.T.);
#80=FACE_OUTER_BOUND('',#123,.T.);
#81=FACE_OUTER_BOUND('',#124,.T.);
#82=FACE_OUTER_BOUND('',#126,.T.);
#83=FACE_OUTER_BOUND('',#127,.T.);
#84=FACE_OUTER_BOUND('',#129,.T.);
#85=FACE_OUTER_BOUND('',#131,.T.);
#86=FACE_OUTER_BOUND('',#132,.T.);
#87=FACE_OUTER_BOUND('',#133,.T.);
#88=FACE_OUTER_BOUND('',#134,.T.);
#89=FACE_OUTER_BOUND('',#135,.T.);
#90=FACE_OUTER_BOUND('',#137,.T.);
#91=FACE_OUTER_BOUND('',#138,.T.);
#92=FACE_OUTER_BOUND('',#140,.T.);
#93=FACE_OUTER_BOUND('',#143,.T.);
#94=EDGE_LOOP('',(#446,#447,#448,#449));
#95=EDGE_LOOP('',(#450));
#96=EDGE_LOOP('',(#451,#452,#453,#454));
#97=EDGE_LOOP('',(#455));
#98=EDGE_LOOP('',(#456,#457,#458,#459));
#99=EDGE_LOOP('',(#460));
#100=EDGE_LOOP('',(#461,#462,#463,#464));
#101=EDGE_LOOP('',(#465,#466,#467,#468));
#102=EDGE_LOOP('',(#469,#470,#471,#472));
#103=EDGE_LOOP('',(#473,#474,#475,#476));
#104=EDGE_LOOP('',(#477,#478,#479,#480));
#105=EDGE_LOOP('',(#481,#482,#483,#484));
#106=EDGE_LOOP('',(#485,#486,#487,#488));
#107=EDGE_LOOP('',(#489,#490,#491,#492));
#108=EDGE_LOOP('',(#493,#494,#495,#496));
#109=EDGE_LOOP('',(#497,#498,#499,#500,#501));
#110=EDGE_LOOP('',(#502,#503,#504,#505));
#111=EDGE_LOOP('',(#506,#507,#508,#509,#510));
#112=EDGE_LOOP('',(#511,#512,#513,#514));
#113=EDGE_LOOP('',(#515,#516,#517,#518,#519,#520,#521,#522));
#114=EDGE_LOOP('',(#523,#524,#525,#526));
#115=EDGE_LOOP('',(#527));
#116=EDGE_LOOP('',(#528));
#117=EDGE_LOOP('',(#529));
#118=EDGE_LOOP('',(#530,#531,#532,#533,#534,#535));
#119=EDGE_LOOP('',(#536,#537,#538,#539));
#120=EDGE_LOOP('',(#540,#541,#542,#543));
#121=EDGE_LOOP('',(#544,#545,#546,#547));
#122=EDGE_LOOP('',(#548,#549,#550,#551));
#123=EDGE_LOOP('',(#552,#553,#554,#555));
#124=EDGE_LOOP('',(#556));
#125=EDGE_LOOP('',(#557));
#126=EDGE_LOOP('',(#558,#559,#560,#561));
#127=EDGE_LOOP('',(#562));
#128=EDGE_LOOP('',(#563));
#129=EDGE_LOOP('',(#564,#565,#566,#567));
#130=EDGE_LOOP('',(#568));
#131=EDGE_LOOP('',(#569,#570,#571,#572));
#132=EDGE_LOOP('',(#573,#574,#575,#576));
#133=EDGE_LOOP('',(#577,#578,#579,#580,#581,#582,#583,#584));
#134=EDGE_LOOP('',(#585,#586,#587,#588));
#135=EDGE_LOOP('',(#589,#590,#591,#592));
#136=EDGE_LOOP('',(#593,#594,#595,#596,#597,#598));
#137=EDGE_LOOP('',(#599,#600,#601,#602,#603,#604,#605,#606,#607,#608,#609,
#610));
#138=EDGE_LOOP('',(#611,#612,#613,#614));
#139=EDGE_LOOP('',(#615));
#140=EDGE_LOOP('',(#616,#617,#618,#619));
#141=EDGE_LOOP('',(#620));
#142=EDGE_LOOP('',(#621));
#143=EDGE_LOOP('',(#622,#623,#624,#625));
#144=LINE('',#946,#208);
#145=LINE('',#953,#209);
#146=LINE('',#960,#210);
#147=LINE('',#967,#211);
#148=LINE('',#973,#212);
#149=LINE('',#978,#213);
#150=LINE('',#980,#214);
#151=LINE('',#982,#215);
#152=LINE('',#983,#216);
#153=LINE('',#986,#217);
#154=LINE('',#988,#218);
#155=LINE('',#989,#219);
#156=LINE('',#992,#220);
#157=LINE('',#994,#221);
#158=LINE('',#995,#222);
#159=LINE('',#998,#223);
#160=LINE('',#1000,#224);
#161=LINE('',#1001,#225);
#162=LINE('',#1004,#226);
#163=LINE('',#1006,#227);
#164=LINE('',#1007,#228);
#165=LINE('',#1009,#229);
#166=LINE('',#1010,#230);
#167=LINE('',#1014,#231);
#168=LINE('',#1016,#232);
#169=LINE('',#1018,#233);
#170=LINE('',#1019,#234);
#171=LINE('',#1022,#235);
#172=LINE('',#1026,#236);
#173=LINE('',#1027,#237);
#174=LINE('',#1030,#238);
#175=LINE('',#1031,#239);
#176=LINE('',#1034,#240);
#177=LINE('',#1036,#241);
#178=LINE('',#1039,#242);
#179=LINE('',#1042,#243);
#180=LINE('',#1046,#244);
#181=LINE('',#1049,#245);
#182=LINE('',#1055,#246);
#183=LINE('',#1058,#247);
#184=LINE('',#1060,#248);
#185=LINE('',#1072,#249);
#186=LINE('',#1077,#250);
#187=LINE('',#1078,#251);
#188=LINE('',#1081,#252);
#189=LINE('',#1082,#253);
#190=LINE('',#1086,#254);
#191=LINE('',#1088,#255);
#192=LINE('',#1095,#256);
#193=LINE('',#1102,#257);
#194=LINE('',#1114,#258);
#195=LINE('',#1118,#259);
#196=LINE('',#1119,#260);
#197=LINE('',#1120,#261);
#198=LINE('',#1123,#262);
#199=LINE('',#1125,#263);
#200=LINE('',#1128,#264);
#201=LINE('',#1130,#265);
#202=LINE('',#1131,#266);
#203=LINE('',#1134,#267);
#204=LINE('',#1135,#268);
#205=LINE('',#1137,#269);
#206=LINE('',#1139,#270);
#207=LINE('',#1147,#271);
#208=VECTOR('',#757,1.49999999999999);
#209=VECTOR('',#766,1.5);
#210=VECTOR('',#775,1.5);
#211=VECTOR('',#784,8.00000000000001);
#212=VECTOR('',#791,8.00000000000001);
#213=VECTOR('',#796,10.);
#214=VECTOR('',#797,10.);
#215=VECTOR('',#798,10.);
#216=VECTOR('',#799,10.);
#217=VECTOR('',#802,10.);
#218=VECTOR('',#803,10.);
#219=VECTOR('',#804,10.);
#220=VECTOR('',#807,10.);
#221=VECTOR('',#808,10.);
#222=VECTOR('',#809,10.);
#223=VECTOR('',#812,10.);
#224=VECTOR('',#813,10.);
#225=VECTOR('',#814,10.);
#226=VECTOR('',#817,10.);
#227=VECTOR('',#818,10.);
#228=VECTOR('',#819,10.);
#229=VECTOR('',#822,10.);
#230=VECTOR('',#823,10.);
#231=VECTOR('',#826,10.);
#232=VECTOR('',#827,10.);
#233=VECTOR('',#828,10.);
#234=VECTOR('',#829,10.);
#235=VECTOR('',#832,10.);
#236=VECTOR('',#835,10.);
#237=VECTOR('',#836,10.);
#238=VECTOR('',#839,10.);
#239=VECTOR('',#840,10.);
#240=VECTOR('',#843,10.);
#241=VECTOR('',#844,10.);
#242=VECTOR('',#849,10.);
#243=VECTOR('',#852,10.);
#244=VECTOR('',#855,10.);
#245=VECTOR('',#858,10.);
#246=VECTOR('',#863,10.);
#247=VECTOR('',#866,10.);
#248=VECTOR('',#867,10.);
#249=VECTOR('',#868,10.);
#250=VECTOR('',#873,10.);
#251=VECTOR('',#874,10.);
#252=VECTOR('',#877,10.);
#253=VECTOR('',#878,10.);
#254=VECTOR('',#883,10.);
#255=VECTOR('',#886,10.);
#256=VECTOR('',#895,20.);
#257=VECTOR('',#902,10.);
#258=VECTOR('',#903,10.);
#259=VECTOR('',#906,10.);
#260=VECTOR('',#907,10.);
#261=VECTOR('',#908,10.);
#262=VECTOR('',#911,10.);
#263=VECTOR('',#912,10.);
#264=VECTOR('',#917,10.);
#265=VECTOR('',#918,10.);
#266=VECTOR('',#919,10.);
#267=VECTOR('',#922,10.);
#268=VECTOR('',#923,10.);
#269=VECTOR('',#926,10.);
#270=VECTOR('',#929,10.);
#271=VECTOR('',#940,13.5);
#272=CIRCLE('',#690,1.49999999999999);
#273=CIRCLE('',#691,1.49999999999999);
#274=CIRCLE('',#694,1.5);
#275=CIRCLE('',#695,1.5);
#276=CIRCLE('',#698,1.5);
#277=CIRCLE('',#699,1.5);
#278=CIRCLE('',#702,8.00000000000001);
#279=CIRCLE('',#703,8.00000000000001);
#280=CIRCLE('',#705,8.00000000000001);
#281=CIRCLE('',#706,8.00000000000001);
#282=CIRCLE('',#715,20.);
#283=CIRCLE('',#718,20.);
#284=CIRCLE('',#721,20.);
#285=CIRCLE('',#722,20.);
#286=CIRCLE('',#724,22.5);
#287=CIRCLE('',#725,22.5);
#288=CIRCLE('',#727,22.5);
#289=CIRCLE('',#730,22.5);
#290=CIRCLE('',#733,20.);
#291=CIRCLE('',#735,20.);
#292=CIRCLE('',#738,20.);
#293=CIRCLE('',#741,20.);
#294=CIRCLE('',#747,13.5);
#295=CIRCLE('',#749,13.5);
#296=VERTEX_POINT('',#943);
#297=VERTEX_POINT('',#945);
#298=VERTEX_POINT('',#950);
#299=VERTEX_POINT('',#952);
#300=VERTEX_POINT('',#957);
#301=VERTEX_POINT('',#959);
#302=VERTEX_POINT('',#964);
#303=VERTEX_POINT('',#966);
#304=VERTEX_POINT('',#970);
#305=VERTEX_POINT('',#972);
#306=VERTEX_POINT('',#976);
#307=VERTEX_POINT('',#977);
#308=VERTEX_POINT('',#979);
#309=VERTEX_POINT('',#981);
#310=VERTEX_POINT('',#985);
#311=VERTEX_POINT('',#987);
#312=VERTEX_POINT('',#991);
#313=VERTEX_POINT('',#993);
#314=VERTEX_POINT('',#997);
#315=VERTEX_POINT('',#999);
#316=VERTEX_POINT('',#1003);
#317=VERTEX_POINT('',#1005);
#318=VERTEX_POINT('',#1012);
#319=VERTEX_POINT('',#1013);
#320=VERTEX_POINT('',#1015);
#321=VERTEX_POINT('',#1017);
#322=VERTEX_POINT('',#1021);
#323=VERTEX_POINT('',#1023);
#324=VERTEX_POINT('',#1025);
#325=VERTEX_POINT('',#1029);
#326=VERTEX_POINT('',#1033);
#327=VERTEX_POINT('',#1035);
#328=VERTEX_POINT('',#1041);
#329=VERTEX_POINT('',#1043);
#330=VERTEX_POINT('',#1045);
#331=VERTEX_POINT('',#1047);
#332=VERTEX_POINT('',#1051);
#333=VERTEX_POINT('',#1052);
#334=VERTEX_POINT('',#1054);
#335=VERTEX_POINT('',#1056);
#336=VERTEX_POINT('',#1059);
#337=VERTEX_POINT('',#1061);
#338=VERTEX_POINT('',#1074);
#339=VERTEX_POINT('',#1075);
#340=VERTEX_POINT('',#1080);
#341=VERTEX_POINT('',#1084);
#342=VERTEX_POINT('',#1090);
#343=VERTEX_POINT('',#1093);
#344=VERTEX_POINT('',#1098);
#345=VERTEX_POINT('',#1099);
#346=VERTEX_POINT('',#1101);
#347=VERTEX_POINT('',#1103);
#348=VERTEX_POINT('',#1116);
#349=VERTEX_POINT('',#1117);
#350=VERTEX_POINT('',#1122);
#351=VERTEX_POINT('',#1124);
#352=VERTEX_POINT('',#1129);
#353=VERTEX_POINT('',#1133);
#354=VERTEX_POINT('',#1141);
#355=VERTEX_POINT('',#1144);
#356=EDGE_CURVE('',#296,#296,#272,.T.);
#357=EDGE_CURVE('',#296,#297,#144,.T.);
#358=EDGE_CURVE('',#297,#297,#273,.T.);
#359=EDGE_CURVE('',#298,#298,#274,.T.);
#360=EDGE_CURVE('',#298,#299,#145,.T.);
#361=EDGE_CURVE('',#299,#299,#275,.T.);
#362=EDGE_CURVE('',#300,#300,#276,.T.);
#363=EDGE_CURVE('',#300,#301,#146,.T.);
#364=EDGE_CURVE('',#301,#301,#277,.T.);
#365=EDGE_CURVE('',#302,#302,#278,.T.);
#366=EDGE_CURVE('',#302,#303,#147,.T.);
#367=EDGE_CURVE('',#303,#303,#279,.T.);
#368=EDGE_CURVE('',#304,#304,#280,.T.);
#369=EDGE_CURVE('',#304,#305,#148,.T.);
#370=EDGE_CURVE('',#305,#305,#281,.T.);
#371=EDGE_CURVE('',#306,#307,#149,.T.);
#372=EDGE_CURVE('',#306,#308,#150,.T.);
#373=EDGE_CURVE('',#309,#308,#151,.T.);
#374=EDGE_CURVE('',#307,#309,#152,.T.);
#375=EDGE_CURVE('',#310,#306,#153,.T.);
#376=EDGE_CURVE('',#310,#311,#154,.T.);
#377=EDGE_CURVE('',#308,#311,#155,.T.);
#378=EDGE_CURVE('',#312,#310,#156,.T.);
#379=EDGE_CURVE('',#312,#313,#157,.T.);
#380=EDGE_CURVE('',#311,#313,#158,.T.);
#381=EDGE_CURVE('',#314,#312,#159,.T.);
#382=EDGE_CURVE('',#314,#315,#160,.T.);
#383=EDGE_CURVE('',#313,#315,#161,.T.);
#384=EDGE_CURVE('',#316,#314,#162,.T.);
#385=EDGE_CURVE('',#316,#317,#163,.T.);
#386=EDGE_CURVE('',#315,#317,#164,.T.);
#387=EDGE_CURVE('',#307,#316,#165,.T.);
#388=EDGE_CURVE('',#317,#309,#166,.T.);
#389=EDGE_CURVE('',#318,#319,#167,.T.);
#390=EDGE_CURVE('',#320,#318,#168,.T.);
#391=EDGE_CURVE('',#321,#320,#169,.T.);
#392=EDGE_CURVE('',#319,#321,#170,.T.);
#393=EDGE_CURVE('',#322,#320,#171,.T.);
#394=EDGE_CURVE('',#323,#322,#282,.T.);
#395=EDGE_CURVE('',#324,#323,#172,.T.);
#396=EDGE_CURVE('',#321,#324,#173,.T.);
#397=EDGE_CURVE('',#318,#325,#174,.T.);
#398=EDGE_CURVE('',#322,#325,#175,.T.);
#399=EDGE_CURVE('',#319,#326,#176,.T.);
#400=EDGE_CURVE('',#327,#326,#177,.T.);
#401=EDGE_CURVE('',#325,#327,#283,.T.);
#402=EDGE_CURVE('',#326,#324,#178,.T.);
#403=EDGE_CURVE('',#328,#327,#179,.T.);
#404=EDGE_CURVE('',#329,#328,#284,.T.);
#405=EDGE_CURVE('',#329,#330,#180,.T.);
#406=EDGE_CURVE('',#330,#331,#285,.T.);
#407=EDGE_CURVE('',#323,#331,#181,.T.);
#408=EDGE_CURVE('',#332,#333,#286,.T.);
#409=EDGE_CURVE('',#333,#334,#182,.T.);
#410=EDGE_CURVE('',#334,#335,#287,.T.);
#411=EDGE_CURVE('',#335,#332,#183,.T.);
#412=EDGE_CURVE('',#328,#336,#184,.T.);
#413=EDGE_CURVE('',#336,#337,#15,.T.);
#414=EDGE_CURVE('',#337,#329,#185,.T.);
#415=EDGE_CURVE('',#338,#339,#288,.T.);
#416=EDGE_CURVE('',#339,#333,#186,.T.);
#417=EDGE_CURVE('',#338,#332,#187,.T.);
#418=EDGE_CURVE('',#339,#340,#188,.T.);
#419=EDGE_CURVE('',#340,#334,#189,.T.);
#420=EDGE_CURVE('',#340,#341,#289,.T.);
#421=EDGE_CURVE('',#341,#335,#190,.T.);
#422=EDGE_CURVE('',#341,#338,#191,.T.);
#423=EDGE_CURVE('',#342,#342,#290,.T.);
#424=EDGE_CURVE('',#343,#343,#291,.T.);
#425=EDGE_CURVE('',#343,#342,#192,.T.);
#426=EDGE_CURVE('',#344,#345,#292,.T.);
#427=EDGE_CURVE('',#346,#344,#193,.T.);
#428=EDGE_CURVE('',#346,#347,#16,.T.);
#429=EDGE_CURVE('',#345,#347,#194,.T.);
#430=EDGE_CURVE('',#348,#349,#195,.T.);
#431=EDGE_CURVE('',#347,#349,#196,.T.);
#432=EDGE_CURVE('',#348,#346,#197,.T.);
#433=EDGE_CURVE('',#350,#344,#198,.T.);
#434=EDGE_CURVE('',#351,#345,#199,.T.);
#435=EDGE_CURVE('',#351,#350,#293,.T.);
#436=EDGE_CURVE('',#349,#330,#200,.T.);
#437=EDGE_CURVE('',#337,#352,#201,.T.);
#438=EDGE_CURVE('',#352,#351,#202,.T.);
#439=EDGE_CURVE('',#353,#352,#203,.T.);
#440=EDGE_CURVE('',#353,#336,#204,.T.);
#441=EDGE_CURVE('',#350,#353,#205,.T.);
#442=EDGE_CURVE('',#331,#348,#206,.T.);
#443=EDGE_CURVE('',#354,#354,#294,.T.);
#444=EDGE_CURVE('',#355,#355,#295,.T.);
#445=EDGE_CURVE('',#354,#355,#207,.T.);
#446=ORIENTED_EDGE('',*,*,#356,.F.);
#447=ORIENTED_EDGE('',*,*,#357,.T.);
#448=ORIENTED_EDGE('',*,*,#358,.T.);
#449=ORIENTED_EDGE('',*,*,#357,.F.);
#450=ORIENTED_EDGE('',*,*,#358,.F.);
#451=ORIENTED_EDGE('',*,*,#359,.F.);
#452=ORIENTED_EDGE('',*,*,#360,.T.);
#453=ORIENTED_EDGE('',*,*,#361,.T.);
#454=ORIENTED_EDGE('',*,*,#360,.F.);
#455=ORIENTED_EDGE('',*,*,#361,.F.);
#456=ORIENTED_EDGE('',*,*,#362,.F.);
#457=ORIENTED_EDGE('',*,*,#363,.T.);
#458=ORIENTED_EDGE('',*,*,#364,.T.);
#459=ORIENTED_EDGE('',*,*,#363,.F.);
#460=ORIENTED_EDGE('',*,*,#364,.F.);
#461=ORIENTED_EDGE('',*,*,#365,.F.);
#462=ORIENTED_EDGE('',*,*,#366,.T.);
#463=ORIENTED_EDGE('',*,*,#367,.F.);
#464=ORIENTED_EDGE('',*,*,#366,.F.);
#465=ORIENTED_EDGE('',*,*,#368,.F.);
#466=ORIENTED_EDGE('',*,*,#369,.T.);
#467=ORIENTED_EDGE('',*,*,#370,.F.);
#468=ORIENTED_EDGE('',*,*,#369,.F.);
#469=ORIENTED_EDGE('',*,*,#371,.F.);
#470=ORIENTED_EDGE('',*,*,#372,.T.);
#471=ORIENTED_EDGE('',*,*,#373,.F.);
#472=ORIENTED_EDGE('',*,*,#374,.F.);
#473=ORIENTED_EDGE('',*,*,#375,.F.);
#474=ORIENTED_EDGE('',*,*,#376,.T.);
#475=ORIENTED_EDGE('',*,*,#377,.F.);
#476=ORIENTED_EDGE('',*,*,#372,.F.);
#477=ORIENTED_EDGE('',*,*,#378,.F.);
#478=ORIENTED_EDGE('',*,*,#379,.T.);
#479=ORIENTED_EDGE('',*,*,#380,.F.);
#480=ORIENTED_EDGE('',*,*,#376,.F.);
#481=ORIENTED_EDGE('',*,*,#381,.F.);
#482=ORIENTED_EDGE('',*,*,#382,.T.);
#483=ORIENTED_EDGE('',*,*,#383,.F.);
#484=ORIENTED_EDGE('',*,*,#379,.F.);
#485=ORIENTED_EDGE('',*,*,#384,.F.);
#486=ORIENTED_EDGE('',*,*,#385,.T.);
#487=ORIENTED_EDGE('',*,*,#386,.F.);
#488=ORIENTED_EDGE('',*,*,#382,.F.);
#489=ORIENTED_EDGE('',*,*,#387,.F.);
#490=ORIENTED_EDGE('',*,*,#374,.T.);
#491=ORIENTED_EDGE('',*,*,#388,.F.);
#492=ORIENTED_EDGE('',*,*,#385,.F.);
#493=ORIENTED_EDGE('',*,*,#389,.F.);
#494=ORIENTED_EDGE('',*,*,#390,.F.);
#495=ORIENTED_EDGE('',*,*,#391,.F.);
#496=ORIENTED_EDGE('',*,*,#392,.F.);
#497=ORIENTED_EDGE('',*,*,#391,.T.);
#498=ORIENTED_EDGE('',*,*,#393,.F.);
#499=ORIENTED_EDGE('',*,*,#394,.F.);
#500=ORIENTED_EDGE('',*,*,#395,.F.);
#501=ORIENTED_EDGE('',*,*,#396,.F.);
#502=ORIENTED_EDGE('',*,*,#390,.T.);
#503=ORIENTED_EDGE('',*,*,#397,.T.);
#504=ORIENTED_EDGE('',*,*,#398,.F.);
#505=ORIENTED_EDGE('',*,*,#393,.T.);
#506=ORIENTED_EDGE('',*,*,#389,.T.);
#507=ORIENTED_EDGE('',*,*,#399,.T.);
#508=ORIENTED_EDGE('',*,*,#400,.F.);
#509=ORIENTED_EDGE('',*,*,#401,.F.);
#510=ORIENTED_EDGE('',*,*,#397,.F.);
#511=ORIENTED_EDGE('',*,*,#392,.T.);
#512=ORIENTED_EDGE('',*,*,#396,.T.);
#513=ORIENTED_EDGE('',*,*,#402,.F.);
#514=ORIENTED_EDGE('',*,*,#399,.F.);
#515=ORIENTED_EDGE('',*,*,#394,.T.);
#516=ORIENTED_EDGE('',*,*,#398,.T.);
#517=ORIENTED_EDGE('',*,*,#401,.T.);
#518=ORIENTED_EDGE('',*,*,#403,.F.);
#519=ORIENTED_EDGE('',*,*,#404,.F.);
#520=ORIENTED_EDGE('',*,*,#405,.T.);
#521=ORIENTED_EDGE('',*,*,#406,.T.);
#522=ORIENTED_EDGE('',*,*,#407,.F.);
#523=ORIENTED_EDGE('',*,*,#408,.T.);
#524=ORIENTED_EDGE('',*,*,#409,.T.);
#525=ORIENTED_EDGE('',*,*,#410,.T.);
#526=ORIENTED_EDGE('',*,*,#411,.T.);
#527=ORIENTED_EDGE('',*,*,#356,.T.);
#528=ORIENTED_EDGE('',*,*,#359,.T.);
#529=ORIENTED_EDGE('',*,*,#362,.T.);
#530=ORIENTED_EDGE('',*,*,#371,.T.);
#531=ORIENTED_EDGE('',*,*,#387,.T.);
#532=ORIENTED_EDGE('',*,*,#384,.T.);
#533=ORIENTED_EDGE('',*,*,#381,.T.);
#534=ORIENTED_EDGE('',*,*,#378,.T.);
#535=ORIENTED_EDGE('',*,*,#375,.T.);
#536=ORIENTED_EDGE('',*,*,#412,.T.);
#537=ORIENTED_EDGE('',*,*,#413,.T.);
#538=ORIENTED_EDGE('',*,*,#414,.T.);
#539=ORIENTED_EDGE('',*,*,#404,.T.);
#540=ORIENTED_EDGE('',*,*,#415,.T.);
#541=ORIENTED_EDGE('',*,*,#416,.T.);
#542=ORIENTED_EDGE('',*,*,#408,.F.);
#543=ORIENTED_EDGE('',*,*,#417,.F.);
#544=ORIENTED_EDGE('',*,*,#418,.T.);
#545=ORIENTED_EDGE('',*,*,#419,.T.);
#546=ORIENTED_EDGE('',*,*,#409,.F.);
#547=ORIENTED_EDGE('',*,*,#416,.F.);
#548=ORIENTED_EDGE('',*,*,#420,.T.);
#549=ORIENTED_EDGE('',*,*,#421,.T.);
#550=ORIENTED_EDGE('',*,*,#410,.F.);
#551=ORIENTED_EDGE('',*,*,#419,.F.);
#552=ORIENTED_EDGE('',*,*,#422,.T.);
#553=ORIENTED_EDGE('',*,*,#417,.T.);
#554=ORIENTED_EDGE('',*,*,#411,.F.);
#555=ORIENTED_EDGE('',*,*,#421,.F.);
#556=ORIENTED_EDGE('',*,*,#423,.F.);
#557=ORIENTED_EDGE('',*,*,#370,.T.);
#558=ORIENTED_EDGE('',*,*,#424,.T.);
#559=ORIENTED_EDGE('',*,*,#425,.T.);
#560=ORIENTED_EDGE('',*,*,#423,.T.);
#561=ORIENTED_EDGE('',*,*,#425,.F.);
#562=ORIENTED_EDGE('',*,*,#424,.F.);
#563=ORIENTED_EDGE('',*,*,#365,.T.);
#564=ORIENTED_EDGE('',*,*,#426,.F.);
#565=ORIENTED_EDGE('',*,*,#427,.F.);
#566=ORIENTED_EDGE('',*,*,#428,.T.);
#567=ORIENTED_EDGE('',*,*,#429,.F.);
#568=ORIENTED_EDGE('',*,*,#367,.T.);
#569=ORIENTED_EDGE('',*,*,#430,.T.);
#570=ORIENTED_EDGE('',*,*,#431,.F.);
#571=ORIENTED_EDGE('',*,*,#428,.F.);
#572=ORIENTED_EDGE('',*,*,#432,.F.);
#573=ORIENTED_EDGE('',*,*,#433,.T.);
#574=ORIENTED_EDGE('',*,*,#426,.T.);
#575=ORIENTED_EDGE('',*,*,#434,.F.);
#576=ORIENTED_EDGE('',*,*,#435,.T.);
#577=ORIENTED_EDGE('',*,*,#436,.T.);
#578=ORIENTED_EDGE('',*,*,#405,.F.);
#579=ORIENTED_EDGE('',*,*,#414,.F.);
#580=ORIENTED_EDGE('',*,*,#437,.T.);
#581=ORIENTED_EDGE('',*,*,#438,.T.);
#582=ORIENTED_EDGE('',*,*,#434,.T.);
#583=ORIENTED_EDGE('',*,*,#429,.T.);
#584=ORIENTED_EDGE('',*,*,#431,.T.);
#585=ORIENTED_EDGE('',*,*,#439,.T.);
#586=ORIENTED_EDGE('',*,*,#437,.F.);
#587=ORIENTED_EDGE('',*,*,#413,.F.);
#588=ORIENTED_EDGE('',*,*,#440,.F.);
#589=ORIENTED_EDGE('',*,*,#435,.F.);
#590=ORIENTED_EDGE('',*,*,#438,.F.);
#591=ORIENTED_EDGE('',*,*,#439,.F.);
#592=ORIENTED_EDGE('',*,*,#441,.F.);
#593=ORIENTED_EDGE('',*,*,#373,.T.);
#594=ORIENTED_EDGE('',*,*,#377,.T.);
#595=ORIENTED_EDGE('',*,*,#380,.T.);
#596=ORIENTED_EDGE('',*,*,#383,.T.);
#597=ORIENTED_EDGE('',*,*,#386,.T.);
#598=ORIENTED_EDGE('',*,*,#388,.T.);
#599=ORIENTED_EDGE('',*,*,#395,.T.);
#600=ORIENTED_EDGE('',*,*,#407,.T.);
#601=ORIENTED_EDGE('',*,*,#442,.T.);
#602=ORIENTED_EDGE('',*,*,#432,.T.);
#603=ORIENTED_EDGE('',*,*,#427,.T.);
#604=ORIENTED_EDGE('',*,*,#433,.F.);
#605=ORIENTED_EDGE('',*,*,#441,.T.);
#606=ORIENTED_EDGE('',*,*,#440,.T.);
#607=ORIENTED_EDGE('',*,*,#412,.F.);
#608=ORIENTED_EDGE('',*,*,#403,.T.);
#609=ORIENTED_EDGE('',*,*,#400,.T.);
#610=ORIENTED_EDGE('',*,*,#402,.T.);
#611=ORIENTED_EDGE('',*,*,#430,.F.);
#612=ORIENTED_EDGE('',*,*,#442,.F.);
#613=ORIENTED_EDGE('',*,*,#406,.F.);
#614=ORIENTED_EDGE('',*,*,#436,.F.);
#615=ORIENTED_EDGE('',*,*,#443,.F.);
#616=ORIENTED_EDGE('',*,*,#420,.F.);
#617=ORIENTED_EDGE('',*,*,#418,.F.);
#618=ORIENTED_EDGE('',*,*,#415,.F.);
#619=ORIENTED_EDGE('',*,*,#422,.F.);
#620=ORIENTED_EDGE('',*,*,#368,.T.);
#621=ORIENTED_EDGE('',*,*,#444,.T.);
#622=ORIENTED_EDGE('',*,*,#443,.T.);
#623=ORIENTED_EDGE('',*,*,#445,.T.);
#624=ORIENTED_EDGE('',*,*,#444,.F.);
#625=ORIENTED_EDGE('',*,*,#445,.F.);
#626=CYLINDRICAL_SURFACE('',#689,1.49999999999999);
#627=CYLINDRICAL_SURFACE('',#693,1.5);
#628=CYLINDRICAL_SURFACE('',#697,1.5);
#629=CYLINDRICAL_SURFACE('',#701,8.00000000000001);
#630=CYLINDRICAL_SURFACE('',#704,8.00000000000001);
#631=CYLINDRICAL_SURFACE('',#720,20.);
#632=CYLINDRICAL_SURFACE('',#726,22.5);
#633=CYLINDRICAL_SURFACE('',#729,22.5);
#634=CYLINDRICAL_SURFACE('',#734,20.);
#635=CYLINDRICAL_SURFACE('',#740,20.);
#636=CYLINDRICAL_SURFACE('',#750,13.5);
#637=ADVANCED_FACE('',(#56),#626,.F.);
#638=ADVANCED_FACE('',(#57),#29,.T.);
#639=ADVANCED_FACE('',(#58),#627,.F.);
#640=ADVANCED_FACE('',(#59),#30,.T.);
#641=ADVANCED_FACE('',(#60),#628,.F.);
#642=ADVANCED_FACE('',(#61),#31,.T.);
#643=ADVANCED_FACE('',(#62),#629,.F.);
#644=ADVANCED_FACE('',(#63),#630,.F.);
#645=ADVANCED_FACE('',(#64),#32,.F.);
#646=ADVANCED_FACE('',(#65),#33,.F.);
#647=ADVANCED_FACE('',(#66),#34,.F.);
#648=ADVANCED_FACE('',(#67),#35,.F.);
#649=ADVANCED_FACE('',(#68),#36,.F.);
#650=ADVANCED_FACE('',(#69),#37,.F.);
#651=ADVANCED_FACE('',(#70),#38,.T.);
#652=ADVANCED_FACE('',(#71),#39,.T.);
#653=ADVANCED_FACE('',(#72),#40,.F.);
#654=ADVANCED_FACE('',(#73),#41,.F.);
#655=ADVANCED_FACE('',(#74),#42,.F.);
#656=ADVANCED_FACE('',(#75),#631,.F.);
#657=ADVANCED_FACE('',(#76,#17,#18,#19,#20,#21),#43,.T.);
#658=ADVANCED_FACE('',(#77),#632,.T.);
#659=ADVANCED_FACE('',(#78),#44,.T.);
#660=ADVANCED_FACE('',(#79),#633,.T.);
#661=ADVANCED_FACE('',(#80),#45,.T.);
#662=ADVANCED_FACE('',(#81,#22),#46,.T.);
#663=ADVANCED_FACE('',(#82),#634,.F.);
#664=ADVANCED_FACE('',(#83,#23),#47,.F.);
#665=ADVANCED_FACE('',(#84,#24),#48,.T.);
#666=ADVANCED_FACE('',(#85),#49,.T.);
#667=ADVANCED_FACE('',(#86),#635,.F.);
#668=ADVANCED_FACE('',(#87),#50,.F.);
#669=ADVANCED_FACE('',(#88),#51,.T.);
#670=ADVANCED_FACE('',(#89,#25),#52,.F.);
#671=ADVANCED_FACE('',(#90),#53,.F.);
#672=ADVANCED_FACE('',(#91,#26),#54,.T.);
#673=ADVANCED_FACE('',(#92,#27,#28),#55,.F.);
#674=ADVANCED_FACE('',(#93),#636,.F.);
#675=CLOSED_SHELL('',(#637,#638,#639,#640,#641,#642,#643,#644,#645,#646,
#647,#648,#649,#650,#651,#652,#653,#654,#655,#656,#657,#658,#659,#660,#661,
#662,#663,#664,#665,#666,#667,#668,#669,#670,#671,#672,#673,#674));
#676=DERIVED_UNIT_ELEMENT(#678,1.);
#677=DERIVED_UNIT_ELEMENT(#1153,-3.);
#678=(
MASS_UNIT()
NAMED_UNIT(*)
SI_UNIT(.KILO.,.GRAM.)
);
#679=DERIVED_UNIT((#676,#677));
#680=MEASURE_REPRESENTATION_ITEM('density measure',
POSITIVE_RATIO_MEASURE(7850.),#679);
#681=PROPERTY_DEFINITION_REPRESENTATION(#686,#683);
#682=PROPERTY_DEFINITION_REPRESENTATION(#687,#684);
#683=REPRESENTATION('material name',(#685),#1150);
#684=REPRESENTATION('density',(#680),#1150);
#685=DESCRIPTIVE_REPRESENTATION_ITEM('Steel','Steel');
#686=PROPERTY_DEFINITION('material property','material name',#1160);
#687=PROPERTY_DEFINITION('material property','density of part',#1160);
#688=AXIS2_PLACEMENT_3D('',#941,#751,#752);
#689=AXIS2_PLACEMENT_3D('',#942,#753,#754);
#690=AXIS2_PLACEMENT_3D('',#944,#755,#756);
#691=AXIS2_PLACEMENT_3D('',#947,#758,#759);
#692=AXIS2_PLACEMENT_3D('',#948,#760,#761);
#693=AXIS2_PLACEMENT_3D('',#949,#762,#763);
#694=AXIS2_PLACEMENT_3D('',#951,#764,#765);
#695=AXIS2_PLACEMENT_3D('',#954,#767,#768);
#696=AXIS2_PLACEMENT_3D('',#955,#769,#770);
#697=AXIS2_PLACEMENT_3D('',#956,#771,#772);
#698=AXIS2_PLACEMENT_3D('',#958,#773,#774);
#699=AXIS2_PLACEMENT_3D('',#961,#776,#777);
#700=AXIS2_PLACEMENT_3D('',#962,#778,#779);
#701=AXIS2_PLACEMENT_3D('',#963,#780,#781);
#702=AXIS2_PLACEMENT_3D('',#965,#782,#783);
#703=AXIS2_PLACEMENT_3D('',#968,#785,#786);
#704=AXIS2_PLACEMENT_3D('',#969,#787,#788);
#705=AXIS2_PLACEMENT_3D('',#971,#789,#790);
#706=AXIS2_PLACEMENT_3D('',#974,#792,#793);
#707=AXIS2_PLACEMENT_3D('',#975,#794,#795);
#708=AXIS2_PLACEMENT_3D('',#984,#800,#801);
#709=AXIS2_PLACEMENT_3D('',#990,#805,#806);
#710=AXIS2_PLACEMENT_3D('',#996,#810,#811);
#711=AXIS2_PLACEMENT_3D('',#1002,#815,#816);
#712=AXIS2_PLACEMENT_3D('',#1008,#820,#821);
#713=AXIS2_PLACEMENT_3D('',#1011,#824,#825);
#714=AXIS2_PLACEMENT_3D('',#1020,#830,#831);
#715=AXIS2_PLACEMENT_3D('',#1024,#833,#834);
#716=AXIS2_PLACEMENT_3D('',#1028,#837,#838);
#717=AXIS2_PLACEMENT_3D('',#1032,#841,#842);
#718=AXIS2_PLACEMENT_3D('',#1037,#845,#846);
#719=AXIS2_PLACEMENT_3D('',#1038,#847,#848);
#720=AXIS2_PLACEMENT_3D('',#1040,#850,#851);
#721=AXIS2_PLACEMENT_3D('',#1044,#853,#854);
#722=AXIS2_PLACEMENT_3D('',#1048,#856,#857);
#723=AXIS2_PLACEMENT_3D('',#1050,#859,#860);
#724=AXIS2_PLACEMENT_3D('',#1053,#861,#862);
#725=AXIS2_PLACEMENT_3D('',#1057,#864,#865);
#726=AXIS2_PLACEMENT_3D('',#1073,#869,#870);
#727=AXIS2_PLACEMENT_3D('',#1076,#871,#872);
#728=AXIS2_PLACEMENT_3D('',#1079,#875,#876);
#729=AXIS2_PLACEMENT_3D('',#1083,#879,#880);
#730=AXIS2_PLACEMENT_3D('',#1085,#881,#882);
#731=AXIS2_PLACEMENT_3D('',#1087,#884,#885);
#732=AXIS2_PLACEMENT_3D('',#1089,#887,#888);
#733=AXIS2_PLACEMENT_3D('',#1091,#889,#890);
#734=AXIS2_PLACEMENT_3D('',#1092,#891,#892);
#735=AXIS2_PLACEMENT_3D('',#1094,#893,#894);
#736=AXIS2_PLACEMENT_3D('',#1096,#896,#897);
#737=AXIS2_PLACEMENT_3D('',#1097,#898,#899);
#738=AXIS2_PLACEMENT_3D('',#1100,#900,#901);
#739=AXIS2_PLACEMENT_3D('',#1115,#904,#905);
#740=AXIS2_PLACEMENT_3D('',#1121,#909,#910);
#741=AXIS2_PLACEMENT_3D('',#1126,#913,#914);
#742=AXIS2_PLACEMENT_3D('',#1127,#915,#916);
#743=AXIS2_PLACEMENT_3D('',#1132,#920,#921);
#744=AXIS2_PLACEMENT_3D('',#1136,#924,#925);
#745=AXIS2_PLACEMENT_3D('',#1138,#927,#928);
#746=AXIS2_PLACEMENT_3D('',#1140,#930,#931);
#747=AXIS2_PLACEMENT_3D('',#1142,#932,#933);
#748=AXIS2_PLACEMENT_3D('',#1143,#934,#935);
#749=AXIS2_PLACEMENT_3D('',#1145,#936,#937);
#750=AXIS2_PLACEMENT_3D('',#1146,#938,#939);
#751=DIRECTION('axis',(0.,0.,1.));
#752=DIRECTION('refdir',(1.,0.,0.));
#753=DIRECTION('center_axis',(0.,1.,0.));
#754=DIRECTION('ref_axis',(1.,0.,0.));
#755=DIRECTION('center_axis',(-2.77555756156289E-17,1.,-6.93889390390725E-18));
#756=DIRECTION('ref_axis',(1.,0.,0.));
#757=DIRECTION('',(0.,1.,0.));
#758=DIRECTION('center_axis',(0.,1.,0.));
#759=DIRECTION('ref_axis',(1.,0.,0.));
#760=DIRECTION('center_axis',(0.,-1.,0.));
#761=DIRECTION('ref_axis',(1.,0.,0.));
#762=DIRECTION('center_axis',(0.,1.,0.));
#763=DIRECTION('ref_axis',(1.,0.,0.));
#764=DIRECTION('center_axis',(-2.77555756156289E-17,1.,-6.93889390390725E-18));
#765=DIRECTION('ref_axis',(1.,0.,0.));
#766=DIRECTION('',(0.,1.,0.));
#767=DIRECTION('center_axis',(0.,1.,0.));
#768=DIRECTION('ref_axis',(1.,0.,0.));
#769=DIRECTION('center_axis',(0.,-1.,0.));
#770=DIRECTION('ref_axis',(1.,0.,0.));
#771=DIRECTION('center_axis',(0.,1.,0.));
#772=DIRECTION('ref_axis',(1.,0.,0.));
#773=DIRECTION('center_axis',(-2.77555756156289E-17,1.,-6.93889390390725E-18));
#774=DIRECTION('ref_axis',(1.,0.,0.));
#775=DIRECTION('',(0.,1.,0.));
#776=DIRECTION('center_axis',(0.,1.,0.));
#777=DIRECTION('ref_axis',(1.,0.,0.));
#778=DIRECTION('center_axis',(0.,-1.,0.));
#779=DIRECTION('ref_axis',(1.,0.,0.));
#780=DIRECTION('center_axis',(0.,-1.,0.));
#781=DIRECTION('ref_axis',(-1.,0.,0.));
#782=DIRECTION('center_axis',(2.77555756156289E-17,-1.,6.93889390390723E-18));
#783=DIRECTION('ref_axis',(-1.,0.,0.));
#784=DIRECTION('',(0.,-1.,0.));
#785=DIRECTION('center_axis',(-2.77555756156289E-17,1.,-6.93889390390723E-18));
#786=DIRECTION('ref_axis',(-1.,0.,0.));
#787=DIRECTION('center_axis',(0.,-1.,0.));
#788=DIRECTION('ref_axis',(-1.,0.,0.));
#789=DIRECTION('center_axis',(1.38777878078145E-17,-1.,6.93889390390723E-18));
#790=DIRECTION('ref_axis',(-1.,0.,0.));
#791=DIRECTION('',(0.,-1.,0.));
#792=DIRECTION('center_axis',(-2.77555756156289E-17,1.,-6.93889390390723E-18));
#793=DIRECTION('ref_axis',(-1.,0.,0.));
#794=DIRECTION('center_axis',(0.5,0.,-0.866025403784439));
#795=DIRECTION('ref_axis',(-0.866025403784439,0.,-0.5));
#796=DIRECTION('',(-0.866025403784439,-2.75064805317482E-17,-0.5));
#797=DIRECTION('',(0.,1.,0.));
#798=DIRECTION('',(0.866025403784439,2.75064805317482E-17,0.5));
#799=DIRECTION('',(0.,1.,0.));
#800=DIRECTION('center_axis',(1.,0.,0.));
#801=DIRECTION('ref_axis',(0.,0.,-1.));
#802=DIRECTION('',(0.,-6.93889390390725E-18,-1.));
#803=DIRECTION('',(0.,1.,0.));
#804=DIRECTION('',(0.,6.93889390390723E-18,1.));
#805=DIRECTION('center_axis',(0.5,0.,0.866025403784439));
#806=DIRECTION('ref_axis',(0.866025403784439,0.,-0.5));
#807=DIRECTION('',(0.866025403784439,2.05675866278409E-17,-0.5));
#808=DIRECTION('',(0.,1.,0.));
#809=DIRECTION('',(-0.866025403784439,-2.05675866278409E-17,0.5));
#810=DIRECTION('center_axis',(-0.5,0.,0.866025403784439));
#811=DIRECTION('ref_axis',(0.866025403784439,0.,0.5));
#812=DIRECTION('',(0.866025403784439,2.75064805317482E-17,0.5));
#813=DIRECTION('',(0.,1.,0.));
#814=DIRECTION('',(-0.866025403784439,-2.75064805317482E-17,-0.5));
#815=DIRECTION('center_axis',(-1.,0.,0.));
#816=DIRECTION('ref_axis',(0.,0.,1.));
#817=DIRECTION('',(0.,6.93889390390725E-18,1.));
#818=DIRECTION('',(0.,1.,0.));
#819=DIRECTION('',(0.,-6.93889390390723E-18,-1.));
#820=DIRECTION('center_axis',(-0.5,0.,-0.866025403784439));
#821=DIRECTION('ref_axis',(-0.866025403784439,0.,0.5));
#822=DIRECTION('',(-0.866025403784439,-2.05675866278409E-17,0.5));
#823=DIRECTION('',(0.866025403784439,2.05675866278409E-17,-0.5));
#824=DIRECTION('center_axis',(0.,0.,1.));
#825=DIRECTION('ref_axis',(1.,0.,0.));
#826=DIRECTION('',(-1.,1.0285939146909E-16,0.));
#827=DIRECTION('',(2.77555756156289E-17,-1.,0.));
#828=DIRECTION('',(1.,-1.0285939146909E-16,0.));
#829=DIRECTION('',(-2.77555756156289E-17,1.,0.));
#830=DIRECTION('center_axis',(-1.0285939146909E-16,-1.,-1.22464679914735E-16));
#831=DIRECTION('ref_axis',(1.,-1.0285939146909E-16,-1.00375891081393E-15));
#832=DIRECTION('',(-1.00375891081393E-15,1.22464679914735E-16,-1.));
#833=DIRECTION('center_axis',(-1.0285939146909E-16,-1.,-1.22464679914735E-16));
#834=DIRECTION('ref_axis',(1.92592994438724E-34,-6.93889390390723E-18,-1.));
#835=DIRECTION('',(1.,-1.0285939146909E-16,9.06323398863197E-34));
#836=DIRECTION('',(1.00375891081393E-15,-1.22464679914735E-16,1.));
#837=DIRECTION('center_axis',(1.,2.77555756156289E-17,-1.00375891081393E-15));
#838=DIRECTION('ref_axis',(-1.00375891081393E-15,1.22464679914735E-16,-1.));
#839=DIRECTION('',(1.00375891081393E-15,-1.22464679914735E-16,1.));
#840=DIRECTION('',(2.77555756156289E-17,-1.,6.93889390390723E-18));
#841=DIRECTION('center_axis',(-1.0285939146909E-16,-1.,-1.22464679914735E-16));
#842=DIRECTION('ref_axis',(1.,-1.0285939146909E-16,-1.00375891081393E-15));
#843=DIRECTION('',(1.00375891081393E-15,-1.22464679914735E-16,1.));
#844=DIRECTION('',(-1.,1.0285939146909E-16,-9.06323398863197E-34));
#845=DIRECTION('center_axis',(1.0285939146909E-16,1.,1.22464679914735E-16));
#846=DIRECTION('ref_axis',(1.92592994438724E-34,-6.93889390390723E-18,-1.));
#847=DIRECTION('center_axis',(-1.,-2.77555756156289E-17,1.00375891081393E-15));
#848=DIRECTION('ref_axis',(1.00375891081393E-15,-1.22464679914735E-16,1.));
#849=DIRECTION('',(-2.77555756156289E-17,1.,-6.93889390390723E-18));
#850=DIRECTION('center_axis',(-2.77555756156289E-17,1.,-6.93889390390723E-18));
#851=DIRECTION('ref_axis',(1.92592994438724E-34,-6.93889390390723E-18,-1.));
#852=DIRECTION('',(-2.77555756156289E-17,1.,-6.93889390390723E-18));
#853=DIRECTION('center_axis',(-2.77555756156289E-17,1.,-6.93889390390725E-18));
#854=DIRECTION('ref_axis',(1.92592994438724E-34,-6.93889390390723E-18,-1.));
#855=DIRECTION('',(-2.77555756156289E-17,1.,-6.93889390390723E-18));
#856=DIRECTION('center_axis',(-2.77555756156289E-17,1.,-6.93889390390723E-18));
#857=DIRECTION('ref_axis',(1.92592994438724E-34,-6.93889390390723E-18,-1.));
#858=DIRECTION('',(-2.77555756156289E-17,1.,-6.93889390390723E-18));
#859=DIRECTION('center_axis',(2.77555756156289E-17,-1.,6.93889390390725E-18));
#860=DIRECTION('ref_axis',(1.,2.77555756156289E-17,0.));
#861=DIRECTION('center_axis',(2.77555756156289E-17,-1.,6.93889390390725E-18));
#862=DIRECTION('ref_axis',(-1.92592994438724E-34,6.93889390390725E-18,1.));
#863=DIRECTION('',(1.,2.77555756156289E-17,0.));
#864=DIRECTION('center_axis',(2.77555756156289E-17,-1.,6.93889390390725E-18));
#865=DIRECTION('ref_axis',(1.92592994438724E-34,-6.93889390390725E-18,-1.));
#866=DIRECTION('',(-1.,-2.77555756156289E-17,0.));
#867=DIRECTION('',(-1.,-2.77555756156289E-17,0.));
#868=DIRECTION('',(1.,2.77555756156289E-17,0.));
#869=DIRECTION('center_axis',(2.77555756156289E-17,-1.,6.93889390390723E-18));
#870=DIRECTION('ref_axis',(-1.92592994438724E-34,6.93889390390723E-18,1.));
#871=DIRECTION('center_axis',(2.77555756156289E-17,-1.,6.93889390390725E-18));
#872=DIRECTION('ref_axis',(-1.92592994438724E-34,6.93889390390725E-18,1.));
#873=DIRECTION('',(2.77555756156289E-17,-1.,6.93889390390723E-18));
#874=DIRECTION('',(2.77555756156289E-17,-1.,6.93889390390723E-18));
#875=DIRECTION('center_axis',(1.92592994438724E-34,-6.93889390390723E-18,
-1.));
#876=DIRECTION('ref_axis',(1.,2.77555756156289E-17,0.));
#877=DIRECTION('',(1.,2.77555756156289E-17,0.));
#878=DIRECTION('',(2.77555756156289E-17,-1.,6.93889390390723E-18));
#879=DIRECTION('center_axis',(2.77555756156289E-17,-1.,6.93889390390723E-18));
#880=DIRECTION('ref_axis',(1.92592994438724E-34,-6.93889390390723E-18,-1.));
#881=DIRECTION('center_axis',(2.77555756156289E-17,-1.,6.93889390390725E-18));
#882=DIRECTION('ref_axis',(1.92592994438724E-34,-6.93889390390725E-18,-1.));
#883=DIRECTION('',(2.77555756156289E-17,-1.,6.93889390390723E-18));
#884=DIRECTION('center_axis',(-1.92592994438724E-34,6.93889390390723E-18,
1.));
#885=DIRECTION('ref_axis',(-1.,-2.77555756156289E-17,0.));
#886=DIRECTION('',(-1.,-2.77555756156289E-17,0.));
#887=DIRECTION('center_axis',(2.77555756156289E-17,-1.,6.93889390390723E-18));
#888=DIRECTION('ref_axis',(1.,2.77555756156289E-17,0.));
#889=DIRECTION('center_axis',(-2.77555756156289E-17,1.,-6.93889390390723E-18));
#890=DIRECTION('ref_axis',(-1.92592994438724E-34,6.93889390390723E-18,1.));
#891=DIRECTION('center_axis',(-2.77555756156289E-17,1.,-6.93889390390723E-18));
#892=DIRECTION('ref_axis',(-1.92592994438724E-34,6.93889390390723E-18,1.));
#893=DIRECTION('center_axis',(2.77555756156289E-17,-1.,6.93889390390723E-18));
#894=DIRECTION('ref_axis',(1.,2.77555756156289E-17,0.));
#895=DIRECTION('',(-2.77555756156289E-17,1.,-6.93889390390723E-18));
#896=DIRECTION('center_axis',(2.77555756156289E-17,-1.,6.93889390390723E-18));
#897=DIRECTION('ref_axis',(1.,2.77555756156289E-17,0.));
#898=DIRECTION('center_axis',(2.77555756156289E-17,-1.,6.93889390390723E-18));
#899=DIRECTION('ref_axis',(1.,2.77555756156289E-17,0.));
#900=DIRECTION('center_axis',(-2.77555756156289E-17,1.,-6.93889390390723E-18));
#901=DIRECTION('ref_axis',(-1.92592994438724E-34,6.93889390390723E-18,1.));
#902=DIRECTION('',(-1.,-2.77555756156289E-17,0.));
#903=DIRECTION('',(1.,2.77555756156289E-17,0.));
#904=DIRECTION('center_axis',(1.,2.77555756157246E-17,1.37889699660658E-11));
#905=DIRECTION('ref_axis',(-1.37889699660658E-11,6.93889390352451E-18,1.));
#906=DIRECTION('',(-1.37889699660658E-11,6.93889390352451E-18,1.));
#907=DIRECTION('',(-2.77555756156289E-17,1.,-6.93889390390723E-18));
#908=DIRECTION('',(2.77555756156289E-17,-1.,6.93889390390723E-18));
#909=DIRECTION('center_axis',(-2.77555756156289E-17,1.,-6.93889390390723E-18));
#910=DIRECTION('ref_axis',(-1.92592994438724E-34,6.93889390390723E-18,1.));
#911=DIRECTION('',(-2.77555756156289E-17,1.,-6.93889390390723E-18));
#912=DIRECTION('',(-2.77555756156289E-17,1.,-6.93889390390723E-18));
#913=DIRECTION('center_axis',(2.77555756156289E-17,-1.,6.93889390390723E-18));
#914=DIRECTION('ref_axis',(-1.92592994438724E-34,6.93889390390723E-18,1.));
#915=DIRECTION('center_axis',(-1.92592994438724E-34,6.93889390390723E-18,
1.));
#916=DIRECTION('ref_axis',(1.,2.77555756156289E-17,0.));
#917=DIRECTION('',(1.,2.77555756156289E-17,0.));
#918=DIRECTION('',(-2.77555756156289E-17,1.,-6.93889390390723E-18));
#919=DIRECTION('',(-1.,-2.77555756156289E-17,0.));
#920=DIRECTION('center_axis',(1.,2.77555756157246E-17,1.37889699660658E-11));
#921=DIRECTION('ref_axis',(-1.37889699660658E-11,6.93889390352451E-18,1.));
#922=DIRECTION('',(-1.37889699660658E-11,6.93889390352451E-18,1.));
#923=DIRECTION('',(2.77555756156289E-17,-1.,6.93889390390723E-18));
#924=DIRECTION('center_axis',(2.77555756156289E-17,-1.,6.93889390390723E-18));
#925=DIRECTION('ref_axis',(1.,2.77555756156289E-17,0.));
#926=DIRECTION('',(1.,2.77555756156289E-17,0.));
#927=DIRECTION('center_axis',(1.92592994438724E-34,-6.93889390390723E-18,
-1.));
#928=DIRECTION('ref_axis',(-1.,-2.77555756156289E-17,0.));
#929=DIRECTION('',(-1.,-2.77555756156289E-17,0.));
#930=DIRECTION('center_axis',(1.38777878078145E-17,-1.,6.93889390390723E-18));
#931=DIRECTION('ref_axis',(1.,1.38777878078145E-17,0.));
#932=DIRECTION('center_axis',(1.38777878078145E-17,-1.,6.93889390390723E-18));
#933=DIRECTION('ref_axis',(1.,0.,0.));
#934=DIRECTION('center_axis',(1.38777878078145E-17,-1.,6.93889390390723E-18));
#935=DIRECTION('ref_axis',(1.,1.38777878078145E-17,0.));
#936=DIRECTION('center_axis',(1.38777878078145E-17,-1.,6.93889390390723E-18));
#937=DIRECTION('ref_axis',(1.,1.38777878078145E-17,0.));
#938=DIRECTION('center_axis',(0.,-1.,0.));
#939=DIRECTION('ref_axis',(1.,0.,0.));
#940=DIRECTION('',(0.,1.,0.));
#941=CARTESIAN_POINT('',(0.,0.,0.));
#942=CARTESIAN_POINT('Origin',(115.,-70.2621455328126,190.));
#943=CARTESIAN_POINT('',(113.5,-70.2621455328126,190.));
#944=CARTESIAN_POINT('Origin',(115.,-70.2621455328126,190.));
#945=CARTESIAN_POINT('',(113.5,-65.2621455328126,190.));
#946=CARTESIAN_POINT('',(113.5,-70.2621455328126,190.));
#947=CARTESIAN_POINT('Origin',(115.,-65.2621455328126,190.));
#948=CARTESIAN_POINT('Origin',(115.,-65.2621455328126,190.));
#949=CARTESIAN_POINT('Origin',(145.,-70.2621455328126,205.));
#950=CARTESIAN_POINT('',(143.5,-70.2621455328126,205.));
#951=CARTESIAN_POINT('Origin',(145.,-70.2621455328126,205.));
#952=CARTESIAN_POINT('',(143.5,-65.2621455328126,205.));
#953=CARTESIAN_POINT('',(143.5,-70.2621455328126,205.));
#954=CARTESIAN_POINT('Origin',(145.,-65.2621455328126,205.));
#955=CARTESIAN_POINT('Origin',(145.,-65.2621455328126,205.));
#956=CARTESIAN_POINT('Origin',(145.,-70.2621455328126,175.));
#957=CARTESIAN_POINT('',(143.5,-70.2621455328126,175.));
#958=CARTESIAN_POINT('Origin',(145.,-70.2621455328126,175.));
#959=CARTESIAN_POINT('',(143.5,-65.2621455328126,175.));
#960=CARTESIAN_POINT('',(143.5,-70.2621455328126,175.));
#961=CARTESIAN_POINT('Origin',(145.,-65.2621455328126,175.));
#962=CARTESIAN_POINT('Origin',(145.,-65.2621455328126,175.));
#963=CARTESIAN_POINT('Origin',(135.07079245401,-23.2621455328126,190.810072244694));
#964=CARTESIAN_POINT('',(143.07079245401,-33.2621455328126,190.810072244694));
#965=CARTESIAN_POINT('Origin',(135.07079245401,-33.2621455328126,190.810072244694));
#966=CARTESIAN_POINT('',(143.07079245401,-38.2621455328126,190.810072244694));
#967=CARTESIAN_POINT('',(143.07079245401,-23.2621455328126,190.810072244694));
#968=CARTESIAN_POINT('Origin',(135.07079245401,-38.2621455328126,190.810072244694));
#969=CARTESIAN_POINT('Origin',(135.07079245401,-23.2621455328126,190.810072244694));
#970=CARTESIAN_POINT('',(143.07079245401,-23.2621455328126,190.810072244694));
#971=CARTESIAN_POINT('Origin',(135.07079245401,-23.2621455328126,190.810072244694));
#972=CARTESIAN_POINT('',(143.07079245401,-28.2621455328126,190.810072244694));
#973=CARTESIAN_POINT('',(143.07079245401,-23.2621455328126,190.810072244694));
#974=CARTESIAN_POINT('Origin',(135.07079245401,-28.2621455328126,190.810072244694));
#975=CARTESIAN_POINT('Origin',(143.731046491854,-70.2621455328126,185.810072244694));
#976=CARTESIAN_POINT('',(143.731046491854,-70.2621455328126,185.810072244694));
#977=CARTESIAN_POINT('',(135.07079245401,-70.2621455328126,180.810072244694));
#978=CARTESIAN_POINT('',(169.690982982393,-70.2621455328126,200.798048565653));
#979=CARTESIAN_POINT('',(143.731046491854,-53.2621455328126,185.810072244694));
#980=CARTESIAN_POINT('',(143.731046491854,-70.2621455328126,185.810072244694));
#981=CARTESIAN_POINT('',(135.07079245401,-53.2621455328126,180.810072244694));
#982=CARTESIAN_POINT('',(141.565982982393,-53.2621455328126,184.560072244694));
#983=CARTESIAN_POINT('',(135.07079245401,-70.2621455328126,180.810072244694));
#984=CARTESIAN_POINT('Origin',(143.731046491854,-70.2621455328126,195.810072244694));
#985=CARTESIAN_POINT('',(143.731046491854,-70.2621455328126,195.810072244694));
#986=CARTESIAN_POINT('',(143.731046491854,-70.2621455328126,193.310072244694));
#987=CARTESIAN_POINT('',(143.731046491854,-53.2621455328126,195.810072244694));
#988=CARTESIAN_POINT('',(143.731046491854,-70.2621455328126,195.810072244694));
#989=CARTESIAN_POINT('',(143.731046491854,-53.2621455328126,193.310072244694));
#990=CARTESIAN_POINT('Origin',(135.07079245401,-70.2621455328126,200.810072244694));
#991=CARTESIAN_POINT('',(135.07079245401,-70.2621455328126,200.810072244694));
#992=CARTESIAN_POINT('',(165.360855963471,-70.2621455328126,183.322095923736));
#993=CARTESIAN_POINT('',(135.07079245401,-53.2621455328126,200.810072244694));
#994=CARTESIAN_POINT('',(135.07079245401,-70.2621455328126,200.810072244694));
#995=CARTESIAN_POINT('',(137.235855963471,-53.2621455328126,199.560072244694));
#996=CARTESIAN_POINT('Origin',(126.410538416166,-70.2621455328126,195.810072244694));
#997=CARTESIAN_POINT('',(126.410538416166,-70.2621455328126,195.810072244694));
#998=CARTESIAN_POINT('',(156.700601925627,-70.2621455328126,213.298048565653));
#999=CARTESIAN_POINT('',(126.410538416166,-53.2621455328126,195.810072244694));
#1000=CARTESIAN_POINT('',(126.410538416166,-70.2621455328126,195.810072244694));
#1001=CARTESIAN_POINT('',(128.575601925627,-53.2621455328126,197.060072244694));
#1002=CARTESIAN_POINT('Origin',(126.410538416166,-70.2621455328126,185.810072244694));
#1003=CARTESIAN_POINT('',(126.410538416166,-70.2621455328126,185.810072244694));
#1004=CARTESIAN_POINT('',(126.410538416166,-70.2621455328126,188.310072244694));
#1005=CARTESIAN_POINT('',(126.410538416166,-53.2621455328126,185.810072244694));
#1006=CARTESIAN_POINT('',(126.410538416166,-70.2621455328126,185.810072244694));
#1007=CARTESIAN_POINT('',(126.410538416166,-53.2621455328126,188.310072244694));
#1008=CARTESIAN_POINT('Origin',(135.07079245401,-70.2621455328126,180.810072244694));
#1009=CARTESIAN_POINT('',(161.030728944549,-70.2621455328126,165.822095923736));
#1010=CARTESIAN_POINT('',(132.905728944549,-53.2621455328126,182.060072244694));
#1011=CARTESIAN_POINT('Origin',(285.314870823018,-64.0612961791467,170.809727530272));
#1012=CARTESIAN_POINT('',(285.314870823018,-64.0612961791467,170.809727530272));
#1013=CARTESIAN_POINT('',(245.314870823018,-64.0612961791467,170.809727530272));
#1014=CARTESIAN_POINT('',(277.914870823018,-64.0612961791467,170.809727530272));
#1015=CARTESIAN_POINT('',(285.314870823018,-62.0612961791467,170.809727530272));
#1016=CARTESIAN_POINT('',(285.314870823018,-64.0612961791467,170.809727530272));
#1017=CARTESIAN_POINT('',(245.314870823018,-62.0612961791467,170.809727530272));
#1018=CARTESIAN_POINT('',(277.914870823018,-62.0612961791467,170.809727530272));
#1019=CARTESIAN_POINT('',(245.314870823018,-64.0612961791467,170.809727530272));
#1020=CARTESIAN_POINT('Origin',(270.514870823018,-62.0612961791467,190.3476416895));
#1021=CARTESIAN_POINT('',(285.314870823018,-62.0612961791467,170.811561656408));
#1022=CARTESIAN_POINT('',(285.314870823018,-62.0612961791467,210.430727530272));
#1023=CARTESIAN_POINT('',(285.07079245401,-62.0612961791467,170.810072244694));
#1024=CARTESIAN_POINT('Origin',(285.07079245401,-62.0612961791467,190.810072244694));
#1025=CARTESIAN_POINT('',(245.314870823018,-62.0612961791467,170.810072244694));
#1026=CARTESIAN_POINT('',(277.792831638514,-62.0612961791467,170.810072244694));
#1027=CARTESIAN_POINT('',(245.314870823018,-62.0612961791467,208.430727530272));
#1028=CARTESIAN_POINT('Origin',(285.314870823018,-64.0612961791467,180.702660758076));
#1029=CARTESIAN_POINT('',(285.314870823018,-64.0612961791467,170.811561656408));
#1030=CARTESIAN_POINT('',(285.314870823018,-64.0612961791467,210.430727530272));
#1031=CARTESIAN_POINT('',(285.314870823018,-63.2621455328126,170.811561656408));
#1032=CARTESIAN_POINT('Origin',(270.514870823018,-64.0612961791467,190.3476416895));
#1033=CARTESIAN_POINT('',(245.314870823018,-64.0612961791467,170.810072244694));
#1034=CARTESIAN_POINT('',(245.314870823018,-64.0612961791467,208.430727530272));
#1035=CARTESIAN_POINT('',(285.07079245401,-64.0612961791467,170.810072244694));
#1036=CARTESIAN_POINT('',(277.792831638514,-64.0612961791467,170.810072244694));
#1037=CARTESIAN_POINT('Origin',(285.07079245401,-64.0612961791467,190.810072244694));
#1038=CARTESIAN_POINT('Origin',(245.314870823018,-64.0612961791467,170.347727530272));
#1039=CARTESIAN_POINT('',(245.314870823018,-63.6617208559796,170.810072244694));
#1040=CARTESIAN_POINT('Origin',(285.07079245401,-63.2621455328126,190.810072244694));
#1041=CARTESIAN_POINT('',(285.07079245401,-70.2621455328126,170.810072244694));
#1042=CARTESIAN_POINT('',(285.07079245401,-63.2621455328126,170.810072244694));
#1043=CARTESIAN_POINT('',(285.07079245401,-70.2621455328126,210.810072244694));
#1044=CARTESIAN_POINT('Origin',(285.07079245401,-70.2621455328126,190.810072244694));
#1045=CARTESIAN_POINT('',(285.07079245401,-30.2621455328126,210.810072244694));
#1046=CARTESIAN_POINT('',(285.07079245401,-63.2621455328126,210.810072244694));
#1047=CARTESIAN_POINT('',(285.07079245401,-30.2621455328126,170.810072244694));
#1048=CARTESIAN_POINT('Origin',(285.07079245401,-30.2621455328126,190.810072244694));
#1049=CARTESIAN_POINT('',(285.07079245401,-63.2621455328126,170.810072244694));
#1050=CARTESIAN_POINT('Origin',(210.07079245401,-70.2621455328126,190.810072244694));
#1051=CARTESIAN_POINT('',(135.07079245401,-70.2621455328126,213.310072244694));
#1052=CARTESIAN_POINT('',(135.07079245401,-70.2621455328126,168.310072244694));
#1053=CARTESIAN_POINT('Origin',(135.07079245401,-70.2621455328126,190.810072244694));
#1054=CARTESIAN_POINT('',(285.07079245401,-70.2621455328126,168.310072244694));
#1055=CARTESIAN_POINT('',(135.07079245401,-70.2621455328126,168.310072244694));
#1056=CARTESIAN_POINT('',(285.07079245401,-70.2621455328126,213.310072244694));
#1057=CARTESIAN_POINT('Origin',(285.07079245401,-70.2621455328126,190.810072244694));
#1058=CARTESIAN_POINT('',(285.07079245401,-70.2621455328126,213.310072244694));
#1059=CARTESIAN_POINT('',(159.52994558383,-70.2621455328126,170.810072244694));
#1060=CARTESIAN_POINT('',(247.57079245401,-70.2621455328126,170.810072244694));
#1061=CARTESIAN_POINT('',(159.52994558383,-70.2621455328126,210.810072244694));
#1062=CARTESIAN_POINT('Ctrl Pts',(159.52994558383,-70.2621455328126,170.810072244694));
#1063=CARTESIAN_POINT('Ctrl Pts',(159.529945583808,-70.2621455328126,172.410072244669));
#1064=CARTESIAN_POINT('Ctrl Pts',(159.52994558377,-70.2621455328126,175.610072244624));
#1065=CARTESIAN_POINT('Ctrl Pts',(159.529945583731,-70.2621455328126,180.410072244581));
#1066=CARTESIAN_POINT('Ctrl Pts',(159.529945583713,-70.2621455328126,186.810072244565));
#1067=CARTESIAN_POINT('Ctrl Pts',(159.52994558373,-70.2621455328126,194.810072244589));
#1068=CARTESIAN_POINT('Ctrl Pts',(159.529945583762,-70.2621455328126,201.210072244626));
#1069=CARTESIAN_POINT('Ctrl Pts',(159.529945583793,-70.2621455328126,206.010072244659));
#1070=CARTESIAN_POINT('Ctrl Pts',(159.529945583817,-70.2621455328126,209.210072244682));
#1071=CARTESIAN_POINT('Ctrl Pts',(159.52994558383,-70.2621455328126,210.810072244694));
#1072=CARTESIAN_POINT('',(172.57079245401,-70.2621455328126,210.810072244694));
#1073=CARTESIAN_POINT('Origin',(135.07079245401,-23.2621455328126,190.810072244694));
#1074=CARTESIAN_POINT('',(135.07079245401,-23.2621455328126,213.310072244694));
#1075=CARTESIAN_POINT('',(135.07079245401,-23.2621455328126,168.310072244694));
#1076=CARTESIAN_POINT('Origin',(135.07079245401,-23.2621455328126,190.810072244694));
#1077=CARTESIAN_POINT('',(135.07079245401,-23.2621455328126,168.310072244694));
#1078=CARTESIAN_POINT('',(135.07079245401,-23.2621455328126,213.310072244694));
#1079=CARTESIAN_POINT('Origin',(135.07079245401,-23.2621455328126,168.310072244694));
#1080=CARTESIAN_POINT('',(285.07079245401,-23.2621455328126,168.310072244694));
#1081=CARTESIAN_POINT('',(135.07079245401,-23.2621455328126,168.310072244694));
#1082=CARTESIAN_POINT('',(285.07079245401,-23.2621455328126,168.310072244694));
#1083=CARTESIAN_POINT('Origin',(285.07079245401,-23.2621455328126,190.810072244694));
#1084=CARTESIAN_POINT('',(285.07079245401,-23.2621455328126,213.310072244694));
#1085=CARTESIAN_POINT('Origin',(285.07079245401,-23.2621455328126,190.810072244694));
#1086=CARTESIAN_POINT('',(285.07079245401,-23.2621455328126,213.310072244694));
#1087=CARTESIAN_POINT('Origin',(285.07079245401,-23.2621455328126,213.310072244694));
#1088=CARTESIAN_POINT('',(285.07079245401,-23.2621455328126,213.310072244694));
#1089=CARTESIAN_POINT('Origin',(210.07079245401,-28.2621455328126,190.810072244694));
#1090=CARTESIAN_POINT('',(135.07079245401,-28.2621455328126,170.810072244694));
#1091=CARTESIAN_POINT('Origin',(135.07079245401,-28.2621455328126,190.810072244694));
#1092=CARTESIAN_POINT('Origin',(135.07079245401,-63.2621455328126,190.810072244694));
#1093=CARTESIAN_POINT('',(135.07079245401,-33.2621455328126,170.810072244694));
#1094=CARTESIAN_POINT('Origin',(135.07079245401,-33.2621455328126,190.810072244694));
#1095=CARTESIAN_POINT('',(135.07079245401,-63.2621455328126,170.810072244694));
#1096=CARTESIAN_POINT('Origin',(135.07079245401,-33.2621455328126,190.810072244694));
#1097=CARTESIAN_POINT('Origin',(135.07079245401,-38.2621455328126,190.810072244694));
#1098=CARTESIAN_POINT('',(135.07079245401,-38.2621455328126,170.810072244694));
#1099=CARTESIAN_POINT('',(135.07079245401,-38.2621455328126,210.810072244694));
#1100=CARTESIAN_POINT('Origin',(135.07079245401,-38.2621455328126,190.810072244694));
#1101=CARTESIAN_POINT('',(159.52994558383,-38.2621455328126,170.810072244694));
#1102=CARTESIAN_POINT('',(216.185580736465,-38.2621455328126,170.810072244694));
#1103=CARTESIAN_POINT('',(159.52994558383,-38.2621455328126,210.810072244694));
#1104=CARTESIAN_POINT('Ctrl Pts',(159.52994558383,-38.2621455328126,170.810072244694));
#1105=CARTESIAN_POINT('Ctrl Pts',(159.529945583808,-38.2621455328126,172.410072244669));
#1106=CARTESIAN_POINT('Ctrl Pts',(159.52994558377,-38.2621455328126,175.610072244624));
#1107=CARTESIAN_POINT('Ctrl Pts',(159.529945583731,-38.2621455328126,180.410072244581));
#1108=CARTESIAN_POINT('Ctrl Pts',(159.529945583713,-38.2621455328126,186.810072244565));
#1109=CARTESIAN_POINT('Ctrl Pts',(159.52994558373,-38.2621455328126,194.810072244589));
#1110=CARTESIAN_POINT('Ctrl Pts',(159.529945583762,-38.2621455328126,201.210072244626));
#1111=CARTESIAN_POINT('Ctrl Pts',(159.529945583793,-38.2621455328126,206.010072244659));
#1112=CARTESIAN_POINT('Ctrl Pts',(159.529945583817,-38.2621455328126,209.210072244682));
#1113=CARTESIAN_POINT('Ctrl Pts',(159.52994558383,-38.2621455328126,210.810072244694));
#1114=CARTESIAN_POINT('',(141.185580736465,-38.2621455328126,210.810072244694));
#1115=CARTESIAN_POINT('Origin',(159.52994558383,-28.2621455328126,170.810072244694));
#1116=CARTESIAN_POINT('',(159.52994558383,-30.2621455328126,170.810072244694));
#1117=CARTESIAN_POINT('',(159.52994558383,-30.2621455328126,210.810072244694));
#1118=CARTESIAN_POINT('',(159.529945583692,-30.2621455328126,180.810072244346));
#1119=CARTESIAN_POINT('',(159.529945583278,-45.7621455328126,210.810072244694));
#1120=CARTESIAN_POINT('',(159.52994558383,-45.7621455328126,170.810072244694));
#1121=CARTESIAN_POINT('Origin',(135.07079245401,-63.2621455328126,190.810072244694));
#1122=CARTESIAN_POINT('',(135.07079245401,-53.2621455328126,170.810072244694));
#1123=CARTESIAN_POINT('',(135.07079245401,-63.2621455328126,170.810072244694));
#1124=CARTESIAN_POINT('',(135.07079245401,-53.2621455328126,210.810072244694));
#1125=CARTESIAN_POINT('',(135.07079245401,-63.2621455328126,210.810072244694));
#1126=CARTESIAN_POINT('Origin',(135.07079245401,-53.2621455328126,190.810072244694));
#1127=CARTESIAN_POINT('Origin',(135.07079245401,-63.2621455328126,210.810072244694));
#1128=CARTESIAN_POINT('',(172.57079245401,-30.2621455328126,210.810072244694));
#1129=CARTESIAN_POINT('',(159.52994558383,-53.2621455328126,210.810072244694));
#1130=CARTESIAN_POINT('',(159.529945583278,-55.7621455328126,210.810072244694));
#1131=CARTESIAN_POINT('',(135.07079245401,-53.2621455328126,210.810072244694));
#1132=CARTESIAN_POINT('Origin',(159.52994558383,-48.2621455328126,170.810072244694));
#1133=CARTESIAN_POINT('',(159.52994558383,-53.2621455328126,170.810072244694));
#1134=CARTESIAN_POINT('',(159.529945583692,-53.2621455328126,180.810072244863));
#1135=CARTESIAN_POINT('',(159.52994558383,-55.7621455328126,170.810072244694));
#1136=CARTESIAN_POINT('Origin',(135.07079245401,-53.2621455328126,190.810072244694));
#1137=CARTESIAN_POINT('',(210.07079245401,-53.2621455328126,170.810072244694));
#1138=CARTESIAN_POINT('Origin',(285.07079245401,-63.2621455328126,170.810072244694));
#1139=CARTESIAN_POINT('',(247.57079245401,-30.2621455328126,170.810072244694));
#1140=CARTESIAN_POINT('Origin',(285.07079245401,-30.2621455328126,190.810072244693));
#1141=CARTESIAN_POINT('',(271.57079245401,-30.2621455328126,190.810072244693));
#1142=CARTESIAN_POINT('Origin',(285.07079245401,-30.2621455328126,190.810072244693));
#1143=CARTESIAN_POINT('Origin',(285.07079245401,-23.2621455328126,190.810072244693));
#1144=CARTESIAN_POINT('',(271.57079245401,-23.2621455328126,190.810072244693));
#1145=CARTESIAN_POINT('Origin',(285.07079245401,-23.2621455328126,190.810072244693));
#1146=CARTESIAN_POINT('Origin',(285.07079245401,-30.2621455328126,190.810072244693));
#1147=CARTESIAN_POINT('',(271.57079245401,-30.2621455328126,190.810072244693));
#1148=UNCERTAINTY_MEASURE_WITH_UNIT(LENGTH_MEASURE(0.01),#1152,
'DISTANCE_ACCURACY_VALUE',
'Maximum model space distance between geometric entities at asserted c
onnectivities');
#1149=UNCERTAINTY_MEASURE_WITH_UNIT(LENGTH_MEASURE(0.01),#1152,
'DISTANCE_ACCURACY_VALUE',
'Maximum model space distance between geometric entities at asserted c
onnectivities');
#1150=(
GEOMETRIC_REPRESENTATION_CONTEXT(3)
GLOBAL_UNCERTAINTY_ASSIGNED_CONTEXT((#1148))
GLOBAL_UNIT_ASSIGNED_CONTEXT((#1152,#1154,#1155))
REPRESENTATION_CONTEXT('','3D')
);
#1151=(
GEOMETRIC_REPRESENTATION_CONTEXT(3)
GLOBAL_UNCERTAINTY_ASSIGNED_CONTEXT((#1149))
GLOBAL_UNIT_ASSIGNED_CONTEXT((#1152,#1154,#1155))
REPRESENTATION_CONTEXT('','3D')
);
#1152=(
LENGTH_UNIT()
NAMED_UNIT(*)
SI_UNIT(.MILLI.,.METRE.)
);
#1153=(
LENGTH_UNIT()
NAMED_UNIT(*)
SI_UNIT($,.METRE.)
);
#1154=(
NAMED_UNIT(*)
PLANE_ANGLE_UNIT()
SI_UNIT($,.RADIAN.)
);
#1155=(
NAMED_UNIT(*)
SI_UNIT($,.STERADIAN.)
SOLID_ANGLE_UNIT()
);
#1156=SHAPE_DEFINITION_REPRESENTATION(#1157,#1158);
#1157=PRODUCT_DEFINITION_SHAPE('',$,#1160);
#1158=SHAPE_REPRESENTATION('',(#688),#1150);
#1159=PRODUCT_DEFINITION_CONTEXT('part definition',#1164,'design');
#1160=PRODUCT_DEFINITION('Linkage2 ','Linkage2 ',#1161,#1159);
#1161=PRODUCT_DEFINITION_FORMATION('',$,#1166);
#1162=PRODUCT_RELATED_PRODUCT_CATEGORY('Linkage2 ','Linkage2 ',(#1166));
#1163=APPLICATION_PROTOCOL_DEFINITION('international standard',
'automotive_design',2009,#1164);
#1164=APPLICATION_CONTEXT(
'Core Data for Automotive Mechanical Design Process');
#1165=PRODUCT_CONTEXT('part definition',#1164,'mechanical');
#1166=PRODUCT('Linkage2 ','Linkage2 ',$,(#1165));
#1167=PRESENTATION_STYLE_ASSIGNMENT((#1168));
#1168=SURFACE_STYLE_USAGE(.BOTH.,#1169);
#1169=SURFACE_SIDE_STYLE('',(#1170));
#1170=SURFACE_STYLE_FILL_AREA(#1171);
#1171=FILL_AREA_STYLE('Steel - Satin',(#1172));
#1172=FILL_AREA_STYLE_COLOUR('Steel - Satin',#1173);
#1173=COLOUR_RGB('Steel - Satin',0.627450980392157,0.627450980392157,0.627450980392157);
ENDSEC;
END-ISO-10303-21;
