ISO-10303-21;
HEADER;
/* Generated by software containing ST-Developer
 * from STEP Tools, Inc. (www.steptools.com) 
 */

FILE_DESCRIPTION(
/* description */ (''),
/* implementation_level */ '2;1');

FILE_NAME(
/* name */ 'ServoMountJ4.step',
/* time_stamp */ '2026-08-05T16:39:12-05:00',
/* author */ (''),
/* organization */ (''),
/* preprocessor_version */ 'ST-DEVELOPER v20.1',
/* originating_system */ 'Autodesk Translation Framework v15.8.0.0',
/* authorisation */ '');

FILE_SCHEMA (('AUTOMOTIVE_DESIGN { 1 0 10303 214 3 1 1 }'));
ENDSEC;

DATA;
#10=MECHANICAL_DESIGN_GEOMETRIC_PRESENTATION_REPRESENTATION('',(#13),#1145);
#11=SHAPE_REPRESENTATION_RELATIONSHIP('SRR','None',#1152,#12);
#12=ADVANCED_BREP_SHAPE_REPRESENTATION('',(#14),#1144);
#13=STYLED_ITEM('',(#1161),#14);
#14=MANIFOLD_SOLID_BREP('Body1',#697);
#15=FACE_BOUND('',#90,.T.);
#16=FACE_BOUND('',#91,.T.);
#17=FACE_BOUND('',#92,.T.);
#18=FACE_BOUND('',#93,.T.);
#19=FACE_BOUND('',#97,.T.);
#20=FACE_BOUND('',#98,.T.);
#21=FACE_BOUND('',#99,.T.);
#22=FACE_BOUND('',#100,.T.);
#23=FACE_BOUND('',#101,.T.);
#24=FACE_BOUND('',#102,.T.);
#25=PLANE('',#714);
#26=PLANE('',#720);
#27=PLANE('',#721);
#28=PLANE('',#728);
#29=PLANE('',#729);
#30=PLANE('',#730);
#31=PLANE('',#737);
#32=PLANE('',#738);
#33=PLANE('',#739);
#34=PLANE('',#740);
#35=PLANE('',#741);
#36=PLANE('',#742);
#37=PLANE('',#743);
#38=PLANE('',#744);
#39=PLANE('',#746);
#40=PLANE('',#747);
#41=PLANE('',#748);
#42=PLANE('',#749);
#43=PLANE('',#750);
#44=PLANE('',#751);
#45=PLANE('',#752);
#46=PLANE('',#758);
#47=PLANE('',#759);
#48=PLANE('',#760);
#49=PLANE('',#761);
#50=PLANE('',#762);
#51=FACE_OUTER_BOUND('',#85,.T.);
#52=FACE_OUTER_BOUND('',#86,.T.);
#53=FACE_OUTER_BOUND('',#87,.T.);
#54=FACE_OUTER_BOUND('',#88,.T.);
#55=FACE_OUTER_BOUND('',#89,.T.);
#56=FACE_OUTER_BOUND('',#94,.T.);
#57=FACE_OUTER_BOUND('',#95,.T.);
#58=FACE_OUTER_BOUND('',#96,.T.);
#59=FACE_OUTER_BOUND('',#103,.T.);
#60=FACE_OUTER_BOUND('',#104,.T.);
#61=FACE_OUTER_BOUND('',#105,.T.);
#62=FACE_OUTER_BOUND('',#106,.T.);
#63=FACE_OUTER_BOUND('',#107,.T.);
#64=FACE_OUTER_BOUND('',#108,.T.);
#65=FACE_OUTER_BOUND('',#109,.T.);
#66=FACE_OUTER_BOUND('',#110,.T.);
#67=FACE_OUTER_BOUND('',#111,.T.);
#68=FACE_OUTER_BOUND('',#112,.T.);
#69=FACE_OUTER_BOUND('',#113,.T.);
#70=FACE_OUTER_BOUND('',#114,.T.);
#71=FACE_OUTER_BOUND('',#115,.T.);
#72=FACE_OUTER_BOUND('',#116,.T.);
#73=FACE_OUTER_BOUND('',#117,.T.);
#74=FACE_OUTER_BOUND('',#118,.T.);
#75=FACE_OUTER_BOUND('',#119,.T.);
#76=FACE_OUTER_BOUND('',#120,.T.);
#77=FACE_OUTER_BOUND('',#121,.T.);
#78=FACE_OUTER_BOUND('',#122,.T.);
#79=FACE_OUTER_BOUND('',#123,.T.);
#80=FACE_OUTER_BOUND('',#124,.T.);
#81=FACE_OUTER_BOUND('',#125,.T.);
#82=FACE_OUTER_BOUND('',#126,.T.);
#83=FACE_OUTER_BOUND('',#127,.T.);
#84=FACE_OUTER_BOUND('',#128,.T.);
#85=EDGE_LOOP('',(#463,#464,#465,#466));
#86=EDGE_LOOP('',(#467));
#87=EDGE_LOOP('',(#468,#469,#470,#471,#472,#473,#474,#475));
#88=EDGE_LOOP('',(#476,#477,#478));
#89=EDGE_LOOP('',(#479,#480,#481,#482,#483,#484,#485,#486,#487,#488,#489,
#490,#491,#492,#493,#494,#495,#496,#497,#498,#499,#500));
#90=EDGE_LOOP('',(#501));
#91=EDGE_LOOP('',(#502));
#92=EDGE_LOOP('',(#503));
#93=EDGE_LOOP('',(#504));
#94=EDGE_LOOP('',(#505,#506,#507,#508));
#95=EDGE_LOOP('',(#509,#510,#511,#512));
#96=EDGE_LOOP('',(#513,#514,#515,#516,#517,#518,#519,#520,#521,#522,#523,
#524,#525,#526,#527,#528,#529,#530));
#97=EDGE_LOOP('',(#531));
#98=EDGE_LOOP('',(#532));
#99=EDGE_LOOP('',(#533));
#100=EDGE_LOOP('',(#534));
#101=EDGE_LOOP('',(#535));
#102=EDGE_LOOP('',(#536));
#103=EDGE_LOOP('',(#537,#538,#539,#540));
#104=EDGE_LOOP('',(#541,#542,#543,#544,#545,#546));
#105=EDGE_LOOP('',(#547,#548,#549,#550));
#106=EDGE_LOOP('',(#551,#552,#553,#554));
#107=EDGE_LOOP('',(#555,#556,#557,#558));
#108=EDGE_LOOP('',(#559,#560,#561,#562));
#109=EDGE_LOOP('',(#563,#564,#565,#566));
#110=EDGE_LOOP('',(#567,#568,#569,#570));
#111=EDGE_LOOP('',(#571,#572,#573,#574));
#112=EDGE_LOOP('',(#575,#576,#577,#578,#579,#580));
#113=EDGE_LOOP('',(#581,#582,#583,#584,#585,#586,#587,#588,#589,#590));
#114=EDGE_LOOP('',(#591,#592,#593,#594));
#115=EDGE_LOOP('',(#595,#596,#597,#598));
#116=EDGE_LOOP('',(#599,#600,#601,#602));
#117=EDGE_LOOP('',(#603,#604,#605,#606,#607,#608,#609,#610));
#118=EDGE_LOOP('',(#611,#612,#613,#614));
#119=EDGE_LOOP('',(#615,#616,#617,#618));
#120=EDGE_LOOP('',(#619,#620,#621,#622));
#121=EDGE_LOOP('',(#623,#624,#625,#626));
#122=EDGE_LOOP('',(#627,#628,#629,#630));
#123=EDGE_LOOP('',(#631,#632,#633,#634));
#124=EDGE_LOOP('',(#635,#636,#637,#638));
#125=EDGE_LOOP('',(#639,#640,#641,#642));
#126=EDGE_LOOP('',(#643,#644,#645,#646));
#127=EDGE_LOOP('',(#647,#648,#649,#650));
#128=EDGE_LOOP('',(#651,#652,#653,#654));
#129=LINE('',#952,#207);
#130=LINE('',#959,#208);
#131=LINE('',#963,#209);
#132=LINE('',#967,#210);
#133=LINE('',#970,#211);
#134=LINE('',#973,#212);
#135=LINE('',#975,#213);
#136=LINE('',#977,#214);
#137=LINE('',#981,#215);
#138=LINE('',#983,#216);
#139=LINE('',#985,#217);
#140=LINE('',#987,#218);
#141=LINE('',#989,#219);
#142=LINE('',#991,#220);
#143=LINE('',#993,#221);
#144=LINE('',#995,#222);
#145=LINE('',#997,#223);
#146=LINE('',#999,#224);
#147=LINE('',#1001,#225);
#148=LINE('',#1005,#226);
#149=LINE('',#1007,#227);
#150=LINE('',#1009,#228);
#151=LINE('',#1011,#229);
#152=LINE('',#1012,#230);
#153=LINE('',#1024,#231);
#154=LINE('',#1026,#232);
#155=LINE('',#1028,#233);
#156=LINE('',#1029,#234);
#157=LINE('',#1032,#235);
#158=LINE('',#1034,#236);
#159=LINE('',#1035,#237);
#160=LINE('',#1038,#238);
#161=LINE('',#1042,#239);
#162=LINE('',#1044,#240);
#163=LINE('',#1046,#241);
#164=LINE('',#1048,#242);
#165=LINE('',#1050,#243);
#166=LINE('',#1052,#244);
#167=LINE('',#1054,#245);
#168=LINE('',#1056,#246);
#169=LINE('',#1058,#247);
#170=LINE('',#1060,#248);
#171=LINE('',#1062,#249);
#172=LINE('',#1066,#250);
#173=LINE('',#1067,#251);
#174=LINE('',#1078,#252);
#175=LINE('',#1079,#253);
#176=LINE('',#1081,#254);
#177=LINE('',#1083,#255);
#178=LINE('',#1084,#256);
#179=LINE('',#1086,#257);
#180=LINE('',#1087,#258);
#181=LINE('',#1089,#259);
#182=LINE('',#1091,#260);
#183=LINE('',#1093,#261);
#184=LINE('',#1095,#262);
#185=LINE('',#1097,#263);
#186=LINE('',#1099,#264);
#187=LINE('',#1102,#265);
#188=LINE('',#1103,#266);
#189=LINE('',#1106,#267);
#190=LINE('',#1108,#268);
#191=LINE('',#1110,#269);
#192=LINE('',#1112,#270);
#193=LINE('',#1113,#271);
#194=LINE('',#1115,#272);
#195=LINE('',#1117,#273);
#196=LINE('',#1119,#274);
#197=LINE('',#1121,#275);
#198=LINE('',#1124,#276);
#199=LINE('',#1126,#277);
#200=LINE('',#1128,#278);
#201=LINE('',#1130,#279);
#202=LINE('',#1132,#280);
#203=LINE('',#1134,#281);
#204=LINE('',#1136,#282);
#205=LINE('',#1138,#283);
#206=LINE('',#1140,#284);
#207=VECTOR('',#769,1.49999999999999);
#208=VECTOR('',#778,1.50000000000002);
#209=VECTOR('',#781,10.);
#210=VECTOR('',#784,10.);
#211=VECTOR('',#789,10.);
#212=VECTOR('',#792,10.);
#213=VECTOR('',#793,10.);
#214=VECTOR('',#794,10.);
#215=VECTOR('',#797,10.);
#216=VECTOR('',#798,10.);
#217=VECTOR('',#799,10.);
#218=VECTOR('',#800,10.);
#219=VECTOR('',#801,10.);
#220=VECTOR('',#802,10.);
#221=VECTOR('',#803,10.);
#222=VECTOR('',#804,10.);
#223=VECTOR('',#805,10.);
#224=VECTOR('',#806,10.);
#225=VECTOR('',#807,10.);
#226=VECTOR('',#810,10.);
#227=VECTOR('',#811,10.);
#228=VECTOR('',#812,10.);
#229=VECTOR('',#813,10.);
#230=VECTOR('',#814,10.);
#231=VECTOR('',#825,10.);
#232=VECTOR('',#826,10.);
#233=VECTOR('',#827,10.);
#234=VECTOR('',#828,10.);
#235=VECTOR('',#831,10.);
#236=VECTOR('',#832,10.);
#237=VECTOR('',#833,10.);
#238=VECTOR('',#836,10.);
#239=VECTOR('',#839,10.);
#240=VECTOR('',#840,10.);
#241=VECTOR('',#841,10.);
#242=VECTOR('',#842,10.);
#243=VECTOR('',#843,10.);
#244=VECTOR('',#844,10.);
#245=VECTOR('',#845,10.);
#246=VECTOR('',#846,10.);
#247=VECTOR('',#847,10.);
#248=VECTOR('',#848,10.);
#249=VECTOR('',#849,10.);
#250=VECTOR('',#852,10.);
#251=VECTOR('',#853,10.);
#252=VECTOR('',#864,10.);
#253=VECTOR('',#865,10.);
#254=VECTOR('',#868,10.);
#255=VECTOR('',#869,10.);
#256=VECTOR('',#870,10.);
#257=VECTOR('',#873,10.);
#258=VECTOR('',#874,10.);
#259=VECTOR('',#877,10.);
#260=VECTOR('',#880,10.);
#261=VECTOR('',#883,10.);
#262=VECTOR('',#886,10.);
#263=VECTOR('',#889,10.);
#264=VECTOR('',#892,10.);
#265=VECTOR('',#895,10.);
#266=VECTOR('',#896,10.);
#267=VECTOR('',#899,10.);
#268=VECTOR('',#900,10.);
#269=VECTOR('',#901,10.);
#270=VECTOR('',#902,10.);
#271=VECTOR('',#903,10.);
#272=VECTOR('',#906,10.);
#273=VECTOR('',#909,10.);
#274=VECTOR('',#912,10.);
#275=VECTOR('',#915,10.);
#276=VECTOR('',#920,0.749999999999993);
#277=VECTOR('',#923,0.749999999999993);
#278=VECTOR('',#926,0.749999999999993);
#279=VECTOR('',#929,0.749999999999993);
#280=VECTOR('',#932,10.);
#281=VECTOR('',#935,10.);
#282=VECTOR('',#938,10.);
#283=VECTOR('',#941,10.);
#284=VECTOR('',#944,10.);
#285=CIRCLE('',#712,1.49999999999999);
#286=CIRCLE('',#713,1.49999999999999);
#287=CIRCLE('',#716,1.50000000000002);
#288=CIRCLE('',#717,1.50000000000002);
#289=CIRCLE('',#718,1.50000000000002);
#290=CIRCLE('',#719,1.50000000000002);
#291=CIRCLE('',#722,11.0052558883258);
#292=CIRCLE('',#723,11.0052558883259);
#293=CIRCLE('',#724,0.749999999999993);
#294=CIRCLE('',#725,0.749999999999993);
#295=CIRCLE('',#726,0.749999999999993);
#296=CIRCLE('',#727,0.749999999999993);
#297=CIRCLE('',#731,11.0052558883259);
#298=CIRCLE('',#732,11.0052558883258);
#299=CIRCLE('',#733,0.749999999999993);
#300=CIRCLE('',#734,0.749999999999993);
#301=CIRCLE('',#735,0.749999999999993);
#302=CIRCLE('',#736,0.749999999999993);
#303=VERTEX_POINT('',#949);
#304=VERTEX_POINT('',#951);
#305=VERTEX_POINT('',#956);
#306=VERTEX_POINT('',#958);
#307=VERTEX_POINT('',#960);
#308=VERTEX_POINT('',#962);
#309=VERTEX_POINT('',#964);
#310=VERTEX_POINT('',#966);
#311=VERTEX_POINT('',#972);
#312=VERTEX_POINT('',#974);
#313=VERTEX_POINT('',#976);
#314=VERTEX_POINT('',#978);
#315=VERTEX_POINT('',#980);
#316=VERTEX_POINT('',#982);
#317=VERTEX_POINT('',#984);
#318=VERTEX_POINT('',#986);
#319=VERTEX_POINT('',#988);
#320=VERTEX_POINT('',#990);
#321=VERTEX_POINT('',#992);
#322=VERTEX_POINT('',#994);
#323=VERTEX_POINT('',#996);
#324=VERTEX_POINT('',#998);
#325=VERTEX_POINT('',#1000);
#326=VERTEX_POINT('',#1002);
#327=VERTEX_POINT('',#1004);
#328=VERTEX_POINT('',#1006);
#329=VERTEX_POINT('',#1008);
#330=VERTEX_POINT('',#1010);
#331=VERTEX_POINT('',#1013);
#332=VERTEX_POINT('',#1015);
#333=VERTEX_POINT('',#1017);
#334=VERTEX_POINT('',#1019);
#335=VERTEX_POINT('',#1022);
#336=VERTEX_POINT('',#1023);
#337=VERTEX_POINT('',#1025);
#338=VERTEX_POINT('',#1027);
#339=VERTEX_POINT('',#1031);
#340=VERTEX_POINT('',#1033);
#341=VERTEX_POINT('',#1037);
#342=VERTEX_POINT('',#1039);
#343=VERTEX_POINT('',#1041);
#344=VERTEX_POINT('',#1043);
#345=VERTEX_POINT('',#1045);
#346=VERTEX_POINT('',#1047);
#347=VERTEX_POINT('',#1049);
#348=VERTEX_POINT('',#1051);
#349=VERTEX_POINT('',#1053);
#350=VERTEX_POINT('',#1055);
#351=VERTEX_POINT('',#1057);
#352=VERTEX_POINT('',#1059);
#353=VERTEX_POINT('',#1061);
#354=VERTEX_POINT('',#1063);
#355=VERTEX_POINT('',#1065);
#356=VERTEX_POINT('',#1068);
#357=VERTEX_POINT('',#1070);
#358=VERTEX_POINT('',#1072);
#359=VERTEX_POINT('',#1074);
#360=VERTEX_POINT('',#1077);
#361=VERTEX_POINT('',#1082);
#362=VERTEX_POINT('',#1101);
#363=VERTEX_POINT('',#1105);
#364=VERTEX_POINT('',#1107);
#365=VERTEX_POINT('',#1109);
#366=VERTEX_POINT('',#1111);
#367=EDGE_CURVE('',#303,#303,#285,.T.);
#368=EDGE_CURVE('',#303,#304,#129,.T.);
#369=EDGE_CURVE('',#304,#304,#286,.T.);
#370=EDGE_CURVE('',#305,#305,#287,.T.);
#371=EDGE_CURVE('',#305,#306,#130,.T.);
#372=EDGE_CURVE('',#306,#307,#288,.T.);
#373=EDGE_CURVE('',#308,#307,#131,.T.);
#374=EDGE_CURVE('',#309,#308,#289,.T.);
#375=EDGE_CURVE('',#310,#309,#132,.T.);
#376=EDGE_CURVE('',#310,#306,#290,.T.);
#377=EDGE_CURVE('',#307,#310,#133,.T.);
#378=EDGE_CURVE('',#311,#308,#134,.T.);
#379=EDGE_CURVE('',#312,#311,#135,.T.);
#380=EDGE_CURVE('',#312,#313,#136,.T.);
#381=EDGE_CURVE('',#313,#314,#291,.T.);
#382=EDGE_CURVE('',#315,#314,#137,.T.);
#383=EDGE_CURVE('',#316,#315,#138,.T.);
#384=EDGE_CURVE('',#317,#316,#139,.T.);
#385=EDGE_CURVE('',#318,#317,#140,.T.);
#386=EDGE_CURVE('',#319,#318,#141,.T.);
#387=EDGE_CURVE('',#320,#319,#142,.T.);
#388=EDGE_CURVE('',#321,#320,#143,.T.);
#389=EDGE_CURVE('',#322,#321,#144,.T.);
#390=EDGE_CURVE('',#323,#322,#145,.T.);
#391=EDGE_CURVE('',#324,#323,#146,.T.);
#392=EDGE_CURVE('',#325,#324,#147,.T.);
#393=EDGE_CURVE('',#325,#326,#292,.T.);
#394=EDGE_CURVE('',#326,#327,#148,.T.);
#395=EDGE_CURVE('',#328,#327,#149,.T.);
#396=EDGE_CURVE('',#329,#328,#150,.T.);
#397=EDGE_CURVE('',#330,#329,#151,.T.);
#398=EDGE_CURVE('',#309,#330,#152,.T.);
#399=EDGE_CURVE('',#331,#331,#293,.T.);
#400=EDGE_CURVE('',#332,#332,#294,.T.);
#401=EDGE_CURVE('',#333,#333,#295,.T.);
#402=EDGE_CURVE('',#334,#334,#296,.T.);
#403=EDGE_CURVE('',#335,#336,#153,.T.);
#404=EDGE_CURVE('',#337,#335,#154,.T.);
#405=EDGE_CURVE('',#338,#337,#155,.T.);
#406=EDGE_CURVE('',#336,#338,#156,.T.);
#407=EDGE_CURVE('',#335,#339,#157,.T.);
#408=EDGE_CURVE('',#340,#339,#158,.T.);
#409=EDGE_CURVE('',#340,#337,#159,.T.);
#410=EDGE_CURVE('',#341,#336,#160,.T.);
#411=EDGE_CURVE('',#342,#341,#297,.T.);
#412=EDGE_CURVE('',#343,#342,#161,.T.);
#413=EDGE_CURVE('',#344,#343,#162,.T.);
#414=EDGE_CURVE('',#345,#344,#163,.T.);
#415=EDGE_CURVE('',#346,#345,#164,.T.);
#416=EDGE_CURVE('',#347,#346,#165,.T.);
#417=EDGE_CURVE('',#348,#347,#166,.T.);
#418=EDGE_CURVE('',#349,#348,#167,.T.);
#419=EDGE_CURVE('',#350,#349,#168,.T.);
#420=EDGE_CURVE('',#351,#350,#169,.T.);
#421=EDGE_CURVE('',#352,#351,#170,.T.);
#422=EDGE_CURVE('',#353,#352,#171,.T.);
#423=EDGE_CURVE('',#354,#353,#298,.T.);
#424=EDGE_CURVE('',#355,#354,#172,.T.);
#425=EDGE_CURVE('',#339,#355,#173,.T.);
#426=EDGE_CURVE('',#356,#356,#299,.T.);
#427=EDGE_CURVE('',#357,#357,#300,.T.);
#428=EDGE_CURVE('',#358,#358,#301,.T.);
#429=EDGE_CURVE('',#359,#359,#302,.T.);
#430=EDGE_CURVE('',#355,#360,#174,.T.);
#431=EDGE_CURVE('',#360,#340,#175,.T.);
#432=EDGE_CURVE('',#313,#354,#176,.T.);
#433=EDGE_CURVE('',#312,#361,#177,.T.);
#434=EDGE_CURVE('',#361,#360,#178,.T.);
#435=EDGE_CURVE('',#320,#347,#179,.T.);
#436=EDGE_CURVE('',#319,#348,#180,.T.);
#437=EDGE_CURVE('',#321,#346,#181,.T.);
#438=EDGE_CURVE('',#322,#345,#182,.T.);
#439=EDGE_CURVE('',#323,#344,#183,.T.);
#440=EDGE_CURVE('',#324,#343,#184,.T.);
#441=EDGE_CURVE('',#325,#342,#185,.T.);
#442=EDGE_CURVE('',#326,#341,#186,.T.);
#443=EDGE_CURVE('',#338,#362,#187,.T.);
#444=EDGE_CURVE('',#362,#327,#188,.T.);
#445=EDGE_CURVE('',#363,#361,#189,.T.);
#446=EDGE_CURVE('',#364,#363,#190,.T.);
#447=EDGE_CURVE('',#365,#364,#191,.T.);
#448=EDGE_CURVE('',#366,#365,#192,.T.);
#449=EDGE_CURVE('',#362,#366,#193,.T.);
#450=EDGE_CURVE('',#366,#328,#194,.T.);
#451=EDGE_CURVE('',#365,#329,#195,.T.);
#452=EDGE_CURVE('',#330,#364,#196,.T.);
#453=EDGE_CURVE('',#363,#311,#197,.T.);
#454=EDGE_CURVE('',#356,#334,#198,.T.);
#455=EDGE_CURVE('',#357,#333,#199,.T.);
#456=EDGE_CURVE('',#358,#332,#200,.T.);
#457=EDGE_CURVE('',#359,#331,#201,.T.);
#458=EDGE_CURVE('',#314,#353,#202,.T.);
#459=EDGE_CURVE('',#315,#352,#203,.T.);
#460=EDGE_CURVE('',#316,#351,#204,.T.);
#461=EDGE_CURVE('',#317,#350,#205,.T.);
#462=EDGE_CURVE('',#318,#349,#206,.T.);
#463=ORIENTED_EDGE('',*,*,#367,.F.);
#464=ORIENTED_EDGE('',*,*,#368,.T.);
#465=ORIENTED_EDGE('',*,*,#369,.T.);
#466=ORIENTED_EDGE('',*,*,#368,.F.);
#467=ORIENTED_EDGE('',*,*,#369,.F.);
#468=ORIENTED_EDGE('',*,*,#370,.F.);
#469=ORIENTED_EDGE('',*,*,#371,.T.);
#470=ORIENTED_EDGE('',*,*,#372,.T.);
#471=ORIENTED_EDGE('',*,*,#373,.F.);
#472=ORIENTED_EDGE('',*,*,#374,.F.);
#473=ORIENTED_EDGE('',*,*,#375,.F.);
#474=ORIENTED_EDGE('',*,*,#376,.T.);
#475=ORIENTED_EDGE('',*,*,#371,.F.);
#476=ORIENTED_EDGE('',*,*,#377,.F.);
#477=ORIENTED_EDGE('',*,*,#372,.F.);
#478=ORIENTED_EDGE('',*,*,#376,.F.);
#479=ORIENTED_EDGE('',*,*,#374,.T.);
#480=ORIENTED_EDGE('',*,*,#378,.F.);
#481=ORIENTED_EDGE('',*,*,#379,.F.);
#482=ORIENTED_EDGE('',*,*,#380,.T.);
#483=ORIENTED_EDGE('',*,*,#381,.T.);
#484=ORIENTED_EDGE('',*,*,#382,.F.);
#485=ORIENTED_EDGE('',*,*,#383,.F.);
#486=ORIENTED_EDGE('',*,*,#384,.F.);
#487=ORIENTED_EDGE('',*,*,#385,.F.);
#488=ORIENTED_EDGE('',*,*,#386,.F.);
#489=ORIENTED_EDGE('',*,*,#387,.F.);
#490=ORIENTED_EDGE('',*,*,#388,.F.);
#491=ORIENTED_EDGE('',*,*,#389,.F.);
#492=ORIENTED_EDGE('',*,*,#390,.F.);
#493=ORIENTED_EDGE('',*,*,#391,.F.);
#494=ORIENTED_EDGE('',*,*,#392,.F.);
#495=ORIENTED_EDGE('',*,*,#393,.T.);
#496=ORIENTED_EDGE('',*,*,#394,.T.);
#497=ORIENTED_EDGE('',*,*,#395,.F.);
#498=ORIENTED_EDGE('',*,*,#396,.F.);
#499=ORIENTED_EDGE('',*,*,#397,.F.);
#500=ORIENTED_EDGE('',*,*,#398,.F.);
#501=ORIENTED_EDGE('',*,*,#399,.F.);
#502=ORIENTED_EDGE('',*,*,#400,.F.);
#503=ORIENTED_EDGE('',*,*,#401,.F.);
#504=ORIENTED_EDGE('',*,*,#402,.F.);
#505=ORIENTED_EDGE('',*,*,#403,.F.);
#506=ORIENTED_EDGE('',*,*,#404,.F.);
#507=ORIENTED_EDGE('',*,*,#405,.F.);
#508=ORIENTED_EDGE('',*,*,#406,.F.);
#509=ORIENTED_EDGE('',*,*,#404,.T.);
#510=ORIENTED_EDGE('',*,*,#407,.T.);
#511=ORIENTED_EDGE('',*,*,#408,.F.);
#512=ORIENTED_EDGE('',*,*,#409,.T.);
#513=ORIENTED_EDGE('',*,*,#403,.T.);
#514=ORIENTED_EDGE('',*,*,#410,.F.);
#515=ORIENTED_EDGE('',*,*,#411,.F.);
#516=ORIENTED_EDGE('',*,*,#412,.F.);
#517=ORIENTED_EDGE('',*,*,#413,.F.);
#518=ORIENTED_EDGE('',*,*,#414,.F.);
#519=ORIENTED_EDGE('',*,*,#415,.F.);
#520=ORIENTED_EDGE('',*,*,#416,.F.);
#521=ORIENTED_EDGE('',*,*,#417,.F.);
#522=ORIENTED_EDGE('',*,*,#418,.F.);
#523=ORIENTED_EDGE('',*,*,#419,.F.);
#524=ORIENTED_EDGE('',*,*,#420,.F.);
#525=ORIENTED_EDGE('',*,*,#421,.F.);
#526=ORIENTED_EDGE('',*,*,#422,.F.);
#527=ORIENTED_EDGE('',*,*,#423,.F.);
#528=ORIENTED_EDGE('',*,*,#424,.F.);
#529=ORIENTED_EDGE('',*,*,#425,.F.);
#530=ORIENTED_EDGE('',*,*,#407,.F.);
#531=ORIENTED_EDGE('',*,*,#367,.T.);
#532=ORIENTED_EDGE('',*,*,#370,.T.);
#533=ORIENTED_EDGE('',*,*,#426,.F.);
#534=ORIENTED_EDGE('',*,*,#427,.F.);
#535=ORIENTED_EDGE('',*,*,#428,.F.);
#536=ORIENTED_EDGE('',*,*,#429,.F.);
#537=ORIENTED_EDGE('',*,*,#425,.T.);
#538=ORIENTED_EDGE('',*,*,#430,.T.);
#539=ORIENTED_EDGE('',*,*,#431,.T.);
#540=ORIENTED_EDGE('',*,*,#408,.T.);
#541=ORIENTED_EDGE('',*,*,#424,.T.);
#542=ORIENTED_EDGE('',*,*,#432,.F.);
#543=ORIENTED_EDGE('',*,*,#380,.F.);
#544=ORIENTED_EDGE('',*,*,#433,.T.);
#545=ORIENTED_EDGE('',*,*,#434,.T.);
#546=ORIENTED_EDGE('',*,*,#430,.F.);
#547=ORIENTED_EDGE('',*,*,#417,.T.);
#548=ORIENTED_EDGE('',*,*,#435,.F.);
#549=ORIENTED_EDGE('',*,*,#387,.T.);
#550=ORIENTED_EDGE('',*,*,#436,.T.);
#551=ORIENTED_EDGE('',*,*,#416,.T.);
#552=ORIENTED_EDGE('',*,*,#437,.F.);
#553=ORIENTED_EDGE('',*,*,#388,.T.);
#554=ORIENTED_EDGE('',*,*,#435,.T.);
#555=ORIENTED_EDGE('',*,*,#415,.T.);
#556=ORIENTED_EDGE('',*,*,#438,.F.);
#557=ORIENTED_EDGE('',*,*,#389,.T.);
#558=ORIENTED_EDGE('',*,*,#437,.T.);
#559=ORIENTED_EDGE('',*,*,#414,.T.);
#560=ORIENTED_EDGE('',*,*,#439,.F.);
#561=ORIENTED_EDGE('',*,*,#390,.T.);
#562=ORIENTED_EDGE('',*,*,#438,.T.);
#563=ORIENTED_EDGE('',*,*,#413,.T.);
#564=ORIENTED_EDGE('',*,*,#440,.F.);
#565=ORIENTED_EDGE('',*,*,#391,.T.);
#566=ORIENTED_EDGE('',*,*,#439,.T.);
#567=ORIENTED_EDGE('',*,*,#412,.T.);
#568=ORIENTED_EDGE('',*,*,#441,.F.);
#569=ORIENTED_EDGE('',*,*,#392,.T.);
#570=ORIENTED_EDGE('',*,*,#440,.T.);
#571=ORIENTED_EDGE('',*,*,#411,.T.);
#572=ORIENTED_EDGE('',*,*,#442,.F.);
#573=ORIENTED_EDGE('',*,*,#393,.F.);
#574=ORIENTED_EDGE('',*,*,#441,.T.);
#575=ORIENTED_EDGE('',*,*,#406,.T.);
#576=ORIENTED_EDGE('',*,*,#443,.T.);
#577=ORIENTED_EDGE('',*,*,#444,.T.);
#578=ORIENTED_EDGE('',*,*,#394,.F.);
#579=ORIENTED_EDGE('',*,*,#442,.T.);
#580=ORIENTED_EDGE('',*,*,#410,.T.);
#581=ORIENTED_EDGE('',*,*,#405,.T.);
#582=ORIENTED_EDGE('',*,*,#409,.F.);
#583=ORIENTED_EDGE('',*,*,#431,.F.);
#584=ORIENTED_EDGE('',*,*,#434,.F.);
#585=ORIENTED_EDGE('',*,*,#445,.F.);
#586=ORIENTED_EDGE('',*,*,#446,.F.);
#587=ORIENTED_EDGE('',*,*,#447,.F.);
#588=ORIENTED_EDGE('',*,*,#448,.F.);
#589=ORIENTED_EDGE('',*,*,#449,.F.);
#590=ORIENTED_EDGE('',*,*,#443,.F.);
#591=ORIENTED_EDGE('',*,*,#449,.T.);
#592=ORIENTED_EDGE('',*,*,#450,.T.);
#593=ORIENTED_EDGE('',*,*,#395,.T.);
#594=ORIENTED_EDGE('',*,*,#444,.F.);
#595=ORIENTED_EDGE('',*,*,#448,.T.);
#596=ORIENTED_EDGE('',*,*,#451,.T.);
#597=ORIENTED_EDGE('',*,*,#396,.T.);
#598=ORIENTED_EDGE('',*,*,#450,.F.);
#599=ORIENTED_EDGE('',*,*,#447,.T.);
#600=ORIENTED_EDGE('',*,*,#452,.F.);
#601=ORIENTED_EDGE('',*,*,#397,.T.);
#602=ORIENTED_EDGE('',*,*,#451,.F.);
#603=ORIENTED_EDGE('',*,*,#375,.T.);
#604=ORIENTED_EDGE('',*,*,#398,.T.);
#605=ORIENTED_EDGE('',*,*,#452,.T.);
#606=ORIENTED_EDGE('',*,*,#446,.T.);
#607=ORIENTED_EDGE('',*,*,#453,.T.);
#608=ORIENTED_EDGE('',*,*,#378,.T.);
#609=ORIENTED_EDGE('',*,*,#373,.T.);
#610=ORIENTED_EDGE('',*,*,#377,.T.);
#611=ORIENTED_EDGE('',*,*,#445,.T.);
#612=ORIENTED_EDGE('',*,*,#433,.F.);
#613=ORIENTED_EDGE('',*,*,#379,.T.);
#614=ORIENTED_EDGE('',*,*,#453,.F.);
#615=ORIENTED_EDGE('',*,*,#426,.T.);
#616=ORIENTED_EDGE('',*,*,#454,.T.);
#617=ORIENTED_EDGE('',*,*,#402,.T.);
#618=ORIENTED_EDGE('',*,*,#454,.F.);
#619=ORIENTED_EDGE('',*,*,#427,.T.);
#620=ORIENTED_EDGE('',*,*,#455,.T.);
#621=ORIENTED_EDGE('',*,*,#401,.T.);
#622=ORIENTED_EDGE('',*,*,#455,.F.);
#623=ORIENTED_EDGE('',*,*,#428,.T.);
#624=ORIENTED_EDGE('',*,*,#456,.T.);
#625=ORIENTED_EDGE('',*,*,#400,.T.);
#626=ORIENTED_EDGE('',*,*,#456,.F.);
#627=ORIENTED_EDGE('',*,*,#429,.T.);
#628=ORIENTED_EDGE('',*,*,#457,.T.);
#629=ORIENTED_EDGE('',*,*,#399,.T.);
#630=ORIENTED_EDGE('',*,*,#457,.F.);
#631=ORIENTED_EDGE('',*,*,#423,.T.);
#632=ORIENTED_EDGE('',*,*,#458,.F.);
#633=ORIENTED_EDGE('',*,*,#381,.F.);
#634=ORIENTED_EDGE('',*,*,#432,.T.);
#635=ORIENTED_EDGE('',*,*,#422,.T.);
#636=ORIENTED_EDGE('',*,*,#459,.F.);
#637=ORIENTED_EDGE('',*,*,#382,.T.);
#638=ORIENTED_EDGE('',*,*,#458,.T.);
#639=ORIENTED_EDGE('',*,*,#421,.T.);
#640=ORIENTED_EDGE('',*,*,#460,.F.);
#641=ORIENTED_EDGE('',*,*,#383,.T.);
#642=ORIENTED_EDGE('',*,*,#459,.T.);
#643=ORIENTED_EDGE('',*,*,#420,.T.);
#644=ORIENTED_EDGE('',*,*,#461,.F.);
#645=ORIENTED_EDGE('',*,*,#384,.T.);
#646=ORIENTED_EDGE('',*,*,#460,.T.);
#647=ORIENTED_EDGE('',*,*,#419,.T.);
#648=ORIENTED_EDGE('',*,*,#462,.F.);
#649=ORIENTED_EDGE('',*,*,#385,.T.);
#650=ORIENTED_EDGE('',*,*,#461,.T.);
#651=ORIENTED_EDGE('',*,*,#418,.T.);
#652=ORIENTED_EDGE('',*,*,#436,.F.);
#653=ORIENTED_EDGE('',*,*,#386,.T.);
#654=ORIENTED_EDGE('',*,*,#462,.T.);
#655=CYLINDRICAL_SURFACE('',#711,1.49999999999999);
#656=CYLINDRICAL_SURFACE('',#715,1.50000000000002);
#657=CYLINDRICAL_SURFACE('',#745,11.0052558883259);
#658=CYLINDRICAL_SURFACE('',#753,0.749999999999993);
#659=CYLINDRICAL_SURFACE('',#754,0.749999999999993);
#660=CYLINDRICAL_SURFACE('',#755,0.749999999999993);
#661=CYLINDRICAL_SURFACE('',#756,0.749999999999993);
#662=CYLINDRICAL_SURFACE('',#757,11.0052558883258);
#663=ADVANCED_FACE('',(#51),#655,.F.);
#664=ADVANCED_FACE('',(#52),#25,.T.);
#665=ADVANCED_FACE('',(#53),#656,.F.);
#666=ADVANCED_FACE('',(#54),#26,.T.);
#667=ADVANCED_FACE('',(#55,#15,#16,#17,#18),#27,.F.);
#668=ADVANCED_FACE('',(#56),#28,.F.);
#669=ADVANCED_FACE('',(#57),#29,.T.);
#670=ADVANCED_FACE('',(#58,#19,#20,#21,#22,#23,#24),#30,.T.);
#671=ADVANCED_FACE('',(#59),#31,.T.);
#672=ADVANCED_FACE('',(#60),#32,.T.);
#673=ADVANCED_FACE('',(#61),#33,.T.);
#674=ADVANCED_FACE('',(#62),#34,.T.);
#675=ADVANCED_FACE('',(#63),#35,.T.);
#676=ADVANCED_FACE('',(#64),#36,.T.);
#677=ADVANCED_FACE('',(#65),#37,.T.);
#678=ADVANCED_FACE('',(#66),#38,.T.);
#679=ADVANCED_FACE('',(#67),#657,.F.);
#680=ADVANCED_FACE('',(#68),#39,.T.);
#681=ADVANCED_FACE('',(#69),#40,.F.);
#682=ADVANCED_FACE('',(#70),#41,.F.);
#683=ADVANCED_FACE('',(#71),#42,.F.);
#684=ADVANCED_FACE('',(#72),#43,.F.);
#685=ADVANCED_FACE('',(#73),#44,.F.);
#686=ADVANCED_FACE('',(#74),#45,.F.);
#687=ADVANCED_FACE('',(#75),#658,.F.);
#688=ADVANCED_FACE('',(#76),#659,.F.);
#689=ADVANCED_FACE('',(#77),#660,.F.);
#690=ADVANCED_FACE('',(#78),#661,.F.);
#691=ADVANCED_FACE('',(#79),#662,.F.);
#692=ADVANCED_FACE('',(#80),#46,.T.);
#693=ADVANCED_FACE('',(#81),#47,.T.);
#694=ADVANCED_FACE('',(#82),#48,.T.);
#695=ADVANCED_FACE('',(#83),#49,.T.);
#696=ADVANCED_FACE('',(#84),#50,.T.);
#697=CLOSED_SHELL('',(#663,#664,#665,#666,#667,#668,#669,#670,#671,#672,
#673,#674,#675,#676,#677,#678,#679,#680,#681,#682,#683,#684,#685,#686,#687,
#688,#689,#690,#691,#692,#693,#694,#695,#696));
#698=DERIVED_UNIT_ELEMENT(#700,1.);
#699=DERIVED_UNIT_ELEMENT(#1147,-3.);
#700=(
MASS_UNIT()
NAMED_UNIT(*)
SI_UNIT(.KILO.,.GRAM.)
);
#701=DERIVED_UNIT((#698,#699));
#702=MEASURE_REPRESENTATION_ITEM('density measure',
POSITIVE_RATIO_MEASURE(7850.),#701);
#703=PROPERTY_DEFINITION_REPRESENTATION(#708,#705);
#704=PROPERTY_DEFINITION_REPRESENTATION(#709,#706);
#705=REPRESENTATION('material name',(#707),#1144);
#706=REPRESENTATION('density',(#702),#1144);
#707=DESCRIPTIVE_REPRESENTATION_ITEM('Steel','Steel');
#708=PROPERTY_DEFINITION('material property','material name',#1154);
#709=PROPERTY_DEFINITION('material property','density of part',#1154);
#710=AXIS2_PLACEMENT_3D('',#947,#763,#764);
#711=AXIS2_PLACEMENT_3D('',#948,#765,#766);
#712=AXIS2_PLACEMENT_3D('',#950,#767,#768);
#713=AXIS2_PLACEMENT_3D('',#953,#770,#771);
#714=AXIS2_PLACEMENT_3D('',#954,#772,#773);
#715=AXIS2_PLACEMENT_3D('',#955,#774,#775);
#716=AXIS2_PLACEMENT_3D('',#957,#776,#777);
#717=AXIS2_PLACEMENT_3D('',#961,#779,#780);
#718=AXIS2_PLACEMENT_3D('',#965,#782,#783);
#719=AXIS2_PLACEMENT_3D('',#968,#785,#786);
#720=AXIS2_PLACEMENT_3D('',#969,#787,#788);
#721=AXIS2_PLACEMENT_3D('',#971,#790,#791);
#722=AXIS2_PLACEMENT_3D('',#979,#795,#796);
#723=AXIS2_PLACEMENT_3D('',#1003,#808,#809);
#724=AXIS2_PLACEMENT_3D('',#1014,#815,#816);
#725=AXIS2_PLACEMENT_3D('',#1016,#817,#818);
#726=AXIS2_PLACEMENT_3D('',#1018,#819,#820);
#727=AXIS2_PLACEMENT_3D('',#1020,#821,#822);
#728=AXIS2_PLACEMENT_3D('',#1021,#823,#824);
#729=AXIS2_PLACEMENT_3D('',#1030,#829,#830);
#730=AXIS2_PLACEMENT_3D('',#1036,#834,#835);
#731=AXIS2_PLACEMENT_3D('',#1040,#837,#838);
#732=AXIS2_PLACEMENT_3D('',#1064,#850,#851);
#733=AXIS2_PLACEMENT_3D('',#1069,#854,#855);
#734=AXIS2_PLACEMENT_3D('',#1071,#856,#857);
#735=AXIS2_PLACEMENT_3D('',#1073,#858,#859);
#736=AXIS2_PLACEMENT_3D('',#1075,#860,#861);
#737=AXIS2_PLACEMENT_3D('',#1076,#862,#863);
#738=AXIS2_PLACEMENT_3D('',#1080,#866,#867);
#739=AXIS2_PLACEMENT_3D('',#1085,#871,#872);
#740=AXIS2_PLACEMENT_3D('',#1088,#875,#876);
#741=AXIS2_PLACEMENT_3D('',#1090,#878,#879);
#742=AXIS2_PLACEMENT_3D('',#1092,#881,#882);
#743=AXIS2_PLACEMENT_3D('',#1094,#884,#885);
#744=AXIS2_PLACEMENT_3D('',#1096,#887,#888);
#745=AXIS2_PLACEMENT_3D('',#1098,#890,#891);
#746=AXIS2_PLACEMENT_3D('',#1100,#893,#894);
#747=AXIS2_PLACEMENT_3D('',#1104,#897,#898);
#748=AXIS2_PLACEMENT_3D('',#1114,#904,#905);
#749=AXIS2_PLACEMENT_3D('',#1116,#907,#908);
#750=AXIS2_PLACEMENT_3D('',#1118,#910,#911);
#751=AXIS2_PLACEMENT_3D('',#1120,#913,#914);
#752=AXIS2_PLACEMENT_3D('',#1122,#916,#917);
#753=AXIS2_PLACEMENT_3D('',#1123,#918,#919);
#754=AXIS2_PLACEMENT_3D('',#1125,#921,#922);
#755=AXIS2_PLACEMENT_3D('',#1127,#924,#925);
#756=AXIS2_PLACEMENT_3D('',#1129,#927,#928);
#757=AXIS2_PLACEMENT_3D('',#1131,#930,#931);
#758=AXIS2_PLACEMENT_3D('',#1133,#933,#934);
#759=AXIS2_PLACEMENT_3D('',#1135,#936,#937);
#760=AXIS2_PLACEMENT_3D('',#1137,#939,#940);
#761=AXIS2_PLACEMENT_3D('',#1139,#942,#943);
#762=AXIS2_PLACEMENT_3D('',#1141,#945,#946);
#763=DIRECTION('axis',(0.,0.,1.));
#764=DIRECTION('refdir',(1.,0.,0.));
#765=DIRECTION('center_axis',(0.,0.,1.));
#766=DIRECTION('ref_axis',(1.,1.18829120480621E-32,0.));
#767=DIRECTION('center_axis',(0.,0.,1.));
#768=DIRECTION('ref_axis',(1.,1.18829120480621E-32,0.));
#769=DIRECTION('',(0.,0.,1.));
#770=DIRECTION('center_axis',(-1.0285939146909E-16,1.15525786010828E-16,
1.));
#771=DIRECTION('ref_axis',(1.,1.18829120480621E-32,1.0285939146909E-16));
#772=DIRECTION('center_axis',(1.0285939146909E-16,-1.15525786010828E-16,
-1.));
#773=DIRECTION('ref_axis',(1.,1.18829120480621E-32,1.0285939146909E-16));
#774=DIRECTION('center_axis',(0.,0.,1.));
#775=DIRECTION('ref_axis',(1.,1.18829120480621E-32,0.));
#776=DIRECTION('center_axis',(0.,0.,1.));
#777=DIRECTION('ref_axis',(1.,1.18829120480621E-32,0.));
#778=DIRECTION('',(0.,0.,1.));
#779=DIRECTION('center_axis',(-1.0285939146909E-16,1.15525786010828E-16,
1.));
#780=DIRECTION('ref_axis',(1.,1.18829120480621E-32,1.0285939146909E-16));
#781=DIRECTION('',(0.,0.,1.));
#782=DIRECTION('center_axis',(0.,0.,-1.));
#783=DIRECTION('ref_axis',(1.,1.18829120480621E-32,0.));
#784=DIRECTION('',(0.,0.,-1.));
#785=DIRECTION('center_axis',(-1.0285939146909E-16,1.15525786010828E-16,
1.));
#786=DIRECTION('ref_axis',(1.,1.18829120480621E-32,1.0285939146909E-16));
#787=DIRECTION('center_axis',(1.0285939146909E-16,-1.15525786010828E-16,
-1.));
#788=DIRECTION('ref_axis',(1.,1.18829120480621E-32,1.0285939146909E-16));
#789=DIRECTION('',(1.00375891081393E-15,1.,-1.15525786010828E-16));
#790=DIRECTION('center_axis',(0.,0.,-1.));
#791=DIRECTION('ref_axis',(1.,0.,0.));
#792=DIRECTION('',(1.00375891081393E-15,1.,0.));
#793=DIRECTION('',(-1.,1.00375891081393E-15,-7.39557098644699E-32));
#794=DIRECTION('',(0.,1.,0.));
#795=DIRECTION('center_axis',(0.,0.,-1.));
#796=DIRECTION('ref_axis',(-0.481588075168907,-0.876397698453794,0.));
#797=DIRECTION('',(1.,0.,0.));
#798=DIRECTION('',(0.,1.,0.));
#799=DIRECTION('',(1.,0.,0.));
#800=DIRECTION('',(1.97372982155584E-14,-1.,0.));
#801=DIRECTION('',(1.,1.33060437408259E-15,0.));
#802=DIRECTION('',(-9.65411325761005E-16,-1.,0.));
#803=DIRECTION('',(-1.,0.,0.));
#804=DIRECTION('',(1.97372982155584E-14,-1.,0.));
#805=DIRECTION('',(-1.,0.,0.));
#806=DIRECTION('',(4.93432455388959E-15,1.,0.));
#807=DIRECTION('',(-1.,-6.65460159532608E-15,0.));
#808=DIRECTION('center_axis',(0.,0.,-1.));
#809=DIRECTION('ref_axis',(-0.806944783203377,0.590626884641103,0.));
#810=DIRECTION('',(0.,1.,0.));
#811=DIRECTION('',(1.,-1.00375891081393E-15,7.39557098644699E-32));
#812=DIRECTION('',(-1.00375891081393E-15,-1.,0.));
#813=DIRECTION('',(1.,-1.00375891081393E-15,7.39557098644699E-32));
#814=DIRECTION('',(1.00375891081393E-15,1.,0.));
#815=DIRECTION('center_axis',(0.,0.,1.));
#816=DIRECTION('ref_axis',(1.,0.,0.));
#817=DIRECTION('center_axis',(0.,0.,1.));
#818=DIRECTION('ref_axis',(1.,0.,0.));
#819=DIRECTION('center_axis',(0.,0.,1.));
#820=DIRECTION('ref_axis',(1.,0.,0.));
#821=DIRECTION('center_axis',(0.,0.,1.));
#822=DIRECTION('ref_axis',(1.,0.,0.));
#823=DIRECTION('center_axis',(0.,-1.,0.));
#824=DIRECTION('ref_axis',(0.,0.,-1.));
#825=DIRECTION('',(1.,0.,0.));
#826=DIRECTION('',(0.,0.,-1.));
#827=DIRECTION('',(-1.,0.,0.));
#828=DIRECTION('',(0.,0.,1.));
#829=DIRECTION('center_axis',(-1.,0.,0.));
#830=DIRECTION('ref_axis',(0.,0.,1.));
#831=DIRECTION('',(0.,-1.,0.));
#832=DIRECTION('',(0.,0.,-1.));
#833=DIRECTION('',(0.,1.,0.));
#834=DIRECTION('center_axis',(0.,0.,-1.));
#835=DIRECTION('ref_axis',(1.,0.,0.));
#836=DIRECTION('',(0.,1.,0.));
#837=DIRECTION('center_axis',(0.,0.,-1.));
#838=DIRECTION('ref_axis',(-0.806944783203377,0.590626884641103,0.));
#839=DIRECTION('',(1.,6.65460159532608E-15,0.));
#840=DIRECTION('',(-4.93432455388959E-15,-1.,0.));
#841=DIRECTION('',(1.,0.,0.));
#842=DIRECTION('',(-1.97372982155584E-14,1.,0.));
#843=DIRECTION('',(1.,0.,0.));
#844=DIRECTION('',(9.65411325761005E-16,1.,0.));
#845=DIRECTION('',(-1.,-1.33060437408259E-15,0.));
#846=DIRECTION('',(-1.97372982155584E-14,1.,0.));
#847=DIRECTION('',(-1.,0.,0.));
#848=DIRECTION('',(0.,-1.,0.));
#849=DIRECTION('',(-1.,0.,0.));
#850=DIRECTION('center_axis',(0.,0.,-1.));
#851=DIRECTION('ref_axis',(-0.481588075168907,-0.876397698453794,0.));
#852=DIRECTION('',(0.,1.,0.));
#853=DIRECTION('',(1.,0.,0.));
#854=DIRECTION('center_axis',(0.,0.,-1.));
#855=DIRECTION('ref_axis',(1.,0.,0.));
#856=DIRECTION('center_axis',(0.,0.,-1.));
#857=DIRECTION('ref_axis',(1.,0.,0.));
#858=DIRECTION('center_axis',(0.,0.,-1.));
#859=DIRECTION('ref_axis',(1.,0.,0.));
#860=DIRECTION('center_axis',(0.,0.,-1.));
#861=DIRECTION('ref_axis',(1.,0.,0.));
#862=DIRECTION('center_axis',(0.,-1.,0.));
#863=DIRECTION('ref_axis',(0.,0.,-1.));
#864=DIRECTION('',(0.,0.,1.));
#865=DIRECTION('',(-1.,0.,0.));
#866=DIRECTION('center_axis',(1.,0.,0.));
#867=DIRECTION('ref_axis',(0.,-1.,0.));
#868=DIRECTION('',(0.,0.,-1.));
#869=DIRECTION('',(0.,0.,1.));
#870=DIRECTION('',(0.,-1.,0.));
#871=DIRECTION('center_axis',(1.,-9.65411325761005E-16,0.));
#872=DIRECTION('ref_axis',(-9.65411325761005E-16,-1.,0.));
#873=DIRECTION('',(0.,0.,-1.));
#874=DIRECTION('',(0.,0.,-1.));
#875=DIRECTION('center_axis',(0.,-1.,0.));
#876=DIRECTION('ref_axis',(-1.,0.,0.));
#877=DIRECTION('',(0.,0.,-1.));
#878=DIRECTION('center_axis',(1.,1.97372982155584E-14,0.));
#879=DIRECTION('ref_axis',(1.97372982155584E-14,-1.,0.));
#880=DIRECTION('',(0.,0.,-1.));
#881=DIRECTION('center_axis',(0.,-1.,0.));
#882=DIRECTION('ref_axis',(-1.,0.,0.));
#883=DIRECTION('',(0.,0.,-1.));
#884=DIRECTION('center_axis',(-1.,4.93432455388959E-15,0.));
#885=DIRECTION('ref_axis',(4.93432455388959E-15,1.,0.));
#886=DIRECTION('',(0.,0.,-1.));
#887=DIRECTION('center_axis',(6.65460159532608E-15,-1.,0.));
#888=DIRECTION('ref_axis',(-1.,-6.65460159532608E-15,0.));
#889=DIRECTION('',(0.,0.,-1.));
#890=DIRECTION('center_axis',(0.,0.,-1.));
#891=DIRECTION('ref_axis',(-0.806944783203377,0.590626884641103,0.));
#892=DIRECTION('',(0.,0.,-1.));
#893=DIRECTION('center_axis',(1.,0.,0.));
#894=DIRECTION('ref_axis',(0.,-1.,0.));
#895=DIRECTION('',(0.,-1.,0.));
#896=DIRECTION('',(0.,0.,-1.));
#897=DIRECTION('center_axis',(0.,0.,-1.));
#898=DIRECTION('ref_axis',(-1.,0.,0.));
#899=DIRECTION('',(1.,0.,0.));
#900=DIRECTION('',(-1.00375891081393E-15,-1.,0.));
#901=DIRECTION('',(-1.,1.00375891081393E-15,0.));
#902=DIRECTION('',(1.00375891081393E-15,1.,0.));
#903=DIRECTION('',(-1.,1.00375891081393E-15,0.));
#904=DIRECTION('center_axis',(1.00375891081393E-15,1.,0.));
#905=DIRECTION('ref_axis',(1.,-1.00375891081393E-15,7.39557098644699E-32));
#906=DIRECTION('',(0.,0.,-1.));
#907=DIRECTION('center_axis',(1.,-1.00375891081393E-15,0.));
#908=DIRECTION('ref_axis',(-1.00375891081393E-15,-1.,0.));
#909=DIRECTION('',(0.,0.,-1.));
#910=DIRECTION('center_axis',(1.00375891081393E-15,1.,0.));
#911=DIRECTION('ref_axis',(1.,-1.00375891081393E-15,7.39557098644699E-32));
#912=DIRECTION('',(0.,0.,1.));
#913=DIRECTION('center_axis',(-1.,1.00375891081393E-15,0.));
#914=DIRECTION('ref_axis',(1.00375891081393E-15,1.,0.));
#915=DIRECTION('',(0.,0.,-1.));
#916=DIRECTION('center_axis',(0.,-1.,0.));
#917=DIRECTION('ref_axis',(0.,0.,-1.));
#918=DIRECTION('center_axis',(0.,0.,-1.));
#919=DIRECTION('ref_axis',(1.,0.,0.));
#920=DIRECTION('',(0.,0.,1.));
#921=DIRECTION('center_axis',(0.,0.,-1.));
#922=DIRECTION('ref_axis',(1.,0.,0.));
#923=DIRECTION('',(0.,0.,1.));
#924=DIRECTION('center_axis',(0.,0.,-1.));
#925=DIRECTION('ref_axis',(1.,0.,0.));
#926=DIRECTION('',(0.,0.,1.));
#927=DIRECTION('center_axis',(0.,0.,-1.));
#928=DIRECTION('ref_axis',(1.,0.,0.));
#929=DIRECTION('',(0.,0.,1.));
#930=DIRECTION('center_axis',(0.,0.,-1.));
#931=DIRECTION('ref_axis',(-0.481588075168907,-0.876397698453794,0.));
#932=DIRECTION('',(0.,0.,-1.));
#933=DIRECTION('center_axis',(0.,1.,0.));
#934=DIRECTION('ref_axis',(1.,0.,0.));
#935=DIRECTION('',(0.,0.,-1.));
#936=DIRECTION('center_axis',(-1.,0.,0.));
#937=DIRECTION('ref_axis',(0.,1.,0.));
#938=DIRECTION('',(0.,0.,-1.));
#939=DIRECTION('center_axis',(0.,1.,0.));
#940=DIRECTION('ref_axis',(1.,0.,0.));
#941=DIRECTION('',(0.,0.,-1.));
#942=DIRECTION('center_axis',(1.,1.97372982155584E-14,0.));
#943=DIRECTION('ref_axis',(1.97372982155584E-14,-1.,0.));
#944=DIRECTION('',(0.,0.,-1.));
#945=DIRECTION('center_axis',(-1.33060437408259E-15,1.,0.));
#946=DIRECTION('ref_axis',(1.,1.33060437408259E-15,0.));
#947=CARTESIAN_POINT('',(0.,0.,0.));
#948=CARTESIAN_POINT('Origin',(92.4292075459901,-104.189927755306,-18.2097121821051));
#949=CARTESIAN_POINT('',(90.9292075459901,-104.189927755306,-17.9));
#950=CARTESIAN_POINT('Origin',(92.4292075459901,-104.189927755306,-17.9));
#951=CARTESIAN_POINT('',(90.9292075459901,-104.189927755306,-13.2097121821051));
#952=CARTESIAN_POINT('',(90.9292075459901,-104.189927755306,-18.2097121821051));
#953=CARTESIAN_POINT('Origin',(92.4292075459901,-104.189927755306,-13.2097121821051));
#954=CARTESIAN_POINT('Origin',(92.4292075459901,-104.189927755306,-13.2097121821051));
#955=CARTESIAN_POINT('Origin',(92.4292075459901,-79.1899277553057,-18.2097121821051));
#956=CARTESIAN_POINT('',(90.92920754599,-79.1899277553057,-17.9));
#957=CARTESIAN_POINT('Origin',(92.4292075459901,-79.1899277553057,-17.9));
#958=CARTESIAN_POINT('',(90.92920754599,-79.1899277553057,-13.2097121821051));
#959=CARTESIAN_POINT('',(90.92920754599,-79.1899277553057,-18.2097121821051));
#960=CARTESIAN_POINT('',(92.2,-80.6723122873557,-13.2097121821051));
#961=CARTESIAN_POINT('Origin',(92.4292075459901,-79.1899277553057,-13.2097121821051));
#962=CARTESIAN_POINT('',(92.2,-80.6723122873557,-15.9));
#963=CARTESIAN_POINT('',(92.2,-80.6723122873557,-18.2097121821051));
#964=CARTESIAN_POINT('',(92.2,-77.7075432232556,-15.9));
#965=CARTESIAN_POINT('Origin',(92.4292075459901,-79.1899277553057,-15.9));
#966=CARTESIAN_POINT('',(92.2,-77.7075432232556,-13.2097121821051));
#967=CARTESIAN_POINT('',(92.2,-77.7075432232556,-18.2097121821051));
#968=CARTESIAN_POINT('Origin',(92.4292075459901,-79.1899277553057,-13.2097121821051));
#969=CARTESIAN_POINT('Origin',(92.4292075459901,-79.1899277553057,-13.2097121821051));
#970=CARTESIAN_POINT('',(92.2,-90.8440019833294,-13.2097121821051));
#971=CARTESIAN_POINT('Origin',(112.4,-90.,-15.9));
#972=CARTESIAN_POINT('',(92.2,-102.498076211353,-15.9));
#973=CARTESIAN_POINT('',(92.2,-102.498076211353,-15.9));
#974=CARTESIAN_POINT('',(127.2,-102.498076211353,-15.9));
#975=CARTESIAN_POINT('',(97.6950839353331,-102.498076211353,-15.9));
#976=CARTESIAN_POINT('',(127.2,-99.6449809314238,-15.9));
#977=CARTESIAN_POINT('',(127.2,-110.083085840771,-15.9));
#978=CARTESIAN_POINT('',(123.619366173097,-96.5,-15.9));
#979=CARTESIAN_POINT('Origin',(132.5,-90.0000000000001,-15.9));
#980=CARTESIAN_POINT('',(120.95,-96.5,-15.9));
#981=CARTESIAN_POINT('',(120.95,-96.5,-15.9));
#982=CARTESIAN_POINT('',(120.95,-100.1,-15.9));
#983=CARTESIAN_POINT('',(120.95,-100.1,-15.9));
#984=CARTESIAN_POINT('',(115.95,-100.1,-15.9));
#985=CARTESIAN_POINT('',(115.95,-100.1,-15.9));
#986=CARTESIAN_POINT('',(115.95,-99.2,-15.9));
#987=CARTESIAN_POINT('',(115.95,-99.2,-15.9));
#988=CARTESIAN_POINT('',(102.6,-99.2,-15.9));
#989=CARTESIAN_POINT('',(102.6,-99.2,-15.9));
#990=CARTESIAN_POINT('',(102.6,-80.8,-15.9));
#991=CARTESIAN_POINT('',(102.6,-80.8,-15.9));
#992=CARTESIAN_POINT('',(115.95,-80.8,-15.9));
#993=CARTESIAN_POINT('',(115.95,-80.8,-15.9));
#994=CARTESIAN_POINT('',(115.95,-79.9,-15.9));
#995=CARTESIAN_POINT('',(115.95,-79.9,-15.9));
#996=CARTESIAN_POINT('',(120.95,-79.9,-15.9));
#997=CARTESIAN_POINT('',(120.95,-79.9,-15.9));
#998=CARTESIAN_POINT('',(120.95,-83.5,-15.9));
#999=CARTESIAN_POINT('',(120.95,-83.5,-15.9));
#1000=CARTESIAN_POINT('',(123.619366173097,-83.5,-15.9));
#1001=CARTESIAN_POINT('',(123.619366173097,-83.5,-15.9));
#1002=CARTESIAN_POINT('',(127.2,-80.3550190685762,-15.9));
#1003=CARTESIAN_POINT('Origin',(132.5,-90.0000000000001,-15.9));
#1004=CARTESIAN_POINT('',(127.2,-77.6300945020462,-15.9));
#1005=CARTESIAN_POINT('',(127.2,-110.083085840771,-15.9));
#1006=CARTESIAN_POINT('',(97.6950839353331,-77.6300945020462,-15.9));
#1007=CARTESIAN_POINT('',(97.6950839353331,-77.6300945020462,-15.9));
#1008=CARTESIAN_POINT('',(97.6950839353331,-77.5584542338967,-15.9));
#1009=CARTESIAN_POINT('',(97.6950839353331,-77.5584542338967,-15.9));
#1010=CARTESIAN_POINT('',(92.2,-77.5584542338967,-15.9));
#1011=CARTESIAN_POINT('',(92.2,-77.5584542338967,-15.9));
#1012=CARTESIAN_POINT('',(92.2,-102.498076211353,-15.9));
#1013=CARTESIAN_POINT('',(123.45,-100.25,-15.9));
#1014=CARTESIAN_POINT('Origin',(124.2,-100.25,-15.9));
#1015=CARTESIAN_POINT('',(123.45,-79.75,-15.9));
#1016=CARTESIAN_POINT('Origin',(124.2,-79.75,-15.9));
#1017=CARTESIAN_POINT('',(98.95,-100.25,-15.9));
#1018=CARTESIAN_POINT('Origin',(99.7,-100.25,-15.9));
#1019=CARTESIAN_POINT('',(98.95,-79.75,-15.9));
#1020=CARTESIAN_POINT('Origin',(99.7,-79.75,-15.9));
#1021=CARTESIAN_POINT('Origin',(90.2,-70.0000858407714,-15.9));
#1022=CARTESIAN_POINT('',(87.2,-70.0000858407714,-17.9));
#1023=CARTESIAN_POINT('',(127.2,-70.0000858407714,-17.9));
#1024=CARTESIAN_POINT('',(101.3,-70.0000858407714,-17.9));
#1025=CARTESIAN_POINT('',(87.2,-70.0000858407714,16.2));
#1026=CARTESIAN_POINT('',(87.2,-70.0000858407714,-15.9));
#1027=CARTESIAN_POINT('',(127.2,-70.0000858407714,16.2));
#1028=CARTESIAN_POINT('',(99.45,-70.0000858407714,16.2));
#1029=CARTESIAN_POINT('',(127.2,-70.0000858407714,-15.9));
#1030=CARTESIAN_POINT('Origin',(87.2,-110.083085840771,-15.9));
#1031=CARTESIAN_POINT('',(87.2,-110.000085840771,-17.9));
#1032=CARTESIAN_POINT('',(87.2,-100.041542920386,-17.9));
#1033=CARTESIAN_POINT('',(87.2,-110.000085840771,16.2));
#1034=CARTESIAN_POINT('',(87.2,-110.000085840771,-15.9));
#1035=CARTESIAN_POINT('',(87.2,-100.083085840771,16.2));
#1036=CARTESIAN_POINT('Origin',(112.4,-90.,-17.9));
#1037=CARTESIAN_POINT('',(127.2,-80.3550190685762,-17.9));
#1038=CARTESIAN_POINT('',(127.2,-70.0000858407714,-17.9));
#1039=CARTESIAN_POINT('',(123.619366173097,-83.5,-17.9));
#1040=CARTESIAN_POINT('Origin',(132.5,-90.0000000000001,-17.9));
#1041=CARTESIAN_POINT('',(120.95,-83.5,-17.9));
#1042=CARTESIAN_POINT('',(118.009683086549,-83.5,-17.9));
#1043=CARTESIAN_POINT('',(120.95,-79.9,-17.9));
#1044=CARTESIAN_POINT('',(120.95,-86.75,-17.9));
#1045=CARTESIAN_POINT('',(115.95,-79.9,-17.9));
#1046=CARTESIAN_POINT('',(116.675,-79.9,-17.9));
#1047=CARTESIAN_POINT('',(115.95,-80.8,-17.9));
#1048=CARTESIAN_POINT('',(115.95,-84.95,-17.9));
#1049=CARTESIAN_POINT('',(102.6,-80.8,-17.9));
#1050=CARTESIAN_POINT('',(114.175,-80.8,-17.9));
#1051=CARTESIAN_POINT('',(102.6,-99.2,-17.9));
#1052=CARTESIAN_POINT('',(102.6,-85.4,-17.9));
#1053=CARTESIAN_POINT('',(115.95,-99.2,-17.9));
#1054=CARTESIAN_POINT('',(107.5,-99.2,-17.9));
#1055=CARTESIAN_POINT('',(115.95,-100.1,-17.9));
#1056=CARTESIAN_POINT('',(115.95,-94.6,-17.9));
#1057=CARTESIAN_POINT('',(120.95,-100.1,-17.9));
#1058=CARTESIAN_POINT('',(114.175,-100.1,-17.9));
#1059=CARTESIAN_POINT('',(120.95,-96.5,-17.9));
#1060=CARTESIAN_POINT('',(120.95,-95.05,-17.9));
#1061=CARTESIAN_POINT('',(123.619366173097,-96.5,-17.9));
#1062=CARTESIAN_POINT('',(116.675,-96.5,-17.9));
#1063=CARTESIAN_POINT('',(127.2,-99.6449809314238,-17.9));
#1064=CARTESIAN_POINT('Origin',(132.5,-90.0000000000001,-17.9));
#1065=CARTESIAN_POINT('',(127.2,-110.000085840771,-17.9));
#1066=CARTESIAN_POINT('',(127.2,-94.8224904657119,-17.9));
#1067=CARTESIAN_POINT('',(119.8,-110.000085840771,-17.9));
#1068=CARTESIAN_POINT('',(98.95,-79.75,-17.9));
#1069=CARTESIAN_POINT('Origin',(99.7,-79.75,-17.9));
#1070=CARTESIAN_POINT('',(98.95,-100.25,-17.9));
#1071=CARTESIAN_POINT('Origin',(99.7,-100.25,-17.9));
#1072=CARTESIAN_POINT('',(123.45,-79.75,-17.9));
#1073=CARTESIAN_POINT('Origin',(124.2,-79.75,-17.9));
#1074=CARTESIAN_POINT('',(123.45,-100.25,-17.9));
#1075=CARTESIAN_POINT('Origin',(124.2,-100.25,-17.9));
#1076=CARTESIAN_POINT('Origin',(127.2,-110.000085840771,-15.9));
#1077=CARTESIAN_POINT('',(127.2,-110.000085840771,16.2));
#1078=CARTESIAN_POINT('',(127.2,-110.000085840771,-15.9));
#1079=CARTESIAN_POINT('',(117.95,-110.000085840771,16.2));
#1080=CARTESIAN_POINT('Origin',(127.2,-99.6449809314238,-15.9));
#1081=CARTESIAN_POINT('',(127.2,-99.6449809314238,-15.9));
#1082=CARTESIAN_POINT('',(127.2,-102.498076211353,16.2));
#1083=CARTESIAN_POINT('',(127.2,-102.498076211353,-15.9));
#1084=CARTESIAN_POINT('',(127.2,-109.462085840771,16.2));
#1085=CARTESIAN_POINT('Origin',(102.6,-80.8,-15.9));
#1086=CARTESIAN_POINT('',(102.6,-80.8,-15.9));
#1087=CARTESIAN_POINT('',(102.6,-99.2,-15.9));
#1088=CARTESIAN_POINT('Origin',(115.95,-80.8,-15.9));
#1089=CARTESIAN_POINT('',(115.95,-80.8,-15.9));
#1090=CARTESIAN_POINT('Origin',(115.95,-79.9,-15.9));
#1091=CARTESIAN_POINT('',(115.95,-79.9,-15.9));
#1092=CARTESIAN_POINT('Origin',(120.95,-79.9,-15.9));
#1093=CARTESIAN_POINT('',(120.95,-79.9,-15.9));
#1094=CARTESIAN_POINT('Origin',(120.95,-83.5,-15.9));
#1095=CARTESIAN_POINT('',(120.95,-83.5,-15.9));
#1096=CARTESIAN_POINT('Origin',(123.619366173097,-83.5,-15.9));
#1097=CARTESIAN_POINT('',(123.619366173097,-83.5,-15.9));
#1098=CARTESIAN_POINT('Origin',(132.5,-90.0000000000001,-15.9));
#1099=CARTESIAN_POINT('',(127.2,-80.3550190685762,-15.9));
#1100=CARTESIAN_POINT('Origin',(127.2,-78.0019237886467,-15.9));
#1101=CARTESIAN_POINT('',(127.2,-77.6300945020462,16.2));
#1102=CARTESIAN_POINT('',(127.2,-84.042504814709,16.2));
#1103=CARTESIAN_POINT('',(127.2,-77.6300945020462,0.100000000000001));
#1104=CARTESIAN_POINT('Origin',(108.7,-90.0830858407714,16.2));
#1105=CARTESIAN_POINT('',(92.2,-102.498076211353,16.2));
#1106=CARTESIAN_POINT('',(117.95,-102.498076211353,16.2));
#1107=CARTESIAN_POINT('',(92.2,-77.5584542338967,16.2));
#1108=CARTESIAN_POINT('',(92.2,-96.2905810260623,16.2));
#1109=CARTESIAN_POINT('',(97.6950839353331,-77.5584542338967,16.2));
#1110=CARTESIAN_POINT('',(100.45,-77.5584542338967,16.2));
#1111=CARTESIAN_POINT('',(97.6950839353331,-77.6300945020462,16.2));
#1112=CARTESIAN_POINT('',(97.6950839353331,-83.820770037334,16.2));
#1113=CARTESIAN_POINT('',(103.197541967667,-77.6300945020462,16.2));
#1114=CARTESIAN_POINT('Origin',(97.6950839353331,-77.6300945020462,16.1));
#1115=CARTESIAN_POINT('',(97.6950839353331,-77.6300945020462,16.1));
#1116=CARTESIAN_POINT('Origin',(97.6950839353331,-77.5584542338967,16.1));
#1117=CARTESIAN_POINT('',(97.6950839353331,-77.5584542338967,16.1));
#1118=CARTESIAN_POINT('Origin',(92.2,-77.5584542338967,16.1));
#1119=CARTESIAN_POINT('',(92.2,-77.5584542338967,16.1));
#1120=CARTESIAN_POINT('Origin',(92.2,-102.498076211353,16.1));
#1121=CARTESIAN_POINT('',(92.2,-102.498076211353,16.1));
#1122=CARTESIAN_POINT('Origin',(127.2,-102.498076211353,-15.9));
#1123=CARTESIAN_POINT('Origin',(99.7,-79.75,-15.9));
#1124=CARTESIAN_POINT('',(98.95,-79.75,-15.9));
#1125=CARTESIAN_POINT('Origin',(99.7,-100.25,-15.9));
#1126=CARTESIAN_POINT('',(98.95,-100.25,-15.9));
#1127=CARTESIAN_POINT('Origin',(124.2,-79.75,-15.9));
#1128=CARTESIAN_POINT('',(123.45,-79.75,-15.9));
#1129=CARTESIAN_POINT('Origin',(124.2,-100.25,-15.9));
#1130=CARTESIAN_POINT('',(123.45,-100.25,-15.9));
#1131=CARTESIAN_POINT('Origin',(132.5,-90.0000000000001,-15.9));
#1132=CARTESIAN_POINT('',(123.619366173097,-96.5,-15.9));
#1133=CARTESIAN_POINT('Origin',(120.95,-96.5,-15.9));
#1134=CARTESIAN_POINT('',(120.95,-96.5,-15.9));
#1135=CARTESIAN_POINT('Origin',(120.95,-100.1,-15.9));
#1136=CARTESIAN_POINT('',(120.95,-100.1,-15.9));
#1137=CARTESIAN_POINT('Origin',(115.95,-100.1,-15.9));
#1138=CARTESIAN_POINT('',(115.95,-100.1,-15.9));
#1139=CARTESIAN_POINT('Origin',(115.95,-99.2,-15.9));
#1140=CARTESIAN_POINT('',(115.95,-99.2,-15.9));
#1141=CARTESIAN_POINT('Origin',(102.6,-99.2,-15.9));
#1142=UNCERTAINTY_MEASURE_WITH_UNIT(LENGTH_MEASURE(0.01),#1146,
'DISTANCE_ACCURACY_VALUE',
'Maximum model space distance between geometric entities at asserted c
onnectivities');
#1143=UNCERTAINTY_MEASURE_WITH_UNIT(LENGTH_MEASURE(0.01),#1146,
'DISTANCE_ACCURACY_VALUE',
'Maximum model space distance between geometric entities at asserted c
onnectivities');
#1144=(
GEOMETRIC_REPRESENTATION_CONTEXT(3)
GLOBAL_UNCERTAINTY_ASSIGNED_CONTEXT((#1142))
GLOBAL_UNIT_ASSIGNED_CONTEXT((#1146,#1148,#1149))
REPRESENTATION_CONTEXT('','3D')
);
#1145=(
GEOMETRIC_REPRESENTATION_CONTEXT(3)
GLOBAL_UNCERTAINTY_ASSIGNED_CONTEXT((#1143))
GLOBAL_UNIT_ASSIGNED_CONTEXT((#1146,#1148,#1149))
REPRESENTATION_CONTEXT('','3D')
);
#1146=(
LENGTH_UNIT()
NAMED_UNIT(*)
SI_UNIT(.MILLI.,.METRE.)
);
#1147=(
LENGTH_UNIT()
NAMED_UNIT(*)
SI_UNIT($,.METRE.)
);
#1148=(
NAMED_UNIT(*)
PLANE_ANGLE_UNIT()
SI_UNIT($,.RADIAN.)
);
#1149=(
NAMED_UNIT(*)
SI_UNIT($,.STERADIAN.)
SOLID_ANGLE_UNIT()
);
#1150=SHAPE_DEFINITION_REPRESENTATION(#1151,#1152);
#1151=PRODUCT_DEFINITION_SHAPE('',$,#1154);
#1152=SHAPE_REPRESENTATION('',(#710),#1144);
#1153=PRODUCT_DEFINITION_CONTEXT('part definition',#1158,'design');
#1154=PRODUCT_DEFINITION('ServoMountJ4','ServoMountJ4',#1155,#1153);
#1155=PRODUCT_DEFINITION_FORMATION('',$,#1160);
#1156=PRODUCT_RELATED_PRODUCT_CATEGORY('ServoMountJ4','ServoMountJ4',(#1160));
#1157=APPLICATION_PROTOCOL_DEFINITION('international standard',
'automotive_design',2009,#1158);
#1158=APPLICATION_CONTEXT(
'Core Data for Automotive Mechanical Design Process');
#1159=PRODUCT_CONTEXT('part definition',#1158,'mechanical');
#1160=PRODUCT('ServoMountJ4','ServoMountJ4',$,(#1159));
#1161=PRESENTATION_STYLE_ASSIGNMENT((#1162));
#1162=SURFACE_STYLE_USAGE(.BOTH.,#1163);
#1163=SURFACE_SIDE_STYLE('',(#1164));
#1164=SURFACE_STYLE_FILL_AREA(#1165);
#1165=FILL_AREA_STYLE('Steel - Satin',(#1166));
#1166=FILL_AREA_STYLE_COLOUR('Steel - Satin',#1167);
#1167=COLOUR_RGB('Steel - Satin',0.627450980392157,0.627450980392157,0.627450980392157);
ENDSEC;
END-ISO-10303-21;
