ISO-10303-21;
HEADER;
/* Generated by software containing ST-Developer
 * from STEP Tools, Inc. (www.steptools.com) 
 */

FILE_DESCRIPTION(
/* description */ (''),
/* implementation_level */ '2;1');

FILE_NAME(
/* name */ 'ShoulderCover.step',
/* time_stamp */ '2026-08-05T16:39:07-05:00',
/* author */ (''),
/* organization */ (''),
/* preprocessor_version */ 'ST-DEVELOPER v20.1',
/* originating_system */ 'Autodesk Translation Framework v15.8.0.0',
/* authorisation */ '');

FILE_SCHEMA (('AUTOMOTIVE_DESIGN { 1 0 10303 214 3 1 1 }'));
ENDSEC;

DATA;
#10=MECHANICAL_DESIGN_GEOMETRIC_PRESENTATION_REPRESENTATION('',(#13),#524);
#11=SHAPE_REPRESENTATION_RELATIONSHIP('SRR','None',#531,#12);
#12=ADVANCED_BREP_SHAPE_REPRESENTATION('',(#14),#523);
#13=STYLED_ITEM('',(#540),#14);
#14=MANIFOLD_SOLID_BREP('ShoulCOVER',#300);
#15=FACE_BOUND('',#61,.T.);
#16=FACE_BOUND('',#62,.T.);
#17=FACE_BOUND('',#63,.T.);
#18=FACE_BOUND('',#64,.T.);
#19=FACE_BOUND('',#65,.T.);
#20=FACE_BOUND('',#66,.T.);
#21=FACE_BOUND('',#68,.T.);
#22=FACE_BOUND('',#69,.T.);
#23=FACE_BOUND('',#70,.T.);
#24=FACE_BOUND('',#71,.T.);
#25=FACE_BOUND('',#72,.T.);
#26=FACE_BOUND('',#73,.T.);
#27=PLANE('',#332);
#28=PLANE('',#333);
#29=PLANE('',#337);
#30=PLANE('',#347);
#31=PLANE('',#348);
#32=FACE_OUTER_BOUND('',#47,.T.);
#33=FACE_OUTER_BOUND('',#48,.T.);
#34=FACE_OUTER_BOUND('',#49,.T.);
#35=FACE_OUTER_BOUND('',#50,.T.);
#36=FACE_OUTER_BOUND('',#51,.T.);
#37=FACE_OUTER_BOUND('',#52,.T.);
#38=FACE_OUTER_BOUND('',#53,.T.);
#39=FACE_OUTER_BOUND('',#54,.T.);
#40=FACE_OUTER_BOUND('',#55,.T.);
#41=FACE_OUTER_BOUND('',#56,.T.);
#42=FACE_OUTER_BOUND('',#57,.T.);
#43=FACE_OUTER_BOUND('',#58,.T.);
#44=FACE_OUTER_BOUND('',#59,.T.);
#45=FACE_OUTER_BOUND('',#60,.T.);
#46=FACE_OUTER_BOUND('',#67,.T.);
#47=EDGE_LOOP('',(#197,#198,#199,#200));
#48=EDGE_LOOP('',(#201,#202,#203,#204));
#49=EDGE_LOOP('',(#205,#206,#207,#208));
#50=EDGE_LOOP('',(#209,#210,#211,#212));
#51=EDGE_LOOP('',(#213,#214,#215,#216));
#52=EDGE_LOOP('',(#217,#218,#219,#220));
#53=EDGE_LOOP('',(#221,#222,#223,#224));
#54=EDGE_LOOP('',(#225,#226,#227,#228));
#55=EDGE_LOOP('',(#229,#230,#231,#232));
#56=EDGE_LOOP('',(#233,#234,#235,#236));
#57=EDGE_LOOP('',(#237,#238,#239,#240));
#58=EDGE_LOOP('',(#241,#242,#243,#244));
#59=EDGE_LOOP('',(#245,#246,#247,#248));
#60=EDGE_LOOP('',(#249,#250,#251,#252,#253,#254,#255));
#61=EDGE_LOOP('',(#256));
#62=EDGE_LOOP('',(#257));
#63=EDGE_LOOP('',(#258));
#64=EDGE_LOOP('',(#259));
#65=EDGE_LOOP('',(#260));
#66=EDGE_LOOP('',(#261));
#67=EDGE_LOOP('',(#262,#263,#264,#265,#266,#267,#268));
#68=EDGE_LOOP('',(#269));
#69=EDGE_LOOP('',(#270));
#70=EDGE_LOOP('',(#271));
#71=EDGE_LOOP('',(#272));
#72=EDGE_LOOP('',(#273));
#73=EDGE_LOOP('',(#274));
#74=LINE('',#445,#93);
#75=LINE('',#451,#94);
#76=LINE('',#457,#95);
#77=LINE('',#463,#96);
#78=LINE('',#469,#97);
#79=LINE('',#475,#98);
#80=LINE('',#480,#99);
#81=LINE('',#482,#100);
#82=LINE('',#484,#101);
#83=LINE('',#485,#102);
#84=LINE('',#488,#103);
#85=LINE('',#490,#104);
#86=LINE('',#491,#105);
#87=LINE('',#497,#106);
#88=LINE('',#500,#107);
#89=LINE('',#502,#108);
#90=LINE('',#503,#109);
#91=LINE('',#509,#110);
#92=LINE('',#515,#111);
#93=VECTOR('',#355,1.99999999999999);
#94=VECTOR('',#362,2.);
#95=VECTOR('',#369,1.99999999999999);
#96=VECTOR('',#376,2.00000000000001);
#97=VECTOR('',#383,2.);
#98=VECTOR('',#390,2.);
#99=VECTOR('',#395,10.);
#100=VECTOR('',#396,10.);
#101=VECTOR('',#397,10.);
#102=VECTOR('',#398,10.);
#103=VECTOR('',#401,10.);
#104=VECTOR('',#402,10.);
#105=VECTOR('',#403,10.);
#106=VECTOR('',#410,10.);
#107=VECTOR('',#413,10.);
#108=VECTOR('',#414,10.);
#109=VECTOR('',#415,10.);
#110=VECTOR('',#422,10.);
#111=VECTOR('',#429,10.);
#112=CIRCLE('',#315,1.99999999999999);
#113=CIRCLE('',#316,1.99999999999999);
#114=CIRCLE('',#318,2.);
#115=CIRCLE('',#319,2.);
#116=CIRCLE('',#321,1.99999999999999);
#117=CIRCLE('',#322,1.99999999999999);
#118=CIRCLE('',#324,2.00000000000001);
#119=CIRCLE('',#325,2.00000000000001);
#120=CIRCLE('',#327,2.);
#121=CIRCLE('',#328,2.);
#122=CIRCLE('',#330,2.);
#123=CIRCLE('',#331,2.);
#124=CIRCLE('',#335,75.);
#125=CIRCLE('',#336,75.);
#126=CIRCLE('',#339,24.9999999999999);
#127=CIRCLE('',#340,24.9999999999999);
#128=CIRCLE('',#342,27.5);
#129=CIRCLE('',#343,27.5);
#130=CIRCLE('',#345,25.);
#131=CIRCLE('',#346,25.);
#132=VERTEX_POINT('',#442);
#133=VERTEX_POINT('',#444);
#134=VERTEX_POINT('',#448);
#135=VERTEX_POINT('',#450);
#136=VERTEX_POINT('',#454);
#137=VERTEX_POINT('',#456);
#138=VERTEX_POINT('',#460);
#139=VERTEX_POINT('',#462);
#140=VERTEX_POINT('',#466);
#141=VERTEX_POINT('',#468);
#142=VERTEX_POINT('',#472);
#143=VERTEX_POINT('',#474);
#144=VERTEX_POINT('',#478);
#145=VERTEX_POINT('',#479);
#146=VERTEX_POINT('',#481);
#147=VERTEX_POINT('',#483);
#148=VERTEX_POINT('',#487);
#149=VERTEX_POINT('',#489);
#150=VERTEX_POINT('',#493);
#151=VERTEX_POINT('',#495);
#152=VERTEX_POINT('',#499);
#153=VERTEX_POINT('',#501);
#154=VERTEX_POINT('',#505);
#155=VERTEX_POINT('',#507);
#156=VERTEX_POINT('',#511);
#157=VERTEX_POINT('',#513);
#158=EDGE_CURVE('',#132,#132,#112,.T.);
#159=EDGE_CURVE('',#132,#133,#74,.T.);
#160=EDGE_CURVE('',#133,#133,#113,.T.);
#161=EDGE_CURVE('',#134,#134,#114,.T.);
#162=EDGE_CURVE('',#134,#135,#75,.T.);
#163=EDGE_CURVE('',#135,#135,#115,.T.);
#164=EDGE_CURVE('',#136,#136,#116,.T.);
#165=EDGE_CURVE('',#136,#137,#76,.T.);
#166=EDGE_CURVE('',#137,#137,#117,.T.);
#167=EDGE_CURVE('',#138,#138,#118,.T.);
#168=EDGE_CURVE('',#138,#139,#77,.T.);
#169=EDGE_CURVE('',#139,#139,#119,.T.);
#170=EDGE_CURVE('',#140,#140,#120,.T.);
#171=EDGE_CURVE('',#140,#141,#78,.T.);
#172=EDGE_CURVE('',#141,#141,#121,.T.);
#173=EDGE_CURVE('',#142,#142,#122,.T.);
#174=EDGE_CURVE('',#142,#143,#79,.T.);
#175=EDGE_CURVE('',#143,#143,#123,.T.);
#176=EDGE_CURVE('',#144,#145,#80,.T.);
#177=EDGE_CURVE('',#145,#146,#81,.T.);
#178=EDGE_CURVE('',#147,#146,#82,.T.);
#179=EDGE_CURVE('',#144,#147,#83,.T.);
#180=EDGE_CURVE('',#144,#148,#84,.T.);
#181=EDGE_CURVE('',#149,#147,#85,.T.);
#182=EDGE_CURVE('',#148,#149,#86,.T.);
#183=EDGE_CURVE('',#150,#148,#124,.T.);
#184=EDGE_CURVE('',#151,#149,#125,.T.);
#185=EDGE_CURVE('',#150,#151,#87,.T.);
#186=EDGE_CURVE('',#152,#150,#88,.T.);
#187=EDGE_CURVE('',#153,#151,#89,.T.);
#188=EDGE_CURVE('',#152,#153,#90,.T.);
#189=EDGE_CURVE('',#154,#152,#126,.T.);
#190=EDGE_CURVE('',#155,#153,#127,.T.);
#191=EDGE_CURVE('',#154,#155,#91,.T.);
#192=EDGE_CURVE('',#156,#154,#128,.T.);
#193=EDGE_CURVE('',#157,#155,#129,.T.);
#194=EDGE_CURVE('',#156,#157,#92,.T.);
#195=EDGE_CURVE('',#145,#156,#130,.T.);
#196=EDGE_CURVE('',#146,#157,#131,.T.);
#197=ORIENTED_EDGE('',*,*,#158,.F.);
#198=ORIENTED_EDGE('',*,*,#159,.T.);
#199=ORIENTED_EDGE('',*,*,#160,.F.);
#200=ORIENTED_EDGE('',*,*,#159,.F.);
#201=ORIENTED_EDGE('',*,*,#161,.F.);
#202=ORIENTED_EDGE('',*,*,#162,.T.);
#203=ORIENTED_EDGE('',*,*,#163,.F.);
#204=ORIENTED_EDGE('',*,*,#162,.F.);
#205=ORIENTED_EDGE('',*,*,#164,.F.);
#206=ORIENTED_EDGE('',*,*,#165,.T.);
#207=ORIENTED_EDGE('',*,*,#166,.F.);
#208=ORIENTED_EDGE('',*,*,#165,.F.);
#209=ORIENTED_EDGE('',*,*,#167,.F.);
#210=ORIENTED_EDGE('',*,*,#168,.T.);
#211=ORIENTED_EDGE('',*,*,#169,.F.);
#212=ORIENTED_EDGE('',*,*,#168,.F.);
#213=ORIENTED_EDGE('',*,*,#170,.F.);
#214=ORIENTED_EDGE('',*,*,#171,.T.);
#215=ORIENTED_EDGE('',*,*,#172,.F.);
#216=ORIENTED_EDGE('',*,*,#171,.F.);
#217=ORIENTED_EDGE('',*,*,#173,.F.);
#218=ORIENTED_EDGE('',*,*,#174,.T.);
#219=ORIENTED_EDGE('',*,*,#175,.F.);
#220=ORIENTED_EDGE('',*,*,#174,.F.);
#221=ORIENTED_EDGE('',*,*,#176,.T.);
#222=ORIENTED_EDGE('',*,*,#177,.T.);
#223=ORIENTED_EDGE('',*,*,#178,.F.);
#224=ORIENTED_EDGE('',*,*,#179,.F.);
#225=ORIENTED_EDGE('',*,*,#180,.F.);
#226=ORIENTED_EDGE('',*,*,#179,.T.);
#227=ORIENTED_EDGE('',*,*,#181,.F.);
#228=ORIENTED_EDGE('',*,*,#182,.F.);
#229=ORIENTED_EDGE('',*,*,#183,.T.);
#230=ORIENTED_EDGE('',*,*,#182,.T.);
#231=ORIENTED_EDGE('',*,*,#184,.F.);
#232=ORIENTED_EDGE('',*,*,#185,.F.);
#233=ORIENTED_EDGE('',*,*,#186,.T.);
#234=ORIENTED_EDGE('',*,*,#185,.T.);
#235=ORIENTED_EDGE('',*,*,#187,.F.);
#236=ORIENTED_EDGE('',*,*,#188,.F.);
#237=ORIENTED_EDGE('',*,*,#189,.T.);
#238=ORIENTED_EDGE('',*,*,#188,.T.);
#239=ORIENTED_EDGE('',*,*,#190,.F.);
#240=ORIENTED_EDGE('',*,*,#191,.F.);
#241=ORIENTED_EDGE('',*,*,#192,.T.);
#242=ORIENTED_EDGE('',*,*,#191,.T.);
#243=ORIENTED_EDGE('',*,*,#193,.F.);
#244=ORIENTED_EDGE('',*,*,#194,.F.);
#245=ORIENTED_EDGE('',*,*,#195,.T.);
#246=ORIENTED_EDGE('',*,*,#194,.T.);
#247=ORIENTED_EDGE('',*,*,#196,.F.);
#248=ORIENTED_EDGE('',*,*,#177,.F.);
#249=ORIENTED_EDGE('',*,*,#178,.T.);
#250=ORIENTED_EDGE('',*,*,#196,.T.);
#251=ORIENTED_EDGE('',*,*,#193,.T.);
#252=ORIENTED_EDGE('',*,*,#190,.T.);
#253=ORIENTED_EDGE('',*,*,#187,.T.);
#254=ORIENTED_EDGE('',*,*,#184,.T.);
#255=ORIENTED_EDGE('',*,*,#181,.T.);
#256=ORIENTED_EDGE('',*,*,#173,.T.);
#257=ORIENTED_EDGE('',*,*,#170,.T.);
#258=ORIENTED_EDGE('',*,*,#167,.T.);
#259=ORIENTED_EDGE('',*,*,#164,.T.);
#260=ORIENTED_EDGE('',*,*,#161,.T.);
#261=ORIENTED_EDGE('',*,*,#158,.T.);
#262=ORIENTED_EDGE('',*,*,#176,.F.);
#263=ORIENTED_EDGE('',*,*,#180,.T.);
#264=ORIENTED_EDGE('',*,*,#183,.F.);
#265=ORIENTED_EDGE('',*,*,#186,.F.);
#266=ORIENTED_EDGE('',*,*,#189,.F.);
#267=ORIENTED_EDGE('',*,*,#192,.F.);
#268=ORIENTED_EDGE('',*,*,#195,.F.);
#269=ORIENTED_EDGE('',*,*,#175,.T.);
#270=ORIENTED_EDGE('',*,*,#172,.T.);
#271=ORIENTED_EDGE('',*,*,#169,.T.);
#272=ORIENTED_EDGE('',*,*,#166,.T.);
#273=ORIENTED_EDGE('',*,*,#163,.T.);
#274=ORIENTED_EDGE('',*,*,#160,.T.);
#275=CYLINDRICAL_SURFACE('',#314,1.99999999999999);
#276=CYLINDRICAL_SURFACE('',#317,2.);
#277=CYLINDRICAL_SURFACE('',#320,1.99999999999999);
#278=CYLINDRICAL_SURFACE('',#323,2.00000000000001);
#279=CYLINDRICAL_SURFACE('',#326,2.);
#280=CYLINDRICAL_SURFACE('',#329,2.);
#281=CYLINDRICAL_SURFACE('',#334,75.);
#282=CYLINDRICAL_SURFACE('',#338,24.9999999999999);
#283=CYLINDRICAL_SURFACE('',#341,27.5);
#284=CYLINDRICAL_SURFACE('',#344,25.);
#285=ADVANCED_FACE('',(#32),#275,.F.);
#286=ADVANCED_FACE('',(#33),#276,.F.);
#287=ADVANCED_FACE('',(#34),#277,.F.);
#288=ADVANCED_FACE('',(#35),#278,.F.);
#289=ADVANCED_FACE('',(#36),#279,.F.);
#290=ADVANCED_FACE('',(#37),#280,.F.);
#291=ADVANCED_FACE('',(#38),#27,.T.);
#292=ADVANCED_FACE('',(#39),#28,.T.);
#293=ADVANCED_FACE('',(#40),#281,.T.);
#294=ADVANCED_FACE('',(#41),#29,.T.);
#295=ADVANCED_FACE('',(#42),#282,.T.);
#296=ADVANCED_FACE('',(#43),#283,.T.);
#297=ADVANCED_FACE('',(#44),#284,.T.);
#298=ADVANCED_FACE('',(#45,#15,#16,#17,#18,#19,#20),#30,.T.);
#299=ADVANCED_FACE('',(#46,#21,#22,#23,#24,#25,#26),#31,.F.);
#300=CLOSED_SHELL('',(#285,#286,#287,#288,#289,#290,#291,#292,#293,#294,
#295,#296,#297,#298,#299));
#301=DERIVED_UNIT_ELEMENT(#303,1.);
#302=DERIVED_UNIT_ELEMENT(#526,-3.);
#303=(
MASS_UNIT()
NAMED_UNIT(*)
SI_UNIT(.KILO.,.GRAM.)
);
#304=DERIVED_UNIT((#301,#302));
#305=MEASURE_REPRESENTATION_ITEM('density measure',
POSITIVE_RATIO_MEASURE(7850.),#304);
#306=PROPERTY_DEFINITION_REPRESENTATION(#311,#308);
#307=PROPERTY_DEFINITION_REPRESENTATION(#312,#309);
#308=REPRESENTATION('material name',(#310),#523);
#309=REPRESENTATION('density',(#305),#523);
#310=DESCRIPTIVE_REPRESENTATION_ITEM('Steel','Steel');
#311=PROPERTY_DEFINITION('material property','material name',#533);
#312=PROPERTY_DEFINITION('material property','density of part',#533);
#313=AXIS2_PLACEMENT_3D('',#440,#349,#350);
#314=AXIS2_PLACEMENT_3D('',#441,#351,#352);
#315=AXIS2_PLACEMENT_3D('',#443,#353,#354);
#316=AXIS2_PLACEMENT_3D('',#446,#356,#357);
#317=AXIS2_PLACEMENT_3D('',#447,#358,#359);
#318=AXIS2_PLACEMENT_3D('',#449,#360,#361);
#319=AXIS2_PLACEMENT_3D('',#452,#363,#364);
#320=AXIS2_PLACEMENT_3D('',#453,#365,#366);
#321=AXIS2_PLACEMENT_3D('',#455,#367,#368);
#322=AXIS2_PLACEMENT_3D('',#458,#370,#371);
#323=AXIS2_PLACEMENT_3D('',#459,#372,#373);
#324=AXIS2_PLACEMENT_3D('',#461,#374,#375);
#325=AXIS2_PLACEMENT_3D('',#464,#377,#378);
#326=AXIS2_PLACEMENT_3D('',#465,#379,#380);
#327=AXIS2_PLACEMENT_3D('',#467,#381,#382);
#328=AXIS2_PLACEMENT_3D('',#470,#384,#385);
#329=AXIS2_PLACEMENT_3D('',#471,#386,#387);
#330=AXIS2_PLACEMENT_3D('',#473,#388,#389);
#331=AXIS2_PLACEMENT_3D('',#476,#391,#392);
#332=AXIS2_PLACEMENT_3D('',#477,#393,#394);
#333=AXIS2_PLACEMENT_3D('',#486,#399,#400);
#334=AXIS2_PLACEMENT_3D('',#492,#404,#405);
#335=AXIS2_PLACEMENT_3D('',#494,#406,#407);
#336=AXIS2_PLACEMENT_3D('',#496,#408,#409);
#337=AXIS2_PLACEMENT_3D('',#498,#411,#412);
#338=AXIS2_PLACEMENT_3D('',#504,#416,#417);
#339=AXIS2_PLACEMENT_3D('',#506,#418,#419);
#340=AXIS2_PLACEMENT_3D('',#508,#420,#421);
#341=AXIS2_PLACEMENT_3D('',#510,#423,#424);
#342=AXIS2_PLACEMENT_3D('',#512,#425,#426);
#343=AXIS2_PLACEMENT_3D('',#514,#427,#428);
#344=AXIS2_PLACEMENT_3D('',#516,#430,#431);
#345=AXIS2_PLACEMENT_3D('',#517,#432,#433);
#346=AXIS2_PLACEMENT_3D('',#518,#434,#435);
#347=AXIS2_PLACEMENT_3D('',#519,#436,#437);
#348=AXIS2_PLACEMENT_3D('',#520,#438,#439);
#349=DIRECTION('axis',(0.,0.,1.));
#350=DIRECTION('refdir',(1.,0.,0.));
#351=DIRECTION('center_axis',(0.,-1.,0.));
#352=DIRECTION('ref_axis',(-1.,0.,0.));
#353=DIRECTION('center_axis',(0.,-1.,0.));
#354=DIRECTION('ref_axis',(-1.,0.,0.));
#355=DIRECTION('',(0.,-1.,0.));
#356=DIRECTION('center_axis',(0.,1.,0.));
#357=DIRECTION('ref_axis',(-1.,0.,0.));
#358=DIRECTION('center_axis',(0.,-1.,0.));
#359=DIRECTION('ref_axis',(-1.,0.,0.));
#360=DIRECTION('center_axis',(0.,-1.,0.));
#361=DIRECTION('ref_axis',(-1.,0.,0.));
#362=DIRECTION('',(0.,-1.,0.));
#363=DIRECTION('center_axis',(0.,1.,0.));
#364=DIRECTION('ref_axis',(-1.,0.,0.));
#365=DIRECTION('center_axis',(0.,-1.,0.));
#366=DIRECTION('ref_axis',(-1.,0.,0.));
#367=DIRECTION('center_axis',(0.,-1.,0.));
#368=DIRECTION('ref_axis',(-1.,0.,0.));
#369=DIRECTION('',(0.,-1.,0.));
#370=DIRECTION('center_axis',(0.,1.,0.));
#371=DIRECTION('ref_axis',(-1.,0.,0.));
#372=DIRECTION('center_axis',(0.,-1.,0.));
#373=DIRECTION('ref_axis',(-1.,0.,0.));
#374=DIRECTION('center_axis',(0.,-1.,0.));
#375=DIRECTION('ref_axis',(-1.,0.,0.));
#376=DIRECTION('',(0.,-1.,0.));
#377=DIRECTION('center_axis',(0.,1.,0.));
#378=DIRECTION('ref_axis',(-1.,0.,0.));
#379=DIRECTION('center_axis',(0.,-1.,0.));
#380=DIRECTION('ref_axis',(-1.,0.,0.));
#381=DIRECTION('center_axis',(0.,-1.,0.));
#382=DIRECTION('ref_axis',(-1.,0.,0.));
#383=DIRECTION('',(0.,-1.,0.));
#384=DIRECTION('center_axis',(0.,1.,0.));
#385=DIRECTION('ref_axis',(-1.,0.,0.));
#386=DIRECTION('center_axis',(0.,-1.,0.));
#387=DIRECTION('ref_axis',(-1.,0.,0.));
#388=DIRECTION('center_axis',(0.,-1.,0.));
#389=DIRECTION('ref_axis',(-1.,0.,0.));
#390=DIRECTION('',(0.,-1.,0.));
#391=DIRECTION('center_axis',(0.,1.,0.));
#392=DIRECTION('ref_axis',(-1.,0.,0.));
#393=DIRECTION('center_axis',(-0.224044299649291,0.,0.974578961292854));
#394=DIRECTION('ref_axis',(0.974578961292854,0.,0.224044299649291));
#395=DIRECTION('',(0.974578961292854,0.,0.224044299649291));
#396=DIRECTION('',(0.,1.,0.));
#397=DIRECTION('',(0.974578961292854,0.,0.224044299649291));
#398=DIRECTION('',(0.,1.,0.));
#399=DIRECTION('center_axis',(-0.984183323973695,0.,-0.177152998315265));
#400=DIRECTION('ref_axis',(-0.177152998315265,0.,0.984183323973695));
#401=DIRECTION('',(0.177152998315265,0.,-0.984183323973695));
#402=DIRECTION('',(-0.177152998315265,0.,0.984183323973695));
#403=DIRECTION('',(0.,1.,0.));
#404=DIRECTION('center_axis',(0.,1.,0.));
#405=DIRECTION('ref_axis',(0.224044299649275,0.,-0.974578961292858));
#406=DIRECTION('center_axis',(0.,1.,0.));
#407=DIRECTION('ref_axis',(0.224044299649275,0.,-0.974578961292858));
#408=DIRECTION('center_axis',(0.,1.,0.));
#409=DIRECTION('ref_axis',(0.224044299649275,0.,-0.974578961292858));
#410=DIRECTION('',(0.,1.,0.));
#411=DIRECTION('center_axis',(0.224044299649276,0.,-0.974578961292858));
#412=DIRECTION('ref_axis',(-0.974578961292858,0.,-0.224044299649276));
#413=DIRECTION('',(-0.974578961292858,0.,-0.224044299649276));
#414=DIRECTION('',(-0.974578961292858,0.,-0.224044299649276));
#415=DIRECTION('',(0.,1.,0.));
#416=DIRECTION('center_axis',(0.,1.,0.));
#417=DIRECTION('ref_axis',(0.763982816495136,0.,-0.64523658924472));
#418=DIRECTION('center_axis',(0.,1.,0.));
#419=DIRECTION('ref_axis',(0.763982816495136,0.,-0.64523658924472));
#420=DIRECTION('center_axis',(0.,1.,0.));
#421=DIRECTION('ref_axis',(0.763982816495136,0.,-0.64523658924472));
#422=DIRECTION('',(0.,1.,0.));
#423=DIRECTION('center_axis',(0.,1.,0.));
#424=DIRECTION('ref_axis',(-0.224044299649276,0.,0.974578961292858));
#425=DIRECTION('center_axis',(0.,1.,0.));
#426=DIRECTION('ref_axis',(-0.224044299649276,0.,0.974578961292858));
#427=DIRECTION('center_axis',(0.,1.,0.));
#428=DIRECTION('ref_axis',(-0.224044299649276,0.,0.974578961292858));
#429=DIRECTION('',(0.,1.,0.));
#430=DIRECTION('center_axis',(0.,1.,0.));
#431=DIRECTION('ref_axis',(-0.224044299649275,0.,0.974578961292858));
#432=DIRECTION('center_axis',(0.,1.,0.));
#433=DIRECTION('ref_axis',(-0.224044299649275,0.,0.974578961292858));
#434=DIRECTION('center_axis',(0.,1.,0.));
#435=DIRECTION('ref_axis',(-0.224044299649275,0.,0.974578961292858));
#436=DIRECTION('center_axis',(0.,1.,0.));
#437=DIRECTION('ref_axis',(-1.,0.,0.));
#438=DIRECTION('center_axis',(0.,1.,0.));
#439=DIRECTION('ref_axis',(-1.,0.,0.));
#440=CARTESIAN_POINT('',(0.,0.,0.));
#441=CARTESIAN_POINT('Origin',(125.279252461431,31.,147.702122300227));
#442=CARTESIAN_POINT('',(127.279252461431,31.,147.702122300227));
#443=CARTESIAN_POINT('Origin',(125.279252461431,31.,147.702122300227));
#444=CARTESIAN_POINT('',(127.279252461431,28.,147.702122300227));
#445=CARTESIAN_POINT('',(127.279252461431,31.,147.702122300227));
#446=CARTESIAN_POINT('Origin',(125.279252461431,28.,147.702122300227));
#447=CARTESIAN_POINT('Origin',(46.5948986998295,31.,190.152473386447));
#448=CARTESIAN_POINT('',(48.5948986998295,31.,190.152473386447));
#449=CARTESIAN_POINT('Origin',(46.5948986998295,31.,190.152473386447));
#450=CARTESIAN_POINT('',(48.5948986998295,28.,190.152473386447));
#451=CARTESIAN_POINT('',(48.5948986998295,31.,190.152473386447));
#452=CARTESIAN_POINT('Origin',(46.5948986998295,28.,190.152473386447));
#453=CARTESIAN_POINT('Origin',(91.1689888161811,31.,139.860571812502));
#454=CARTESIAN_POINT('',(93.168988816181,31.,139.860571812502));
#455=CARTESIAN_POINT('Origin',(91.1689888161811,31.,139.860571812502));
#456=CARTESIAN_POINT('',(93.168988816181,28.,139.860571812502));
#457=CARTESIAN_POINT('',(93.168988816181,31.,139.860571812502));
#458=CARTESIAN_POINT('Origin',(91.1689888161811,28.,139.860571812502));
#459=CARTESIAN_POINT('Origin',(114.808152553035,31.,205.867146436161));
#460=CARTESIAN_POINT('',(116.808152553035,31.,205.867146436161));
#461=CARTESIAN_POINT('Origin',(114.808152553035,31.,205.867146436161));
#462=CARTESIAN_POINT('',(116.808152553035,28.,205.867146436161));
#463=CARTESIAN_POINT('',(116.808152553035,31.,205.867146436161));
#464=CARTESIAN_POINT('Origin',(114.808152553035,28.,205.867146436161));
#465=CARTESIAN_POINT('Origin',(80.7051623450795,31.,197.994023874172));
#466=CARTESIAN_POINT('',(82.7051623450795,31.,197.994023874172));
#467=CARTESIAN_POINT('Origin',(80.7051623450795,31.,197.994023874172));
#468=CARTESIAN_POINT('',(82.7051623450795,28.,197.994023874172));
#469=CARTESIAN_POINT('',(82.7051623450795,31.,197.994023874172));
#470=CARTESIAN_POINT('Origin',(80.7051623450795,28.,197.994023874172));
#471=CARTESIAN_POINT('Origin',(57.058725170931,31.,132.019021324777));
#472=CARTESIAN_POINT('',(59.058725170931,31.,132.019021324777));
#473=CARTESIAN_POINT('Origin',(57.058725170931,31.,132.019021324777));
#474=CARTESIAN_POINT('',(59.058725170931,28.,132.019021324777));
#475=CARTESIAN_POINT('',(59.058725170931,31.,132.019021324777));
#476=CARTESIAN_POINT('Origin',(57.058725170931,28.,132.019021324777));
#477=CARTESIAN_POINT('Origin',(14.594475012018,28.,185.87420279041));
#478=CARTESIAN_POINT('',(14.594475012018,28.,185.87420279041));
#479=CARTESIAN_POINT('',(113.714746665024,28.,208.660793436779));
#480=CARTESIAN_POINT('',(13.260823317592,28.,185.567611870925));
#481=CARTESIAN_POINT('',(113.714746665024,31.,208.660793436779));
#482=CARTESIAN_POINT('',(113.714746665024,28.,208.660793436779));
#483=CARTESIAN_POINT('',(14.594475012018,31.,185.87420279041));
#484=CARTESIAN_POINT('',(13.260823317592,31.,185.567611870925));
#485=CARTESIAN_POINT('',(14.594475012018,28.,185.87420279041));
#486=CARTESIAN_POINT('Origin',(26.1190269321192,28.,121.848914345403));
#487=CARTESIAN_POINT('',(26.1190269321192,28.,121.848914345403));
#488=CARTESIAN_POINT('',(14.594475012018,28.,185.87420279041));
#489=CARTESIAN_POINT('',(26.1190269321192,31.,121.848914345403));
#490=CARTESIAN_POINT('',(14.594475012018,31.,185.87420279041));
#491=CARTESIAN_POINT('',(26.1190269321192,28.,121.848914345403));
#492=CARTESIAN_POINT('Origin',(11.0203803210993,28.,195.313401483853));
#493=CARTESIAN_POINT('',(27.823702794795,28.,122.219979386889));
#494=CARTESIAN_POINT('Origin',(11.0203803210993,28.,195.313401483853));
#495=CARTESIAN_POINT('',(27.823702794795,31.,122.219979386889));
#496=CARTESIAN_POINT('Origin',(11.0203803210993,31.,195.313401483853));
#497=CARTESIAN_POINT('',(27.823702794795,28.,122.219979386889));
#498=CARTESIAN_POINT('Origin',(128.277626142227,28.,145.313160952743));
#499=CARTESIAN_POINT('',(128.277626142227,28.,145.313160952743));
#500=CARTESIAN_POINT('',(128.277626142227,28.,145.313160952743));
#501=CARTESIAN_POINT('',(128.277626142227,31.,145.313160952743));
#502=CARTESIAN_POINT('',(128.277626142227,31.,145.313160952743));
#503=CARTESIAN_POINT('',(128.277626142227,28.,145.313160952743));
#504=CARTESIAN_POINT('Origin',(122.676518650995,28.,169.677634985064));
#505=CARTESIAN_POINT('',(141.776089063373,28.,153.546720253946));
#506=CARTESIAN_POINT('Origin',(122.676518650995,28.,169.677634985064));
#507=CARTESIAN_POINT('',(141.776089063373,31.,153.546720253946));
#508=CARTESIAN_POINT('Origin',(122.676518650995,31.,169.677634985064));
#509=CARTESIAN_POINT('',(141.776089063373,28.,153.546720253946));
#510=CARTESIAN_POINT('Origin',(135.614870823018,28.,180.3476416895));
#511=CARTESIAN_POINT('',(129.453652582663,28.,207.148563125054));
#512=CARTESIAN_POINT('Origin',(135.614870823018,28.,180.3476416895));
#513=CARTESIAN_POINT('',(129.453652582663,31.,207.148563125054));
#514=CARTESIAN_POINT('Origin',(135.614870823018,31.,180.3476416895));
#515=CARTESIAN_POINT('',(129.453652582663,28.,207.148563125054));
#516=CARTESIAN_POINT('Origin',(119.315854156256,28.,184.296319404457));
#517=CARTESIAN_POINT('Origin',(119.315854156256,28.,184.296319404457));
#518=CARTESIAN_POINT('Origin',(119.315854156256,31.,184.296319404457));
#519=CARTESIAN_POINT('Origin',(88.8546729175179,31.,165.57261687493));
#520=CARTESIAN_POINT('Origin',(88.8546729175179,28.,165.57261687493));
#521=UNCERTAINTY_MEASURE_WITH_UNIT(LENGTH_MEASURE(0.01),#525,
'DISTANCE_ACCURACY_VALUE',
'Maximum model space distance between geometric entities at asserted c
onnectivities');
#522=UNCERTAINTY_MEASURE_WITH_UNIT(LENGTH_MEASURE(0.01),#525,
'DISTANCE_ACCURACY_VALUE',
'Maximum model space distance between geometric entities at asserted c
onnectivities');
#523=(
GEOMETRIC_REPRESENTATION_CONTEXT(3)
GLOBAL_UNCERTAINTY_ASSIGNED_CONTEXT((#521))
GLOBAL_UNIT_ASSIGNED_CONTEXT((#525,#527,#528))
REPRESENTATION_CONTEXT('','3D')
);
#524=(
GEOMETRIC_REPRESENTATION_CONTEXT(3)
GLOBAL_UNCERTAINTY_ASSIGNED_CONTEXT((#522))
GLOBAL_UNIT_ASSIGNED_CONTEXT((#525,#527,#528))
REPRESENTATION_CONTEXT('','3D')
);
#525=(
LENGTH_UNIT()
NAMED_UNIT(*)
SI_UNIT(.MILLI.,.METRE.)
);
#526=(
LENGTH_UNIT()
NAMED_UNIT(*)
SI_UNIT($,.METRE.)
);
#527=(
NAMED_UNIT(*)
PLANE_ANGLE_UNIT()
SI_UNIT($,.RADIAN.)
);
#528=(
NAMED_UNIT(*)
SI_UNIT($,.STERADIAN.)
SOLID_ANGLE_UNIT()
);
#529=SHAPE_DEFINITION_REPRESENTATION(#530,#531);
#530=PRODUCT_DEFINITION_SHAPE('',$,#533);
#531=SHAPE_REPRESENTATION('',(#313),#523);
#532=PRODUCT_DEFINITION_CONTEXT('part definition',#537,'design');
#533=PRODUCT_DEFINITION('ShoulderCover','ShoulderCover',#534,#532);
#534=PRODUCT_DEFINITION_FORMATION('',$,#539);
#535=PRODUCT_RELATED_PRODUCT_CATEGORY('ShoulderCover','ShoulderCover',(#539));
#536=APPLICATION_PROTOCOL_DEFINITION('international standard',
'automotive_design',2009,#537);
#537=APPLICATION_CONTEXT(
'Core Data for Automotive Mechanical Design Process');
#538=PRODUCT_CONTEXT('part definition',#537,'mechanical');
#539=PRODUCT('ShoulderCover','ShoulderCover',$,(#538));
#540=PRESENTATION_STYLE_ASSIGNMENT((#541));
#541=SURFACE_STYLE_USAGE(.BOTH.,#542);
#542=SURFACE_SIDE_STYLE('',(#543));
#543=SURFACE_STYLE_FILL_AREA(#544);
#544=FILL_AREA_STYLE('Steel - Satin',(#545));
#545=FILL_AREA_STYLE_COLOUR('Steel - Satin',#546);
#546=COLOUR_RGB('Steel - Satin',0.627450980392157,0.627450980392157,0.627450980392157);
ENDSEC;
END-ISO-10303-21;
