ISO-10303-21;
HEADER;
/* Generated by software containing ST-Developer
 * from STEP Tools, Inc. (www.steptools.com) 
 */

FILE_DESCRIPTION(
/* description */ (''),
/* implementation_level */ '2;1');

FILE_NAME(
/* name */ 'TopBase.step',
/* time_stamp */ '2026-08-05T16:39:28-05:00',
/* author */ (''),
/* organization */ (''),
/* preprocessor_version */ 'ST-DEVELOPER v20.1',
/* originating_system */ 'Autodesk Translation Framework v15.8.0.0',
/* authorisation */ '');

FILE_SCHEMA (('AUTOMOTIVE_DESIGN { 1 0 10303 214 3 1 1 }'));
ENDSEC;

DATA;
#10=MECHANICAL_DESIGN_GEOMETRIC_PRESENTATION_REPRESENTATION('',(#13),#1204);
#11=SHAPE_REPRESENTATION_RELATIONSHIP('SRR','None',#1211,#12);
#12=ADVANCED_BREP_SHAPE_REPRESENTATION('',(#14),#1203);
#13=STYLED_ITEM('',(#1220),#14);
#14=MANIFOLD_SOLID_BREP('Base',#704);
#15=FACE_BOUND('',#97,.T.);
#16=FACE_BOUND('',#100,.T.);
#17=FACE_BOUND('',#105,.T.);
#18=FACE_BOUND('',#108,.T.);
#19=FACE_BOUND('',#109,.T.);
#20=FACE_BOUND('',#110,.T.);
#21=FACE_BOUND('',#111,.T.);
#22=FACE_BOUND('',#112,.T.);
#23=FACE_BOUND('',#113,.T.);
#24=FACE_BOUND('',#120,.T.);
#25=FACE_BOUND('',#127,.T.);
#26=FACE_BOUND('',#131,.T.);
#27=FACE_BOUND('',#133,.T.);
#28=FACE_BOUND('',#136,.T.);
#29=FACE_BOUND('',#137,.T.);
#30=FACE_BOUND('',#138,.T.);
#31=FACE_BOUND('',#139,.T.);
#32=FACE_BOUND('',#141,.T.);
#33=FACE_BOUND('',#146,.T.);
#34=PLANE('',#721);
#35=PLANE('',#722);
#36=PLANE('',#728);
#37=PLANE('',#731);
#38=PLANE('',#734);
#39=PLANE('',#735);
#40=PLANE('',#739);
#41=PLANE('',#746);
#42=PLANE('',#747);
#43=PLANE('',#748);
#44=PLANE('',#752);
#45=PLANE('',#764);
#46=PLANE('',#772);
#47=PLANE('',#773);
#48=PLANE('',#775);
#49=PLANE('',#776);
#50=PLANE('',#781);
#51=PLANE('',#782);
#52=PLANE('',#785);
#53=PLANE('',#790);
#54=PLANE('',#791);
#55=FACE_OUTER_BOUND('',#94,.T.);
#56=FACE_OUTER_BOUND('',#95,.T.);
#57=FACE_OUTER_BOUND('',#96,.T.);
#58=FACE_OUTER_BOUND('',#98,.T.);
#59=FACE_OUTER_BOUND('',#99,.T.);
#60=FACE_OUTER_BOUND('',#101,.T.);
#61=FACE_OUTER_BOUND('',#102,.T.);
#62=FACE_OUTER_BOUND('',#103,.T.);
#63=FACE_OUTER_BOUND('',#104,.T.);
#64=FACE_OUTER_BOUND('',#106,.T.);
#65=FACE_OUTER_BOUND('',#107,.T.);
#66=FACE_OUTER_BOUND('',#114,.T.);
#67=FACE_OUTER_BOUND('',#115,.T.);
#68=FACE_OUTER_BOUND('',#116,.T.);
#69=FACE_OUTER_BOUND('',#117,.T.);
#70=FACE_OUTER_BOUND('',#118,.T.);
#71=FACE_OUTER_BOUND('',#119,.T.);
#72=FACE_OUTER_BOUND('',#121,.T.);
#73=FACE_OUTER_BOUND('',#122,.T.);
#74=FACE_OUTER_BOUND('',#123,.T.);
#75=FACE_OUTER_BOUND('',#124,.T.);
#76=FACE_OUTER_BOUND('',#125,.T.);
#77=FACE_OUTER_BOUND('',#126,.T.);
#78=FACE_OUTER_BOUND('',#128,.T.);
#79=FACE_OUTER_BOUND('',#129,.T.);
#80=FACE_OUTER_BOUND('',#130,.T.);
#81=FACE_OUTER_BOUND('',#132,.T.);
#82=FACE_OUTER_BOUND('',#134,.T.);
#83=FACE_OUTER_BOUND('',#135,.T.);
#84=FACE_OUTER_BOUND('',#140,.T.);
#85=FACE_OUTER_BOUND('',#142,.T.);
#86=FACE_OUTER_BOUND('',#143,.T.);
#87=FACE_OUTER_BOUND('',#144,.T.);
#88=FACE_OUTER_BOUND('',#145,.T.);
#89=FACE_OUTER_BOUND('',#147,.T.);
#90=FACE_OUTER_BOUND('',#148,.T.);
#91=FACE_OUTER_BOUND('',#149,.T.);
#92=FACE_OUTER_BOUND('',#150,.T.);
#93=FACE_OUTER_BOUND('',#151,.T.);
#94=EDGE_LOOP('',(#459,#460,#461,#462));
#95=EDGE_LOOP('',(#463,#464,#465,#466));
#96=EDGE_LOOP('',(#467,#468,#469,#470,#471,#472));
#97=EDGE_LOOP('',(#473));
#98=EDGE_LOOP('',(#474,#475,#476,#477));
#99=EDGE_LOOP('',(#478,#479,#480,#481,#482,#483));
#100=EDGE_LOOP('',(#484));
#101=EDGE_LOOP('',(#485,#486,#487,#488));
#102=EDGE_LOOP('',(#489,#490,#491,#492));
#103=EDGE_LOOP('',(#493,#494,#495,#496));
#104=EDGE_LOOP('',(#497,#498,#499,#500,#501,#502));
#105=EDGE_LOOP('',(#503));
#106=EDGE_LOOP('',(#504,#505,#506,#507));
#107=EDGE_LOOP('',(#508,#509,#510,#511,#512,#513));
#108=EDGE_LOOP('',(#514,#515,#516,#517));
#109=EDGE_LOOP('',(#518,#519,#520,#521));
#110=EDGE_LOOP('',(#522));
#111=EDGE_LOOP('',(#523));
#112=EDGE_LOOP('',(#524));
#113=EDGE_LOOP('',(#525));
#114=EDGE_LOOP('',(#526,#527,#528,#529));
#115=EDGE_LOOP('',(#530,#531,#532,#533));
#116=EDGE_LOOP('',(#534,#535,#536,#537));
#117=EDGE_LOOP('',(#538,#539,#540,#541));
#118=EDGE_LOOP('',(#542,#543,#544,#545));
#119=EDGE_LOOP('',(#546,#547,#548,#549,#550,#551));
#120=EDGE_LOOP('',(#552));
#121=EDGE_LOOP('',(#553,#554,#555,#556));
#122=EDGE_LOOP('',(#557,#558,#559,#560));
#123=EDGE_LOOP('',(#561,#562,#563,#564));
#124=EDGE_LOOP('',(#565,#566,#567,#568));
#125=EDGE_LOOP('',(#569,#570,#571,#572));
#126=EDGE_LOOP('',(#573));
#127=EDGE_LOOP('',(#574));
#128=EDGE_LOOP('',(#575,#576,#577,#578));
#129=EDGE_LOOP('',(#579,#580,#581,#582));
#130=EDGE_LOOP('',(#583));
#131=EDGE_LOOP('',(#584));
#132=EDGE_LOOP('',(#585));
#133=EDGE_LOOP('',(#586));
#134=EDGE_LOOP('',(#587,#588,#589,#590,#591));
#135=EDGE_LOOP('',(#592));
#136=EDGE_LOOP('',(#593));
#137=EDGE_LOOP('',(#594));
#138=EDGE_LOOP('',(#595));
#139=EDGE_LOOP('',(#596));
#140=EDGE_LOOP('',(#597,#598,#599,#600,#601,#602,#603,#604));
#141=EDGE_LOOP('',(#605));
#142=EDGE_LOOP('',(#606,#607,#608,#609));
#143=EDGE_LOOP('',(#610,#611,#612,#613));
#144=EDGE_LOOP('',(#614,#615,#616,#617));
#145=EDGE_LOOP('',(#618,#619,#620,#621,#622,#623,#624,#625));
#146=EDGE_LOOP('',(#626));
#147=EDGE_LOOP('',(#627,#628,#629,#630));
#148=EDGE_LOOP('',(#631,#632,#633,#634));
#149=EDGE_LOOP('',(#635,#636,#637,#638));
#150=EDGE_LOOP('',(#639,#640,#641,#642));
#151=EDGE_LOOP('',(#643,#644,#645,#646));
#152=LINE('',#1011,#209);
#153=LINE('',#1014,#210);
#154=LINE('',#1017,#211);
#155=LINE('',#1019,#212);
#156=LINE('',#1020,#213);
#157=LINE('',#1023,#214);
#158=LINE('',#1027,#215);
#159=LINE('',#1028,#216);
#160=LINE('',#1036,#217);
#161=LINE('',#1039,#218);
#162=LINE('',#1042,#219);
#163=LINE('',#1046,#220);
#164=LINE('',#1048,#221);
#165=LINE('',#1049,#222);
#166=LINE('',#1054,#223);
#167=LINE('',#1055,#224);
#168=LINE('',#1058,#225);
#169=LINE('',#1061,#226);
#170=LINE('',#1064,#227);
#171=LINE('',#1065,#228);
#172=LINE('',#1067,#229);
#173=LINE('',#1068,#230);
#174=LINE('',#1074,#231);
#175=LINE('',#1081,#232);
#176=LINE('',#1083,#233);
#177=LINE('',#1085,#234);
#178=LINE('',#1086,#235);
#179=LINE('',#1088,#236);
#180=LINE('',#1090,#237);
#181=LINE('',#1091,#238);
#182=LINE('',#1102,#239);
#183=LINE('',#1104,#240);
#184=LINE('',#1108,#241);
#185=LINE('',#1110,#242);
#186=LINE('',#1114,#243);
#187=LINE('',#1118,#244);
#188=LINE('',#1122,#245);
#189=LINE('',#1126,#246);
#190=LINE('',#1132,#247);
#191=LINE('',#1141,#248);
#192=LINE('',#1147,#249);
#193=LINE('',#1152,#250);
#194=LINE('',#1158,#251);
#195=LINE('',#1160,#252);
#196=LINE('',#1164,#253);
#197=LINE('',#1167,#254);
#198=LINE('',#1172,#255);
#199=LINE('',#1173,#256);
#200=LINE('',#1176,#257);
#201=LINE('',#1177,#258);
#202=LINE('',#1180,#259);
#203=LINE('',#1184,#260);
#204=LINE('',#1188,#261);
#205=LINE('',#1193,#262);
#206=LINE('',#1195,#263);
#207=LINE('',#1197,#264);
#208=LINE('',#1199,#265);
#209=VECTOR('',#800,10.);
#210=VECTOR('',#803,10.);
#211=VECTOR('',#806,10.);
#212=VECTOR('',#807,10.);
#213=VECTOR('',#808,10.);
#214=VECTOR('',#811,10.);
#215=VECTOR('',#814,10.);
#216=VECTOR('',#815,10.);
#217=VECTOR('',#822,10.);
#218=VECTOR('',#825,10.);
#219=VECTOR('',#828,10.);
#220=VECTOR('',#831,10.);
#221=VECTOR('',#832,10.);
#222=VECTOR('',#833,10.);
#223=VECTOR('',#838,10.);
#224=VECTOR('',#839,10.);
#225=VECTOR('',#842,10.);
#226=VECTOR('',#845,10.);
#227=VECTOR('',#848,10.);
#228=VECTOR('',#849,10.);
#229=VECTOR('',#852,10.);
#230=VECTOR('',#853,10.);
#231=VECTOR('',#860,10.);
#232=VECTOR('',#867,10.);
#233=VECTOR('',#868,10.);
#234=VECTOR('',#869,10.);
#235=VECTOR('',#870,10.);
#236=VECTOR('',#871,10.);
#237=VECTOR('',#872,10.);
#238=VECTOR('',#873,10.);
#239=VECTOR('',#886,10.);
#240=VECTOR('',#889,10.);
#241=VECTOR('',#894,31.);
#242=VECTOR('',#897,31.);
#243=VECTOR('',#902,2.5);
#244=VECTOR('',#907,2.5);
#245=VECTOR('',#912,2.5);
#246=VECTOR('',#917,2.5);
#247=VECTOR('',#924,72.5000016018748);
#248=VECTOR('',#935,45.7930128056159);
#249=VECTOR('',#942,59.0338889840216);
#250=VECTOR('',#951,75.);
#251=VECTOR('',#958,10.);
#252=VECTOR('',#959,10.);
#253=VECTOR('',#962,10.);
#254=VECTOR('',#965,10.);
#255=VECTOR('',#970,10.);
#256=VECTOR('',#971,10.);
#257=VECTOR('',#974,10.);
#258=VECTOR('',#975,10.);
#259=VECTOR('',#978,10.);
#260=VECTOR('',#983,10.);
#261=VECTOR('',#986,10.);
#262=VECTOR('',#993,10.);
#263=VECTOR('',#996,10.);
#264=VECTOR('',#999,10.);
#265=VECTOR('',#1002,12.5);
#266=CIRCLE('',#719,20.);
#267=CIRCLE('',#720,20.);
#268=CIRCLE('',#723,20.);
#269=CIRCLE('',#724,31.);
#270=CIRCLE('',#726,20.);
#271=CIRCLE('',#727,20.);
#272=CIRCLE('',#729,20.);
#273=CIRCLE('',#730,31.);
#274=CIRCLE('',#733,20.);
#275=CIRCLE('',#736,31.);
#276=CIRCLE('',#738,20.);
#277=CIRCLE('',#740,75.);
#278=CIRCLE('',#741,75.);
#279=CIRCLE('',#742,2.5);
#280=CIRCLE('',#743,2.5);
#281=CIRCLE('',#744,2.5);
#282=CIRCLE('',#745,2.5);
#283=CIRCLE('',#750,31.);
#284=CIRCLE('',#754,2.5);
#285=CIRCLE('',#756,2.5);
#286=CIRCLE('',#758,2.5);
#287=CIRCLE('',#760,2.5);
#288=CIRCLE('',#762,72.5000016018748);
#289=CIRCLE('',#763,72.5000016018748);
#290=CIRCLE('',#765,75.);
#291=CIRCLE('',#767,45.7930128056159);
#292=CIRCLE('',#768,45.7930128056159);
#293=CIRCLE('',#770,59.0338889840216);
#294=CIRCLE('',#771,59.0338889840216);
#295=CIRCLE('',#777,7.5);
#296=CIRCLE('',#778,7.5);
#297=CIRCLE('',#779,19.);
#298=CIRCLE('',#780,12.5);
#299=CIRCLE('',#784,7.5);
#300=CIRCLE('',#786,19.);
#301=CIRCLE('',#787,7.5);
#302=CIRCLE('',#788,12.5);
#303=VERTEX_POINT('',#1007);
#304=VERTEX_POINT('',#1008);
#305=VERTEX_POINT('',#1010);
#306=VERTEX_POINT('',#1012);
#307=VERTEX_POINT('',#1016);
#308=VERTEX_POINT('',#1018);
#309=VERTEX_POINT('',#1022);
#310=VERTEX_POINT('',#1024);
#311=VERTEX_POINT('',#1026);
#312=VERTEX_POINT('',#1029);
#313=VERTEX_POINT('',#1032);
#314=VERTEX_POINT('',#1033);
#315=VERTEX_POINT('',#1035);
#316=VERTEX_POINT('',#1037);
#317=VERTEX_POINT('',#1041);
#318=VERTEX_POINT('',#1043);
#319=VERTEX_POINT('',#1045);
#320=VERTEX_POINT('',#1047);
#321=VERTEX_POINT('',#1050);
#322=VERTEX_POINT('',#1053);
#323=VERTEX_POINT('',#1057);
#324=VERTEX_POINT('',#1059);
#325=VERTEX_POINT('',#1063);
#326=VERTEX_POINT('',#1069);
#327=VERTEX_POINT('',#1072);
#328=VERTEX_POINT('',#1076);
#329=VERTEX_POINT('',#1077);
#330=VERTEX_POINT('',#1080);
#331=VERTEX_POINT('',#1082);
#332=VERTEX_POINT('',#1084);
#333=VERTEX_POINT('',#1087);
#334=VERTEX_POINT('',#1089);
#335=VERTEX_POINT('',#1092);
#336=VERTEX_POINT('',#1094);
#337=VERTEX_POINT('',#1096);
#338=VERTEX_POINT('',#1098);
#339=VERTEX_POINT('',#1106);
#340=VERTEX_POINT('',#1113);
#341=VERTEX_POINT('',#1117);
#342=VERTEX_POINT('',#1121);
#343=VERTEX_POINT('',#1125);
#344=VERTEX_POINT('',#1129);
#345=VERTEX_POINT('',#1131);
#346=VERTEX_POINT('',#1135);
#347=VERTEX_POINT('',#1138);
#348=VERTEX_POINT('',#1140);
#349=VERTEX_POINT('',#1144);
#350=VERTEX_POINT('',#1146);
#351=VERTEX_POINT('',#1155);
#352=VERTEX_POINT('',#1156);
#353=VERTEX_POINT('',#1159);
#354=VERTEX_POINT('',#1161);
#355=VERTEX_POINT('',#1163);
#356=VERTEX_POINT('',#1165);
#357=VERTEX_POINT('',#1168);
#358=VERTEX_POINT('',#1171);
#359=VERTEX_POINT('',#1175);
#360=VERTEX_POINT('',#1179);
#361=VERTEX_POINT('',#1183);
#362=VERTEX_POINT('',#1185);
#363=VERTEX_POINT('',#1187);
#364=VERTEX_POINT('',#1190);
#365=EDGE_CURVE('',#303,#304,#266,.T.);
#366=EDGE_CURVE('',#304,#305,#152,.T.);
#367=EDGE_CURVE('',#305,#306,#267,.T.);
#368=EDGE_CURVE('',#306,#303,#153,.T.);
#369=EDGE_CURVE('',#306,#307,#154,.T.);
#370=EDGE_CURVE('',#308,#307,#155,.T.);
#371=EDGE_CURVE('',#303,#308,#156,.T.);
#372=EDGE_CURVE('',#309,#305,#157,.T.);
#373=EDGE_CURVE('',#310,#309,#268,.T.);
#374=EDGE_CURVE('',#311,#310,#158,.T.);
#375=EDGE_CURVE('',#307,#311,#159,.T.);
#376=EDGE_CURVE('',#312,#312,#269,.T.);
#377=EDGE_CURVE('',#313,#314,#270,.T.);
#378=EDGE_CURVE('',#314,#315,#160,.T.);
#379=EDGE_CURVE('',#315,#316,#271,.T.);
#380=EDGE_CURVE('',#316,#313,#161,.T.);
#381=EDGE_CURVE('',#317,#315,#162,.T.);
#382=EDGE_CURVE('',#318,#317,#272,.T.);
#383=EDGE_CURVE('',#319,#318,#163,.T.);
#384=EDGE_CURVE('',#320,#319,#164,.T.);
#385=EDGE_CURVE('',#316,#320,#165,.T.);
#386=EDGE_CURVE('',#321,#321,#273,.T.);
#387=EDGE_CURVE('',#314,#322,#166,.T.);
#388=EDGE_CURVE('',#317,#322,#167,.T.);
#389=EDGE_CURVE('',#309,#323,#168,.T.);
#390=EDGE_CURVE('',#323,#324,#274,.T.);
#391=EDGE_CURVE('',#324,#310,#169,.T.);
#392=EDGE_CURVE('',#325,#324,#170,.T.);
#393=EDGE_CURVE('',#311,#325,#171,.T.);
#394=EDGE_CURVE('',#325,#308,#172,.T.);
#395=EDGE_CURVE('',#323,#304,#173,.T.);
#396=EDGE_CURVE('',#326,#326,#275,.T.);
#397=EDGE_CURVE('',#322,#327,#276,.T.);
#398=EDGE_CURVE('',#327,#318,#174,.T.);
#399=EDGE_CURVE('',#328,#329,#277,.T.);
#400=EDGE_CURVE('',#329,#328,#278,.T.);
#401=EDGE_CURVE('',#328,#330,#175,.T.);
#402=EDGE_CURVE('',#330,#331,#176,.T.);
#403=EDGE_CURVE('',#331,#332,#177,.T.);
#404=EDGE_CURVE('',#332,#328,#178,.T.);
#405=EDGE_CURVE('',#333,#320,#179,.T.);
#406=EDGE_CURVE('',#319,#334,#180,.T.);
#407=EDGE_CURVE('',#334,#333,#181,.T.);
#408=EDGE_CURVE('',#335,#335,#279,.T.);
#409=EDGE_CURVE('',#336,#336,#280,.T.);
#410=EDGE_CURVE('',#337,#337,#281,.T.);
#411=EDGE_CURVE('',#338,#338,#282,.T.);
#412=EDGE_CURVE('',#334,#327,#182,.T.);
#413=EDGE_CURVE('',#333,#313,#183,.T.);
#414=EDGE_CURVE('',#339,#339,#283,.T.);
#415=EDGE_CURVE('',#339,#321,#184,.T.);
#416=EDGE_CURVE('',#326,#312,#185,.T.);
#417=EDGE_CURVE('',#335,#340,#186,.T.);
#418=EDGE_CURVE('',#340,#340,#284,.T.);
#419=EDGE_CURVE('',#336,#341,#187,.T.);
#420=EDGE_CURVE('',#341,#341,#285,.T.);
#421=EDGE_CURVE('',#337,#342,#188,.T.);
#422=EDGE_CURVE('',#342,#342,#286,.T.);
#423=EDGE_CURVE('',#338,#343,#189,.T.);
#424=EDGE_CURVE('',#343,#343,#287,.T.);
#425=EDGE_CURVE('',#344,#344,#288,.T.);
#426=EDGE_CURVE('',#344,#345,#190,.T.);
#427=EDGE_CURVE('',#345,#345,#289,.T.);
#428=EDGE_CURVE('',#346,#346,#290,.T.);
#429=EDGE_CURVE('',#347,#347,#291,.T.);
#430=EDGE_CURVE('',#347,#348,#191,.T.);
#431=EDGE_CURVE('',#348,#348,#292,.T.);
#432=EDGE_CURVE('',#349,#349,#293,.T.);
#433=EDGE_CURVE('',#349,#350,#192,.T.);
#434=EDGE_CURVE('',#350,#350,#294,.T.);
#435=EDGE_CURVE('',#329,#346,#193,.T.);
#436=EDGE_CURVE('',#351,#352,#295,.T.);
#437=EDGE_CURVE('',#332,#351,#194,.T.);
#438=EDGE_CURVE('',#353,#331,#195,.T.);
#439=EDGE_CURVE('',#354,#353,#296,.T.);
#440=EDGE_CURVE('',#355,#354,#196,.T.);
#441=EDGE_CURVE('',#356,#355,#297,.T.);
#442=EDGE_CURVE('',#352,#356,#197,.T.);
#443=EDGE_CURVE('',#357,#357,#298,.T.);
#444=EDGE_CURVE('',#330,#358,#198,.T.);
#445=EDGE_CURVE('',#353,#358,#199,.T.);
#446=EDGE_CURVE('',#359,#351,#200,.T.);
#447=EDGE_CURVE('',#328,#359,#201,.T.);
#448=EDGE_CURVE('',#352,#360,#202,.T.);
#449=EDGE_CURVE('',#360,#359,#299,.T.);
#450=EDGE_CURVE('',#361,#360,#203,.T.);
#451=EDGE_CURVE('',#361,#362,#300,.T.);
#452=EDGE_CURVE('',#363,#362,#204,.T.);
#453=EDGE_CURVE('',#358,#363,#301,.T.);
#454=EDGE_CURVE('',#364,#364,#302,.T.);
#455=EDGE_CURVE('',#363,#354,#205,.T.);
#456=EDGE_CURVE('',#355,#362,#206,.T.);
#457=EDGE_CURVE('',#361,#356,#207,.T.);
#458=EDGE_CURVE('',#364,#357,#208,.T.);
#459=ORIENTED_EDGE('',*,*,#365,.T.);
#460=ORIENTED_EDGE('',*,*,#366,.T.);
#461=ORIENTED_EDGE('',*,*,#367,.T.);
#462=ORIENTED_EDGE('',*,*,#368,.T.);
#463=ORIENTED_EDGE('',*,*,#368,.F.);
#464=ORIENTED_EDGE('',*,*,#369,.T.);
#465=ORIENTED_EDGE('',*,*,#370,.F.);
#466=ORIENTED_EDGE('',*,*,#371,.F.);
#467=ORIENTED_EDGE('',*,*,#367,.F.);
#468=ORIENTED_EDGE('',*,*,#372,.F.);
#469=ORIENTED_EDGE('',*,*,#373,.F.);
#470=ORIENTED_EDGE('',*,*,#374,.F.);
#471=ORIENTED_EDGE('',*,*,#375,.F.);
#472=ORIENTED_EDGE('',*,*,#369,.F.);
#473=ORIENTED_EDGE('',*,*,#376,.F.);
#474=ORIENTED_EDGE('',*,*,#377,.T.);
#475=ORIENTED_EDGE('',*,*,#378,.T.);
#476=ORIENTED_EDGE('',*,*,#379,.T.);
#477=ORIENTED_EDGE('',*,*,#380,.T.);
#478=ORIENTED_EDGE('',*,*,#379,.F.);
#479=ORIENTED_EDGE('',*,*,#381,.F.);
#480=ORIENTED_EDGE('',*,*,#382,.F.);
#481=ORIENTED_EDGE('',*,*,#383,.F.);
#482=ORIENTED_EDGE('',*,*,#384,.F.);
#483=ORIENTED_EDGE('',*,*,#385,.F.);
#484=ORIENTED_EDGE('',*,*,#386,.F.);
#485=ORIENTED_EDGE('',*,*,#378,.F.);
#486=ORIENTED_EDGE('',*,*,#387,.T.);
#487=ORIENTED_EDGE('',*,*,#388,.F.);
#488=ORIENTED_EDGE('',*,*,#381,.T.);
#489=ORIENTED_EDGE('',*,*,#373,.T.);
#490=ORIENTED_EDGE('',*,*,#389,.T.);
#491=ORIENTED_EDGE('',*,*,#390,.T.);
#492=ORIENTED_EDGE('',*,*,#391,.T.);
#493=ORIENTED_EDGE('',*,*,#391,.F.);
#494=ORIENTED_EDGE('',*,*,#392,.F.);
#495=ORIENTED_EDGE('',*,*,#393,.F.);
#496=ORIENTED_EDGE('',*,*,#374,.T.);
#497=ORIENTED_EDGE('',*,*,#365,.F.);
#498=ORIENTED_EDGE('',*,*,#371,.T.);
#499=ORIENTED_EDGE('',*,*,#394,.F.);
#500=ORIENTED_EDGE('',*,*,#392,.T.);
#501=ORIENTED_EDGE('',*,*,#390,.F.);
#502=ORIENTED_EDGE('',*,*,#395,.T.);
#503=ORIENTED_EDGE('',*,*,#396,.T.);
#504=ORIENTED_EDGE('',*,*,#382,.T.);
#505=ORIENTED_EDGE('',*,*,#388,.T.);
#506=ORIENTED_EDGE('',*,*,#397,.T.);
#507=ORIENTED_EDGE('',*,*,#398,.T.);
#508=ORIENTED_EDGE('',*,*,#399,.T.);
#509=ORIENTED_EDGE('',*,*,#400,.T.);
#510=ORIENTED_EDGE('',*,*,#401,.T.);
#511=ORIENTED_EDGE('',*,*,#402,.T.);
#512=ORIENTED_EDGE('',*,*,#403,.T.);
#513=ORIENTED_EDGE('',*,*,#404,.T.);
#514=ORIENTED_EDGE('',*,*,#393,.T.);
#515=ORIENTED_EDGE('',*,*,#394,.T.);
#516=ORIENTED_EDGE('',*,*,#370,.T.);
#517=ORIENTED_EDGE('',*,*,#375,.T.);
#518=ORIENTED_EDGE('',*,*,#405,.T.);
#519=ORIENTED_EDGE('',*,*,#384,.T.);
#520=ORIENTED_EDGE('',*,*,#406,.T.);
#521=ORIENTED_EDGE('',*,*,#407,.T.);
#522=ORIENTED_EDGE('',*,*,#408,.T.);
#523=ORIENTED_EDGE('',*,*,#409,.T.);
#524=ORIENTED_EDGE('',*,*,#410,.T.);
#525=ORIENTED_EDGE('',*,*,#411,.T.);
#526=ORIENTED_EDGE('',*,*,#366,.F.);
#527=ORIENTED_EDGE('',*,*,#395,.F.);
#528=ORIENTED_EDGE('',*,*,#389,.F.);
#529=ORIENTED_EDGE('',*,*,#372,.T.);
#530=ORIENTED_EDGE('',*,*,#398,.F.);
#531=ORIENTED_EDGE('',*,*,#412,.F.);
#532=ORIENTED_EDGE('',*,*,#406,.F.);
#533=ORIENTED_EDGE('',*,*,#383,.T.);
#534=ORIENTED_EDGE('',*,*,#380,.F.);
#535=ORIENTED_EDGE('',*,*,#385,.T.);
#536=ORIENTED_EDGE('',*,*,#405,.F.);
#537=ORIENTED_EDGE('',*,*,#413,.T.);
#538=ORIENTED_EDGE('',*,*,#414,.F.);
#539=ORIENTED_EDGE('',*,*,#415,.T.);
#540=ORIENTED_EDGE('',*,*,#386,.T.);
#541=ORIENTED_EDGE('',*,*,#415,.F.);
#542=ORIENTED_EDGE('',*,*,#396,.F.);
#543=ORIENTED_EDGE('',*,*,#416,.T.);
#544=ORIENTED_EDGE('',*,*,#376,.T.);
#545=ORIENTED_EDGE('',*,*,#416,.F.);
#546=ORIENTED_EDGE('',*,*,#377,.F.);
#547=ORIENTED_EDGE('',*,*,#413,.F.);
#548=ORIENTED_EDGE('',*,*,#407,.F.);
#549=ORIENTED_EDGE('',*,*,#412,.T.);
#550=ORIENTED_EDGE('',*,*,#397,.F.);
#551=ORIENTED_EDGE('',*,*,#387,.F.);
#552=ORIENTED_EDGE('',*,*,#414,.T.);
#553=ORIENTED_EDGE('',*,*,#408,.F.);
#554=ORIENTED_EDGE('',*,*,#417,.T.);
#555=ORIENTED_EDGE('',*,*,#418,.T.);
#556=ORIENTED_EDGE('',*,*,#417,.F.);
#557=ORIENTED_EDGE('',*,*,#409,.F.);
#558=ORIENTED_EDGE('',*,*,#419,.T.);
#559=ORIENTED_EDGE('',*,*,#420,.T.);
#560=ORIENTED_EDGE('',*,*,#419,.F.);
#561=ORIENTED_EDGE('',*,*,#410,.F.);
#562=ORIENTED_EDGE('',*,*,#421,.T.);
#563=ORIENTED_EDGE('',*,*,#422,.T.);
#564=ORIENTED_EDGE('',*,*,#421,.F.);
#565=ORIENTED_EDGE('',*,*,#411,.F.);
#566=ORIENTED_EDGE('',*,*,#423,.T.);
#567=ORIENTED_EDGE('',*,*,#424,.T.);
#568=ORIENTED_EDGE('',*,*,#423,.F.);
#569=ORIENTED_EDGE('',*,*,#425,.F.);
#570=ORIENTED_EDGE('',*,*,#426,.T.);
#571=ORIENTED_EDGE('',*,*,#427,.F.);
#572=ORIENTED_EDGE('',*,*,#426,.F.);
#573=ORIENTED_EDGE('',*,*,#428,.T.);
#574=ORIENTED_EDGE('',*,*,#425,.T.);
#575=ORIENTED_EDGE('',*,*,#429,.F.);
#576=ORIENTED_EDGE('',*,*,#430,.T.);
#577=ORIENTED_EDGE('',*,*,#431,.F.);
#578=ORIENTED_EDGE('',*,*,#430,.F.);
#579=ORIENTED_EDGE('',*,*,#432,.F.);
#580=ORIENTED_EDGE('',*,*,#433,.T.);
#581=ORIENTED_EDGE('',*,*,#434,.F.);
#582=ORIENTED_EDGE('',*,*,#433,.F.);
#583=ORIENTED_EDGE('',*,*,#432,.T.);
#584=ORIENTED_EDGE('',*,*,#429,.T.);
#585=ORIENTED_EDGE('',*,*,#427,.T.);
#586=ORIENTED_EDGE('',*,*,#434,.T.);
#587=ORIENTED_EDGE('',*,*,#399,.F.);
#588=ORIENTED_EDGE('',*,*,#400,.F.);
#589=ORIENTED_EDGE('',*,*,#435,.T.);
#590=ORIENTED_EDGE('',*,*,#428,.F.);
#591=ORIENTED_EDGE('',*,*,#435,.F.);
#592=ORIENTED_EDGE('',*,*,#431,.T.);
#593=ORIENTED_EDGE('',*,*,#418,.F.);
#594=ORIENTED_EDGE('',*,*,#420,.F.);
#595=ORIENTED_EDGE('',*,*,#422,.F.);
#596=ORIENTED_EDGE('',*,*,#424,.F.);
#597=ORIENTED_EDGE('',*,*,#436,.F.);
#598=ORIENTED_EDGE('',*,*,#437,.F.);
#599=ORIENTED_EDGE('',*,*,#403,.F.);
#600=ORIENTED_EDGE('',*,*,#438,.F.);
#601=ORIENTED_EDGE('',*,*,#439,.F.);
#602=ORIENTED_EDGE('',*,*,#440,.F.);
#603=ORIENTED_EDGE('',*,*,#441,.F.);
#604=ORIENTED_EDGE('',*,*,#442,.F.);
#605=ORIENTED_EDGE('',*,*,#443,.F.);
#606=ORIENTED_EDGE('',*,*,#438,.T.);
#607=ORIENTED_EDGE('',*,*,#402,.F.);
#608=ORIENTED_EDGE('',*,*,#444,.T.);
#609=ORIENTED_EDGE('',*,*,#445,.F.);
#610=ORIENTED_EDGE('',*,*,#437,.T.);
#611=ORIENTED_EDGE('',*,*,#446,.F.);
#612=ORIENTED_EDGE('',*,*,#447,.F.);
#613=ORIENTED_EDGE('',*,*,#404,.F.);
#614=ORIENTED_EDGE('',*,*,#436,.T.);
#615=ORIENTED_EDGE('',*,*,#448,.T.);
#616=ORIENTED_EDGE('',*,*,#449,.T.);
#617=ORIENTED_EDGE('',*,*,#446,.T.);
#618=ORIENTED_EDGE('',*,*,#449,.F.);
#619=ORIENTED_EDGE('',*,*,#450,.F.);
#620=ORIENTED_EDGE('',*,*,#451,.T.);
#621=ORIENTED_EDGE('',*,*,#452,.F.);
#622=ORIENTED_EDGE('',*,*,#453,.F.);
#623=ORIENTED_EDGE('',*,*,#444,.F.);
#624=ORIENTED_EDGE('',*,*,#401,.F.);
#625=ORIENTED_EDGE('',*,*,#447,.T.);
#626=ORIENTED_EDGE('',*,*,#454,.T.);
#627=ORIENTED_EDGE('',*,*,#439,.T.);
#628=ORIENTED_EDGE('',*,*,#445,.T.);
#629=ORIENTED_EDGE('',*,*,#453,.T.);
#630=ORIENTED_EDGE('',*,*,#455,.T.);
#631=ORIENTED_EDGE('',*,*,#440,.T.);
#632=ORIENTED_EDGE('',*,*,#455,.F.);
#633=ORIENTED_EDGE('',*,*,#452,.T.);
#634=ORIENTED_EDGE('',*,*,#456,.F.);
#635=ORIENTED_EDGE('',*,*,#442,.T.);
#636=ORIENTED_EDGE('',*,*,#457,.F.);
#637=ORIENTED_EDGE('',*,*,#450,.T.);
#638=ORIENTED_EDGE('',*,*,#448,.F.);
#639=ORIENTED_EDGE('',*,*,#454,.F.);
#640=ORIENTED_EDGE('',*,*,#458,.T.);
#641=ORIENTED_EDGE('',*,*,#443,.T.);
#642=ORIENTED_EDGE('',*,*,#458,.F.);
#643=ORIENTED_EDGE('',*,*,#441,.T.);
#644=ORIENTED_EDGE('',*,*,#456,.T.);
#645=ORIENTED_EDGE('',*,*,#451,.F.);
#646=ORIENTED_EDGE('',*,*,#457,.T.);
#647=CYLINDRICAL_SURFACE('',#718,20.);
#648=CYLINDRICAL_SURFACE('',#725,20.);
#649=CYLINDRICAL_SURFACE('',#732,20.);
#650=CYLINDRICAL_SURFACE('',#737,20.);
#651=CYLINDRICAL_SURFACE('',#749,31.);
#652=CYLINDRICAL_SURFACE('',#751,31.);
#653=CYLINDRICAL_SURFACE('',#753,2.5);
#654=CYLINDRICAL_SURFACE('',#755,2.5);
#655=CYLINDRICAL_SURFACE('',#757,2.5);
#656=CYLINDRICAL_SURFACE('',#759,2.5);
#657=CYLINDRICAL_SURFACE('',#761,72.5000016018748);
#658=CYLINDRICAL_SURFACE('',#766,45.7930128056159);
#659=CYLINDRICAL_SURFACE('',#769,59.0338889840216);
#660=CYLINDRICAL_SURFACE('',#774,75.);
#661=CYLINDRICAL_SURFACE('',#783,7.5);
#662=CYLINDRICAL_SURFACE('',#789,7.5);
#663=CYLINDRICAL_SURFACE('',#792,12.5);
#664=CYLINDRICAL_SURFACE('',#793,19.);
#665=ADVANCED_FACE('',(#55),#647,.T.);
#666=ADVANCED_FACE('',(#56),#34,.T.);
#667=ADVANCED_FACE('',(#57,#15),#35,.T.);
#668=ADVANCED_FACE('',(#58),#648,.T.);
#669=ADVANCED_FACE('',(#59,#16),#36,.T.);
#670=ADVANCED_FACE('',(#60),#37,.T.);
#671=ADVANCED_FACE('',(#61),#649,.T.);
#672=ADVANCED_FACE('',(#62),#38,.T.);
#673=ADVANCED_FACE('',(#63,#17),#39,.T.);
#674=ADVANCED_FACE('',(#64),#650,.T.);
#675=ADVANCED_FACE('',(#65,#18,#19,#20,#21,#22,#23),#40,.T.);
#676=ADVANCED_FACE('',(#66),#41,.T.);
#677=ADVANCED_FACE('',(#67),#42,.T.);
#678=ADVANCED_FACE('',(#68),#43,.T.);
#679=ADVANCED_FACE('',(#69),#651,.F.);
#680=ADVANCED_FACE('',(#70),#652,.F.);
#681=ADVANCED_FACE('',(#71,#24),#44,.T.);
#682=ADVANCED_FACE('',(#72),#653,.F.);
#683=ADVANCED_FACE('',(#73),#654,.F.);
#684=ADVANCED_FACE('',(#74),#655,.F.);
#685=ADVANCED_FACE('',(#75),#656,.F.);
#686=ADVANCED_FACE('',(#76),#657,.F.);
#687=ADVANCED_FACE('',(#77,#25),#45,.F.);
#688=ADVANCED_FACE('',(#78),#658,.F.);
#689=ADVANCED_FACE('',(#79),#659,.T.);
#690=ADVANCED_FACE('',(#80,#26),#46,.F.);
#691=ADVANCED_FACE('',(#81,#27),#47,.F.);
#692=ADVANCED_FACE('',(#82),#660,.T.);
#693=ADVANCED_FACE('',(#83,#28,#29,#30,#31),#48,.F.);
#694=ADVANCED_FACE('',(#84,#32),#49,.F.);
#695=ADVANCED_FACE('',(#85),#50,.T.);
#696=ADVANCED_FACE('',(#86),#51,.T.);
#697=ADVANCED_FACE('',(#87),#661,.T.);
#698=ADVANCED_FACE('',(#88,#33),#52,.T.);
#699=ADVANCED_FACE('',(#89),#662,.T.);
#700=ADVANCED_FACE('',(#90),#53,.T.);
#701=ADVANCED_FACE('',(#91),#54,.T.);
#702=ADVANCED_FACE('',(#92),#663,.F.);
#703=ADVANCED_FACE('',(#93),#664,.T.);
#704=CLOSED_SHELL('',(#665,#666,#667,#668,#669,#670,#671,#672,#673,#674,
#675,#676,#677,#678,#679,#680,#681,#682,#683,#684,#685,#686,#687,#688,#689,
#690,#691,#692,#693,#694,#695,#696,#697,#698,#699,#700,#701,#702,#703));
#705=DERIVED_UNIT_ELEMENT(#707,1.);
#706=DERIVED_UNIT_ELEMENT(#1206,-3.);
#707=(
MASS_UNIT()
NAMED_UNIT(*)
SI_UNIT(.KILO.,.GRAM.)
);
#708=DERIVED_UNIT((#705,#706));
#709=MEASURE_REPRESENTATION_ITEM('density measure',
POSITIVE_RATIO_MEASURE(7850.),#708);
#710=PROPERTY_DEFINITION_REPRESENTATION(#715,#712);
#711=PROPERTY_DEFINITION_REPRESENTATION(#716,#713);
#712=REPRESENTATION('material name',(#714),#1203);
#713=REPRESENTATION('density',(#709),#1203);
#714=DESCRIPTIVE_REPRESENTATION_ITEM('Steel','Steel');
#715=PROPERTY_DEFINITION('material property','material name',#1213);
#716=PROPERTY_DEFINITION('material property','density of part',#1213);
#717=AXIS2_PLACEMENT_3D('',#1005,#794,#795);
#718=AXIS2_PLACEMENT_3D('',#1006,#796,#797);
#719=AXIS2_PLACEMENT_3D('',#1009,#798,#799);
#720=AXIS2_PLACEMENT_3D('',#1013,#801,#802);
#721=AXIS2_PLACEMENT_3D('',#1015,#804,#805);
#722=AXIS2_PLACEMENT_3D('',#1021,#809,#810);
#723=AXIS2_PLACEMENT_3D('',#1025,#812,#813);
#724=AXIS2_PLACEMENT_3D('',#1030,#816,#817);
#725=AXIS2_PLACEMENT_3D('',#1031,#818,#819);
#726=AXIS2_PLACEMENT_3D('',#1034,#820,#821);
#727=AXIS2_PLACEMENT_3D('',#1038,#823,#824);
#728=AXIS2_PLACEMENT_3D('',#1040,#826,#827);
#729=AXIS2_PLACEMENT_3D('',#1044,#829,#830);
#730=AXIS2_PLACEMENT_3D('',#1051,#834,#835);
#731=AXIS2_PLACEMENT_3D('',#1052,#836,#837);
#732=AXIS2_PLACEMENT_3D('',#1056,#840,#841);
#733=AXIS2_PLACEMENT_3D('',#1060,#843,#844);
#734=AXIS2_PLACEMENT_3D('',#1062,#846,#847);
#735=AXIS2_PLACEMENT_3D('',#1066,#850,#851);
#736=AXIS2_PLACEMENT_3D('',#1070,#854,#855);
#737=AXIS2_PLACEMENT_3D('',#1071,#856,#857);
#738=AXIS2_PLACEMENT_3D('',#1073,#858,#859);
#739=AXIS2_PLACEMENT_3D('',#1075,#861,#862);
#740=AXIS2_PLACEMENT_3D('',#1078,#863,#864);
#741=AXIS2_PLACEMENT_3D('',#1079,#865,#866);
#742=AXIS2_PLACEMENT_3D('',#1093,#874,#875);
#743=AXIS2_PLACEMENT_3D('',#1095,#876,#877);
#744=AXIS2_PLACEMENT_3D('',#1097,#878,#879);
#745=AXIS2_PLACEMENT_3D('',#1099,#880,#881);
#746=AXIS2_PLACEMENT_3D('',#1100,#882,#883);
#747=AXIS2_PLACEMENT_3D('',#1101,#884,#885);
#748=AXIS2_PLACEMENT_3D('',#1103,#887,#888);
#749=AXIS2_PLACEMENT_3D('',#1105,#890,#891);
#750=AXIS2_PLACEMENT_3D('',#1107,#892,#893);
#751=AXIS2_PLACEMENT_3D('',#1109,#895,#896);
#752=AXIS2_PLACEMENT_3D('',#1111,#898,#899);
#753=AXIS2_PLACEMENT_3D('',#1112,#900,#901);
#754=AXIS2_PLACEMENT_3D('',#1115,#903,#904);
#755=AXIS2_PLACEMENT_3D('',#1116,#905,#906);
#756=AXIS2_PLACEMENT_3D('',#1119,#908,#909);
#757=AXIS2_PLACEMENT_3D('',#1120,#910,#911);
#758=AXIS2_PLACEMENT_3D('',#1123,#913,#914);
#759=AXIS2_PLACEMENT_3D('',#1124,#915,#916);
#760=AXIS2_PLACEMENT_3D('',#1127,#918,#919);
#761=AXIS2_PLACEMENT_3D('',#1128,#920,#921);
#762=AXIS2_PLACEMENT_3D('',#1130,#922,#923);
#763=AXIS2_PLACEMENT_3D('',#1133,#925,#926);
#764=AXIS2_PLACEMENT_3D('',#1134,#927,#928);
#765=AXIS2_PLACEMENT_3D('',#1136,#929,#930);
#766=AXIS2_PLACEMENT_3D('',#1137,#931,#932);
#767=AXIS2_PLACEMENT_3D('',#1139,#933,#934);
#768=AXIS2_PLACEMENT_3D('',#1142,#936,#937);
#769=AXIS2_PLACEMENT_3D('',#1143,#938,#939);
#770=AXIS2_PLACEMENT_3D('',#1145,#940,#941);
#771=AXIS2_PLACEMENT_3D('',#1148,#943,#944);
#772=AXIS2_PLACEMENT_3D('',#1149,#945,#946);
#773=AXIS2_PLACEMENT_3D('',#1150,#947,#948);
#774=AXIS2_PLACEMENT_3D('',#1151,#949,#950);
#775=AXIS2_PLACEMENT_3D('',#1153,#952,#953);
#776=AXIS2_PLACEMENT_3D('',#1154,#954,#955);
#777=AXIS2_PLACEMENT_3D('',#1157,#956,#957);
#778=AXIS2_PLACEMENT_3D('',#1162,#960,#961);
#779=AXIS2_PLACEMENT_3D('',#1166,#963,#964);
#780=AXIS2_PLACEMENT_3D('',#1169,#966,#967);
#781=AXIS2_PLACEMENT_3D('',#1170,#968,#969);
#782=AXIS2_PLACEMENT_3D('',#1174,#972,#973);
#783=AXIS2_PLACEMENT_3D('',#1178,#976,#977);
#784=AXIS2_PLACEMENT_3D('',#1181,#979,#980);
#785=AXIS2_PLACEMENT_3D('',#1182,#981,#982);
#786=AXIS2_PLACEMENT_3D('',#1186,#984,#985);
#787=AXIS2_PLACEMENT_3D('',#1189,#987,#988);
#788=AXIS2_PLACEMENT_3D('',#1191,#989,#990);
#789=AXIS2_PLACEMENT_3D('',#1192,#991,#992);
#790=AXIS2_PLACEMENT_3D('',#1194,#994,#995);
#791=AXIS2_PLACEMENT_3D('',#1196,#997,#998);
#792=AXIS2_PLACEMENT_3D('',#1198,#1000,#1001);
#793=AXIS2_PLACEMENT_3D('',#1200,#1003,#1004);
#794=DIRECTION('axis',(0.,0.,1.));
#795=DIRECTION('refdir',(1.,0.,0.));
#796=DIRECTION('center_axis',(0.,1.,-2.46519032881566E-32));
#797=DIRECTION('ref_axis',(0.707106781186547,0.,0.707106781186547));
#798=DIRECTION('center_axis',(0.,-1.,2.46519032881566E-32));
#799=DIRECTION('ref_axis',(0.707106781186547,0.,0.707106781186547));
#800=DIRECTION('',(0.,-1.,2.46519032881566E-32));
#801=DIRECTION('center_axis',(0.,1.,-2.46519032881566E-32));
#802=DIRECTION('ref_axis',(0.707106781186547,0.,0.707106781186547));
#803=DIRECTION('',(0.,1.,-2.46519032881566E-32));
#804=DIRECTION('center_axis',(1.,0.,0.));
#805=DIRECTION('ref_axis',(0.,1.,-2.46519032881566E-32));
#806=DIRECTION('',(0.,-2.46519032881566E-32,-1.));
#807=DIRECTION('',(0.,-1.,1.22464679914735E-16));
#808=DIRECTION('',(0.,-2.46519032881566E-32,-1.));
#809=DIRECTION('center_axis',(0.,-1.,2.46519032881566E-32));
#810=DIRECTION('ref_axis',(1.,0.,0.));
#811=DIRECTION('',(1.,0.,0.));
#812=DIRECTION('center_axis',(0.,1.,-2.46519032881566E-32));
#813=DIRECTION('ref_axis',(-0.707106781186547,0.,0.707106781186547));
#814=DIRECTION('',(0.,2.46519032881566E-32,1.));
#815=DIRECTION('',(-1.,0.,0.));
#816=DIRECTION('center_axis',(0.,-1.,2.46519032881566E-32));
#817=DIRECTION('ref_axis',(-1.,0.,0.));
#818=DIRECTION('center_axis',(0.,1.,-2.46519032881566E-32));
#819=DIRECTION('ref_axis',(0.707106781186547,0.,0.707106781186547));
#820=DIRECTION('center_axis',(0.,-1.,2.46519032881566E-32));
#821=DIRECTION('ref_axis',(0.707106781186547,0.,0.707106781186547));
#822=DIRECTION('',(0.,-1.,2.46519032881566E-32));
#823=DIRECTION('center_axis',(0.,1.,-2.46519032881566E-32));
#824=DIRECTION('ref_axis',(0.707106781186547,0.,0.707106781186547));
#825=DIRECTION('',(0.,1.,-2.46519032881566E-32));
#826=DIRECTION('center_axis',(0.,-1.,2.46519032881566E-32));
#827=DIRECTION('ref_axis',(1.,0.,0.));
#828=DIRECTION('',(1.,0.,0.));
#829=DIRECTION('center_axis',(0.,1.,-2.46519032881566E-32));
#830=DIRECTION('ref_axis',(-0.707106781186547,0.,0.707106781186547));
#831=DIRECTION('',(0.,2.46519032881566E-32,1.));
#832=DIRECTION('',(-1.,0.,0.));
#833=DIRECTION('',(0.,-2.46519032881566E-32,-1.));
#834=DIRECTION('center_axis',(0.,-1.,2.46519032881566E-32));
#835=DIRECTION('ref_axis',(-1.,0.,0.));
#836=DIRECTION('center_axis',(0.,2.46519032881566E-32,1.));
#837=DIRECTION('ref_axis',(1.,0.,0.));
#838=DIRECTION('',(-1.,0.,0.));
#839=DIRECTION('',(0.,1.,-2.46519032881566E-32));
#840=DIRECTION('center_axis',(0.,-1.,2.46519032881566E-32));
#841=DIRECTION('ref_axis',(-0.707106781186547,0.,0.707106781186547));
#842=DIRECTION('',(0.,1.,-2.46519032881566E-32));
#843=DIRECTION('center_axis',(0.,-1.,2.46519032881566E-32));
#844=DIRECTION('ref_axis',(-0.707106781186547,0.,0.707106781186547));
#845=DIRECTION('',(0.,-1.,2.46519032881566E-32));
#846=DIRECTION('center_axis',(-1.,0.,0.));
#847=DIRECTION('ref_axis',(0.,-1.,2.46519032881566E-32));
#848=DIRECTION('',(0.,2.46519032881566E-32,1.));
#849=DIRECTION('',(0.,1.,-1.22464679914735E-16));
#850=DIRECTION('center_axis',(0.,1.,-2.46519032881566E-32));
#851=DIRECTION('ref_axis',(-1.,0.,0.));
#852=DIRECTION('',(1.,0.,0.));
#853=DIRECTION('',(1.,0.,0.));
#854=DIRECTION('center_axis',(0.,-1.,2.46519032881566E-32));
#855=DIRECTION('ref_axis',(-1.,0.,0.));
#856=DIRECTION('center_axis',(0.,-1.,2.46519032881566E-32));
#857=DIRECTION('ref_axis',(-0.707106781186547,0.,0.707106781186547));
#858=DIRECTION('center_axis',(0.,-1.,2.46519032881566E-32));
#859=DIRECTION('ref_axis',(-0.707106781186547,0.,0.707106781186547));
#860=DIRECTION('',(0.,-1.,2.46519032881566E-32));
#861=DIRECTION('center_axis',(0.,1.22464679914735E-16,1.));
#862=DIRECTION('ref_axis',(-1.,0.,0.));
#863=DIRECTION('center_axis',(0.,1.22464679914735E-16,1.));
#864=DIRECTION('ref_axis',(-1.,0.,0.));
#865=DIRECTION('center_axis',(0.,1.22464679914735E-16,1.));
#866=DIRECTION('ref_axis',(-1.,0.,0.));
#867=DIRECTION('',(-1.,0.,0.));
#868=DIRECTION('',(0.,1.,-1.48116997771521E-31));
#869=DIRECTION('',(1.,4.29870570518541E-64,1.74376219756249E-32));
#870=DIRECTION('',(0.,-1.,4.93038065763132E-32));
#871=DIRECTION('',(0.,-1.,1.22464679914735E-16));
#872=DIRECTION('',(0.,1.,-1.22464679914735E-16));
#873=DIRECTION('',(1.,0.,0.));
#874=DIRECTION('center_axis',(0.,-1.22464679914735E-16,-1.));
#875=DIRECTION('ref_axis',(-1.,0.,0.));
#876=DIRECTION('center_axis',(0.,-1.22464679914735E-16,-1.));
#877=DIRECTION('ref_axis',(-1.,0.,0.));
#878=DIRECTION('center_axis',(0.,-1.22464679914735E-16,-1.));
#879=DIRECTION('ref_axis',(-1.,0.,0.));
#880=DIRECTION('center_axis',(0.,-1.22464679914735E-16,-1.));
#881=DIRECTION('ref_axis',(-1.,0.,0.));
#882=DIRECTION('center_axis',(0.,2.46519032881566E-32,1.));
#883=DIRECTION('ref_axis',(1.,0.,0.));
#884=DIRECTION('center_axis',(-1.,0.,0.));
#885=DIRECTION('ref_axis',(0.,-1.,2.46519032881566E-32));
#886=DIRECTION('',(0.,2.46519032881566E-32,1.));
#887=DIRECTION('center_axis',(1.,0.,0.));
#888=DIRECTION('ref_axis',(0.,1.,-2.46519032881566E-32));
#889=DIRECTION('',(0.,2.46519032881566E-32,1.));
#890=DIRECTION('center_axis',(0.,-1.,2.46519032881566E-32));
#891=DIRECTION('ref_axis',(-1.,0.,0.));
#892=DIRECTION('center_axis',(0.,-1.,2.46519032881566E-32));
#893=DIRECTION('ref_axis',(-1.,0.,0.));
#894=DIRECTION('',(0.,-1.,2.46519032881566E-32));
#895=DIRECTION('center_axis',(0.,-1.,2.46519032881566E-32));
#896=DIRECTION('ref_axis',(-1.,0.,0.));
#897=DIRECTION('',(0.,-1.,2.46519032881566E-32));
#898=DIRECTION('center_axis',(0.,1.,-2.46519032881566E-32));
#899=DIRECTION('ref_axis',(-1.,0.,0.));
#900=DIRECTION('center_axis',(0.,1.23165366794353E-16,1.));
#901=DIRECTION('ref_axis',(-1.,0.,0.));
#902=DIRECTION('',(0.,-1.23165366794353E-16,-1.));
#903=DIRECTION('center_axis',(0.,-1.22464679914735E-16,-1.));
#904=DIRECTION('ref_axis',(-1.,0.,0.));
#905=DIRECTION('center_axis',(0.,1.23165366794353E-16,1.));
#906=DIRECTION('ref_axis',(-1.,0.,0.));
#907=DIRECTION('',(0.,-1.23165366794353E-16,-1.));
#908=DIRECTION('center_axis',(0.,-1.22464679914735E-16,-1.));
#909=DIRECTION('ref_axis',(-1.,0.,0.));
#910=DIRECTION('center_axis',(0.,1.23165366794353E-16,1.));
#911=DIRECTION('ref_axis',(-1.,0.,0.));
#912=DIRECTION('',(0.,-1.23165366794353E-16,-1.));
#913=DIRECTION('center_axis',(0.,-1.22464679914735E-16,-1.));
#914=DIRECTION('ref_axis',(-1.,0.,0.));
#915=DIRECTION('center_axis',(0.,1.23165366794353E-16,1.));
#916=DIRECTION('ref_axis',(-1.,0.,0.));
#917=DIRECTION('',(0.,-1.23165366794353E-16,-1.));
#918=DIRECTION('center_axis',(0.,-1.22464679914735E-16,-1.));
#919=DIRECTION('ref_axis',(-1.,0.,0.));
#920=DIRECTION('center_axis',(0.,-1.22464679914735E-16,-1.));
#921=DIRECTION('ref_axis',(-1.,0.,0.));
#922=DIRECTION('center_axis',(0.,1.22464679914735E-16,1.));
#923=DIRECTION('ref_axis',(-1.,0.,0.));
#924=DIRECTION('',(0.,1.22464679914735E-16,1.));
#925=DIRECTION('center_axis',(0.,-1.22464679914735E-16,-1.));
#926=DIRECTION('ref_axis',(-1.,0.,0.));
#927=DIRECTION('center_axis',(0.,1.22464679914735E-16,1.));
#928=DIRECTION('ref_axis',(-1.,0.,0.));
#929=DIRECTION('center_axis',(0.,-1.22464679914735E-16,-1.));
#930=DIRECTION('ref_axis',(-1.,0.,0.));
#931=DIRECTION('center_axis',(0.,-1.22464679914735E-16,-1.));
#932=DIRECTION('ref_axis',(-1.,0.,0.));
#933=DIRECTION('center_axis',(0.,1.22464679914735E-16,1.));
#934=DIRECTION('ref_axis',(-1.,0.,0.));
#935=DIRECTION('',(0.,1.22464679914735E-16,1.));
#936=DIRECTION('center_axis',(0.,-1.22464679914735E-16,-1.));
#937=DIRECTION('ref_axis',(-1.,0.,0.));
#938=DIRECTION('center_axis',(0.,-1.22464679914735E-16,-1.));
#939=DIRECTION('ref_axis',(-1.,0.,0.));
#940=DIRECTION('center_axis',(0.,-1.22464679914735E-16,-1.));
#941=DIRECTION('ref_axis',(-1.,0.,0.));
#942=DIRECTION('',(0.,1.22464679914735E-16,1.));
#943=DIRECTION('center_axis',(0.,1.22464679914735E-16,1.));
#944=DIRECTION('ref_axis',(-1.,0.,0.));
#945=DIRECTION('center_axis',(0.,1.22464679914735E-16,1.));
#946=DIRECTION('ref_axis',(-1.,0.,0.));
#947=DIRECTION('center_axis',(0.,1.22464679914735E-16,1.));
#948=DIRECTION('ref_axis',(-1.,0.,0.));
#949=DIRECTION('center_axis',(0.,1.22464679914735E-16,1.));
#950=DIRECTION('ref_axis',(-1.,0.,0.));
#951=DIRECTION('',(0.,-1.22464679914735E-16,-1.));
#952=DIRECTION('center_axis',(0.,1.22464679914735E-16,1.));
#953=DIRECTION('ref_axis',(-1.,0.,0.));
#954=DIRECTION('center_axis',(0.,-1.,2.46519032881566E-32));
#955=DIRECTION('ref_axis',(1.,1.3684555315672E-48,5.55111512312578E-17));
#956=DIRECTION('center_axis',(0.,-1.,2.46519032881566E-32));
#957=DIRECTION('ref_axis',(0.707106781186547,0.,0.707106781186547));
#958=DIRECTION('',(0.,2.46519032881566E-32,1.));
#959=DIRECTION('',(0.,-2.46519032881566E-32,-1.));
#960=DIRECTION('center_axis',(0.,-1.,2.46519032881566E-32));
#961=DIRECTION('ref_axis',(-0.707106781186547,0.,0.707106781186547));
#962=DIRECTION('',(-1.,0.,0.));
#963=DIRECTION('center_axis',(0.,-1.,2.46519032881566E-32));
#964=DIRECTION('ref_axis',(1.,0.,5.55111512312578E-17));
#965=DIRECTION('',(-1.,0.,0.));
#966=DIRECTION('center_axis',(0.,1.,-2.46519032881566E-32));
#967=DIRECTION('ref_axis',(1.,0.,5.55111512312578E-17));
#968=DIRECTION('center_axis',(-1.,0.,0.));
#969=DIRECTION('ref_axis',(0.,-1.,1.48116997771521E-31));
#970=DIRECTION('',(0.,0.,1.));
#971=DIRECTION('',(0.,-1.,0.));
#972=DIRECTION('center_axis',(1.,0.,0.));
#973=DIRECTION('ref_axis',(0.,1.,-4.93038065763132E-32));
#974=DIRECTION('',(0.,1.,0.));
#975=DIRECTION('',(0.,0.,1.));
#976=DIRECTION('center_axis',(0.,1.,0.));
#977=DIRECTION('ref_axis',(0.707106781186547,0.,0.707106781186547));
#978=DIRECTION('',(0.,-1.,0.));
#979=DIRECTION('center_axis',(0.,1.,-2.46519032881566E-32));
#980=DIRECTION('ref_axis',(0.707106781186547,0.,0.707106781186547));
#981=DIRECTION('center_axis',(0.,-1.,2.46519032881566E-32));
#982=DIRECTION('ref_axis',(1.,1.3684555315672E-48,5.55111512312578E-17));
#983=DIRECTION('',(1.,0.,0.));
#984=DIRECTION('center_axis',(0.,-1.,2.46519032881566E-32));
#985=DIRECTION('ref_axis',(1.,1.3684555315672E-48,5.55111512312578E-17));
#986=DIRECTION('',(1.,0.,0.));
#987=DIRECTION('center_axis',(0.,1.,-2.46519032881566E-32));
#988=DIRECTION('ref_axis',(-0.707106781186547,0.,0.707106781186547));
#989=DIRECTION('center_axis',(0.,1.,-2.46519032881566E-32));
#990=DIRECTION('ref_axis',(1.,1.3684555315672E-48,5.55111512312578E-17));
#991=DIRECTION('center_axis',(0.,-1.,0.));
#992=DIRECTION('ref_axis',(-0.707106781186547,0.,0.707106781186547));
#993=DIRECTION('',(0.,1.,0.));
#994=DIRECTION('center_axis',(0.,0.,1.));
#995=DIRECTION('ref_axis',(1.,0.,0.));
#996=DIRECTION('',(0.,-1.,0.));
#997=DIRECTION('center_axis',(0.,0.,1.));
#998=DIRECTION('ref_axis',(1.,0.,0.));
#999=DIRECTION('',(0.,1.,0.));
#1000=DIRECTION('center_axis',(0.,-1.,0.));
#1001=DIRECTION('ref_axis',(1.,0.,5.55111512312578E-17));
#1002=DIRECTION('',(0.,1.,0.));
#1003=DIRECTION('center_axis',(0.,-1.,0.));
#1004=DIRECTION('ref_axis',(5.72118872610983E-18,0.,1.));
#1005=CARTESIAN_POINT('',(0.,0.,0.));
#1006=CARTESIAN_POINT('Origin',(-10.,31.25,166.7));
#1007=CARTESIAN_POINT('',(10.,45.,166.7));
#1008=CARTESIAN_POINT('',(-10.,45.,186.7));
#1009=CARTESIAN_POINT('Origin',(-10.,45.,166.7));
#1010=CARTESIAN_POINT('',(-10.,30.,186.7));
#1011=CARTESIAN_POINT('',(-10.,31.25,186.7));
#1012=CARTESIAN_POINT('',(10.,30.,166.7));
#1013=CARTESIAN_POINT('Origin',(-10.,30.,166.7));
#1014=CARTESIAN_POINT('',(10.,31.25,166.7));
#1015=CARTESIAN_POINT('Origin',(10.,25.,116.7));
#1016=CARTESIAN_POINT('',(10.,30.,116.7));
#1017=CARTESIAN_POINT('',(10.,30.,116.7));
#1018=CARTESIAN_POINT('',(10.,45.,116.7));
#1019=CARTESIAN_POINT('',(10.,12.5,116.7));
#1020=CARTESIAN_POINT('',(10.,45.,116.7));
#1021=CARTESIAN_POINT('Origin',(-75.,30.,116.7));
#1022=CARTESIAN_POINT('',(-55.,30.,186.7));
#1023=CARTESIAN_POINT('',(-53.75,30.,186.7));
#1024=CARTESIAN_POINT('',(-75.,30.,166.7));
#1025=CARTESIAN_POINT('Origin',(-55.,30.,166.7));
#1026=CARTESIAN_POINT('',(-75.,30.,116.7));
#1027=CARTESIAN_POINT('',(-75.,30.,116.7));
#1028=CARTESIAN_POINT('',(-55.,30.,116.7));
#1029=CARTESIAN_POINT('',(-1.5,30.,151.7));
#1030=CARTESIAN_POINT('Origin',(-32.5,30.,151.7));
#1031=CARTESIAN_POINT('Origin',(-10.,-43.75,166.7));
#1032=CARTESIAN_POINT('',(10.,-25.,166.7));
#1033=CARTESIAN_POINT('',(-10.,-25.,186.7));
#1034=CARTESIAN_POINT('Origin',(-10.,-25.,166.7));
#1035=CARTESIAN_POINT('',(-10.,-40.,186.7));
#1036=CARTESIAN_POINT('',(-10.,-43.75,186.7));
#1037=CARTESIAN_POINT('',(10.,-40.,166.7));
#1038=CARTESIAN_POINT('Origin',(-10.,-40.,166.7));
#1039=CARTESIAN_POINT('',(10.,-43.75,166.7));
#1040=CARTESIAN_POINT('Origin',(-75.,-40.,116.7));
#1041=CARTESIAN_POINT('',(-55.,-40.,186.7));
#1042=CARTESIAN_POINT('',(-53.75,-40.,186.7));
#1043=CARTESIAN_POINT('',(-75.,-40.,166.7));
#1044=CARTESIAN_POINT('Origin',(-55.,-40.,166.7));
#1045=CARTESIAN_POINT('',(-75.,-40.,116.7));
#1046=CARTESIAN_POINT('',(-75.,-40.,116.7));
#1047=CARTESIAN_POINT('',(10.,-40.,116.7));
#1048=CARTESIAN_POINT('',(-55.,-40.,116.7));
#1049=CARTESIAN_POINT('',(10.,-40.,116.7));
#1050=CARTESIAN_POINT('',(-1.5,-40.,151.7));
#1051=CARTESIAN_POINT('Origin',(-32.5,-40.,151.7));
#1052=CARTESIAN_POINT('Origin',(-32.5,-37.5,186.7));
#1053=CARTESIAN_POINT('',(-55.,-25.,186.7));
#1054=CARTESIAN_POINT('',(-75.,-25.,186.7));
#1055=CARTESIAN_POINT('',(-55.,-31.25,186.7));
#1056=CARTESIAN_POINT('Origin',(-55.,43.75,166.7));
#1057=CARTESIAN_POINT('',(-55.,45.,186.7));
#1058=CARTESIAN_POINT('',(-55.,43.75,186.7));
#1059=CARTESIAN_POINT('',(-75.,45.,166.7));
#1060=CARTESIAN_POINT('Origin',(-55.,45.,166.7));
#1061=CARTESIAN_POINT('',(-75.,43.75,166.7));
#1062=CARTESIAN_POINT('Origin',(-75.,50.,116.7));
#1063=CARTESIAN_POINT('',(-75.,45.,116.7));
#1064=CARTESIAN_POINT('',(-75.,45.,116.7));
#1065=CARTESIAN_POINT('',(-75.,20.,116.7));
#1066=CARTESIAN_POINT('Origin',(10.,45.,116.7));
#1067=CARTESIAN_POINT('',(-12.5,45.,116.7));
#1068=CARTESIAN_POINT('',(-11.25,45.,186.7));
#1069=CARTESIAN_POINT('',(-1.5,45.,151.7));
#1070=CARTESIAN_POINT('Origin',(-32.5,45.,151.7));
#1071=CARTESIAN_POINT('Origin',(-55.,-31.25,166.7));
#1072=CARTESIAN_POINT('',(-75.,-25.,166.7));
#1073=CARTESIAN_POINT('Origin',(-55.,-25.,166.7));
#1074=CARTESIAN_POINT('',(-75.,-31.25,166.7));
#1075=CARTESIAN_POINT('Origin',(-35.,-2.60396234510457E-15,116.7));
#1076=CARTESIAN_POINT('',(10.,-60.,116.7));
#1077=CARTESIAN_POINT('',(40.,1.10217807470012E-14,116.7));
#1078=CARTESIAN_POINT('Origin',(-35.,1.83692975339605E-15,116.7));
#1079=CARTESIAN_POINT('Origin',(-35.,1.83692975339605E-15,116.7));
#1080=CARTESIAN_POINT('',(-75.,-60.,116.7));
#1081=CARTESIAN_POINT('',(10.,-60.,116.7));
#1082=CARTESIAN_POINT('',(-75.,-46.,116.7));
#1083=CARTESIAN_POINT('',(-75.,-60.,116.7));
#1084=CARTESIAN_POINT('',(10.,-46.,116.7));
#1085=CARTESIAN_POINT('',(-32.5,-46.,116.7));
#1086=CARTESIAN_POINT('',(10.,-45.,116.7));
#1087=CARTESIAN_POINT('',(10.,-25.,116.7));
#1088=CARTESIAN_POINT('',(10.,-25.,116.7));
#1089=CARTESIAN_POINT('',(-75.,-25.,116.7));
#1090=CARTESIAN_POINT('',(-75.,-12.5,116.7));
#1091=CARTESIAN_POINT('',(-12.5,-25.,116.7));
#1092=CARTESIAN_POINT('',(-32.5,-18.5,116.7));
#1093=CARTESIAN_POINT('Origin',(-35.,-18.5,116.7));
#1094=CARTESIAN_POINT('',(-50.9999999012491,-0.00191148755369194,116.7));
#1095=CARTESIAN_POINT('Origin',(-53.4999999012491,-0.00191148755369224,
116.7));
#1096=CARTESIAN_POINT('',(-32.5,18.5,116.7));
#1097=CARTESIAN_POINT('Origin',(-35.,18.5,116.7));
#1098=CARTESIAN_POINT('',(-14.0000215856023,-0.0419694663663407,116.7));
#1099=CARTESIAN_POINT('Origin',(-16.5000215856023,-0.041969466366341,116.7));
#1100=CARTESIAN_POINT('Origin',(-32.5,37.5,186.7));
#1101=CARTESIAN_POINT('Origin',(-75.,-25.,116.7));
#1102=CARTESIAN_POINT('',(-75.,-25.,116.7));
#1103=CARTESIAN_POINT('Origin',(10.,-50.,116.7));
#1104=CARTESIAN_POINT('',(10.,-25.,116.7));
#1105=CARTESIAN_POINT('Origin',(-32.5,50.,151.7));
#1106=CARTESIAN_POINT('',(-1.5,-25.,151.7));
#1107=CARTESIAN_POINT('Origin',(-32.5,-25.,151.7));
#1108=CARTESIAN_POINT('',(-1.5,50.,151.7));
#1109=CARTESIAN_POINT('Origin',(-32.5,50.,151.7));
#1110=CARTESIAN_POINT('',(-1.5,50.,151.7));
#1111=CARTESIAN_POINT('Origin',(10.,-25.,116.7));
#1112=CARTESIAN_POINT('Origin',(-35.,-18.5,111.7));
#1113=CARTESIAN_POINT('',(-32.5,-18.5,111.7));
#1114=CARTESIAN_POINT('',(-32.5,-18.5,111.7));
#1115=CARTESIAN_POINT('Origin',(-35.,-18.5,111.7));
#1116=CARTESIAN_POINT('Origin',(-53.4999999012491,-0.00191148755369286,
111.7));
#1117=CARTESIAN_POINT('',(-50.9999999012491,-0.00191148755369255,111.7));
#1118=CARTESIAN_POINT('',(-50.9999999012491,-0.00191148755369255,111.7));
#1119=CARTESIAN_POINT('Origin',(-53.4999999012491,-0.00191148755369286,
111.7));
#1120=CARTESIAN_POINT('Origin',(-35.,18.5,111.7));
#1121=CARTESIAN_POINT('',(-32.5,18.5,111.7));
#1122=CARTESIAN_POINT('',(-32.5,18.5,111.7));
#1123=CARTESIAN_POINT('Origin',(-35.,18.5,111.7));
#1124=CARTESIAN_POINT('Origin',(-16.5000215856023,-0.0419694663663416,111.7));
#1125=CARTESIAN_POINT('',(-14.0000215856023,-0.0419694663663413,111.7));
#1126=CARTESIAN_POINT('',(-14.0000215856023,-0.0419694663663413,111.7));
#1127=CARTESIAN_POINT('Origin',(-16.5000215856023,-0.0419694663663416,111.7));
#1128=CARTESIAN_POINT('Origin',(-35.,1.22460635382238E-15,111.7));
#1129=CARTESIAN_POINT('',(37.5000016018748,7.65400224551907E-15,91.7));
#1130=CARTESIAN_POINT('Origin',(-35.,-1.22468724447233E-15,91.7));
#1131=CARTESIAN_POINT('',(37.5000016018748,1.01032958438138E-14,111.7));
#1132=CARTESIAN_POINT('',(37.5000016018748,-7.65408313616902E-15,111.7));
#1133=CARTESIAN_POINT('Origin',(-35.,1.22460635382238E-15,111.7));
#1134=CARTESIAN_POINT('Origin',(-35.,-5.66557934297296E-15,91.7));
#1135=CARTESIAN_POINT('',(40.,7.96016374913282E-15,91.7));
#1136=CARTESIAN_POINT('Origin',(-35.,-1.22468724447233E-15,91.7));
#1137=CARTESIAN_POINT('Origin',(-35.,1.22460635382238E-15,111.7));
#1138=CARTESIAN_POINT('',(10.7930128056159,2.24020751259093E-15,74.2));
#1139=CARTESIAN_POINT('Origin',(-35.,-3.3678191429802E-15,74.2));
#1140=CARTESIAN_POINT('',(10.7930128056159,6.8326330093935E-15,111.7));
#1141=CARTESIAN_POINT('',(10.7930128056159,-4.38342030174875E-15,111.7));
#1142=CARTESIAN_POINT('Origin',(-35.,1.22460635382238E-15,111.7));
#1143=CARTESIAN_POINT('Origin',(-35.,1.22460635382238E-15,111.7));
#1144=CARTESIAN_POINT('',(24.0338889840216,3.86174717557003E-15,74.2));
#1145=CARTESIAN_POINT('Origin',(-35.,-3.3678191429802E-15,74.2));
#1146=CARTESIAN_POINT('',(24.0338889840216,8.4541726723726E-15,111.7));
#1147=CARTESIAN_POINT('',(24.0338889840216,-6.00495996472785E-15,111.7));
#1148=CARTESIAN_POINT('Origin',(-35.,1.22460635382238E-15,111.7));
#1149=CARTESIAN_POINT('Origin',(-35.,-7.80871124148082E-15,74.2));
#1150=CARTESIAN_POINT('Origin',(-35.,-3.21628574467825E-15,111.7));
#1151=CARTESIAN_POINT('Origin',(-35.,1.22460635382238E-15,111.7));
#1152=CARTESIAN_POINT('',(40.,1.04094573474275E-14,111.7));
#1153=CARTESIAN_POINT('Origin',(-35.,-3.21628574467825E-15,111.7));
#1154=CARTESIAN_POINT('Origin',(-32.5,-46.,151.7));
#1155=CARTESIAN_POINT('',(10.,-46.,129.2));
#1156=CARTESIAN_POINT('',(2.5,-46.,136.7));
#1157=CARTESIAN_POINT('Origin',(2.5,-46.,129.2));
#1158=CARTESIAN_POINT('',(10.,-46.,134.2));
#1159=CARTESIAN_POINT('',(-75.,-46.,129.2));
#1160=CARTESIAN_POINT('',(-75.,-46.,134.2));
#1161=CARTESIAN_POINT('',(-67.5,-46.,136.7));
#1162=CARTESIAN_POINT('Origin',(-67.5,-46.,129.2));
#1163=CARTESIAN_POINT('',(-44.1619037896906,-46.,136.7));
#1164=CARTESIAN_POINT('',(-32.5,-46.,136.7));
#1165=CARTESIAN_POINT('',(-20.8380962103094,-46.,136.7));
#1166=CARTESIAN_POINT('Origin',(-32.5,-46.,151.7));
#1167=CARTESIAN_POINT('',(-32.5,-46.,136.7));
#1168=CARTESIAN_POINT('',(-45.,-46.,151.7));
#1169=CARTESIAN_POINT('Origin',(-32.5,-46.,151.7));
#1170=CARTESIAN_POINT('Origin',(-75.,-45.,116.7));
#1171=CARTESIAN_POINT('',(-75.,-60.,129.2));
#1172=CARTESIAN_POINT('',(-75.,-60.,116.7));
#1173=CARTESIAN_POINT('',(-75.,-48.75,129.2));
#1174=CARTESIAN_POINT('Origin',(10.,-60.,116.7));
#1175=CARTESIAN_POINT('',(10.,-60.,129.2));
#1176=CARTESIAN_POINT('',(10.,-56.25,129.2));
#1177=CARTESIAN_POINT('',(10.,-60.,116.7));
#1178=CARTESIAN_POINT('Origin',(2.5,-56.25,129.2));
#1179=CARTESIAN_POINT('',(2.5,-60.,136.7));
#1180=CARTESIAN_POINT('',(2.5,-56.25,136.7));
#1181=CARTESIAN_POINT('Origin',(2.5,-60.,129.2));
#1182=CARTESIAN_POINT('Origin',(-32.5,-60.,151.7));
#1183=CARTESIAN_POINT('',(-20.8380962103094,-60.,136.7));
#1184=CARTESIAN_POINT('',(10.,-60.,136.7));
#1185=CARTESIAN_POINT('',(-44.1619037896906,-60.,136.7));
#1186=CARTESIAN_POINT('Origin',(-32.5,-60.,151.7));
#1187=CARTESIAN_POINT('',(-67.5,-60.,136.7));
#1188=CARTESIAN_POINT('',(10.,-60.,136.7));
#1189=CARTESIAN_POINT('Origin',(-67.5,-60.,129.2));
#1190=CARTESIAN_POINT('',(-45.,-60.,151.7));
#1191=CARTESIAN_POINT('Origin',(-32.5,-60.,151.7));
#1192=CARTESIAN_POINT('Origin',(-67.5,-48.75,129.2));
#1193=CARTESIAN_POINT('',(-67.5,-48.75,136.7));
#1194=CARTESIAN_POINT('Origin',(-32.5,-52.5,136.7));
#1195=CARTESIAN_POINT('',(-44.1619037896906,-45.,136.7));
#1196=CARTESIAN_POINT('Origin',(-32.5,-52.5,136.7));
#1197=CARTESIAN_POINT('',(-20.8380962103094,-45.,136.7));
#1198=CARTESIAN_POINT('Origin',(-32.5,-45.,151.7));
#1199=CARTESIAN_POINT('',(-45.,-45.,151.7));
#1200=CARTESIAN_POINT('Origin',(-32.5,-45.,151.7));
#1201=UNCERTAINTY_MEASURE_WITH_UNIT(LENGTH_MEASURE(0.01),#1205,
'DISTANCE_ACCURACY_VALUE',
'Maximum model space distance between geometric entities at asserted c
onnectivities');
#1202=UNCERTAINTY_MEASURE_WITH_UNIT(LENGTH_MEASURE(0.01),#1205,
'DISTANCE_ACCURACY_VALUE',
'Maximum model space distance between geometric entities at asserted c
onnectivities');
#1203=(
GEOMETRIC_REPRESENTATION_CONTEXT(3)
GLOBAL_UNCERTAINTY_ASSIGNED_CONTEXT((#1201))
GLOBAL_UNIT_ASSIGNED_CONTEXT((#1205,#1207,#1208))
REPRESENTATION_CONTEXT('','3D')
);
#1204=(
GEOMETRIC_REPRESENTATION_CONTEXT(3)
GLOBAL_UNCERTAINTY_ASSIGNED_CONTEXT((#1202))
GLOBAL_UNIT_ASSIGNED_CONTEXT((#1205,#1207,#1208))
REPRESENTATION_CONTEXT('','3D')
);
#1205=(
LENGTH_UNIT()
NAMED_UNIT(*)
SI_UNIT(.MILLI.,.METRE.)
);
#1206=(
LENGTH_UNIT()
NAMED_UNIT(*)
SI_UNIT($,.METRE.)
);
#1207=(
NAMED_UNIT(*)
PLANE_ANGLE_UNIT()
SI_UNIT($,.RADIAN.)
);
#1208=(
NAMED_UNIT(*)
SI_UNIT($,.STERADIAN.)
SOLID_ANGLE_UNIT()
);
#1209=SHAPE_DEFINITION_REPRESENTATION(#1210,#1211);
#1210=PRODUCT_DEFINITION_SHAPE('',$,#1213);
#1211=SHAPE_REPRESENTATION('',(#717),#1203);
#1212=PRODUCT_DEFINITION_CONTEXT('part definition',#1217,'design');
#1213=PRODUCT_DEFINITION('TopBase','TopBase',#1214,#1212);
#1214=PRODUCT_DEFINITION_FORMATION('',$,#1219);
#1215=PRODUCT_RELATED_PRODUCT_CATEGORY('TopBase','TopBase',(#1219));
#1216=APPLICATION_PROTOCOL_DEFINITION('international standard',
'automotive_design',2009,#1217);
#1217=APPLICATION_CONTEXT(
'Core Data for Automotive Mechanical Design Process');
#1218=PRODUCT_CONTEXT('part definition',#1217,'mechanical');
#1219=PRODUCT('TopBase','TopBase',$,(#1218));
#1220=PRESENTATION_STYLE_ASSIGNMENT((#1221));
#1221=SURFACE_STYLE_USAGE(.BOTH.,#1222);
#1222=SURFACE_SIDE_STYLE('',(#1223));
#1223=SURFACE_STYLE_FILL_AREA(#1224);
#1224=FILL_AREA_STYLE('Steel - Satin',(#1225));
#1225=FILL_AREA_STYLE_COLOUR('Steel - Satin',#1226);
#1226=COLOUR_RGB('Steel - Satin',0.627450980392157,0.627450980392157,0.627450980392157);
ENDSEC;
END-ISO-10303-21;
