ISO-10303-21;
HEADER;
/* Generated by software containing ST-Developer
 * from STEP Tools, Inc. (www.steptools.com) 
 */

FILE_DESCRIPTION(
/* description */ (''),
/* implementation_level */ '2;1');

FILE_NAME(
/* name */ 'ElectronicsMainBox.step',
/* time_stamp */ '2026-08-05T16:40:16-05:00',
/* author */ (''),
/* organization */ (''),
/* preprocessor_version */ 'ST-DEVELOPER v20.1',
/* originating_system */ 'Autodesk Translation Framework v15.8.0.0',
/* authorisation */ '');

FILE_SCHEMA (('AUTOMOTIVE_DESIGN { 1 0 10303 214 3 1 1 }'));
ENDSEC;

DATA;
#10=MECHANICAL_DESIGN_GEOMETRIC_PRESENTATION_REPRESENTATION('',(#13),#906);
#11=SHAPE_REPRESENTATION_RELATIONSHIP('SRR','None',#913,#12);
#12=ADVANCED_BREP_SHAPE_REPRESENTATION('',(#14),#905);
#13=STYLED_ITEM('',(#922),#14);
#14=MANIFOLD_SOLID_BREP('Body1',#544);
#15=FACE_BOUND('',#86,.T.);
#16=FACE_BOUND('',#87,.T.);
#17=FACE_BOUND('',#88,.T.);
#18=FACE_BOUND('',#89,.T.);
#19=FACE_BOUND('',#93,.T.);
#20=FACE_BOUND('',#94,.T.);
#21=FACE_BOUND('',#95,.T.);
#22=FACE_BOUND('',#96,.T.);
#23=PLANE('',#561);
#24=PLANE('',#565);
#25=PLANE('',#569);
#26=PLANE('',#570);
#27=PLANE('',#571);
#28=PLANE('',#572);
#29=PLANE('',#588);
#30=PLANE('',#592);
#31=PLANE('',#593);
#32=PLANE('',#594);
#33=PLANE('',#595);
#34=PLANE('',#596);
#35=PLANE('',#597);
#36=PLANE('',#598);
#37=PLANE('',#599);
#38=PLANE('',#600);
#39=PLANE('',#601);
#40=PLANE('',#602);
#41=FACE_OUTER_BOUND('',#68,.T.);
#42=FACE_OUTER_BOUND('',#69,.T.);
#43=FACE_OUTER_BOUND('',#70,.T.);
#44=FACE_OUTER_BOUND('',#71,.T.);
#45=FACE_OUTER_BOUND('',#72,.T.);
#46=FACE_OUTER_BOUND('',#73,.T.);
#47=FACE_OUTER_BOUND('',#74,.T.);
#48=FACE_OUTER_BOUND('',#75,.T.);
#49=FACE_OUTER_BOUND('',#76,.T.);
#50=FACE_OUTER_BOUND('',#77,.T.);
#51=FACE_OUTER_BOUND('',#78,.T.);
#52=FACE_OUTER_BOUND('',#79,.T.);
#53=FACE_OUTER_BOUND('',#80,.T.);
#54=FACE_OUTER_BOUND('',#81,.T.);
#55=FACE_OUTER_BOUND('',#82,.T.);
#56=FACE_OUTER_BOUND('',#83,.T.);
#57=FACE_OUTER_BOUND('',#84,.T.);
#58=FACE_OUTER_BOUND('',#85,.T.);
#59=FACE_OUTER_BOUND('',#90,.T.);
#60=FACE_OUTER_BOUND('',#91,.T.);
#61=FACE_OUTER_BOUND('',#92,.T.);
#62=FACE_OUTER_BOUND('',#97,.T.);
#63=FACE_OUTER_BOUND('',#98,.T.);
#64=FACE_OUTER_BOUND('',#99,.T.);
#65=FACE_OUTER_BOUND('',#100,.T.);
#66=FACE_OUTER_BOUND('',#101,.T.);
#67=FACE_OUTER_BOUND('',#102,.T.);
#68=EDGE_LOOP('',(#358,#359,#360,#361));
#69=EDGE_LOOP('',(#362,#363,#364,#365));
#70=EDGE_LOOP('',(#366,#367,#368,#369));
#71=EDGE_LOOP('',(#370,#371,#372,#373));
#72=EDGE_LOOP('',(#374,#375,#376,#377));
#73=EDGE_LOOP('',(#378,#379,#380,#381));
#74=EDGE_LOOP('',(#382,#383,#384,#385));
#75=EDGE_LOOP('',(#386,#387,#388,#389,#390,#391,#392,#393,#394,#395,#396,
#397,#398));
#76=EDGE_LOOP('',(#399,#400,#401,#402,#403,#404,#405,#406,#407,#408,#409,
#410,#411));
#77=EDGE_LOOP('',(#412,#413,#414,#415));
#78=EDGE_LOOP('',(#416,#417,#418,#419));
#79=EDGE_LOOP('',(#420,#421,#422,#423));
#80=EDGE_LOOP('',(#424,#425,#426,#427));
#81=EDGE_LOOP('',(#428,#429,#430,#431));
#82=EDGE_LOOP('',(#432,#433,#434,#435,#436,#437));
#83=EDGE_LOOP('',(#438,#439,#440,#441));
#84=EDGE_LOOP('',(#442,#443,#444,#445,#446,#447));
#85=EDGE_LOOP('',(#448,#449,#450,#451,#452,#453));
#86=EDGE_LOOP('',(#454));
#87=EDGE_LOOP('',(#455));
#88=EDGE_LOOP('',(#456));
#89=EDGE_LOOP('',(#457));
#90=EDGE_LOOP('',(#458,#459,#460,#461,#462,#463,#464,#465));
#91=EDGE_LOOP('',(#466,#467,#468,#469));
#92=EDGE_LOOP('',(#470,#471,#472,#473));
#93=EDGE_LOOP('',(#474));
#94=EDGE_LOOP('',(#475));
#95=EDGE_LOOP('',(#476));
#96=EDGE_LOOP('',(#477));
#97=EDGE_LOOP('',(#478,#479,#480,#481,#482,#483,#484,#485));
#98=EDGE_LOOP('',(#486,#487,#488,#489));
#99=EDGE_LOOP('',(#490,#491,#492,#493,#494,#495));
#100=EDGE_LOOP('',(#496,#497,#498,#499));
#101=EDGE_LOOP('',(#500,#501,#502,#503));
#102=EDGE_LOOP('',(#504,#505,#506,#507));
#103=LINE('',#758,#160);
#104=LINE('',#761,#161);
#105=LINE('',#764,#162);
#106=LINE('',#766,#163);
#107=LINE('',#767,#164);
#108=LINE('',#773,#165);
#109=LINE('',#776,#166);
#110=LINE('',#778,#167);
#111=LINE('',#779,#168);
#112=LINE('',#785,#169);
#113=LINE('',#788,#170);
#114=LINE('',#790,#171);
#115=LINE('',#791,#172);
#116=LINE('',#793,#173);
#117=LINE('',#794,#174);
#118=LINE('',#795,#175);
#119=LINE('',#799,#176);
#120=LINE('',#801,#177);
#121=LINE('',#803,#178);
#122=LINE('',#804,#179);
#123=LINE('',#806,#180);
#124=LINE('',#807,#181);
#125=LINE('',#810,#182);
#126=LINE('',#812,#183);
#127=LINE('',#814,#184);
#128=LINE('',#816,#185);
#129=LINE('',#818,#186);
#130=LINE('',#819,#187);
#131=LINE('',#824,#188);
#132=LINE('',#830,#189);
#133=LINE('',#836,#190);
#134=LINE('',#842,#191);
#135=LINE('',#849,#192);
#136=LINE('',#852,#193);
#137=LINE('',#856,#194);
#138=LINE('',#857,#195);
#139=LINE('',#860,#196);
#140=LINE('',#863,#197);
#141=LINE('',#866,#198);
#142=LINE('',#868,#199);
#143=LINE('',#870,#200);
#144=LINE('',#871,#201);
#145=LINE('',#873,#202);
#146=LINE('',#874,#203);
#147=LINE('',#877,#204);
#148=LINE('',#878,#205);
#149=LINE('',#880,#206);
#150=LINE('',#881,#207);
#151=LINE('',#885,#208);
#152=LINE('',#887,#209);
#153=LINE('',#888,#210);
#154=LINE('',#891,#211);
#155=LINE('',#892,#212);
#156=LINE('',#894,#213);
#157=LINE('',#897,#214);
#158=LINE('',#898,#215);
#159=LINE('',#900,#216);
#160=VECTOR('',#609,10.);
#161=VECTOR('',#612,10.);
#162=VECTOR('',#615,10.);
#163=VECTOR('',#616,10.);
#164=VECTOR('',#617,10.);
#165=VECTOR('',#622,10.);
#166=VECTOR('',#625,10.);
#167=VECTOR('',#628,10.);
#168=VECTOR('',#629,10.);
#169=VECTOR('',#634,10.);
#170=VECTOR('',#637,10.);
#171=VECTOR('',#640,10.);
#172=VECTOR('',#641,10.);
#173=VECTOR('',#644,10.);
#174=VECTOR('',#645,10.);
#175=VECTOR('',#646,10.);
#176=VECTOR('',#649,10.);
#177=VECTOR('',#650,10.);
#178=VECTOR('',#651,10.);
#179=VECTOR('',#652,10.);
#180=VECTOR('',#653,10.);
#181=VECTOR('',#654,10.);
#182=VECTOR('',#657,10.);
#183=VECTOR('',#658,10.);
#184=VECTOR('',#659,10.);
#185=VECTOR('',#660,10.);
#186=VECTOR('',#661,10.);
#187=VECTOR('',#662,10.);
#188=VECTOR('',#667,2.00000002980232);
#189=VECTOR('',#674,1.99999999999999);
#190=VECTOR('',#681,1.99999999999999);
#191=VECTOR('',#688,2.00000002980232);
#192=VECTOR('',#697,10.);
#193=VECTOR('',#700,10.);
#194=VECTOR('',#703,10.);
#195=VECTOR('',#704,10.);
#196=VECTOR('',#707,10.);
#197=VECTOR('',#710,10.);
#198=VECTOR('',#713,10.);
#199=VECTOR('',#714,10.);
#200=VECTOR('',#715,10.);
#201=VECTOR('',#716,10.);
#202=VECTOR('',#719,10.);
#203=VECTOR('',#720,10.);
#204=VECTOR('',#723,10.);
#205=VECTOR('',#724,10.);
#206=VECTOR('',#725,10.);
#207=VECTOR('',#726,10.);
#208=VECTOR('',#731,10.);
#209=VECTOR('',#732,10.);
#210=VECTOR('',#733,10.);
#211=VECTOR('',#736,10.);
#212=VECTOR('',#737,10.);
#213=VECTOR('',#740,10.);
#214=VECTOR('',#743,10.);
#215=VECTOR('',#744,10.);
#216=VECTOR('',#747,10.);
#217=CIRCLE('',#559,2.5);
#218=CIRCLE('',#560,2.5);
#219=CIRCLE('',#563,2.5);
#220=CIRCLE('',#564,2.5);
#221=CIRCLE('',#567,2.5);
#222=CIRCLE('',#568,2.5);
#223=CIRCLE('',#574,2.00000002980232);
#224=CIRCLE('',#575,2.00000002980232);
#225=CIRCLE('',#577,1.99999999999999);
#226=CIRCLE('',#578,1.99999999999999);
#227=CIRCLE('',#580,1.99999999999999);
#228=CIRCLE('',#581,1.99999999999999);
#229=CIRCLE('',#583,2.00000002980232);
#230=CIRCLE('',#584,2.00000002980232);
#231=CIRCLE('',#586,5.);
#232=CIRCLE('',#587,5.);
#233=CIRCLE('',#589,5.);
#234=CIRCLE('',#591,5.);
#235=VERTEX_POINT('',#754);
#236=VERTEX_POINT('',#755);
#237=VERTEX_POINT('',#757);
#238=VERTEX_POINT('',#759);
#239=VERTEX_POINT('',#763);
#240=VERTEX_POINT('',#765);
#241=VERTEX_POINT('',#769);
#242=VERTEX_POINT('',#770);
#243=VERTEX_POINT('',#772);
#244=VERTEX_POINT('',#774);
#245=VERTEX_POINT('',#781);
#246=VERTEX_POINT('',#782);
#247=VERTEX_POINT('',#784);
#248=VERTEX_POINT('',#786);
#249=VERTEX_POINT('',#797);
#250=VERTEX_POINT('',#798);
#251=VERTEX_POINT('',#800);
#252=VERTEX_POINT('',#802);
#253=VERTEX_POINT('',#805);
#254=VERTEX_POINT('',#809);
#255=VERTEX_POINT('',#811);
#256=VERTEX_POINT('',#813);
#257=VERTEX_POINT('',#815);
#258=VERTEX_POINT('',#817);
#259=VERTEX_POINT('',#821);
#260=VERTEX_POINT('',#823);
#261=VERTEX_POINT('',#827);
#262=VERTEX_POINT('',#829);
#263=VERTEX_POINT('',#833);
#264=VERTEX_POINT('',#835);
#265=VERTEX_POINT('',#839);
#266=VERTEX_POINT('',#841);
#267=VERTEX_POINT('',#845);
#268=VERTEX_POINT('',#847);
#269=VERTEX_POINT('',#851);
#270=VERTEX_POINT('',#853);
#271=VERTEX_POINT('',#855);
#272=VERTEX_POINT('',#859);
#273=VERTEX_POINT('',#861);
#274=VERTEX_POINT('',#865);
#275=VERTEX_POINT('',#867);
#276=VERTEX_POINT('',#869);
#277=VERTEX_POINT('',#876);
#278=VERTEX_POINT('',#879);
#279=VERTEX_POINT('',#884);
#280=VERTEX_POINT('',#886);
#281=VERTEX_POINT('',#890);
#282=VERTEX_POINT('',#896);
#283=EDGE_CURVE('',#235,#236,#217,.T.);
#284=EDGE_CURVE('',#236,#237,#103,.T.);
#285=EDGE_CURVE('',#237,#238,#218,.T.);
#286=EDGE_CURVE('',#238,#235,#104,.T.);
#287=EDGE_CURVE('',#239,#236,#105,.T.);
#288=EDGE_CURVE('',#239,#240,#106,.T.);
#289=EDGE_CURVE('',#237,#240,#107,.T.);
#290=EDGE_CURVE('',#241,#242,#219,.T.);
#291=EDGE_CURVE('',#242,#243,#108,.T.);
#292=EDGE_CURVE('',#243,#244,#220,.T.);
#293=EDGE_CURVE('',#244,#241,#109,.T.);
#294=EDGE_CURVE('',#243,#238,#110,.T.);
#295=EDGE_CURVE('',#235,#242,#111,.T.);
#296=EDGE_CURVE('',#245,#246,#221,.T.);
#297=EDGE_CURVE('',#246,#247,#112,.T.);
#298=EDGE_CURVE('',#247,#248,#222,.T.);
#299=EDGE_CURVE('',#248,#245,#113,.T.);
#300=EDGE_CURVE('',#247,#244,#114,.T.);
#301=EDGE_CURVE('',#241,#246,#115,.T.);
#302=EDGE_CURVE('',#240,#248,#116,.T.);
#303=EDGE_CURVE('',#239,#240,#117,.T.);
#304=EDGE_CURVE('',#245,#239,#118,.T.);
#305=EDGE_CURVE('',#249,#250,#119,.T.);
#306=EDGE_CURVE('',#249,#251,#120,.T.);
#307=EDGE_CURVE('',#251,#252,#121,.T.);
#308=EDGE_CURVE('',#252,#239,#122,.T.);
#309=EDGE_CURVE('',#239,#253,#123,.T.);
#310=EDGE_CURVE('',#250,#253,#124,.T.);
#311=EDGE_CURVE('',#254,#240,#125,.T.);
#312=EDGE_CURVE('',#255,#254,#126,.T.);
#313=EDGE_CURVE('',#256,#255,#127,.T.);
#314=EDGE_CURVE('',#257,#256,#128,.T.);
#315=EDGE_CURVE('',#258,#257,#129,.T.);
#316=EDGE_CURVE('',#240,#258,#130,.T.);
#317=EDGE_CURVE('',#259,#259,#223,.T.);
#318=EDGE_CURVE('',#259,#260,#131,.T.);
#319=EDGE_CURVE('',#260,#260,#224,.T.);
#320=EDGE_CURVE('',#261,#261,#225,.T.);
#321=EDGE_CURVE('',#261,#262,#132,.T.);
#322=EDGE_CURVE('',#262,#262,#226,.T.);
#323=EDGE_CURVE('',#263,#263,#227,.T.);
#324=EDGE_CURVE('',#263,#264,#133,.T.);
#325=EDGE_CURVE('',#264,#264,#228,.T.);
#326=EDGE_CURVE('',#265,#265,#229,.T.);
#327=EDGE_CURVE('',#265,#266,#134,.T.);
#328=EDGE_CURVE('',#266,#266,#230,.T.);
#329=EDGE_CURVE('',#267,#249,#231,.T.);
#330=EDGE_CURVE('',#250,#268,#232,.T.);
#331=EDGE_CURVE('',#268,#267,#135,.T.);
#332=EDGE_CURVE('',#267,#269,#136,.T.);
#333=EDGE_CURVE('',#270,#269,#233,.T.);
#334=EDGE_CURVE('',#270,#271,#137,.T.);
#335=EDGE_CURVE('',#271,#251,#138,.T.);
#336=EDGE_CURVE('',#269,#272,#139,.T.);
#337=EDGE_CURVE('',#272,#273,#234,.T.);
#338=EDGE_CURVE('',#273,#270,#140,.T.);
#339=EDGE_CURVE('',#274,#273,#141,.T.);
#340=EDGE_CURVE('',#274,#275,#142,.T.);
#341=EDGE_CURVE('',#275,#276,#143,.T.);
#342=EDGE_CURVE('',#276,#271,#144,.T.);
#343=EDGE_CURVE('',#253,#274,#145,.T.);
#344=EDGE_CURVE('',#272,#268,#146,.T.);
#345=EDGE_CURVE('',#277,#255,#147,.T.);
#346=EDGE_CURVE('',#252,#254,#148,.T.);
#347=EDGE_CURVE('',#278,#276,#149,.T.);
#348=EDGE_CURVE('',#278,#277,#150,.T.);
#349=EDGE_CURVE('',#258,#279,#151,.T.);
#350=EDGE_CURVE('',#280,#257,#152,.T.);
#351=EDGE_CURVE('',#279,#280,#153,.T.);
#352=EDGE_CURVE('',#279,#281,#154,.T.);
#353=EDGE_CURVE('',#281,#275,#155,.T.);
#354=EDGE_CURVE('',#278,#281,#156,.T.);
#355=EDGE_CURVE('',#282,#280,#157,.T.);
#356=EDGE_CURVE('',#282,#277,#158,.T.);
#357=EDGE_CURVE('',#282,#256,#159,.T.);
#358=ORIENTED_EDGE('',*,*,#283,.T.);
#359=ORIENTED_EDGE('',*,*,#284,.T.);
#360=ORIENTED_EDGE('',*,*,#285,.T.);
#361=ORIENTED_EDGE('',*,*,#286,.T.);
#362=ORIENTED_EDGE('',*,*,#284,.F.);
#363=ORIENTED_EDGE('',*,*,#287,.F.);
#364=ORIENTED_EDGE('',*,*,#288,.T.);
#365=ORIENTED_EDGE('',*,*,#289,.F.);
#366=ORIENTED_EDGE('',*,*,#290,.T.);
#367=ORIENTED_EDGE('',*,*,#291,.T.);
#368=ORIENTED_EDGE('',*,*,#292,.T.);
#369=ORIENTED_EDGE('',*,*,#293,.T.);
#370=ORIENTED_EDGE('',*,*,#286,.F.);
#371=ORIENTED_EDGE('',*,*,#294,.F.);
#372=ORIENTED_EDGE('',*,*,#291,.F.);
#373=ORIENTED_EDGE('',*,*,#295,.F.);
#374=ORIENTED_EDGE('',*,*,#296,.T.);
#375=ORIENTED_EDGE('',*,*,#297,.T.);
#376=ORIENTED_EDGE('',*,*,#298,.T.);
#377=ORIENTED_EDGE('',*,*,#299,.T.);
#378=ORIENTED_EDGE('',*,*,#293,.F.);
#379=ORIENTED_EDGE('',*,*,#300,.F.);
#380=ORIENTED_EDGE('',*,*,#297,.F.);
#381=ORIENTED_EDGE('',*,*,#301,.F.);
#382=ORIENTED_EDGE('',*,*,#299,.F.);
#383=ORIENTED_EDGE('',*,*,#302,.F.);
#384=ORIENTED_EDGE('',*,*,#303,.F.);
#385=ORIENTED_EDGE('',*,*,#304,.F.);
#386=ORIENTED_EDGE('',*,*,#305,.F.);
#387=ORIENTED_EDGE('',*,*,#306,.T.);
#388=ORIENTED_EDGE('',*,*,#307,.T.);
#389=ORIENTED_EDGE('',*,*,#308,.T.);
#390=ORIENTED_EDGE('',*,*,#287,.T.);
#391=ORIENTED_EDGE('',*,*,#283,.F.);
#392=ORIENTED_EDGE('',*,*,#295,.T.);
#393=ORIENTED_EDGE('',*,*,#290,.F.);
#394=ORIENTED_EDGE('',*,*,#301,.T.);
#395=ORIENTED_EDGE('',*,*,#296,.F.);
#396=ORIENTED_EDGE('',*,*,#304,.T.);
#397=ORIENTED_EDGE('',*,*,#309,.T.);
#398=ORIENTED_EDGE('',*,*,#310,.F.);
#399=ORIENTED_EDGE('',*,*,#311,.F.);
#400=ORIENTED_EDGE('',*,*,#312,.F.);
#401=ORIENTED_EDGE('',*,*,#313,.F.);
#402=ORIENTED_EDGE('',*,*,#314,.F.);
#403=ORIENTED_EDGE('',*,*,#315,.F.);
#404=ORIENTED_EDGE('',*,*,#316,.F.);
#405=ORIENTED_EDGE('',*,*,#302,.T.);
#406=ORIENTED_EDGE('',*,*,#298,.F.);
#407=ORIENTED_EDGE('',*,*,#300,.T.);
#408=ORIENTED_EDGE('',*,*,#292,.F.);
#409=ORIENTED_EDGE('',*,*,#294,.T.);
#410=ORIENTED_EDGE('',*,*,#285,.F.);
#411=ORIENTED_EDGE('',*,*,#289,.T.);
#412=ORIENTED_EDGE('',*,*,#317,.F.);
#413=ORIENTED_EDGE('',*,*,#318,.T.);
#414=ORIENTED_EDGE('',*,*,#319,.F.);
#415=ORIENTED_EDGE('',*,*,#318,.F.);
#416=ORIENTED_EDGE('',*,*,#320,.F.);
#417=ORIENTED_EDGE('',*,*,#321,.T.);
#418=ORIENTED_EDGE('',*,*,#322,.F.);
#419=ORIENTED_EDGE('',*,*,#321,.F.);
#420=ORIENTED_EDGE('',*,*,#323,.F.);
#421=ORIENTED_EDGE('',*,*,#324,.T.);
#422=ORIENTED_EDGE('',*,*,#325,.F.);
#423=ORIENTED_EDGE('',*,*,#324,.F.);
#424=ORIENTED_EDGE('',*,*,#326,.F.);
#425=ORIENTED_EDGE('',*,*,#327,.T.);
#426=ORIENTED_EDGE('',*,*,#328,.F.);
#427=ORIENTED_EDGE('',*,*,#327,.F.);
#428=ORIENTED_EDGE('',*,*,#329,.T.);
#429=ORIENTED_EDGE('',*,*,#305,.T.);
#430=ORIENTED_EDGE('',*,*,#330,.T.);
#431=ORIENTED_EDGE('',*,*,#331,.T.);
#432=ORIENTED_EDGE('',*,*,#329,.F.);
#433=ORIENTED_EDGE('',*,*,#332,.T.);
#434=ORIENTED_EDGE('',*,*,#333,.F.);
#435=ORIENTED_EDGE('',*,*,#334,.T.);
#436=ORIENTED_EDGE('',*,*,#335,.T.);
#437=ORIENTED_EDGE('',*,*,#306,.F.);
#438=ORIENTED_EDGE('',*,*,#333,.T.);
#439=ORIENTED_EDGE('',*,*,#336,.T.);
#440=ORIENTED_EDGE('',*,*,#337,.T.);
#441=ORIENTED_EDGE('',*,*,#338,.T.);
#442=ORIENTED_EDGE('',*,*,#338,.F.);
#443=ORIENTED_EDGE('',*,*,#339,.F.);
#444=ORIENTED_EDGE('',*,*,#340,.T.);
#445=ORIENTED_EDGE('',*,*,#341,.T.);
#446=ORIENTED_EDGE('',*,*,#342,.T.);
#447=ORIENTED_EDGE('',*,*,#334,.F.);
#448=ORIENTED_EDGE('',*,*,#330,.F.);
#449=ORIENTED_EDGE('',*,*,#310,.T.);
#450=ORIENTED_EDGE('',*,*,#343,.T.);
#451=ORIENTED_EDGE('',*,*,#339,.T.);
#452=ORIENTED_EDGE('',*,*,#337,.F.);
#453=ORIENTED_EDGE('',*,*,#344,.T.);
#454=ORIENTED_EDGE('',*,*,#317,.T.);
#455=ORIENTED_EDGE('',*,*,#320,.T.);
#456=ORIENTED_EDGE('',*,*,#323,.T.);
#457=ORIENTED_EDGE('',*,*,#326,.T.);
#458=ORIENTED_EDGE('',*,*,#345,.T.);
#459=ORIENTED_EDGE('',*,*,#312,.T.);
#460=ORIENTED_EDGE('',*,*,#346,.F.);
#461=ORIENTED_EDGE('',*,*,#307,.F.);
#462=ORIENTED_EDGE('',*,*,#335,.F.);
#463=ORIENTED_EDGE('',*,*,#342,.F.);
#464=ORIENTED_EDGE('',*,*,#347,.F.);
#465=ORIENTED_EDGE('',*,*,#348,.T.);
#466=ORIENTED_EDGE('',*,*,#311,.T.);
#467=ORIENTED_EDGE('',*,*,#288,.F.);
#468=ORIENTED_EDGE('',*,*,#308,.F.);
#469=ORIENTED_EDGE('',*,*,#346,.T.);
#470=ORIENTED_EDGE('',*,*,#349,.F.);
#471=ORIENTED_EDGE('',*,*,#315,.T.);
#472=ORIENTED_EDGE('',*,*,#350,.F.);
#473=ORIENTED_EDGE('',*,*,#351,.F.);
#474=ORIENTED_EDGE('',*,*,#319,.T.);
#475=ORIENTED_EDGE('',*,*,#322,.T.);
#476=ORIENTED_EDGE('',*,*,#325,.T.);
#477=ORIENTED_EDGE('',*,*,#328,.T.);
#478=ORIENTED_EDGE('',*,*,#349,.T.);
#479=ORIENTED_EDGE('',*,*,#352,.T.);
#480=ORIENTED_EDGE('',*,*,#353,.T.);
#481=ORIENTED_EDGE('',*,*,#340,.F.);
#482=ORIENTED_EDGE('',*,*,#343,.F.);
#483=ORIENTED_EDGE('',*,*,#309,.F.);
#484=ORIENTED_EDGE('',*,*,#303,.T.);
#485=ORIENTED_EDGE('',*,*,#316,.T.);
#486=ORIENTED_EDGE('',*,*,#354,.F.);
#487=ORIENTED_EDGE('',*,*,#347,.T.);
#488=ORIENTED_EDGE('',*,*,#341,.F.);
#489=ORIENTED_EDGE('',*,*,#353,.F.);
#490=ORIENTED_EDGE('',*,*,#354,.T.);
#491=ORIENTED_EDGE('',*,*,#352,.F.);
#492=ORIENTED_EDGE('',*,*,#351,.T.);
#493=ORIENTED_EDGE('',*,*,#355,.F.);
#494=ORIENTED_EDGE('',*,*,#356,.T.);
#495=ORIENTED_EDGE('',*,*,#348,.F.);
#496=ORIENTED_EDGE('',*,*,#356,.F.);
#497=ORIENTED_EDGE('',*,*,#357,.T.);
#498=ORIENTED_EDGE('',*,*,#313,.T.);
#499=ORIENTED_EDGE('',*,*,#345,.F.);
#500=ORIENTED_EDGE('',*,*,#357,.F.);
#501=ORIENTED_EDGE('',*,*,#355,.T.);
#502=ORIENTED_EDGE('',*,*,#350,.T.);
#503=ORIENTED_EDGE('',*,*,#314,.T.);
#504=ORIENTED_EDGE('',*,*,#331,.F.);
#505=ORIENTED_EDGE('',*,*,#344,.F.);
#506=ORIENTED_EDGE('',*,*,#336,.F.);
#507=ORIENTED_EDGE('',*,*,#332,.F.);
#508=CYLINDRICAL_SURFACE('',#558,2.5);
#509=CYLINDRICAL_SURFACE('',#562,2.5);
#510=CYLINDRICAL_SURFACE('',#566,2.5);
#511=CYLINDRICAL_SURFACE('',#573,2.00000002980232);
#512=CYLINDRICAL_SURFACE('',#576,1.99999999999999);
#513=CYLINDRICAL_SURFACE('',#579,1.99999999999999);
#514=CYLINDRICAL_SURFACE('',#582,2.00000002980232);
#515=CYLINDRICAL_SURFACE('',#585,5.);
#516=CYLINDRICAL_SURFACE('',#590,5.);
#517=ADVANCED_FACE('',(#41),#508,.F.);
#518=ADVANCED_FACE('',(#42),#23,.F.);
#519=ADVANCED_FACE('',(#43),#509,.F.);
#520=ADVANCED_FACE('',(#44),#24,.F.);
#521=ADVANCED_FACE('',(#45),#510,.F.);
#522=ADVANCED_FACE('',(#46),#25,.F.);
#523=ADVANCED_FACE('',(#47),#26,.F.);
#524=ADVANCED_FACE('',(#48),#27,.T.);
#525=ADVANCED_FACE('',(#49),#28,.F.);
#526=ADVANCED_FACE('',(#50),#511,.F.);
#527=ADVANCED_FACE('',(#51),#512,.F.);
#528=ADVANCED_FACE('',(#52),#513,.F.);
#529=ADVANCED_FACE('',(#53),#514,.F.);
#530=ADVANCED_FACE('',(#54),#515,.T.);
#531=ADVANCED_FACE('',(#55),#29,.T.);
#532=ADVANCED_FACE('',(#56),#516,.T.);
#533=ADVANCED_FACE('',(#57),#30,.T.);
#534=ADVANCED_FACE('',(#58,#15,#16,#17,#18),#31,.T.);
#535=ADVANCED_FACE('',(#59),#32,.F.);
#536=ADVANCED_FACE('',(#60),#33,.F.);
#537=ADVANCED_FACE('',(#61,#19,#20,#21,#22),#34,.F.);
#538=ADVANCED_FACE('',(#62),#35,.F.);
#539=ADVANCED_FACE('',(#63),#36,.F.);
#540=ADVANCED_FACE('',(#64),#37,.F.);
#541=ADVANCED_FACE('',(#65),#38,.T.);
#542=ADVANCED_FACE('',(#66),#39,.F.);
#543=ADVANCED_FACE('',(#67),#40,.T.);
#544=CLOSED_SHELL('',(#517,#518,#519,#520,#521,#522,#523,#524,#525,#526,
#527,#528,#529,#530,#531,#532,#533,#534,#535,#536,#537,#538,#539,#540,#541,
#542,#543));
#545=DERIVED_UNIT_ELEMENT(#547,1.);
#546=DERIVED_UNIT_ELEMENT(#908,-3.);
#547=(
MASS_UNIT()
NAMED_UNIT(*)
SI_UNIT(.KILO.,.GRAM.)
);
#548=DERIVED_UNIT((#545,#546));
#549=MEASURE_REPRESENTATION_ITEM('density measure',
POSITIVE_RATIO_MEASURE(7850.),#548);
#550=PROPERTY_DEFINITION_REPRESENTATION(#555,#552);
#551=PROPERTY_DEFINITION_REPRESENTATION(#556,#553);
#552=REPRESENTATION('material name',(#554),#905);
#553=REPRESENTATION('density',(#549),#905);
#554=DESCRIPTIVE_REPRESENTATION_ITEM('Steel','Steel');
#555=PROPERTY_DEFINITION('material property','material name',#915);
#556=PROPERTY_DEFINITION('material property','density of part',#915);
#557=AXIS2_PLACEMENT_3D('',#752,#603,#604);
#558=AXIS2_PLACEMENT_3D('',#753,#605,#606);
#559=AXIS2_PLACEMENT_3D('',#756,#607,#608);
#560=AXIS2_PLACEMENT_3D('',#760,#610,#611);
#561=AXIS2_PLACEMENT_3D('',#762,#613,#614);
#562=AXIS2_PLACEMENT_3D('',#768,#618,#619);
#563=AXIS2_PLACEMENT_3D('',#771,#620,#621);
#564=AXIS2_PLACEMENT_3D('',#775,#623,#624);
#565=AXIS2_PLACEMENT_3D('',#777,#626,#627);
#566=AXIS2_PLACEMENT_3D('',#780,#630,#631);
#567=AXIS2_PLACEMENT_3D('',#783,#632,#633);
#568=AXIS2_PLACEMENT_3D('',#787,#635,#636);
#569=AXIS2_PLACEMENT_3D('',#789,#638,#639);
#570=AXIS2_PLACEMENT_3D('',#792,#642,#643);
#571=AXIS2_PLACEMENT_3D('',#796,#647,#648);
#572=AXIS2_PLACEMENT_3D('',#808,#655,#656);
#573=AXIS2_PLACEMENT_3D('',#820,#663,#664);
#574=AXIS2_PLACEMENT_3D('',#822,#665,#666);
#575=AXIS2_PLACEMENT_3D('',#825,#668,#669);
#576=AXIS2_PLACEMENT_3D('',#826,#670,#671);
#577=AXIS2_PLACEMENT_3D('',#828,#672,#673);
#578=AXIS2_PLACEMENT_3D('',#831,#675,#676);
#579=AXIS2_PLACEMENT_3D('',#832,#677,#678);
#580=AXIS2_PLACEMENT_3D('',#834,#679,#680);
#581=AXIS2_PLACEMENT_3D('',#837,#682,#683);
#582=AXIS2_PLACEMENT_3D('',#838,#684,#685);
#583=AXIS2_PLACEMENT_3D('',#840,#686,#687);
#584=AXIS2_PLACEMENT_3D('',#843,#689,#690);
#585=AXIS2_PLACEMENT_3D('',#844,#691,#692);
#586=AXIS2_PLACEMENT_3D('',#846,#693,#694);
#587=AXIS2_PLACEMENT_3D('',#848,#695,#696);
#588=AXIS2_PLACEMENT_3D('',#850,#698,#699);
#589=AXIS2_PLACEMENT_3D('',#854,#701,#702);
#590=AXIS2_PLACEMENT_3D('',#858,#705,#706);
#591=AXIS2_PLACEMENT_3D('',#862,#708,#709);
#592=AXIS2_PLACEMENT_3D('',#864,#711,#712);
#593=AXIS2_PLACEMENT_3D('',#872,#717,#718);
#594=AXIS2_PLACEMENT_3D('',#875,#721,#722);
#595=AXIS2_PLACEMENT_3D('',#882,#727,#728);
#596=AXIS2_PLACEMENT_3D('',#883,#729,#730);
#597=AXIS2_PLACEMENT_3D('',#889,#734,#735);
#598=AXIS2_PLACEMENT_3D('',#893,#738,#739);
#599=AXIS2_PLACEMENT_3D('',#895,#741,#742);
#600=AXIS2_PLACEMENT_3D('',#899,#745,#746);
#601=AXIS2_PLACEMENT_3D('',#901,#748,#749);
#602=AXIS2_PLACEMENT_3D('',#902,#750,#751);
#603=DIRECTION('axis',(0.,0.,1.));
#604=DIRECTION('refdir',(1.,0.,0.));
#605=DIRECTION('center_axis',(0.,1.,0.));
#606=DIRECTION('ref_axis',(0.707106781186547,0.,-0.707106781186547));
#607=DIRECTION('center_axis',(0.,-1.,0.));
#608=DIRECTION('ref_axis',(0.707106781186547,0.,-0.707106781186547));
#609=DIRECTION('',(0.,1.,0.));
#610=DIRECTION('center_axis',(0.,1.,0.));
#611=DIRECTION('ref_axis',(0.707106781186547,0.,-0.707106781186547));
#612=DIRECTION('',(0.,-1.,0.));
#613=DIRECTION('center_axis',(1.,0.,0.));
#614=DIRECTION('ref_axis',(0.,0.,-1.));
#615=DIRECTION('',(0.,0.,-1.));
#616=DIRECTION('',(0.,1.,0.));
#617=DIRECTION('',(0.,0.,1.));
#618=DIRECTION('center_axis',(0.,1.,0.));
#619=DIRECTION('ref_axis',(-0.707106781186547,0.,-0.707106781186547));
#620=DIRECTION('center_axis',(0.,-1.,0.));
#621=DIRECTION('ref_axis',(-0.707106781186547,0.,-0.707106781186547));
#622=DIRECTION('',(0.,1.,0.));
#623=DIRECTION('center_axis',(0.,1.,0.));
#624=DIRECTION('ref_axis',(-0.707106781186547,0.,-0.707106781186547));
#625=DIRECTION('',(0.,-1.,0.));
#626=DIRECTION('center_axis',(0.,0.,-1.));
#627=DIRECTION('ref_axis',(-1.,0.,0.));
#628=DIRECTION('',(1.,0.,0.));
#629=DIRECTION('',(-1.,0.,0.));
#630=DIRECTION('center_axis',(0.,1.,0.));
#631=DIRECTION('ref_axis',(-0.707106781186547,0.,0.707106781186547));
#632=DIRECTION('center_axis',(0.,-1.,0.));
#633=DIRECTION('ref_axis',(-0.707106781186547,0.,0.707106781186547));
#634=DIRECTION('',(0.,1.,0.));
#635=DIRECTION('center_axis',(0.,1.,0.));
#636=DIRECTION('ref_axis',(-0.707106781186547,0.,0.707106781186547));
#637=DIRECTION('',(0.,-1.,0.));
#638=DIRECTION('center_axis',(-1.,0.,0.));
#639=DIRECTION('ref_axis',(0.,0.,1.));
#640=DIRECTION('',(0.,0.,-1.));
#641=DIRECTION('',(0.,0.,1.));
#642=DIRECTION('center_axis',(0.,0.,1.));
#643=DIRECTION('ref_axis',(1.,0.,0.));
#644=DIRECTION('',(-1.,0.,0.));
#645=DIRECTION('',(0.,1.,0.));
#646=DIRECTION('',(1.,0.,0.));
#647=DIRECTION('center_axis',(0.,-1.,0.));
#648=DIRECTION('ref_axis',(-1.,0.,0.));
#649=DIRECTION('',(0.,0.,1.));
#650=DIRECTION('',(1.,0.,0.));
#651=DIRECTION('',(0.,0.,1.));
#652=DIRECTION('',(-1.,0.,0.));
#653=DIRECTION('',(0.,0.,1.));
#654=DIRECTION('',(1.,0.,0.));
#655=DIRECTION('center_axis',(0.,-1.,0.));
#656=DIRECTION('ref_axis',(0.,0.,-1.));
#657=DIRECTION('',(-1.,0.,0.));
#658=DIRECTION('',(0.,0.,1.));
#659=DIRECTION('',(1.,0.,0.));
#660=DIRECTION('',(0.,0.,-1.));
#661=DIRECTION('',(-1.,0.,0.));
#662=DIRECTION('',(0.,0.,1.));
#663=DIRECTION('center_axis',(0.,0.,-1.));
#664=DIRECTION('ref_axis',(-1.,-9.55261252416069E-32,0.));
#665=DIRECTION('center_axis',(0.,0.,-1.));
#666=DIRECTION('ref_axis',(-1.,-9.55261252416069E-32,0.));
#667=DIRECTION('',(0.,0.,-1.));
#668=DIRECTION('center_axis',(0.,0.,1.));
#669=DIRECTION('ref_axis',(-1.,-9.55261252416069E-32,0.));
#670=DIRECTION('center_axis',(0.,0.,-1.));
#671=DIRECTION('ref_axis',(-1.,-9.55261252416069E-32,0.));
#672=DIRECTION('center_axis',(0.,0.,-1.));
#673=DIRECTION('ref_axis',(-1.,-9.55261252416069E-32,0.));
#674=DIRECTION('',(0.,0.,-1.));
#675=DIRECTION('center_axis',(0.,0.,1.));
#676=DIRECTION('ref_axis',(-1.,-9.55261252416069E-32,0.));
#677=DIRECTION('center_axis',(0.,0.,-1.));
#678=DIRECTION('ref_axis',(-1.,-9.55261252416069E-32,0.));
#679=DIRECTION('center_axis',(0.,0.,-1.));
#680=DIRECTION('ref_axis',(-1.,-9.55261252416069E-32,0.));
#681=DIRECTION('',(0.,0.,-1.));
#682=DIRECTION('center_axis',(0.,0.,1.));
#683=DIRECTION('ref_axis',(-1.,-9.55261252416069E-32,0.));
#684=DIRECTION('center_axis',(0.,0.,-1.));
#685=DIRECTION('ref_axis',(-1.,-9.55261252416069E-32,0.));
#686=DIRECTION('center_axis',(0.,0.,-1.));
#687=DIRECTION('ref_axis',(-1.,-9.55261252416069E-32,0.));
#688=DIRECTION('',(0.,0.,-1.));
#689=DIRECTION('center_axis',(0.,0.,1.));
#690=DIRECTION('ref_axis',(-1.,-9.55261252416069E-32,0.));
#691=DIRECTION('center_axis',(0.,0.,-1.));
#692=DIRECTION('ref_axis',(-0.707106781186547,-0.707106781186547,0.));
#693=DIRECTION('center_axis',(0.,0.,1.));
#694=DIRECTION('ref_axis',(-0.707106781186547,-0.707106781186547,0.));
#695=DIRECTION('center_axis',(0.,0.,-1.));
#696=DIRECTION('ref_axis',(-0.707106781186547,-0.707106781186547,0.));
#697=DIRECTION('',(0.,0.,-1.));
#698=DIRECTION('center_axis',(0.,0.,-1.));
#699=DIRECTION('ref_axis',(-1.,0.,0.));
#700=DIRECTION('',(0.,1.,0.));
#701=DIRECTION('center_axis',(0.,0.,1.));
#702=DIRECTION('ref_axis',(-0.707106781186547,0.707106781186547,0.));
#703=DIRECTION('',(1.,0.,0.));
#704=DIRECTION('',(0.,-1.,0.));
#705=DIRECTION('center_axis',(0.,0.,-1.));
#706=DIRECTION('ref_axis',(-0.707106781186547,0.707106781186547,0.));
#707=DIRECTION('',(0.,0.,1.));
#708=DIRECTION('center_axis',(0.,0.,-1.));
#709=DIRECTION('ref_axis',(-0.707106781186547,0.707106781186547,0.));
#710=DIRECTION('',(0.,0.,-1.));
#711=DIRECTION('center_axis',(0.,1.,0.));
#712=DIRECTION('ref_axis',(1.,0.,0.));
#713=DIRECTION('',(-1.,0.,0.));
#714=DIRECTION('',(0.,0.,-1.));
#715=DIRECTION('',(1.,0.,0.));
#716=DIRECTION('',(0.,0.,-1.));
#717=DIRECTION('center_axis',(0.,0.,1.));
#718=DIRECTION('ref_axis',(1.,0.,0.));
#719=DIRECTION('',(0.,1.,0.));
#720=DIRECTION('',(0.,-1.,0.));
#721=DIRECTION('center_axis',(-1.,0.,0.));
#722=DIRECTION('ref_axis',(0.,0.,1.));
#723=DIRECTION('',(0.,-1.,0.));
#724=DIRECTION('',(0.,1.,0.));
#725=DIRECTION('',(0.,1.,0.));
#726=DIRECTION('',(0.,0.,-1.));
#727=DIRECTION('center_axis',(0.,0.,-1.));
#728=DIRECTION('ref_axis',(-1.,0.,0.));
#729=DIRECTION('center_axis',(0.,0.,1.));
#730=DIRECTION('ref_axis',(1.,0.,0.));
#731=DIRECTION('',(0.,1.,0.));
#732=DIRECTION('',(0.,-1.,0.));
#733=DIRECTION('',(-1.,0.,0.));
#734=DIRECTION('center_axis',(-1.,0.,0.));
#735=DIRECTION('ref_axis',(0.,0.,1.));
#736=DIRECTION('',(0.,0.,-1.));
#737=DIRECTION('',(0.,1.,0.));
#738=DIRECTION('center_axis',(0.,0.,-1.));
#739=DIRECTION('ref_axis',(-1.,0.,0.));
#740=DIRECTION('',(-1.,0.,0.));
#741=DIRECTION('center_axis',(0.,1.,0.));
#742=DIRECTION('ref_axis',(1.,0.,0.));
#743=DIRECTION('',(0.,0.,1.));
#744=DIRECTION('',(1.,0.,0.));
#745=DIRECTION('center_axis',(0.,0.,1.));
#746=DIRECTION('ref_axis',(1.,0.,0.));
#747=DIRECTION('',(0.,-1.,0.));
#748=DIRECTION('center_axis',(-1.,0.,0.));
#749=DIRECTION('ref_axis',(0.,1.,0.));
#750=DIRECTION('center_axis',(-1.,0.,0.));
#751=DIRECTION('ref_axis',(0.,1.,0.));
#752=CARTESIAN_POINT('',(0.,0.,0.));
#753=CARTESIAN_POINT('Origin',(47.5,-70.,-27.5));
#754=CARTESIAN_POINT('',(47.5,-70.,-30.));
#755=CARTESIAN_POINT('',(50.,-70.,-27.5));
#756=CARTESIAN_POINT('Origin',(47.5,-70.,-27.5));
#757=CARTESIAN_POINT('',(50.,-67.,-27.5));
#758=CARTESIAN_POINT('',(50.,-70.,-27.5));
#759=CARTESIAN_POINT('',(47.5,-67.,-30.));
#760=CARTESIAN_POINT('Origin',(47.5,-67.,-27.5));
#761=CARTESIAN_POINT('',(47.5,-70.,-30.));
#762=CARTESIAN_POINT('Origin',(50.,-70.,-10.));
#763=CARTESIAN_POINT('',(50.,-70.,-10.));
#764=CARTESIAN_POINT('',(50.,-70.,-5.));
#765=CARTESIAN_POINT('',(50.,-67.,-10.));
#766=CARTESIAN_POINT('',(50.,-70.,-10.));
#767=CARTESIAN_POINT('',(50.,-67.,-5.));
#768=CARTESIAN_POINT('Origin',(22.5,-70.,-27.5));
#769=CARTESIAN_POINT('',(20.,-70.,-27.5));
#770=CARTESIAN_POINT('',(22.5,-70.,-30.));
#771=CARTESIAN_POINT('Origin',(22.5,-70.,-27.5));
#772=CARTESIAN_POINT('',(22.5,-67.,-30.));
#773=CARTESIAN_POINT('',(22.5,-70.,-30.));
#774=CARTESIAN_POINT('',(20.,-67.,-27.5));
#775=CARTESIAN_POINT('Origin',(22.5,-67.,-27.5));
#776=CARTESIAN_POINT('',(20.,-70.,-27.5));
#777=CARTESIAN_POINT('Origin',(50.,-70.,-30.));
#778=CARTESIAN_POINT('',(90.,-67.,-30.));
#779=CARTESIAN_POINT('',(90.,-70.,-30.));
#780=CARTESIAN_POINT('Origin',(22.5,-70.,-12.5));
#781=CARTESIAN_POINT('',(22.5,-70.,-10.));
#782=CARTESIAN_POINT('',(20.,-70.,-12.5));
#783=CARTESIAN_POINT('Origin',(22.5,-70.,-12.5));
#784=CARTESIAN_POINT('',(20.,-67.,-12.5));
#785=CARTESIAN_POINT('',(20.,-70.,-12.5));
#786=CARTESIAN_POINT('',(22.5,-67.,-10.));
#787=CARTESIAN_POINT('Origin',(22.5,-67.,-12.5));
#788=CARTESIAN_POINT('',(22.5,-70.,-10.));
#789=CARTESIAN_POINT('Origin',(20.,-70.,-30.));
#790=CARTESIAN_POINT('',(20.,-67.,-15.));
#791=CARTESIAN_POINT('',(20.,-70.,-15.));
#792=CARTESIAN_POINT('Origin',(20.,-70.,-10.));
#793=CARTESIAN_POINT('',(75.,-67.,-10.));
#794=CARTESIAN_POINT('',(50.,-70.,-10.));
#795=CARTESIAN_POINT('',(75.,-70.,-10.));
#796=CARTESIAN_POINT('Origin',(130.,-70.,0.));
#797=CARTESIAN_POINT('',(-95.,-70.,-60.));
#798=CARTESIAN_POINT('',(-95.,-70.,0.));
#799=CARTESIAN_POINT('',(-95.,-70.,0.));
#800=CARTESIAN_POINT('',(150.,-70.,-60.));
#801=CARTESIAN_POINT('',(130.,-70.,-60.));
#802=CARTESIAN_POINT('',(150.,-70.,-10.));
#803=CARTESIAN_POINT('',(150.,-70.,-30.));
#804=CARTESIAN_POINT('',(140.,-70.,-10.));
#805=CARTESIAN_POINT('',(50.,-70.,0.));
#806=CARTESIAN_POINT('',(50.,-70.,-5.));
#807=CARTESIAN_POINT('',(-100.,-70.,0.));
#808=CARTESIAN_POINT('Origin',(130.,-67.,0.));
#809=CARTESIAN_POINT('',(150.,-67.,-10.));
#810=CARTESIAN_POINT('',(140.,-67.,-10.));
#811=CARTESIAN_POINT('',(150.,-67.,-55.));
#812=CARTESIAN_POINT('',(150.,-67.,-30.));
#813=CARTESIAN_POINT('',(-95.,-67.,-55.));
#814=CARTESIAN_POINT('',(72.5,-67.,-55.));
#815=CARTESIAN_POINT('',(-95.,-67.,-3.));
#816=CARTESIAN_POINT('',(-95.,-67.,0.));
#817=CARTESIAN_POINT('',(50.,-67.,-3.));
#818=CARTESIAN_POINT('',(72.5,-67.,-3.));
#819=CARTESIAN_POINT('',(50.,-67.,-5.));
#820=CARTESIAN_POINT('Origin',(20.0000002980232,60.0000008940697,5.12905807226191));
#821=CARTESIAN_POINT('',(22.0000003278255,60.0000008940697,0.));
#822=CARTESIAN_POINT('Origin',(20.0000002980232,60.0000008940697,0.));
#823=CARTESIAN_POINT('',(22.0000003278255,60.0000008940697,-3.));
#824=CARTESIAN_POINT('',(22.0000003278255,60.0000008940697,5.12905807226191));
#825=CARTESIAN_POINT('Origin',(20.0000002980232,60.0000008940697,-3.));
#826=CARTESIAN_POINT('Origin',(-90.0000013411045,-60.0000008940697,5.1290580722619));
#827=CARTESIAN_POINT('',(-88.0000013411045,-60.0000008940697,0.));
#828=CARTESIAN_POINT('Origin',(-90.0000013411045,-60.0000008940697,0.));
#829=CARTESIAN_POINT('',(-88.0000013411045,-60.0000008940697,-3.));
#830=CARTESIAN_POINT('',(-88.0000013411045,-60.0000008940697,5.1290580722619));
#831=CARTESIAN_POINT('Origin',(-90.0000013411045,-60.0000008940697,-3.));
#832=CARTESIAN_POINT('Origin',(-89.9697047529058,59.9889005797676,5.1290580722619));
#833=CARTESIAN_POINT('',(-87.9697047529058,59.9889005797676,0.));
#834=CARTESIAN_POINT('Origin',(-89.9697047529058,59.9889005797676,0.));
#835=CARTESIAN_POINT('',(-87.9697047529058,59.9889005797676,-3.));
#836=CARTESIAN_POINT('',(-87.9697047529058,59.9889005797676,5.1290580722619));
#837=CARTESIAN_POINT('Origin',(-89.9697047529058,59.9889005797676,-3.));
#838=CARTESIAN_POINT('Origin',(20.0000002980232,-60.0000008940697,5.1290580722619));
#839=CARTESIAN_POINT('',(22.0000003278255,-60.0000008940697,0.));
#840=CARTESIAN_POINT('Origin',(20.0000002980232,-60.0000008940697,0.));
#841=CARTESIAN_POINT('',(22.0000003278255,-60.0000008940697,-3.));
#842=CARTESIAN_POINT('',(22.0000003278255,-60.0000008940697,5.1290580722619));
#843=CARTESIAN_POINT('Origin',(20.0000002980232,-60.0000008940697,-3.));
#844=CARTESIAN_POINT('Origin',(-95.,-65.,0.));
#845=CARTESIAN_POINT('',(-100.,-65.,-60.));
#846=CARTESIAN_POINT('Origin',(-95.,-65.,-60.));
#847=CARTESIAN_POINT('',(-100.,-65.,0.));
#848=CARTESIAN_POINT('Origin',(-95.,-65.,0.));
#849=CARTESIAN_POINT('',(-100.,-65.,0.));
#850=CARTESIAN_POINT('Origin',(15.,0.,-60.));
#851=CARTESIAN_POINT('',(-100.,65.,-60.));
#852=CARTESIAN_POINT('',(-100.,70.,-60.));
#853=CARTESIAN_POINT('',(-95.,70.,-60.));
#854=CARTESIAN_POINT('Origin',(-95.,65.,-60.));
#855=CARTESIAN_POINT('',(150.,70.,-60.));
#856=CARTESIAN_POINT('',(130.,70.,-60.));
#857=CARTESIAN_POINT('',(150.,-35.,-60.));
#858=CARTESIAN_POINT('Origin',(-95.,65.,0.));
#859=CARTESIAN_POINT('',(-100.,65.,0.));
#860=CARTESIAN_POINT('',(-100.,65.,0.));
#861=CARTESIAN_POINT('',(-95.,70.,0.));
#862=CARTESIAN_POINT('Origin',(-95.,65.,0.));
#863=CARTESIAN_POINT('',(-95.,70.,0.));
#864=CARTESIAN_POINT('Origin',(-100.,70.,0.));
#865=CARTESIAN_POINT('',(50.,70.,0.));
#866=CARTESIAN_POINT('',(130.,70.,0.));
#867=CARTESIAN_POINT('',(50.,70.,-10.));
#868=CARTESIAN_POINT('',(50.,70.,-5.));
#869=CARTESIAN_POINT('',(150.,70.,-10.));
#870=CARTESIAN_POINT('',(25.,70.,-10.));
#871=CARTESIAN_POINT('',(150.,70.,-30.));
#872=CARTESIAN_POINT('Origin',(15.,0.,0.));
#873=CARTESIAN_POINT('',(50.,-35.,0.));
#874=CARTESIAN_POINT('',(-100.,70.,0.));
#875=CARTESIAN_POINT('Origin',(150.,-70.,-60.));
#876=CARTESIAN_POINT('',(150.,65.,-55.));
#877=CARTESIAN_POINT('',(150.,-67.5,-55.));
#878=CARTESIAN_POINT('',(150.,-70.,-10.));
#879=CARTESIAN_POINT('',(150.,65.,-10.));
#880=CARTESIAN_POINT('',(150.,-70.,-10.));
#881=CARTESIAN_POINT('',(150.,65.,-57.5));
#882=CARTESIAN_POINT('Origin',(150.,-70.,-10.));
#883=CARTESIAN_POINT('Origin',(15.,0.,-3.));
#884=CARTESIAN_POINT('',(50.,65.,-3.));
#885=CARTESIAN_POINT('',(50.,-67.5,-3.));
#886=CARTESIAN_POINT('',(-95.,65.,-3.));
#887=CARTESIAN_POINT('',(-95.,-65.,-3.));
#888=CARTESIAN_POINT('',(-42.5,65.,-3.));
#889=CARTESIAN_POINT('Origin',(50.,-70.,-10.));
#890=CARTESIAN_POINT('',(50.,65.,-10.));
#891=CARTESIAN_POINT('',(50.,65.,-7.5));
#892=CARTESIAN_POINT('',(50.,-70.,-10.));
#893=CARTESIAN_POINT('Origin',(150.,-70.,-10.));
#894=CARTESIAN_POINT('',(25.,65.,-10.));
#895=CARTESIAN_POINT('Origin',(-100.,65.,0.));
#896=CARTESIAN_POINT('',(-95.,65.,-55.));
#897=CARTESIAN_POINT('',(-95.,65.,-5.));
#898=CARTESIAN_POINT('',(-42.5,65.,-55.));
#899=CARTESIAN_POINT('Origin',(15.,0.,-55.));
#900=CARTESIAN_POINT('',(-95.,-65.,-55.));
#901=CARTESIAN_POINT('Origin',(-95.,-70.,0.));
#902=CARTESIAN_POINT('Origin',(-100.,-70.,0.));
#903=UNCERTAINTY_MEASURE_WITH_UNIT(LENGTH_MEASURE(0.01),#907,
'DISTANCE_ACCURACY_VALUE',
'Maximum model space distance between geometric entities at asserted c
onnectivities');
#904=UNCERTAINTY_MEASURE_WITH_UNIT(LENGTH_MEASURE(0.01),#907,
'DISTANCE_ACCURACY_VALUE',
'Maximum model space distance between geometric entities at asserted c
onnectivities');
#905=(
GEOMETRIC_REPRESENTATION_CONTEXT(3)
GLOBAL_UNCERTAINTY_ASSIGNED_CONTEXT((#903))
GLOBAL_UNIT_ASSIGNED_CONTEXT((#907,#909,#910))
REPRESENTATION_CONTEXT('','3D')
);
#906=(
GEOMETRIC_REPRESENTATION_CONTEXT(3)
GLOBAL_UNCERTAINTY_ASSIGNED_CONTEXT((#904))
GLOBAL_UNIT_ASSIGNED_CONTEXT((#907,#909,#910))
REPRESENTATION_CONTEXT('','3D')
);
#907=(
LENGTH_UNIT()
NAMED_UNIT(*)
SI_UNIT(.MILLI.,.METRE.)
);
#908=(
LENGTH_UNIT()
NAMED_UNIT(*)
SI_UNIT($,.METRE.)
);
#909=(
NAMED_UNIT(*)
PLANE_ANGLE_UNIT()
SI_UNIT($,.RADIAN.)
);
#910=(
NAMED_UNIT(*)
SI_UNIT($,.STERADIAN.)
SOLID_ANGLE_UNIT()
);
#911=SHAPE_DEFINITION_REPRESENTATION(#912,#913);
#912=PRODUCT_DEFINITION_SHAPE('',$,#915);
#913=SHAPE_REPRESENTATION('',(#557),#905);
#914=PRODUCT_DEFINITION_CONTEXT('part definition',#919,'design');
#915=PRODUCT_DEFINITION('ElectronicsMainBox','ElectronicsMainBox',#916,
#914);
#916=PRODUCT_DEFINITION_FORMATION('',$,#921);
#917=PRODUCT_RELATED_PRODUCT_CATEGORY('ElectronicsMainBox',
'ElectronicsMainBox',(#921));
#918=APPLICATION_PROTOCOL_DEFINITION('international standard',
'automotive_design',2009,#919);
#919=APPLICATION_CONTEXT(
'Core Data for Automotive Mechanical Design Process');
#920=PRODUCT_CONTEXT('part definition',#919,'mechanical');
#921=PRODUCT('ElectronicsMainBox','ElectronicsMainBox',$,(#920));
#922=PRESENTATION_STYLE_ASSIGNMENT((#923));
#923=SURFACE_STYLE_USAGE(.BOTH.,#924);
#924=SURFACE_SIDE_STYLE('',(#925));
#925=SURFACE_STYLE_FILL_AREA(#926);
#926=FILL_AREA_STYLE('Steel - Satin',(#927));
#927=FILL_AREA_STYLE_COLOUR('Steel - Satin',#928);
#928=COLOUR_RGB('Steel - Satin',0.627450980392157,0.627450980392157,0.627450980392157);
ENDSEC;
END-ISO-10303-21;
