ISO-10303-21;
HEADER;
/* Generated by software containing ST-Developer
 * from STEP Tools, Inc. (www.steptools.com) 
 */

FILE_DESCRIPTION(
/* description */ (''),
/* implementation_level */ '2;1');

FILE_NAME(
/* name */ 'J1PlanetaryMount.step',
/* time_stamp */ '2026-08-05T16:40:39-05:00',
/* author */ (''),
/* organization */ (''),
/* preprocessor_version */ 'ST-DEVELOPER v20.1',
/* originating_system */ 'Autodesk Translation Framework v15.8.0.0',
/* authorisation */ '');

FILE_SCHEMA (('AUTOMOTIVE_DESIGN { 1 0 10303 214 3 1 1 }'));
ENDSEC;

DATA;
#10=MECHANICAL_DESIGN_GEOMETRIC_PRESENTATION_REPRESENTATION('',(#13),#484);
#11=SHAPE_REPRESENTATION_RELATIONSHIP('SRR','None',#491,#12);
#12=ADVANCED_BREP_SHAPE_REPRESENTATION('',(#14),#483);
#13=STYLED_ITEM('',(#500),#14);
#14=MANIFOLD_SOLID_BREP('Body1',#272);
#15=CYLINDRICAL_SURFACE('',#297,2.);
#16=CYLINDRICAL_SURFACE('',#299,2.);
#17=CYLINDRICAL_SURFACE('',#303,2.);
#18=CYLINDRICAL_SURFACE('',#307,2.);
#19=CYLINDRICAL_SURFACE('',#309,32.5);
#20=CYLINDRICAL_SURFACE('',#312,40.);
#21=CYLINDRICAL_SURFACE('',#316,12.5);
#22=FACE_BOUND('',#69,.T.);
#23=FACE_BOUND('',#80,.T.);
#24=FACE_BOUND('',#82,.T.);
#25=FACE_BOUND('',#84,.T.);
#26=FACE_BOUND('',#85,.T.);
#27=FACE_BOUND('',#86,.T.);
#28=FACE_BOUND('',#87,.T.);
#29=FACE_BOUND('',#88,.T.);
#30=FACE_BOUND('',#91,.T.);
#31=FACE_BOUND('',#93,.T.);
#32=CIRCLE('',#288,32.5);
#33=CIRCLE('',#289,40.);
#34=CIRCLE('',#290,2.);
#35=CIRCLE('',#293,32.5);
#36=CIRCLE('',#294,40.);
#37=CIRCLE('',#296,2.);
#38=CIRCLE('',#298,2.);
#39=CIRCLE('',#300,2.);
#40=CIRCLE('',#302,2.);
#41=CIRCLE('',#304,2.);
#42=CIRCLE('',#306,2.);
#43=CIRCLE('',#308,2.);
#44=CIRCLE('',#310,32.5);
#45=CIRCLE('',#311,32.5);
#46=CIRCLE('',#313,40.);
#47=CIRCLE('',#314,40.);
#48=CIRCLE('',#317,12.5);
#49=CIRCLE('',#318,12.5);
#50=FACE_OUTER_BOUND('',#67,.T.);
#51=FACE_OUTER_BOUND('',#68,.T.);
#52=FACE_OUTER_BOUND('',#70,.T.);
#53=FACE_OUTER_BOUND('',#71,.T.);
#54=FACE_OUTER_BOUND('',#72,.T.);
#55=FACE_OUTER_BOUND('',#73,.T.);
#56=FACE_OUTER_BOUND('',#74,.T.);
#57=FACE_OUTER_BOUND('',#75,.T.);
#58=FACE_OUTER_BOUND('',#76,.T.);
#59=FACE_OUTER_BOUND('',#77,.T.);
#60=FACE_OUTER_BOUND('',#78,.T.);
#61=FACE_OUTER_BOUND('',#79,.T.);
#62=FACE_OUTER_BOUND('',#81,.T.);
#63=FACE_OUTER_BOUND('',#83,.T.);
#64=FACE_OUTER_BOUND('',#89,.T.);
#65=FACE_OUTER_BOUND('',#90,.T.);
#66=FACE_OUTER_BOUND('',#92,.T.);
#67=EDGE_LOOP('',(#179,#180,#181,#182));
#68=EDGE_LOOP('',(#183,#184,#185,#186));
#69=EDGE_LOOP('',(#187));
#70=EDGE_LOOP('',(#188,#189,#190,#191));
#71=EDGE_LOOP('',(#192,#193,#194,#195));
#72=EDGE_LOOP('',(#196));
#73=EDGE_LOOP('',(#197,#198,#199,#200));
#74=EDGE_LOOP('',(#201,#202,#203,#204));
#75=EDGE_LOOP('',(#205));
#76=EDGE_LOOP('',(#206,#207,#208,#209));
#77=EDGE_LOOP('',(#210));
#78=EDGE_LOOP('',(#211,#212,#213,#214));
#79=EDGE_LOOP('',(#215,#216,#217,#218));
#80=EDGE_LOOP('',(#219,#220,#221,#222));
#81=EDGE_LOOP('',(#223,#224,#225,#226));
#82=EDGE_LOOP('',(#227,#228,#229,#230));
#83=EDGE_LOOP('',(#231));
#84=EDGE_LOOP('',(#232));
#85=EDGE_LOOP('',(#233));
#86=EDGE_LOOP('',(#234));
#87=EDGE_LOOP('',(#235));
#88=EDGE_LOOP('',(#236));
#89=EDGE_LOOP('',(#237,#238,#239,#240));
#90=EDGE_LOOP('',(#241));
#91=EDGE_LOOP('',(#242));
#92=EDGE_LOOP('',(#243));
#93=EDGE_LOOP('',(#244));
#94=LINE('',#412,#109);
#95=LINE('',#414,#110);
#96=LINE('',#416,#111);
#97=LINE('',#417,#112);
#98=LINE('',#423,#113);
#99=LINE('',#428,#114);
#100=LINE('',#430,#115);
#101=LINE('',#431,#116);
#102=LINE('',#440,#117);
#103=LINE('',#444,#118);
#104=LINE('',#451,#119);
#105=LINE('',#458,#120);
#106=LINE('',#464,#121);
#107=LINE('',#470,#122);
#108=LINE('',#477,#123);
#109=VECTOR('',#325,10.);
#110=VECTOR('',#326,10.);
#111=VECTOR('',#327,10.);
#112=VECTOR('',#328,10.);
#113=VECTOR('',#335,10.);
#114=VECTOR('',#340,10.);
#115=VECTOR('',#341,10.);
#116=VECTOR('',#342,10.);
#117=VECTOR('',#355,2.);
#118=VECTOR('',#360,2.);
#119=VECTOR('',#369,2.);
#120=VECTOR('',#378,2.);
#121=VECTOR('',#385,32.5);
#122=VECTOR('',#392,40.);
#123=VECTOR('',#401,12.5);
#124=VERTEX_POINT('',#410);
#125=VERTEX_POINT('',#411);
#126=VERTEX_POINT('',#413);
#127=VERTEX_POINT('',#415);
#128=VERTEX_POINT('',#419);
#129=VERTEX_POINT('',#421);
#130=VERTEX_POINT('',#424);
#131=VERTEX_POINT('',#427);
#132=VERTEX_POINT('',#429);
#133=VERTEX_POINT('',#436);
#134=VERTEX_POINT('',#439);
#135=VERTEX_POINT('',#443);
#136=VERTEX_POINT('',#447);
#137=VERTEX_POINT('',#450);
#138=VERTEX_POINT('',#454);
#139=VERTEX_POINT('',#457);
#140=VERTEX_POINT('',#461);
#141=VERTEX_POINT('',#463);
#142=VERTEX_POINT('',#467);
#143=VERTEX_POINT('',#469);
#144=VERTEX_POINT('',#474);
#145=VERTEX_POINT('',#476);
#146=EDGE_CURVE('',#124,#125,#94,.T.);
#147=EDGE_CURVE('',#124,#126,#95,.T.);
#148=EDGE_CURVE('',#127,#126,#96,.T.);
#149=EDGE_CURVE('',#125,#127,#97,.T.);
#150=EDGE_CURVE('',#125,#128,#32,.T.);
#151=EDGE_CURVE('',#129,#127,#33,.T.);
#152=EDGE_CURVE('',#128,#129,#98,.T.);
#153=EDGE_CURVE('',#130,#130,#34,.T.);
#154=EDGE_CURVE('',#128,#131,#99,.T.);
#155=EDGE_CURVE('',#132,#129,#100,.T.);
#156=EDGE_CURVE('',#131,#132,#101,.T.);
#157=EDGE_CURVE('',#131,#124,#35,.T.);
#158=EDGE_CURVE('',#126,#132,#36,.T.);
#159=EDGE_CURVE('',#133,#133,#37,.T.);
#160=EDGE_CURVE('',#133,#134,#102,.T.);
#161=EDGE_CURVE('',#134,#134,#38,.T.);
#162=EDGE_CURVE('',#130,#135,#103,.T.);
#163=EDGE_CURVE('',#135,#135,#39,.T.);
#164=EDGE_CURVE('',#136,#136,#40,.T.);
#165=EDGE_CURVE('',#136,#137,#104,.T.);
#166=EDGE_CURVE('',#137,#137,#41,.T.);
#167=EDGE_CURVE('',#138,#138,#42,.T.);
#168=EDGE_CURVE('',#138,#139,#105,.T.);
#169=EDGE_CURVE('',#139,#139,#43,.T.);
#170=EDGE_CURVE('',#140,#140,#44,.T.);
#171=EDGE_CURVE('',#140,#141,#106,.T.);
#172=EDGE_CURVE('',#141,#141,#45,.T.);
#173=EDGE_CURVE('',#142,#142,#46,.T.);
#174=EDGE_CURVE('',#142,#143,#107,.T.);
#175=EDGE_CURVE('',#143,#143,#47,.T.);
#176=EDGE_CURVE('',#144,#144,#48,.T.);
#177=EDGE_CURVE('',#144,#145,#108,.T.);
#178=EDGE_CURVE('',#145,#145,#49,.T.);
#179=ORIENTED_EDGE('',*,*,#146,.F.);
#180=ORIENTED_EDGE('',*,*,#147,.T.);
#181=ORIENTED_EDGE('',*,*,#148,.F.);
#182=ORIENTED_EDGE('',*,*,#149,.F.);
#183=ORIENTED_EDGE('',*,*,#150,.F.);
#184=ORIENTED_EDGE('',*,*,#149,.T.);
#185=ORIENTED_EDGE('',*,*,#151,.F.);
#186=ORIENTED_EDGE('',*,*,#152,.F.);
#187=ORIENTED_EDGE('',*,*,#153,.F.);
#188=ORIENTED_EDGE('',*,*,#154,.F.);
#189=ORIENTED_EDGE('',*,*,#152,.T.);
#190=ORIENTED_EDGE('',*,*,#155,.F.);
#191=ORIENTED_EDGE('',*,*,#156,.F.);
#192=ORIENTED_EDGE('',*,*,#157,.F.);
#193=ORIENTED_EDGE('',*,*,#156,.T.);
#194=ORIENTED_EDGE('',*,*,#158,.F.);
#195=ORIENTED_EDGE('',*,*,#147,.F.);
#196=ORIENTED_EDGE('',*,*,#159,.F.);
#197=ORIENTED_EDGE('',*,*,#159,.T.);
#198=ORIENTED_EDGE('',*,*,#160,.T.);
#199=ORIENTED_EDGE('',*,*,#161,.F.);
#200=ORIENTED_EDGE('',*,*,#160,.F.);
#201=ORIENTED_EDGE('',*,*,#153,.T.);
#202=ORIENTED_EDGE('',*,*,#162,.T.);
#203=ORIENTED_EDGE('',*,*,#163,.F.);
#204=ORIENTED_EDGE('',*,*,#162,.F.);
#205=ORIENTED_EDGE('',*,*,#164,.F.);
#206=ORIENTED_EDGE('',*,*,#164,.T.);
#207=ORIENTED_EDGE('',*,*,#165,.T.);
#208=ORIENTED_EDGE('',*,*,#166,.F.);
#209=ORIENTED_EDGE('',*,*,#165,.F.);
#210=ORIENTED_EDGE('',*,*,#167,.F.);
#211=ORIENTED_EDGE('',*,*,#167,.T.);
#212=ORIENTED_EDGE('',*,*,#168,.T.);
#213=ORIENTED_EDGE('',*,*,#169,.F.);
#214=ORIENTED_EDGE('',*,*,#168,.F.);
#215=ORIENTED_EDGE('',*,*,#170,.T.);
#216=ORIENTED_EDGE('',*,*,#171,.T.);
#217=ORIENTED_EDGE('',*,*,#172,.T.);
#218=ORIENTED_EDGE('',*,*,#171,.F.);
#219=ORIENTED_EDGE('',*,*,#154,.T.);
#220=ORIENTED_EDGE('',*,*,#157,.T.);
#221=ORIENTED_EDGE('',*,*,#146,.T.);
#222=ORIENTED_EDGE('',*,*,#150,.T.);
#223=ORIENTED_EDGE('',*,*,#173,.F.);
#224=ORIENTED_EDGE('',*,*,#174,.T.);
#225=ORIENTED_EDGE('',*,*,#175,.T.);
#226=ORIENTED_EDGE('',*,*,#174,.F.);
#227=ORIENTED_EDGE('',*,*,#155,.T.);
#228=ORIENTED_EDGE('',*,*,#151,.T.);
#229=ORIENTED_EDGE('',*,*,#148,.T.);
#230=ORIENTED_EDGE('',*,*,#158,.T.);
#231=ORIENTED_EDGE('',*,*,#175,.F.);
#232=ORIENTED_EDGE('',*,*,#172,.F.);
#233=ORIENTED_EDGE('',*,*,#169,.T.);
#234=ORIENTED_EDGE('',*,*,#166,.T.);
#235=ORIENTED_EDGE('',*,*,#163,.T.);
#236=ORIENTED_EDGE('',*,*,#161,.T.);
#237=ORIENTED_EDGE('',*,*,#176,.F.);
#238=ORIENTED_EDGE('',*,*,#177,.T.);
#239=ORIENTED_EDGE('',*,*,#178,.T.);
#240=ORIENTED_EDGE('',*,*,#177,.F.);
#241=ORIENTED_EDGE('',*,*,#173,.T.);
#242=ORIENTED_EDGE('',*,*,#176,.T.);
#243=ORIENTED_EDGE('',*,*,#170,.F.);
#244=ORIENTED_EDGE('',*,*,#178,.F.);
#245=PLANE('',#286);
#246=PLANE('',#287);
#247=PLANE('',#291);
#248=PLANE('',#292);
#249=PLANE('',#295);
#250=PLANE('',#301);
#251=PLANE('',#305);
#252=PLANE('',#315);
#253=PLANE('',#319);
#254=PLANE('',#320);
#255=ADVANCED_FACE('',(#50),#245,.F.);
#256=ADVANCED_FACE('',(#51,#22),#246,.F.);
#257=ADVANCED_FACE('',(#52),#247,.F.);
#258=ADVANCED_FACE('',(#53),#248,.F.);
#259=ADVANCED_FACE('',(#54),#249,.T.);
#260=ADVANCED_FACE('',(#55),#15,.F.);
#261=ADVANCED_FACE('',(#56),#16,.F.);
#262=ADVANCED_FACE('',(#57),#250,.T.);
#263=ADVANCED_FACE('',(#58),#17,.F.);
#264=ADVANCED_FACE('',(#59),#251,.T.);
#265=ADVANCED_FACE('',(#60),#18,.F.);
#266=ADVANCED_FACE('',(#61,#23),#19,.F.);
#267=ADVANCED_FACE('',(#62,#24),#20,.T.);
#268=ADVANCED_FACE('',(#63,#25,#26,#27,#28,#29),#252,.F.);
#269=ADVANCED_FACE('',(#64),#21,.F.);
#270=ADVANCED_FACE('',(#65,#30),#253,.T.);
#271=ADVANCED_FACE('',(#66,#31),#254,.F.);
#272=CLOSED_SHELL('',(#255,#256,#257,#258,#259,#260,#261,#262,#263,#264,
#265,#266,#267,#268,#269,#270,#271));
#273=DERIVED_UNIT_ELEMENT(#275,1.);
#274=DERIVED_UNIT_ELEMENT(#486,-3.);
#275=(
MASS_UNIT()
NAMED_UNIT(*)
SI_UNIT(.KILO.,.GRAM.)
);
#276=DERIVED_UNIT((#273,#274));
#277=MEASURE_REPRESENTATION_ITEM('density measure',
POSITIVE_RATIO_MEASURE(7850.),#276);
#278=PROPERTY_DEFINITION_REPRESENTATION(#283,#280);
#279=PROPERTY_DEFINITION_REPRESENTATION(#284,#281);
#280=REPRESENTATION('material name',(#282),#483);
#281=REPRESENTATION('density',(#277),#483);
#282=DESCRIPTIVE_REPRESENTATION_ITEM('Steel','Steel');
#283=PROPERTY_DEFINITION('material property','material name',#493);
#284=PROPERTY_DEFINITION('material property','density of part',#493);
#285=AXIS2_PLACEMENT_3D('',#408,#321,#322);
#286=AXIS2_PLACEMENT_3D('',#409,#323,#324);
#287=AXIS2_PLACEMENT_3D('',#418,#329,#330);
#288=AXIS2_PLACEMENT_3D('',#420,#331,#332);
#289=AXIS2_PLACEMENT_3D('',#422,#333,#334);
#290=AXIS2_PLACEMENT_3D('',#425,#336,#337);
#291=AXIS2_PLACEMENT_3D('',#426,#338,#339);
#292=AXIS2_PLACEMENT_3D('',#432,#343,#344);
#293=AXIS2_PLACEMENT_3D('',#433,#345,#346);
#294=AXIS2_PLACEMENT_3D('',#434,#347,#348);
#295=AXIS2_PLACEMENT_3D('',#435,#349,#350);
#296=AXIS2_PLACEMENT_3D('',#437,#351,#352);
#297=AXIS2_PLACEMENT_3D('',#438,#353,#354);
#298=AXIS2_PLACEMENT_3D('',#441,#356,#357);
#299=AXIS2_PLACEMENT_3D('',#442,#358,#359);
#300=AXIS2_PLACEMENT_3D('',#445,#361,#362);
#301=AXIS2_PLACEMENT_3D('',#446,#363,#364);
#302=AXIS2_PLACEMENT_3D('',#448,#365,#366);
#303=AXIS2_PLACEMENT_3D('',#449,#367,#368);
#304=AXIS2_PLACEMENT_3D('',#452,#370,#371);
#305=AXIS2_PLACEMENT_3D('',#453,#372,#373);
#306=AXIS2_PLACEMENT_3D('',#455,#374,#375);
#307=AXIS2_PLACEMENT_3D('',#456,#376,#377);
#308=AXIS2_PLACEMENT_3D('',#459,#379,#380);
#309=AXIS2_PLACEMENT_3D('',#460,#381,#382);
#310=AXIS2_PLACEMENT_3D('',#462,#383,#384);
#311=AXIS2_PLACEMENT_3D('',#465,#386,#387);
#312=AXIS2_PLACEMENT_3D('',#466,#388,#389);
#313=AXIS2_PLACEMENT_3D('',#468,#390,#391);
#314=AXIS2_PLACEMENT_3D('',#471,#393,#394);
#315=AXIS2_PLACEMENT_3D('',#472,#395,#396);
#316=AXIS2_PLACEMENT_3D('',#473,#397,#398);
#317=AXIS2_PLACEMENT_3D('',#475,#399,#400);
#318=AXIS2_PLACEMENT_3D('',#478,#402,#403);
#319=AXIS2_PLACEMENT_3D('',#479,#404,#405);
#320=AXIS2_PLACEMENT_3D('',#480,#406,#407);
#321=DIRECTION('axis',(0.,0.,1.));
#322=DIRECTION('refdir',(1.,0.,0.));
#323=DIRECTION('center_axis',(-1.,4.44089209850063E-16,6.84227765783628E-49));
#324=DIRECTION('ref_axis',(1.0263416486754E-47,2.46519032881566E-32,-1.));
#325=DIRECTION('',(0.,2.3147327031133E-32,-1.));
#326=DIRECTION('',(-4.44089209850063E-16,-1.,0.));
#327=DIRECTION('',(0.,-2.3147327031133E-32,1.));
#328=DIRECTION('',(-4.44089209850063E-16,-1.,0.));
#329=DIRECTION('center_axis',(4.76106482150088E-77,-2.11433751462526E-92,
-1.));
#330=DIRECTION('ref_axis',(1.,-4.16333634234433E-16,4.76106482150088E-77));
#331=DIRECTION('center_axis',(-4.76106482150088E-77,2.11433751462526E-92,
1.));
#332=DIRECTION('ref_axis',(-1.,7.67787964252976E-80,0.));
#333=DIRECTION('center_axis',(4.76106482150088E-77,-2.11433751462526E-92,
-1.));
#334=DIRECTION('ref_axis',(-1.,7.67787964252976E-80,0.));
#335=DIRECTION('',(-4.44089209850063E-16,-1.,0.));
#336=DIRECTION('center_axis',(-4.76106482150088E-77,2.11433751462526E-92,
1.));
#337=DIRECTION('ref_axis',(1.,0.,0.));
#338=DIRECTION('center_axis',(1.,-4.44089209850063E-16,-6.84227765783752E-49));
#339=DIRECTION('ref_axis',(-1.02634164867559E-47,-2.46519032881611E-32,
1.));
#340=DIRECTION('',(0.,-2.3147327031133E-32,1.));
#341=DIRECTION('',(0.,2.3147327031133E-32,-1.));
#342=DIRECTION('',(-4.44089209850063E-16,-1.,0.));
#343=DIRECTION('center_axis',(0.,0.,1.));
#344=DIRECTION('ref_axis',(-1.,4.16333634234433E-16,0.));
#345=DIRECTION('center_axis',(0.,0.,-1.));
#346=DIRECTION('ref_axis',(-1.,7.67787964252976E-80,0.));
#347=DIRECTION('center_axis',(0.,0.,1.));
#348=DIRECTION('ref_axis',(-1.,7.67787964252976E-80,0.));
#349=DIRECTION('center_axis',(0.,0.,-1.));
#350=DIRECTION('ref_axis',(1.,0.,0.));
#351=DIRECTION('center_axis',(0.,0.,1.));
#352=DIRECTION('ref_axis',(1.,0.,0.));
#353=DIRECTION('center_axis',(0.,0.,-1.));
#354=DIRECTION('ref_axis',(1.,0.,0.));
#355=DIRECTION('',(0.,0.,-1.));
#356=DIRECTION('center_axis',(4.02151383444913E-49,-2.46519032881566E-32,
1.));
#357=DIRECTION('ref_axis',(1.,0.,0.));
#358=DIRECTION('center_axis',(0.,0.,-1.));
#359=DIRECTION('ref_axis',(1.,0.,0.));
#360=DIRECTION('',(0.,0.,-1.));
#361=DIRECTION('center_axis',(4.02151383444913E-49,-2.46519032881566E-32,
1.));
#362=DIRECTION('ref_axis',(1.,0.,0.));
#363=DIRECTION('center_axis',(0.,0.,-1.));
#364=DIRECTION('ref_axis',(1.,0.,0.));
#365=DIRECTION('center_axis',(0.,0.,1.));
#366=DIRECTION('ref_axis',(1.,0.,0.));
#367=DIRECTION('center_axis',(0.,0.,-1.));
#368=DIRECTION('ref_axis',(1.,0.,0.));
#369=DIRECTION('',(0.,0.,-1.));
#370=DIRECTION('center_axis',(4.02151383444913E-49,-2.46519032881566E-32,
1.));
#371=DIRECTION('ref_axis',(1.,0.,0.));
#372=DIRECTION('center_axis',(0.,0.,-1.));
#373=DIRECTION('ref_axis',(1.,0.,0.));
#374=DIRECTION('center_axis',(0.,0.,1.));
#375=DIRECTION('ref_axis',(1.,0.,0.));
#376=DIRECTION('center_axis',(0.,0.,-1.));
#377=DIRECTION('ref_axis',(1.,0.,0.));
#378=DIRECTION('',(0.,0.,-1.));
#379=DIRECTION('center_axis',(4.02151383444913E-49,-2.46519032881566E-32,
1.));
#380=DIRECTION('ref_axis',(1.,0.,0.));
#381=DIRECTION('center_axis',(0.,-2.3147327031133E-32,1.));
#382=DIRECTION('ref_axis',(-1.,7.67787964252976E-80,0.));
#383=DIRECTION('center_axis',(0.,0.,1.));
#384=DIRECTION('ref_axis',(-1.,7.67787964252976E-80,0.));
#385=DIRECTION('',(0.,2.3147327031133E-32,-1.));
#386=DIRECTION('center_axis',(-4.02151383444913E-49,2.46519032881566E-32,
-1.));
#387=DIRECTION('ref_axis',(-1.,6.74700668366756E-80,4.02151383444913E-49));
#388=DIRECTION('center_axis',(0.,-2.3147327031133E-32,1.));
#389=DIRECTION('ref_axis',(-1.,7.67787964252976E-80,0.));
#390=DIRECTION('center_axis',(4.02151383444913E-49,-2.46519032881566E-32,
1.));
#391=DIRECTION('ref_axis',(-1.,6.74700668366756E-80,4.02151383444913E-49));
#392=DIRECTION('',(0.,2.3147327031133E-32,-1.));
#393=DIRECTION('center_axis',(4.02151383444913E-49,-2.46519032881566E-32,
1.));
#394=DIRECTION('ref_axis',(-1.,6.74700668366756E-80,4.02151383444913E-49));
#395=DIRECTION('center_axis',(4.02151383444913E-49,-2.46519032881566E-32,
1.));
#396=DIRECTION('ref_axis',(-1.,6.74700668366756E-80,4.02151383444913E-49));
#397=DIRECTION('center_axis',(0.,0.,1.));
#398=DIRECTION('ref_axis',(-1.,0.,0.));
#399=DIRECTION('center_axis',(0.,0.,-1.));
#400=DIRECTION('ref_axis',(-1.,0.,0.));
#401=DIRECTION('',(0.,0.,-1.));
#402=DIRECTION('center_axis',(0.,0.,-1.));
#403=DIRECTION('ref_axis',(-1.,0.,0.));
#404=DIRECTION('center_axis',(0.,0.,1.));
#405=DIRECTION('ref_axis',(-1.,0.,0.));
#406=DIRECTION('center_axis',(0.,0.,1.));
#407=DIRECTION('ref_axis',(-1.,0.,0.));
#408=CARTESIAN_POINT('',(0.,0.,0.));
#409=CARTESIAN_POINT('Origin',(-53.48939734595,-21.,21.1768006132444));
#410=CARTESIAN_POINT('',(-53.48939734595,-26.7281160163521,21.1768006132444));
#411=CARTESIAN_POINT('',(-53.48939734595,-26.7281160163521,6.17680061324438));
#412=CARTESIAN_POINT('',(-53.48939734595,-26.7281160163521,5.));
#413=CARTESIAN_POINT('',(-53.48939734595,-35.4703000520658,21.1768006132444));
#414=CARTESIAN_POINT('',(-53.48939734595,-21.,21.1768006132444));
#415=CARTESIAN_POINT('',(-53.48939734595,-35.4703000520658,6.17680061324438));
#416=CARTESIAN_POINT('',(-53.48939734595,-35.4703000520658,5.));
#417=CARTESIAN_POINT('',(-53.48939734595,-21.,6.17680061324438));
#418=CARTESIAN_POINT('Origin',(-53.48939734595,-21.,6.17680061324438));
#419=CARTESIAN_POINT('',(-18.48939734595,-27.993749302301,6.17680061324438));
#420=CARTESIAN_POINT('Origin',(-35.,1.11022302462517E-15,6.17680061324438));
#421=CARTESIAN_POINT('',(-18.48939734595,-36.4335010670135,6.17680061324438));
#422=CARTESIAN_POINT('Origin',(-35.,1.11022302462517E-15,6.17680061324438));
#423=CARTESIAN_POINT('',(-18.48939734595,-21.0000000000001,6.17680061324438));
#424=CARTESIAN_POINT('',(-37.,-36.,6.17680061324438));
#425=CARTESIAN_POINT('Origin',(-35.,-36.,6.17680061324438));
#426=CARTESIAN_POINT('Origin',(-18.48939734595,-21.0000000000001,6.17680061324438));
#427=CARTESIAN_POINT('',(-18.48939734595,-27.993749302301,21.1768006132444));
#428=CARTESIAN_POINT('',(-18.48939734595,-27.993749302301,5.));
#429=CARTESIAN_POINT('',(-18.48939734595,-36.4335010670135,21.1768006132444));
#430=CARTESIAN_POINT('',(-18.48939734595,-36.4335010670135,5.));
#431=CARTESIAN_POINT('',(-18.48939734595,-21.0000000000001,21.1768006132444));
#432=CARTESIAN_POINT('Origin',(-18.48939734595,-21.0000000000001,21.1768006132444));
#433=CARTESIAN_POINT('Origin',(-35.,1.11022302462517E-15,21.1768006132444));
#434=CARTESIAN_POINT('Origin',(-35.,1.11022302462517E-15,21.1768006132444));
#435=CARTESIAN_POINT('Origin',(-71.,-8.88178419700125E-15,10.));
#436=CARTESIAN_POINT('',(-73.,-8.63685483717178E-15,10.));
#437=CARTESIAN_POINT('Origin',(-71.,-8.88178419700125E-15,10.));
#438=CARTESIAN_POINT('Origin',(-71.,-8.88178419700125E-15,5.));
#439=CARTESIAN_POINT('',(-73.,-9.12671355683072E-15,5.));
#440=CARTESIAN_POINT('',(-73.,-8.63685483717178E-15,5.));
#441=CARTESIAN_POINT('Origin',(-71.,-8.88178419700125E-15,5.));
#442=CARTESIAN_POINT('Origin',(-35.,-36.,5.));
#443=CARTESIAN_POINT('',(-37.,-36.,5.));
#444=CARTESIAN_POINT('',(-37.,-36.,5.));
#445=CARTESIAN_POINT('Origin',(-35.,-36.,5.));
#446=CARTESIAN_POINT('Origin',(-35.,36.,10.));
#447=CARTESIAN_POINT('',(-37.,36.,10.));
#448=CARTESIAN_POINT('Origin',(-35.,36.,10.));
#449=CARTESIAN_POINT('Origin',(-35.,36.,5.));
#450=CARTESIAN_POINT('',(-37.,36.,5.));
#451=CARTESIAN_POINT('',(-37.,36.,5.));
#452=CARTESIAN_POINT('Origin',(-35.,36.,5.));
#453=CARTESIAN_POINT('Origin',(0.999999999999983,2.66453525910038E-14,10.));
#454=CARTESIAN_POINT('',(-1.00000000000002,2.68902819508332E-14,10.));
#455=CARTESIAN_POINT('Origin',(0.999999999999983,2.66453525910038E-14,10.));
#456=CARTESIAN_POINT('Origin',(0.999999999999983,2.66453525910038E-14,5.));
#457=CARTESIAN_POINT('',(-1.00000000000002,2.64004232311743E-14,5.));
#458=CARTESIAN_POINT('',(-1.00000000000002,2.68902819508332E-14,5.));
#459=CARTESIAN_POINT('Origin',(0.999999999999983,2.66453525910038E-14,5.));
#460=CARTESIAN_POINT('Origin',(-35.,1.11022302462517E-15,5.));
#461=CARTESIAN_POINT('',(-2.50000000000001,5.09032512185407E-15,88.2));
#462=CARTESIAN_POINT('Origin',(-35.,1.11022302462517E-15,88.2));
#463=CARTESIAN_POINT('',(-2.50000000000002,5.09032512185407E-15,5.));
#464=CARTESIAN_POINT('',(-2.50000000000002,5.09032512185407E-15,5.));
#465=CARTESIAN_POINT('Origin',(-35.,1.11022302462517E-15,5.));
#466=CARTESIAN_POINT('Origin',(-35.,1.11022302462517E-15,5.));
#467=CARTESIAN_POINT('',(4.99999999999998,6.00881022121458E-15,90.2));
#468=CARTESIAN_POINT('Origin',(-35.,1.11022302462517E-15,90.2));
#469=CARTESIAN_POINT('',(4.99999999999998,6.00881022121458E-15,5.));
#470=CARTESIAN_POINT('',(4.99999999999998,6.00881022121458E-15,5.));
#471=CARTESIAN_POINT('Origin',(-35.,1.11022302462517E-15,5.));
#472=CARTESIAN_POINT('Origin',(-35.,-2.46519032881566E-31,5.));
#473=CARTESIAN_POINT('Origin',(-35.,-1.38777878078145E-14,88.2));
#474=CARTESIAN_POINT('',(-22.5,-1.23469793088803E-14,90.2));
#475=CARTESIAN_POINT('Origin',(-35.,-1.38777878078145E-14,90.2));
#476=CARTESIAN_POINT('',(-22.5,-1.23469793088803E-14,88.2));
#477=CARTESIAN_POINT('',(-22.5,-1.23469793088803E-14,88.2));
#478=CARTESIAN_POINT('Origin',(-35.,-1.38777878078145E-14,88.2));
#479=CARTESIAN_POINT('Origin',(-35.,-1.33226762955019E-14,90.2));
#480=CARTESIAN_POINT('Origin',(-35.,-1.33226762955019E-14,88.2));
#481=UNCERTAINTY_MEASURE_WITH_UNIT(LENGTH_MEASURE(0.01),#485,
'DISTANCE_ACCURACY_VALUE',
'Maximum model space distance between geometric entities at asserted c
onnectivities');
#482=UNCERTAINTY_MEASURE_WITH_UNIT(LENGTH_MEASURE(0.01),#485,
'DISTANCE_ACCURACY_VALUE',
'Maximum model space distance between geometric entities at asserted c
onnectivities');
#483=(
GEOMETRIC_REPRESENTATION_CONTEXT(3)
GLOBAL_UNCERTAINTY_ASSIGNED_CONTEXT((#481))
GLOBAL_UNIT_ASSIGNED_CONTEXT((#485,#487,#488))
REPRESENTATION_CONTEXT('','3D')
);
#484=(
GEOMETRIC_REPRESENTATION_CONTEXT(3)
GLOBAL_UNCERTAINTY_ASSIGNED_CONTEXT((#482))
GLOBAL_UNIT_ASSIGNED_CONTEXT((#485,#487,#488))
REPRESENTATION_CONTEXT('','3D')
);
#485=(
LENGTH_UNIT()
NAMED_UNIT(*)
SI_UNIT(.MILLI.,.METRE.)
);
#486=(
LENGTH_UNIT()
NAMED_UNIT(*)
SI_UNIT($,.METRE.)
);
#487=(
NAMED_UNIT(*)
PLANE_ANGLE_UNIT()
SI_UNIT($,.RADIAN.)
);
#488=(
NAMED_UNIT(*)
SI_UNIT($,.STERADIAN.)
SOLID_ANGLE_UNIT()
);
#489=SHAPE_DEFINITION_REPRESENTATION(#490,#491);
#490=PRODUCT_DEFINITION_SHAPE('',$,#493);
#491=SHAPE_REPRESENTATION('',(#285),#483);
#492=PRODUCT_DEFINITION_CONTEXT('part definition',#497,'design');
#493=PRODUCT_DEFINITION('J1PlanetaryMount','J1PlanetaryMount',#494,#492);
#494=PRODUCT_DEFINITION_FORMATION('',$,#499);
#495=PRODUCT_RELATED_PRODUCT_CATEGORY('J1PlanetaryMount',
'J1PlanetaryMount',(#499));
#496=APPLICATION_PROTOCOL_DEFINITION('international standard',
'automotive_design',2009,#497);
#497=APPLICATION_CONTEXT(
'Core Data for Automotive Mechanical Design Process');
#498=PRODUCT_CONTEXT('part definition',#497,'mechanical');
#499=PRODUCT('J1PlanetaryMount','J1PlanetaryMount',$,(#498));
#500=PRESENTATION_STYLE_ASSIGNMENT((#501));
#501=SURFACE_STYLE_USAGE(.BOTH.,#502);
#502=SURFACE_SIDE_STYLE('',(#503));
#503=SURFACE_STYLE_FILL_AREA(#504);
#504=FILL_AREA_STYLE('Steel - Satin',(#505));
#505=FILL_AREA_STYLE_COLOUR('Steel - Satin',#506);
#506=COLOUR_RGB('Steel - Satin',0.627450980392157,0.627450980392157,0.627450980392157);
ENDSEC;
END-ISO-10303-21;
