ISO-10303-21;
HEADER;
/* Generated by software containing ST-Developer
 * from STEP Tools, Inc. (www.steptools.com) 
 */

FILE_DESCRIPTION(
/* description */ (''),
/* implementation_level */ '2;1');

FILE_NAME(
/* name */ 'J4Cover.step',
/* time_stamp */ '2026-08-05T16:40:44-05:00',
/* author */ (''),
/* organization */ (''),
/* preprocessor_version */ 'ST-DEVELOPER v20.1',
/* originating_system */ 'Autodesk Translation Framework v15.8.0.0',
/* authorisation */ '');

FILE_SCHEMA (('AUTOMOTIVE_DESIGN { 1 0 10303 214 3 1 1 }'));
ENDSEC;

DATA;
#10=MECHANICAL_DESIGN_GEOMETRIC_PRESENTATION_REPRESENTATION('',(#13),#269);
#11=SHAPE_REPRESENTATION_RELATIONSHIP('SRR','None',#276,#12);
#12=ADVANCED_BREP_SHAPE_REPRESENTATION('',(#14),#268);
#13=STYLED_ITEM('',(#285),#14);
#14=MANIFOLD_SOLID_BREP('Body1',#153);
#15=FACE_BOUND('',#40,.T.);
#16=FACE_BOUND('',#41,.T.);
#17=FACE_BOUND('',#42,.T.);
#18=FACE_BOUND('',#44,.T.);
#19=FACE_BOUND('',#45,.T.);
#20=FACE_BOUND('',#46,.T.);
#21=PLANE('',#176);
#22=PLANE('',#177);
#23=PLANE('',#181);
#24=PLANE('',#182);
#25=FACE_OUTER_BOUND('',#33,.T.);
#26=FACE_OUTER_BOUND('',#34,.T.);
#27=FACE_OUTER_BOUND('',#35,.T.);
#28=FACE_OUTER_BOUND('',#36,.T.);
#29=FACE_OUTER_BOUND('',#37,.T.);
#30=FACE_OUTER_BOUND('',#38,.T.);
#31=FACE_OUTER_BOUND('',#39,.T.);
#32=FACE_OUTER_BOUND('',#43,.T.);
#33=EDGE_LOOP('',(#105,#106,#107,#108));
#34=EDGE_LOOP('',(#109,#110,#111,#112));
#35=EDGE_LOOP('',(#113,#114,#115,#116));
#36=EDGE_LOOP('',(#117,#118,#119,#120));
#37=EDGE_LOOP('',(#121,#122,#123,#124));
#38=EDGE_LOOP('',(#125,#126,#127,#128));
#39=EDGE_LOOP('',(#129,#130,#131));
#40=EDGE_LOOP('',(#132));
#41=EDGE_LOOP('',(#133));
#42=EDGE_LOOP('',(#134));
#43=EDGE_LOOP('',(#135,#136,#137));
#44=EDGE_LOOP('',(#138));
#45=EDGE_LOOP('',(#139));
#46=EDGE_LOOP('',(#140));
#47=LINE('',#232,#57);
#48=LINE('',#238,#58);
#49=LINE('',#244,#59);
#50=LINE('',#249,#60);
#51=LINE('',#251,#61);
#52=LINE('',#253,#62);
#53=LINE('',#254,#63);
#54=LINE('',#257,#64);
#55=LINE('',#259,#65);
#56=LINE('',#260,#66);
#57=VECTOR('',#189,1.50000000000002);
#58=VECTOR('',#196,1.50000000000002);
#59=VECTOR('',#203,1.50000000000002);
#60=VECTOR('',#208,10.);
#61=VECTOR('',#209,10.);
#62=VECTOR('',#210,10.);
#63=VECTOR('',#211,10.);
#64=VECTOR('',#214,10.);
#65=VECTOR('',#215,10.);
#66=VECTOR('',#216,10.);
#67=CIRCLE('',#168,1.50000000000002);
#68=CIRCLE('',#169,1.50000000000002);
#69=CIRCLE('',#171,1.50000000000002);
#70=CIRCLE('',#172,1.50000000000002);
#71=CIRCLE('',#174,1.50000000000002);
#72=CIRCLE('',#175,1.50000000000002);
#73=CIRCLE('',#179,20.);
#74=CIRCLE('',#180,20.);
#75=VERTEX_POINT('',#229);
#76=VERTEX_POINT('',#231);
#77=VERTEX_POINT('',#235);
#78=VERTEX_POINT('',#237);
#79=VERTEX_POINT('',#241);
#80=VERTEX_POINT('',#243);
#81=VERTEX_POINT('',#247);
#82=VERTEX_POINT('',#248);
#83=VERTEX_POINT('',#250);
#84=VERTEX_POINT('',#252);
#85=VERTEX_POINT('',#256);
#86=VERTEX_POINT('',#258);
#87=EDGE_CURVE('',#75,#75,#67,.T.);
#88=EDGE_CURVE('',#75,#76,#47,.T.);
#89=EDGE_CURVE('',#76,#76,#68,.T.);
#90=EDGE_CURVE('',#77,#77,#69,.T.);
#91=EDGE_CURVE('',#77,#78,#48,.T.);
#92=EDGE_CURVE('',#78,#78,#70,.T.);
#93=EDGE_CURVE('',#79,#79,#71,.T.);
#94=EDGE_CURVE('',#79,#80,#49,.T.);
#95=EDGE_CURVE('',#80,#80,#72,.T.);
#96=EDGE_CURVE('',#81,#82,#50,.T.);
#97=EDGE_CURVE('',#81,#83,#51,.T.);
#98=EDGE_CURVE('',#84,#83,#52,.T.);
#99=EDGE_CURVE('',#82,#84,#53,.T.);
#100=EDGE_CURVE('',#82,#85,#54,.T.);
#101=EDGE_CURVE('',#86,#84,#55,.T.);
#102=EDGE_CURVE('',#85,#86,#56,.T.);
#103=EDGE_CURVE('',#85,#81,#73,.T.);
#104=EDGE_CURVE('',#83,#86,#74,.T.);
#105=ORIENTED_EDGE('',*,*,#87,.F.);
#106=ORIENTED_EDGE('',*,*,#88,.T.);
#107=ORIENTED_EDGE('',*,*,#89,.F.);
#108=ORIENTED_EDGE('',*,*,#88,.F.);
#109=ORIENTED_EDGE('',*,*,#90,.F.);
#110=ORIENTED_EDGE('',*,*,#91,.T.);
#111=ORIENTED_EDGE('',*,*,#92,.F.);
#112=ORIENTED_EDGE('',*,*,#91,.F.);
#113=ORIENTED_EDGE('',*,*,#93,.F.);
#114=ORIENTED_EDGE('',*,*,#94,.T.);
#115=ORIENTED_EDGE('',*,*,#95,.F.);
#116=ORIENTED_EDGE('',*,*,#94,.F.);
#117=ORIENTED_EDGE('',*,*,#96,.F.);
#118=ORIENTED_EDGE('',*,*,#97,.T.);
#119=ORIENTED_EDGE('',*,*,#98,.F.);
#120=ORIENTED_EDGE('',*,*,#99,.F.);
#121=ORIENTED_EDGE('',*,*,#100,.F.);
#122=ORIENTED_EDGE('',*,*,#99,.T.);
#123=ORIENTED_EDGE('',*,*,#101,.F.);
#124=ORIENTED_EDGE('',*,*,#102,.F.);
#125=ORIENTED_EDGE('',*,*,#103,.F.);
#126=ORIENTED_EDGE('',*,*,#102,.T.);
#127=ORIENTED_EDGE('',*,*,#104,.F.);
#128=ORIENTED_EDGE('',*,*,#97,.F.);
#129=ORIENTED_EDGE('',*,*,#103,.T.);
#130=ORIENTED_EDGE('',*,*,#96,.T.);
#131=ORIENTED_EDGE('',*,*,#100,.T.);
#132=ORIENTED_EDGE('',*,*,#87,.T.);
#133=ORIENTED_EDGE('',*,*,#90,.T.);
#134=ORIENTED_EDGE('',*,*,#93,.T.);
#135=ORIENTED_EDGE('',*,*,#104,.T.);
#136=ORIENTED_EDGE('',*,*,#101,.T.);
#137=ORIENTED_EDGE('',*,*,#98,.T.);
#138=ORIENTED_EDGE('',*,*,#89,.T.);
#139=ORIENTED_EDGE('',*,*,#92,.T.);
#140=ORIENTED_EDGE('',*,*,#95,.T.);
#141=CYLINDRICAL_SURFACE('',#167,1.50000000000002);
#142=CYLINDRICAL_SURFACE('',#170,1.50000000000002);
#143=CYLINDRICAL_SURFACE('',#173,1.50000000000002);
#144=CYLINDRICAL_SURFACE('',#178,20.);
#145=ADVANCED_FACE('',(#25),#141,.F.);
#146=ADVANCED_FACE('',(#26),#142,.F.);
#147=ADVANCED_FACE('',(#27),#143,.F.);
#148=ADVANCED_FACE('',(#28),#21,.T.);
#149=ADVANCED_FACE('',(#29),#22,.T.);
#150=ADVANCED_FACE('',(#30),#144,.T.);
#151=ADVANCED_FACE('',(#31,#15,#16,#17),#23,.T.);
#152=ADVANCED_FACE('',(#32,#18,#19,#20),#24,.F.);
#153=CLOSED_SHELL('',(#145,#146,#147,#148,#149,#150,#151,#152));
#154=DERIVED_UNIT_ELEMENT(#156,1.);
#155=DERIVED_UNIT_ELEMENT(#271,-3.);
#156=(
MASS_UNIT()
NAMED_UNIT(*)
SI_UNIT(.KILO.,.GRAM.)
);
#157=DERIVED_UNIT((#154,#155));
#158=MEASURE_REPRESENTATION_ITEM('density measure',
POSITIVE_RATIO_MEASURE(7850.),#157);
#159=PROPERTY_DEFINITION_REPRESENTATION(#164,#161);
#160=PROPERTY_DEFINITION_REPRESENTATION(#165,#162);
#161=REPRESENTATION('material name',(#163),#268);
#162=REPRESENTATION('density',(#158),#268);
#163=DESCRIPTIVE_REPRESENTATION_ITEM('Steel','Steel');
#164=PROPERTY_DEFINITION('material property','material name',#278);
#165=PROPERTY_DEFINITION('material property','density of part',#278);
#166=AXIS2_PLACEMENT_3D('',#227,#183,#184);
#167=AXIS2_PLACEMENT_3D('',#228,#185,#186);
#168=AXIS2_PLACEMENT_3D('',#230,#187,#188);
#169=AXIS2_PLACEMENT_3D('',#233,#190,#191);
#170=AXIS2_PLACEMENT_3D('',#234,#192,#193);
#171=AXIS2_PLACEMENT_3D('',#236,#194,#195);
#172=AXIS2_PLACEMENT_3D('',#239,#197,#198);
#173=AXIS2_PLACEMENT_3D('',#240,#199,#200);
#174=AXIS2_PLACEMENT_3D('',#242,#201,#202);
#175=AXIS2_PLACEMENT_3D('',#245,#204,#205);
#176=AXIS2_PLACEMENT_3D('',#246,#206,#207);
#177=AXIS2_PLACEMENT_3D('',#255,#212,#213);
#178=AXIS2_PLACEMENT_3D('',#261,#217,#218);
#179=AXIS2_PLACEMENT_3D('',#262,#219,#220);
#180=AXIS2_PLACEMENT_3D('',#263,#221,#222);
#181=AXIS2_PLACEMENT_3D('',#264,#223,#224);
#182=AXIS2_PLACEMENT_3D('',#265,#225,#226);
#183=DIRECTION('axis',(0.,0.,1.));
#184=DIRECTION('refdir',(1.,0.,0.));
#185=DIRECTION('center_axis',(0.,-1.,0.));
#186=DIRECTION('ref_axis',(-1.,0.,0.));
#187=DIRECTION('center_axis',(4.20155657513835E-18,-1.,-1.03660935179189E-16));
#188=DIRECTION('ref_axis',(-1.,0.,0.));
#189=DIRECTION('',(0.,-1.,0.));
#190=DIRECTION('center_axis',(-4.20155657513835E-18,1.,1.03660935179189E-16));
#191=DIRECTION('ref_axis',(-1.,0.,0.));
#192=DIRECTION('center_axis',(0.,-1.,0.));
#193=DIRECTION('ref_axis',(-1.,0.,0.));
#194=DIRECTION('center_axis',(4.20155657513835E-18,-1.,-1.03660935179189E-16));
#195=DIRECTION('ref_axis',(-1.,0.,0.));
#196=DIRECTION('',(0.,-1.,0.));
#197=DIRECTION('center_axis',(-4.20155657513835E-18,1.,1.03660935179189E-16));
#198=DIRECTION('ref_axis',(-1.,0.,0.));
#199=DIRECTION('center_axis',(0.,-1.,0.));
#200=DIRECTION('ref_axis',(-1.,0.,0.));
#201=DIRECTION('center_axis',(4.20155657513835E-18,-1.,-1.03660935179189E-16));
#202=DIRECTION('ref_axis',(-1.,0.,0.));
#203=DIRECTION('',(0.,-1.,0.));
#204=DIRECTION('center_axis',(-4.20155657513835E-18,1.,1.03660935179189E-16));
#205=DIRECTION('ref_axis',(-1.,0.,0.));
#206=DIRECTION('center_axis',(0.996194698091777,0.,-0.0871557427473017));
#207=DIRECTION('ref_axis',(0.0871557427473017,8.12201822177341E-18,0.996194698091777));
#208=DIRECTION('',(-0.0871557427473017,-8.12201822177341E-18,-0.996194698091777));
#209=DIRECTION('',(0.,-1.,0.));
#210=DIRECTION('',(0.0871557427473017,8.12201822177341E-18,0.996194698091777));
#211=DIRECTION('',(0.,-1.,0.));
#212=DIRECTION('center_axis',(0.0871557427476582,0.,0.996194698091746));
#213=DIRECTION('ref_axis',(-0.996194698091746,-3.78918369527927E-17,0.0871557427476582));
#214=DIRECTION('',(0.996194698091746,3.78918369527927E-17,-0.0871557427476582));
#215=DIRECTION('',(-0.996194698091746,-3.78918369527927E-17,0.0871557427476582));
#216=DIRECTION('',(0.,-1.,0.));
#217=DIRECTION('center_axis',(0.,-1.,0.));
#218=DIRECTION('ref_axis',(-0.136856464798115,0.,-0.990590888330274));
#219=DIRECTION('center_axis',(-1.38777878078145E-17,1.,-6.93889390390723E-18));
#220=DIRECTION('ref_axis',(-1.,-1.38777878078145E-17,0.));
#221=DIRECTION('center_axis',(1.38777878078145E-17,-1.,6.93889390390723E-18));
#222=DIRECTION('ref_axis',(-1.,-1.38777878078145E-17,0.));
#223=DIRECTION('center_axis',(-4.20155657513835E-18,1.,1.03660935179189E-16));
#224=DIRECTION('ref_axis',(-1.,-4.20155657513835E-18,-6.7142341913213E-35));
#225=DIRECTION('center_axis',(-4.20155657513835E-18,1.,1.03660935179189E-16));
#226=DIRECTION('ref_axis',(-1.,-4.20155657513835E-18,-6.7142341913213E-35));
#227=CARTESIAN_POINT('',(0.,0.,0.));
#228=CARTESIAN_POINT('Origin',(285.07079245401,16.7378544671874,175.734933355083));
#229=CARTESIAN_POINT('',(286.57079245401,16.7378544671874,175.734933355083));
#230=CARTESIAN_POINT('Origin',(285.07079245401,16.7378544671874,175.734933355083));
#231=CARTESIAN_POINT('',(286.57079245401,11.7378544671874,175.734933355083));
#232=CARTESIAN_POINT('',(286.57079245401,16.7378544671874,175.734933355083));
#233=CARTESIAN_POINT('Origin',(285.07079245401,11.7378544671874,175.734933355083));
#234=CARTESIAN_POINT('Origin',(272.015339210028,16.7378544671874,198.3476416895));
#235=CARTESIAN_POINT('',(273.515339210028,16.7378544671874,198.3476416895));
#236=CARTESIAN_POINT('Origin',(272.015339210028,16.7378544671874,198.3476416895));
#237=CARTESIAN_POINT('',(273.515339210028,11.7378544671874,198.3476416895));
#238=CARTESIAN_POINT('',(273.515339210028,16.7378544671874,198.3476416895));
#239=CARTESIAN_POINT('Origin',(272.015339210028,11.7378544671874,198.3476416895));
#240=CARTESIAN_POINT('Origin',(298.126245697992,16.7378544671874,198.3476416895));
#241=CARTESIAN_POINT('',(299.626245697992,16.7378544671874,198.3476416895));
#242=CARTESIAN_POINT('Origin',(298.126245697992,16.7378544671874,198.3476416895));
#243=CARTESIAN_POINT('',(299.626245697992,11.7378544671874,198.3476416895));
#244=CARTESIAN_POINT('',(299.626245697992,16.7378544671874,198.3476416895));
#245=CARTESIAN_POINT('Origin',(298.126245697992,11.7378544671874,198.3476416895));
#246=CARTESIAN_POINT('Origin',(286.805191734688,16.7378544671874,210.63434673672));
#247=CARTESIAN_POINT('',(286.813907308963,16.7378544671874,210.733966206529));
#248=CARTESIAN_POINT('',(286.805191734688,16.7378544671874,210.63434673672));
#249=CARTESIAN_POINT('',(286.813907308963,16.7378544671874,210.733966206529));
#250=CARTESIAN_POINT('',(286.813907308963,11.7378544671874,210.733966206529));
#251=CARTESIAN_POINT('',(286.813907308963,16.7378544671874,210.733966206529));
#252=CARTESIAN_POINT('',(286.805191734688,11.7378544671874,210.63434673672));
#253=CARTESIAN_POINT('',(286.813907308963,11.7378544671874,210.733966206529));
#254=CARTESIAN_POINT('',(286.805191734688,16.7378544671874,210.63434673672));
#255=CARTESIAN_POINT('Origin',(288.795089085623,16.7378544671874,210.460253276933));
#256=CARTESIAN_POINT('',(288.795089085623,16.7378544671874,210.460253276933));
#257=CARTESIAN_POINT('',(286.805191734688,16.7378544671874,210.63434673672));
#258=CARTESIAN_POINT('',(288.795089085623,11.7378544671874,210.460253276933));
#259=CARTESIAN_POINT('',(286.805191734688,11.7378544671874,210.63434673672));
#260=CARTESIAN_POINT('',(288.795089085623,16.7378544671874,210.460253276933));
#261=CARTESIAN_POINT('Origin',(285.07079245401,16.7378544671874,190.810072244694));
#262=CARTESIAN_POINT('Origin',(285.07079245401,16.7378544671874,190.810072244694));
#263=CARTESIAN_POINT('Origin',(285.07079245401,11.7378544671874,190.810072244694));
#264=CARTESIAN_POINT('Origin',(285.07079245401,16.7378544671874,190.810072244694));
#265=CARTESIAN_POINT('Origin',(285.07079245401,11.7378544671874,190.810072244694));
#266=UNCERTAINTY_MEASURE_WITH_UNIT(LENGTH_MEASURE(0.01),#270,
'DISTANCE_ACCURACY_VALUE',
'Maximum model space distance between geometric entities at asserted c
onnectivities');
#267=UNCERTAINTY_MEASURE_WITH_UNIT(LENGTH_MEASURE(0.01),#270,
'DISTANCE_ACCURACY_VALUE',
'Maximum model space distance between geometric entities at asserted c
onnectivities');
#268=(
GEOMETRIC_REPRESENTATION_CONTEXT(3)
GLOBAL_UNCERTAINTY_ASSIGNED_CONTEXT((#266))
GLOBAL_UNIT_ASSIGNED_CONTEXT((#270,#272,#273))
REPRESENTATION_CONTEXT('','3D')
);
#269=(
GEOMETRIC_REPRESENTATION_CONTEXT(3)
GLOBAL_UNCERTAINTY_ASSIGNED_CONTEXT((#267))
GLOBAL_UNIT_ASSIGNED_CONTEXT((#270,#272,#273))
REPRESENTATION_CONTEXT('','3D')
);
#270=(
LENGTH_UNIT()
NAMED_UNIT(*)
SI_UNIT(.MILLI.,.METRE.)
);
#271=(
LENGTH_UNIT()
NAMED_UNIT(*)
SI_UNIT($,.METRE.)
);
#272=(
NAMED_UNIT(*)
PLANE_ANGLE_UNIT()
SI_UNIT($,.RADIAN.)
);
#273=(
NAMED_UNIT(*)
SI_UNIT($,.STERADIAN.)
SOLID_ANGLE_UNIT()
);
#274=SHAPE_DEFINITION_REPRESENTATION(#275,#276);
#275=PRODUCT_DEFINITION_SHAPE('',$,#278);
#276=SHAPE_REPRESENTATION('',(#166),#268);
#277=PRODUCT_DEFINITION_CONTEXT('part definition',#282,'design');
#278=PRODUCT_DEFINITION('J4Cover','J4Cover',#279,#277);
#279=PRODUCT_DEFINITION_FORMATION('',$,#284);
#280=PRODUCT_RELATED_PRODUCT_CATEGORY('J4Cover','J4Cover',(#284));
#281=APPLICATION_PROTOCOL_DEFINITION('international standard',
'automotive_design',2009,#282);
#282=APPLICATION_CONTEXT(
'Core Data for Automotive Mechanical Design Process');
#283=PRODUCT_CONTEXT('part definition',#282,'mechanical');
#284=PRODUCT('J4Cover','J4Cover',$,(#283));
#285=PRESENTATION_STYLE_ASSIGNMENT((#286));
#286=SURFACE_STYLE_USAGE(.BOTH.,#287);
#287=SURFACE_SIDE_STYLE('',(#288));
#288=SURFACE_STYLE_FILL_AREA(#289);
#289=FILL_AREA_STYLE('Steel - Satin',(#290));
#290=FILL_AREA_STYLE_COLOUR('Steel - Satin',#291);
#291=COLOUR_RGB('Steel - Satin',0.627450980392157,0.627450980392157,0.627450980392157);
ENDSEC;
END-ISO-10303-21;
