ISO-10303-21;
HEADER;
/* Generated by software containing ST-Developer
 * from STEP Tools, Inc. (www.steptools.com) 
 */

FILE_DESCRIPTION(
/* description */ (''),
/* implementation_level */ '2;1');

FILE_NAME(
/* name */ 'SecondaryElectricsBox.step',
/* time_stamp */ '2026-08-05T16:40:28-05:00',
/* author */ (''),
/* organization */ (''),
/* preprocessor_version */ 'ST-DEVELOPER v20.1',
/* originating_system */ 'Autodesk Translation Framework v15.8.0.0',
/* authorisation */ '');

FILE_SCHEMA (('AUTOMOTIVE_DESIGN { 1 0 10303 214 3 1 1 }'));
ENDSEC;

DATA;
#10=MECHANICAL_DESIGN_GEOMETRIC_PRESENTATION_REPRESENTATION('',(#13),#1472);
#11=SHAPE_REPRESENTATION_RELATIONSHIP('SRR','None',#1479,#12);
#12=ADVANCED_BREP_SHAPE_REPRESENTATION('',(#14),#1471);
#13=STYLED_ITEM('',(#1488),#14);
#14=MANIFOLD_SOLID_BREP('Body1',#866);
#15=B_SPLINE_CURVE_WITH_KNOTS('',3,(#1279,#1280,#1281,#1282),
 .UNSPECIFIED.,.F.,.F.,(4,4),(0.503036729052553,0.608625869619412),
 .UNSPECIFIED.);
#16=FACE_BOUND('',#104,.T.);
#17=FACE_BOUND('',#105,.T.);
#18=FACE_BOUND('',#106,.T.);
#19=FACE_BOUND('',#107,.T.);
#20=FACE_BOUND('',#108,.T.);
#21=FACE_BOUND('',#126,.T.);
#22=FACE_BOUND('',#127,.T.);
#23=FACE_BOUND('',#128,.T.);
#24=FACE_BOUND('',#129,.T.);
#25=FACE_BOUND('',#130,.T.);
#26=FACE_BOUND('',#140,.T.);
#27=FACE_BOUND('',#145,.T.);
#28=FACE_BOUND('',#154,.T.);
#29=FACE_BOUND('',#159,.T.);
#30=PLANE('',#883);
#31=PLANE('',#891);
#32=PLANE('',#898);
#33=PLANE('',#903);
#34=PLANE('',#908);
#35=PLANE('',#911);
#36=PLANE('',#914);
#37=PLANE('',#917);
#38=PLANE('',#918);
#39=PLANE('',#919);
#40=PLANE('',#920);
#41=PLANE('',#925);
#42=PLANE('',#926);
#43=PLANE('',#937);
#44=PLANE('',#938);
#45=PLANE('',#942);
#46=PLANE('',#946);
#47=PLANE('',#949);
#48=PLANE('',#952);
#49=PLANE('',#955);
#50=PLANE('',#958);
#51=PLANE('',#959);
#52=PLANE('',#962);
#53=PLANE('',#963);
#54=PLANE('',#964);
#55=PLANE('',#965);
#56=FACE_OUTER_BOUND('',#102,.T.);
#57=FACE_OUTER_BOUND('',#103,.T.);
#58=FACE_OUTER_BOUND('',#109,.T.);
#59=FACE_OUTER_BOUND('',#110,.T.);
#60=FACE_OUTER_BOUND('',#111,.T.);
#61=FACE_OUTER_BOUND('',#112,.T.);
#62=FACE_OUTER_BOUND('',#113,.T.);
#63=FACE_OUTER_BOUND('',#114,.T.);
#64=FACE_OUTER_BOUND('',#115,.T.);
#65=FACE_OUTER_BOUND('',#116,.T.);
#66=FACE_OUTER_BOUND('',#117,.T.);
#67=FACE_OUTER_BOUND('',#118,.T.);
#68=FACE_OUTER_BOUND('',#119,.T.);
#69=FACE_OUTER_BOUND('',#120,.T.);
#70=FACE_OUTER_BOUND('',#121,.T.);
#71=FACE_OUTER_BOUND('',#122,.T.);
#72=FACE_OUTER_BOUND('',#123,.T.);
#73=FACE_OUTER_BOUND('',#124,.T.);
#74=FACE_OUTER_BOUND('',#125,.T.);
#75=FACE_OUTER_BOUND('',#131,.T.);
#76=FACE_OUTER_BOUND('',#132,.T.);
#77=FACE_OUTER_BOUND('',#133,.T.);
#78=FACE_OUTER_BOUND('',#134,.T.);
#79=FACE_OUTER_BOUND('',#135,.T.);
#80=FACE_OUTER_BOUND('',#136,.T.);
#81=FACE_OUTER_BOUND('',#137,.T.);
#82=FACE_OUTER_BOUND('',#138,.T.);
#83=FACE_OUTER_BOUND('',#139,.T.);
#84=FACE_OUTER_BOUND('',#141,.T.);
#85=FACE_OUTER_BOUND('',#142,.T.);
#86=FACE_OUTER_BOUND('',#143,.T.);
#87=FACE_OUTER_BOUND('',#144,.T.);
#88=FACE_OUTER_BOUND('',#146,.T.);
#89=FACE_OUTER_BOUND('',#147,.T.);
#90=FACE_OUTER_BOUND('',#148,.T.);
#91=FACE_OUTER_BOUND('',#149,.T.);
#92=FACE_OUTER_BOUND('',#150,.T.);
#93=FACE_OUTER_BOUND('',#151,.T.);
#94=FACE_OUTER_BOUND('',#152,.T.);
#95=FACE_OUTER_BOUND('',#153,.T.);
#96=FACE_OUTER_BOUND('',#155,.T.);
#97=FACE_OUTER_BOUND('',#156,.T.);
#98=FACE_OUTER_BOUND('',#157,.T.);
#99=FACE_OUTER_BOUND('',#158,.T.);
#100=FACE_OUTER_BOUND('',#160,.T.);
#101=FACE_OUTER_BOUND('',#161,.T.);
#102=EDGE_LOOP('',(#560,#561,#562,#563));
#103=EDGE_LOOP('',(#564,#565,#566,#567,#568,#569,#570,#571));
#104=EDGE_LOOP('',(#572,#573,#574,#575));
#105=EDGE_LOOP('',(#576));
#106=EDGE_LOOP('',(#577));
#107=EDGE_LOOP('',(#578));
#108=EDGE_LOOP('',(#579));
#109=EDGE_LOOP('',(#580,#581,#582,#583,#584,#585,#586,#587));
#110=EDGE_LOOP('',(#588,#589,#590,#591));
#111=EDGE_LOOP('',(#592,#593,#594,#595,#596));
#112=EDGE_LOOP('',(#597,#598,#599,#600,#601,#602,#603));
#113=EDGE_LOOP('',(#604,#605,#606,#607));
#114=EDGE_LOOP('',(#608,#609,#610,#611,#612,#613,#614,#615));
#115=EDGE_LOOP('',(#616,#617,#618,#619));
#116=EDGE_LOOP('',(#620));
#117=EDGE_LOOP('',(#621,#622,#623,#624));
#118=EDGE_LOOP('',(#625));
#119=EDGE_LOOP('',(#626,#627,#628,#629));
#120=EDGE_LOOP('',(#630));
#121=EDGE_LOOP('',(#631,#632,#633,#634));
#122=EDGE_LOOP('',(#635));
#123=EDGE_LOOP('',(#636,#637,#638,#639));
#124=EDGE_LOOP('',(#640,#641,#642,#643));
#125=EDGE_LOOP('',(#644,#645,#646,#647,#648,#649,#650,#651,#652,#653,#654,
#655,#656,#657,#658,#659,#660,#661,#662,#663));
#126=EDGE_LOOP('',(#664));
#127=EDGE_LOOP('',(#665));
#128=EDGE_LOOP('',(#666));
#129=EDGE_LOOP('',(#667));
#130=EDGE_LOOP('',(#668,#669,#670,#671));
#131=EDGE_LOOP('',(#672,#673,#674,#675));
#132=EDGE_LOOP('',(#676,#677,#678,#679));
#133=EDGE_LOOP('',(#680,#681,#682,#683));
#134=EDGE_LOOP('',(#684,#685,#686,#687));
#135=EDGE_LOOP('',(#688,#689,#690,#691));
#136=EDGE_LOOP('',(#692,#693,#694,#695));
#137=EDGE_LOOP('',(#696,#697,#698,#699));
#138=EDGE_LOOP('',(#700,#701,#702,#703));
#139=EDGE_LOOP('',(#704,#705,#706,#707,#708,#709,#710));
#140=EDGE_LOOP('',(#711));
#141=EDGE_LOOP('',(#712,#713,#714,#715));
#142=EDGE_LOOP('',(#716,#717,#718,#719));
#143=EDGE_LOOP('',(#720,#721,#722,#723));
#144=EDGE_LOOP('',(#724,#725,#726,#727,#728,#729));
#145=EDGE_LOOP('',(#730));
#146=EDGE_LOOP('',(#731,#732,#733,#734,#735));
#147=EDGE_LOOP('',(#736,#737,#738,#739));
#148=EDGE_LOOP('',(#740,#741,#742,#743));
#149=EDGE_LOOP('',(#744,#745,#746,#747));
#150=EDGE_LOOP('',(#748,#749,#750,#751));
#151=EDGE_LOOP('',(#752,#753,#754,#755));
#152=EDGE_LOOP('',(#756,#757,#758,#759));
#153=EDGE_LOOP('',(#760,#761,#762,#763,#764,#765,#766));
#154=EDGE_LOOP('',(#767));
#155=EDGE_LOOP('',(#768,#769,#770,#771));
#156=EDGE_LOOP('',(#772,#773,#774,#775));
#157=EDGE_LOOP('',(#776,#777,#778,#779));
#158=EDGE_LOOP('',(#780,#781,#782,#783,#784,#785,#786));
#159=EDGE_LOOP('',(#787));
#160=EDGE_LOOP('',(#788,#789,#790,#791,#792,#793,#794,#795));
#161=EDGE_LOOP('',(#796,#797,#798,#799));
#162=LINE('',#1225,#241);
#163=LINE('',#1228,#242);
#164=LINE('',#1231,#243);
#165=LINE('',#1235,#244);
#166=LINE('',#1239,#245);
#167=LINE('',#1242,#246);
#168=LINE('',#1245,#247);
#169=LINE('',#1247,#248);
#170=LINE('',#1249,#249);
#171=LINE('',#1250,#250);
#172=LINE('',#1261,#251);
#173=LINE('',#1265,#252);
#174=LINE('',#1269,#253);
#175=LINE('',#1270,#254);
#176=LINE('',#1274,#255);
#177=LINE('',#1277,#256);
#178=LINE('',#1285,#257);
#179=LINE('',#1288,#258);
#180=LINE('',#1290,#259);
#181=LINE('',#1294,#260);
#182=LINE('',#1298,#261);
#183=LINE('',#1302,#262);
#184=LINE('',#1306,#263);
#185=LINE('',#1309,#264);
#186=LINE('',#1312,#265);
#187=LINE('',#1317,#266);
#188=LINE('',#1322,#267);
#189=LINE('',#1327,#268);
#190=LINE('',#1332,#269);
#191=LINE('',#1334,#270);
#192=LINE('',#1335,#271);
#193=LINE('',#1338,#272);
#194=LINE('',#1339,#273);
#195=LINE('',#1342,#274);
#196=LINE('',#1344,#275);
#197=LINE('',#1346,#276);
#198=LINE('',#1347,#277);
#199=LINE('',#1349,#278);
#200=LINE('',#1351,#279);
#201=LINE('',#1353,#280);
#202=LINE('',#1355,#281);
#203=LINE('',#1357,#282);
#204=LINE('',#1359,#283);
#205=LINE('',#1361,#284);
#206=LINE('',#1363,#285);
#207=LINE('',#1364,#286);
#208=LINE('',#1366,#287);
#209=LINE('',#1368,#288);
#210=LINE('',#1370,#289);
#211=LINE('',#1371,#290);
#212=LINE('',#1381,#291);
#213=LINE('',#1382,#292);
#214=LINE('',#1384,#293);
#215=LINE('',#1389,#294);
#216=LINE('',#1393,#295);
#217=LINE('',#1397,#296);
#218=LINE('',#1401,#297);
#219=LINE('',#1404,#298);
#220=LINE('',#1408,#299);
#221=LINE('',#1409,#300);
#222=LINE('',#1412,#301);
#223=LINE('',#1414,#302);
#224=LINE('',#1415,#303);
#225=LINE('',#1424,#304);
#226=LINE('',#1427,#305);
#227=LINE('',#1429,#306);
#228=LINE('',#1431,#307);
#229=LINE('',#1432,#308);
#230=LINE('',#1436,#309);
#231=LINE('',#1439,#310);
#232=LINE('',#1443,#311);
#233=LINE('',#1444,#312);
#234=LINE('',#1448,#313);
#235=LINE('',#1450,#314);
#236=LINE('',#1454,#315);
#237=LINE('',#1457,#316);
#238=LINE('',#1459,#317);
#239=LINE('',#1460,#318);
#240=LINE('',#1462,#319);
#241=VECTOR('',#972,10.);
#242=VECTOR('',#975,10.);
#243=VECTOR('',#978,10.);
#244=VECTOR('',#981,10.);
#245=VECTOR('',#984,10.);
#246=VECTOR('',#987,10.);
#247=VECTOR('',#988,10.);
#248=VECTOR('',#989,10.);
#249=VECTOR('',#990,10.);
#250=VECTOR('',#991,10.);
#251=VECTOR('',#1002,10.);
#252=VECTOR('',#1005,10.);
#253=VECTOR('',#1008,10.);
#254=VECTOR('',#1009,10.);
#255=VECTOR('',#1014,10.);
#256=VECTOR('',#1017,10.);
#257=VECTOR('',#1020,10.);
#258=VECTOR('',#1023,10.);
#259=VECTOR('',#1024,10.);
#260=VECTOR('',#1027,10.);
#261=VECTOR('',#1032,10.);
#262=VECTOR('',#1037,10.);
#263=VECTOR('',#1040,10.);
#264=VECTOR('',#1043,10.);
#265=VECTOR('',#1046,1.5);
#266=VECTOR('',#1053,1.5);
#267=VECTOR('',#1060,1.5);
#268=VECTOR('',#1067,1.5);
#269=VECTOR('',#1074,10.);
#270=VECTOR('',#1075,10.);
#271=VECTOR('',#1076,10.);
#272=VECTOR('',#1079,10.);
#273=VECTOR('',#1080,10.);
#274=VECTOR('',#1083,10.);
#275=VECTOR('',#1084,10.);
#276=VECTOR('',#1085,10.);
#277=VECTOR('',#1086,10.);
#278=VECTOR('',#1087,10.);
#279=VECTOR('',#1088,10.);
#280=VECTOR('',#1089,10.);
#281=VECTOR('',#1090,10.);
#282=VECTOR('',#1091,10.);
#283=VECTOR('',#1092,10.);
#284=VECTOR('',#1093,10.);
#285=VECTOR('',#1094,10.);
#286=VECTOR('',#1095,10.);
#287=VECTOR('',#1096,10.);
#288=VECTOR('',#1097,10.);
#289=VECTOR('',#1098,10.);
#290=VECTOR('',#1099,10.);
#291=VECTOR('',#1108,10.);
#292=VECTOR('',#1109,10.);
#293=VECTOR('',#1112,10.);
#294=VECTOR('',#1119,1.5);
#295=VECTOR('',#1124,1.5);
#296=VECTOR('',#1129,1.5);
#297=VECTOR('',#1134,1.5);
#298=VECTOR('',#1137,7.5);
#299=VECTOR('',#1142,10.);
#300=VECTOR('',#1143,10.);
#301=VECTOR('',#1146,10.);
#302=VECTOR('',#1147,7.5);
#303=VECTOR('',#1148,10.);
#304=VECTOR('',#1161,7.5);
#305=VECTOR('',#1166,10.);
#306=VECTOR('',#1167,7.5);
#307=VECTOR('',#1168,10.);
#308=VECTOR('',#1169,10.);
#309=VECTOR('',#1176,10.);
#310=VECTOR('',#1179,7.5);
#311=VECTOR('',#1184,10.);
#312=VECTOR('',#1185,10.);
#313=VECTOR('',#1190,7.5);
#314=VECTOR('',#1193,10.);
#315=VECTOR('',#1198,7.5);
#316=VECTOR('',#1201,10.);
#317=VECTOR('',#1202,10.);
#318=VECTOR('',#1203,7.5);
#319=VECTOR('',#1206,10.);
#320=CIRCLE('',#881,4.);
#321=CIRCLE('',#882,4.);
#322=CIRCLE('',#884,4.);
#323=CIRCLE('',#885,4.);
#324=CIRCLE('',#886,4.);
#325=CIRCLE('',#887,1.5);
#326=CIRCLE('',#888,1.5);
#327=CIRCLE('',#889,1.5);
#328=CIRCLE('',#890,1.5);
#329=CIRCLE('',#892,7.5);
#330=CIRCLE('',#893,7.5);
#331=CIRCLE('',#895,4.);
#332=CIRCLE('',#897,4.);
#333=CIRCLE('',#899,7.5);
#334=CIRCLE('',#900,7.5);
#335=CIRCLE('',#902,4.);
#336=CIRCLE('',#904,7.5);
#337=CIRCLE('',#905,7.5);
#338=CIRCLE('',#907,1.5);
#339=CIRCLE('',#910,1.5);
#340=CIRCLE('',#913,1.5);
#341=CIRCLE('',#916,1.5);
#342=CIRCLE('',#921,1.5);
#343=CIRCLE('',#922,1.5);
#344=CIRCLE('',#923,1.5);
#345=CIRCLE('',#924,1.5);
#346=CIRCLE('',#928,1.5);
#347=CIRCLE('',#930,1.5);
#348=CIRCLE('',#932,1.5);
#349=CIRCLE('',#934,1.5);
#350=CIRCLE('',#936,7.5);
#351=CIRCLE('',#940,7.5);
#352=CIRCLE('',#941,7.5);
#353=CIRCLE('',#944,7.5);
#354=CIRCLE('',#945,7.5);
#355=CIRCLE('',#948,7.5);
#356=CIRCLE('',#951,7.5);
#357=CIRCLE('',#954,7.5);
#358=CIRCLE('',#957,7.5);
#359=CIRCLE('',#961,7.5);
#360=VERTEX_POINT('',#1221);
#361=VERTEX_POINT('',#1222);
#362=VERTEX_POINT('',#1224);
#363=VERTEX_POINT('',#1226);
#364=VERTEX_POINT('',#1230);
#365=VERTEX_POINT('',#1232);
#366=VERTEX_POINT('',#1234);
#367=VERTEX_POINT('',#1236);
#368=VERTEX_POINT('',#1238);
#369=VERTEX_POINT('',#1240);
#370=VERTEX_POINT('',#1243);
#371=VERTEX_POINT('',#1244);
#372=VERTEX_POINT('',#1246);
#373=VERTEX_POINT('',#1248);
#374=VERTEX_POINT('',#1251);
#375=VERTEX_POINT('',#1253);
#376=VERTEX_POINT('',#1255);
#377=VERTEX_POINT('',#1257);
#378=VERTEX_POINT('',#1260);
#379=VERTEX_POINT('',#1262);
#380=VERTEX_POINT('',#1264);
#381=VERTEX_POINT('',#1266);
#382=VERTEX_POINT('',#1268);
#383=VERTEX_POINT('',#1272);
#384=VERTEX_POINT('',#1276);
#385=VERTEX_POINT('',#1278);
#386=VERTEX_POINT('',#1283);
#387=VERTEX_POINT('',#1287);
#388=VERTEX_POINT('',#1289);
#389=VERTEX_POINT('',#1291);
#390=VERTEX_POINT('',#1293);
#391=VERTEX_POINT('',#1297);
#392=VERTEX_POINT('',#1301);
#393=VERTEX_POINT('',#1303);
#394=VERTEX_POINT('',#1305);
#395=VERTEX_POINT('',#1307);
#396=VERTEX_POINT('',#1311);
#397=VERTEX_POINT('',#1316);
#398=VERTEX_POINT('',#1321);
#399=VERTEX_POINT('',#1326);
#400=VERTEX_POINT('',#1331);
#401=VERTEX_POINT('',#1333);
#402=VERTEX_POINT('',#1337);
#403=VERTEX_POINT('',#1341);
#404=VERTEX_POINT('',#1343);
#405=VERTEX_POINT('',#1345);
#406=VERTEX_POINT('',#1348);
#407=VERTEX_POINT('',#1350);
#408=VERTEX_POINT('',#1352);
#409=VERTEX_POINT('',#1354);
#410=VERTEX_POINT('',#1356);
#411=VERTEX_POINT('',#1358);
#412=VERTEX_POINT('',#1360);
#413=VERTEX_POINT('',#1362);
#414=VERTEX_POINT('',#1365);
#415=VERTEX_POINT('',#1367);
#416=VERTEX_POINT('',#1369);
#417=VERTEX_POINT('',#1372);
#418=VERTEX_POINT('',#1374);
#419=VERTEX_POINT('',#1376);
#420=VERTEX_POINT('',#1378);
#421=VERTEX_POINT('',#1380);
#422=VERTEX_POINT('',#1387);
#423=VERTEX_POINT('',#1391);
#424=VERTEX_POINT('',#1395);
#425=VERTEX_POINT('',#1399);
#426=VERTEX_POINT('',#1403);
#427=VERTEX_POINT('',#1407);
#428=VERTEX_POINT('',#1411);
#429=VERTEX_POINT('',#1413);
#430=VERTEX_POINT('',#1421);
#431=VERTEX_POINT('',#1423);
#432=VERTEX_POINT('',#1428);
#433=VERTEX_POINT('',#1430);
#434=VERTEX_POINT('',#1438);
#435=VERTEX_POINT('',#1442);
#436=VERTEX_POINT('',#1446);
#437=VERTEX_POINT('',#1452);
#438=VERTEX_POINT('',#1456);
#439=VERTEX_POINT('',#1458);
#440=EDGE_CURVE('',#360,#361,#320,.T.);
#441=EDGE_CURVE('',#361,#362,#162,.T.);
#442=EDGE_CURVE('',#362,#363,#321,.F.);
#443=EDGE_CURVE('',#363,#360,#163,.T.);
#444=EDGE_CURVE('',#364,#360,#164,.T.);
#445=EDGE_CURVE('',#365,#364,#322,.T.);
#446=EDGE_CURVE('',#366,#365,#165,.T.);
#447=EDGE_CURVE('',#367,#366,#323,.T.);
#448=EDGE_CURVE('',#368,#367,#166,.T.);
#449=EDGE_CURVE('',#369,#368,#324,.T.);
#450=EDGE_CURVE('',#361,#369,#167,.T.);
#451=EDGE_CURVE('',#370,#371,#168,.T.);
#452=EDGE_CURVE('',#372,#370,#169,.T.);
#453=EDGE_CURVE('',#373,#372,#170,.T.);
#454=EDGE_CURVE('',#371,#373,#171,.T.);
#455=EDGE_CURVE('',#374,#374,#325,.T.);
#456=EDGE_CURVE('',#375,#375,#326,.T.);
#457=EDGE_CURVE('',#376,#376,#327,.T.);
#458=EDGE_CURVE('',#377,#377,#328,.T.);
#459=EDGE_CURVE('',#363,#378,#172,.T.);
#460=EDGE_CURVE('',#379,#378,#329,.F.);
#461=EDGE_CURVE('',#380,#379,#173,.T.);
#462=EDGE_CURVE('',#380,#381,#330,.T.);
#463=EDGE_CURVE('',#381,#382,#174,.T.);
#464=EDGE_CURVE('',#364,#382,#175,.T.);
#465=EDGE_CURVE('',#382,#383,#331,.F.);
#466=EDGE_CURVE('',#383,#365,#176,.T.);
#467=EDGE_CURVE('',#368,#384,#177,.T.);
#468=EDGE_CURVE('',#384,#385,#15,.F.);
#469=EDGE_CURVE('',#385,#386,#332,.F.);
#470=EDGE_CURVE('',#386,#369,#178,.T.);
#471=EDGE_CURVE('',#387,#367,#179,.T.);
#472=EDGE_CURVE('',#387,#388,#180,.T.);
#473=EDGE_CURVE('',#389,#388,#333,.F.);
#474=EDGE_CURVE('',#390,#389,#181,.T.);
#475=EDGE_CURVE('',#390,#384,#334,.T.);
#476=EDGE_CURVE('',#366,#391,#182,.T.);
#477=EDGE_CURVE('',#391,#387,#335,.F.);
#478=EDGE_CURVE('',#383,#392,#183,.T.);
#479=EDGE_CURVE('',#393,#392,#336,.F.);
#480=EDGE_CURVE('',#394,#393,#184,.T.);
#481=EDGE_CURVE('',#394,#395,#337,.T.);
#482=EDGE_CURVE('',#395,#391,#185,.T.);
#483=EDGE_CURVE('',#377,#396,#186,.T.);
#484=EDGE_CURVE('',#396,#396,#338,.T.);
#485=EDGE_CURVE('',#376,#397,#187,.T.);
#486=EDGE_CURVE('',#397,#397,#339,.T.);
#487=EDGE_CURVE('',#375,#398,#188,.T.);
#488=EDGE_CURVE('',#398,#398,#340,.T.);
#489=EDGE_CURVE('',#374,#399,#189,.T.);
#490=EDGE_CURVE('',#399,#399,#341,.T.);
#491=EDGE_CURVE('',#400,#370,#190,.F.);
#492=EDGE_CURVE('',#401,#400,#191,.T.);
#493=EDGE_CURVE('',#401,#372,#192,.F.);
#494=EDGE_CURVE('',#402,#371,#193,.T.);
#495=EDGE_CURVE('',#400,#402,#194,.T.);
#496=EDGE_CURVE('',#393,#403,#195,.T.);
#497=EDGE_CURVE('',#404,#403,#196,.T.);
#498=EDGE_CURVE('',#405,#404,#197,.T.);
#499=EDGE_CURVE('',#405,#380,#198,.T.);
#500=EDGE_CURVE('',#379,#406,#199,.T.);
#501=EDGE_CURVE('',#407,#406,#200,.T.);
#502=EDGE_CURVE('',#408,#407,#201,.T.);
#503=EDGE_CURVE('',#408,#409,#202,.T.);
#504=EDGE_CURVE('',#409,#410,#203,.T.);
#505=EDGE_CURVE('',#410,#411,#204,.T.);
#506=EDGE_CURVE('',#412,#411,#205,.T.);
#507=EDGE_CURVE('',#413,#412,#206,.T.);
#508=EDGE_CURVE('',#413,#390,#207,.T.);
#509=EDGE_CURVE('',#389,#414,#208,.T.);
#510=EDGE_CURVE('',#415,#414,#209,.T.);
#511=EDGE_CURVE('',#416,#415,#210,.T.);
#512=EDGE_CURVE('',#416,#394,#211,.T.);
#513=EDGE_CURVE('',#417,#417,#342,.T.);
#514=EDGE_CURVE('',#418,#418,#343,.T.);
#515=EDGE_CURVE('',#419,#419,#344,.T.);
#516=EDGE_CURVE('',#420,#420,#345,.T.);
#517=EDGE_CURVE('',#421,#401,#212,.T.);
#518=EDGE_CURVE('',#402,#421,#213,.T.);
#519=EDGE_CURVE('',#421,#373,#214,.T.);
#520=EDGE_CURVE('',#422,#422,#346,.T.);
#521=EDGE_CURVE('',#422,#420,#215,.T.);
#522=EDGE_CURVE('',#423,#423,#347,.T.);
#523=EDGE_CURVE('',#423,#419,#216,.T.);
#524=EDGE_CURVE('',#424,#424,#348,.T.);
#525=EDGE_CURVE('',#424,#418,#217,.T.);
#526=EDGE_CURVE('',#425,#425,#349,.T.);
#527=EDGE_CURVE('',#425,#417,#218,.T.);
#528=EDGE_CURVE('',#378,#426,#219,.T.);
#529=EDGE_CURVE('',#426,#406,#350,.T.);
#530=EDGE_CURVE('',#427,#426,#220,.T.);
#531=EDGE_CURVE('',#407,#427,#221,.T.);
#532=EDGE_CURVE('',#428,#362,#222,.T.);
#533=EDGE_CURVE('',#429,#428,#223,.T.);
#534=EDGE_CURVE('',#429,#427,#224,.T.);
#535=EDGE_CURVE('',#408,#429,#351,.T.);
#536=EDGE_CURVE('',#409,#428,#352,.T.);
#537=EDGE_CURVE('',#410,#430,#353,.F.);
#538=EDGE_CURVE('',#430,#431,#225,.T.);
#539=EDGE_CURVE('',#431,#411,#354,.T.);
#540=EDGE_CURVE('',#386,#430,#226,.T.);
#541=EDGE_CURVE('',#432,#385,#227,.T.);
#542=EDGE_CURVE('',#432,#433,#228,.T.);
#543=EDGE_CURVE('',#433,#431,#229,.T.);
#544=EDGE_CURVE('',#413,#432,#355,.T.);
#545=EDGE_CURVE('',#412,#433,#230,.T.);
#546=EDGE_CURVE('',#388,#434,#231,.T.);
#547=EDGE_CURVE('',#434,#414,#356,.T.);
#548=EDGE_CURVE('',#435,#434,#232,.T.);
#549=EDGE_CURVE('',#415,#435,#233,.T.);
#550=EDGE_CURVE('',#416,#436,#357,.T.);
#551=EDGE_CURVE('',#436,#395,#234,.T.);
#552=EDGE_CURVE('',#436,#435,#235,.T.);
#553=EDGE_CURVE('',#405,#437,#358,.T.);
#554=EDGE_CURVE('',#437,#381,#236,.T.);
#555=EDGE_CURVE('',#437,#438,#237,.T.);
#556=EDGE_CURVE('',#438,#439,#238,.T.);
#557=EDGE_CURVE('',#392,#439,#239,.T.);
#558=EDGE_CURVE('',#438,#404,#240,.T.);
#559=EDGE_CURVE('',#439,#403,#359,.T.);
#560=ORIENTED_EDGE('',*,*,#440,.T.);
#561=ORIENTED_EDGE('',*,*,#441,.T.);
#562=ORIENTED_EDGE('',*,*,#442,.T.);
#563=ORIENTED_EDGE('',*,*,#443,.T.);
#564=ORIENTED_EDGE('',*,*,#440,.F.);
#565=ORIENTED_EDGE('',*,*,#444,.F.);
#566=ORIENTED_EDGE('',*,*,#445,.F.);
#567=ORIENTED_EDGE('',*,*,#446,.F.);
#568=ORIENTED_EDGE('',*,*,#447,.F.);
#569=ORIENTED_EDGE('',*,*,#448,.F.);
#570=ORIENTED_EDGE('',*,*,#449,.F.);
#571=ORIENTED_EDGE('',*,*,#450,.F.);
#572=ORIENTED_EDGE('',*,*,#451,.F.);
#573=ORIENTED_EDGE('',*,*,#452,.F.);
#574=ORIENTED_EDGE('',*,*,#453,.F.);
#575=ORIENTED_EDGE('',*,*,#454,.F.);
#576=ORIENTED_EDGE('',*,*,#455,.T.);
#577=ORIENTED_EDGE('',*,*,#456,.T.);
#578=ORIENTED_EDGE('',*,*,#457,.T.);
#579=ORIENTED_EDGE('',*,*,#458,.T.);
#580=ORIENTED_EDGE('',*,*,#443,.F.);
#581=ORIENTED_EDGE('',*,*,#459,.T.);
#582=ORIENTED_EDGE('',*,*,#460,.F.);
#583=ORIENTED_EDGE('',*,*,#461,.F.);
#584=ORIENTED_EDGE('',*,*,#462,.T.);
#585=ORIENTED_EDGE('',*,*,#463,.T.);
#586=ORIENTED_EDGE('',*,*,#464,.F.);
#587=ORIENTED_EDGE('',*,*,#444,.T.);
#588=ORIENTED_EDGE('',*,*,#445,.T.);
#589=ORIENTED_EDGE('',*,*,#464,.T.);
#590=ORIENTED_EDGE('',*,*,#465,.T.);
#591=ORIENTED_EDGE('',*,*,#466,.T.);
#592=ORIENTED_EDGE('',*,*,#449,.T.);
#593=ORIENTED_EDGE('',*,*,#467,.T.);
#594=ORIENTED_EDGE('',*,*,#468,.T.);
#595=ORIENTED_EDGE('',*,*,#469,.T.);
#596=ORIENTED_EDGE('',*,*,#470,.T.);
#597=ORIENTED_EDGE('',*,*,#467,.F.);
#598=ORIENTED_EDGE('',*,*,#448,.T.);
#599=ORIENTED_EDGE('',*,*,#471,.F.);
#600=ORIENTED_EDGE('',*,*,#472,.T.);
#601=ORIENTED_EDGE('',*,*,#473,.F.);
#602=ORIENTED_EDGE('',*,*,#474,.F.);
#603=ORIENTED_EDGE('',*,*,#475,.T.);
#604=ORIENTED_EDGE('',*,*,#447,.T.);
#605=ORIENTED_EDGE('',*,*,#476,.T.);
#606=ORIENTED_EDGE('',*,*,#477,.T.);
#607=ORIENTED_EDGE('',*,*,#471,.T.);
#608=ORIENTED_EDGE('',*,*,#466,.F.);
#609=ORIENTED_EDGE('',*,*,#478,.T.);
#610=ORIENTED_EDGE('',*,*,#479,.F.);
#611=ORIENTED_EDGE('',*,*,#480,.F.);
#612=ORIENTED_EDGE('',*,*,#481,.T.);
#613=ORIENTED_EDGE('',*,*,#482,.T.);
#614=ORIENTED_EDGE('',*,*,#476,.F.);
#615=ORIENTED_EDGE('',*,*,#446,.T.);
#616=ORIENTED_EDGE('',*,*,#458,.F.);
#617=ORIENTED_EDGE('',*,*,#483,.T.);
#618=ORIENTED_EDGE('',*,*,#484,.T.);
#619=ORIENTED_EDGE('',*,*,#483,.F.);
#620=ORIENTED_EDGE('',*,*,#484,.F.);
#621=ORIENTED_EDGE('',*,*,#457,.F.);
#622=ORIENTED_EDGE('',*,*,#485,.T.);
#623=ORIENTED_EDGE('',*,*,#486,.T.);
#624=ORIENTED_EDGE('',*,*,#485,.F.);
#625=ORIENTED_EDGE('',*,*,#486,.F.);
#626=ORIENTED_EDGE('',*,*,#456,.F.);
#627=ORIENTED_EDGE('',*,*,#487,.T.);
#628=ORIENTED_EDGE('',*,*,#488,.T.);
#629=ORIENTED_EDGE('',*,*,#487,.F.);
#630=ORIENTED_EDGE('',*,*,#488,.F.);
#631=ORIENTED_EDGE('',*,*,#455,.F.);
#632=ORIENTED_EDGE('',*,*,#489,.T.);
#633=ORIENTED_EDGE('',*,*,#490,.T.);
#634=ORIENTED_EDGE('',*,*,#489,.F.);
#635=ORIENTED_EDGE('',*,*,#490,.F.);
#636=ORIENTED_EDGE('',*,*,#452,.T.);
#637=ORIENTED_EDGE('',*,*,#491,.F.);
#638=ORIENTED_EDGE('',*,*,#492,.F.);
#639=ORIENTED_EDGE('',*,*,#493,.T.);
#640=ORIENTED_EDGE('',*,*,#451,.T.);
#641=ORIENTED_EDGE('',*,*,#494,.F.);
#642=ORIENTED_EDGE('',*,*,#495,.F.);
#643=ORIENTED_EDGE('',*,*,#491,.T.);
#644=ORIENTED_EDGE('',*,*,#496,.T.);
#645=ORIENTED_EDGE('',*,*,#497,.F.);
#646=ORIENTED_EDGE('',*,*,#498,.F.);
#647=ORIENTED_EDGE('',*,*,#499,.T.);
#648=ORIENTED_EDGE('',*,*,#461,.T.);
#649=ORIENTED_EDGE('',*,*,#500,.T.);
#650=ORIENTED_EDGE('',*,*,#501,.F.);
#651=ORIENTED_EDGE('',*,*,#502,.F.);
#652=ORIENTED_EDGE('',*,*,#503,.T.);
#653=ORIENTED_EDGE('',*,*,#504,.T.);
#654=ORIENTED_EDGE('',*,*,#505,.T.);
#655=ORIENTED_EDGE('',*,*,#506,.F.);
#656=ORIENTED_EDGE('',*,*,#507,.F.);
#657=ORIENTED_EDGE('',*,*,#508,.T.);
#658=ORIENTED_EDGE('',*,*,#474,.T.);
#659=ORIENTED_EDGE('',*,*,#509,.T.);
#660=ORIENTED_EDGE('',*,*,#510,.F.);
#661=ORIENTED_EDGE('',*,*,#511,.F.);
#662=ORIENTED_EDGE('',*,*,#512,.T.);
#663=ORIENTED_EDGE('',*,*,#480,.T.);
#664=ORIENTED_EDGE('',*,*,#513,.T.);
#665=ORIENTED_EDGE('',*,*,#514,.T.);
#666=ORIENTED_EDGE('',*,*,#515,.T.);
#667=ORIENTED_EDGE('',*,*,#516,.T.);
#668=ORIENTED_EDGE('',*,*,#517,.T.);
#669=ORIENTED_EDGE('',*,*,#492,.T.);
#670=ORIENTED_EDGE('',*,*,#495,.T.);
#671=ORIENTED_EDGE('',*,*,#518,.T.);
#672=ORIENTED_EDGE('',*,*,#453,.T.);
#673=ORIENTED_EDGE('',*,*,#493,.F.);
#674=ORIENTED_EDGE('',*,*,#517,.F.);
#675=ORIENTED_EDGE('',*,*,#519,.T.);
#676=ORIENTED_EDGE('',*,*,#454,.T.);
#677=ORIENTED_EDGE('',*,*,#519,.F.);
#678=ORIENTED_EDGE('',*,*,#518,.F.);
#679=ORIENTED_EDGE('',*,*,#494,.T.);
#680=ORIENTED_EDGE('',*,*,#520,.F.);
#681=ORIENTED_EDGE('',*,*,#521,.T.);
#682=ORIENTED_EDGE('',*,*,#516,.F.);
#683=ORIENTED_EDGE('',*,*,#521,.F.);
#684=ORIENTED_EDGE('',*,*,#522,.F.);
#685=ORIENTED_EDGE('',*,*,#523,.T.);
#686=ORIENTED_EDGE('',*,*,#515,.F.);
#687=ORIENTED_EDGE('',*,*,#523,.F.);
#688=ORIENTED_EDGE('',*,*,#524,.F.);
#689=ORIENTED_EDGE('',*,*,#525,.T.);
#690=ORIENTED_EDGE('',*,*,#514,.F.);
#691=ORIENTED_EDGE('',*,*,#525,.F.);
#692=ORIENTED_EDGE('',*,*,#526,.F.);
#693=ORIENTED_EDGE('',*,*,#527,.T.);
#694=ORIENTED_EDGE('',*,*,#513,.F.);
#695=ORIENTED_EDGE('',*,*,#527,.F.);
#696=ORIENTED_EDGE('',*,*,#460,.T.);
#697=ORIENTED_EDGE('',*,*,#528,.T.);
#698=ORIENTED_EDGE('',*,*,#529,.T.);
#699=ORIENTED_EDGE('',*,*,#500,.F.);
#700=ORIENTED_EDGE('',*,*,#529,.F.);
#701=ORIENTED_EDGE('',*,*,#530,.F.);
#702=ORIENTED_EDGE('',*,*,#531,.F.);
#703=ORIENTED_EDGE('',*,*,#501,.T.);
#704=ORIENTED_EDGE('',*,*,#528,.F.);
#705=ORIENTED_EDGE('',*,*,#459,.F.);
#706=ORIENTED_EDGE('',*,*,#442,.F.);
#707=ORIENTED_EDGE('',*,*,#532,.F.);
#708=ORIENTED_EDGE('',*,*,#533,.F.);
#709=ORIENTED_EDGE('',*,*,#534,.T.);
#710=ORIENTED_EDGE('',*,*,#530,.T.);
#711=ORIENTED_EDGE('',*,*,#520,.T.);
#712=ORIENTED_EDGE('',*,*,#535,.T.);
#713=ORIENTED_EDGE('',*,*,#533,.T.);
#714=ORIENTED_EDGE('',*,*,#536,.F.);
#715=ORIENTED_EDGE('',*,*,#503,.F.);
#716=ORIENTED_EDGE('',*,*,#535,.F.);
#717=ORIENTED_EDGE('',*,*,#502,.T.);
#718=ORIENTED_EDGE('',*,*,#531,.T.);
#719=ORIENTED_EDGE('',*,*,#534,.F.);
#720=ORIENTED_EDGE('',*,*,#537,.T.);
#721=ORIENTED_EDGE('',*,*,#538,.T.);
#722=ORIENTED_EDGE('',*,*,#539,.T.);
#723=ORIENTED_EDGE('',*,*,#505,.F.);
#724=ORIENTED_EDGE('',*,*,#538,.F.);
#725=ORIENTED_EDGE('',*,*,#540,.F.);
#726=ORIENTED_EDGE('',*,*,#469,.F.);
#727=ORIENTED_EDGE('',*,*,#541,.F.);
#728=ORIENTED_EDGE('',*,*,#542,.T.);
#729=ORIENTED_EDGE('',*,*,#543,.T.);
#730=ORIENTED_EDGE('',*,*,#526,.T.);
#731=ORIENTED_EDGE('',*,*,#544,.T.);
#732=ORIENTED_EDGE('',*,*,#541,.T.);
#733=ORIENTED_EDGE('',*,*,#468,.F.);
#734=ORIENTED_EDGE('',*,*,#475,.F.);
#735=ORIENTED_EDGE('',*,*,#508,.F.);
#736=ORIENTED_EDGE('',*,*,#544,.F.);
#737=ORIENTED_EDGE('',*,*,#507,.T.);
#738=ORIENTED_EDGE('',*,*,#545,.T.);
#739=ORIENTED_EDGE('',*,*,#542,.F.);
#740=ORIENTED_EDGE('',*,*,#473,.T.);
#741=ORIENTED_EDGE('',*,*,#546,.T.);
#742=ORIENTED_EDGE('',*,*,#547,.T.);
#743=ORIENTED_EDGE('',*,*,#509,.F.);
#744=ORIENTED_EDGE('',*,*,#547,.F.);
#745=ORIENTED_EDGE('',*,*,#548,.F.);
#746=ORIENTED_EDGE('',*,*,#549,.F.);
#747=ORIENTED_EDGE('',*,*,#510,.T.);
#748=ORIENTED_EDGE('',*,*,#550,.T.);
#749=ORIENTED_EDGE('',*,*,#551,.T.);
#750=ORIENTED_EDGE('',*,*,#481,.F.);
#751=ORIENTED_EDGE('',*,*,#512,.F.);
#752=ORIENTED_EDGE('',*,*,#550,.F.);
#753=ORIENTED_EDGE('',*,*,#511,.T.);
#754=ORIENTED_EDGE('',*,*,#549,.T.);
#755=ORIENTED_EDGE('',*,*,#552,.F.);
#756=ORIENTED_EDGE('',*,*,#553,.T.);
#757=ORIENTED_EDGE('',*,*,#554,.T.);
#758=ORIENTED_EDGE('',*,*,#462,.F.);
#759=ORIENTED_EDGE('',*,*,#499,.F.);
#760=ORIENTED_EDGE('',*,*,#554,.F.);
#761=ORIENTED_EDGE('',*,*,#555,.T.);
#762=ORIENTED_EDGE('',*,*,#556,.T.);
#763=ORIENTED_EDGE('',*,*,#557,.F.);
#764=ORIENTED_EDGE('',*,*,#478,.F.);
#765=ORIENTED_EDGE('',*,*,#465,.F.);
#766=ORIENTED_EDGE('',*,*,#463,.F.);
#767=ORIENTED_EDGE('',*,*,#524,.T.);
#768=ORIENTED_EDGE('',*,*,#553,.F.);
#769=ORIENTED_EDGE('',*,*,#498,.T.);
#770=ORIENTED_EDGE('',*,*,#558,.F.);
#771=ORIENTED_EDGE('',*,*,#555,.F.);
#772=ORIENTED_EDGE('',*,*,#479,.T.);
#773=ORIENTED_EDGE('',*,*,#557,.T.);
#774=ORIENTED_EDGE('',*,*,#559,.T.);
#775=ORIENTED_EDGE('',*,*,#496,.F.);
#776=ORIENTED_EDGE('',*,*,#559,.F.);
#777=ORIENTED_EDGE('',*,*,#556,.F.);
#778=ORIENTED_EDGE('',*,*,#558,.T.);
#779=ORIENTED_EDGE('',*,*,#497,.T.);
#780=ORIENTED_EDGE('',*,*,#546,.F.);
#781=ORIENTED_EDGE('',*,*,#472,.F.);
#782=ORIENTED_EDGE('',*,*,#477,.F.);
#783=ORIENTED_EDGE('',*,*,#482,.F.);
#784=ORIENTED_EDGE('',*,*,#551,.F.);
#785=ORIENTED_EDGE('',*,*,#552,.T.);
#786=ORIENTED_EDGE('',*,*,#548,.T.);
#787=ORIENTED_EDGE('',*,*,#522,.T.);
#788=ORIENTED_EDGE('',*,*,#441,.F.);
#789=ORIENTED_EDGE('',*,*,#450,.T.);
#790=ORIENTED_EDGE('',*,*,#470,.F.);
#791=ORIENTED_EDGE('',*,*,#540,.T.);
#792=ORIENTED_EDGE('',*,*,#537,.F.);
#793=ORIENTED_EDGE('',*,*,#504,.F.);
#794=ORIENTED_EDGE('',*,*,#536,.T.);
#795=ORIENTED_EDGE('',*,*,#532,.T.);
#796=ORIENTED_EDGE('',*,*,#539,.F.);
#797=ORIENTED_EDGE('',*,*,#543,.F.);
#798=ORIENTED_EDGE('',*,*,#545,.F.);
#799=ORIENTED_EDGE('',*,*,#506,.T.);
#800=CYLINDRICAL_SURFACE('',#880,4.);
#801=CYLINDRICAL_SURFACE('',#894,4.);
#802=CYLINDRICAL_SURFACE('',#896,4.);
#803=CYLINDRICAL_SURFACE('',#901,4.);
#804=CYLINDRICAL_SURFACE('',#906,1.5);
#805=CYLINDRICAL_SURFACE('',#909,1.5);
#806=CYLINDRICAL_SURFACE('',#912,1.5);
#807=CYLINDRICAL_SURFACE('',#915,1.5);
#808=CYLINDRICAL_SURFACE('',#927,1.5);
#809=CYLINDRICAL_SURFACE('',#929,1.5);
#810=CYLINDRICAL_SURFACE('',#931,1.5);
#811=CYLINDRICAL_SURFACE('',#933,1.5);
#812=CYLINDRICAL_SURFACE('',#935,7.5);
#813=CYLINDRICAL_SURFACE('',#939,7.5);
#814=CYLINDRICAL_SURFACE('',#943,7.5);
#815=CYLINDRICAL_SURFACE('',#947,7.5);
#816=CYLINDRICAL_SURFACE('',#950,7.5);
#817=CYLINDRICAL_SURFACE('',#953,7.5);
#818=CYLINDRICAL_SURFACE('',#956,7.5);
#819=CYLINDRICAL_SURFACE('',#960,7.5);
#820=ADVANCED_FACE('',(#56),#800,.T.);
#821=ADVANCED_FACE('',(#57,#16,#17,#18,#19,#20),#30,.F.);
#822=ADVANCED_FACE('',(#58),#31,.T.);
#823=ADVANCED_FACE('',(#59),#801,.T.);
#824=ADVANCED_FACE('',(#60),#802,.T.);
#825=ADVANCED_FACE('',(#61),#32,.T.);
#826=ADVANCED_FACE('',(#62),#803,.T.);
#827=ADVANCED_FACE('',(#63),#33,.T.);
#828=ADVANCED_FACE('',(#64),#804,.F.);
#829=ADVANCED_FACE('',(#65),#34,.T.);
#830=ADVANCED_FACE('',(#66),#805,.F.);
#831=ADVANCED_FACE('',(#67),#35,.T.);
#832=ADVANCED_FACE('',(#68),#806,.F.);
#833=ADVANCED_FACE('',(#69),#36,.T.);
#834=ADVANCED_FACE('',(#70),#807,.F.);
#835=ADVANCED_FACE('',(#71),#37,.T.);
#836=ADVANCED_FACE('',(#72),#38,.F.);
#837=ADVANCED_FACE('',(#73),#39,.F.);
#838=ADVANCED_FACE('',(#74,#21,#22,#23,#24,#25),#40,.F.);
#839=ADVANCED_FACE('',(#75),#41,.F.);
#840=ADVANCED_FACE('',(#76),#42,.F.);
#841=ADVANCED_FACE('',(#77),#808,.F.);
#842=ADVANCED_FACE('',(#78),#809,.F.);
#843=ADVANCED_FACE('',(#79),#810,.F.);
#844=ADVANCED_FACE('',(#80),#811,.F.);
#845=ADVANCED_FACE('',(#81),#812,.T.);
#846=ADVANCED_FACE('',(#82),#43,.T.);
#847=ADVANCED_FACE('',(#83,#26),#44,.T.);
#848=ADVANCED_FACE('',(#84),#813,.T.);
#849=ADVANCED_FACE('',(#85),#45,.T.);
#850=ADVANCED_FACE('',(#86),#814,.T.);
#851=ADVANCED_FACE('',(#87,#27),#46,.T.);
#852=ADVANCED_FACE('',(#88),#815,.T.);
#853=ADVANCED_FACE('',(#89),#47,.T.);
#854=ADVANCED_FACE('',(#90),#816,.T.);
#855=ADVANCED_FACE('',(#91),#48,.T.);
#856=ADVANCED_FACE('',(#92),#817,.T.);
#857=ADVANCED_FACE('',(#93),#49,.T.);
#858=ADVANCED_FACE('',(#94),#818,.T.);
#859=ADVANCED_FACE('',(#95,#28),#50,.T.);
#860=ADVANCED_FACE('',(#96),#51,.T.);
#861=ADVANCED_FACE('',(#97),#819,.T.);
#862=ADVANCED_FACE('',(#98),#52,.T.);
#863=ADVANCED_FACE('',(#99,#29),#53,.T.);
#864=ADVANCED_FACE('',(#100),#54,.T.);
#865=ADVANCED_FACE('',(#101),#55,.T.);
#866=CLOSED_SHELL('',(#820,#821,#822,#823,#824,#825,#826,#827,#828,#829,
#830,#831,#832,#833,#834,#835,#836,#837,#838,#839,#840,#841,#842,#843,#844,
#845,#846,#847,#848,#849,#850,#851,#852,#853,#854,#855,#856,#857,#858,#859,
#860,#861,#862,#863,#864,#865));
#867=DERIVED_UNIT_ELEMENT(#869,1.);
#868=DERIVED_UNIT_ELEMENT(#1474,-3.);
#869=(
MASS_UNIT()
NAMED_UNIT(*)
SI_UNIT(.KILO.,.GRAM.)
);
#870=DERIVED_UNIT((#867,#868));
#871=MEASURE_REPRESENTATION_ITEM('density measure',
POSITIVE_RATIO_MEASURE(7850.),#870);
#872=PROPERTY_DEFINITION_REPRESENTATION(#877,#874);
#873=PROPERTY_DEFINITION_REPRESENTATION(#878,#875);
#874=REPRESENTATION('material name',(#876),#1471);
#875=REPRESENTATION('density',(#871),#1471);
#876=DESCRIPTIVE_REPRESENTATION_ITEM('Steel','Steel');
#877=PROPERTY_DEFINITION('material property','material name',#1481);
#878=PROPERTY_DEFINITION('material property','density of part',#1481);
#879=AXIS2_PLACEMENT_3D('',#1219,#966,#967);
#880=AXIS2_PLACEMENT_3D('',#1220,#968,#969);
#881=AXIS2_PLACEMENT_3D('',#1223,#970,#971);
#882=AXIS2_PLACEMENT_3D('',#1227,#973,#974);
#883=AXIS2_PLACEMENT_3D('',#1229,#976,#977);
#884=AXIS2_PLACEMENT_3D('',#1233,#979,#980);
#885=AXIS2_PLACEMENT_3D('',#1237,#982,#983);
#886=AXIS2_PLACEMENT_3D('',#1241,#985,#986);
#887=AXIS2_PLACEMENT_3D('',#1252,#992,#993);
#888=AXIS2_PLACEMENT_3D('',#1254,#994,#995);
#889=AXIS2_PLACEMENT_3D('',#1256,#996,#997);
#890=AXIS2_PLACEMENT_3D('',#1258,#998,#999);
#891=AXIS2_PLACEMENT_3D('',#1259,#1000,#1001);
#892=AXIS2_PLACEMENT_3D('',#1263,#1003,#1004);
#893=AXIS2_PLACEMENT_3D('',#1267,#1006,#1007);
#894=AXIS2_PLACEMENT_3D('',#1271,#1010,#1011);
#895=AXIS2_PLACEMENT_3D('',#1273,#1012,#1013);
#896=AXIS2_PLACEMENT_3D('',#1275,#1015,#1016);
#897=AXIS2_PLACEMENT_3D('',#1284,#1018,#1019);
#898=AXIS2_PLACEMENT_3D('',#1286,#1021,#1022);
#899=AXIS2_PLACEMENT_3D('',#1292,#1025,#1026);
#900=AXIS2_PLACEMENT_3D('',#1295,#1028,#1029);
#901=AXIS2_PLACEMENT_3D('',#1296,#1030,#1031);
#902=AXIS2_PLACEMENT_3D('',#1299,#1033,#1034);
#903=AXIS2_PLACEMENT_3D('',#1300,#1035,#1036);
#904=AXIS2_PLACEMENT_3D('',#1304,#1038,#1039);
#905=AXIS2_PLACEMENT_3D('',#1308,#1041,#1042);
#906=AXIS2_PLACEMENT_3D('',#1310,#1044,#1045);
#907=AXIS2_PLACEMENT_3D('',#1313,#1047,#1048);
#908=AXIS2_PLACEMENT_3D('',#1314,#1049,#1050);
#909=AXIS2_PLACEMENT_3D('',#1315,#1051,#1052);
#910=AXIS2_PLACEMENT_3D('',#1318,#1054,#1055);
#911=AXIS2_PLACEMENT_3D('',#1319,#1056,#1057);
#912=AXIS2_PLACEMENT_3D('',#1320,#1058,#1059);
#913=AXIS2_PLACEMENT_3D('',#1323,#1061,#1062);
#914=AXIS2_PLACEMENT_3D('',#1324,#1063,#1064);
#915=AXIS2_PLACEMENT_3D('',#1325,#1065,#1066);
#916=AXIS2_PLACEMENT_3D('',#1328,#1068,#1069);
#917=AXIS2_PLACEMENT_3D('',#1329,#1070,#1071);
#918=AXIS2_PLACEMENT_3D('',#1330,#1072,#1073);
#919=AXIS2_PLACEMENT_3D('',#1336,#1077,#1078);
#920=AXIS2_PLACEMENT_3D('',#1340,#1081,#1082);
#921=AXIS2_PLACEMENT_3D('',#1373,#1100,#1101);
#922=AXIS2_PLACEMENT_3D('',#1375,#1102,#1103);
#923=AXIS2_PLACEMENT_3D('',#1377,#1104,#1105);
#924=AXIS2_PLACEMENT_3D('',#1379,#1106,#1107);
#925=AXIS2_PLACEMENT_3D('',#1383,#1110,#1111);
#926=AXIS2_PLACEMENT_3D('',#1385,#1113,#1114);
#927=AXIS2_PLACEMENT_3D('',#1386,#1115,#1116);
#928=AXIS2_PLACEMENT_3D('',#1388,#1117,#1118);
#929=AXIS2_PLACEMENT_3D('',#1390,#1120,#1121);
#930=AXIS2_PLACEMENT_3D('',#1392,#1122,#1123);
#931=AXIS2_PLACEMENT_3D('',#1394,#1125,#1126);
#932=AXIS2_PLACEMENT_3D('',#1396,#1127,#1128);
#933=AXIS2_PLACEMENT_3D('',#1398,#1130,#1131);
#934=AXIS2_PLACEMENT_3D('',#1400,#1132,#1133);
#935=AXIS2_PLACEMENT_3D('',#1402,#1135,#1136);
#936=AXIS2_PLACEMENT_3D('',#1405,#1138,#1139);
#937=AXIS2_PLACEMENT_3D('',#1406,#1140,#1141);
#938=AXIS2_PLACEMENT_3D('',#1410,#1144,#1145);
#939=AXIS2_PLACEMENT_3D('',#1416,#1149,#1150);
#940=AXIS2_PLACEMENT_3D('',#1417,#1151,#1152);
#941=AXIS2_PLACEMENT_3D('',#1418,#1153,#1154);
#942=AXIS2_PLACEMENT_3D('',#1419,#1155,#1156);
#943=AXIS2_PLACEMENT_3D('',#1420,#1157,#1158);
#944=AXIS2_PLACEMENT_3D('',#1422,#1159,#1160);
#945=AXIS2_PLACEMENT_3D('',#1425,#1162,#1163);
#946=AXIS2_PLACEMENT_3D('',#1426,#1164,#1165);
#947=AXIS2_PLACEMENT_3D('',#1433,#1170,#1171);
#948=AXIS2_PLACEMENT_3D('',#1434,#1172,#1173);
#949=AXIS2_PLACEMENT_3D('',#1435,#1174,#1175);
#950=AXIS2_PLACEMENT_3D('',#1437,#1177,#1178);
#951=AXIS2_PLACEMENT_3D('',#1440,#1180,#1181);
#952=AXIS2_PLACEMENT_3D('',#1441,#1182,#1183);
#953=AXIS2_PLACEMENT_3D('',#1445,#1186,#1187);
#954=AXIS2_PLACEMENT_3D('',#1447,#1188,#1189);
#955=AXIS2_PLACEMENT_3D('',#1449,#1191,#1192);
#956=AXIS2_PLACEMENT_3D('',#1451,#1194,#1195);
#957=AXIS2_PLACEMENT_3D('',#1453,#1196,#1197);
#958=AXIS2_PLACEMENT_3D('',#1455,#1199,#1200);
#959=AXIS2_PLACEMENT_3D('',#1461,#1204,#1205);
#960=AXIS2_PLACEMENT_3D('',#1463,#1207,#1208);
#961=AXIS2_PLACEMENT_3D('',#1464,#1209,#1210);
#962=AXIS2_PLACEMENT_3D('',#1465,#1211,#1212);
#963=AXIS2_PLACEMENT_3D('',#1466,#1213,#1214);
#964=AXIS2_PLACEMENT_3D('',#1467,#1215,#1216);
#965=AXIS2_PLACEMENT_3D('',#1468,#1217,#1218);
#966=DIRECTION('axis',(0.,0.,1.));
#967=DIRECTION('refdir',(1.,0.,0.));
#968=DIRECTION('center_axis',(0.,0.,1.));
#969=DIRECTION('ref_axis',(-0.707106781186548,-0.707106781186548,0.));
#970=DIRECTION('center_axis',(0.,0.,-1.));
#971=DIRECTION('ref_axis',(-0.707106781186548,-0.707106781186548,0.));
#972=DIRECTION('',(0.,0.,-1.));
#973=DIRECTION('center_axis',(0.,0.,-1.));
#974=DIRECTION('ref_axis',(-0.707106781186548,-0.707106781186548,0.));
#975=DIRECTION('',(0.,0.,1.));
#976=DIRECTION('center_axis',(0.,0.,-1.));
#977=DIRECTION('ref_axis',(-1.,0.,0.));
#978=DIRECTION('',(-1.,0.,0.));
#979=DIRECTION('center_axis',(0.,0.,-1.));
#980=DIRECTION('ref_axis',(0.707106781186549,-0.707106781186546,0.));
#981=DIRECTION('',(0.,-1.,0.));
#982=DIRECTION('center_axis',(0.,0.,-1.));
#983=DIRECTION('ref_axis',(0.707106781186546,0.707106781186549,0.));
#984=DIRECTION('',(1.,0.,0.));
#985=DIRECTION('center_axis',(0.,0.,-1.));
#986=DIRECTION('ref_axis',(-0.707106781186548,0.707106781186548,0.));
#987=DIRECTION('',(0.,1.,0.));
#988=DIRECTION('',(0.,-1.,0.));
#989=DIRECTION('',(-1.,0.,0.));
#990=DIRECTION('',(0.,1.,0.));
#991=DIRECTION('',(1.,0.,0.));
#992=DIRECTION('center_axis',(0.,0.,-1.));
#993=DIRECTION('ref_axis',(-1.,0.,0.));
#994=DIRECTION('center_axis',(0.,0.,-1.));
#995=DIRECTION('ref_axis',(-1.,0.,0.));
#996=DIRECTION('center_axis',(0.,0.,-1.));
#997=DIRECTION('ref_axis',(-1.,0.,0.));
#998=DIRECTION('center_axis',(0.,0.,-1.));
#999=DIRECTION('ref_axis',(-1.,0.,0.));
#1000=DIRECTION('center_axis',(0.,-1.,0.));
#1001=DIRECTION('ref_axis',(1.,0.,0.));
#1002=DIRECTION('',(1.,0.,0.));
#1003=DIRECTION('center_axis',(0.,1.,0.));
#1004=DIRECTION('ref_axis',(0.942809041582063,0.,0.333333333333333));
#1005=DIRECTION('',(-1.,0.,0.));
#1006=DIRECTION('center_axis',(0.,1.,0.));
#1007=DIRECTION('ref_axis',(-0.942809041582063,0.,0.333333333333333));
#1008=DIRECTION('',(1.,0.,0.));
#1009=DIRECTION('',(0.,0.,-1.));
#1010=DIRECTION('center_axis',(0.,0.,1.));
#1011=DIRECTION('ref_axis',(0.707106781186549,-0.707106781186546,0.));
#1012=DIRECTION('center_axis',(0.,0.,-1.));
#1013=DIRECTION('ref_axis',(0.707106781186549,-0.707106781186546,0.));
#1014=DIRECTION('',(0.,0.,1.));
#1015=DIRECTION('center_axis',(0.,0.,1.));
#1016=DIRECTION('ref_axis',(-0.707106781186548,0.707106781186548,0.));
#1017=DIRECTION('',(0.,0.,-1.));
#1018=DIRECTION('center_axis',(0.,0.,-1.));
#1019=DIRECTION('ref_axis',(-0.707106781186548,0.707106781186548,0.));
#1020=DIRECTION('',(0.,0.,1.));
#1021=DIRECTION('center_axis',(0.,1.,0.));
#1022=DIRECTION('ref_axis',(-1.,0.,0.));
#1023=DIRECTION('',(0.,0.,1.));
#1024=DIRECTION('',(-1.,0.,0.));
#1025=DIRECTION('center_axis',(0.,-1.,0.));
#1026=DIRECTION('ref_axis',(-0.942809041582063,0.,0.333333333333333));
#1027=DIRECTION('',(1.,0.,0.));
#1028=DIRECTION('center_axis',(0.,-1.,0.));
#1029=DIRECTION('ref_axis',(0.942809041582063,0.,0.333333333333333));
#1030=DIRECTION('center_axis',(0.,0.,1.));
#1031=DIRECTION('ref_axis',(0.707106781186546,0.707106781186549,0.));
#1032=DIRECTION('',(0.,0.,-1.));
#1033=DIRECTION('center_axis',(0.,0.,-1.));
#1034=DIRECTION('ref_axis',(0.707106781186546,0.707106781186549,0.));
#1035=DIRECTION('center_axis',(1.,0.,0.));
#1036=DIRECTION('ref_axis',(0.,1.,0.));
#1037=DIRECTION('',(0.,1.,0.));
#1038=DIRECTION('center_axis',(-1.,0.,0.));
#1039=DIRECTION('ref_axis',(0.,0.942809041582063,0.333333333333333));
#1040=DIRECTION('',(0.,-1.,0.));
#1041=DIRECTION('center_axis',(-1.,0.,0.));
#1042=DIRECTION('ref_axis',(0.,-0.942809041582063,0.333333333333333));
#1043=DIRECTION('',(0.,1.,0.));
#1044=DIRECTION('center_axis',(0.,0.,-1.));
#1045=DIRECTION('ref_axis',(-1.,0.,0.));
#1046=DIRECTION('',(0.,0.,-1.));
#1047=DIRECTION('center_axis',(0.,0.,-1.));
#1048=DIRECTION('ref_axis',(-1.,0.,0.));
#1049=DIRECTION('center_axis',(0.,0.,1.));
#1050=DIRECTION('ref_axis',(-1.,0.,0.));
#1051=DIRECTION('center_axis',(0.,0.,-1.));
#1052=DIRECTION('ref_axis',(-1.,0.,0.));
#1053=DIRECTION('',(0.,0.,-1.));
#1054=DIRECTION('center_axis',(0.,0.,-1.));
#1055=DIRECTION('ref_axis',(-1.,0.,0.));
#1056=DIRECTION('center_axis',(0.,0.,1.));
#1057=DIRECTION('ref_axis',(-1.,0.,0.));
#1058=DIRECTION('center_axis',(0.,0.,-1.));
#1059=DIRECTION('ref_axis',(-1.,0.,0.));
#1060=DIRECTION('',(0.,0.,-1.));
#1061=DIRECTION('center_axis',(0.,0.,-1.));
#1062=DIRECTION('ref_axis',(-1.,0.,0.));
#1063=DIRECTION('center_axis',(0.,0.,1.));
#1064=DIRECTION('ref_axis',(-1.,0.,0.));
#1065=DIRECTION('center_axis',(0.,0.,-1.));
#1066=DIRECTION('ref_axis',(-1.,0.,0.));
#1067=DIRECTION('',(0.,0.,-1.));
#1068=DIRECTION('center_axis',(0.,0.,-1.));
#1069=DIRECTION('ref_axis',(-1.,0.,0.));
#1070=DIRECTION('center_axis',(0.,0.,1.));
#1071=DIRECTION('ref_axis',(-1.,0.,0.));
#1072=DIRECTION('center_axis',(0.,1.,0.));
#1073=DIRECTION('ref_axis',(-1.,0.,0.));
#1074=DIRECTION('',(0.,0.,-1.));
#1075=DIRECTION('',(-1.,0.,0.));
#1076=DIRECTION('',(0.,0.,-1.));
#1077=DIRECTION('center_axis',(-1.,0.,0.));
#1078=DIRECTION('ref_axis',(0.,-1.,0.));
#1079=DIRECTION('',(0.,0.,1.));
#1080=DIRECTION('',(0.,-1.,0.));
#1081=DIRECTION('center_axis',(0.,0.,1.));
#1082=DIRECTION('ref_axis',(1.,0.,0.));
#1083=DIRECTION('',(1.,0.,0.));
#1084=DIRECTION('',(0.,1.,0.));
#1085=DIRECTION('',(1.,0.,0.));
#1086=DIRECTION('',(0.,1.,0.));
#1087=DIRECTION('',(0.,-1.,0.));
#1088=DIRECTION('',(1.,0.,0.));
#1089=DIRECTION('',(0.,-1.,0.));
#1090=DIRECTION('',(1.,0.,0.));
#1091=DIRECTION('',(0.,1.,0.));
#1092=DIRECTION('',(-1.,0.,0.));
#1093=DIRECTION('',(0.,-1.,0.));
#1094=DIRECTION('',(-1.,0.,0.));
#1095=DIRECTION('',(0.,-1.,0.));
#1096=DIRECTION('',(0.,1.,0.));
#1097=DIRECTION('',(-1.,0.,0.));
#1098=DIRECTION('',(0.,1.,0.));
#1099=DIRECTION('',(-1.,0.,0.));
#1100=DIRECTION('center_axis',(0.,0.,1.));
#1101=DIRECTION('ref_axis',(-1.,0.,0.));
#1102=DIRECTION('center_axis',(0.,0.,1.));
#1103=DIRECTION('ref_axis',(-1.,0.,0.));
#1104=DIRECTION('center_axis',(0.,0.,1.));
#1105=DIRECTION('ref_axis',(-1.,0.,0.));
#1106=DIRECTION('center_axis',(0.,0.,1.));
#1107=DIRECTION('ref_axis',(-1.,0.,0.));
#1108=DIRECTION('',(0.,1.,0.));
#1109=DIRECTION('',(1.,0.,0.));
#1110=DIRECTION('center_axis',(1.,0.,0.));
#1111=DIRECTION('ref_axis',(0.,1.,0.));
#1112=DIRECTION('',(0.,0.,1.));
#1113=DIRECTION('center_axis',(0.,-1.,0.));
#1114=DIRECTION('ref_axis',(1.,0.,0.));
#1115=DIRECTION('center_axis',(0.,0.,-1.));
#1116=DIRECTION('ref_axis',(-1.,0.,0.));
#1117=DIRECTION('center_axis',(0.,0.,-1.));
#1118=DIRECTION('ref_axis',(-1.,0.,0.));
#1119=DIRECTION('',(0.,0.,-1.));
#1120=DIRECTION('center_axis',(0.,0.,-1.));
#1121=DIRECTION('ref_axis',(-1.,0.,0.));
#1122=DIRECTION('center_axis',(0.,0.,-1.));
#1123=DIRECTION('ref_axis',(-1.,0.,0.));
#1124=DIRECTION('',(0.,0.,-1.));
#1125=DIRECTION('center_axis',(0.,0.,-1.));
#1126=DIRECTION('ref_axis',(-1.,0.,0.));
#1127=DIRECTION('center_axis',(0.,0.,-1.));
#1128=DIRECTION('ref_axis',(-1.,0.,0.));
#1129=DIRECTION('',(0.,0.,-1.));
#1130=DIRECTION('center_axis',(0.,0.,-1.));
#1131=DIRECTION('ref_axis',(-1.,0.,0.));
#1132=DIRECTION('center_axis',(0.,0.,-1.));
#1133=DIRECTION('ref_axis',(-1.,0.,0.));
#1134=DIRECTION('',(0.,0.,-1.));
#1135=DIRECTION('center_axis',(0.,-1.,0.));
#1136=DIRECTION('ref_axis',(0.942809041582063,0.,0.333333333333333));
#1137=DIRECTION('',(0.,-1.,0.));
#1138=DIRECTION('center_axis',(0.,1.,0.));
#1139=DIRECTION('ref_axis',(0.942809041582063,0.,0.333333333333333));
#1140=DIRECTION('center_axis',(0.,-1.,0.));
#1141=DIRECTION('ref_axis',(1.,0.,0.));
#1142=DIRECTION('',(1.,0.,0.));
#1143=DIRECTION('',(0.,0.,1.));
#1144=DIRECTION('center_axis',(0.,0.,1.));
#1145=DIRECTION('ref_axis',(1.,0.,0.));
#1146=DIRECTION('',(0.,-1.,0.));
#1147=DIRECTION('',(1.,0.,0.));
#1148=DIRECTION('',(0.,-1.,0.));
#1149=DIRECTION('center_axis',(1.,0.,0.));
#1150=DIRECTION('ref_axis',(0.,0.942809041582063,0.333333333333333));
#1151=DIRECTION('center_axis',(1.,0.,0.));
#1152=DIRECTION('ref_axis',(0.,0.942809041582063,0.333333333333333));
#1153=DIRECTION('center_axis',(1.,0.,0.));
#1154=DIRECTION('ref_axis',(0.,0.942809041582063,0.333333333333333));
#1155=DIRECTION('center_axis',(-1.,0.,0.));
#1156=DIRECTION('ref_axis',(0.,0.,1.));
#1157=DIRECTION('center_axis',(-1.,0.,0.));
#1158=DIRECTION('ref_axis',(0.,-0.942809041582063,0.333333333333333));
#1159=DIRECTION('center_axis',(1.,0.,0.));
#1160=DIRECTION('ref_axis',(0.,-0.942809041582063,0.333333333333333));
#1161=DIRECTION('',(-1.,0.,0.));
#1162=DIRECTION('center_axis',(1.,0.,0.));
#1163=DIRECTION('ref_axis',(0.,-0.942809041582063,0.333333333333333));
#1164=DIRECTION('center_axis',(0.,0.,1.));
#1165=DIRECTION('ref_axis',(1.,0.,0.));
#1166=DIRECTION('',(0.,-1.,0.));
#1167=DIRECTION('',(0.,-1.,0.));
#1168=DIRECTION('',(-1.,0.,0.));
#1169=DIRECTION('',(0.,-1.,0.));
#1170=DIRECTION('center_axis',(0.,-1.,0.));
#1171=DIRECTION('ref_axis',(0.942809041582063,0.,0.333333333333333));
#1172=DIRECTION('center_axis',(0.,-1.,0.));
#1173=DIRECTION('ref_axis',(0.942809041582063,0.,0.333333333333333));
#1174=DIRECTION('center_axis',(0.,1.,0.));
#1175=DIRECTION('ref_axis',(0.,0.,1.));
#1176=DIRECTION('',(0.,0.,1.));
#1177=DIRECTION('center_axis',(0.,1.,0.));
#1178=DIRECTION('ref_axis',(-0.942809041582063,0.,0.333333333333333));
#1179=DIRECTION('',(0.,1.,0.));
#1180=DIRECTION('center_axis',(0.,-1.,0.));
#1181=DIRECTION('ref_axis',(-0.942809041582063,0.,0.333333333333333));
#1182=DIRECTION('center_axis',(0.,1.,0.));
#1183=DIRECTION('ref_axis',(0.,0.,1.));
#1184=DIRECTION('',(-1.,0.,0.));
#1185=DIRECTION('',(0.,0.,1.));
#1186=DIRECTION('center_axis',(-1.,0.,0.));
#1187=DIRECTION('ref_axis',(0.,-0.942809041582063,0.333333333333333));
#1188=DIRECTION('center_axis',(-1.,0.,0.));
#1189=DIRECTION('ref_axis',(0.,-0.942809041582063,0.333333333333333));
#1190=DIRECTION('',(-1.,0.,0.));
#1191=DIRECTION('center_axis',(1.,0.,0.));
#1192=DIRECTION('ref_axis',(0.,0.,-1.));
#1193=DIRECTION('',(0.,1.,0.));
#1194=DIRECTION('center_axis',(0.,1.,0.));
#1195=DIRECTION('ref_axis',(-0.942809041582063,0.,0.333333333333333));
#1196=DIRECTION('center_axis',(0.,1.,0.));
#1197=DIRECTION('ref_axis',(-0.942809041582063,0.,0.333333333333333));
#1198=DIRECTION('',(0.,1.,0.));
#1199=DIRECTION('center_axis',(0.,0.,1.));
#1200=DIRECTION('ref_axis',(1.,0.,0.));
#1201=DIRECTION('',(1.,0.,0.));
#1202=DIRECTION('',(0.,1.,0.));
#1203=DIRECTION('',(1.,0.,0.));
#1204=DIRECTION('center_axis',(0.,-1.,0.));
#1205=DIRECTION('ref_axis',(1.,0.,0.));
#1206=DIRECTION('',(0.,0.,-1.));
#1207=DIRECTION('center_axis',(1.,0.,0.));
#1208=DIRECTION('ref_axis',(0.,0.942809041582063,0.333333333333333));
#1209=DIRECTION('center_axis',(-1.,0.,0.));
#1210=DIRECTION('ref_axis',(0.,0.942809041582063,0.333333333333333));
#1211=DIRECTION('center_axis',(1.,0.,0.));
#1212=DIRECTION('ref_axis',(0.,0.,-1.));
#1213=DIRECTION('center_axis',(0.,0.,1.));
#1214=DIRECTION('ref_axis',(1.,0.,0.));
#1215=DIRECTION('center_axis',(-1.,0.,0.));
#1216=DIRECTION('ref_axis',(0.,-1.,0.));
#1217=DIRECTION('center_axis',(-1.,0.,0.));
#1218=DIRECTION('ref_axis',(0.,0.,1.));
#1219=CARTESIAN_POINT('',(0.,0.,0.));
#1220=CARTESIAN_POINT('Origin',(59.,-61.,0.));
#1221=CARTESIAN_POINT('',(59.,-65.,55.));
#1222=CARTESIAN_POINT('',(55.,-61.,55.));
#1223=CARTESIAN_POINT('Origin',(59.,-61.,55.));
#1224=CARTESIAN_POINT('',(55.,-61.,5.));
#1225=CARTESIAN_POINT('',(55.,-61.,0.));
#1226=CARTESIAN_POINT('',(59.,-65.,5.));
#1227=CARTESIAN_POINT('Origin',(59.,-61.,5.));
#1228=CARTESIAN_POINT('',(59.,-65.,0.));
#1229=CARTESIAN_POINT('Origin',(105.,0.,55.));
#1230=CARTESIAN_POINT('',(151.,-65.,55.));
#1231=CARTESIAN_POINT('',(80.,-65.,55.));
#1232=CARTESIAN_POINT('',(155.,-61.,55.));
#1233=CARTESIAN_POINT('Origin',(151.,-61.,55.));
#1234=CARTESIAN_POINT('',(155.,61.,55.));
#1235=CARTESIAN_POINT('',(155.,-32.5,55.));
#1236=CARTESIAN_POINT('',(151.,65.,55.));
#1237=CARTESIAN_POINT('Origin',(151.,61.,55.));
#1238=CARTESIAN_POINT('',(59.,65.,55.));
#1239=CARTESIAN_POINT('',(130.,65.,55.));
#1240=CARTESIAN_POINT('',(55.,61.,55.));
#1241=CARTESIAN_POINT('Origin',(59.,61.,55.));
#1242=CARTESIAN_POINT('',(55.,32.5,55.));
#1243=CARTESIAN_POINT('',(60.,60.,55.));
#1244=CARTESIAN_POINT('',(60.,-60.,55.));
#1245=CARTESIAN_POINT('',(60.,32.5,55.));
#1246=CARTESIAN_POINT('',(150.,60.,55.));
#1247=CARTESIAN_POINT('',(130.,60.,55.));
#1248=CARTESIAN_POINT('',(150.,-60.,55.));
#1249=CARTESIAN_POINT('',(150.,-32.5,55.));
#1250=CARTESIAN_POINT('',(80.,-60.,55.));
#1251=CARTESIAN_POINT('',(59.,62.5,55.));
#1252=CARTESIAN_POINT('Origin',(57.5,62.5,55.));
#1253=CARTESIAN_POINT('',(59.,-62.5,55.));
#1254=CARTESIAN_POINT('Origin',(57.5,-62.5,55.));
#1255=CARTESIAN_POINT('',(154.,62.5,55.));
#1256=CARTESIAN_POINT('Origin',(152.5,62.5,55.));
#1257=CARTESIAN_POINT('',(154.,-62.5,55.));
#1258=CARTESIAN_POINT('Origin',(152.5,-62.5,55.));
#1259=CARTESIAN_POINT('Origin',(55.,-65.,0.));
#1260=CARTESIAN_POINT('',(62.9289321881345,-65.,5.));
#1261=CARTESIAN_POINT('',(57.5,-65.,5.));
#1262=CARTESIAN_POINT('',(70.,-65.,0.));
#1263=CARTESIAN_POINT('Origin',(62.9289321881345,-65.,-2.5));
#1264=CARTESIAN_POINT('',(140.,-65.,0.));
#1265=CARTESIAN_POINT('',(52.5,-65.,0.));
#1266=CARTESIAN_POINT('',(147.071067811865,-65.,5.));
#1267=CARTESIAN_POINT('Origin',(147.071067811865,-65.,-2.5));
#1268=CARTESIAN_POINT('',(151.,-65.,5.));
#1269=CARTESIAN_POINT('',(102.5,-65.,5.));
#1270=CARTESIAN_POINT('',(151.,-65.,0.));
#1271=CARTESIAN_POINT('Origin',(151.,-61.,0.));
#1272=CARTESIAN_POINT('',(155.,-61.,5.));
#1273=CARTESIAN_POINT('Origin',(151.,-61.,5.));
#1274=CARTESIAN_POINT('',(155.,-61.,0.));
#1275=CARTESIAN_POINT('Origin',(59.,61.,0.));
#1276=CARTESIAN_POINT('',(59.,65.,4.92312695178964));
#1277=CARTESIAN_POINT('',(59.,65.,0.));
#1278=CARTESIAN_POINT('',(57.9289321881345,64.8539348388868,5.));
#1279=CARTESIAN_POINT('Ctrl Pts',(57.928932188135,64.853934838887,5.));
#1280=CARTESIAN_POINT('Ctrl Pts',(58.2852038913471,64.9529482289782,4.99999999999998));
#1281=CARTESIAN_POINT('Ctrl Pts',(58.6516437354853,65.,4.97339056500906));
#1282=CARTESIAN_POINT('Ctrl Pts',(59.,65.,4.92312695178964));
#1283=CARTESIAN_POINT('',(55.,61.,5.));
#1284=CARTESIAN_POINT('Origin',(59.,61.,5.));
#1285=CARTESIAN_POINT('',(55.,61.,0.));
#1286=CARTESIAN_POINT('Origin',(155.,65.,0.));
#1287=CARTESIAN_POINT('',(151.,65.,5.));
#1288=CARTESIAN_POINT('',(151.,65.,0.));
#1289=CARTESIAN_POINT('',(147.071067811865,65.,5.));
#1290=CARTESIAN_POINT('',(152.5,65.,5.));
#1291=CARTESIAN_POINT('',(140.,65.,0.));
#1292=CARTESIAN_POINT('Origin',(147.071067811865,65.,-2.5));
#1293=CARTESIAN_POINT('',(65.,65.,0.));
#1294=CARTESIAN_POINT('',(102.5,65.,0.));
#1295=CARTESIAN_POINT('Origin',(57.9289321881345,65.,-2.5));
#1296=CARTESIAN_POINT('Origin',(151.,61.,0.));
#1297=CARTESIAN_POINT('',(155.,61.,5.));
#1298=CARTESIAN_POINT('',(155.,61.,0.));
#1299=CARTESIAN_POINT('Origin',(151.,61.,5.));
#1300=CARTESIAN_POINT('Origin',(155.,-65.,0.));
#1301=CARTESIAN_POINT('',(155.,-57.0710678118655,5.));
#1302=CARTESIAN_POINT('',(155.,-62.5,5.));
#1303=CARTESIAN_POINT('',(155.,-50.,0.));
#1304=CARTESIAN_POINT('Origin',(155.,-57.0710678118655,-2.5));
#1305=CARTESIAN_POINT('',(155.,50.,0.));
#1306=CARTESIAN_POINT('',(155.,-67.5,0.));
#1307=CARTESIAN_POINT('',(155.,57.0710678118655,5.));
#1308=CARTESIAN_POINT('Origin',(155.,57.0710678118655,-2.5));
#1309=CARTESIAN_POINT('',(155.,-2.5,5.));
#1310=CARTESIAN_POINT('Origin',(152.5,-62.5,55.));
#1311=CARTESIAN_POINT('',(154.,-62.5,52.));
#1312=CARTESIAN_POINT('',(154.,-62.5,55.));
#1313=CARTESIAN_POINT('Origin',(152.5,-62.5,52.));
#1314=CARTESIAN_POINT('Origin',(152.5,-62.5,52.));
#1315=CARTESIAN_POINT('Origin',(152.5,62.5,55.));
#1316=CARTESIAN_POINT('',(154.,62.5,52.));
#1317=CARTESIAN_POINT('',(154.,62.5,55.));
#1318=CARTESIAN_POINT('Origin',(152.5,62.5,52.));
#1319=CARTESIAN_POINT('Origin',(152.5,62.5,52.));
#1320=CARTESIAN_POINT('Origin',(57.5,-62.5,55.));
#1321=CARTESIAN_POINT('',(59.,-62.5,52.));
#1322=CARTESIAN_POINT('',(59.,-62.5,55.));
#1323=CARTESIAN_POINT('Origin',(57.5,-62.5,52.));
#1324=CARTESIAN_POINT('Origin',(57.5,-62.5,52.));
#1325=CARTESIAN_POINT('Origin',(57.5,62.5,55.));
#1326=CARTESIAN_POINT('',(59.,62.5,52.));
#1327=CARTESIAN_POINT('',(59.,62.5,55.));
#1328=CARTESIAN_POINT('Origin',(57.5,62.5,52.));
#1329=CARTESIAN_POINT('Origin',(57.5,62.5,52.));
#1330=CARTESIAN_POINT('Origin',(155.,60.,0.));
#1331=CARTESIAN_POINT('',(60.,60.,0.));
#1332=CARTESIAN_POINT('',(60.,60.,0.));
#1333=CARTESIAN_POINT('',(150.,60.,0.));
#1334=CARTESIAN_POINT('',(82.5,60.,0.));
#1335=CARTESIAN_POINT('',(150.,60.,0.));
#1336=CARTESIAN_POINT('Origin',(60.,65.,0.));
#1337=CARTESIAN_POINT('',(60.,-60.,0.));
#1338=CARTESIAN_POINT('',(60.,-60.,0.));
#1339=CARTESIAN_POINT('',(60.,-30.,0.));
#1340=CARTESIAN_POINT('Origin',(105.,0.,0.));
#1341=CARTESIAN_POINT('',(160.,-50.,0.));
#1342=CARTESIAN_POINT('',(105.,-50.,0.));
#1343=CARTESIAN_POINT('',(160.,-70.,0.));
#1344=CARTESIAN_POINT('',(160.,-35.,0.));
#1345=CARTESIAN_POINT('',(140.,-70.,0.));
#1346=CARTESIAN_POINT('',(105.,-70.,0.));
#1347=CARTESIAN_POINT('',(140.,-67.5,0.));
#1348=CARTESIAN_POINT('',(70.,-70.,0.));
#1349=CARTESIAN_POINT('',(70.,-70.,0.));
#1350=CARTESIAN_POINT('',(50.,-70.,0.));
#1351=CARTESIAN_POINT('',(105.,-70.,0.));
#1352=CARTESIAN_POINT('',(50.,-50.,0.));
#1353=CARTESIAN_POINT('',(50.,-35.,0.));
#1354=CARTESIAN_POINT('',(55.,-50.,0.));
#1355=CARTESIAN_POINT('',(52.5,-50.,0.));
#1356=CARTESIAN_POINT('',(55.,50.,0.));
#1357=CARTESIAN_POINT('',(55.,-2.5,0.));
#1358=CARTESIAN_POINT('',(50.,50.,0.));
#1359=CARTESIAN_POINT('',(50.,50.,0.));
#1360=CARTESIAN_POINT('',(50.,70.,0.));
#1361=CARTESIAN_POINT('',(50.,-35.,0.));
#1362=CARTESIAN_POINT('',(65.,70.,0.));
#1363=CARTESIAN_POINT('',(105.,70.,0.));
#1364=CARTESIAN_POINT('',(65.,-2.5,0.));
#1365=CARTESIAN_POINT('',(140.,70.,0.));
#1366=CARTESIAN_POINT('',(140.,0.,0.));
#1367=CARTESIAN_POINT('',(160.,70.,0.));
#1368=CARTESIAN_POINT('',(105.,70.,0.));
#1369=CARTESIAN_POINT('',(160.,50.,0.));
#1370=CARTESIAN_POINT('',(160.,-35.,0.));
#1371=CARTESIAN_POINT('',(102.5,50.,0.));
#1372=CARTESIAN_POINT('',(54.,67.5,0.));
#1373=CARTESIAN_POINT('Origin',(52.5,67.5,0.));
#1374=CARTESIAN_POINT('',(159.,-67.5,0.));
#1375=CARTESIAN_POINT('Origin',(157.5,-67.5,0.));
#1376=CARTESIAN_POINT('',(159.,67.5,0.));
#1377=CARTESIAN_POINT('Origin',(157.5,67.5,0.));
#1378=CARTESIAN_POINT('',(54.,-67.5,0.));
#1379=CARTESIAN_POINT('Origin',(52.5,-67.5,0.));
#1380=CARTESIAN_POINT('',(150.,-60.,0.));
#1381=CARTESIAN_POINT('',(150.,-30.,0.));
#1382=CARTESIAN_POINT('',(107.5,-60.,0.));
#1383=CARTESIAN_POINT('Origin',(150.,-65.,0.));
#1384=CARTESIAN_POINT('',(150.,-60.,0.));
#1385=CARTESIAN_POINT('Origin',(55.,-60.,0.));
#1386=CARTESIAN_POINT('Origin',(52.5,-67.5,5.));
#1387=CARTESIAN_POINT('',(54.,-67.5,5.));
#1388=CARTESIAN_POINT('Origin',(52.5,-67.5,5.));
#1389=CARTESIAN_POINT('',(54.,-67.5,5.));
#1390=CARTESIAN_POINT('Origin',(157.5,67.5,5.));
#1391=CARTESIAN_POINT('',(159.,67.5,5.));
#1392=CARTESIAN_POINT('Origin',(157.5,67.5,5.));
#1393=CARTESIAN_POINT('',(159.,67.5,5.));
#1394=CARTESIAN_POINT('Origin',(157.5,-67.5,5.));
#1395=CARTESIAN_POINT('',(159.,-67.5,5.));
#1396=CARTESIAN_POINT('Origin',(157.5,-67.5,5.));
#1397=CARTESIAN_POINT('',(159.,-67.5,5.));
#1398=CARTESIAN_POINT('Origin',(52.5,67.5,5.));
#1399=CARTESIAN_POINT('',(54.,67.5,5.));
#1400=CARTESIAN_POINT('Origin',(52.5,67.5,5.));
#1401=CARTESIAN_POINT('',(54.,67.5,5.));
#1402=CARTESIAN_POINT('Origin',(62.9289321881345,-70.,-2.5));
#1403=CARTESIAN_POINT('',(62.9289321881345,-70.,5.));
#1404=CARTESIAN_POINT('',(62.9289321881345,-70.,5.));
#1405=CARTESIAN_POINT('Origin',(62.9289321881345,-70.,-2.5));
#1406=CARTESIAN_POINT('Origin',(105.,-70.,-30.));
#1407=CARTESIAN_POINT('',(50.,-70.,5.));
#1408=CARTESIAN_POINT('',(160.,-70.,5.));
#1409=CARTESIAN_POINT('',(50.,-70.,-10.));
#1410=CARTESIAN_POINT('Origin',(60.,-60.,5.));
#1411=CARTESIAN_POINT('',(55.,-57.0710678118655,5.));
#1412=CARTESIAN_POINT('',(55.,2.5,5.));
#1413=CARTESIAN_POINT('',(50.,-57.0710678118655,5.));
#1414=CARTESIAN_POINT('',(52.5,-57.0710678118655,5.));
#1415=CARTESIAN_POINT('',(50.,-70.,5.));
#1416=CARTESIAN_POINT('Origin',(52.5,-57.0710678118655,-2.5));
#1417=CARTESIAN_POINT('Origin',(50.,-57.0710678118655,-2.5));
#1418=CARTESIAN_POINT('Origin',(55.,-57.0710678118655,-2.5));
#1419=CARTESIAN_POINT('Origin',(50.,-70.,-10.));
#1420=CARTESIAN_POINT('Origin',(50.,57.0710678118655,-2.5));
#1421=CARTESIAN_POINT('',(55.,57.0710678118655,5.));
#1422=CARTESIAN_POINT('Origin',(55.,57.0710678118655,-2.5));
#1423=CARTESIAN_POINT('',(50.,57.0710678118655,5.));
#1424=CARTESIAN_POINT('',(50.,57.0710678118655,5.));
#1425=CARTESIAN_POINT('Origin',(50.,57.0710678118655,-2.5));
#1426=CARTESIAN_POINT('Origin',(57.5,60.,5.));
#1427=CARTESIAN_POINT('',(55.,62.5,5.));
#1428=CARTESIAN_POINT('',(57.9289321881345,70.,5.));
#1429=CARTESIAN_POINT('',(57.9289321881345,-2.5,5.));
#1430=CARTESIAN_POINT('',(50.,70.,5.));
#1431=CARTESIAN_POINT('',(50.,70.,5.));
#1432=CARTESIAN_POINT('',(50.,-70.,5.));
#1433=CARTESIAN_POINT('Origin',(57.9289321881345,-2.5,-2.5));
#1434=CARTESIAN_POINT('Origin',(57.9289321881345,70.,-2.5));
#1435=CARTESIAN_POINT('Origin',(105.,70.,-30.));
#1436=CARTESIAN_POINT('',(50.,70.,-10.));
#1437=CARTESIAN_POINT('Origin',(147.071067811865,0.,-2.5));
#1438=CARTESIAN_POINT('',(147.071067811865,70.,5.));
#1439=CARTESIAN_POINT('',(147.071067811865,0.,5.));
#1440=CARTESIAN_POINT('Origin',(147.071067811865,70.,-2.5));
#1441=CARTESIAN_POINT('Origin',(105.,70.,-30.));
#1442=CARTESIAN_POINT('',(160.,70.,5.));
#1443=CARTESIAN_POINT('',(50.,70.,5.));
#1444=CARTESIAN_POINT('',(160.,70.,0.));
#1445=CARTESIAN_POINT('Origin',(102.5,57.0710678118655,-2.5));
#1446=CARTESIAN_POINT('',(160.,57.0710678118655,5.));
#1447=CARTESIAN_POINT('Origin',(160.,57.0710678118655,-2.5));
#1448=CARTESIAN_POINT('',(102.5,57.0710678118655,5.));
#1449=CARTESIAN_POINT('Origin',(160.,-70.,0.));
#1450=CARTESIAN_POINT('',(160.,70.,5.));
#1451=CARTESIAN_POINT('Origin',(147.071067811865,-67.5,-2.5));
#1452=CARTESIAN_POINT('',(147.071067811865,-70.,5.));
#1453=CARTESIAN_POINT('Origin',(147.071067811865,-70.,-2.5));
#1454=CARTESIAN_POINT('',(147.071067811865,-67.5,5.));
#1455=CARTESIAN_POINT('Origin',(150.,-60.,5.));
#1456=CARTESIAN_POINT('',(160.,-70.,5.));
#1457=CARTESIAN_POINT('',(160.,-70.,5.));
#1458=CARTESIAN_POINT('',(160.,-57.0710678118655,5.));
#1459=CARTESIAN_POINT('',(160.,70.,5.));
#1460=CARTESIAN_POINT('',(105.,-57.0710678118655,5.));
#1461=CARTESIAN_POINT('Origin',(105.,-70.,-30.));
#1462=CARTESIAN_POINT('',(160.,-70.,-10.));
#1463=CARTESIAN_POINT('Origin',(105.,-57.0710678118655,-2.5));
#1464=CARTESIAN_POINT('Origin',(160.,-57.0710678118655,-2.5));
#1465=CARTESIAN_POINT('Origin',(160.,-70.,0.));
#1466=CARTESIAN_POINT('Origin',(150.,60.,5.));
#1467=CARTESIAN_POINT('Origin',(55.,65.,0.));
#1468=CARTESIAN_POINT('Origin',(50.,-70.,-10.));
#1469=UNCERTAINTY_MEASURE_WITH_UNIT(LENGTH_MEASURE(0.01),#1473,
'DISTANCE_ACCURACY_VALUE',
'Maximum model space distance between geometric entities at asserted c
onnectivities');
#1470=UNCERTAINTY_MEASURE_WITH_UNIT(LENGTH_MEASURE(0.01),#1473,
'DISTANCE_ACCURACY_VALUE',
'Maximum model space distance between geometric entities at asserted c
onnectivities');
#1471=(
GEOMETRIC_REPRESENTATION_CONTEXT(3)
GLOBAL_UNCERTAINTY_ASSIGNED_CONTEXT((#1469))
GLOBAL_UNIT_ASSIGNED_CONTEXT((#1473,#1475,#1476))
REPRESENTATION_CONTEXT('','3D')
);
#1472=(
GEOMETRIC_REPRESENTATION_CONTEXT(3)
GLOBAL_UNCERTAINTY_ASSIGNED_CONTEXT((#1470))
GLOBAL_UNIT_ASSIGNED_CONTEXT((#1473,#1475,#1476))
REPRESENTATION_CONTEXT('','3D')
);
#1473=(
LENGTH_UNIT()
NAMED_UNIT(*)
SI_UNIT(.MILLI.,.METRE.)
);
#1474=(
LENGTH_UNIT()
NAMED_UNIT(*)
SI_UNIT($,.METRE.)
);
#1475=(
NAMED_UNIT(*)
PLANE_ANGLE_UNIT()
SI_UNIT($,.RADIAN.)
);
#1476=(
NAMED_UNIT(*)
SI_UNIT($,.STERADIAN.)
SOLID_ANGLE_UNIT()
);
#1477=SHAPE_DEFINITION_REPRESENTATION(#1478,#1479);
#1478=PRODUCT_DEFINITION_SHAPE('',$,#1481);
#1479=SHAPE_REPRESENTATION('',(#879),#1471);
#1480=PRODUCT_DEFINITION_CONTEXT('part definition',#1485,'design');
#1481=PRODUCT_DEFINITION('SecondaryElectricsBox',
'SecondaryElectricsBox',#1482,#1480);
#1482=PRODUCT_DEFINITION_FORMATION('',$,#1487);
#1483=PRODUCT_RELATED_PRODUCT_CATEGORY('SecondaryElectricsBox',
'SecondaryElectricsBox',(#1487));
#1484=APPLICATION_PROTOCOL_DEFINITION('international standard',
'automotive_design',2009,#1485);
#1485=APPLICATION_CONTEXT(
'Core Data for Automotive Mechanical Design Process');
#1486=PRODUCT_CONTEXT('part definition',#1485,'mechanical');
#1487=PRODUCT('SecondaryElectricsBox','SecondaryElectricsBox',$,(#1486));
#1488=PRESENTATION_STYLE_ASSIGNMENT((#1489));
#1489=SURFACE_STYLE_USAGE(.BOTH.,#1490);
#1490=SURFACE_SIDE_STYLE('',(#1491));
#1491=SURFACE_STYLE_FILL_AREA(#1492);
#1492=FILL_AREA_STYLE('Steel - Satin',(#1493));
#1493=FILL_AREA_STYLE_COLOUR('Steel - Satin',#1494);
#1494=COLOUR_RGB('Steel - Satin',0.627450980392157,0.627450980392157,0.627450980392157);
ENDSEC;
END-ISO-10303-21;
