ISO-10303-21;
HEADER;
/* Generated by software containing ST-Developer
 * from STEP Tools, Inc. (www.steptools.com) 
 */

FILE_DESCRIPTION(
/* description */ (''),
/* implementation_level */ '2;1');

FILE_NAME(
/* name */ 'ElectronicsMBcover.step',
/* time_stamp */ '2026-08-05T16:40:33-05:00',
/* author */ (''),
/* organization */ (''),
/* preprocessor_version */ 'ST-DEVELOPER v20.1',
/* originating_system */ 'Autodesk Translation Framework v15.8.0.0',
/* authorisation */ '');

FILE_SCHEMA (('AUTOMOTIVE_DESIGN { 1 0 10303 214 3 1 1 }'));
ENDSEC;

DATA;
#10=MECHANICAL_DESIGN_GEOMETRIC_PRESENTATION_REPRESENTATION('',(#13),#842);
#11=SHAPE_REPRESENTATION_RELATIONSHIP('SRR','None',#849,#12);
#12=ADVANCED_BREP_SHAPE_REPRESENTATION('',(#14),#841);
#13=STYLED_ITEM('',(#858),#14);
#14=MANIFOLD_SOLID_BREP('Body1',#506);
#15=FACE_BOUND('',#77,.T.);
#16=FACE_BOUND('',#78,.T.);
#17=FACE_BOUND('',#79,.T.);
#18=FACE_BOUND('',#80,.T.);
#19=FACE_BOUND('',#81,.T.);
#20=CYLINDRICAL_SURFACE('',#532,1.);
#21=CYLINDRICAL_SURFACE('',#542,1.);
#22=CYLINDRICAL_SURFACE('',#544,1.5);
#23=CYLINDRICAL_SURFACE('',#547,1.5);
#24=CYLINDRICAL_SURFACE('',#550,1.5);
#25=CYLINDRICAL_SURFACE('',#553,1.5);
#26=CIRCLE('',#527,1.5);
#27=CIRCLE('',#530,1.5);
#28=CIRCLE('',#531,1.5);
#29=CIRCLE('',#533,1.);
#30=CIRCLE('',#534,1.);
#31=CIRCLE('',#536,1.);
#32=CIRCLE('',#537,1.5);
#33=CIRCLE('',#538,1.5);
#34=CIRCLE('',#539,1.5);
#35=CIRCLE('',#540,1.5);
#36=CIRCLE('',#543,1.);
#37=CIRCLE('',#545,1.5);
#38=CIRCLE('',#548,1.5);
#39=CIRCLE('',#551,1.5);
#40=FACE_OUTER_BOUND('',#66,.T.);
#41=FACE_OUTER_BOUND('',#67,.T.);
#42=FACE_OUTER_BOUND('',#68,.T.);
#43=FACE_OUTER_BOUND('',#69,.T.);
#44=FACE_OUTER_BOUND('',#70,.T.);
#45=FACE_OUTER_BOUND('',#71,.T.);
#46=FACE_OUTER_BOUND('',#72,.T.);
#47=FACE_OUTER_BOUND('',#73,.T.);
#48=FACE_OUTER_BOUND('',#74,.T.);
#49=FACE_OUTER_BOUND('',#75,.T.);
#50=FACE_OUTER_BOUND('',#76,.T.);
#51=FACE_OUTER_BOUND('',#82,.T.);
#52=FACE_OUTER_BOUND('',#83,.T.);
#53=FACE_OUTER_BOUND('',#84,.T.);
#54=FACE_OUTER_BOUND('',#85,.T.);
#55=FACE_OUTER_BOUND('',#86,.T.);
#56=FACE_OUTER_BOUND('',#87,.T.);
#57=FACE_OUTER_BOUND('',#88,.T.);
#58=FACE_OUTER_BOUND('',#89,.T.);
#59=FACE_OUTER_BOUND('',#90,.T.);
#60=FACE_OUTER_BOUND('',#91,.T.);
#61=FACE_OUTER_BOUND('',#92,.T.);
#62=FACE_OUTER_BOUND('',#93,.T.);
#63=FACE_OUTER_BOUND('',#94,.T.);
#64=FACE_OUTER_BOUND('',#95,.T.);
#65=FACE_OUTER_BOUND('',#96,.T.);
#66=EDGE_LOOP('',(#322,#323,#324,#325));
#67=EDGE_LOOP('',(#326,#327,#328,#329));
#68=EDGE_LOOP('',(#330,#331,#332,#333));
#69=EDGE_LOOP('',(#334,#335,#336,#337,#338,#339));
#70=EDGE_LOOP('',(#340,#341,#342,#343,#344,#345,#346,#347));
#71=EDGE_LOOP('',(#348,#349,#350,#351,#352,#353));
#72=EDGE_LOOP('',(#354,#355,#356,#357,#358,#359,#360,#361,#362,#363));
#73=EDGE_LOOP('',(#364,#365,#366,#367,#368,#369,#370,#371));
#74=EDGE_LOOP('',(#372,#373,#374));
#75=EDGE_LOOP('',(#375,#376,#377,#378));
#76=EDGE_LOOP('',(#379,#380,#381,#382,#383,#384));
#77=EDGE_LOOP('',(#385,#386,#387,#388));
#78=EDGE_LOOP('',(#389));
#79=EDGE_LOOP('',(#390));
#80=EDGE_LOOP('',(#391));
#81=EDGE_LOOP('',(#392));
#82=EDGE_LOOP('',(#393,#394,#395,#396));
#83=EDGE_LOOP('',(#397,#398,#399,#400));
#84=EDGE_LOOP('',(#401,#402,#403,#404));
#85=EDGE_LOOP('',(#405));
#86=EDGE_LOOP('',(#406,#407,#408,#409));
#87=EDGE_LOOP('',(#410));
#88=EDGE_LOOP('',(#411,#412,#413,#414));
#89=EDGE_LOOP('',(#415));
#90=EDGE_LOOP('',(#416,#417,#418,#419,#420,#421,#422,#423));
#91=EDGE_LOOP('',(#424,#425,#426,#427,#428,#429));
#92=EDGE_LOOP('',(#430,#431,#432,#433,#434,#435));
#93=EDGE_LOOP('',(#436,#437,#438,#439,#440,#441,#442,#443,#444,#445));
#94=EDGE_LOOP('',(#446,#447,#448,#449));
#95=EDGE_LOOP('',(#450,#451,#452,#453));
#96=EDGE_LOOP('',(#454,#455,#456,#457,#458,#459));
#97=LINE('',#701,#152);
#98=LINE('',#703,#153);
#99=LINE('',#705,#154);
#100=LINE('',#706,#155);
#101=LINE('',#710,#156);
#102=LINE('',#712,#157);
#103=LINE('',#714,#158);
#104=LINE('',#715,#159);
#105=LINE('',#718,#160);
#106=LINE('',#720,#161);
#107=LINE('',#721,#162);
#108=LINE('',#724,#163);
#109=LINE('',#726,#164);
#110=LINE('',#728,#165);
#111=LINE('',#729,#166);
#112=LINE('',#733,#167);
#113=LINE('',#735,#168);
#114=LINE('',#736,#169);
#115=LINE('',#738,#170);
#116=LINE('',#740,#171);
#117=LINE('',#741,#172);
#118=LINE('',#744,#173);
#119=LINE('',#746,#174);
#120=LINE('',#748,#175);
#121=LINE('',#750,#176);
#122=LINE('',#751,#177);
#123=LINE('',#755,#178);
#124=LINE('',#757,#179);
#125=LINE('',#758,#180);
#126=LINE('',#759,#181);
#127=LINE('',#762,#182);
#128=LINE('',#764,#183);
#129=LINE('',#765,#184);
#130=LINE('',#775,#185);
#131=LINE('',#778,#186);
#132=LINE('',#781,#187);
#133=LINE('',#784,#188);
#134=LINE('',#785,#189);
#135=LINE('',#787,#190);
#136=LINE('',#789,#191);
#137=LINE('',#790,#192);
#138=LINE('',#801,#193);
#139=LINE('',#802,#194);
#140=LINE('',#806,#195);
#141=LINE('',#809,#196);
#142=LINE('',#814,#197);
#143=LINE('',#819,#198);
#144=LINE('',#823,#199);
#145=LINE('',#826,#200);
#146=LINE('',#827,#201);
#147=LINE('',#830,#202);
#148=LINE('',#831,#203);
#149=LINE('',#833,#204);
#150=LINE('',#834,#205);
#151=LINE('',#836,#206);
#152=VECTOR('',#564,10.);
#153=VECTOR('',#565,10.);
#154=VECTOR('',#566,10.);
#155=VECTOR('',#567,10.);
#156=VECTOR('',#570,10.);
#157=VECTOR('',#571,10.);
#158=VECTOR('',#572,10.);
#159=VECTOR('',#573,10.);
#160=VECTOR('',#576,10.);
#161=VECTOR('',#577,10.);
#162=VECTOR('',#578,10.);
#163=VECTOR('',#581,10.);
#164=VECTOR('',#582,10.);
#165=VECTOR('',#583,10.);
#166=VECTOR('',#584,10.);
#167=VECTOR('',#587,10.);
#168=VECTOR('',#588,10.);
#169=VECTOR('',#589,10.);
#170=VECTOR('',#590,10.);
#171=VECTOR('',#591,10.);
#172=VECTOR('',#592,10.);
#173=VECTOR('',#595,10.);
#174=VECTOR('',#596,10.);
#175=VECTOR('',#597,10.);
#176=VECTOR('',#598,10.);
#177=VECTOR('',#599,10.);
#178=VECTOR('',#604,10.);
#179=VECTOR('',#605,10.);
#180=VECTOR('',#606,10.);
#181=VECTOR('',#607,10.);
#182=VECTOR('',#610,10.);
#183=VECTOR('',#611,10.);
#184=VECTOR('',#612,10.);
#185=VECTOR('',#623,10.);
#186=VECTOR('',#626,10.);
#187=VECTOR('',#629,10.);
#188=VECTOR('',#632,10.);
#189=VECTOR('',#633,10.);
#190=VECTOR('',#634,10.);
#191=VECTOR('',#635,10.);
#192=VECTOR('',#636,10.);
#193=VECTOR('',#647,10.);
#194=VECTOR('',#648,10.);
#195=VECTOR('',#653,10.);
#196=VECTOR('',#656,1.5);
#197=VECTOR('',#663,1.5);
#198=VECTOR('',#670,1.5);
#199=VECTOR('',#677,1.5);
#200=VECTOR('',#680,10.);
#201=VECTOR('',#681,10.);
#202=VECTOR('',#684,10.);
#203=VECTOR('',#685,10.);
#204=VECTOR('',#688,10.);
#205=VECTOR('',#689,10.);
#206=VECTOR('',#692,10.);
#207=VERTEX_POINT('',#699);
#208=VERTEX_POINT('',#700);
#209=VERTEX_POINT('',#702);
#210=VERTEX_POINT('',#704);
#211=VERTEX_POINT('',#708);
#212=VERTEX_POINT('',#709);
#213=VERTEX_POINT('',#711);
#214=VERTEX_POINT('',#713);
#215=VERTEX_POINT('',#717);
#216=VERTEX_POINT('',#719);
#217=VERTEX_POINT('',#723);
#218=VERTEX_POINT('',#725);
#219=VERTEX_POINT('',#727);
#220=VERTEX_POINT('',#731);
#221=VERTEX_POINT('',#732);
#222=VERTEX_POINT('',#734);
#223=VERTEX_POINT('',#737);
#224=VERTEX_POINT('',#739);
#225=VERTEX_POINT('',#743);
#226=VERTEX_POINT('',#745);
#227=VERTEX_POINT('',#747);
#228=VERTEX_POINT('',#749);
#229=VERTEX_POINT('',#754);
#230=VERTEX_POINT('',#756);
#231=VERTEX_POINT('',#761);
#232=VERTEX_POINT('',#763);
#233=VERTEX_POINT('',#767);
#234=VERTEX_POINT('',#771);
#235=VERTEX_POINT('',#772);
#236=VERTEX_POINT('',#774);
#237=VERTEX_POINT('',#776);
#238=VERTEX_POINT('',#780);
#239=VERTEX_POINT('',#782);
#240=VERTEX_POINT('',#786);
#241=VERTEX_POINT('',#788);
#242=VERTEX_POINT('',#791);
#243=VERTEX_POINT('',#793);
#244=VERTEX_POINT('',#795);
#245=VERTEX_POINT('',#797);
#246=VERTEX_POINT('',#800);
#247=VERTEX_POINT('',#804);
#248=VERTEX_POINT('',#808);
#249=VERTEX_POINT('',#813);
#250=VERTEX_POINT('',#818);
#251=VERTEX_POINT('',#825);
#252=VERTEX_POINT('',#829);
#253=EDGE_CURVE('',#207,#208,#97,.T.);
#254=EDGE_CURVE('',#209,#208,#98,.T.);
#255=EDGE_CURVE('',#209,#210,#99,.T.);
#256=EDGE_CURVE('',#210,#207,#100,.T.);
#257=EDGE_CURVE('',#211,#212,#101,.T.);
#258=EDGE_CURVE('',#213,#211,#102,.T.);
#259=EDGE_CURVE('',#213,#214,#103,.T.);
#260=EDGE_CURVE('',#214,#212,#104,.T.);
#261=EDGE_CURVE('',#215,#213,#105,.T.);
#262=EDGE_CURVE('',#215,#216,#106,.T.);
#263=EDGE_CURVE('',#216,#214,#107,.T.);
#264=EDGE_CURVE('',#211,#217,#108,.T.);
#265=EDGE_CURVE('',#217,#218,#109,.T.);
#266=EDGE_CURVE('',#219,#218,#110,.T.);
#267=EDGE_CURVE('',#215,#219,#111,.T.);
#268=EDGE_CURVE('',#220,#221,#112,.T.);
#269=EDGE_CURVE('',#220,#222,#113,.T.);
#270=EDGE_CURVE('',#217,#222,#114,.T.);
#271=EDGE_CURVE('',#212,#223,#115,.T.);
#272=EDGE_CURVE('',#224,#223,#116,.T.);
#273=EDGE_CURVE('',#221,#224,#117,.T.);
#274=EDGE_CURVE('',#225,#207,#118,.T.);
#275=EDGE_CURVE('',#225,#226,#119,.T.);
#276=EDGE_CURVE('',#227,#226,#120,.T.);
#277=EDGE_CURVE('',#228,#227,#121,.T.);
#278=EDGE_CURVE('',#208,#228,#122,.T.);
#279=EDGE_CURVE('',#223,#220,#26,.T.);
#280=EDGE_CURVE('',#229,#216,#123,.T.);
#281=EDGE_CURVE('',#230,#229,#124,.T.);
#282=EDGE_CURVE('',#226,#230,#125,.T.);
#283=EDGE_CURVE('',#222,#225,#126,.T.);
#284=EDGE_CURVE('',#210,#231,#127,.T.);
#285=EDGE_CURVE('',#232,#231,#128,.T.);
#286=EDGE_CURVE('',#218,#232,#129,.T.);
#287=EDGE_CURVE('',#233,#224,#27,.T.);
#288=EDGE_CURVE('',#221,#233,#28,.T.);
#289=EDGE_CURVE('',#234,#235,#29,.T.);
#290=EDGE_CURVE('',#235,#236,#130,.T.);
#291=EDGE_CURVE('',#236,#237,#30,.T.);
#292=EDGE_CURVE('',#237,#234,#131,.T.);
#293=EDGE_CURVE('',#236,#238,#132,.T.);
#294=EDGE_CURVE('',#239,#238,#31,.T.);
#295=EDGE_CURVE('',#239,#232,#133,.T.);
#296=EDGE_CURVE('',#231,#237,#134,.T.);
#297=EDGE_CURVE('',#227,#240,#135,.T.);
#298=EDGE_CURVE('',#240,#241,#136,.T.);
#299=EDGE_CURVE('',#241,#228,#137,.T.);
#300=EDGE_CURVE('',#242,#242,#32,.T.);
#301=EDGE_CURVE('',#243,#243,#33,.T.);
#302=EDGE_CURVE('',#244,#244,#34,.T.);
#303=EDGE_CURVE('',#245,#245,#35,.T.);
#304=EDGE_CURVE('',#235,#246,#138,.T.);
#305=EDGE_CURVE('',#238,#246,#139,.T.);
#306=EDGE_CURVE('',#246,#247,#36,.T.);
#307=EDGE_CURVE('',#247,#239,#140,.T.);
#308=EDGE_CURVE('',#245,#248,#141,.T.);
#309=EDGE_CURVE('',#248,#248,#37,.T.);
#310=EDGE_CURVE('',#244,#249,#142,.T.);
#311=EDGE_CURVE('',#249,#249,#38,.T.);
#312=EDGE_CURVE('',#243,#250,#143,.T.);
#313=EDGE_CURVE('',#250,#250,#39,.T.);
#314=EDGE_CURVE('',#242,#233,#144,.T.);
#315=EDGE_CURVE('',#251,#209,#145,.T.);
#316=EDGE_CURVE('',#234,#251,#146,.T.);
#317=EDGE_CURVE('',#251,#252,#147,.T.);
#318=EDGE_CURVE('',#247,#252,#148,.T.);
#319=EDGE_CURVE('',#252,#219,#149,.T.);
#320=EDGE_CURVE('',#241,#229,#150,.T.);
#321=EDGE_CURVE('',#240,#230,#151,.T.);
#322=ORIENTED_EDGE('',*,*,#253,.T.);
#323=ORIENTED_EDGE('',*,*,#254,.F.);
#324=ORIENTED_EDGE('',*,*,#255,.T.);
#325=ORIENTED_EDGE('',*,*,#256,.T.);
#326=ORIENTED_EDGE('',*,*,#257,.F.);
#327=ORIENTED_EDGE('',*,*,#258,.F.);
#328=ORIENTED_EDGE('',*,*,#259,.T.);
#329=ORIENTED_EDGE('',*,*,#260,.T.);
#330=ORIENTED_EDGE('',*,*,#261,.F.);
#331=ORIENTED_EDGE('',*,*,#262,.T.);
#332=ORIENTED_EDGE('',*,*,#263,.T.);
#333=ORIENTED_EDGE('',*,*,#259,.F.);
#334=ORIENTED_EDGE('',*,*,#261,.T.);
#335=ORIENTED_EDGE('',*,*,#258,.T.);
#336=ORIENTED_EDGE('',*,*,#264,.T.);
#337=ORIENTED_EDGE('',*,*,#265,.T.);
#338=ORIENTED_EDGE('',*,*,#266,.F.);
#339=ORIENTED_EDGE('',*,*,#267,.F.);
#340=ORIENTED_EDGE('',*,*,#268,.F.);
#341=ORIENTED_EDGE('',*,*,#269,.T.);
#342=ORIENTED_EDGE('',*,*,#270,.F.);
#343=ORIENTED_EDGE('',*,*,#264,.F.);
#344=ORIENTED_EDGE('',*,*,#257,.T.);
#345=ORIENTED_EDGE('',*,*,#271,.T.);
#346=ORIENTED_EDGE('',*,*,#272,.F.);
#347=ORIENTED_EDGE('',*,*,#273,.F.);
#348=ORIENTED_EDGE('',*,*,#253,.F.);
#349=ORIENTED_EDGE('',*,*,#274,.F.);
#350=ORIENTED_EDGE('',*,*,#275,.T.);
#351=ORIENTED_EDGE('',*,*,#276,.F.);
#352=ORIENTED_EDGE('',*,*,#277,.F.);
#353=ORIENTED_EDGE('',*,*,#278,.F.);
#354=ORIENTED_EDGE('',*,*,#279,.F.);
#355=ORIENTED_EDGE('',*,*,#271,.F.);
#356=ORIENTED_EDGE('',*,*,#260,.F.);
#357=ORIENTED_EDGE('',*,*,#263,.F.);
#358=ORIENTED_EDGE('',*,*,#280,.F.);
#359=ORIENTED_EDGE('',*,*,#281,.F.);
#360=ORIENTED_EDGE('',*,*,#282,.F.);
#361=ORIENTED_EDGE('',*,*,#275,.F.);
#362=ORIENTED_EDGE('',*,*,#283,.F.);
#363=ORIENTED_EDGE('',*,*,#269,.F.);
#364=ORIENTED_EDGE('',*,*,#270,.T.);
#365=ORIENTED_EDGE('',*,*,#283,.T.);
#366=ORIENTED_EDGE('',*,*,#274,.T.);
#367=ORIENTED_EDGE('',*,*,#256,.F.);
#368=ORIENTED_EDGE('',*,*,#284,.T.);
#369=ORIENTED_EDGE('',*,*,#285,.F.);
#370=ORIENTED_EDGE('',*,*,#286,.F.);
#371=ORIENTED_EDGE('',*,*,#265,.F.);
#372=ORIENTED_EDGE('',*,*,#273,.T.);
#373=ORIENTED_EDGE('',*,*,#287,.F.);
#374=ORIENTED_EDGE('',*,*,#288,.F.);
#375=ORIENTED_EDGE('',*,*,#289,.T.);
#376=ORIENTED_EDGE('',*,*,#290,.T.);
#377=ORIENTED_EDGE('',*,*,#291,.T.);
#378=ORIENTED_EDGE('',*,*,#292,.T.);
#379=ORIENTED_EDGE('',*,*,#291,.F.);
#380=ORIENTED_EDGE('',*,*,#293,.T.);
#381=ORIENTED_EDGE('',*,*,#294,.F.);
#382=ORIENTED_EDGE('',*,*,#295,.T.);
#383=ORIENTED_EDGE('',*,*,#285,.T.);
#384=ORIENTED_EDGE('',*,*,#296,.T.);
#385=ORIENTED_EDGE('',*,*,#297,.T.);
#386=ORIENTED_EDGE('',*,*,#298,.T.);
#387=ORIENTED_EDGE('',*,*,#299,.T.);
#388=ORIENTED_EDGE('',*,*,#277,.T.);
#389=ORIENTED_EDGE('',*,*,#300,.T.);
#390=ORIENTED_EDGE('',*,*,#301,.T.);
#391=ORIENTED_EDGE('',*,*,#302,.T.);
#392=ORIENTED_EDGE('',*,*,#303,.T.);
#393=ORIENTED_EDGE('',*,*,#290,.F.);
#394=ORIENTED_EDGE('',*,*,#304,.T.);
#395=ORIENTED_EDGE('',*,*,#305,.F.);
#396=ORIENTED_EDGE('',*,*,#293,.F.);
#397=ORIENTED_EDGE('',*,*,#294,.T.);
#398=ORIENTED_EDGE('',*,*,#305,.T.);
#399=ORIENTED_EDGE('',*,*,#306,.T.);
#400=ORIENTED_EDGE('',*,*,#307,.T.);
#401=ORIENTED_EDGE('',*,*,#303,.F.);
#402=ORIENTED_EDGE('',*,*,#308,.T.);
#403=ORIENTED_EDGE('',*,*,#309,.T.);
#404=ORIENTED_EDGE('',*,*,#308,.F.);
#405=ORIENTED_EDGE('',*,*,#309,.F.);
#406=ORIENTED_EDGE('',*,*,#302,.F.);
#407=ORIENTED_EDGE('',*,*,#310,.T.);
#408=ORIENTED_EDGE('',*,*,#311,.T.);
#409=ORIENTED_EDGE('',*,*,#310,.F.);
#410=ORIENTED_EDGE('',*,*,#311,.F.);
#411=ORIENTED_EDGE('',*,*,#301,.F.);
#412=ORIENTED_EDGE('',*,*,#312,.T.);
#413=ORIENTED_EDGE('',*,*,#313,.T.);
#414=ORIENTED_EDGE('',*,*,#312,.F.);
#415=ORIENTED_EDGE('',*,*,#313,.F.);
#416=ORIENTED_EDGE('',*,*,#300,.F.);
#417=ORIENTED_EDGE('',*,*,#314,.T.);
#418=ORIENTED_EDGE('',*,*,#287,.T.);
#419=ORIENTED_EDGE('',*,*,#272,.T.);
#420=ORIENTED_EDGE('',*,*,#279,.T.);
#421=ORIENTED_EDGE('',*,*,#268,.T.);
#422=ORIENTED_EDGE('',*,*,#288,.T.);
#423=ORIENTED_EDGE('',*,*,#314,.F.);
#424=ORIENTED_EDGE('',*,*,#292,.F.);
#425=ORIENTED_EDGE('',*,*,#296,.F.);
#426=ORIENTED_EDGE('',*,*,#284,.F.);
#427=ORIENTED_EDGE('',*,*,#255,.F.);
#428=ORIENTED_EDGE('',*,*,#315,.F.);
#429=ORIENTED_EDGE('',*,*,#316,.F.);
#430=ORIENTED_EDGE('',*,*,#289,.F.);
#431=ORIENTED_EDGE('',*,*,#316,.T.);
#432=ORIENTED_EDGE('',*,*,#317,.T.);
#433=ORIENTED_EDGE('',*,*,#318,.F.);
#434=ORIENTED_EDGE('',*,*,#306,.F.);
#435=ORIENTED_EDGE('',*,*,#304,.F.);
#436=ORIENTED_EDGE('',*,*,#267,.T.);
#437=ORIENTED_EDGE('',*,*,#319,.F.);
#438=ORIENTED_EDGE('',*,*,#317,.F.);
#439=ORIENTED_EDGE('',*,*,#315,.T.);
#440=ORIENTED_EDGE('',*,*,#254,.T.);
#441=ORIENTED_EDGE('',*,*,#278,.T.);
#442=ORIENTED_EDGE('',*,*,#299,.F.);
#443=ORIENTED_EDGE('',*,*,#320,.T.);
#444=ORIENTED_EDGE('',*,*,#280,.T.);
#445=ORIENTED_EDGE('',*,*,#262,.F.);
#446=ORIENTED_EDGE('',*,*,#282,.T.);
#447=ORIENTED_EDGE('',*,*,#321,.F.);
#448=ORIENTED_EDGE('',*,*,#297,.F.);
#449=ORIENTED_EDGE('',*,*,#276,.T.);
#450=ORIENTED_EDGE('',*,*,#281,.T.);
#451=ORIENTED_EDGE('',*,*,#320,.F.);
#452=ORIENTED_EDGE('',*,*,#298,.F.);
#453=ORIENTED_EDGE('',*,*,#321,.T.);
#454=ORIENTED_EDGE('',*,*,#307,.F.);
#455=ORIENTED_EDGE('',*,*,#318,.T.);
#456=ORIENTED_EDGE('',*,*,#319,.T.);
#457=ORIENTED_EDGE('',*,*,#266,.T.);
#458=ORIENTED_EDGE('',*,*,#286,.T.);
#459=ORIENTED_EDGE('',*,*,#295,.F.);
#460=PLANE('',#520);
#461=PLANE('',#521);
#462=PLANE('',#522);
#463=PLANE('',#523);
#464=PLANE('',#524);
#465=PLANE('',#525);
#466=PLANE('',#526);
#467=PLANE('',#528);
#468=PLANE('',#529);
#469=PLANE('',#535);
#470=PLANE('',#541);
#471=PLANE('',#546);
#472=PLANE('',#549);
#473=PLANE('',#552);
#474=PLANE('',#554);
#475=PLANE('',#555);
#476=PLANE('',#556);
#477=PLANE('',#557);
#478=PLANE('',#558);
#479=PLANE('',#559);
#480=ADVANCED_FACE('',(#40),#460,.T.);
#481=ADVANCED_FACE('',(#41),#461,.F.);
#482=ADVANCED_FACE('',(#42),#462,.F.);
#483=ADVANCED_FACE('',(#43),#463,.T.);
#484=ADVANCED_FACE('',(#44),#464,.F.);
#485=ADVANCED_FACE('',(#45),#465,.F.);
#486=ADVANCED_FACE('',(#46),#466,.F.);
#487=ADVANCED_FACE('',(#47),#467,.T.);
#488=ADVANCED_FACE('',(#48),#468,.T.);
#489=ADVANCED_FACE('',(#49),#20,.T.);
#490=ADVANCED_FACE('',(#50,#15,#16,#17,#18,#19),#469,.T.);
#491=ADVANCED_FACE('',(#51),#470,.T.);
#492=ADVANCED_FACE('',(#52),#21,.T.);
#493=ADVANCED_FACE('',(#53),#22,.F.);
#494=ADVANCED_FACE('',(#54),#471,.T.);
#495=ADVANCED_FACE('',(#55),#23,.F.);
#496=ADVANCED_FACE('',(#56),#472,.T.);
#497=ADVANCED_FACE('',(#57),#24,.F.);
#498=ADVANCED_FACE('',(#58),#473,.T.);
#499=ADVANCED_FACE('',(#59),#25,.F.);
#500=ADVANCED_FACE('',(#60),#474,.T.);
#501=ADVANCED_FACE('',(#61),#475,.T.);
#502=ADVANCED_FACE('',(#62),#476,.T.);
#503=ADVANCED_FACE('',(#63),#477,.F.);
#504=ADVANCED_FACE('',(#64),#478,.F.);
#505=ADVANCED_FACE('',(#65),#479,.T.);
#506=CLOSED_SHELL('',(#480,#481,#482,#483,#484,#485,#486,#487,#488,#489,
#490,#491,#492,#493,#494,#495,#496,#497,#498,#499,#500,#501,#502,#503,#504,
#505));
#507=DERIVED_UNIT_ELEMENT(#509,1.);
#508=DERIVED_UNIT_ELEMENT(#844,-3.);
#509=(
MASS_UNIT()
NAMED_UNIT(*)
SI_UNIT(.KILO.,.GRAM.)
);
#510=DERIVED_UNIT((#507,#508));
#511=MEASURE_REPRESENTATION_ITEM('density measure',
POSITIVE_RATIO_MEASURE(7850.),#510);
#512=PROPERTY_DEFINITION_REPRESENTATION(#517,#514);
#513=PROPERTY_DEFINITION_REPRESENTATION(#518,#515);
#514=REPRESENTATION('material name',(#516),#841);
#515=REPRESENTATION('density',(#511),#841);
#516=DESCRIPTIVE_REPRESENTATION_ITEM('Steel','Steel');
#517=PROPERTY_DEFINITION('material property','material name',#851);
#518=PROPERTY_DEFINITION('material property','density of part',#851);
#519=AXIS2_PLACEMENT_3D('',#697,#560,#561);
#520=AXIS2_PLACEMENT_3D('',#698,#562,#563);
#521=AXIS2_PLACEMENT_3D('',#707,#568,#569);
#522=AXIS2_PLACEMENT_3D('',#716,#574,#575);
#523=AXIS2_PLACEMENT_3D('',#722,#579,#580);
#524=AXIS2_PLACEMENT_3D('',#730,#585,#586);
#525=AXIS2_PLACEMENT_3D('',#742,#593,#594);
#526=AXIS2_PLACEMENT_3D('',#752,#600,#601);
#527=AXIS2_PLACEMENT_3D('',#753,#602,#603);
#528=AXIS2_PLACEMENT_3D('',#760,#608,#609);
#529=AXIS2_PLACEMENT_3D('',#766,#613,#614);
#530=AXIS2_PLACEMENT_3D('',#768,#615,#616);
#531=AXIS2_PLACEMENT_3D('',#769,#617,#618);
#532=AXIS2_PLACEMENT_3D('',#770,#619,#620);
#533=AXIS2_PLACEMENT_3D('',#773,#621,#622);
#534=AXIS2_PLACEMENT_3D('',#777,#624,#625);
#535=AXIS2_PLACEMENT_3D('',#779,#627,#628);
#536=AXIS2_PLACEMENT_3D('',#783,#630,#631);
#537=AXIS2_PLACEMENT_3D('',#792,#637,#638);
#538=AXIS2_PLACEMENT_3D('',#794,#639,#640);
#539=AXIS2_PLACEMENT_3D('',#796,#641,#642);
#540=AXIS2_PLACEMENT_3D('',#798,#643,#644);
#541=AXIS2_PLACEMENT_3D('',#799,#645,#646);
#542=AXIS2_PLACEMENT_3D('',#803,#649,#650);
#543=AXIS2_PLACEMENT_3D('',#805,#651,#652);
#544=AXIS2_PLACEMENT_3D('',#807,#654,#655);
#545=AXIS2_PLACEMENT_3D('',#810,#657,#658);
#546=AXIS2_PLACEMENT_3D('',#811,#659,#660);
#547=AXIS2_PLACEMENT_3D('',#812,#661,#662);
#548=AXIS2_PLACEMENT_3D('',#815,#664,#665);
#549=AXIS2_PLACEMENT_3D('',#816,#666,#667);
#550=AXIS2_PLACEMENT_3D('',#817,#668,#669);
#551=AXIS2_PLACEMENT_3D('',#820,#671,#672);
#552=AXIS2_PLACEMENT_3D('',#821,#673,#674);
#553=AXIS2_PLACEMENT_3D('',#822,#675,#676);
#554=AXIS2_PLACEMENT_3D('',#824,#678,#679);
#555=AXIS2_PLACEMENT_3D('',#828,#682,#683);
#556=AXIS2_PLACEMENT_3D('',#832,#686,#687);
#557=AXIS2_PLACEMENT_3D('',#835,#690,#691);
#558=AXIS2_PLACEMENT_3D('',#837,#693,#694);
#559=AXIS2_PLACEMENT_3D('',#838,#695,#696);
#560=DIRECTION('axis',(0.,0.,1.));
#561=DIRECTION('refdir',(1.,0.,0.));
#562=DIRECTION('center_axis',(0.,0.,-1.));
#563=DIRECTION('ref_axis',(-1.,0.,0.));
#564=DIRECTION('',(1.,0.,0.));
#565=DIRECTION('',(0.,1.,0.));
#566=DIRECTION('',(-1.,0.,0.));
#567=DIRECTION('',(0.,1.,0.));
#568=DIRECTION('center_axis',(-1.,0.,0.));
#569=DIRECTION('ref_axis',(0.,-1.,0.));
#570=DIRECTION('',(0.,0.,1.));
#571=DIRECTION('',(0.,-1.,0.));
#572=DIRECTION('',(0.,0.,1.));
#573=DIRECTION('',(0.,-1.,0.));
#574=DIRECTION('center_axis',(2.22044604925031E-16,1.,0.));
#575=DIRECTION('ref_axis',(-1.,2.22044604925031E-16,0.));
#576=DIRECTION('',(-1.,2.22044604925031E-16,0.));
#577=DIRECTION('',(0.,0.,1.));
#578=DIRECTION('',(-1.,2.22044604925031E-16,0.));
#579=DIRECTION('center_axis',(0.,0.,-1.));
#580=DIRECTION('ref_axis',(-1.,0.,0.));
#581=DIRECTION('',(-1.,0.,0.));
#582=DIRECTION('',(0.,1.,0.));
#583=DIRECTION('',(-1.,0.,0.));
#584=DIRECTION('',(0.,1.,0.));
#585=DIRECTION('center_axis',(0.,1.,0.));
#586=DIRECTION('ref_axis',(-1.,0.,0.));
#587=DIRECTION('',(0.,0.,-1.));
#588=DIRECTION('',(-1.,0.,0.));
#589=DIRECTION('',(0.,0.,1.));
#590=DIRECTION('',(-1.,0.,0.));
#591=DIRECTION('',(0.,0.,1.));
#592=DIRECTION('',(1.,0.,0.));
#593=DIRECTION('center_axis',(0.,-1.,0.));
#594=DIRECTION('ref_axis',(1.,0.,0.));
#595=DIRECTION('',(0.,0.,-1.));
#596=DIRECTION('',(1.,0.,0.));
#597=DIRECTION('',(0.,0.,-1.));
#598=DIRECTION('',(-1.,0.,0.));
#599=DIRECTION('',(0.,0.,1.));
#600=DIRECTION('center_axis',(0.,0.,1.));
#601=DIRECTION('ref_axis',(1.,0.,0.));
#602=DIRECTION('center_axis',(0.,0.,-1.));
#603=DIRECTION('ref_axis',(-1.,0.,0.));
#604=DIRECTION('',(0.,1.,0.));
#605=DIRECTION('',(1.,0.,0.));
#606=DIRECTION('',(0.,1.,0.));
#607=DIRECTION('',(0.,-1.,0.));
#608=DIRECTION('center_axis',(-1.,0.,0.));
#609=DIRECTION('ref_axis',(0.,0.,1.));
#610=DIRECTION('',(0.,0.,1.));
#611=DIRECTION('',(0.,-1.,0.));
#612=DIRECTION('',(0.,0.,1.));
#613=DIRECTION('center_axis',(0.,0.,1.));
#614=DIRECTION('ref_axis',(-1.,0.,0.));
#615=DIRECTION('center_axis',(0.,0.,-1.));
#616=DIRECTION('ref_axis',(-1.,0.,0.));
#617=DIRECTION('center_axis',(0.,0.,-1.));
#618=DIRECTION('ref_axis',(-1.,0.,0.));
#619=DIRECTION('center_axis',(0.,0.,-1.));
#620=DIRECTION('ref_axis',(0.707106781186554,-0.707106781186541,0.));
#621=DIRECTION('center_axis',(0.,0.,1.));
#622=DIRECTION('ref_axis',(0.707106781186554,-0.707106781186541,0.));
#623=DIRECTION('',(0.,0.,1.));
#624=DIRECTION('center_axis',(0.,0.,-1.));
#625=DIRECTION('ref_axis',(0.707106781186554,-0.707106781186541,0.));
#626=DIRECTION('',(0.,0.,-1.));
#627=DIRECTION('center_axis',(0.,0.,1.));
#628=DIRECTION('ref_axis',(1.,0.,0.));
#629=DIRECTION('',(0.,1.,0.));
#630=DIRECTION('center_axis',(0.,0.,-1.));
#631=DIRECTION('ref_axis',(0.707106781186554,0.707106781186541,0.));
#632=DIRECTION('',(-1.,0.,0.));
#633=DIRECTION('',(1.,0.,0.));
#634=DIRECTION('',(0.,1.,0.));
#635=DIRECTION('',(1.,0.,0.));
#636=DIRECTION('',(0.,-1.,0.));
#637=DIRECTION('center_axis',(0.,0.,-1.));
#638=DIRECTION('ref_axis',(-1.,0.,0.));
#639=DIRECTION('center_axis',(0.,0.,-1.));
#640=DIRECTION('ref_axis',(-1.,0.,0.));
#641=DIRECTION('center_axis',(0.,0.,-1.));
#642=DIRECTION('ref_axis',(-1.,0.,0.));
#643=DIRECTION('center_axis',(0.,0.,-1.));
#644=DIRECTION('ref_axis',(-1.,0.,0.));
#645=DIRECTION('center_axis',(1.,0.,0.));
#646=DIRECTION('ref_axis',(0.,0.,-1.));
#647=DIRECTION('',(0.,1.,0.));
#648=DIRECTION('',(0.,0.,-1.));
#649=DIRECTION('center_axis',(0.,0.,1.));
#650=DIRECTION('ref_axis',(0.707106781186554,0.707106781186541,0.));
#651=DIRECTION('center_axis',(0.,0.,1.));
#652=DIRECTION('ref_axis',(0.707106781186554,0.707106781186541,0.));
#653=DIRECTION('',(0.,0.,1.));
#654=DIRECTION('center_axis',(0.,0.,-1.));
#655=DIRECTION('ref_axis',(-1.,0.,0.));
#656=DIRECTION('',(0.,0.,-1.));
#657=DIRECTION('center_axis',(0.,0.,-1.));
#658=DIRECTION('ref_axis',(-1.,0.,0.));
#659=DIRECTION('center_axis',(0.,0.,1.));
#660=DIRECTION('ref_axis',(-1.,0.,0.));
#661=DIRECTION('center_axis',(0.,0.,-1.));
#662=DIRECTION('ref_axis',(-1.,0.,0.));
#663=DIRECTION('',(0.,0.,-1.));
#664=DIRECTION('center_axis',(0.,0.,-1.));
#665=DIRECTION('ref_axis',(-1.,0.,0.));
#666=DIRECTION('center_axis',(0.,0.,1.));
#667=DIRECTION('ref_axis',(-1.,0.,0.));
#668=DIRECTION('center_axis',(0.,0.,-1.));
#669=DIRECTION('ref_axis',(-1.,0.,0.));
#670=DIRECTION('',(0.,0.,-1.));
#671=DIRECTION('center_axis',(0.,0.,-1.));
#672=DIRECTION('ref_axis',(-1.,0.,0.));
#673=DIRECTION('center_axis',(0.,0.,1.));
#674=DIRECTION('ref_axis',(-1.,0.,0.));
#675=DIRECTION('center_axis',(0.,0.,-1.));
#676=DIRECTION('ref_axis',(-1.,0.,0.));
#677=DIRECTION('',(0.,0.,-1.));
#678=DIRECTION('center_axis',(0.,-1.,0.));
#679=DIRECTION('ref_axis',(1.,0.,0.));
#680=DIRECTION('',(0.,0.,1.));
#681=DIRECTION('',(-1.,0.,0.));
#682=DIRECTION('center_axis',(0.,0.,-1.));
#683=DIRECTION('ref_axis',(-1.,0.,0.));
#684=DIRECTION('',(0.,1.,0.));
#685=DIRECTION('',(-1.,0.,0.));
#686=DIRECTION('center_axis',(-1.,0.,0.));
#687=DIRECTION('ref_axis',(0.,0.,1.));
#688=DIRECTION('',(0.,0.,1.));
#689=DIRECTION('',(0.,0.,-1.));
#690=DIRECTION('center_axis',(-1.,0.,0.));
#691=DIRECTION('ref_axis',(0.,1.,0.));
#692=DIRECTION('',(0.,0.,-1.));
#693=DIRECTION('center_axis',(0.,1.,0.));
#694=DIRECTION('ref_axis',(1.,0.,0.));
#695=DIRECTION('center_axis',(0.,1.,0.));
#696=DIRECTION('ref_axis',(0.,0.,1.));
#697=CARTESIAN_POINT('',(0.,0.,0.));
#698=CARTESIAN_POINT('Origin',(150.,-70.,-10.));
#699=CARTESIAN_POINT('',(50.,-65.,-10.));
#700=CARTESIAN_POINT('',(150.,-65.,-10.));
#701=CARTESIAN_POINT('',(150.,-65.,-10.));
#702=CARTESIAN_POINT('',(150.,-70.,-10.));
#703=CARTESIAN_POINT('',(150.,-70.,-10.));
#704=CARTESIAN_POINT('',(50.,-70.,-10.));
#705=CARTESIAN_POINT('',(160.,-70.,-10.));
#706=CARTESIAN_POINT('',(50.,-70.,-10.));
#707=CARTESIAN_POINT('Origin',(110.,67.4149816503687,-10.));
#708=CARTESIAN_POINT('',(110.,67.4077549119932,-10.));
#709=CARTESIAN_POINT('',(110.,67.4077549119932,-3.));
#710=CARTESIAN_POINT('',(110.,67.4077549119932,-10.));
#711=CARTESIAN_POINT('',(110.,67.4149816503687,-10.));
#712=CARTESIAN_POINT('',(110.,-1.29250917481565,-10.));
#713=CARTESIAN_POINT('',(110.,67.4149816503687,-3.));
#714=CARTESIAN_POINT('',(110.,67.4149816503687,-10.));
#715=CARTESIAN_POINT('',(110.,67.4149816503687,-3.));
#716=CARTESIAN_POINT('Origin',(150.,67.4149816503687,-10.));
#717=CARTESIAN_POINT('',(150.,67.4149816503687,-10.));
#718=CARTESIAN_POINT('',(150.,67.4149816503687,-10.));
#719=CARTESIAN_POINT('',(150.,67.4149816503687,-3.));
#720=CARTESIAN_POINT('',(150.,67.4149816503687,-10.));
#721=CARTESIAN_POINT('',(150.,67.4149816503687,-3.));
#722=CARTESIAN_POINT('Origin',(150.,-70.,-10.));
#723=CARTESIAN_POINT('',(50.,67.4077549119932,-10.));
#724=CARTESIAN_POINT('',(130.,67.4077549119932,-10.));
#725=CARTESIAN_POINT('',(50.,70.,-10.));
#726=CARTESIAN_POINT('',(50.,-70.,-10.));
#727=CARTESIAN_POINT('',(150.,70.,-10.));
#728=CARTESIAN_POINT('',(160.,70.,-10.));
#729=CARTESIAN_POINT('',(150.,-70.,-10.));
#730=CARTESIAN_POINT('Origin',(110.,67.4077549119932,-10.));
#731=CARTESIAN_POINT('',(51.0028390721974,67.4077549119932,-3.));
#732=CARTESIAN_POINT('',(51.0028390721974,67.4077549119932,-5.));
#733=CARTESIAN_POINT('',(51.0028390721974,67.4077549119932,5.));
#734=CARTESIAN_POINT('',(50.,67.4077549119932,-3.));
#735=CARTESIAN_POINT('',(110.,67.4077549119932,-3.));
#736=CARTESIAN_POINT('',(50.,67.4077549119932,-10.));
#737=CARTESIAN_POINT('',(53.9971609278026,67.4077549119932,-3.));
#738=CARTESIAN_POINT('',(110.,67.4077549119932,-3.));
#739=CARTESIAN_POINT('',(53.9971609278026,67.4077549119932,-5.));
#740=CARTESIAN_POINT('',(53.9971609278026,67.4077549119932,5.));
#741=CARTESIAN_POINT('',(81.25,67.4077549119932,-5.));
#742=CARTESIAN_POINT('Origin',(50.,-65.,-10.));
#743=CARTESIAN_POINT('',(50.,-65.,-3.));
#744=CARTESIAN_POINT('',(50.,-65.,-10.));
#745=CARTESIAN_POINT('',(110.,-65.,-3.));
#746=CARTESIAN_POINT('',(50.,-65.,-3.));
#747=CARTESIAN_POINT('',(110.,-65.,0.));
#748=CARTESIAN_POINT('',(110.,-65.,0.));
#749=CARTESIAN_POINT('',(150.,-65.,0.));
#750=CARTESIAN_POINT('',(100.,-65.,0.));
#751=CARTESIAN_POINT('',(150.,-65.,0.));
#752=CARTESIAN_POINT('Origin',(80.,1.2038774559966,-3.));
#753=CARTESIAN_POINT('Origin',(52.5,67.5,-3.));
#754=CARTESIAN_POINT('',(150.,-15.,-3.));
#755=CARTESIAN_POINT('',(150.,-15.,-3.));
#756=CARTESIAN_POINT('',(110.,-15.,-3.));
#757=CARTESIAN_POINT('',(120.,-15.,-3.));
#758=CARTESIAN_POINT('',(110.,-65.,-3.));
#759=CARTESIAN_POINT('',(50.,-34.3980612720017,-3.));
#760=CARTESIAN_POINT('Origin',(50.,-70.,-10.));
#761=CARTESIAN_POINT('',(50.,-70.,0.));
#762=CARTESIAN_POINT('',(50.,-70.,-10.));
#763=CARTESIAN_POINT('',(50.,70.,0.));
#764=CARTESIAN_POINT('',(50.,-35.,0.));
#765=CARTESIAN_POINT('',(50.,70.,-10.));
#766=CARTESIAN_POINT('Origin',(52.5,67.5,-5.));
#767=CARTESIAN_POINT('',(54.,67.5,-5.));
#768=CARTESIAN_POINT('Origin',(52.5,67.5,-5.));
#769=CARTESIAN_POINT('Origin',(52.5,67.5,-5.));
#770=CARTESIAN_POINT('Origin',(159.,-69.,-15.));
#771=CARTESIAN_POINT('',(159.,-70.,-60.));
#772=CARTESIAN_POINT('',(160.,-69.,-60.));
#773=CARTESIAN_POINT('Origin',(159.,-69.,-60.));
#774=CARTESIAN_POINT('',(160.,-69.,0.));
#775=CARTESIAN_POINT('',(160.,-69.,-15.));
#776=CARTESIAN_POINT('',(159.,-70.,0.));
#777=CARTESIAN_POINT('Origin',(159.,-69.,0.));
#778=CARTESIAN_POINT('',(159.,-70.,-15.));
#779=CARTESIAN_POINT('Origin',(50.,-70.,0.));
#780=CARTESIAN_POINT('',(160.,69.,0.));
#781=CARTESIAN_POINT('',(160.,-35.,0.));
#782=CARTESIAN_POINT('',(159.,70.,0.));
#783=CARTESIAN_POINT('Origin',(159.,69.,0.));
#784=CARTESIAN_POINT('',(105.,70.,0.));
#785=CARTESIAN_POINT('',(105.,-70.,0.));
#786=CARTESIAN_POINT('',(110.,-15.,0.));
#787=CARTESIAN_POINT('',(110.,-65.,0.));
#788=CARTESIAN_POINT('',(150.,-15.,0.));
#789=CARTESIAN_POINT('',(80.,-15.,0.));
#790=CARTESIAN_POINT('',(150.,-42.5,0.));
#791=CARTESIAN_POINT('',(54.,67.5,0.));
#792=CARTESIAN_POINT('Origin',(52.5,67.5,0.));
#793=CARTESIAN_POINT('',(159.,-67.5,0.));
#794=CARTESIAN_POINT('Origin',(157.5,-67.5,0.));
#795=CARTESIAN_POINT('',(159.,67.5,0.));
#796=CARTESIAN_POINT('Origin',(157.5,67.5,0.));
#797=CARTESIAN_POINT('',(54.,-67.5,0.));
#798=CARTESIAN_POINT('Origin',(52.5,-67.5,0.));
#799=CARTESIAN_POINT('Origin',(160.,-70.,0.));
#800=CARTESIAN_POINT('',(160.,69.,-60.));
#801=CARTESIAN_POINT('',(160.,-70.,-60.));
#802=CARTESIAN_POINT('',(160.,69.,-15.));
#803=CARTESIAN_POINT('Origin',(159.,69.,-15.));
#804=CARTESIAN_POINT('',(159.,70.,-60.));
#805=CARTESIAN_POINT('Origin',(159.,69.,-60.));
#806=CARTESIAN_POINT('',(159.,70.,-15.));
#807=CARTESIAN_POINT('Origin',(52.5,-67.5,5.));
#808=CARTESIAN_POINT('',(54.,-67.5,-5.));
#809=CARTESIAN_POINT('',(54.,-67.5,5.));
#810=CARTESIAN_POINT('Origin',(52.5,-67.5,-5.));
#811=CARTESIAN_POINT('Origin',(52.5,-67.5,-5.));
#812=CARTESIAN_POINT('Origin',(157.5,67.5,5.));
#813=CARTESIAN_POINT('',(159.,67.5,-5.));
#814=CARTESIAN_POINT('',(159.,67.5,5.));
#815=CARTESIAN_POINT('Origin',(157.5,67.5,-5.));
#816=CARTESIAN_POINT('Origin',(157.5,67.5,-5.));
#817=CARTESIAN_POINT('Origin',(157.5,-67.5,5.));
#818=CARTESIAN_POINT('',(159.,-67.5,-5.));
#819=CARTESIAN_POINT('',(159.,-67.5,5.));
#820=CARTESIAN_POINT('Origin',(157.5,-67.5,-5.));
#821=CARTESIAN_POINT('Origin',(157.5,-67.5,-5.));
#822=CARTESIAN_POINT('Origin',(52.5,67.5,5.));
#823=CARTESIAN_POINT('',(54.,67.5,5.));
#824=CARTESIAN_POINT('Origin',(105.,-70.,-30.));
#825=CARTESIAN_POINT('',(150.,-70.,-60.));
#826=CARTESIAN_POINT('',(150.,-70.,-60.));
#827=CARTESIAN_POINT('',(160.,-70.,-60.));
#828=CARTESIAN_POINT('Origin',(160.,-70.,-60.));
#829=CARTESIAN_POINT('',(150.,70.,-60.));
#830=CARTESIAN_POINT('',(150.,-70.,-60.));
#831=CARTESIAN_POINT('',(160.,70.,-60.));
#832=CARTESIAN_POINT('Origin',(150.,-70.,-60.));
#833=CARTESIAN_POINT('',(150.,70.,-60.));
#834=CARTESIAN_POINT('',(150.,-15.,0.));
#835=CARTESIAN_POINT('Origin',(110.,-60.,0.));
#836=CARTESIAN_POINT('',(110.,-15.,0.));
#837=CARTESIAN_POINT('Origin',(110.,-15.,0.));
#838=CARTESIAN_POINT('Origin',(105.,70.,-30.));
#839=UNCERTAINTY_MEASURE_WITH_UNIT(LENGTH_MEASURE(0.01),#843,
'DISTANCE_ACCURACY_VALUE',
'Maximum model space distance between geometric entities at asserted c
onnectivities');
#840=UNCERTAINTY_MEASURE_WITH_UNIT(LENGTH_MEASURE(0.01),#843,
'DISTANCE_ACCURACY_VALUE',
'Maximum model space distance between geometric entities at asserted c
onnectivities');
#841=(
GEOMETRIC_REPRESENTATION_CONTEXT(3)
GLOBAL_UNCERTAINTY_ASSIGNED_CONTEXT((#839))
GLOBAL_UNIT_ASSIGNED_CONTEXT((#843,#845,#846))
REPRESENTATION_CONTEXT('','3D')
);
#842=(
GEOMETRIC_REPRESENTATION_CONTEXT(3)
GLOBAL_UNCERTAINTY_ASSIGNED_CONTEXT((#840))
GLOBAL_UNIT_ASSIGNED_CONTEXT((#843,#845,#846))
REPRESENTATION_CONTEXT('','3D')
);
#843=(
LENGTH_UNIT()
NAMED_UNIT(*)
SI_UNIT(.MILLI.,.METRE.)
);
#844=(
LENGTH_UNIT()
NAMED_UNIT(*)
SI_UNIT($,.METRE.)
);
#845=(
NAMED_UNIT(*)
PLANE_ANGLE_UNIT()
SI_UNIT($,.RADIAN.)
);
#846=(
NAMED_UNIT(*)
SI_UNIT($,.STERADIAN.)
SOLID_ANGLE_UNIT()
);
#847=SHAPE_DEFINITION_REPRESENTATION(#848,#849);
#848=PRODUCT_DEFINITION_SHAPE('',$,#851);
#849=SHAPE_REPRESENTATION('',(#519),#841);
#850=PRODUCT_DEFINITION_CONTEXT('part definition',#855,'design');
#851=PRODUCT_DEFINITION('ElectronicsMBcover','ElectronicsMBcover',#852,
#850);
#852=PRODUCT_DEFINITION_FORMATION('',$,#857);
#853=PRODUCT_RELATED_PRODUCT_CATEGORY('ElectronicsMBcover',
'ElectronicsMBcover',(#857));
#854=APPLICATION_PROTOCOL_DEFINITION('international standard',
'automotive_design',2009,#855);
#855=APPLICATION_CONTEXT(
'Core Data for Automotive Mechanical Design Process');
#856=PRODUCT_CONTEXT('part definition',#855,'mechanical');
#857=PRODUCT('ElectronicsMBcover','ElectronicsMBcover',$,(#856));
#858=PRESENTATION_STYLE_ASSIGNMENT((#859));
#859=SURFACE_STYLE_USAGE(.BOTH.,#860);
#860=SURFACE_SIDE_STYLE('',(#861));
#861=SURFACE_STYLE_FILL_AREA(#862);
#862=FILL_AREA_STYLE('Steel - Satin',(#863));
#863=FILL_AREA_STYLE_COLOUR('Steel - Satin',#864);
#864=COLOUR_RGB('Steel - Satin',0.627450980392157,0.627450980392157,0.627450980392157);
ENDSEC;
END-ISO-10303-21;
