ISO-10303-21;
HEADER;
/* Generated by software containing ST-Developer
 * from STEP Tools, Inc. (www.steptools.com) 
 */

FILE_DESCRIPTION(
/* description */ (''),
/* implementation_level */ '2;1');

FILE_NAME(
/* name */ 'J5BearingMount.step',
/* time_stamp */ '2026-08-05T16:39:39-05:00',
/* author */ (''),
/* organization */ (''),
/* preprocessor_version */ 'ST-DEVELOPER v20.1',
/* originating_system */ 'Autodesk Translation Framework v15.8.0.0',
/* authorisation */ '');

FILE_SCHEMA (('AUTOMOTIVE_DESIGN { 1 0 10303 214 3 1 1 }'));
ENDSEC;

DATA;
#10=MECHANICAL_DESIGN_GEOMETRIC_PRESENTATION_REPRESENTATION('',(#13),#587);
#11=SHAPE_REPRESENTATION_RELATIONSHIP('SRR','None',#594,#12);
#12=ADVANCED_BREP_SHAPE_REPRESENTATION('',(#14),#586);
#13=STYLED_ITEM('',(#603),#14);
#14=MANIFOLD_SOLID_BREP('Body1',#323);
#15=FACE_BOUND('',#65,.T.);
#16=FACE_BOUND('',#66,.T.);
#17=FACE_BOUND('',#67,.T.);
#18=FACE_BOUND('',#77,.T.);
#19=FACE_BOUND('',#78,.T.);
#20=FACE_BOUND('',#79,.T.);
#21=FACE_BOUND('',#80,.T.);
#22=FACE_BOUND('',#81,.T.);
#23=CIRCLE('',#348,2.);
#24=CIRCLE('',#349,2.);
#25=CIRCLE('',#350,2.);
#26=CIRCLE('',#351,13.5);
#27=CIRCLE('',#352,2.);
#28=CIRCLE('',#353,2.);
#29=CIRCLE('',#355,2.);
#30=CIRCLE('',#357,2.);
#31=CIRCLE('',#359,2.);
#32=CIRCLE('',#361,2.);
#33=CIRCLE('',#363,2.);
#34=CIRCLE('',#367,13.5);
#35=PLANE('',#345);
#36=PLANE('',#346);
#37=PLANE('',#347);
#38=PLANE('',#354);
#39=PLANE('',#364);
#40=PLANE('',#365);
#41=PLANE('',#368);
#42=FACE_OUTER_BOUND('',#58,.T.);
#43=FACE_OUTER_BOUND('',#59,.T.);
#44=FACE_OUTER_BOUND('',#60,.T.);
#45=FACE_OUTER_BOUND('',#61,.T.);
#46=FACE_OUTER_BOUND('',#62,.T.);
#47=FACE_OUTER_BOUND('',#63,.T.);
#48=FACE_OUTER_BOUND('',#64,.T.);
#49=FACE_OUTER_BOUND('',#68,.T.);
#50=FACE_OUTER_BOUND('',#69,.T.);
#51=FACE_OUTER_BOUND('',#70,.T.);
#52=FACE_OUTER_BOUND('',#71,.T.);
#53=FACE_OUTER_BOUND('',#72,.T.);
#54=FACE_OUTER_BOUND('',#73,.T.);
#55=FACE_OUTER_BOUND('',#74,.T.);
#56=FACE_OUTER_BOUND('',#75,.T.);
#57=FACE_OUTER_BOUND('',#76,.T.);
#58=EDGE_LOOP('',(#210,#211,#212,#213,#214,#215));
#59=EDGE_LOOP('',(#216,#217,#218,#219,#220,#221));
#60=EDGE_LOOP('',(#222,#223,#224,#225));
#61=EDGE_LOOP('',(#226,#227,#228,#229,#230,#231,#232));
#62=EDGE_LOOP('',(#233,#234,#235,#236));
#63=EDGE_LOOP('',(#237,#238,#239,#240));
#64=EDGE_LOOP('',(#241,#242,#243,#244,#245,#246,#247,#248));
#65=EDGE_LOOP('',(#249));
#66=EDGE_LOOP('',(#250));
#67=EDGE_LOOP('',(#251));
#68=EDGE_LOOP('',(#252,#253,#254));
#69=EDGE_LOOP('',(#255,#256,#257,#258,#259,#260));
#70=EDGE_LOOP('',(#261,#262,#263,#264));
#71=EDGE_LOOP('',(#265,#266,#267,#268,#269,#270,#271,#272));
#72=EDGE_LOOP('',(#273,#274,#275,#276));
#73=EDGE_LOOP('',(#277,#278,#279,#280));
#74=EDGE_LOOP('',(#281,#282,#283,#284));
#75=EDGE_LOOP('',(#285,#286,#287,#288));
#76=EDGE_LOOP('',(#289,#290,#291,#292));
#77=EDGE_LOOP('',(#293));
#78=EDGE_LOOP('',(#294));
#79=EDGE_LOOP('',(#295));
#80=EDGE_LOOP('',(#296));
#81=EDGE_LOOP('',(#297));
#82=ELLIPSE('',#338,3.53553390593274,2.5);
#83=ELLIPSE('',#339,3.53553390593241,2.5);
#84=ELLIPSE('',#341,3.53553390593235,2.5);
#85=ELLIPSE('',#343,3.53553390593277,2.5);
#86=LINE('',#470,#110);
#87=LINE('',#474,#111);
#88=LINE('',#477,#112);
#89=LINE('',#496,#113);
#90=LINE('',#499,#114);
#91=LINE('',#500,#115);
#92=LINE('',#503,#116);
#93=LINE('',#505,#117);
#94=LINE('',#531,#118);
#95=LINE('',#532,#119);
#96=LINE('',#533,#120);
#97=LINE('',#536,#121);
#98=LINE('',#538,#122);
#99=LINE('',#539,#123);
#100=LINE('',#542,#124);
#101=LINE('',#543,#125);
#102=LINE('',#559,#126);
#103=LINE('',#563,#127);
#104=LINE('',#567,#128);
#105=LINE('',#571,#129);
#106=LINE('',#575,#130);
#107=LINE('',#576,#131);
#108=LINE('',#578,#132);
#109=LINE('',#581,#133);
#110=VECTOR('',#373,10.);
#111=VECTOR('',#376,10.);
#112=VECTOR('',#379,10.);
#113=VECTOR('',#382,10.);
#114=VECTOR('',#385,10.);
#115=VECTOR('',#386,10.);
#116=VECTOR('',#389,10.);
#117=VECTOR('',#390,10.);
#118=VECTOR('',#395,10.);
#119=VECTOR('',#396,10.);
#120=VECTOR('',#397,10.);
#121=VECTOR('',#400,10.);
#122=VECTOR('',#401,10.);
#123=VECTOR('',#402,10.);
#124=VECTOR('',#405,10.);
#125=VECTOR('',#406,10.);
#126=VECTOR('',#427,2.);
#127=VECTOR('',#432,2.);
#128=VECTOR('',#437,2.);
#129=VECTOR('',#442,2.);
#130=VECTOR('',#447,10.);
#131=VECTOR('',#448,10.);
#132=VECTOR('',#451,10.);
#133=VECTOR('',#454,13.5);
#134=B_SPLINE_CURVE_WITH_KNOTS('',3,(#463,#464,#465,#466,#467,#468),
 .UNSPECIFIED.,.F.,.F.,(4,2,4),(0.949417583953413,0.968828708570808,0.988239833188203),
 .UNSPECIFIED.);
#135=B_SPLINE_CURVE_WITH_KNOTS('',3,(#481,#482,#483,#484,#485,#486,#487,
#488,#489,#490,#491,#492,#493,#494),.UNSPECIFIED.,.F.,.F.,(4,2,2,2,2,2,
4),(0.96446466025378,0.988165655054187,1.06442551708372,1.14068537911325,
1.21694524114279,1.29320510317232,1.31690609797273),.UNSPECIFIED.);
#136=B_SPLINE_CURVE_WITH_KNOTS('',3,(#510,#511,#512,#513,#514,#515,#516,
#517,#518,#519),.UNSPECIFIED.,.F.,.F.,(4,2,2,2,4),(0.437145928070161,0.464360960950172,
0.541332052149102,0.618969069198318,0.696606086247534),.UNSPECIFIED.);
#137=B_SPLINE_CURVE_WITH_KNOTS('',3,(#521,#522,#523,#524,#525,#526,#527,
#528,#529,#530),.UNSPECIFIED.,.F.,.F.,(4,2,2,2,4),(0.696606086247534,0.775579134337241,
0.854552182426948,0.930188383272443,0.956127170108929),.UNSPECIFIED.);
#138=VERTEX_POINT('',#461);
#139=VERTEX_POINT('',#462);
#140=VERTEX_POINT('',#469);
#141=VERTEX_POINT('',#471);
#142=VERTEX_POINT('',#473);
#143=VERTEX_POINT('',#475);
#144=VERTEX_POINT('',#479);
#145=VERTEX_POINT('',#480);
#146=VERTEX_POINT('',#495);
#147=VERTEX_POINT('',#497);
#148=VERTEX_POINT('',#502);
#149=VERTEX_POINT('',#504);
#150=VERTEX_POINT('',#508);
#151=VERTEX_POINT('',#509);
#152=VERTEX_POINT('',#520);
#153=VERTEX_POINT('',#535);
#154=VERTEX_POINT('',#537);
#155=VERTEX_POINT('',#541);
#156=VERTEX_POINT('',#545);
#157=VERTEX_POINT('',#549);
#158=VERTEX_POINT('',#551);
#159=VERTEX_POINT('',#553);
#160=VERTEX_POINT('',#558);
#161=VERTEX_POINT('',#562);
#162=VERTEX_POINT('',#566);
#163=VERTEX_POINT('',#570);
#164=VERTEX_POINT('',#574);
#165=VERTEX_POINT('',#580);
#166=EDGE_CURVE('',#138,#139,#134,.T.);
#167=EDGE_CURVE('',#139,#140,#86,.T.);
#168=EDGE_CURVE('',#140,#141,#82,.T.);
#169=EDGE_CURVE('',#141,#142,#87,.T.);
#170=EDGE_CURVE('',#143,#142,#83,.T.);
#171=EDGE_CURVE('',#143,#138,#88,.T.);
#172=EDGE_CURVE('',#144,#145,#135,.T.);
#173=EDGE_CURVE('',#145,#146,#89,.T.);
#174=EDGE_CURVE('',#146,#147,#84,.T.);
#175=EDGE_CURVE('',#147,#141,#90,.T.);
#176=EDGE_CURVE('',#140,#144,#91,.T.);
#177=EDGE_CURVE('',#148,#147,#92,.T.);
#178=EDGE_CURVE('',#146,#149,#93,.T.);
#179=EDGE_CURVE('',#149,#148,#85,.T.);
#180=EDGE_CURVE('',#150,#151,#136,.T.);
#181=EDGE_CURVE('',#151,#152,#137,.T.);
#182=EDGE_CURVE('',#152,#143,#94,.T.);
#183=EDGE_CURVE('',#142,#148,#95,.T.);
#184=EDGE_CURVE('',#149,#150,#96,.T.);
#185=EDGE_CURVE('',#142,#153,#97,.T.);
#186=EDGE_CURVE('',#154,#153,#98,.T.);
#187=EDGE_CURVE('',#148,#154,#99,.T.);
#188=EDGE_CURVE('',#141,#155,#100,.T.);
#189=EDGE_CURVE('',#153,#155,#101,.T.);
#190=EDGE_CURVE('',#145,#156,#23,.T.);
#191=EDGE_CURVE('',#156,#138,#24,.T.);
#192=EDGE_CURVE('',#152,#150,#25,.T.);
#193=EDGE_CURVE('',#157,#157,#26,.T.);
#194=EDGE_CURVE('',#158,#158,#27,.T.);
#195=EDGE_CURVE('',#159,#159,#28,.T.);
#196=EDGE_CURVE('',#139,#144,#29,.T.);
#197=EDGE_CURVE('',#151,#160,#102,.T.);
#198=EDGE_CURVE('',#160,#160,#30,.T.);
#199=EDGE_CURVE('',#159,#161,#103,.T.);
#200=EDGE_CURVE('',#161,#161,#31,.T.);
#201=EDGE_CURVE('',#156,#162,#104,.T.);
#202=EDGE_CURVE('',#162,#162,#32,.T.);
#203=EDGE_CURVE('',#158,#163,#105,.T.);
#204=EDGE_CURVE('',#163,#163,#33,.T.);
#205=EDGE_CURVE('',#147,#164,#106,.T.);
#206=EDGE_CURVE('',#155,#164,#107,.T.);
#207=EDGE_CURVE('',#164,#154,#108,.T.);
#208=EDGE_CURVE('',#157,#165,#109,.T.);
#209=EDGE_CURVE('',#165,#165,#34,.T.);
#210=ORIENTED_EDGE('',*,*,#166,.T.);
#211=ORIENTED_EDGE('',*,*,#167,.T.);
#212=ORIENTED_EDGE('',*,*,#168,.T.);
#213=ORIENTED_EDGE('',*,*,#169,.T.);
#214=ORIENTED_EDGE('',*,*,#170,.F.);
#215=ORIENTED_EDGE('',*,*,#171,.T.);
#216=ORIENTED_EDGE('',*,*,#172,.T.);
#217=ORIENTED_EDGE('',*,*,#173,.T.);
#218=ORIENTED_EDGE('',*,*,#174,.T.);
#219=ORIENTED_EDGE('',*,*,#175,.T.);
#220=ORIENTED_EDGE('',*,*,#168,.F.);
#221=ORIENTED_EDGE('',*,*,#176,.T.);
#222=ORIENTED_EDGE('',*,*,#177,.T.);
#223=ORIENTED_EDGE('',*,*,#174,.F.);
#224=ORIENTED_EDGE('',*,*,#178,.T.);
#225=ORIENTED_EDGE('',*,*,#179,.T.);
#226=ORIENTED_EDGE('',*,*,#180,.T.);
#227=ORIENTED_EDGE('',*,*,#181,.T.);
#228=ORIENTED_EDGE('',*,*,#182,.T.);
#229=ORIENTED_EDGE('',*,*,#170,.T.);
#230=ORIENTED_EDGE('',*,*,#183,.T.);
#231=ORIENTED_EDGE('',*,*,#179,.F.);
#232=ORIENTED_EDGE('',*,*,#184,.T.);
#233=ORIENTED_EDGE('',*,*,#183,.F.);
#234=ORIENTED_EDGE('',*,*,#185,.T.);
#235=ORIENTED_EDGE('',*,*,#186,.F.);
#236=ORIENTED_EDGE('',*,*,#187,.F.);
#237=ORIENTED_EDGE('',*,*,#169,.F.);
#238=ORIENTED_EDGE('',*,*,#188,.T.);
#239=ORIENTED_EDGE('',*,*,#189,.F.);
#240=ORIENTED_EDGE('',*,*,#185,.F.);
#241=ORIENTED_EDGE('',*,*,#173,.F.);
#242=ORIENTED_EDGE('',*,*,#190,.T.);
#243=ORIENTED_EDGE('',*,*,#191,.T.);
#244=ORIENTED_EDGE('',*,*,#171,.F.);
#245=ORIENTED_EDGE('',*,*,#182,.F.);
#246=ORIENTED_EDGE('',*,*,#192,.T.);
#247=ORIENTED_EDGE('',*,*,#184,.F.);
#248=ORIENTED_EDGE('',*,*,#178,.F.);
#249=ORIENTED_EDGE('',*,*,#193,.F.);
#250=ORIENTED_EDGE('',*,*,#194,.T.);
#251=ORIENTED_EDGE('',*,*,#195,.T.);
#252=ORIENTED_EDGE('',*,*,#176,.F.);
#253=ORIENTED_EDGE('',*,*,#167,.F.);
#254=ORIENTED_EDGE('',*,*,#196,.T.);
#255=ORIENTED_EDGE('',*,*,#180,.F.);
#256=ORIENTED_EDGE('',*,*,#192,.F.);
#257=ORIENTED_EDGE('',*,*,#181,.F.);
#258=ORIENTED_EDGE('',*,*,#197,.T.);
#259=ORIENTED_EDGE('',*,*,#198,.F.);
#260=ORIENTED_EDGE('',*,*,#197,.F.);
#261=ORIENTED_EDGE('',*,*,#195,.F.);
#262=ORIENTED_EDGE('',*,*,#199,.T.);
#263=ORIENTED_EDGE('',*,*,#200,.F.);
#264=ORIENTED_EDGE('',*,*,#199,.F.);
#265=ORIENTED_EDGE('',*,*,#172,.F.);
#266=ORIENTED_EDGE('',*,*,#196,.F.);
#267=ORIENTED_EDGE('',*,*,#166,.F.);
#268=ORIENTED_EDGE('',*,*,#191,.F.);
#269=ORIENTED_EDGE('',*,*,#201,.T.);
#270=ORIENTED_EDGE('',*,*,#202,.F.);
#271=ORIENTED_EDGE('',*,*,#201,.F.);
#272=ORIENTED_EDGE('',*,*,#190,.F.);
#273=ORIENTED_EDGE('',*,*,#194,.F.);
#274=ORIENTED_EDGE('',*,*,#203,.T.);
#275=ORIENTED_EDGE('',*,*,#204,.F.);
#276=ORIENTED_EDGE('',*,*,#203,.F.);
#277=ORIENTED_EDGE('',*,*,#175,.F.);
#278=ORIENTED_EDGE('',*,*,#205,.T.);
#279=ORIENTED_EDGE('',*,*,#206,.F.);
#280=ORIENTED_EDGE('',*,*,#188,.F.);
#281=ORIENTED_EDGE('',*,*,#177,.F.);
#282=ORIENTED_EDGE('',*,*,#187,.T.);
#283=ORIENTED_EDGE('',*,*,#207,.F.);
#284=ORIENTED_EDGE('',*,*,#205,.F.);
#285=ORIENTED_EDGE('',*,*,#193,.T.);
#286=ORIENTED_EDGE('',*,*,#208,.T.);
#287=ORIENTED_EDGE('',*,*,#209,.F.);
#288=ORIENTED_EDGE('',*,*,#208,.F.);
#289=ORIENTED_EDGE('',*,*,#207,.T.);
#290=ORIENTED_EDGE('',*,*,#186,.T.);
#291=ORIENTED_EDGE('',*,*,#189,.T.);
#292=ORIENTED_EDGE('',*,*,#206,.T.);
#293=ORIENTED_EDGE('',*,*,#209,.T.);
#294=ORIENTED_EDGE('',*,*,#198,.T.);
#295=ORIENTED_EDGE('',*,*,#204,.T.);
#296=ORIENTED_EDGE('',*,*,#202,.T.);
#297=ORIENTED_EDGE('',*,*,#200,.T.);
#298=CYLINDRICAL_SURFACE('',#337,2.5);
#299=CYLINDRICAL_SURFACE('',#340,2.5);
#300=CYLINDRICAL_SURFACE('',#342,2.5);
#301=CYLINDRICAL_SURFACE('',#344,2.5);
#302=CYLINDRICAL_SURFACE('',#356,2.);
#303=CYLINDRICAL_SURFACE('',#358,2.);
#304=CYLINDRICAL_SURFACE('',#360,2.);
#305=CYLINDRICAL_SURFACE('',#362,2.);
#306=CYLINDRICAL_SURFACE('',#366,13.5);
#307=ADVANCED_FACE('',(#42),#298,.T.);
#308=ADVANCED_FACE('',(#43),#299,.T.);
#309=ADVANCED_FACE('',(#44),#300,.T.);
#310=ADVANCED_FACE('',(#45),#301,.T.);
#311=ADVANCED_FACE('',(#46),#35,.T.);
#312=ADVANCED_FACE('',(#47),#36,.T.);
#313=ADVANCED_FACE('',(#48,#15,#16,#17),#37,.T.);
#314=ADVANCED_FACE('',(#49),#38,.T.);
#315=ADVANCED_FACE('',(#50),#302,.F.);
#316=ADVANCED_FACE('',(#51),#303,.F.);
#317=ADVANCED_FACE('',(#52),#304,.F.);
#318=ADVANCED_FACE('',(#53),#305,.F.);
#319=ADVANCED_FACE('',(#54),#39,.T.);
#320=ADVANCED_FACE('',(#55),#40,.T.);
#321=ADVANCED_FACE('',(#56),#306,.F.);
#322=ADVANCED_FACE('',(#57,#18,#19,#20,#21,#22),#41,.T.);
#323=CLOSED_SHELL('',(#307,#308,#309,#310,#311,#312,#313,#314,#315,#316,
#317,#318,#319,#320,#321,#322));
#324=DERIVED_UNIT_ELEMENT(#326,1.);
#325=DERIVED_UNIT_ELEMENT(#589,-3.);
#326=(
MASS_UNIT()
NAMED_UNIT(*)
SI_UNIT(.KILO.,.GRAM.)
);
#327=DERIVED_UNIT((#324,#325));
#328=MEASURE_REPRESENTATION_ITEM('density measure',
POSITIVE_RATIO_MEASURE(7850.),#327);
#329=PROPERTY_DEFINITION_REPRESENTATION(#334,#331);
#330=PROPERTY_DEFINITION_REPRESENTATION(#335,#332);
#331=REPRESENTATION('material name',(#333),#586);
#332=REPRESENTATION('density',(#328),#586);
#333=DESCRIPTIVE_REPRESENTATION_ITEM('Steel','Steel');
#334=PROPERTY_DEFINITION('material property','material name',#596);
#335=PROPERTY_DEFINITION('material property','density of part',#596);
#336=AXIS2_PLACEMENT_3D('',#459,#369,#370);
#337=AXIS2_PLACEMENT_3D('',#460,#371,#372);
#338=AXIS2_PLACEMENT_3D('',#472,#374,#375);
#339=AXIS2_PLACEMENT_3D('',#476,#377,#378);
#340=AXIS2_PLACEMENT_3D('',#478,#380,#381);
#341=AXIS2_PLACEMENT_3D('',#498,#383,#384);
#342=AXIS2_PLACEMENT_3D('',#501,#387,#388);
#343=AXIS2_PLACEMENT_3D('',#506,#391,#392);
#344=AXIS2_PLACEMENT_3D('',#507,#393,#394);
#345=AXIS2_PLACEMENT_3D('',#534,#398,#399);
#346=AXIS2_PLACEMENT_3D('',#540,#403,#404);
#347=AXIS2_PLACEMENT_3D('',#544,#407,#408);
#348=AXIS2_PLACEMENT_3D('',#546,#409,#410);
#349=AXIS2_PLACEMENT_3D('',#547,#411,#412);
#350=AXIS2_PLACEMENT_3D('',#548,#413,#414);
#351=AXIS2_PLACEMENT_3D('',#550,#415,#416);
#352=AXIS2_PLACEMENT_3D('',#552,#417,#418);
#353=AXIS2_PLACEMENT_3D('',#554,#419,#420);
#354=AXIS2_PLACEMENT_3D('',#555,#421,#422);
#355=AXIS2_PLACEMENT_3D('',#556,#423,#424);
#356=AXIS2_PLACEMENT_3D('',#557,#425,#426);
#357=AXIS2_PLACEMENT_3D('',#560,#428,#429);
#358=AXIS2_PLACEMENT_3D('',#561,#430,#431);
#359=AXIS2_PLACEMENT_3D('',#564,#433,#434);
#360=AXIS2_PLACEMENT_3D('',#565,#435,#436);
#361=AXIS2_PLACEMENT_3D('',#568,#438,#439);
#362=AXIS2_PLACEMENT_3D('',#569,#440,#441);
#363=AXIS2_PLACEMENT_3D('',#572,#443,#444);
#364=AXIS2_PLACEMENT_3D('',#573,#445,#446);
#365=AXIS2_PLACEMENT_3D('',#577,#449,#450);
#366=AXIS2_PLACEMENT_3D('',#579,#452,#453);
#367=AXIS2_PLACEMENT_3D('',#582,#455,#456);
#368=AXIS2_PLACEMENT_3D('',#583,#457,#458);
#369=DIRECTION('axis',(0.,0.,1.));
#370=DIRECTION('refdir',(1.,0.,0.));
#371=DIRECTION('center_axis',(7.74098498614057E-17,1.,8.8479863266477E-16));
#372=DIRECTION('ref_axis',(0.766044443118985,0.,0.642787609686531));
#373=DIRECTION('',(7.74098498614057E-17,1.,8.8479863266477E-16));
#374=DIRECTION('center_axis',(0.061628416716218,-0.707106781186547,0.704416026402759));
#375=DIRECTION('ref_axis',(-0.0616284167162179,-0.707106781186548,-0.704416026402758));
#376=DIRECTION('',(-7.74098498614057E-17,-1.,-8.8479863266477E-16));
#377=DIRECTION('center_axis',(-0.0616284167163516,-0.707106781186481,-0.704416026402814));
#378=DIRECTION('ref_axis',(-0.061628416716087,0.707106781186614,-0.704416026402704));
#379=DIRECTION('',(7.74098498614057E-17,1.,8.8479863266477E-16));
#380=DIRECTION('center_axis',(-0.0871557427476582,0.,-0.996194698091746));
#381=DIRECTION('ref_axis',(0.704416026402742,0.707106781186564,-0.0616284167162183));
#382=DIRECTION('',(-0.0871557427476582,0.,-0.996194698091746));
#383=DIRECTION('center_axis',(0.0616284167160833,0.70710678118647,0.704416026402848));
#384=DIRECTION('ref_axis',(0.0616284167163554,-0.707106781186625,0.704416026402669));
#385=DIRECTION('',(0.0871557427476582,0.,0.996194698091746));
#386=DIRECTION('',(-0.0871557427476582,0.,-0.996194698091746));
#387=DIRECTION('center_axis',(-7.74098498614057E-17,-1.,-8.8479863266477E-16));
#388=DIRECTION('ref_axis',(0.642787609686553,6.28036983473513E-16,-0.766044443118967));
#389=DIRECTION('',(7.74098498614057E-17,1.,8.8479863266477E-16));
#390=DIRECTION('',(-7.74098498614057E-17,-1.,-8.8479863266477E-16));
#391=DIRECTION('center_axis',(-0.0616284167162168,0.707106781186541,-0.704416026402765));
#392=DIRECTION('ref_axis',(0.0616284167162156,0.707106781186554,0.704416026402752));
#393=DIRECTION('center_axis',(0.0871557427476582,0.,0.996194698091746));
#394=DIRECTION('ref_axis',(0.704416026402762,-0.707106781186544,-0.0616284167162165));
#395=DIRECTION('',(0.0871557427476582,0.,0.996194698091746));
#396=DIRECTION('',(-0.0871557427476582,0.,-0.996194698091746));
#397=DIRECTION('',(0.0871557427476582,0.,0.996194698091746));
#398=DIRECTION('center_axis',(0.,-1.,0.));
#399=DIRECTION('ref_axis',(0.0871557427476582,0.,0.996194698091746));
#400=DIRECTION('',(-0.996194698091746,0.,0.0871557427476578));
#401=DIRECTION('',(0.0871557427476582,0.,0.996194698091746));
#402=DIRECTION('',(-0.996194698091746,0.,0.0871557427476578));
#403=DIRECTION('center_axis',(0.0871557427476578,-8.88178419700125E-16,
0.996194698091746));
#404=DIRECTION('ref_axis',(7.74098498614057E-17,1.,8.8479863266477E-16));
#405=DIRECTION('',(-0.996194698091746,0.,0.0871557427476578));
#406=DIRECTION('',(7.74098498614057E-17,1.,8.8479863266477E-16));
#407=DIRECTION('center_axis',(0.996194698091746,0.,-0.0871557427476582));
#408=DIRECTION('ref_axis',(0.,1.,0.));
#409=DIRECTION('center_axis',(-0.996194698091746,0.,0.0871557427476582));
#410=DIRECTION('ref_axis',(0.,1.,0.));
#411=DIRECTION('center_axis',(-0.996194698091746,0.,0.0871557427476582));
#412=DIRECTION('ref_axis',(0.,1.,0.));
#413=DIRECTION('center_axis',(-0.996194698091746,0.,0.0871557427476582));
#414=DIRECTION('ref_axis',(0.,1.,0.));
#415=DIRECTION('center_axis',(0.996194698091746,0.,-0.0871557427476582));
#416=DIRECTION('ref_axis',(0.,1.,0.));
#417=DIRECTION('center_axis',(-0.996194698091746,0.,0.0871557427476582));
#418=DIRECTION('ref_axis',(0.,1.,0.));
#419=DIRECTION('center_axis',(-0.996194698091746,0.,0.0871557427476582));
#420=DIRECTION('ref_axis',(0.,1.,0.));
#421=DIRECTION('center_axis',(0.996194698091746,0.,-0.0871557427476582));
#422=DIRECTION('ref_axis',(0.,1.,0.));
#423=DIRECTION('center_axis',(-0.996194698091746,0.,0.0871557427476582));
#424=DIRECTION('ref_axis',(0.,1.,0.));
#425=DIRECTION('center_axis',(-0.996194698091745,0.,0.0871557427476592));
#426=DIRECTION('ref_axis',(0.,1.,0.));
#427=DIRECTION('',(-0.996194698091745,0.,0.0871557427476592));
#428=DIRECTION('center_axis',(0.996194698091746,0.,-0.0871557427476578));
#429=DIRECTION('ref_axis',(0.,1.,0.));
#430=DIRECTION('center_axis',(-0.996194698091745,0.,0.0871557427476592));
#431=DIRECTION('ref_axis',(0.,1.,0.));
#432=DIRECTION('',(-0.996194698091745,0.,0.0871557427476592));
#433=DIRECTION('center_axis',(0.996194698091746,0.,-0.0871557427476578));
#434=DIRECTION('ref_axis',(0.,1.,0.));
#435=DIRECTION('center_axis',(-0.996194698091745,0.,0.0871557427476592));
#436=DIRECTION('ref_axis',(0.,1.,0.));
#437=DIRECTION('',(-0.996194698091745,0.,0.0871557427476592));
#438=DIRECTION('center_axis',(0.996194698091746,0.,-0.0871557427476578));
#439=DIRECTION('ref_axis',(0.,1.,0.));
#440=DIRECTION('center_axis',(-0.996194698091745,0.,0.0871557427476592));
#441=DIRECTION('ref_axis',(0.,1.,0.));
#442=DIRECTION('',(-0.996194698091745,0.,0.0871557427476592));
#443=DIRECTION('center_axis',(0.996194698091746,0.,-0.0871557427476578));
#444=DIRECTION('ref_axis',(0.,1.,0.));
#445=DIRECTION('center_axis',(0.,1.,0.));
#446=DIRECTION('ref_axis',(-0.0871557427476582,0.,-0.996194698091746));
#447=DIRECTION('',(-0.996194698091746,0.,0.0871557427476578));
#448=DIRECTION('',(-0.0871557427476582,0.,-0.996194698091746));
#449=DIRECTION('center_axis',(-0.0871557427476578,8.88178419700125E-16,
-0.996194698091746));
#450=DIRECTION('ref_axis',(-7.74098498614057E-17,-1.,-8.8479863266477E-16));
#451=DIRECTION('',(-7.74098498614057E-17,-1.,-8.8479863266477E-16));
#452=DIRECTION('center_axis',(-0.996194698091746,0.,0.0871557427476578));
#453=DIRECTION('ref_axis',(0.,1.,0.));
#454=DIRECTION('',(-0.996194698091746,0.,0.0871557427476578));
#455=DIRECTION('center_axis',(0.996194698091746,0.,-0.0871557427476578));
#456=DIRECTION('ref_axis',(0.,1.,0.));
#457=DIRECTION('center_axis',(-0.996194698091746,0.,0.0871557427476578));
#458=DIRECTION('ref_axis',(0.0871557427476578,0.,0.996194698091746));
#459=CARTESIAN_POINT('',(0.,0.,0.));
#460=CARTESIAN_POINT('Origin',(379.288105894588,-13.,199.719142701947));
#461=CARTESIAN_POINT('',(381.778592639818,13.0832585985699,199.501253345078));
#462=CARTESIAN_POINT('',(381.778592639818,13.477830292181,199.501253345078));
#463=CARTESIAN_POINT('Ctrl Pts',(381.778592639818,13.0832585985699,199.501253345078));
#464=CARTESIAN_POINT('Ctrl Pts',(381.779167713256,13.1498223949373,199.507826464554));
#465=CARTESIAN_POINT('Ctrl Pts',(381.77942381886,13.2158406966508,199.510972098345));
#466=CARTESIAN_POINT('Ctrl Pts',(381.77942381886,13.3452481941001,199.510972098345));
#467=CARTESIAN_POINT('Ctrl Pts',(381.779167713256,13.4112664958136,199.507826464554));
#468=CARTESIAN_POINT('Ctrl Pts',(381.778592639818,13.477830292181,199.501253345078));
#469=CARTESIAN_POINT('',(381.778592639818,14.5,199.501253345078));
#470=CARTESIAN_POINT('',(381.778592639818,-13.,199.501253345078));
#471=CARTESIAN_POINT('',(379.505995251457,17.,202.209629447177));
#472=CARTESIAN_POINT('Origin',(379.288105894588,14.5,199.719142701947));
#473=CARTESIAN_POINT('',(379.505995251457,-23.,202.209629447177));
#474=CARTESIAN_POINT('',(379.505995251457,-13.,202.209629447177));
#475=CARTESIAN_POINT('',(381.778592639818,-20.5,199.501253345078));
#476=CARTESIAN_POINT('Origin',(379.288105894588,-20.5,199.719142701948));
#477=CARTESIAN_POINT('',(381.778592639818,-13.,199.501253345078));
#478=CARTESIAN_POINT('Origin',(378.634437823981,14.5,192.247682466259));
#479=CARTESIAN_POINT('',(381.743292473222,14.5,199.097770594594));
#480=CARTESIAN_POINT('',(381.466970106694,14.5,195.939391492754));
#481=CARTESIAN_POINT('Ctrl Pts',(381.743292473222,14.5,199.097770594594));
#482=CARTESIAN_POINT('Ctrl Pts',(381.738752992141,14.5677071076248,199.045884088408));
#483=CARTESIAN_POINT('Ctrl Pts',(381.731119404456,14.6308411898951,198.990673883784));
#484=CARTESIAN_POINT('Ctrl Pts',(381.693055954993,14.8674117603348,198.759136236025));
#485=CARTESIAN_POINT('Ctrl Pts',(381.641163499534,15.0226541167736,198.537581152087));
#486=CARTESIAN_POINT('Ctrl Pts',(381.544836438809,15.2292571736714,198.049615317746));
#487=CARTESIAN_POINT('Ctrl Pts',(381.502788195269,15.2805444453755,197.782705445295));
#488=CARTESIAN_POINT('Ctrl Pts',(381.458478295822,15.2805444453755,197.276240977088));
#489=CARTESIAN_POINT('Ctrl Pts',(381.453539319109,15.2292571736714,197.006084464477));
#490=CARTESIAN_POINT('Ctrl Pts',(381.463668577439,15.0226541167735,196.508804909058));
#491=CARTESIAN_POINT('Ctrl Pts',(381.476300033318,14.8674117603348,196.281604714352));
#492=CARTESIAN_POINT('Ctrl Pts',(381.473579122861,14.6308411898951,196.046974995089));
#493=CARTESIAN_POINT('Ctrl Pts',(381.471509587775,14.5677071076248,195.99127799894));
#494=CARTESIAN_POINT('Ctrl Pts',(381.466970106694,14.5,195.939391492754));
#495=CARTESIAN_POINT('',(378.72814164365,14.5,164.634438911867));
#496=CARTESIAN_POINT('',(381.12492456921,14.5,192.02979310939));
#497=CARTESIAN_POINT('',(376.019765541551,17.,162.361841523507));
#498=CARTESIAN_POINT('Origin',(376.23765489842,14.5,164.852328268736));
#499=CARTESIAN_POINT('',(378.634437823981,17.,192.247682466259));
#500=CARTESIAN_POINT('',(381.12492456921,14.5,192.02979310939));
#501=CARTESIAN_POINT('Origin',(376.23765489842,7.00000000000001,164.852328268736));
#502=CARTESIAN_POINT('',(376.019765541551,-23.,162.361841523507));
#503=CARTESIAN_POINT('',(376.019765541551,7.00000000000001,162.361841523507));
#504=CARTESIAN_POINT('',(378.72814164365,-20.5,164.634438911867));
#505=CARTESIAN_POINT('',(378.72814164365,7.00000000000001,164.634438911867));
#506=CARTESIAN_POINT('Origin',(376.23765489842,-20.5,164.852328268736));
#507=CARTESIAN_POINT('Origin',(376.891322969028,-20.5,172.323788504424));
#508=CARTESIAN_POINT('',(381.434085221847,-20.5,195.563515538978));
#509=CARTESIAN_POINT('',(381.104764242895,-22.,197.536216147997));
#510=CARTESIAN_POINT('Ctrl Pts',(381.434085221846,-20.5,195.563515538978));
#511=CARTESIAN_POINT('Ctrl Pts',(381.436138866071,-20.5912588158874,195.586988799877));
#512=CARTESIAN_POINT('Ctrl Pts',(381.433746547104,-20.68141157896,195.617525338039));
#513=CARTESIAN_POINT('Ctrl Pts',(381.409875321127,-21.0156613005128,195.759308222547));
#514=CARTESIAN_POINT('Ctrl Pts',(381.360292960446,-21.2394115819583,195.91877495799));
#515=CARTESIAN_POINT('Ctrl Pts',(381.253466780012,-21.5905278658644,196.280578528816));
#516=CARTESIAN_POINT('Ctrl Pts',(381.188260508305,-21.7424880164967,196.508163633753));
#517=CARTESIAN_POINT('Ctrl Pts',(381.10072926726,-21.9472274585636,197.006748162468));
#518=CARTESIAN_POINT('Ctrl Pts',(381.082209203276,-22.,197.278410865463));
#519=CARTESIAN_POINT('Ctrl Pts',(381.104764242895,-22.,197.536216147997));
#520=CARTESIAN_POINT('',(381.771637962035,-20.5,199.421761014268));
#521=CARTESIAN_POINT('Ctrl Pts',(381.104764242895,-22.,197.536216147997));
#522=CARTESIAN_POINT('Ctrl Pts',(381.127707425106,-22.,197.79845792066));
#523=CARTESIAN_POINT('Ctrl Pts',(381.194934279478,-21.9454576093584,198.066696293561));
#524=CARTESIAN_POINT('Ctrl Pts',(381.371548335143,-21.7344542320317,198.548375976257));
#525=CARTESIAN_POINT('Ctrl Pts',(381.477156151105,-21.5779761241232,198.763187158624));
#526=CARTESIAN_POINT('Ctrl Pts',(381.643501889226,-21.2221897173832,199.096871663529));
#527=CARTESIAN_POINT('Ctrl Pts',(381.717268320771,-21.0005783241779,199.240940671426));
#528=CARTESIAN_POINT('Ctrl Pts',(381.762609453238,-20.6732650005493,199.371300068538));
#529=CARTESIAN_POINT('Ctrl Pts',(381.769677142609,-20.5871339138298,199.399348745682));
#530=CARTESIAN_POINT('Ctrl Pts',(381.771637962035,-20.5,199.421761014268));
#531=CARTESIAN_POINT('',(379.381809714257,-20.5,172.105899147555));
#532=CARTESIAN_POINT('',(376.891322969028,-23.,172.323788504424));
#533=CARTESIAN_POINT('',(379.381809714257,-20.5,172.105899147555));
#534=CARTESIAN_POINT('Origin',(383.491225777239,-23.,161.708173452899));
#535=CARTESIAN_POINT('',(377.015508506228,-23.,202.427518804046));
#536=CARTESIAN_POINT('',(386.977455487146,-23.,201.555961376569));
#537=CARTESIAN_POINT('',(373.529278796322,-23.,162.579730880376));
#538=CARTESIAN_POINT('',(377.015508506228,-23.,202.427518804046));
#539=CARTESIAN_POINT('',(383.491225777239,-23.,161.708173452899));
#540=CARTESIAN_POINT('Origin',(386.977455487146,-23.,201.555961376569));
#541=CARTESIAN_POINT('',(377.015508506228,17.,202.427518804046));
#542=CARTESIAN_POINT('',(386.977455487146,17.,201.555961376569));
#543=CARTESIAN_POINT('',(377.015508506228,17.,202.427518804046));
#544=CARTESIAN_POINT('Origin',(380.253367141734,-3.,182.067846128473));
#545=CARTESIAN_POINT('',(381.605131289958,11.2805444453755,197.518581043674));
#546=CARTESIAN_POINT('Origin',(381.605131289958,13.2805444453755,197.518581043674));
#547=CARTESIAN_POINT('Origin',(381.605131289958,13.2805444453755,197.518581043674));
#548=CARTESIAN_POINT('Origin',(381.602861591941,-20.,197.492638276623));
#549=CARTESIAN_POINT('',(380.248991759466,-16.5,182.017835280302));
#550=CARTESIAN_POINT('Origin',(380.248991759466,-3.,182.017835280302));
#551=CARTESIAN_POINT('',(378.988189309511,-17.,167.606797333871));
#552=CARTESIAN_POINT('Origin',(378.988189309511,-15.,167.606797333871));
#553=CARTESIAN_POINT('',(378.988189309511,8.,167.606797333871));
#554=CARTESIAN_POINT('Origin',(378.988189309511,10.,167.606797333871));
#555=CARTESIAN_POINT('Origin',(380.253367141734,-3.,182.067846128473));
#556=CARTESIAN_POINT('Origin',(381.605131289958,13.2805444453755,197.518581043674));
#557=CARTESIAN_POINT('Origin',(381.602861591941,-20.,197.492638276623));
#558=CARTESIAN_POINT('',(376.621888101482,-22.,197.928416990361));
#559=CARTESIAN_POINT('',(381.602861591941,-22.,197.492638276623));
#560=CARTESIAN_POINT('Origin',(376.621888101482,-20.,197.928416990361));
#561=CARTESIAN_POINT('Origin',(378.988189309511,10.,167.606797333871));
#562=CARTESIAN_POINT('',(374.007215819052,8.,168.042576047609));
#563=CARTESIAN_POINT('',(378.988189309511,8.,167.606797333871));
#564=CARTESIAN_POINT('Origin',(374.007215819052,10.,168.042576047609));
#565=CARTESIAN_POINT('Origin',(381.605131289958,13.2805444453755,197.518581043674));
#566=CARTESIAN_POINT('',(376.624157799499,11.2805444453755,197.954359757412));
#567=CARTESIAN_POINT('',(381.605131289958,11.2805444453755,197.518581043674));
#568=CARTESIAN_POINT('Origin',(376.624157799499,13.2805444453755,197.954359757412));
#569=CARTESIAN_POINT('Origin',(378.988189309511,-15.,167.606797333871));
#570=CARTESIAN_POINT('',(374.007215819052,-17.,168.042576047609));
#571=CARTESIAN_POINT('',(378.988189309511,-17.,167.606797333871));
#572=CARTESIAN_POINT('Origin',(374.007215819052,-15.,168.042576047609));
#573=CARTESIAN_POINT('Origin',(386.977455487146,17.,201.555961376569));
#574=CARTESIAN_POINT('',(373.529278796322,17.,162.579730880376));
#575=CARTESIAN_POINT('',(383.491225777239,17.,161.708173452899));
#576=CARTESIAN_POINT('',(373.529278796322,17.,162.579730880376));
#577=CARTESIAN_POINT('Origin',(383.491225777239,17.,161.708173452899));
#578=CARTESIAN_POINT('',(373.529278796322,-23.,162.579730880376));
#579=CARTESIAN_POINT('Origin',(385.229965249924,-3.,181.582056566564));
#580=CARTESIAN_POINT('',(375.268018269007,-16.5,182.453613994041));
#581=CARTESIAN_POINT('',(385.229965249924,-16.5,181.582056566564));
#582=CARTESIAN_POINT('Origin',(375.268018269007,-3.,182.453613994041));
#583=CARTESIAN_POINT('Origin',(375.272393651275,-3.,182.503624842211));
#584=UNCERTAINTY_MEASURE_WITH_UNIT(LENGTH_MEASURE(0.01),#588,
'DISTANCE_ACCURACY_VALUE',
'Maximum model space distance between geometric entities at asserted c
onnectivities');
#585=UNCERTAINTY_MEASURE_WITH_UNIT(LENGTH_MEASURE(0.01),#588,
'DISTANCE_ACCURACY_VALUE',
'Maximum model space distance between geometric entities at asserted c
onnectivities');
#586=(
GEOMETRIC_REPRESENTATION_CONTEXT(3)
GLOBAL_UNCERTAINTY_ASSIGNED_CONTEXT((#584))
GLOBAL_UNIT_ASSIGNED_CONTEXT((#588,#590,#591))
REPRESENTATION_CONTEXT('','3D')
);
#587=(
GEOMETRIC_REPRESENTATION_CONTEXT(3)
GLOBAL_UNCERTAINTY_ASSIGNED_CONTEXT((#585))
GLOBAL_UNIT_ASSIGNED_CONTEXT((#588,#590,#591))
REPRESENTATION_CONTEXT('','3D')
);
#588=(
LENGTH_UNIT()
NAMED_UNIT(*)
SI_UNIT(.MILLI.,.METRE.)
);
#589=(
LENGTH_UNIT()
NAMED_UNIT(*)
SI_UNIT($,.METRE.)
);
#590=(
NAMED_UNIT(*)
PLANE_ANGLE_UNIT()
SI_UNIT($,.RADIAN.)
);
#591=(
NAMED_UNIT(*)
SI_UNIT($,.STERADIAN.)
SOLID_ANGLE_UNIT()
);
#592=SHAPE_DEFINITION_REPRESENTATION(#593,#594);
#593=PRODUCT_DEFINITION_SHAPE('',$,#596);
#594=SHAPE_REPRESENTATION('',(#336),#586);
#595=PRODUCT_DEFINITION_CONTEXT('part definition',#600,'design');
#596=PRODUCT_DEFINITION('J5BearingMount','J5BearingMount',#597,#595);
#597=PRODUCT_DEFINITION_FORMATION('',$,#602);
#598=PRODUCT_RELATED_PRODUCT_CATEGORY('J5BearingMount','J5BearingMount',
(#602));
#599=APPLICATION_PROTOCOL_DEFINITION('international standard',
'automotive_design',2009,#600);
#600=APPLICATION_CONTEXT(
'Core Data for Automotive Mechanical Design Process');
#601=PRODUCT_CONTEXT('part definition',#600,'mechanical');
#602=PRODUCT('J5BearingMount','J5BearingMount',$,(#601));
#603=PRESENTATION_STYLE_ASSIGNMENT((#604));
#604=SURFACE_STYLE_USAGE(.BOTH.,#605);
#605=SURFACE_SIDE_STYLE('',(#606));
#606=SURFACE_STYLE_FILL_AREA(#607);
#607=FILL_AREA_STYLE('Steel - Satin',(#608));
#608=FILL_AREA_STYLE_COLOUR('Steel - Satin',#609);
#609=COLOUR_RGB('Steel - Satin',0.627450980392157,0.627450980392157,0.627450980392157);
ENDSEC;
END-ISO-10303-21;
