ISO-10303-21;
HEADER;
/* Generated by software containing ST-Developer
 * from STEP Tools, Inc. (www.steptools.com) 
 */

FILE_DESCRIPTION(
/* description */ (''),
/* implementation_level */ '2;1');

FILE_NAME(
/* name */ 'J5Flange.step',
/* time_stamp */ '2026-08-05T16:39:45-05:00',
/* author */ (''),
/* organization */ (''),
/* preprocessor_version */ 'ST-DEVELOPER v20.1',
/* originating_system */ 'Autodesk Translation Framework v15.8.0.0',
/* authorisation */ '');

FILE_SCHEMA (('AUTOMOTIVE_DESIGN { 1 0 10303 214 3 1 1 }'));
ENDSEC;

DATA;
#10=MECHANICAL_DESIGN_GEOMETRIC_PRESENTATION_REPRESENTATION('',(#13),#1323);
#11=SHAPE_REPRESENTATION_RELATIONSHIP('SRR','None',#1330,#12);
#12=ADVANCED_BREP_SHAPE_REPRESENTATION('',(#14),#1322);
#13=STYLED_ITEM('',(#1339),#14);
#14=MANIFOLD_SOLID_BREP('Flange',#535);
#15=B_SPLINE_SURFACE_WITH_KNOTS('',3,1,((#933,#934),(#935,#936),(#937,#938),
(#939,#940),(#941,#942),(#943,#944),(#945,#946),(#947,#948),(#949,#950),
(#951,#952),(#953,#954),(#955,#956),(#957,#958),(#959,#960)),
 .UNSPECIFIED.,.F.,.F.,.F.,(4,2,2,2,2,2,4),(2,2),(0.,0.0590386873266632,
0.11603342985477,0.17098340798687,0.223887839039613,0.255505160536067,0.286347380332236),
(0.,1.51698657870127),.UNSPECIFIED.);
#16=B_SPLINE_SURFACE_WITH_KNOTS('',3,1,((#981,#982),(#983,#984),(#985,#986),
(#987,#988),(#989,#990),(#991,#992),(#993,#994),(#995,#996),(#997,#998),
(#999,#1000),(#1001,#1002),(#1003,#1004),(#1005,#1006),(#1007,#1008)),
 .UNSPECIFIED.,.F.,.F.,.F.,(4,2,2,2,2,2,4),(2,2),(0.,0.0501110231620931,
0.102261479702394,0.156450478837902,0.212677099577453,0.248520475110842,
0.285142803995152),(0.,1.51696935135284),.UNSPECIFIED.);
#17=B_SPLINE_SURFACE_WITH_KNOTS('',3,1,((#1029,#1030),(#1031,#1032),(#1033,
#1034),(#1035,#1036),(#1037,#1038),(#1039,#1040),(#1041,#1042),(#1043,#1044),
(#1045,#1046),(#1047,#1048),(#1049,#1050),(#1051,#1052),(#1053,#1054),(#1055,
#1056)),.UNSPECIFIED.,.F.,.F.,.F.,(4,2,2,2,2,2,4),(2,2),(0.,0.0590386873266628,
0.11603342985477,0.170983407986873,0.223887839039617,0.255505160536073,
0.286347380332248),(0.,1.51698657870127),.UNSPECIFIED.);
#18=B_SPLINE_SURFACE_WITH_KNOTS('',3,1,((#1077,#1078),(#1079,#1080),(#1081,
#1082),(#1083,#1084),(#1085,#1086),(#1087,#1088),(#1089,#1090),(#1091,#1092),
(#1093,#1094),(#1095,#1096),(#1097,#1098),(#1099,#1100),(#1101,#1102),(#1103,
#1104)),.UNSPECIFIED.,.F.,.F.,.F.,(4,2,2,2,2,2,4),(2,2),(0.,0.0501110231620932,
0.102261479702394,0.156450478837902,0.212677099577453,0.248520475110844,
0.285142803995157),(0.,1.51696935135284),.UNSPECIFIED.);
#19=B_SPLINE_SURFACE_WITH_KNOTS('',3,1,((#1125,#1126),(#1127,#1128),(#1129,
#1130),(#1131,#1132),(#1133,#1134),(#1135,#1136),(#1137,#1138),(#1139,#1140),
(#1141,#1142),(#1143,#1144),(#1145,#1146),(#1147,#1148),(#1149,#1150),(#1151,
#1152)),.UNSPECIFIED.,.F.,.F.,.F.,(4,2,2,2,2,2,4),(2,2),(0.,0.0590386873266634,
0.116033429854772,0.170983407986878,0.223887839039627,0.255505160536087,
0.286347380332263),(0.,1.51698657870127),.UNSPECIFIED.);
#20=B_SPLINE_SURFACE_WITH_KNOTS('',3,1,((#1173,#1174),(#1175,#1176),(#1177,
#1178),(#1179,#1180),(#1181,#1182),(#1183,#1184),(#1185,#1186),(#1187,#1188),
(#1189,#1190),(#1191,#1192),(#1193,#1194),(#1195,#1196),(#1197,#1198),(#1199,
#1200)),.UNSPECIFIED.,.F.,.F.,.F.,(4,2,2,2,2,2,4),(2,2),(0.,0.0501110231620927,
0.102261479702393,0.156450478837903,0.212677099577457,0.248520475110848,
0.285142803995159),(0.,1.51696935135284),.UNSPECIFIED.);
#21=B_SPLINE_SURFACE_WITH_KNOTS('',3,1,((#1221,#1222),(#1223,#1224),(#1225,
#1226),(#1227,#1228),(#1229,#1230),(#1231,#1232),(#1233,#1234),(#1235,#1236),
(#1237,#1238),(#1239,#1240),(#1241,#1242),(#1243,#1244),(#1245,#1246),(#1247,
#1248)),.UNSPECIFIED.,.F.,.F.,.F.,(4,2,2,2,2,2,4),(2,2),(0.,0.0590386873266644,
0.116033429854773,0.170983407986877,0.223887839039621,0.255505160536077,
0.28634738033225),(0.,1.51698657870126),.UNSPECIFIED.);
#22=B_SPLINE_SURFACE_WITH_KNOTS('',3,1,((#1269,#1270),(#1271,#1272),(#1273,
#1274),(#1275,#1276),(#1277,#1278),(#1279,#1280),(#1281,#1282),(#1283,#1284),
(#1285,#1286),(#1287,#1288),(#1289,#1290),(#1291,#1292),(#1293,#1294),(#1295,
#1296)),.UNSPECIFIED.,.F.,.F.,.F.,(4,2,2,2,2,2,4),(2,2),(0.,0.050111023162093,
0.102261479702394,0.156450478837903,0.212677099577453,0.248520475110845,
0.285142803995159),(0.,1.51696935135284),.UNSPECIFIED.);
#23=B_SPLINE_CURVE_WITH_KNOTS('',3,(#793,#794,#795,#796,#797,#798,#799,
#800,#801,#802,#803,#804,#805,#806),.UNSPECIFIED.,.F.,.F.,(4,2,2,2,2,2,
4),(0.,0.0590386873266644,0.116033429854773,0.170983407986877,0.223887839039621,
0.255505160536077,0.28634738033225),.UNSPECIFIED.);
#24=B_SPLINE_CURVE_WITH_KNOTS('',3,(#809,#810,#811,#812,#813,#814,#815,
#816,#817,#818,#819,#820,#821,#822),.UNSPECIFIED.,.F.,.F.,(4,2,2,2,2,2,
4),(0.,0.050111023162093,0.102261479702394,0.156450478837903,0.212677099577453,
0.248520475110845,0.285142803995159),.UNSPECIFIED.);
#25=B_SPLINE_CURVE_WITH_KNOTS('',3,(#827,#828,#829,#830,#831,#832,#833,
#834,#835,#836,#837,#838,#839,#840),.UNSPECIFIED.,.F.,.F.,(4,2,2,2,2,2,
4),(0.,0.0590386873266632,0.11603342985477,0.17098340798687,0.223887839039613,
0.255505160536067,0.286347380332236),.UNSPECIFIED.);
#26=B_SPLINE_CURVE_WITH_KNOTS('',3,(#843,#844,#845,#846,#847,#848,#849,
#850,#851,#852,#853,#854,#855,#856),.UNSPECIFIED.,.F.,.F.,(4,2,2,2,2,2,
4),(0.,0.0501110231620931,0.102261479702394,0.156450478837902,0.212677099577453,
0.248520475110842,0.285142803995152),.UNSPECIFIED.);
#27=B_SPLINE_CURVE_WITH_KNOTS('',3,(#861,#862,#863,#864,#865,#866,#867,
#868,#869,#870,#871,#872,#873,#874),.UNSPECIFIED.,.F.,.F.,(4,2,2,2,2,2,
4),(0.,0.0590386873266634,0.116033429854772,0.170983407986878,0.223887839039627,
0.255505160536087,0.286347380332263),.UNSPECIFIED.);
#28=B_SPLINE_CURVE_WITH_KNOTS('',3,(#877,#878,#879,#880,#881,#882,#883,
#884,#885,#886,#887,#888,#889,#890),.UNSPECIFIED.,.F.,.F.,(4,2,2,2,2,2,
4),(0.,0.0501110231620927,0.102261479702393,0.156450478837903,0.212677099577457,
0.248520475110848,0.285142803995159),.UNSPECIFIED.);
#29=B_SPLINE_CURVE_WITH_KNOTS('',3,(#897,#898,#899,#900,#901,#902,#903,
#904,#905,#906,#907,#908,#909,#910),.UNSPECIFIED.,.F.,.F.,(4,2,2,2,2,2,
4),(0.,0.0590386873266628,0.11603342985477,0.170983407986873,0.223887839039617,
0.255505160536073,0.286347380332248),.UNSPECIFIED.);
#30=B_SPLINE_CURVE_WITH_KNOTS('',3,(#913,#914,#915,#916,#917,#918,#919,
#920,#921,#922,#923,#924,#925,#926),.UNSPECIFIED.,.F.,.F.,(4,2,2,2,2,2,
4),(0.,0.0501110231620932,0.102261479702394,0.156450478837902,0.212677099577453,
0.248520475110844,0.285142803995157),.UNSPECIFIED.);
#31=B_SPLINE_CURVE_WITH_KNOTS('',3,(#962,#963,#964,#965,#966,#967,#968,
#969,#970,#971,#972,#973,#974,#975),.UNSPECIFIED.,.F.,.F.,(4,2,2,2,2,2,
4),(0.,0.0590386873266632,0.11603342985477,0.17098340798687,0.223887839039613,
0.255505160536067,0.286347380332236),.UNSPECIFIED.);
#32=B_SPLINE_CURVE_WITH_KNOTS('',3,(#1009,#1010,#1011,#1012,#1013,#1014,
#1015,#1016,#1017,#1018,#1019,#1020,#1021,#1022),.UNSPECIFIED.,.F.,.F.,
(4,2,2,2,2,2,4),(0.,0.0501110231620931,0.102261479702394,0.156450478837902,
0.212677099577453,0.248520475110842,0.285142803995152),.UNSPECIFIED.);
#33=B_SPLINE_CURVE_WITH_KNOTS('',3,(#1058,#1059,#1060,#1061,#1062,#1063,
#1064,#1065,#1066,#1067,#1068,#1069,#1070,#1071),.UNSPECIFIED.,.F.,.F.,
(4,2,2,2,2,2,4),(0.,0.0590386873266628,0.11603342985477,0.170983407986873,
0.223887839039617,0.255505160536073,0.286347380332248),.UNSPECIFIED.);
#34=B_SPLINE_CURVE_WITH_KNOTS('',3,(#1105,#1106,#1107,#1108,#1109,#1110,
#1111,#1112,#1113,#1114,#1115,#1116,#1117,#1118),.UNSPECIFIED.,.F.,.F.,
(4,2,2,2,2,2,4),(0.,0.0501110231620932,0.102261479702394,0.156450478837902,
0.212677099577453,0.248520475110844,0.285142803995157),.UNSPECIFIED.);
#35=B_SPLINE_CURVE_WITH_KNOTS('',3,(#1154,#1155,#1156,#1157,#1158,#1159,
#1160,#1161,#1162,#1163,#1164,#1165,#1166,#1167),.UNSPECIFIED.,.F.,.F.,
(4,2,2,2,2,2,4),(0.,0.0590386873266634,0.116033429854772,0.170983407986878,
0.223887839039627,0.255505160536087,0.286347380332263),.UNSPECIFIED.);
#36=B_SPLINE_CURVE_WITH_KNOTS('',3,(#1201,#1202,#1203,#1204,#1205,#1206,
#1207,#1208,#1209,#1210,#1211,#1212,#1213,#1214),.UNSPECIFIED.,.F.,.F.,
(4,2,2,2,2,2,4),(0.,0.0501110231620927,0.102261479702393,0.156450478837903,
0.212677099577457,0.248520475110848,0.285142803995159),.UNSPECIFIED.);
#37=B_SPLINE_CURVE_WITH_KNOTS('',3,(#1250,#1251,#1252,#1253,#1254,#1255,
#1256,#1257,#1258,#1259,#1260,#1261,#1262,#1263),.UNSPECIFIED.,.F.,.F.,
(4,2,2,2,2,2,4),(0.,0.0590386873266644,0.116033429854773,0.170983407986877,
0.223887839039621,0.255505160536077,0.28634738033225),.UNSPECIFIED.);
#38=B_SPLINE_CURVE_WITH_KNOTS('',3,(#1297,#1298,#1299,#1300,#1301,#1302,
#1303,#1304,#1305,#1306,#1307,#1308,#1309,#1310),.UNSPECIFIED.,.F.,.F.,
(4,2,2,2,2,2,4),(0.,0.050111023162093,0.102261479702394,0.156450478837903,
0.212677099577453,0.248520475110845,0.285142803995159),.UNSPECIFIED.);
#39=FACE_BOUND('',#106,.T.);
#40=FACE_BOUND('',#109,.T.);
#41=FACE_BOUND('',#110,.T.);
#42=FACE_BOUND('',#111,.T.);
#43=FACE_BOUND('',#112,.T.);
#44=FACE_BOUND('',#113,.T.);
#45=FACE_BOUND('',#114,.T.);
#46=FACE_BOUND('',#115,.T.);
#47=FACE_BOUND('',#116,.T.);
#48=FACE_BOUND('',#117,.T.);
#49=FACE_BOUND('',#118,.T.);
#50=FACE_BOUND('',#138,.T.);
#51=FACE_BOUND('',#139,.T.);
#52=FACE_BOUND('',#140,.T.);
#53=FACE_BOUND('',#141,.T.);
#54=FACE_BOUND('',#142,.T.);
#55=PLANE('',#552);
#56=PLANE('',#556);
#57=PLANE('',#560);
#58=PLANE('',#564);
#59=PLANE('',#568);
#60=PLANE('',#569);
#61=PLANE('',#574);
#62=PLANE('',#604);
#63=FACE_OUTER_BOUND('',#95,.T.);
#64=FACE_OUTER_BOUND('',#96,.T.);
#65=FACE_OUTER_BOUND('',#97,.T.);
#66=FACE_OUTER_BOUND('',#98,.T.);
#67=FACE_OUTER_BOUND('',#99,.T.);
#68=FACE_OUTER_BOUND('',#100,.T.);
#69=FACE_OUTER_BOUND('',#101,.T.);
#70=FACE_OUTER_BOUND('',#102,.T.);
#71=FACE_OUTER_BOUND('',#103,.T.);
#72=FACE_OUTER_BOUND('',#104,.T.);
#73=FACE_OUTER_BOUND('',#105,.T.);
#74=FACE_OUTER_BOUND('',#107,.T.);
#75=FACE_OUTER_BOUND('',#108,.T.);
#76=FACE_OUTER_BOUND('',#119,.T.);
#77=FACE_OUTER_BOUND('',#120,.T.);
#78=FACE_OUTER_BOUND('',#121,.T.);
#79=FACE_OUTER_BOUND('',#122,.T.);
#80=FACE_OUTER_BOUND('',#123,.T.);
#81=FACE_OUTER_BOUND('',#124,.T.);
#82=FACE_OUTER_BOUND('',#125,.T.);
#83=FACE_OUTER_BOUND('',#126,.T.);
#84=FACE_OUTER_BOUND('',#127,.T.);
#85=FACE_OUTER_BOUND('',#128,.T.);
#86=FACE_OUTER_BOUND('',#129,.T.);
#87=FACE_OUTER_BOUND('',#130,.T.);
#88=FACE_OUTER_BOUND('',#131,.T.);
#89=FACE_OUTER_BOUND('',#132,.T.);
#90=FACE_OUTER_BOUND('',#133,.T.);
#91=FACE_OUTER_BOUND('',#134,.T.);
#92=FACE_OUTER_BOUND('',#135,.T.);
#93=FACE_OUTER_BOUND('',#136,.T.);
#94=FACE_OUTER_BOUND('',#137,.T.);
#95=EDGE_LOOP('',(#343,#344,#345,#346));
#96=EDGE_LOOP('',(#347));
#97=EDGE_LOOP('',(#348,#349,#350,#351));
#98=EDGE_LOOP('',(#352));
#99=EDGE_LOOP('',(#353,#354,#355,#356));
#100=EDGE_LOOP('',(#357));
#101=EDGE_LOOP('',(#358,#359,#360,#361));
#102=EDGE_LOOP('',(#362));
#103=EDGE_LOOP('',(#363,#364,#365,#366));
#104=EDGE_LOOP('',(#367));
#105=EDGE_LOOP('',(#368));
#106=EDGE_LOOP('',(#369));
#107=EDGE_LOOP('',(#370,#371,#372,#373));
#108=EDGE_LOOP('',(#374));
#109=EDGE_LOOP('',(#375,#376,#377,#378));
#110=EDGE_LOOP('',(#379,#380,#381,#382));
#111=EDGE_LOOP('',(#383,#384,#385,#386));
#112=EDGE_LOOP('',(#387));
#113=EDGE_LOOP('',(#388,#389,#390,#391));
#114=EDGE_LOOP('',(#392));
#115=EDGE_LOOP('',(#393));
#116=EDGE_LOOP('',(#394));
#117=EDGE_LOOP('',(#395));
#118=EDGE_LOOP('',(#396));
#119=EDGE_LOOP('',(#397,#398,#399,#400));
#120=EDGE_LOOP('',(#401,#402,#403,#404));
#121=EDGE_LOOP('',(#405,#406,#407,#408));
#122=EDGE_LOOP('',(#409,#410,#411,#412));
#123=EDGE_LOOP('',(#413,#414,#415,#416));
#124=EDGE_LOOP('',(#417,#418,#419,#420));
#125=EDGE_LOOP('',(#421,#422,#423,#424));
#126=EDGE_LOOP('',(#425,#426,#427,#428));
#127=EDGE_LOOP('',(#429,#430,#431,#432));
#128=EDGE_LOOP('',(#433,#434,#435,#436));
#129=EDGE_LOOP('',(#437,#438,#439,#440));
#130=EDGE_LOOP('',(#441,#442,#443,#444));
#131=EDGE_LOOP('',(#445,#446,#447,#448));
#132=EDGE_LOOP('',(#449,#450,#451,#452));
#133=EDGE_LOOP('',(#453,#454,#455,#456));
#134=EDGE_LOOP('',(#457,#458,#459,#460));
#135=EDGE_LOOP('',(#461,#462,#463,#464));
#136=EDGE_LOOP('',(#465,#466,#467,#468));
#137=EDGE_LOOP('',(#469));
#138=EDGE_LOOP('',(#470));
#139=EDGE_LOOP('',(#471,#472,#473,#474));
#140=EDGE_LOOP('',(#475,#476,#477,#478));
#141=EDGE_LOOP('',(#479,#480,#481,#482));
#142=EDGE_LOOP('',(#483,#484,#485,#486));
#143=LINE('',#748,#167);
#144=LINE('',#755,#168);
#145=LINE('',#762,#169);
#146=LINE('',#769,#170);
#147=LINE('',#776,#171);
#148=LINE('',#787,#172);
#149=LINE('',#931,#173);
#150=LINE('',#932,#174);
#151=LINE('',#976,#175);
#152=LINE('',#980,#176);
#153=LINE('',#1027,#177);
#154=LINE('',#1028,#178);
#155=LINE('',#1072,#179);
#156=LINE('',#1076,#180);
#157=LINE('',#1123,#181);
#158=LINE('',#1124,#182);
#159=LINE('',#1168,#183);
#160=LINE('',#1172,#184);
#161=LINE('',#1219,#185);
#162=LINE('',#1220,#186);
#163=LINE('',#1264,#187);
#164=LINE('',#1268,#188);
#165=LINE('',#1313,#189);
#166=LINE('',#1317,#190);
#167=VECTOR('',#611,2.);
#168=VECTOR('',#620,1.99999999999999);
#169=VECTOR('',#629,2.);
#170=VECTOR('',#638,2.00000000000001);
#171=VECTOR('',#647,2.);
#172=VECTOR('',#662,17.5);
#173=VECTOR('',#687,10.);
#174=VECTOR('',#688,10.);
#175=VECTOR('',#689,10.);
#176=VECTOR('',#694,10.);
#177=VECTOR('',#699,10.);
#178=VECTOR('',#700,10.);
#179=VECTOR('',#701,10.);
#180=VECTOR('',#706,10.);
#181=VECTOR('',#711,10.);
#182=VECTOR('',#712,10.);
#183=VECTOR('',#713,10.);
#184=VECTOR('',#718,10.);
#185=VECTOR('',#723,10.);
#186=VECTOR('',#724,10.);
#187=VECTOR('',#725,10.);
#188=VECTOR('',#730,10.);
#189=VECTOR('',#733,1.55);
#190=VECTOR('',#738,10.);
#191=CIRCLE('',#550,2.);
#192=CIRCLE('',#551,2.);
#193=CIRCLE('',#554,1.99999999999999);
#194=CIRCLE('',#555,1.99999999999999);
#195=CIRCLE('',#558,2.);
#196=CIRCLE('',#559,2.);
#197=CIRCLE('',#562,2.00000000000001);
#198=CIRCLE('',#563,2.00000000000001);
#199=CIRCLE('',#566,2.);
#200=CIRCLE('',#567,2.);
#201=CIRCLE('',#570,17.5);
#202=CIRCLE('',#571,10.);
#203=CIRCLE('',#573,17.5);
#204=CIRCLE('',#575,1.54300000000001);
#205=CIRCLE('',#576,1.26449999999996);
#206=CIRCLE('',#577,1.54299999999991);
#207=CIRCLE('',#578,1.26450000000003);
#208=CIRCLE('',#579,1.54300000000012);
#209=CIRCLE('',#580,1.26449999999993);
#210=CIRCLE('',#581,1.55);
#211=CIRCLE('',#582,1.54299999999995);
#212=CIRCLE('',#583,1.26450000000002);
#213=CIRCLE('',#585,1.2645);
#214=CIRCLE('',#587,1.543);
#215=CIRCLE('',#589,1.2645);
#216=CIRCLE('',#591,1.543);
#217=CIRCLE('',#593,1.2645);
#218=CIRCLE('',#595,1.543);
#219=CIRCLE('',#597,1.2645);
#220=CIRCLE('',#599,1.543);
#221=CIRCLE('',#601,1.55);
#222=CIRCLE('',#603,10.);
#223=VERTEX_POINT('',#745);
#224=VERTEX_POINT('',#747);
#225=VERTEX_POINT('',#752);
#226=VERTEX_POINT('',#754);
#227=VERTEX_POINT('',#759);
#228=VERTEX_POINT('',#761);
#229=VERTEX_POINT('',#766);
#230=VERTEX_POINT('',#768);
#231=VERTEX_POINT('',#773);
#232=VERTEX_POINT('',#775);
#233=VERTEX_POINT('',#780);
#234=VERTEX_POINT('',#782);
#235=VERTEX_POINT('',#785);
#236=VERTEX_POINT('',#789);
#237=VERTEX_POINT('',#790);
#238=VERTEX_POINT('',#792);
#239=VERTEX_POINT('',#807);
#240=VERTEX_POINT('',#823);
#241=VERTEX_POINT('',#824);
#242=VERTEX_POINT('',#826);
#243=VERTEX_POINT('',#841);
#244=VERTEX_POINT('',#857);
#245=VERTEX_POINT('',#858);
#246=VERTEX_POINT('',#860);
#247=VERTEX_POINT('',#875);
#248=VERTEX_POINT('',#891);
#249=VERTEX_POINT('',#893);
#250=VERTEX_POINT('',#894);
#251=VERTEX_POINT('',#896);
#252=VERTEX_POINT('',#911);
#253=VERTEX_POINT('',#928);
#254=VERTEX_POINT('',#929);
#255=VERTEX_POINT('',#961);
#256=VERTEX_POINT('',#978);
#257=VERTEX_POINT('',#1024);
#258=VERTEX_POINT('',#1025);
#259=VERTEX_POINT('',#1057);
#260=VERTEX_POINT('',#1074);
#261=VERTEX_POINT('',#1120);
#262=VERTEX_POINT('',#1121);
#263=VERTEX_POINT('',#1153);
#264=VERTEX_POINT('',#1170);
#265=VERTEX_POINT('',#1216);
#266=VERTEX_POINT('',#1217);
#267=VERTEX_POINT('',#1249);
#268=VERTEX_POINT('',#1266);
#269=VERTEX_POINT('',#1312);
#270=VERTEX_POINT('',#1316);
#271=EDGE_CURVE('',#223,#223,#191,.T.);
#272=EDGE_CURVE('',#223,#224,#143,.T.);
#273=EDGE_CURVE('',#224,#224,#192,.T.);
#274=EDGE_CURVE('',#225,#225,#193,.T.);
#275=EDGE_CURVE('',#225,#226,#144,.T.);
#276=EDGE_CURVE('',#226,#226,#194,.T.);
#277=EDGE_CURVE('',#227,#227,#195,.T.);
#278=EDGE_CURVE('',#227,#228,#145,.T.);
#279=EDGE_CURVE('',#228,#228,#196,.T.);
#280=EDGE_CURVE('',#229,#229,#197,.T.);
#281=EDGE_CURVE('',#229,#230,#146,.T.);
#282=EDGE_CURVE('',#230,#230,#198,.T.);
#283=EDGE_CURVE('',#231,#231,#199,.T.);
#284=EDGE_CURVE('',#231,#232,#147,.T.);
#285=EDGE_CURVE('',#232,#232,#200,.T.);
#286=EDGE_CURVE('',#233,#233,#201,.T.);
#287=EDGE_CURVE('',#234,#234,#202,.T.);
#288=EDGE_CURVE('',#235,#235,#203,.T.);
#289=EDGE_CURVE('',#235,#233,#148,.T.);
#290=EDGE_CURVE('',#236,#237,#204,.T.);
#291=EDGE_CURVE('',#237,#238,#23,.T.);
#292=EDGE_CURVE('',#238,#239,#205,.T.);
#293=EDGE_CURVE('',#239,#236,#24,.T.);
#294=EDGE_CURVE('',#240,#241,#206,.T.);
#295=EDGE_CURVE('',#241,#242,#25,.T.);
#296=EDGE_CURVE('',#242,#243,#207,.T.);
#297=EDGE_CURVE('',#243,#240,#26,.T.);
#298=EDGE_CURVE('',#244,#245,#208,.T.);
#299=EDGE_CURVE('',#245,#246,#27,.T.);
#300=EDGE_CURVE('',#246,#247,#209,.T.);
#301=EDGE_CURVE('',#247,#244,#28,.T.);
#302=EDGE_CURVE('',#248,#248,#210,.T.);
#303=EDGE_CURVE('',#249,#250,#211,.T.);
#304=EDGE_CURVE('',#250,#251,#29,.T.);
#305=EDGE_CURVE('',#251,#252,#212,.T.);
#306=EDGE_CURVE('',#252,#249,#30,.T.);
#307=EDGE_CURVE('',#253,#254,#213,.F.);
#308=EDGE_CURVE('',#253,#243,#149,.T.);
#309=EDGE_CURVE('',#254,#242,#150,.T.);
#310=EDGE_CURVE('',#255,#254,#31,.T.);
#311=EDGE_CURVE('',#255,#241,#151,.T.);
#312=EDGE_CURVE('',#256,#255,#214,.T.);
#313=EDGE_CURVE('',#256,#240,#152,.T.);
#314=EDGE_CURVE('',#253,#256,#32,.T.);
#315=EDGE_CURVE('',#257,#258,#215,.F.);
#316=EDGE_CURVE('',#257,#252,#153,.T.);
#317=EDGE_CURVE('',#258,#251,#154,.T.);
#318=EDGE_CURVE('',#259,#258,#33,.T.);
#319=EDGE_CURVE('',#259,#250,#155,.T.);
#320=EDGE_CURVE('',#260,#259,#216,.T.);
#321=EDGE_CURVE('',#260,#249,#156,.T.);
#322=EDGE_CURVE('',#257,#260,#34,.T.);
#323=EDGE_CURVE('',#261,#262,#217,.F.);
#324=EDGE_CURVE('',#261,#247,#157,.T.);
#325=EDGE_CURVE('',#262,#246,#158,.T.);
#326=EDGE_CURVE('',#263,#262,#35,.T.);
#327=EDGE_CURVE('',#263,#245,#159,.T.);
#328=EDGE_CURVE('',#264,#263,#218,.T.);
#329=EDGE_CURVE('',#264,#244,#160,.T.);
#330=EDGE_CURVE('',#261,#264,#36,.T.);
#331=EDGE_CURVE('',#265,#266,#219,.F.);
#332=EDGE_CURVE('',#265,#239,#161,.T.);
#333=EDGE_CURVE('',#266,#238,#162,.T.);
#334=EDGE_CURVE('',#267,#266,#37,.T.);
#335=EDGE_CURVE('',#267,#237,#163,.T.);
#336=EDGE_CURVE('',#268,#267,#220,.T.);
#337=EDGE_CURVE('',#268,#236,#164,.T.);
#338=EDGE_CURVE('',#265,#268,#38,.T.);
#339=EDGE_CURVE('',#248,#269,#165,.T.);
#340=EDGE_CURVE('',#269,#269,#221,.T.);
#341=EDGE_CURVE('',#234,#270,#166,.T.);
#342=EDGE_CURVE('',#270,#270,#222,.T.);
#343=ORIENTED_EDGE('',*,*,#271,.F.);
#344=ORIENTED_EDGE('',*,*,#272,.T.);
#345=ORIENTED_EDGE('',*,*,#273,.T.);
#346=ORIENTED_EDGE('',*,*,#272,.F.);
#347=ORIENTED_EDGE('',*,*,#273,.F.);
#348=ORIENTED_EDGE('',*,*,#274,.F.);
#349=ORIENTED_EDGE('',*,*,#275,.T.);
#350=ORIENTED_EDGE('',*,*,#276,.T.);
#351=ORIENTED_EDGE('',*,*,#275,.F.);
#352=ORIENTED_EDGE('',*,*,#276,.F.);
#353=ORIENTED_EDGE('',*,*,#277,.F.);
#354=ORIENTED_EDGE('',*,*,#278,.T.);
#355=ORIENTED_EDGE('',*,*,#279,.T.);
#356=ORIENTED_EDGE('',*,*,#278,.F.);
#357=ORIENTED_EDGE('',*,*,#279,.F.);
#358=ORIENTED_EDGE('',*,*,#280,.F.);
#359=ORIENTED_EDGE('',*,*,#281,.T.);
#360=ORIENTED_EDGE('',*,*,#282,.T.);
#361=ORIENTED_EDGE('',*,*,#281,.F.);
#362=ORIENTED_EDGE('',*,*,#282,.F.);
#363=ORIENTED_EDGE('',*,*,#283,.F.);
#364=ORIENTED_EDGE('',*,*,#284,.T.);
#365=ORIENTED_EDGE('',*,*,#285,.T.);
#366=ORIENTED_EDGE('',*,*,#284,.F.);
#367=ORIENTED_EDGE('',*,*,#285,.F.);
#368=ORIENTED_EDGE('',*,*,#286,.F.);
#369=ORIENTED_EDGE('',*,*,#287,.T.);
#370=ORIENTED_EDGE('',*,*,#288,.F.);
#371=ORIENTED_EDGE('',*,*,#289,.T.);
#372=ORIENTED_EDGE('',*,*,#286,.T.);
#373=ORIENTED_EDGE('',*,*,#289,.F.);
#374=ORIENTED_EDGE('',*,*,#288,.T.);
#375=ORIENTED_EDGE('',*,*,#290,.T.);
#376=ORIENTED_EDGE('',*,*,#291,.T.);
#377=ORIENTED_EDGE('',*,*,#292,.T.);
#378=ORIENTED_EDGE('',*,*,#293,.T.);
#379=ORIENTED_EDGE('',*,*,#294,.T.);
#380=ORIENTED_EDGE('',*,*,#295,.T.);
#381=ORIENTED_EDGE('',*,*,#296,.T.);
#382=ORIENTED_EDGE('',*,*,#297,.T.);
#383=ORIENTED_EDGE('',*,*,#298,.T.);
#384=ORIENTED_EDGE('',*,*,#299,.T.);
#385=ORIENTED_EDGE('',*,*,#300,.T.);
#386=ORIENTED_EDGE('',*,*,#301,.T.);
#387=ORIENTED_EDGE('',*,*,#302,.T.);
#388=ORIENTED_EDGE('',*,*,#303,.T.);
#389=ORIENTED_EDGE('',*,*,#304,.T.);
#390=ORIENTED_EDGE('',*,*,#305,.T.);
#391=ORIENTED_EDGE('',*,*,#306,.T.);
#392=ORIENTED_EDGE('',*,*,#283,.T.);
#393=ORIENTED_EDGE('',*,*,#280,.T.);
#394=ORIENTED_EDGE('',*,*,#277,.T.);
#395=ORIENTED_EDGE('',*,*,#274,.T.);
#396=ORIENTED_EDGE('',*,*,#271,.T.);
#397=ORIENTED_EDGE('',*,*,#307,.F.);
#398=ORIENTED_EDGE('',*,*,#308,.T.);
#399=ORIENTED_EDGE('',*,*,#296,.F.);
#400=ORIENTED_EDGE('',*,*,#309,.F.);
#401=ORIENTED_EDGE('',*,*,#310,.T.);
#402=ORIENTED_EDGE('',*,*,#309,.T.);
#403=ORIENTED_EDGE('',*,*,#295,.F.);
#404=ORIENTED_EDGE('',*,*,#311,.F.);
#405=ORIENTED_EDGE('',*,*,#312,.T.);
#406=ORIENTED_EDGE('',*,*,#311,.T.);
#407=ORIENTED_EDGE('',*,*,#294,.F.);
#408=ORIENTED_EDGE('',*,*,#313,.F.);
#409=ORIENTED_EDGE('',*,*,#314,.T.);
#410=ORIENTED_EDGE('',*,*,#313,.T.);
#411=ORIENTED_EDGE('',*,*,#297,.F.);
#412=ORIENTED_EDGE('',*,*,#308,.F.);
#413=ORIENTED_EDGE('',*,*,#315,.F.);
#414=ORIENTED_EDGE('',*,*,#316,.T.);
#415=ORIENTED_EDGE('',*,*,#305,.F.);
#416=ORIENTED_EDGE('',*,*,#317,.F.);
#417=ORIENTED_EDGE('',*,*,#318,.T.);
#418=ORIENTED_EDGE('',*,*,#317,.T.);
#419=ORIENTED_EDGE('',*,*,#304,.F.);
#420=ORIENTED_EDGE('',*,*,#319,.F.);
#421=ORIENTED_EDGE('',*,*,#320,.T.);
#422=ORIENTED_EDGE('',*,*,#319,.T.);
#423=ORIENTED_EDGE('',*,*,#303,.F.);
#424=ORIENTED_EDGE('',*,*,#321,.F.);
#425=ORIENTED_EDGE('',*,*,#322,.T.);
#426=ORIENTED_EDGE('',*,*,#321,.T.);
#427=ORIENTED_EDGE('',*,*,#306,.F.);
#428=ORIENTED_EDGE('',*,*,#316,.F.);
#429=ORIENTED_EDGE('',*,*,#323,.F.);
#430=ORIENTED_EDGE('',*,*,#324,.T.);
#431=ORIENTED_EDGE('',*,*,#300,.F.);
#432=ORIENTED_EDGE('',*,*,#325,.F.);
#433=ORIENTED_EDGE('',*,*,#326,.T.);
#434=ORIENTED_EDGE('',*,*,#325,.T.);
#435=ORIENTED_EDGE('',*,*,#299,.F.);
#436=ORIENTED_EDGE('',*,*,#327,.F.);
#437=ORIENTED_EDGE('',*,*,#328,.T.);
#438=ORIENTED_EDGE('',*,*,#327,.T.);
#439=ORIENTED_EDGE('',*,*,#298,.F.);
#440=ORIENTED_EDGE('',*,*,#329,.F.);
#441=ORIENTED_EDGE('',*,*,#330,.T.);
#442=ORIENTED_EDGE('',*,*,#329,.T.);
#443=ORIENTED_EDGE('',*,*,#301,.F.);
#444=ORIENTED_EDGE('',*,*,#324,.F.);
#445=ORIENTED_EDGE('',*,*,#331,.F.);
#446=ORIENTED_EDGE('',*,*,#332,.T.);
#447=ORIENTED_EDGE('',*,*,#292,.F.);
#448=ORIENTED_EDGE('',*,*,#333,.F.);
#449=ORIENTED_EDGE('',*,*,#334,.T.);
#450=ORIENTED_EDGE('',*,*,#333,.T.);
#451=ORIENTED_EDGE('',*,*,#291,.F.);
#452=ORIENTED_EDGE('',*,*,#335,.F.);
#453=ORIENTED_EDGE('',*,*,#336,.T.);
#454=ORIENTED_EDGE('',*,*,#335,.T.);
#455=ORIENTED_EDGE('',*,*,#290,.F.);
#456=ORIENTED_EDGE('',*,*,#337,.F.);
#457=ORIENTED_EDGE('',*,*,#338,.T.);
#458=ORIENTED_EDGE('',*,*,#337,.T.);
#459=ORIENTED_EDGE('',*,*,#293,.F.);
#460=ORIENTED_EDGE('',*,*,#332,.F.);
#461=ORIENTED_EDGE('',*,*,#302,.F.);
#462=ORIENTED_EDGE('',*,*,#339,.T.);
#463=ORIENTED_EDGE('',*,*,#340,.T.);
#464=ORIENTED_EDGE('',*,*,#339,.F.);
#465=ORIENTED_EDGE('',*,*,#287,.F.);
#466=ORIENTED_EDGE('',*,*,#341,.T.);
#467=ORIENTED_EDGE('',*,*,#342,.T.);
#468=ORIENTED_EDGE('',*,*,#341,.F.);
#469=ORIENTED_EDGE('',*,*,#342,.F.);
#470=ORIENTED_EDGE('',*,*,#340,.F.);
#471=ORIENTED_EDGE('',*,*,#338,.F.);
#472=ORIENTED_EDGE('',*,*,#331,.T.);
#473=ORIENTED_EDGE('',*,*,#334,.F.);
#474=ORIENTED_EDGE('',*,*,#336,.F.);
#475=ORIENTED_EDGE('',*,*,#330,.F.);
#476=ORIENTED_EDGE('',*,*,#323,.T.);
#477=ORIENTED_EDGE('',*,*,#326,.F.);
#478=ORIENTED_EDGE('',*,*,#328,.F.);
#479=ORIENTED_EDGE('',*,*,#322,.F.);
#480=ORIENTED_EDGE('',*,*,#315,.T.);
#481=ORIENTED_EDGE('',*,*,#318,.F.);
#482=ORIENTED_EDGE('',*,*,#320,.F.);
#483=ORIENTED_EDGE('',*,*,#314,.F.);
#484=ORIENTED_EDGE('',*,*,#307,.T.);
#485=ORIENTED_EDGE('',*,*,#310,.F.);
#486=ORIENTED_EDGE('',*,*,#312,.F.);
#487=CYLINDRICAL_SURFACE('',#549,2.);
#488=CYLINDRICAL_SURFACE('',#553,1.99999999999999);
#489=CYLINDRICAL_SURFACE('',#557,2.);
#490=CYLINDRICAL_SURFACE('',#561,2.00000000000001);
#491=CYLINDRICAL_SURFACE('',#565,2.);
#492=CYLINDRICAL_SURFACE('',#572,17.5);
#493=CYLINDRICAL_SURFACE('',#584,1.2645);
#494=CYLINDRICAL_SURFACE('',#586,1.543);
#495=CYLINDRICAL_SURFACE('',#588,1.2645);
#496=CYLINDRICAL_SURFACE('',#590,1.543);
#497=CYLINDRICAL_SURFACE('',#592,1.2645);
#498=CYLINDRICAL_SURFACE('',#594,1.543);
#499=CYLINDRICAL_SURFACE('',#596,1.2645);
#500=CYLINDRICAL_SURFACE('',#598,1.543);
#501=CYLINDRICAL_SURFACE('',#600,1.55);
#502=CYLINDRICAL_SURFACE('',#602,10.);
#503=ADVANCED_FACE('',(#63),#487,.F.);
#504=ADVANCED_FACE('',(#64),#55,.T.);
#505=ADVANCED_FACE('',(#65),#488,.F.);
#506=ADVANCED_FACE('',(#66),#56,.T.);
#507=ADVANCED_FACE('',(#67),#489,.F.);
#508=ADVANCED_FACE('',(#68),#57,.T.);
#509=ADVANCED_FACE('',(#69),#490,.F.);
#510=ADVANCED_FACE('',(#70),#58,.T.);
#511=ADVANCED_FACE('',(#71),#491,.F.);
#512=ADVANCED_FACE('',(#72),#59,.T.);
#513=ADVANCED_FACE('',(#73,#39),#60,.F.);
#514=ADVANCED_FACE('',(#74),#492,.T.);
#515=ADVANCED_FACE('',(#75,#40,#41,#42,#43,#44,#45,#46,#47,#48,#49),#61,
 .T.);
#516=ADVANCED_FACE('',(#76),#493,.F.);
#517=ADVANCED_FACE('',(#77),#15,.T.);
#518=ADVANCED_FACE('',(#78),#494,.F.);
#519=ADVANCED_FACE('',(#79),#16,.T.);
#520=ADVANCED_FACE('',(#80),#495,.F.);
#521=ADVANCED_FACE('',(#81),#17,.T.);
#522=ADVANCED_FACE('',(#82),#496,.F.);
#523=ADVANCED_FACE('',(#83),#18,.T.);
#524=ADVANCED_FACE('',(#84),#497,.F.);
#525=ADVANCED_FACE('',(#85),#19,.T.);
#526=ADVANCED_FACE('',(#86),#498,.F.);
#527=ADVANCED_FACE('',(#87),#20,.T.);
#528=ADVANCED_FACE('',(#88),#499,.F.);
#529=ADVANCED_FACE('',(#89),#21,.T.);
#530=ADVANCED_FACE('',(#90),#500,.F.);
#531=ADVANCED_FACE('',(#91),#22,.T.);
#532=ADVANCED_FACE('',(#92),#501,.F.);
#533=ADVANCED_FACE('',(#93),#502,.T.);
#534=ADVANCED_FACE('',(#94,#50,#51,#52,#53,#54),#62,.F.);
#535=CLOSED_SHELL('',(#503,#504,#505,#506,#507,#508,#509,#510,#511,#512,
#513,#514,#515,#516,#517,#518,#519,#520,#521,#522,#523,#524,#525,#526,#527,
#528,#529,#530,#531,#532,#533,#534));
#536=DERIVED_UNIT_ELEMENT(#538,1.);
#537=DERIVED_UNIT_ELEMENT(#1325,-3.);
#538=(
MASS_UNIT()
NAMED_UNIT(*)
SI_UNIT(.KILO.,.GRAM.)
);
#539=DERIVED_UNIT((#536,#537));
#540=MEASURE_REPRESENTATION_ITEM('density measure',
POSITIVE_RATIO_MEASURE(7850.),#539);
#541=PROPERTY_DEFINITION_REPRESENTATION(#546,#543);
#542=PROPERTY_DEFINITION_REPRESENTATION(#547,#544);
#543=REPRESENTATION('material name',(#545),#1322);
#544=REPRESENTATION('density',(#540),#1322);
#545=DESCRIPTIVE_REPRESENTATION_ITEM('Steel','Steel');
#546=PROPERTY_DEFINITION('material property','material name',#1332);
#547=PROPERTY_DEFINITION('material property','density of part',#1332);
#548=AXIS2_PLACEMENT_3D('',#743,#605,#606);
#549=AXIS2_PLACEMENT_3D('',#744,#607,#608);
#550=AXIS2_PLACEMENT_3D('',#746,#609,#610);
#551=AXIS2_PLACEMENT_3D('',#749,#612,#613);
#552=AXIS2_PLACEMENT_3D('',#750,#614,#615);
#553=AXIS2_PLACEMENT_3D('',#751,#616,#617);
#554=AXIS2_PLACEMENT_3D('',#753,#618,#619);
#555=AXIS2_PLACEMENT_3D('',#756,#621,#622);
#556=AXIS2_PLACEMENT_3D('',#757,#623,#624);
#557=AXIS2_PLACEMENT_3D('',#758,#625,#626);
#558=AXIS2_PLACEMENT_3D('',#760,#627,#628);
#559=AXIS2_PLACEMENT_3D('',#763,#630,#631);
#560=AXIS2_PLACEMENT_3D('',#764,#632,#633);
#561=AXIS2_PLACEMENT_3D('',#765,#634,#635);
#562=AXIS2_PLACEMENT_3D('',#767,#636,#637);
#563=AXIS2_PLACEMENT_3D('',#770,#639,#640);
#564=AXIS2_PLACEMENT_3D('',#771,#641,#642);
#565=AXIS2_PLACEMENT_3D('',#772,#643,#644);
#566=AXIS2_PLACEMENT_3D('',#774,#645,#646);
#567=AXIS2_PLACEMENT_3D('',#777,#648,#649);
#568=AXIS2_PLACEMENT_3D('',#778,#650,#651);
#569=AXIS2_PLACEMENT_3D('',#779,#652,#653);
#570=AXIS2_PLACEMENT_3D('',#781,#654,#655);
#571=AXIS2_PLACEMENT_3D('',#783,#656,#657);
#572=AXIS2_PLACEMENT_3D('',#784,#658,#659);
#573=AXIS2_PLACEMENT_3D('',#786,#660,#661);
#574=AXIS2_PLACEMENT_3D('',#788,#663,#664);
#575=AXIS2_PLACEMENT_3D('',#791,#665,#666);
#576=AXIS2_PLACEMENT_3D('',#808,#667,#668);
#577=AXIS2_PLACEMENT_3D('',#825,#669,#670);
#578=AXIS2_PLACEMENT_3D('',#842,#671,#672);
#579=AXIS2_PLACEMENT_3D('',#859,#673,#674);
#580=AXIS2_PLACEMENT_3D('',#876,#675,#676);
#581=AXIS2_PLACEMENT_3D('',#892,#677,#678);
#582=AXIS2_PLACEMENT_3D('',#895,#679,#680);
#583=AXIS2_PLACEMENT_3D('',#912,#681,#682);
#584=AXIS2_PLACEMENT_3D('',#927,#683,#684);
#585=AXIS2_PLACEMENT_3D('',#930,#685,#686);
#586=AXIS2_PLACEMENT_3D('',#977,#690,#691);
#587=AXIS2_PLACEMENT_3D('',#979,#692,#693);
#588=AXIS2_PLACEMENT_3D('',#1023,#695,#696);
#589=AXIS2_PLACEMENT_3D('',#1026,#697,#698);
#590=AXIS2_PLACEMENT_3D('',#1073,#702,#703);
#591=AXIS2_PLACEMENT_3D('',#1075,#704,#705);
#592=AXIS2_PLACEMENT_3D('',#1119,#707,#708);
#593=AXIS2_PLACEMENT_3D('',#1122,#709,#710);
#594=AXIS2_PLACEMENT_3D('',#1169,#714,#715);
#595=AXIS2_PLACEMENT_3D('',#1171,#716,#717);
#596=AXIS2_PLACEMENT_3D('',#1215,#719,#720);
#597=AXIS2_PLACEMENT_3D('',#1218,#721,#722);
#598=AXIS2_PLACEMENT_3D('',#1265,#726,#727);
#599=AXIS2_PLACEMENT_3D('',#1267,#728,#729);
#600=AXIS2_PLACEMENT_3D('',#1311,#731,#732);
#601=AXIS2_PLACEMENT_3D('',#1314,#734,#735);
#602=AXIS2_PLACEMENT_3D('',#1315,#736,#737);
#603=AXIS2_PLACEMENT_3D('',#1318,#739,#740);
#604=AXIS2_PLACEMENT_3D('',#1319,#741,#742);
#605=DIRECTION('axis',(0.,0.,1.));
#606=DIRECTION('refdir',(1.,0.,0.));
#607=DIRECTION('center_axis',(-0.996194698091745,0.,0.0871557427476593));
#608=DIRECTION('ref_axis',(0.,1.,0.));
#609=DIRECTION('center_axis',(-0.996194698091746,0.,0.0871557427476582));
#610=DIRECTION('ref_axis',(0.,1.,0.));
#611=DIRECTION('',(-0.996194698091745,0.,0.0871557427476593));
#612=DIRECTION('center_axis',(-0.996194698091746,0.,0.0871557427476582));
#613=DIRECTION('ref_axis',(0.,1.,0.));
#614=DIRECTION('center_axis',(0.996194698091746,0.,-0.0871557427476582));
#615=DIRECTION('ref_axis',(0.,1.,0.));
#616=DIRECTION('center_axis',(-0.996194698091745,0.,0.0871557427476593));
#617=DIRECTION('ref_axis',(0.,1.,0.));
#618=DIRECTION('center_axis',(-0.996194698091746,0.,0.0871557427476582));
#619=DIRECTION('ref_axis',(0.,1.,0.));
#620=DIRECTION('',(-0.996194698091746,0.,0.0871557427476593));
#621=DIRECTION('center_axis',(-0.996194698091746,0.,0.0871557427476582));
#622=DIRECTION('ref_axis',(0.,1.,0.));
#623=DIRECTION('center_axis',(0.996194698091746,0.,-0.0871557427476582));
#624=DIRECTION('ref_axis',(0.,1.,0.));
#625=DIRECTION('center_axis',(-0.996194698091745,0.,0.0871557427476593));
#626=DIRECTION('ref_axis',(0.,1.,0.));
#627=DIRECTION('center_axis',(-0.996194698091746,0.,0.0871557427476582));
#628=DIRECTION('ref_axis',(0.,1.,0.));
#629=DIRECTION('',(-0.996194698091745,0.,0.0871557427476593));
#630=DIRECTION('center_axis',(-0.996194698091746,0.,0.0871557427476582));
#631=DIRECTION('ref_axis',(0.,1.,0.));
#632=DIRECTION('center_axis',(0.996194698091746,0.,-0.0871557427476582));
#633=DIRECTION('ref_axis',(0.,1.,0.));
#634=DIRECTION('center_axis',(-0.996194698091745,0.,0.0871557427476593));
#635=DIRECTION('ref_axis',(0.,1.,0.));
#636=DIRECTION('center_axis',(-0.996194698091746,0.,0.0871557427476582));
#637=DIRECTION('ref_axis',(0.,1.,0.));
#638=DIRECTION('',(-0.996194698091745,0.,0.0871557427476593));
#639=DIRECTION('center_axis',(-0.996194698091746,0.,0.0871557427476582));
#640=DIRECTION('ref_axis',(0.,1.,0.));
#641=DIRECTION('center_axis',(0.996194698091746,0.,-0.0871557427476582));
#642=DIRECTION('ref_axis',(0.,1.,0.));
#643=DIRECTION('center_axis',(-0.996194698091745,0.,0.0871557427476593));
#644=DIRECTION('ref_axis',(0.,1.,0.));
#645=DIRECTION('center_axis',(-0.996194698091746,0.,0.0871557427476582));
#646=DIRECTION('ref_axis',(0.,1.,0.));
#647=DIRECTION('',(-0.996194698091745,0.,0.0871557427476593));
#648=DIRECTION('center_axis',(-0.996194698091746,0.,0.0871557427476582));
#649=DIRECTION('ref_axis',(0.,1.,0.));
#650=DIRECTION('center_axis',(0.996194698091746,0.,-0.0871557427476582));
#651=DIRECTION('ref_axis',(0.,1.,0.));
#652=DIRECTION('center_axis',(0.996194698091746,0.,-0.0871557427476582));
#653=DIRECTION('ref_axis',(0.,1.,0.));
#654=DIRECTION('center_axis',(0.996194698091746,0.,-0.0871557427476582));
#655=DIRECTION('ref_axis',(0.,1.,0.));
#656=DIRECTION('center_axis',(0.996194698091746,3.2040855020364E-16,-0.0871557427476582));
#657=DIRECTION('ref_axis',(-0.0871557427476582,-1.88988891263181E-19,-0.996194698091746));
#658=DIRECTION('center_axis',(0.996194698091745,0.,-0.087155742747662));
#659=DIRECTION('ref_axis',(0.,1.,0.));
#660=DIRECTION('center_axis',(0.996194698091746,0.,-0.0871557427476582));
#661=DIRECTION('ref_axis',(0.,1.,0.));
#662=DIRECTION('',(-0.996194698091745,0.,0.087155742747662));
#663=DIRECTION('center_axis',(0.996194698091746,0.,-0.0871557427476582));
#664=DIRECTION('ref_axis',(0.,1.,0.));
#665=DIRECTION('center_axis',(-0.996194698091746,0.,0.0871557427476582));
#666=DIRECTION('ref_axis',(-0.0225098962296152,0.966072215306868,-0.257289291234232));
#667=DIRECTION('center_axis',(-0.996194698091746,7.7933439721294E-19,0.0871557427476582));
#668=DIRECTION('ref_axis',(0.0660382166303298,-0.652598892001931,0.754820270065754));
#669=DIRECTION('center_axis',(-0.996194698091746,0.,0.0871557427476582));
#670=DIRECTION('ref_axis',(-0.0225098962296187,0.966072215306857,-0.257289291234273));
#671=DIRECTION('center_axis',(-0.996194698091746,-1.03990873709002E-17,
0.0871557427476582));
#672=DIRECTION('ref_axis',(0.066038216630326,-0.652598892001983,0.75482027006571));
#673=DIRECTION('center_axis',(-0.996194698091746,0.,0.0871557427476582));
#674=DIRECTION('ref_axis',(-0.0225098962296156,0.966072215306866,-0.257289291234237));
#675=DIRECTION('center_axis',(-0.996194698091746,7.79334397220052E-19,0.0871557427476582));
#676=DIRECTION('ref_axis',(0.0660382166303334,-0.652598892001883,0.754820270065795));
#677=DIRECTION('center_axis',(-0.996194698091746,-5.39260384428426E-33,
0.0871557427476582));
#678=DIRECTION('ref_axis',(0.,1.,0.));
#679=DIRECTION('center_axis',(-0.996194698091746,0.,0.0871557427476582));
#680=DIRECTION('ref_axis',(-0.0225098962296161,0.966072215306865,-0.257289291234243));
#681=DIRECTION('center_axis',(-0.996194698091746,-1.03990873709097E-17,
0.0871557427476582));
#682=DIRECTION('ref_axis',(0.0660382166303267,-0.652598892001972,0.754820270065718));
#683=DIRECTION('center_axis',(0.996194698091746,3.33066907387546E-16,-0.0871557427476578));
#684=DIRECTION('ref_axis',(0.0871557427476578,1.88988891263079E-19,0.996194698091745));
#685=DIRECTION('center_axis',(-0.996194698091746,-3.2040855020364E-16,0.0871557427476582));
#686=DIRECTION('ref_axis',(0.0871557427476582,1.88988891263179E-19,0.996194698091745));
#687=DIRECTION('',(0.996194698091746,3.33066907387546E-16,-0.0871557427476578));
#688=DIRECTION('',(0.996194698091746,3.33066907387546E-16,-0.0871557427476578));
#689=DIRECTION('',(0.996194698091746,3.33066907387546E-16,-0.0871557427476578));
#690=DIRECTION('center_axis',(0.996194698091746,3.33066907387546E-16,-0.0871557427476578));
#691=DIRECTION('ref_axis',(0.0871557427476578,7.19541273889229E-15,0.996194698091746));
#692=DIRECTION('center_axis',(-0.996194698091746,-3.2040855020364E-16,0.0871557427476582));
#693=DIRECTION('ref_axis',(0.0871557427476582,7.19541273889229E-15,0.996194698091746));
#694=DIRECTION('',(0.996194698091746,3.33066907387546E-16,-0.0871557427476578));
#695=DIRECTION('center_axis',(0.996194698091746,3.33066907387546E-16,-0.0871557427476578));
#696=DIRECTION('ref_axis',(0.0871557427476578,1.88988891263079E-19,0.996194698091745));
#697=DIRECTION('center_axis',(-0.996194698091746,-3.2040855020364E-16,0.0871557427476582));
#698=DIRECTION('ref_axis',(0.0871557427476582,1.88988891263179E-19,0.996194698091745));
#699=DIRECTION('',(0.996194698091746,3.33066907387546E-16,-0.0871557427476578));
#700=DIRECTION('',(0.996194698091746,3.33066907387546E-16,-0.0871557427476578));
#701=DIRECTION('',(0.996194698091746,3.33066907387546E-16,-0.0871557427476578));
#702=DIRECTION('center_axis',(0.996194698091746,3.33066907387546E-16,-0.0871557427476578));
#703=DIRECTION('ref_axis',(0.0871557427476578,7.91493511389238E-15,0.996194698091745));
#704=DIRECTION('center_axis',(-0.996194698091746,-3.2040855020364E-16,0.0871557427476582));
#705=DIRECTION('ref_axis',(0.0871557427476582,7.91493511389238E-15,0.996194698091745));
#706=DIRECTION('',(0.996194698091746,3.33066907387546E-16,-0.0871557427476578));
#707=DIRECTION('center_axis',(0.996194698091746,3.33066907387546E-16,-0.0871557427476578));
#708=DIRECTION('ref_axis',(0.0871557427476578,1.88988891263079E-19,0.996194698091745));
#709=DIRECTION('center_axis',(-0.996194698091746,-3.2040855020364E-16,0.0871557427476582));
#710=DIRECTION('ref_axis',(0.0871557427476582,1.88988891263179E-19,0.996194698091745));
#711=DIRECTION('',(0.996194698091746,3.33066907387546E-16,-0.0871557427476578));
#712=DIRECTION('',(0.996194698091746,3.33066907387546E-16,-0.0871557427476578));
#713=DIRECTION('',(0.996194698091746,3.33066907387546E-16,-0.0871557427476578));
#714=DIRECTION('center_axis',(0.996194698091746,3.33066907387546E-16,-0.0871557427476578));
#715=DIRECTION('ref_axis',(0.0871557427476578,7.19541273889227E-15,0.996194698091745));
#716=DIRECTION('center_axis',(-0.996194698091746,-3.2040855020364E-16,0.0871557427476582));
#717=DIRECTION('ref_axis',(0.0871557427476581,7.19541273889227E-15,0.996194698091745));
#718=DIRECTION('',(0.996194698091746,3.33066907387546E-16,-0.0871557427476578));
#719=DIRECTION('center_axis',(0.996194698091746,3.33066907387546E-16,-0.0871557427476578));
#720=DIRECTION('ref_axis',(0.0871557427476578,1.88988891263079E-19,0.996194698091745));
#721=DIRECTION('center_axis',(-0.996194698091746,-3.2040855020364E-16,0.0871557427476582));
#722=DIRECTION('ref_axis',(0.0871557427476582,1.88988891263179E-19,0.996194698091745));
#723=DIRECTION('',(0.996194698091746,3.33066907387546E-16,-0.0871557427476578));
#724=DIRECTION('',(0.996194698091746,3.33066907387546E-16,-0.0871557427476578));
#725=DIRECTION('',(0.996194698091746,3.33066907387546E-16,-0.0871557427476578));
#726=DIRECTION('center_axis',(0.996194698091746,3.33066907387546E-16,-0.0871557427476578));
#727=DIRECTION('ref_axis',(0.0871557427476578,7.91493511389237E-15,0.996194698091745));
#728=DIRECTION('center_axis',(-0.996194698091746,-3.2040855020364E-16,0.0871557427476582));
#729=DIRECTION('ref_axis',(0.0871557427476581,7.91493511389237E-15,0.996194698091745));
#730=DIRECTION('',(0.996194698091746,3.33066907387546E-16,-0.0871557427476578));
#731=DIRECTION('center_axis',(0.996194698091746,3.33066907387546E-16,-0.0871557427476578));
#732=DIRECTION('ref_axis',(0.0871557427476578,1.88988891263078E-19,0.996194698091746));
#733=DIRECTION('',(-0.996194698091746,-3.33066907387546E-16,0.0871557427476578));
#734=DIRECTION('center_axis',(-0.996194698091746,-3.2040855020364E-16,0.0871557427476582));
#735=DIRECTION('ref_axis',(0.0871557427476582,1.88988891263179E-19,0.996194698091746));
#736=DIRECTION('center_axis',(0.996194698091746,3.33066907387546E-16,-0.0871557427476578));
#737=DIRECTION('ref_axis',(-0.0871557427476578,-1.88988891263073E-19,-0.996194698091746));
#738=DIRECTION('',(-0.996194698091746,-3.33066907387546E-16,0.0871557427476578));
#739=DIRECTION('center_axis',(0.996194698091746,3.2040855020364E-16,-0.0871557427476582));
#740=DIRECTION('ref_axis',(-0.0871557427476582,-1.88988891263179E-19,-0.996194698091746));
#741=DIRECTION('center_axis',(0.996194698091746,3.2040855020364E-16,-0.0871557427476582));
#742=DIRECTION('ref_axis',(-0.0871557427476582,-1.88988891263179E-19,-0.996194698091746));
#743=CARTESIAN_POINT('',(0.,0.,0.));
#744=CARTESIAN_POINT('Origin',(388.731213825294,11.1246513881114,185.93303876721));
#745=CARTESIAN_POINT('',(388.731213825294,9.12465138811139,185.93303876721));
#746=CARTESIAN_POINT('Origin',(388.731213825294,11.1246513881114,185.93303876721));
#747=CARTESIAN_POINT('',(384.746435032927,9.12465138811139,186.281661738201));
#748=CARTESIAN_POINT('',(388.731213825294,9.12465138811139,185.93303876721));
#749=CARTESIAN_POINT('Origin',(384.746435032927,11.1246513881114,186.281661738201));
#750=CARTESIAN_POINT('Origin',(384.746435032927,11.1246513881114,186.281661738201));
#751=CARTESIAN_POINT('Origin',(388.731213825294,-17.1246513881117,185.93303876721));
#752=CARTESIAN_POINT('',(388.731213825294,-19.1246513881117,185.93303876721));
#753=CARTESIAN_POINT('Origin',(388.731213825294,-17.1246513881117,185.93303876721));
#754=CARTESIAN_POINT('',(384.746435032927,-19.1246513881117,186.281661738201));
#755=CARTESIAN_POINT('',(388.731213825294,-19.1246513881117,185.93303876721));
#756=CARTESIAN_POINT('Origin',(384.746435032927,-17.1246513881117,186.281661738201));
#757=CARTESIAN_POINT('Origin',(384.746435032927,-17.1246513881117,186.281661738201));
#758=CARTESIAN_POINT('Origin',(387.284034241502,5.72951463709613,169.391700432988));
#759=CARTESIAN_POINT('',(387.284034241502,3.72951463709612,169.391700432988));
#760=CARTESIAN_POINT('Origin',(387.284034241502,5.72951463709613,169.391700432988));
#761=CARTESIAN_POINT('',(383.299255449135,3.72951463709612,169.740323403978));
#762=CARTESIAN_POINT('',(387.284034241502,3.72951463709612,169.391700432988));
#763=CARTESIAN_POINT('Origin',(383.299255449135,5.72951463709613,169.740323403978));
#764=CARTESIAN_POINT('Origin',(383.299255449135,5.72951463709613,169.740323403978));
#765=CARTESIAN_POINT('Origin',(389.625619995902,-3.00000000000017,196.156148077171));
#766=CARTESIAN_POINT('',(389.625619995902,-5.00000000000018,196.156148077171));
#767=CARTESIAN_POINT('Origin',(389.625619995902,-3.00000000000017,196.156148077171));
#768=CARTESIAN_POINT('',(385.640841203535,-5.00000000000018,196.504771048162));
#769=CARTESIAN_POINT('',(389.625619995902,-5.00000000000018,196.156148077171));
#770=CARTESIAN_POINT('Origin',(385.640841203535,-3.00000000000017,196.504771048162));
#771=CARTESIAN_POINT('Origin',(385.640841203535,-3.00000000000017,196.504771048162));
#772=CARTESIAN_POINT('Origin',(387.284034241502,-11.7295146370965,169.391700432988));
#773=CARTESIAN_POINT('',(387.284034241502,-13.7295146370965,169.391700432988));
#774=CARTESIAN_POINT('Origin',(387.284034241502,-11.7295146370965,169.391700432988));
#775=CARTESIAN_POINT('',(383.299255449135,-13.7295146370965,169.740323403978));
#776=CARTESIAN_POINT('',(387.284034241502,-13.7295146370965,169.391700432988));
#777=CARTESIAN_POINT('Origin',(383.299255449135,-11.7295146370965,169.740323403978));
#778=CARTESIAN_POINT('Origin',(383.299255449135,-11.7295146370965,169.740323403978));
#779=CARTESIAN_POINT('Origin',(383.35024973544,-3.00000000000017,181.796904009252));
#780=CARTESIAN_POINT('',(383.35024973544,-20.5000000000002,181.796904009252));
#781=CARTESIAN_POINT('Origin',(383.35024973544,-3.00000000000017,181.796904009252));
#782=CARTESIAN_POINT('',(384.221807162917,-3.00000000000035,191.758850990169));
#783=CARTESIAN_POINT('Origin',(383.35024973544,-3.00000000000035,181.796904009252));
#784=CARTESIAN_POINT('Origin',(383.35024973544,-3.00000000000017,181.796904009252));
#785=CARTESIAN_POINT('',(388.331223225899,-20.5000000000002,181.361125295513));
#786=CARTESIAN_POINT('Origin',(388.331223225899,-3.00000000000017,181.361125295513));
#787=CARTESIAN_POINT('',(383.35024973544,-20.5000000000002,181.796904009252));
#788=CARTESIAN_POINT('Origin',(388.331223225899,-3.00000000000017,181.361125295513));
#789=CARTESIAN_POINT('',(388.797354912795,3.44039689652391,186.689034856707));
#790=CARTESIAN_POINT('',(388.72788937303,3.44039689652394,185.895040103958));
#791=CARTESIAN_POINT('Origin',(388.762622142912,1.94974746830534,186.292037480333));
#792=CARTESIAN_POINT('',(388.679116817983,1.12453616936881,185.337567248835));
#793=CARTESIAN_POINT('Ctrl Pts',(388.72788937303,3.440396896524,185.895040103958));
#794=CARTESIAN_POINT('Ctrl Pts',(388.711779282794,3.37285618745061,185.710900929956));
#795=CARTESIAN_POINT('Ctrl Pts',(388.696952019544,3.27045270708328,185.541424535503));
#796=CARTESIAN_POINT('Ctrl Pts',(388.672073713385,3.00989247214549,185.257064194897));
#797=CARTESIAN_POINT('Ctrl Pts',(388.66211013393,2.85620242367107,185.143179960608));
#798=CARTESIAN_POINT('Ctrl Pts',(388.648237683489,2.51933795421492,184.984617126503));
#799=CARTESIAN_POINT('Ctrl Pts',(388.644256894134,2.3405533513202,184.939116495969));
#800=CARTESIAN_POINT('Ctrl Pts',(388.642636646251,1.98236541175547,184.920596977916));
#801=CARTESIAN_POINT('Ctrl Pts',(388.64478483455,1.80657359829081,184.945150882538));
#802=CARTESIAN_POINT('Ctrl Pts',(388.652894756831,1.54159718582655,185.037847718381));
#803=CARTESIAN_POINT('Ctrl Pts',(388.656946474691,1.44697373769739,185.084159065439));
#804=CARTESIAN_POINT('Ctrl Pts',(388.666835456864,1.27325468343763,185.197190648898));
#805=CARTESIAN_POINT('Ctrl Pts',(388.672591799001,1.19445124739701,185.262985940591));
#806=CARTESIAN_POINT('Ctrl Pts',(388.679116817983,1.12453616936892,185.337567248835));
#807=CARTESIAN_POINT('',(388.846127467841,1.12453616936893,187.246507711831));
#808=CARTESIAN_POINT('Origin',(388.762622142912,1.94974746830534,186.292037480333));
#809=CARTESIAN_POINT('Ctrl Pts',(388.846127467841,1.12453616936895,187.246507711831));
#810=CARTESIAN_POINT('Ctrl Pts',(388.856767491706,1.23854320915245,187.368123741103));
#811=CARTESIAN_POINT('Ctrl Pts',(388.865323330837,1.37571418526055,187.465917429873));
#812=CARTESIAN_POINT('Ctrl Pts',(388.877728380999,1.68578062974715,187.607707802036));
#813=CARTESIAN_POINT('Ctrl Pts',(388.881250046332,1.8567669098493,187.64796062099));
#814=CARTESIAN_POINT('Ctrl Pts',(388.882521168989,2.21154855500003,187.662489619445));
#815=CARTESIAN_POINT('Ctrl Pts',(388.880030133922,2.39201459329055,187.634016958339));
#816=CARTESIAN_POINT('Ctrl Pts',(388.869057240308,2.73886603445593,187.50859621042));
#817=CARTESIAN_POINT('Ctrl Pts',(388.86046698093,2.90099514135505,187.410409096436));
#818=CARTESIAN_POINT('Ctrl Pts',(388.842420610906,3.12891286975572,187.204138143177));
#819=CARTESIAN_POINT('Ctrl Pts',(388.834475937807,3.20745847507141,187.113330114132));
#820=CARTESIAN_POINT('Ctrl Pts',(388.816941450113,3.34268183940244,186.91291000269));
#821=CARTESIAN_POINT('Ctrl Pts',(388.807385342205,3.39834484685914,186.803683189492));
#822=CARTESIAN_POINT('Ctrl Pts',(388.797354912795,3.44039689652412,186.689034856707));
#823=CARTESIAN_POINT('',(387.934557078768,3.44039689652391,176.827210487068));
#824=CARTESIAN_POINT('',(387.865091539003,3.44039689652393,176.03321573432));
#825=CARTESIAN_POINT('Origin',(387.899824308885,1.94974746830546,176.430213110694));
#826=CARTESIAN_POINT('',(387.816318983956,1.1245361693688,175.475742879196));
#827=CARTESIAN_POINT('Ctrl Pts',(387.865091539003,3.44039689652397,176.03321573432));
#828=CARTESIAN_POINT('Ctrl Pts',(387.848981448767,3.37285618745058,175.849076560317));
#829=CARTESIAN_POINT('Ctrl Pts',(387.834154185517,3.27045270708328,175.679600165865));
#830=CARTESIAN_POINT('Ctrl Pts',(387.809275879358,3.00989247214549,175.395239825259));
#831=CARTESIAN_POINT('Ctrl Pts',(387.799312299903,2.85620242367107,175.281355590969));
#832=CARTESIAN_POINT('Ctrl Pts',(387.785439849462,2.51933795421493,175.122792756864));
#833=CARTESIAN_POINT('Ctrl Pts',(387.781459060107,2.3405533513202,175.077292126331));
#834=CARTESIAN_POINT('Ctrl Pts',(387.779838812223,1.98236541175546,175.058772608277));
#835=CARTESIAN_POINT('Ctrl Pts',(387.781987000523,1.8065735982908,175.0833265129));
#836=CARTESIAN_POINT('Ctrl Pts',(387.790096922804,1.54159718582656,175.176023348742));
#837=CARTESIAN_POINT('Ctrl Pts',(387.794148640664,1.4469737376974,175.2223346958));
#838=CARTESIAN_POINT('Ctrl Pts',(387.804037622838,1.27325468343763,175.335366279259));
#839=CARTESIAN_POINT('Ctrl Pts',(387.809793964974,1.19445124739705,175.401161570953));
#840=CARTESIAN_POINT('Ctrl Pts',(387.816318983956,1.12453616936893,175.475742879196));
#841=CARTESIAN_POINT('',(387.983329633814,1.12453616936893,177.384683342192));
#842=CARTESIAN_POINT('Origin',(387.899824308885,1.94974746830546,176.430213110694));
#843=CARTESIAN_POINT('Ctrl Pts',(387.983329633814,1.12453616936894,177.384683342192));
#844=CARTESIAN_POINT('Ctrl Pts',(387.993969657679,1.23854320915243,177.506299371464));
#845=CARTESIAN_POINT('Ctrl Pts',(388.00252549681,1.37571418526055,177.604093060235));
#846=CARTESIAN_POINT('Ctrl Pts',(388.014930546972,1.68578062974715,177.745883432397));
#847=CARTESIAN_POINT('Ctrl Pts',(388.018452212305,1.8567669098493,177.786136251352));
#848=CARTESIAN_POINT('Ctrl Pts',(388.019723334962,2.21154855500003,177.800665249806));
#849=CARTESIAN_POINT('Ctrl Pts',(388.017232299895,2.39201459329055,177.772192588701));
#850=CARTESIAN_POINT('Ctrl Pts',(388.006259406281,2.73886603445592,177.646771840781));
#851=CARTESIAN_POINT('Ctrl Pts',(387.997669146903,2.90099514135505,177.548584726798));
#852=CARTESIAN_POINT('Ctrl Pts',(387.979622776879,3.12891286975571,177.342313773539));
#853=CARTESIAN_POINT('Ctrl Pts',(387.97167810378,3.2074584750714,177.251505744493));
#854=CARTESIAN_POINT('Ctrl Pts',(387.954143616086,3.34268183940244,177.051085633051));
#855=CARTESIAN_POINT('Ctrl Pts',(387.944587508178,3.39834484685919,176.941858819854));
#856=CARTESIAN_POINT('Ctrl Pts',(387.934557078768,3.44039689652416,176.827210487068));
#857=CARTESIAN_POINT('',(387.934557078768,-6.45909804008777,176.827210487068));
#858=CARTESIAN_POINT('',(387.865091539003,-6.45909804008772,176.03321573432));
#859=CARTESIAN_POINT('Origin',(387.899824308885,-7.94974746830642,176.430213110694));
#860=CARTESIAN_POINT('',(387.816318983956,-8.7749587672429,175.475742879196));
#861=CARTESIAN_POINT('Ctrl Pts',(387.865091539003,-6.45909804008769,176.03321573432));
#862=CARTESIAN_POINT('Ctrl Pts',(387.848981448767,-6.52663874916107,175.849076560317));
#863=CARTESIAN_POINT('Ctrl Pts',(387.834154185517,-6.62904222952838,175.679600165865));
#864=CARTESIAN_POINT('Ctrl Pts',(387.809275879358,-6.88960246446617,175.395239825259));
#865=CARTESIAN_POINT('Ctrl Pts',(387.799312299903,-7.04329251294059,175.281355590969));
#866=CARTESIAN_POINT('Ctrl Pts',(387.785439849462,-7.38015698239674,175.122792756864));
#867=CARTESIAN_POINT('Ctrl Pts',(387.781459060107,-7.55894158529146,175.077292126331));
#868=CARTESIAN_POINT('Ctrl Pts',(387.779838812223,-7.91712952485619,175.058772608277));
#869=CARTESIAN_POINT('Ctrl Pts',(387.781987000523,-8.09292133832085,175.0833265129));
#870=CARTESIAN_POINT('Ctrl Pts',(387.790096922804,-8.35789775078511,175.176023348742));
#871=CARTESIAN_POINT('Ctrl Pts',(387.794148640664,-8.45252119891427,175.2223346958));
#872=CARTESIAN_POINT('Ctrl Pts',(387.804037622837,-8.62624025317403,175.335366279259));
#873=CARTESIAN_POINT('Ctrl Pts',(387.809793964974,-8.70504368921462,175.401161570952));
#874=CARTESIAN_POINT('Ctrl Pts',(387.816318983956,-8.77495876724273,175.475742879196));
#875=CARTESIAN_POINT('',(387.983329633814,-8.77495876724276,177.384683342192));
#876=CARTESIAN_POINT('Origin',(387.899824308885,-7.94974746830642,176.430213110694));
#877=CARTESIAN_POINT('Ctrl Pts',(387.983329633814,-8.77495876724272,177.384683342192));
#878=CARTESIAN_POINT('Ctrl Pts',(387.993969657679,-8.66095172745923,177.506299371464));
#879=CARTESIAN_POINT('Ctrl Pts',(388.00252549681,-8.52378075135115,177.604093060235));
#880=CARTESIAN_POINT('Ctrl Pts',(388.014930546972,-8.21371430686455,177.745883432397));
#881=CARTESIAN_POINT('Ctrl Pts',(388.018452212305,-8.04272802676239,177.786136251352));
#882=CARTESIAN_POINT('Ctrl Pts',(388.019723334962,-7.68794638161166,177.800665249806));
#883=CARTESIAN_POINT('Ctrl Pts',(388.017232299895,-7.50748034332114,177.772192588701));
#884=CARTESIAN_POINT('Ctrl Pts',(388.006259406281,-7.16062890215577,177.646771840781));
#885=CARTESIAN_POINT('Ctrl Pts',(387.997669146903,-6.99849979525664,177.548584726798));
#886=CARTESIAN_POINT('Ctrl Pts',(387.979622776879,-6.77058206685597,177.342313773539));
#887=CARTESIAN_POINT('Ctrl Pts',(387.97167810378,-6.69203646154028,177.251505744493));
#888=CARTESIAN_POINT('Ctrl Pts',(387.954143616086,-6.55681309720923,177.051085633051));
#889=CARTESIAN_POINT('Ctrl Pts',(387.944587508178,-6.5011500897525,176.941858819854));
#890=CARTESIAN_POINT('Ctrl Pts',(387.934557078768,-6.45909804008752,176.827210487068));
#891=CARTESIAN_POINT('',(388.19613182464,-3.00000000000004,179.817023513471));
#892=CARTESIAN_POINT('Origin',(388.331223225899,-3.00000000000017,181.361125295513));
#893=CARTESIAN_POINT('',(388.797354912795,-6.45909804008777,186.689034856707));
#894=CARTESIAN_POINT('',(388.72788937303,-6.45909804008773,185.895040103958));
#895=CARTESIAN_POINT('Origin',(388.762622142912,-7.94974746830625,186.292037480333));
#896=CARTESIAN_POINT('',(388.679116817983,-8.77495876724285,185.337567248835));
#897=CARTESIAN_POINT('Ctrl Pts',(388.72788937303,-6.45909804008766,185.895040103958));
#898=CARTESIAN_POINT('Ctrl Pts',(388.711779282794,-6.52663874916105,185.710900929956));
#899=CARTESIAN_POINT('Ctrl Pts',(388.696952019544,-6.62904222952838,185.541424535503));
#900=CARTESIAN_POINT('Ctrl Pts',(388.672073713385,-6.88960246446617,185.257064194897));
#901=CARTESIAN_POINT('Ctrl Pts',(388.66211013393,-7.04329251294059,185.143179960608));
#902=CARTESIAN_POINT('Ctrl Pts',(388.648237683489,-7.38015698239674,184.984617126503));
#903=CARTESIAN_POINT('Ctrl Pts',(388.644256894134,-7.55894158529146,184.939116495969));
#904=CARTESIAN_POINT('Ctrl Pts',(388.64263664625,-7.91712952485619,184.920596977916));
#905=CARTESIAN_POINT('Ctrl Pts',(388.64478483455,-8.09292133832085,184.945150882538));
#906=CARTESIAN_POINT('Ctrl Pts',(388.652894756831,-8.35789775078511,185.037847718381));
#907=CARTESIAN_POINT('Ctrl Pts',(388.656946474691,-8.45252119891427,185.084159065439));
#908=CARTESIAN_POINT('Ctrl Pts',(388.666835456865,-8.62624025317404,185.197190648898));
#909=CARTESIAN_POINT('Ctrl Pts',(388.672591799001,-8.70504368921466,185.262985940591));
#910=CARTESIAN_POINT('Ctrl Pts',(388.679116817983,-8.77495876724275,185.337567248835));
#911=CARTESIAN_POINT('',(388.846127467841,-8.77495876724276,187.246507711831));
#912=CARTESIAN_POINT('Origin',(388.762622142912,-7.94974746830625,186.292037480333));
#913=CARTESIAN_POINT('Ctrl Pts',(388.846127467841,-8.7749587672427,187.246507711831));
#914=CARTESIAN_POINT('Ctrl Pts',(388.856767491706,-8.66095172745921,187.368123741103));
#915=CARTESIAN_POINT('Ctrl Pts',(388.865323330837,-8.52378075135114,187.465917429873));
#916=CARTESIAN_POINT('Ctrl Pts',(388.877728380999,-8.21371430686455,187.607707802036));
#917=CARTESIAN_POINT('Ctrl Pts',(388.881250046332,-8.0427280267624,187.64796062099));
#918=CARTESIAN_POINT('Ctrl Pts',(388.882521168989,-7.68794638161166,187.662489619445));
#919=CARTESIAN_POINT('Ctrl Pts',(388.880030133922,-7.50748034332114,187.634016958339));
#920=CARTESIAN_POINT('Ctrl Pts',(388.869057240308,-7.16062890215577,187.50859621042));
#921=CARTESIAN_POINT('Ctrl Pts',(388.860466980931,-6.99849979525665,187.410409096436));
#922=CARTESIAN_POINT('Ctrl Pts',(388.842420610906,-6.77058206685597,187.204138143178));
#923=CARTESIAN_POINT('Ctrl Pts',(388.834475937807,-6.69203646154028,187.113330114132));
#924=CARTESIAN_POINT('Ctrl Pts',(388.816941450113,-6.55681309720923,186.91291000269));
#925=CARTESIAN_POINT('Ctrl Pts',(388.807385342205,-6.50115008975253,186.803683189492));
#926=CARTESIAN_POINT('Ctrl Pts',(388.797354912795,-6.45909804008755,186.689034856707));
#927=CARTESIAN_POINT('Origin',(372.956903837509,1.94974746830548,177.737549251909));
#928=CARTESIAN_POINT('',(373.040409162438,1.12453616936905,178.692019483407));
#929=CARTESIAN_POINT('',(372.87339851258,1.12453616936892,176.783079020411));
#930=CARTESIAN_POINT('Origin',(372.956903837509,1.94974746830548,177.737549251909));
#931=CARTESIAN_POINT('',(373.040409162438,1.12453616936905,178.692019483407));
#932=CARTESIAN_POINT('',(372.87339851258,1.12453616936892,176.783079020411));
#933=CARTESIAN_POINT('Ctrl Pts',(372.922171067627,3.44039689652396,177.340551875534));
#934=CARTESIAN_POINT('Ctrl Pts',(388.034310935412,3.44039689652397,176.018410955485));
#935=CARTESIAN_POINT('Ctrl Pts',(372.906060977391,3.37285618745057,177.156412701532));
#936=CARTESIAN_POINT('Ctrl Pts',(388.018200845176,3.37285618745058,175.834271781483));
#937=CARTESIAN_POINT('Ctrl Pts',(372.891233714141,3.27045270708327,176.98693630708));
#938=CARTESIAN_POINT('Ctrl Pts',(388.003373581926,3.27045270708328,175.66479538703));
#939=CARTESIAN_POINT('Ctrl Pts',(372.866355407981,3.00989247214549,176.702575966474));
#940=CARTESIAN_POINT('Ctrl Pts',(387.978495275767,3.00989247214549,175.380435046424));
#941=CARTESIAN_POINT('Ctrl Pts',(372.856391828527,2.85620242367107,176.588691732184));
#942=CARTESIAN_POINT('Ctrl Pts',(387.968531696312,2.85620242367107,175.266550812134));
#943=CARTESIAN_POINT('Ctrl Pts',(372.842519378086,2.51933795421493,176.430128898079));
#944=CARTESIAN_POINT('Ctrl Pts',(387.954659245871,2.51933795421493,175.10798797803));
#945=CARTESIAN_POINT('Ctrl Pts',(372.838538588731,2.3405533513202,176.384628267546));
#946=CARTESIAN_POINT('Ctrl Pts',(387.950678456516,2.3405533513202,175.062487347496));
#947=CARTESIAN_POINT('Ctrl Pts',(372.836918340847,1.98236541175545,176.366108749492));
#948=CARTESIAN_POINT('Ctrl Pts',(387.949058208633,1.98236541175546,175.043967829443));
#949=CARTESIAN_POINT('Ctrl Pts',(372.839066529147,1.8065735982908,176.390662654115));
#950=CARTESIAN_POINT('Ctrl Pts',(387.951206396933,1.8065735982908,175.068521734065));
#951=CARTESIAN_POINT('Ctrl Pts',(372.847176451428,1.54159718582656,176.483359489957));
#952=CARTESIAN_POINT('Ctrl Pts',(387.959316319213,1.54159718582656,175.161218569908));
#953=CARTESIAN_POINT('Ctrl Pts',(372.851228169288,1.44697373769739,176.529670837015));
#954=CARTESIAN_POINT('Ctrl Pts',(387.963368037074,1.4469737376974,175.207529916966));
#955=CARTESIAN_POINT('Ctrl Pts',(372.861117151461,1.27325468343763,176.642702420474));
#956=CARTESIAN_POINT('Ctrl Pts',(387.973257019247,1.27325468343763,175.320561500425));
#957=CARTESIAN_POINT('Ctrl Pts',(372.866873493598,1.19445124739704,176.708497712167));
#958=CARTESIAN_POINT('Ctrl Pts',(387.979013361383,1.19445124739705,175.386356792118));
#959=CARTESIAN_POINT('Ctrl Pts',(372.87339851258,1.12453616936893,176.783079020411));
#960=CARTESIAN_POINT('Ctrl Pts',(387.985538380365,1.12453616936893,175.460938100362));
#961=CARTESIAN_POINT('',(372.922171067627,3.44039689652397,177.340551875534));
#962=CARTESIAN_POINT('Ctrl Pts',(372.922171067627,3.44039689652396,177.340551875534));
#963=CARTESIAN_POINT('Ctrl Pts',(372.906060977391,3.37285618745057,177.156412701532));
#964=CARTESIAN_POINT('Ctrl Pts',(372.891233714141,3.27045270708327,176.98693630708));
#965=CARTESIAN_POINT('Ctrl Pts',(372.866355407981,3.00989247214549,176.702575966474));
#966=CARTESIAN_POINT('Ctrl Pts',(372.856391828527,2.85620242367107,176.588691732184));
#967=CARTESIAN_POINT('Ctrl Pts',(372.842519378086,2.51933795421493,176.430128898079));
#968=CARTESIAN_POINT('Ctrl Pts',(372.838538588731,2.3405533513202,176.384628267546));
#969=CARTESIAN_POINT('Ctrl Pts',(372.836918340847,1.98236541175545,176.366108749492));
#970=CARTESIAN_POINT('Ctrl Pts',(372.839066529147,1.8065735982908,176.390662654115));
#971=CARTESIAN_POINT('Ctrl Pts',(372.847176451428,1.54159718582656,176.483359489957));
#972=CARTESIAN_POINT('Ctrl Pts',(372.851228169288,1.44697373769739,176.529670837015));
#973=CARTESIAN_POINT('Ctrl Pts',(372.861117151461,1.27325468343763,176.642702420474));
#974=CARTESIAN_POINT('Ctrl Pts',(372.866873493598,1.19445124739704,176.708497712167));
#975=CARTESIAN_POINT('Ctrl Pts',(372.87339851258,1.12453616936893,176.783079020411));
#976=CARTESIAN_POINT('',(372.922171067627,3.44039689652397,177.340551875534));
#977=CARTESIAN_POINT('Origin',(372.956903837509,1.94974746830548,177.737549251909));
#978=CARTESIAN_POINT('',(372.991636607391,3.44039689652402,178.134546628283));
#979=CARTESIAN_POINT('Origin',(372.956903837509,1.94974746830548,177.737549251909));
#980=CARTESIAN_POINT('',(372.991636607391,3.44039689652402,178.134546628283));
#981=CARTESIAN_POINT('Ctrl Pts',(373.040409162438,1.12453616936893,178.692019483407));
#982=CARTESIAN_POINT('Ctrl Pts',(388.152377412292,1.12453616936894,177.369893577981));
#983=CARTESIAN_POINT('Ctrl Pts',(373.051049186303,1.23854320915242,178.813635512679));
#984=CARTESIAN_POINT('Ctrl Pts',(388.163017436156,1.23854320915243,177.491509607253));
#985=CARTESIAN_POINT('Ctrl Pts',(373.059605025434,1.37571418526055,178.911429201449));
#986=CARTESIAN_POINT('Ctrl Pts',(388.171573275288,1.37571418526055,177.589303296024));
#987=CARTESIAN_POINT('Ctrl Pts',(373.072010075596,1.68578062974714,179.053219573612));
#988=CARTESIAN_POINT('Ctrl Pts',(388.183978325449,1.68578062974715,177.731093668186));
#989=CARTESIAN_POINT('Ctrl Pts',(373.075531740929,1.85676690984929,179.093472392567));
#990=CARTESIAN_POINT('Ctrl Pts',(388.187499990783,1.8567669098493,177.771346487141));
#991=CARTESIAN_POINT('Ctrl Pts',(373.076802863586,2.21154855500003,179.108001391021));
#992=CARTESIAN_POINT('Ctrl Pts',(388.18877111344,2.21154855500003,177.785875485595));
#993=CARTESIAN_POINT('Ctrl Pts',(373.074311828519,2.39201459329055,179.079528729916));
#994=CARTESIAN_POINT('Ctrl Pts',(388.186280078373,2.39201459329055,177.75740282449));
#995=CARTESIAN_POINT('Ctrl Pts',(373.063338934905,2.73886603445592,178.954107981996));
#996=CARTESIAN_POINT('Ctrl Pts',(388.175307184759,2.73886603445592,177.63198207657));
#997=CARTESIAN_POINT('Ctrl Pts',(373.054748675527,2.90099514135504,178.855920868013));
#998=CARTESIAN_POINT('Ctrl Pts',(388.166716925381,2.90099514135505,177.533794962587));
#999=CARTESIAN_POINT('Ctrl Pts',(373.036702305502,3.12891286975571,178.649649914754));
#1000=CARTESIAN_POINT('Ctrl Pts',(388.148670555356,3.12891286975571,177.327524009328));
#1001=CARTESIAN_POINT('Ctrl Pts',(373.028757632404,3.20745847507139,178.558841885708));
#1002=CARTESIAN_POINT('Ctrl Pts',(388.140725882258,3.2074584750714,177.236715980282));
#1003=CARTESIAN_POINT('Ctrl Pts',(373.01122314471,3.34268183940244,178.358421774266));
#1004=CARTESIAN_POINT('Ctrl Pts',(388.123191394564,3.34268183940244,177.03629586884));
#1005=CARTESIAN_POINT('Ctrl Pts',(373.001667036802,3.39834484685919,178.249194961068));
#1006=CARTESIAN_POINT('Ctrl Pts',(388.113635286656,3.39834484685919,176.927069055643));
#1007=CARTESIAN_POINT('Ctrl Pts',(372.991636607391,3.44039689652416,178.134546628283));
#1008=CARTESIAN_POINT('Ctrl Pts',(388.103604857245,3.44039689652416,176.812420722857));
#1009=CARTESIAN_POINT('Ctrl Pts',(373.040409162438,1.12453616936893,178.692019483407));
#1010=CARTESIAN_POINT('Ctrl Pts',(373.051049186303,1.23854320915242,178.813635512679));
#1011=CARTESIAN_POINT('Ctrl Pts',(373.059605025434,1.37571418526055,178.911429201449));
#1012=CARTESIAN_POINT('Ctrl Pts',(373.072010075596,1.68578062974714,179.053219573612));
#1013=CARTESIAN_POINT('Ctrl Pts',(373.075531740929,1.85676690984929,179.093472392567));
#1014=CARTESIAN_POINT('Ctrl Pts',(373.076802863586,2.21154855500003,179.108001391021));
#1015=CARTESIAN_POINT('Ctrl Pts',(373.074311828519,2.39201459329055,179.079528729916));
#1016=CARTESIAN_POINT('Ctrl Pts',(373.063338934905,2.73886603445592,178.954107981996));
#1017=CARTESIAN_POINT('Ctrl Pts',(373.054748675527,2.90099514135504,178.855920868013));
#1018=CARTESIAN_POINT('Ctrl Pts',(373.036702305502,3.12891286975571,178.649649914754));
#1019=CARTESIAN_POINT('Ctrl Pts',(373.028757632404,3.20745847507139,178.558841885708));
#1020=CARTESIAN_POINT('Ctrl Pts',(373.01122314471,3.34268183940244,178.358421774266));
#1021=CARTESIAN_POINT('Ctrl Pts',(373.001667036802,3.39834484685919,178.249194961068));
#1022=CARTESIAN_POINT('Ctrl Pts',(372.991636607391,3.44039689652416,178.134546628283));
#1023=CARTESIAN_POINT('Origin',(373.819701671536,-7.94974746830618,187.599373621547));
#1024=CARTESIAN_POINT('',(373.903206996465,-8.77495876724263,188.553843853046));
#1025=CARTESIAN_POINT('',(373.736196346607,-8.77495876724274,186.644903390049));
#1026=CARTESIAN_POINT('Origin',(373.819701671536,-7.94974746830618,187.599373621547));
#1027=CARTESIAN_POINT('',(373.903206996465,-8.77495876724263,188.553843853046));
#1028=CARTESIAN_POINT('',(373.736196346607,-8.77495876724274,186.644903390049));
#1029=CARTESIAN_POINT('Ctrl Pts',(373.784968901654,-6.45909804008766,187.202376245173));
#1030=CARTESIAN_POINT('Ctrl Pts',(388.897108769439,-6.45909804008766,185.880235325124));
#1031=CARTESIAN_POINT('Ctrl Pts',(373.768858811418,-6.52663874916105,187.018237071171));
#1032=CARTESIAN_POINT('Ctrl Pts',(388.880998679203,-6.52663874916105,185.696096151122));
#1033=CARTESIAN_POINT('Ctrl Pts',(373.754031548168,-6.62904222952839,186.848760676718));
#1034=CARTESIAN_POINT('Ctrl Pts',(388.866171415953,-6.62904222952838,185.526619756669));
#1035=CARTESIAN_POINT('Ctrl Pts',(373.729153242008,-6.88960246446617,186.564400336112));
#1036=CARTESIAN_POINT('Ctrl Pts',(388.841293109794,-6.88960246446617,185.242259416063));
#1037=CARTESIAN_POINT('Ctrl Pts',(373.719189662554,-7.0432925129406,186.450516101822));
#1038=CARTESIAN_POINT('Ctrl Pts',(388.831329530339,-7.04329251294059,185.128375181773));
#1039=CARTESIAN_POINT('Ctrl Pts',(373.705317212113,-7.38015698239674,186.291953267718));
#1040=CARTESIAN_POINT('Ctrl Pts',(388.817457079898,-7.38015698239674,184.969812347668));
#1041=CARTESIAN_POINT('Ctrl Pts',(373.701336422758,-7.55894158529147,186.246452637184));
#1042=CARTESIAN_POINT('Ctrl Pts',(388.813476290543,-7.55894158529146,184.924311717135));
#1043=CARTESIAN_POINT('Ctrl Pts',(373.699716174874,-7.91712952485619,186.227933119131));
#1044=CARTESIAN_POINT('Ctrl Pts',(388.81185604266,-7.91712952485619,184.905792199081));
#1045=CARTESIAN_POINT('Ctrl Pts',(373.701864363174,-8.09292133832086,186.252487023753));
#1046=CARTESIAN_POINT('Ctrl Pts',(388.81400423096,-8.09292133832085,184.930346103704));
#1047=CARTESIAN_POINT('Ctrl Pts',(373.709974285455,-8.35789775078512,186.345183859596));
#1048=CARTESIAN_POINT('Ctrl Pts',(388.82211415324,-8.35789775078511,185.023042939546));
#1049=CARTESIAN_POINT('Ctrl Pts',(373.714026003315,-8.45252119891428,186.391495206654));
#1050=CARTESIAN_POINT('Ctrl Pts',(388.826165871101,-8.45252119891427,185.069354286604));
#1051=CARTESIAN_POINT('Ctrl Pts',(373.723914985488,-8.62624025317404,186.504526790113));
#1052=CARTESIAN_POINT('Ctrl Pts',(388.836054853274,-8.62624025317404,185.182385870064));
#1053=CARTESIAN_POINT('Ctrl Pts',(373.729671327625,-8.70504368921467,186.570322081806));
#1054=CARTESIAN_POINT('Ctrl Pts',(388.84181119541,-8.70504368921466,185.248181161757));
#1055=CARTESIAN_POINT('Ctrl Pts',(373.736196346607,-8.77495876724276,186.644903390049));
#1056=CARTESIAN_POINT('Ctrl Pts',(388.848336214393,-8.77495876724275,185.32276247));
#1057=CARTESIAN_POINT('',(373.784968901654,-6.45909804008769,187.202376245173));
#1058=CARTESIAN_POINT('Ctrl Pts',(373.784968901654,-6.45909804008766,187.202376245173));
#1059=CARTESIAN_POINT('Ctrl Pts',(373.768858811418,-6.52663874916105,187.018237071171));
#1060=CARTESIAN_POINT('Ctrl Pts',(373.754031548168,-6.62904222952839,186.848760676718));
#1061=CARTESIAN_POINT('Ctrl Pts',(373.729153242008,-6.88960246446617,186.564400336112));
#1062=CARTESIAN_POINT('Ctrl Pts',(373.719189662554,-7.0432925129406,186.450516101822));
#1063=CARTESIAN_POINT('Ctrl Pts',(373.705317212113,-7.38015698239674,186.291953267718));
#1064=CARTESIAN_POINT('Ctrl Pts',(373.701336422758,-7.55894158529147,186.246452637184));
#1065=CARTESIAN_POINT('Ctrl Pts',(373.699716174874,-7.91712952485619,186.227933119131));
#1066=CARTESIAN_POINT('Ctrl Pts',(373.701864363174,-8.09292133832086,186.252487023753));
#1067=CARTESIAN_POINT('Ctrl Pts',(373.709974285455,-8.35789775078512,186.345183859596));
#1068=CARTESIAN_POINT('Ctrl Pts',(373.714026003315,-8.45252119891428,186.391495206654));
#1069=CARTESIAN_POINT('Ctrl Pts',(373.723914985488,-8.62624025317404,186.504526790113));
#1070=CARTESIAN_POINT('Ctrl Pts',(373.729671327625,-8.70504368921467,186.570322081806));
#1071=CARTESIAN_POINT('Ctrl Pts',(373.736196346607,-8.77495876724276,186.644903390049));
#1072=CARTESIAN_POINT('',(373.784968901654,-6.45909804008769,187.202376245173));
#1073=CARTESIAN_POINT('Origin',(373.819701671536,-7.94974746830618,187.599373621547));
#1074=CARTESIAN_POINT('',(373.854434441418,-6.45909804008765,187.996370997922));
#1075=CARTESIAN_POINT('Origin',(373.819701671536,-7.94974746830618,187.599373621547));
#1076=CARTESIAN_POINT('',(373.854434441418,-6.45909804008765,187.996370997922));
#1077=CARTESIAN_POINT('Ctrl Pts',(373.903206996465,-8.7749587672427,188.553843853046));
#1078=CARTESIAN_POINT('Ctrl Pts',(389.015175246319,-8.7749587672427,187.23171794762));
#1079=CARTESIAN_POINT('Ctrl Pts',(373.91384702033,-8.66095172745921,188.675459882318));
#1080=CARTESIAN_POINT('Ctrl Pts',(389.025815270183,-8.66095172745921,187.353333976892));
#1081=CARTESIAN_POINT('Ctrl Pts',(373.922402859461,-8.52378075135114,188.773253571088));
#1082=CARTESIAN_POINT('Ctrl Pts',(389.034371109315,-8.52378075135114,187.451127665662));
#1083=CARTESIAN_POINT('Ctrl Pts',(373.934807909623,-8.21371430686456,188.915043943251));
#1084=CARTESIAN_POINT('Ctrl Pts',(389.046776159476,-8.21371430686455,187.592918037825));
#1085=CARTESIAN_POINT('Ctrl Pts',(373.938329574956,-8.04272802676241,188.955296762205));
#1086=CARTESIAN_POINT('Ctrl Pts',(389.05029782481,-8.0427280267624,187.633170856779));
#1087=CARTESIAN_POINT('Ctrl Pts',(373.939600697613,-7.68794638161167,188.96982576066));
#1088=CARTESIAN_POINT('Ctrl Pts',(389.051568947467,-7.68794638161166,187.647699855234));
#1089=CARTESIAN_POINT('Ctrl Pts',(373.937109662546,-7.50748034332115,188.941353099554));
#1090=CARTESIAN_POINT('Ctrl Pts',(389.0490779124,-7.50748034332114,187.619227194128));
#1091=CARTESIAN_POINT('Ctrl Pts',(373.926136768932,-7.16062890215578,188.815932351635));
#1092=CARTESIAN_POINT('Ctrl Pts',(389.038105018786,-7.16062890215577,187.493806446209));
#1093=CARTESIAN_POINT('Ctrl Pts',(373.917546509554,-6.99849979525665,188.717745237651));
#1094=CARTESIAN_POINT('Ctrl Pts',(389.029514759408,-6.99849979525665,187.395619332225));
#1095=CARTESIAN_POINT('Ctrl Pts',(373.89950013953,-6.77058206685598,188.511474284392));
#1096=CARTESIAN_POINT('Ctrl Pts',(389.011468389383,-6.77058206685597,187.189348378966));
#1097=CARTESIAN_POINT('Ctrl Pts',(373.891555466431,-6.69203646154029,188.420666255347));
#1098=CARTESIAN_POINT('Ctrl Pts',(389.003523716285,-6.69203646154028,187.098540349921));
#1099=CARTESIAN_POINT('Ctrl Pts',(373.874020978737,-6.55681309720924,188.220246143905));
#1100=CARTESIAN_POINT('Ctrl Pts',(388.985989228591,-6.55681309720923,186.898120238479));
#1101=CARTESIAN_POINT('Ctrl Pts',(373.864464870829,-6.50115008975254,188.111019330707));
#1102=CARTESIAN_POINT('Ctrl Pts',(388.976433120683,-6.50115008975253,186.788893425281));
#1103=CARTESIAN_POINT('Ctrl Pts',(373.854434441418,-6.45909804008756,187.996370997922));
#1104=CARTESIAN_POINT('Ctrl Pts',(388.966402691272,-6.45909804008755,186.674245092496));
#1105=CARTESIAN_POINT('Ctrl Pts',(373.903206996465,-8.7749587672427,188.553843853046));
#1106=CARTESIAN_POINT('Ctrl Pts',(373.91384702033,-8.66095172745921,188.675459882318));
#1107=CARTESIAN_POINT('Ctrl Pts',(373.922402859461,-8.52378075135114,188.773253571088));
#1108=CARTESIAN_POINT('Ctrl Pts',(373.934807909623,-8.21371430686456,188.915043943251));
#1109=CARTESIAN_POINT('Ctrl Pts',(373.938329574956,-8.04272802676241,188.955296762205));
#1110=CARTESIAN_POINT('Ctrl Pts',(373.939600697613,-7.68794638161167,188.96982576066));
#1111=CARTESIAN_POINT('Ctrl Pts',(373.937109662546,-7.50748034332115,188.941353099554));
#1112=CARTESIAN_POINT('Ctrl Pts',(373.926136768932,-7.16062890215578,188.815932351635));
#1113=CARTESIAN_POINT('Ctrl Pts',(373.917546509554,-6.99849979525665,188.717745237651));
#1114=CARTESIAN_POINT('Ctrl Pts',(373.89950013953,-6.77058206685598,188.511474284392));
#1115=CARTESIAN_POINT('Ctrl Pts',(373.891555466431,-6.69203646154029,188.420666255347));
#1116=CARTESIAN_POINT('Ctrl Pts',(373.874020978737,-6.55681309720924,188.220246143905));
#1117=CARTESIAN_POINT('Ctrl Pts',(373.864464870829,-6.50115008975254,188.111019330707));
#1118=CARTESIAN_POINT('Ctrl Pts',(373.854434441418,-6.45909804008756,187.996370997922));
#1119=CARTESIAN_POINT('Origin',(372.956903837509,-7.94974746830618,177.737549251909));
#1120=CARTESIAN_POINT('',(373.040409162438,-8.77495876724264,178.692019483407));
#1121=CARTESIAN_POINT('',(372.87339851258,-8.77495876724274,176.783079020411));
#1122=CARTESIAN_POINT('Origin',(372.956903837509,-7.94974746830618,177.737549251909));
#1123=CARTESIAN_POINT('',(373.040409162438,-8.77495876724264,178.692019483407));
#1124=CARTESIAN_POINT('',(372.87339851258,-8.77495876724274,176.783079020411));
#1125=CARTESIAN_POINT('Ctrl Pts',(372.922171067627,-6.45909804008769,177.340551875534));
#1126=CARTESIAN_POINT('Ctrl Pts',(388.034310935412,-6.45909804008769,176.018410955485));
#1127=CARTESIAN_POINT('Ctrl Pts',(372.906060977391,-6.52663874916108,177.156412701532));
#1128=CARTESIAN_POINT('Ctrl Pts',(388.018200845176,-6.52663874916107,175.834271781483));
#1129=CARTESIAN_POINT('Ctrl Pts',(372.891233714141,-6.62904222952838,176.98693630708));
#1130=CARTESIAN_POINT('Ctrl Pts',(388.003373581926,-6.62904222952838,175.66479538703));
#1131=CARTESIAN_POINT('Ctrl Pts',(372.866355407981,-6.88960246446617,176.702575966474));
#1132=CARTESIAN_POINT('Ctrl Pts',(387.978495275767,-6.88960246446617,175.380435046424));
#1133=CARTESIAN_POINT('Ctrl Pts',(372.856391828527,-7.04329251294059,176.588691732184));
#1134=CARTESIAN_POINT('Ctrl Pts',(387.968531696312,-7.04329251294059,175.266550812134));
#1135=CARTESIAN_POINT('Ctrl Pts',(372.842519378086,-7.38015698239674,176.430128898079));
#1136=CARTESIAN_POINT('Ctrl Pts',(387.954659245871,-7.38015698239674,175.10798797803));
#1137=CARTESIAN_POINT('Ctrl Pts',(372.838538588731,-7.55894158529147,176.384628267546));
#1138=CARTESIAN_POINT('Ctrl Pts',(387.950678456516,-7.55894158529146,175.062487347496));
#1139=CARTESIAN_POINT('Ctrl Pts',(372.836918340847,-7.9171295248562,176.366108749492));
#1140=CARTESIAN_POINT('Ctrl Pts',(387.949058208633,-7.91712952485619,175.043967829443));
#1141=CARTESIAN_POINT('Ctrl Pts',(372.839066529147,-8.09292133832086,176.390662654115));
#1142=CARTESIAN_POINT('Ctrl Pts',(387.951206396933,-8.09292133832085,175.068521734065));
#1143=CARTESIAN_POINT('Ctrl Pts',(372.847176451428,-8.35789775078512,176.483359489957));
#1144=CARTESIAN_POINT('Ctrl Pts',(387.959316319213,-8.35789775078511,175.161218569908));
#1145=CARTESIAN_POINT('Ctrl Pts',(372.851228169288,-8.45252119891428,176.529670837015));
#1146=CARTESIAN_POINT('Ctrl Pts',(387.963368037074,-8.45252119891427,175.207529916966));
#1147=CARTESIAN_POINT('Ctrl Pts',(372.861117151461,-8.62624025317403,176.642702420474));
#1148=CARTESIAN_POINT('Ctrl Pts',(387.973257019247,-8.62624025317403,175.320561500425));
#1149=CARTESIAN_POINT('Ctrl Pts',(372.866873493598,-8.70504368921463,176.708497712167));
#1150=CARTESIAN_POINT('Ctrl Pts',(387.979013361383,-8.70504368921462,175.386356792118));
#1151=CARTESIAN_POINT('Ctrl Pts',(372.87339851258,-8.77495876724274,176.783079020411));
#1152=CARTESIAN_POINT('Ctrl Pts',(387.985538380365,-8.77495876724273,175.460938100361));
#1153=CARTESIAN_POINT('',(372.922171067627,-6.45909804008769,177.340551875534));
#1154=CARTESIAN_POINT('Ctrl Pts',(372.922171067627,-6.45909804008769,177.340551875534));
#1155=CARTESIAN_POINT('Ctrl Pts',(372.906060977391,-6.52663874916108,177.156412701532));
#1156=CARTESIAN_POINT('Ctrl Pts',(372.891233714141,-6.62904222952838,176.98693630708));
#1157=CARTESIAN_POINT('Ctrl Pts',(372.866355407981,-6.88960246446617,176.702575966474));
#1158=CARTESIAN_POINT('Ctrl Pts',(372.856391828527,-7.04329251294059,176.588691732184));
#1159=CARTESIAN_POINT('Ctrl Pts',(372.842519378086,-7.38015698239674,176.430128898079));
#1160=CARTESIAN_POINT('Ctrl Pts',(372.838538588731,-7.55894158529147,176.384628267546));
#1161=CARTESIAN_POINT('Ctrl Pts',(372.836918340847,-7.9171295248562,176.366108749492));
#1162=CARTESIAN_POINT('Ctrl Pts',(372.839066529147,-8.09292133832086,176.390662654115));
#1163=CARTESIAN_POINT('Ctrl Pts',(372.847176451428,-8.35789775078512,176.483359489957));
#1164=CARTESIAN_POINT('Ctrl Pts',(372.851228169288,-8.45252119891428,176.529670837015));
#1165=CARTESIAN_POINT('Ctrl Pts',(372.861117151461,-8.62624025317403,176.642702420474));
#1166=CARTESIAN_POINT('Ctrl Pts',(372.866873493598,-8.70504368921463,176.708497712167));
#1167=CARTESIAN_POINT('Ctrl Pts',(372.87339851258,-8.77495876724274,176.783079020411));
#1168=CARTESIAN_POINT('',(372.922171067627,-6.45909804008769,177.340551875534));
#1169=CARTESIAN_POINT('Origin',(372.956903837509,-7.94974746830618,177.737549251909));
#1170=CARTESIAN_POINT('',(372.991636607391,-6.45909804008765,178.134546628283));
#1171=CARTESIAN_POINT('Origin',(372.956903837509,-7.94974746830618,177.737549251909));
#1172=CARTESIAN_POINT('',(372.991636607391,-6.45909804008765,178.134546628283));
#1173=CARTESIAN_POINT('Ctrl Pts',(373.040409162438,-8.77495876724273,178.692019483407));
#1174=CARTESIAN_POINT('Ctrl Pts',(388.152377412292,-8.77495876724272,177.369893577981));
#1175=CARTESIAN_POINT('Ctrl Pts',(373.051049186303,-8.66095172745924,178.813635512679));
#1176=CARTESIAN_POINT('Ctrl Pts',(388.163017436156,-8.66095172745923,177.491509607253));
#1177=CARTESIAN_POINT('Ctrl Pts',(373.059605025434,-8.52378075135115,178.911429201449));
#1178=CARTESIAN_POINT('Ctrl Pts',(388.171573275288,-8.52378075135114,177.589303296024));
#1179=CARTESIAN_POINT('Ctrl Pts',(373.072010075596,-8.21371430686455,179.053219573612));
#1180=CARTESIAN_POINT('Ctrl Pts',(388.183978325449,-8.21371430686455,177.731093668186));
#1181=CARTESIAN_POINT('Ctrl Pts',(373.075531740929,-8.0427280267624,179.093472392567));
#1182=CARTESIAN_POINT('Ctrl Pts',(388.187499990783,-8.04272802676239,177.771346487141));
#1183=CARTESIAN_POINT('Ctrl Pts',(373.076802863586,-7.68794638161167,179.108001391021));
#1184=CARTESIAN_POINT('Ctrl Pts',(388.18877111344,-7.68794638161166,177.785875485595));
#1185=CARTESIAN_POINT('Ctrl Pts',(373.074311828519,-7.50748034332114,179.079528729916));
#1186=CARTESIAN_POINT('Ctrl Pts',(388.186280078373,-7.50748034332114,177.75740282449));
#1187=CARTESIAN_POINT('Ctrl Pts',(373.063338934905,-7.16062890215577,178.954107981996));
#1188=CARTESIAN_POINT('Ctrl Pts',(388.175307184759,-7.16062890215577,177.63198207657));
#1189=CARTESIAN_POINT('Ctrl Pts',(373.054748675527,-6.99849979525665,178.855920868013));
#1190=CARTESIAN_POINT('Ctrl Pts',(388.166716925381,-6.99849979525664,177.533794962587));
#1191=CARTESIAN_POINT('Ctrl Pts',(373.036702305502,-6.77058206685598,178.649649914754));
#1192=CARTESIAN_POINT('Ctrl Pts',(388.148670555356,-6.77058206685597,177.327524009328));
#1193=CARTESIAN_POINT('Ctrl Pts',(373.028757632404,-6.69203646154029,178.558841885708));
#1194=CARTESIAN_POINT('Ctrl Pts',(388.140725882258,-6.69203646154028,177.236715980282));
#1195=CARTESIAN_POINT('Ctrl Pts',(373.01122314471,-6.55681309720924,178.358421774266));
#1196=CARTESIAN_POINT('Ctrl Pts',(388.123191394564,-6.55681309720923,177.03629586884));
#1197=CARTESIAN_POINT('Ctrl Pts',(373.001667036802,-6.5011500897525,178.249194961069));
#1198=CARTESIAN_POINT('Ctrl Pts',(388.113635286656,-6.5011500897525,176.927069055643));
#1199=CARTESIAN_POINT('Ctrl Pts',(372.991636607391,-6.45909804008752,178.134546628283));
#1200=CARTESIAN_POINT('Ctrl Pts',(388.103604857245,-6.45909804008752,176.812420722857));
#1201=CARTESIAN_POINT('Ctrl Pts',(373.040409162438,-8.77495876724273,178.692019483407));
#1202=CARTESIAN_POINT('Ctrl Pts',(373.051049186303,-8.66095172745924,178.813635512679));
#1203=CARTESIAN_POINT('Ctrl Pts',(373.059605025434,-8.52378075135115,178.911429201449));
#1204=CARTESIAN_POINT('Ctrl Pts',(373.072010075596,-8.21371430686455,179.053219573612));
#1205=CARTESIAN_POINT('Ctrl Pts',(373.075531740929,-8.0427280267624,179.093472392567));
#1206=CARTESIAN_POINT('Ctrl Pts',(373.076802863586,-7.68794638161167,179.108001391021));
#1207=CARTESIAN_POINT('Ctrl Pts',(373.074311828519,-7.50748034332114,179.079528729916));
#1208=CARTESIAN_POINT('Ctrl Pts',(373.063338934905,-7.16062890215577,178.954107981996));
#1209=CARTESIAN_POINT('Ctrl Pts',(373.054748675527,-6.99849979525665,178.855920868013));
#1210=CARTESIAN_POINT('Ctrl Pts',(373.036702305502,-6.77058206685598,178.649649914754));
#1211=CARTESIAN_POINT('Ctrl Pts',(373.028757632404,-6.69203646154029,178.558841885708));
#1212=CARTESIAN_POINT('Ctrl Pts',(373.01122314471,-6.55681309720924,178.358421774266));
#1213=CARTESIAN_POINT('Ctrl Pts',(373.001667036802,-6.5011500897525,178.249194961069));
#1214=CARTESIAN_POINT('Ctrl Pts',(372.991636607391,-6.45909804008752,178.134546628283));
#1215=CARTESIAN_POINT('Origin',(373.819701671536,1.94974746830548,187.599373621547));
#1216=CARTESIAN_POINT('',(373.903206996465,1.12453616936905,188.553843853046));
#1217=CARTESIAN_POINT('',(373.736196346607,1.12453616936892,186.644903390049));
#1218=CARTESIAN_POINT('Origin',(373.819701671536,1.94974746830548,187.599373621547));
#1219=CARTESIAN_POINT('',(373.903206996465,1.12453616936905,188.553843853046));
#1220=CARTESIAN_POINT('',(373.736196346607,1.12453616936892,186.644903390049));
#1221=CARTESIAN_POINT('Ctrl Pts',(373.784968901654,3.440396896524,187.202376245173));
#1222=CARTESIAN_POINT('Ctrl Pts',(388.897108769439,3.440396896524,185.880235325124));
#1223=CARTESIAN_POINT('Ctrl Pts',(373.768858811418,3.37285618745061,187.018237071171));
#1224=CARTESIAN_POINT('Ctrl Pts',(388.880998679203,3.37285618745061,185.696096151122));
#1225=CARTESIAN_POINT('Ctrl Pts',(373.754031548168,3.27045270708327,186.848760676718));
#1226=CARTESIAN_POINT('Ctrl Pts',(388.866171415953,3.27045270708328,185.526619756669));
#1227=CARTESIAN_POINT('Ctrl Pts',(373.729153242008,3.00989247214549,186.564400336112));
#1228=CARTESIAN_POINT('Ctrl Pts',(388.841293109794,3.00989247214549,185.242259416063));
#1229=CARTESIAN_POINT('Ctrl Pts',(373.719189662554,2.85620242367107,186.450516101822));
#1230=CARTESIAN_POINT('Ctrl Pts',(388.831329530339,2.85620242367107,185.128375181773));
#1231=CARTESIAN_POINT('Ctrl Pts',(373.705317212113,2.51933795421492,186.291953267718));
#1232=CARTESIAN_POINT('Ctrl Pts',(388.817457079898,2.51933795421492,184.969812347668));
#1233=CARTESIAN_POINT('Ctrl Pts',(373.701336422758,2.34055335132019,186.246452637184));
#1234=CARTESIAN_POINT('Ctrl Pts',(388.813476290543,2.3405533513202,184.924311717135));
#1235=CARTESIAN_POINT('Ctrl Pts',(373.699716174874,1.98236541175547,186.227933119131));
#1236=CARTESIAN_POINT('Ctrl Pts',(388.81185604266,1.98236541175547,184.905792199081));
#1237=CARTESIAN_POINT('Ctrl Pts',(373.701864363174,1.8065735982908,186.252487023753));
#1238=CARTESIAN_POINT('Ctrl Pts',(388.814004230959,1.80657359829081,184.930346103704));
#1239=CARTESIAN_POINT('Ctrl Pts',(373.709974285455,1.54159718582654,186.345183859596));
#1240=CARTESIAN_POINT('Ctrl Pts',(388.82211415324,1.54159718582655,185.023042939546));
#1241=CARTESIAN_POINT('Ctrl Pts',(373.714026003315,1.44697373769739,186.391495206654));
#1242=CARTESIAN_POINT('Ctrl Pts',(388.826165871101,1.44697373769739,185.069354286604));
#1243=CARTESIAN_POINT('Ctrl Pts',(373.723914985488,1.27325468343763,186.504526790113));
#1244=CARTESIAN_POINT('Ctrl Pts',(388.836054853274,1.27325468343763,185.182385870063));
#1245=CARTESIAN_POINT('Ctrl Pts',(373.729671327625,1.19445124739701,186.570322081806));
#1246=CARTESIAN_POINT('Ctrl Pts',(388.84181119541,1.19445124739701,185.248181161757));
#1247=CARTESIAN_POINT('Ctrl Pts',(373.736196346607,1.12453616936891,186.644903390049));
#1248=CARTESIAN_POINT('Ctrl Pts',(388.848336214392,1.12453616936892,185.32276247));
#1249=CARTESIAN_POINT('',(373.784968901654,3.44039689652397,187.202376245173));
#1250=CARTESIAN_POINT('Ctrl Pts',(373.784968901654,3.440396896524,187.202376245173));
#1251=CARTESIAN_POINT('Ctrl Pts',(373.768858811418,3.37285618745061,187.018237071171));
#1252=CARTESIAN_POINT('Ctrl Pts',(373.754031548168,3.27045270708327,186.848760676718));
#1253=CARTESIAN_POINT('Ctrl Pts',(373.729153242008,3.00989247214549,186.564400336112));
#1254=CARTESIAN_POINT('Ctrl Pts',(373.719189662554,2.85620242367107,186.450516101822));
#1255=CARTESIAN_POINT('Ctrl Pts',(373.705317212113,2.51933795421492,186.291953267718));
#1256=CARTESIAN_POINT('Ctrl Pts',(373.701336422758,2.34055335132019,186.246452637184));
#1257=CARTESIAN_POINT('Ctrl Pts',(373.699716174874,1.98236541175547,186.227933119131));
#1258=CARTESIAN_POINT('Ctrl Pts',(373.701864363174,1.8065735982908,186.252487023753));
#1259=CARTESIAN_POINT('Ctrl Pts',(373.709974285455,1.54159718582654,186.345183859596));
#1260=CARTESIAN_POINT('Ctrl Pts',(373.714026003315,1.44697373769739,186.391495206654));
#1261=CARTESIAN_POINT('Ctrl Pts',(373.723914985488,1.27325468343763,186.504526790113));
#1262=CARTESIAN_POINT('Ctrl Pts',(373.729671327625,1.19445124739701,186.570322081806));
#1263=CARTESIAN_POINT('Ctrl Pts',(373.736196346607,1.12453616936891,186.644903390049));
#1264=CARTESIAN_POINT('',(373.784968901654,3.44039689652397,187.202376245173));
#1265=CARTESIAN_POINT('Origin',(373.819701671536,1.94974746830548,187.599373621547));
#1266=CARTESIAN_POINT('',(373.854434441418,3.44039689652403,187.996370997922));
#1267=CARTESIAN_POINT('Origin',(373.819701671536,1.94974746830548,187.599373621547));
#1268=CARTESIAN_POINT('',(373.854434441418,3.44039689652403,187.996370997922));
#1269=CARTESIAN_POINT('Ctrl Pts',(373.903206996465,1.12453616936895,188.553843853046));
#1270=CARTESIAN_POINT('Ctrl Pts',(389.015175246319,1.12453616936895,187.23171794762));
#1271=CARTESIAN_POINT('Ctrl Pts',(373.91384702033,1.23854320915244,188.675459882318));
#1272=CARTESIAN_POINT('Ctrl Pts',(389.025815270183,1.23854320915245,187.353333976892));
#1273=CARTESIAN_POINT('Ctrl Pts',(373.922402859461,1.37571418526055,188.773253571088));
#1274=CARTESIAN_POINT('Ctrl Pts',(389.034371109315,1.37571418526055,187.451127665662));
#1275=CARTESIAN_POINT('Ctrl Pts',(373.934807909623,1.68578062974714,188.915043943251));
#1276=CARTESIAN_POINT('Ctrl Pts',(389.046776159476,1.68578062974715,187.592918037825));
#1277=CARTESIAN_POINT('Ctrl Pts',(373.938329574956,1.8567669098493,188.955296762205));
#1278=CARTESIAN_POINT('Ctrl Pts',(389.05029782481,1.8567669098493,187.633170856779));
#1279=CARTESIAN_POINT('Ctrl Pts',(373.939600697613,2.21154855500002,188.96982576066));
#1280=CARTESIAN_POINT('Ctrl Pts',(389.051568947467,2.21154855500003,187.647699855234));
#1281=CARTESIAN_POINT('Ctrl Pts',(373.937109662546,2.39201459329054,188.941353099554));
#1282=CARTESIAN_POINT('Ctrl Pts',(389.0490779124,2.39201459329055,187.619227194128));
#1283=CARTESIAN_POINT('Ctrl Pts',(373.926136768932,2.73886603445592,188.815932351635));
#1284=CARTESIAN_POINT('Ctrl Pts',(389.038105018786,2.73886603445593,187.493806446209));
#1285=CARTESIAN_POINT('Ctrl Pts',(373.917546509554,2.90099514135504,188.717745237651));
#1286=CARTESIAN_POINT('Ctrl Pts',(389.029514759408,2.90099514135505,187.395619332225));
#1287=CARTESIAN_POINT('Ctrl Pts',(373.89950013953,3.12891286975571,188.511474284392));
#1288=CARTESIAN_POINT('Ctrl Pts',(389.011468389383,3.12891286975572,187.189348378966));
#1289=CARTESIAN_POINT('Ctrl Pts',(373.891555466431,3.2074584750714,188.420666255347));
#1290=CARTESIAN_POINT('Ctrl Pts',(389.003523716285,3.20745847507141,187.098540349921));
#1291=CARTESIAN_POINT('Ctrl Pts',(373.874020978737,3.34268183940244,188.220246143905));
#1292=CARTESIAN_POINT('Ctrl Pts',(388.985989228591,3.34268183940244,186.898120238479));
#1293=CARTESIAN_POINT('Ctrl Pts',(373.864464870829,3.39834484685913,188.111019330707));
#1294=CARTESIAN_POINT('Ctrl Pts',(388.976433120683,3.39834484685914,186.788893425281));
#1295=CARTESIAN_POINT('Ctrl Pts',(373.854434441418,3.44039689652411,187.996370997922));
#1296=CARTESIAN_POINT('Ctrl Pts',(388.966402691272,3.44039689652412,186.674245092496));
#1297=CARTESIAN_POINT('Ctrl Pts',(373.903206996465,1.12453616936895,188.553843853046));
#1298=CARTESIAN_POINT('Ctrl Pts',(373.91384702033,1.23854320915244,188.675459882318));
#1299=CARTESIAN_POINT('Ctrl Pts',(373.922402859461,1.37571418526055,188.773253571088));
#1300=CARTESIAN_POINT('Ctrl Pts',(373.934807909623,1.68578062974714,188.915043943251));
#1301=CARTESIAN_POINT('Ctrl Pts',(373.938329574956,1.8567669098493,188.955296762205));
#1302=CARTESIAN_POINT('Ctrl Pts',(373.939600697613,2.21154855500002,188.96982576066));
#1303=CARTESIAN_POINT('Ctrl Pts',(373.937109662546,2.39201459329054,188.941353099554));
#1304=CARTESIAN_POINT('Ctrl Pts',(373.926136768932,2.73886603445592,188.815932351635));
#1305=CARTESIAN_POINT('Ctrl Pts',(373.917546509554,2.90099514135504,188.717745237651));
#1306=CARTESIAN_POINT('Ctrl Pts',(373.89950013953,3.12891286975571,188.511474284392));
#1307=CARTESIAN_POINT('Ctrl Pts',(373.891555466431,3.2074584750714,188.420666255347));
#1308=CARTESIAN_POINT('Ctrl Pts',(373.874020978737,3.34268183940244,188.220246143905));
#1309=CARTESIAN_POINT('Ctrl Pts',(373.864464870829,3.39834484685913,188.111019330707));
#1310=CARTESIAN_POINT('Ctrl Pts',(373.854434441418,3.44039689652411,187.996370997922));
#1311=CARTESIAN_POINT('Origin',(373.388302754523,-3.00000000000005,182.668461436728));
#1312=CARTESIAN_POINT('',(373.253211353264,-3.00000000000005,181.124359654686));
#1313=CARTESIAN_POINT('',(373.253211353264,-3.00000000000005,181.124359654686));
#1314=CARTESIAN_POINT('Origin',(373.388302754523,-3.00000000000005,182.668461436728));
#1315=CARTESIAN_POINT('Origin',(373.388302754523,-3.00000000000035,182.668461436728));
#1316=CARTESIAN_POINT('',(374.259860181999,-3.00000000000035,192.630408417646));
#1317=CARTESIAN_POINT('',(374.259860181999,-3.00000000000035,192.630408417646));
#1318=CARTESIAN_POINT('Origin',(373.388302754523,-3.00000000000035,182.668461436728));
#1319=CARTESIAN_POINT('Origin',(374.477749538868,-3.00000000000035,195.120895162875));
#1320=UNCERTAINTY_MEASURE_WITH_UNIT(LENGTH_MEASURE(0.01),#1324,
'DISTANCE_ACCURACY_VALUE',
'Maximum model space distance between geometric entities at asserted c
onnectivities');
#1321=UNCERTAINTY_MEASURE_WITH_UNIT(LENGTH_MEASURE(0.01),#1324,
'DISTANCE_ACCURACY_VALUE',
'Maximum model space distance between geometric entities at asserted c
onnectivities');
#1322=(
GEOMETRIC_REPRESENTATION_CONTEXT(3)
GLOBAL_UNCERTAINTY_ASSIGNED_CONTEXT((#1320))
GLOBAL_UNIT_ASSIGNED_CONTEXT((#1324,#1326,#1327))
REPRESENTATION_CONTEXT('','3D')
);
#1323=(
GEOMETRIC_REPRESENTATION_CONTEXT(3)
GLOBAL_UNCERTAINTY_ASSIGNED_CONTEXT((#1321))
GLOBAL_UNIT_ASSIGNED_CONTEXT((#1324,#1326,#1327))
REPRESENTATION_CONTEXT('','3D')
);
#1324=(
LENGTH_UNIT()
NAMED_UNIT(*)
SI_UNIT(.MILLI.,.METRE.)
);
#1325=(
LENGTH_UNIT()
NAMED_UNIT(*)
SI_UNIT($,.METRE.)
);
#1326=(
NAMED_UNIT(*)
PLANE_ANGLE_UNIT()
SI_UNIT($,.RADIAN.)
);
#1327=(
NAMED_UNIT(*)
SI_UNIT($,.STERADIAN.)
SOLID_ANGLE_UNIT()
);
#1328=SHAPE_DEFINITION_REPRESENTATION(#1329,#1330);
#1329=PRODUCT_DEFINITION_SHAPE('',$,#1332);
#1330=SHAPE_REPRESENTATION('',(#548),#1322);
#1331=PRODUCT_DEFINITION_CONTEXT('part definition',#1336,'design');
#1332=PRODUCT_DEFINITION('J5Flange','J5Flange',#1333,#1331);
#1333=PRODUCT_DEFINITION_FORMATION('',$,#1338);
#1334=PRODUCT_RELATED_PRODUCT_CATEGORY('J5Flange','J5Flange',(#1338));
#1335=APPLICATION_PROTOCOL_DEFINITION('international standard',
'automotive_design',2009,#1336);
#1336=APPLICATION_CONTEXT(
'Core Data for Automotive Mechanical Design Process');
#1337=PRODUCT_CONTEXT('part definition',#1336,'mechanical');
#1338=PRODUCT('J5Flange','J5Flange',$,(#1337));
#1339=PRESENTATION_STYLE_ASSIGNMENT((#1340));
#1340=SURFACE_STYLE_USAGE(.BOTH.,#1341);
#1341=SURFACE_SIDE_STYLE('',(#1342));
#1342=SURFACE_STYLE_FILL_AREA(#1343);
#1343=FILL_AREA_STYLE('Steel - Satin',(#1344));
#1344=FILL_AREA_STYLE_COLOUR('Steel - Satin',#1345);
#1345=COLOUR_RGB('Steel - Satin',0.627450980392157,0.627450980392157,0.627450980392157);
ENDSEC;
END-ISO-10303-21;
