ISO-10303-21;
HEADER;
/* Generated by software containing ST-Developer
 * from STEP Tools, Inc. (www.steptools.com) 
 */

FILE_DESCRIPTION(
/* description */ (''),
/* implementation_level */ '2;1');

FILE_NAME(
/* name */ 'SEBcover.step',
/* time_stamp */ '2026-08-05T16:40:24-05:00',
/* author */ (''),
/* organization */ (''),
/* preprocessor_version */ 'ST-DEVELOPER v20.1',
/* originating_system */ 'Autodesk Translation Framework v15.8.0.0',
/* authorisation */ '');

FILE_SCHEMA (('AUTOMOTIVE_DESIGN { 1 0 10303 214 3 1 1 }'));
ENDSEC;

DATA;
#10=MECHANICAL_DESIGN_GEOMETRIC_PRESENTATION_REPRESENTATION('',(#13),#683);
#11=SHAPE_REPRESENTATION_RELATIONSHIP('SRR','None',#690,#12);
#12=ADVANCED_BREP_SHAPE_REPRESENTATION('',(#14),#682);
#13=STYLED_ITEM('',(#699),#14);
#14=MANIFOLD_SOLID_BREP('Body1',#383);
#15=FACE_BOUND('',#66,.T.);
#16=FACE_BOUND('',#67,.T.);
#17=FACE_BOUND('',#68,.T.);
#18=FACE_BOUND('',#69,.T.);
#19=FACE_BOUND('',#77,.T.);
#20=FACE_BOUND('',#84,.T.);
#21=FACE_BOUND('',#89,.T.);
#22=FACE_BOUND('',#94,.T.);
#23=PLANE('',#400);
#24=PLANE('',#401);
#25=PLANE('',#411);
#26=PLANE('',#414);
#27=PLANE('',#420);
#28=PLANE('',#422);
#29=PLANE('',#424);
#30=PLANE('',#425);
#31=PLANE('',#429);
#32=PLANE('',#431);
#33=PLANE('',#436);
#34=PLANE('',#438);
#35=PLANE('',#443);
#36=PLANE('',#445);
#37=FACE_OUTER_BOUND('',#63,.T.);
#38=FACE_OUTER_BOUND('',#64,.T.);
#39=FACE_OUTER_BOUND('',#65,.T.);
#40=FACE_OUTER_BOUND('',#70,.T.);
#41=FACE_OUTER_BOUND('',#71,.T.);
#42=FACE_OUTER_BOUND('',#72,.T.);
#43=FACE_OUTER_BOUND('',#73,.T.);
#44=FACE_OUTER_BOUND('',#74,.T.);
#45=FACE_OUTER_BOUND('',#75,.T.);
#46=FACE_OUTER_BOUND('',#76,.T.);
#47=FACE_OUTER_BOUND('',#78,.T.);
#48=FACE_OUTER_BOUND('',#79,.T.);
#49=FACE_OUTER_BOUND('',#80,.T.);
#50=FACE_OUTER_BOUND('',#81,.T.);
#51=FACE_OUTER_BOUND('',#82,.T.);
#52=FACE_OUTER_BOUND('',#83,.T.);
#53=FACE_OUTER_BOUND('',#85,.T.);
#54=FACE_OUTER_BOUND('',#86,.T.);
#55=FACE_OUTER_BOUND('',#87,.T.);
#56=FACE_OUTER_BOUND('',#88,.T.);
#57=FACE_OUTER_BOUND('',#90,.T.);
#58=FACE_OUTER_BOUND('',#91,.T.);
#59=FACE_OUTER_BOUND('',#92,.T.);
#60=FACE_OUTER_BOUND('',#93,.T.);
#61=FACE_OUTER_BOUND('',#95,.T.);
#62=FACE_OUTER_BOUND('',#96,.T.);
#63=EDGE_LOOP('',(#249,#250,#251,#252));
#64=EDGE_LOOP('',(#253,#254,#255,#256));
#65=EDGE_LOOP('',(#257,#258,#259,#260,#261,#262,#263,#264));
#66=EDGE_LOOP('',(#265));
#67=EDGE_LOOP('',(#266));
#68=EDGE_LOOP('',(#267));
#69=EDGE_LOOP('',(#268));
#70=EDGE_LOOP('',(#269,#270,#271,#272));
#71=EDGE_LOOP('',(#273,#274,#275,#276));
#72=EDGE_LOOP('',(#277,#278,#279,#280));
#73=EDGE_LOOP('',(#281,#282,#283,#284));
#74=EDGE_LOOP('',(#285,#286,#287,#288));
#75=EDGE_LOOP('',(#289,#290,#291,#292));
#76=EDGE_LOOP('',(#293));
#77=EDGE_LOOP('',(#294));
#78=EDGE_LOOP('',(#295));
#79=EDGE_LOOP('',(#296,#297,#298,#299));
#80=EDGE_LOOP('',(#300,#301,#302,#303));
#81=EDGE_LOOP('',(#304,#305,#306,#307,#308,#309,#310,#311));
#82=EDGE_LOOP('',(#312,#313,#314,#315));
#83=EDGE_LOOP('',(#316));
#84=EDGE_LOOP('',(#317));
#85=EDGE_LOOP('',(#318));
#86=EDGE_LOOP('',(#319,#320,#321,#322));
#87=EDGE_LOOP('',(#323,#324,#325,#326));
#88=EDGE_LOOP('',(#327));
#89=EDGE_LOOP('',(#328));
#90=EDGE_LOOP('',(#329));
#91=EDGE_LOOP('',(#330,#331,#332,#333));
#92=EDGE_LOOP('',(#334,#335,#336,#337));
#93=EDGE_LOOP('',(#338));
#94=EDGE_LOOP('',(#339));
#95=EDGE_LOOP('',(#340));
#96=EDGE_LOOP('',(#341,#342,#343,#344));
#97=LINE('',#579,#121);
#98=LINE('',#582,#122);
#99=LINE('',#585,#123);
#100=LINE('',#587,#124);
#101=LINE('',#588,#125);
#102=LINE('',#591,#126);
#103=LINE('',#595,#127);
#104=LINE('',#599,#128);
#105=LINE('',#612,#129);
#106=LINE('',#615,#130);
#107=LINE('',#616,#131);
#108=LINE('',#621,#132);
#109=LINE('',#622,#133);
#110=LINE('',#625,#134);
#111=LINE('',#626,#135);
#112=LINE('',#633,#136);
#113=LINE('',#640,#137);
#114=LINE('',#642,#138);
#115=LINE('',#648,#139);
#116=LINE('',#655,#140);
#117=LINE('',#660,#141);
#118=LINE('',#667,#142);
#119=LINE('',#672,#143);
#120=LINE('',#679,#144);
#121=VECTOR('',#453,10.);
#122=VECTOR('',#456,10.);
#123=VECTOR('',#459,10.);
#124=VECTOR('',#460,10.);
#125=VECTOR('',#461,10.);
#126=VECTOR('',#464,10.);
#127=VECTOR('',#467,10.);
#128=VECTOR('',#470,10.);
#129=VECTOR('',#485,10.);
#130=VECTOR('',#488,10.);
#131=VECTOR('',#489,10.);
#132=VECTOR('',#494,10.);
#133=VECTOR('',#495,10.);
#134=VECTOR('',#498,10.);
#135=VECTOR('',#499,10.);
#136=VECTOR('',#508,1.5);
#137=VECTOR('',#519,0.999999999999996);
#138=VECTOR('',#522,10.);
#139=VECTOR('',#529,1.5);
#140=VECTOR('',#540,0.999999999999996);
#141=VECTOR('',#545,1.5);
#142=VECTOR('',#556,0.999999999999996);
#143=VECTOR('',#561,1.5);
#144=VECTOR('',#572,0.999999999999996);
#145=CIRCLE('',#398,4.);
#146=CIRCLE('',#399,4.);
#147=CIRCLE('',#402,4.);
#148=CIRCLE('',#403,4.);
#149=CIRCLE('',#404,4.);
#150=CIRCLE('',#405,0.999999999999996);
#151=CIRCLE('',#406,0.999999999999996);
#152=CIRCLE('',#407,0.999999999999996);
#153=CIRCLE('',#408,0.999999999999996);
#154=CIRCLE('',#410,4.);
#155=CIRCLE('',#413,4.);
#156=CIRCLE('',#416,4.);
#157=CIRCLE('',#418,1.5);
#158=CIRCLE('',#419,1.5);
#159=CIRCLE('',#421,0.999999999999996);
#160=CIRCLE('',#427,1.5);
#161=CIRCLE('',#428,1.5);
#162=CIRCLE('',#430,0.999999999999996);
#163=CIRCLE('',#434,1.5);
#164=CIRCLE('',#435,1.5);
#165=CIRCLE('',#437,0.999999999999996);
#166=CIRCLE('',#441,1.5);
#167=CIRCLE('',#442,1.5);
#168=CIRCLE('',#444,0.999999999999996);
#169=VERTEX_POINT('',#575);
#170=VERTEX_POINT('',#576);
#171=VERTEX_POINT('',#578);
#172=VERTEX_POINT('',#580);
#173=VERTEX_POINT('',#584);
#174=VERTEX_POINT('',#586);
#175=VERTEX_POINT('',#590);
#176=VERTEX_POINT('',#592);
#177=VERTEX_POINT('',#594);
#178=VERTEX_POINT('',#596);
#179=VERTEX_POINT('',#598);
#180=VERTEX_POINT('',#601);
#181=VERTEX_POINT('',#603);
#182=VERTEX_POINT('',#605);
#183=VERTEX_POINT('',#607);
#184=VERTEX_POINT('',#610);
#185=VERTEX_POINT('',#614);
#186=VERTEX_POINT('',#618);
#187=VERTEX_POINT('',#619);
#188=VERTEX_POINT('',#624);
#189=VERTEX_POINT('',#630);
#190=VERTEX_POINT('',#632);
#191=VERTEX_POINT('',#636);
#192=VERTEX_POINT('',#645);
#193=VERTEX_POINT('',#647);
#194=VERTEX_POINT('',#651);
#195=VERTEX_POINT('',#657);
#196=VERTEX_POINT('',#659);
#197=VERTEX_POINT('',#663);
#198=VERTEX_POINT('',#669);
#199=VERTEX_POINT('',#671);
#200=VERTEX_POINT('',#675);
#201=EDGE_CURVE('',#169,#170,#145,.T.);
#202=EDGE_CURVE('',#170,#171,#97,.T.);
#203=EDGE_CURVE('',#171,#172,#146,.T.);
#204=EDGE_CURVE('',#172,#169,#98,.T.);
#205=EDGE_CURVE('',#173,#172,#99,.T.);
#206=EDGE_CURVE('',#174,#173,#100,.T.);
#207=EDGE_CURVE('',#169,#174,#101,.T.);
#208=EDGE_CURVE('',#171,#175,#102,.T.);
#209=EDGE_CURVE('',#176,#175,#147,.T.);
#210=EDGE_CURVE('',#176,#177,#103,.T.);
#211=EDGE_CURVE('',#178,#177,#148,.T.);
#212=EDGE_CURVE('',#178,#179,#104,.T.);
#213=EDGE_CURVE('',#173,#179,#149,.T.);
#214=EDGE_CURVE('',#180,#180,#150,.T.);
#215=EDGE_CURVE('',#181,#181,#151,.T.);
#216=EDGE_CURVE('',#182,#182,#152,.T.);
#217=EDGE_CURVE('',#183,#183,#153,.T.);
#218=EDGE_CURVE('',#184,#174,#154,.T.);
#219=EDGE_CURVE('',#179,#184,#105,.T.);
#220=EDGE_CURVE('',#185,#178,#106,.T.);
#221=EDGE_CURVE('',#184,#185,#107,.T.);
#222=EDGE_CURVE('',#186,#187,#155,.T.);
#223=EDGE_CURVE('',#187,#176,#108,.T.);
#224=EDGE_CURVE('',#175,#186,#109,.T.);
#225=EDGE_CURVE('',#188,#187,#110,.T.);
#226=EDGE_CURVE('',#177,#188,#111,.T.);
#227=EDGE_CURVE('',#188,#185,#156,.T.);
#228=EDGE_CURVE('',#189,#189,#157,.T.);
#229=EDGE_CURVE('',#189,#190,#112,.T.);
#230=EDGE_CURVE('',#190,#190,#158,.T.);
#231=EDGE_CURVE('',#191,#191,#159,.T.);
#232=EDGE_CURVE('',#191,#180,#113,.T.);
#233=EDGE_CURVE('',#186,#170,#114,.T.);
#234=EDGE_CURVE('',#192,#192,#160,.T.);
#235=EDGE_CURVE('',#192,#193,#115,.T.);
#236=EDGE_CURVE('',#193,#193,#161,.T.);
#237=EDGE_CURVE('',#194,#194,#162,.T.);
#238=EDGE_CURVE('',#194,#181,#116,.T.);
#239=EDGE_CURVE('',#195,#195,#163,.T.);
#240=EDGE_CURVE('',#195,#196,#117,.T.);
#241=EDGE_CURVE('',#196,#196,#164,.T.);
#242=EDGE_CURVE('',#197,#197,#165,.T.);
#243=EDGE_CURVE('',#197,#182,#118,.T.);
#244=EDGE_CURVE('',#198,#198,#166,.T.);
#245=EDGE_CURVE('',#198,#199,#119,.T.);
#246=EDGE_CURVE('',#199,#199,#167,.T.);
#247=EDGE_CURVE('',#200,#200,#168,.T.);
#248=EDGE_CURVE('',#200,#183,#120,.T.);
#249=ORIENTED_EDGE('',*,*,#201,.T.);
#250=ORIENTED_EDGE('',*,*,#202,.T.);
#251=ORIENTED_EDGE('',*,*,#203,.T.);
#252=ORIENTED_EDGE('',*,*,#204,.T.);
#253=ORIENTED_EDGE('',*,*,#204,.F.);
#254=ORIENTED_EDGE('',*,*,#205,.F.);
#255=ORIENTED_EDGE('',*,*,#206,.F.);
#256=ORIENTED_EDGE('',*,*,#207,.F.);
#257=ORIENTED_EDGE('',*,*,#203,.F.);
#258=ORIENTED_EDGE('',*,*,#208,.T.);
#259=ORIENTED_EDGE('',*,*,#209,.F.);
#260=ORIENTED_EDGE('',*,*,#210,.T.);
#261=ORIENTED_EDGE('',*,*,#211,.F.);
#262=ORIENTED_EDGE('',*,*,#212,.T.);
#263=ORIENTED_EDGE('',*,*,#213,.F.);
#264=ORIENTED_EDGE('',*,*,#205,.T.);
#265=ORIENTED_EDGE('',*,*,#214,.T.);
#266=ORIENTED_EDGE('',*,*,#215,.T.);
#267=ORIENTED_EDGE('',*,*,#216,.T.);
#268=ORIENTED_EDGE('',*,*,#217,.T.);
#269=ORIENTED_EDGE('',*,*,#218,.T.);
#270=ORIENTED_EDGE('',*,*,#206,.T.);
#271=ORIENTED_EDGE('',*,*,#213,.T.);
#272=ORIENTED_EDGE('',*,*,#219,.T.);
#273=ORIENTED_EDGE('',*,*,#219,.F.);
#274=ORIENTED_EDGE('',*,*,#212,.F.);
#275=ORIENTED_EDGE('',*,*,#220,.F.);
#276=ORIENTED_EDGE('',*,*,#221,.F.);
#277=ORIENTED_EDGE('',*,*,#222,.T.);
#278=ORIENTED_EDGE('',*,*,#223,.T.);
#279=ORIENTED_EDGE('',*,*,#209,.T.);
#280=ORIENTED_EDGE('',*,*,#224,.T.);
#281=ORIENTED_EDGE('',*,*,#223,.F.);
#282=ORIENTED_EDGE('',*,*,#225,.F.);
#283=ORIENTED_EDGE('',*,*,#226,.F.);
#284=ORIENTED_EDGE('',*,*,#210,.F.);
#285=ORIENTED_EDGE('',*,*,#227,.T.);
#286=ORIENTED_EDGE('',*,*,#220,.T.);
#287=ORIENTED_EDGE('',*,*,#211,.T.);
#288=ORIENTED_EDGE('',*,*,#226,.T.);
#289=ORIENTED_EDGE('',*,*,#228,.F.);
#290=ORIENTED_EDGE('',*,*,#229,.T.);
#291=ORIENTED_EDGE('',*,*,#230,.F.);
#292=ORIENTED_EDGE('',*,*,#229,.F.);
#293=ORIENTED_EDGE('',*,*,#230,.T.);
#294=ORIENTED_EDGE('',*,*,#231,.T.);
#295=ORIENTED_EDGE('',*,*,#228,.T.);
#296=ORIENTED_EDGE('',*,*,#231,.F.);
#297=ORIENTED_EDGE('',*,*,#232,.T.);
#298=ORIENTED_EDGE('',*,*,#214,.F.);
#299=ORIENTED_EDGE('',*,*,#232,.F.);
#300=ORIENTED_EDGE('',*,*,#202,.F.);
#301=ORIENTED_EDGE('',*,*,#233,.F.);
#302=ORIENTED_EDGE('',*,*,#224,.F.);
#303=ORIENTED_EDGE('',*,*,#208,.F.);
#304=ORIENTED_EDGE('',*,*,#201,.F.);
#305=ORIENTED_EDGE('',*,*,#207,.T.);
#306=ORIENTED_EDGE('',*,*,#218,.F.);
#307=ORIENTED_EDGE('',*,*,#221,.T.);
#308=ORIENTED_EDGE('',*,*,#227,.F.);
#309=ORIENTED_EDGE('',*,*,#225,.T.);
#310=ORIENTED_EDGE('',*,*,#222,.F.);
#311=ORIENTED_EDGE('',*,*,#233,.T.);
#312=ORIENTED_EDGE('',*,*,#234,.F.);
#313=ORIENTED_EDGE('',*,*,#235,.T.);
#314=ORIENTED_EDGE('',*,*,#236,.F.);
#315=ORIENTED_EDGE('',*,*,#235,.F.);
#316=ORIENTED_EDGE('',*,*,#236,.T.);
#317=ORIENTED_EDGE('',*,*,#237,.T.);
#318=ORIENTED_EDGE('',*,*,#234,.T.);
#319=ORIENTED_EDGE('',*,*,#237,.F.);
#320=ORIENTED_EDGE('',*,*,#238,.T.);
#321=ORIENTED_EDGE('',*,*,#215,.F.);
#322=ORIENTED_EDGE('',*,*,#238,.F.);
#323=ORIENTED_EDGE('',*,*,#239,.F.);
#324=ORIENTED_EDGE('',*,*,#240,.T.);
#325=ORIENTED_EDGE('',*,*,#241,.F.);
#326=ORIENTED_EDGE('',*,*,#240,.F.);
#327=ORIENTED_EDGE('',*,*,#241,.T.);
#328=ORIENTED_EDGE('',*,*,#242,.T.);
#329=ORIENTED_EDGE('',*,*,#239,.T.);
#330=ORIENTED_EDGE('',*,*,#242,.F.);
#331=ORIENTED_EDGE('',*,*,#243,.T.);
#332=ORIENTED_EDGE('',*,*,#216,.F.);
#333=ORIENTED_EDGE('',*,*,#243,.F.);
#334=ORIENTED_EDGE('',*,*,#244,.F.);
#335=ORIENTED_EDGE('',*,*,#245,.T.);
#336=ORIENTED_EDGE('',*,*,#246,.F.);
#337=ORIENTED_EDGE('',*,*,#245,.F.);
#338=ORIENTED_EDGE('',*,*,#246,.T.);
#339=ORIENTED_EDGE('',*,*,#247,.T.);
#340=ORIENTED_EDGE('',*,*,#244,.T.);
#341=ORIENTED_EDGE('',*,*,#247,.F.);
#342=ORIENTED_EDGE('',*,*,#248,.T.);
#343=ORIENTED_EDGE('',*,*,#217,.F.);
#344=ORIENTED_EDGE('',*,*,#248,.F.);
#345=CYLINDRICAL_SURFACE('',#397,4.);
#346=CYLINDRICAL_SURFACE('',#409,4.);
#347=CYLINDRICAL_SURFACE('',#412,4.);
#348=CYLINDRICAL_SURFACE('',#415,4.);
#349=CYLINDRICAL_SURFACE('',#417,1.5);
#350=CYLINDRICAL_SURFACE('',#423,0.999999999999996);
#351=CYLINDRICAL_SURFACE('',#426,1.5);
#352=CYLINDRICAL_SURFACE('',#432,0.999999999999996);
#353=CYLINDRICAL_SURFACE('',#433,1.5);
#354=CYLINDRICAL_SURFACE('',#439,0.999999999999996);
#355=CYLINDRICAL_SURFACE('',#440,1.5);
#356=CYLINDRICAL_SURFACE('',#446,0.999999999999996);
#357=ADVANCED_FACE('',(#37),#345,.T.);
#358=ADVANCED_FACE('',(#38),#23,.T.);
#359=ADVANCED_FACE('',(#39,#15,#16,#17,#18),#24,.F.);
#360=ADVANCED_FACE('',(#40),#346,.T.);
#361=ADVANCED_FACE('',(#41),#25,.T.);
#362=ADVANCED_FACE('',(#42),#347,.T.);
#363=ADVANCED_FACE('',(#43),#26,.T.);
#364=ADVANCED_FACE('',(#44),#348,.T.);
#365=ADVANCED_FACE('',(#45),#349,.T.);
#366=ADVANCED_FACE('',(#46,#19),#27,.T.);
#367=ADVANCED_FACE('',(#47),#28,.F.);
#368=ADVANCED_FACE('',(#48),#350,.T.);
#369=ADVANCED_FACE('',(#49),#29,.T.);
#370=ADVANCED_FACE('',(#50),#30,.T.);
#371=ADVANCED_FACE('',(#51),#351,.T.);
#372=ADVANCED_FACE('',(#52,#20),#31,.T.);
#373=ADVANCED_FACE('',(#53),#32,.F.);
#374=ADVANCED_FACE('',(#54),#352,.T.);
#375=ADVANCED_FACE('',(#55),#353,.T.);
#376=ADVANCED_FACE('',(#56,#21),#33,.T.);
#377=ADVANCED_FACE('',(#57),#34,.F.);
#378=ADVANCED_FACE('',(#58),#354,.T.);
#379=ADVANCED_FACE('',(#59),#355,.T.);
#380=ADVANCED_FACE('',(#60,#22),#35,.T.);
#381=ADVANCED_FACE('',(#61),#36,.F.);
#382=ADVANCED_FACE('',(#62),#356,.T.);
#383=CLOSED_SHELL('',(#357,#358,#359,#360,#361,#362,#363,#364,#365,#366,
#367,#368,#369,#370,#371,#372,#373,#374,#375,#376,#377,#378,#379,#380,#381,
#382));
#384=DERIVED_UNIT_ELEMENT(#386,1.);
#385=DERIVED_UNIT_ELEMENT(#685,-3.);
#386=(
MASS_UNIT()
NAMED_UNIT(*)
SI_UNIT(.KILO.,.GRAM.)
);
#387=DERIVED_UNIT((#384,#385));
#388=MEASURE_REPRESENTATION_ITEM('density measure',
POSITIVE_RATIO_MEASURE(7850.),#387);
#389=PROPERTY_DEFINITION_REPRESENTATION(#394,#391);
#390=PROPERTY_DEFINITION_REPRESENTATION(#395,#392);
#391=REPRESENTATION('material name',(#393),#682);
#392=REPRESENTATION('density',(#388),#682);
#393=DESCRIPTIVE_REPRESENTATION_ITEM('Steel','Steel');
#394=PROPERTY_DEFINITION('material property','material name',#692);
#395=PROPERTY_DEFINITION('material property','density of part',#692);
#396=AXIS2_PLACEMENT_3D('',#573,#447,#448);
#397=AXIS2_PLACEMENT_3D('',#574,#449,#450);
#398=AXIS2_PLACEMENT_3D('',#577,#451,#452);
#399=AXIS2_PLACEMENT_3D('',#581,#454,#455);
#400=AXIS2_PLACEMENT_3D('',#583,#457,#458);
#401=AXIS2_PLACEMENT_3D('',#589,#462,#463);
#402=AXIS2_PLACEMENT_3D('',#593,#465,#466);
#403=AXIS2_PLACEMENT_3D('',#597,#468,#469);
#404=AXIS2_PLACEMENT_3D('',#600,#471,#472);
#405=AXIS2_PLACEMENT_3D('',#602,#473,#474);
#406=AXIS2_PLACEMENT_3D('',#604,#475,#476);
#407=AXIS2_PLACEMENT_3D('',#606,#477,#478);
#408=AXIS2_PLACEMENT_3D('',#608,#479,#480);
#409=AXIS2_PLACEMENT_3D('',#609,#481,#482);
#410=AXIS2_PLACEMENT_3D('',#611,#483,#484);
#411=AXIS2_PLACEMENT_3D('',#613,#486,#487);
#412=AXIS2_PLACEMENT_3D('',#617,#490,#491);
#413=AXIS2_PLACEMENT_3D('',#620,#492,#493);
#414=AXIS2_PLACEMENT_3D('',#623,#496,#497);
#415=AXIS2_PLACEMENT_3D('',#627,#500,#501);
#416=AXIS2_PLACEMENT_3D('',#628,#502,#503);
#417=AXIS2_PLACEMENT_3D('',#629,#504,#505);
#418=AXIS2_PLACEMENT_3D('',#631,#506,#507);
#419=AXIS2_PLACEMENT_3D('',#634,#509,#510);
#420=AXIS2_PLACEMENT_3D('',#635,#511,#512);
#421=AXIS2_PLACEMENT_3D('',#637,#513,#514);
#422=AXIS2_PLACEMENT_3D('',#638,#515,#516);
#423=AXIS2_PLACEMENT_3D('',#639,#517,#518);
#424=AXIS2_PLACEMENT_3D('',#641,#520,#521);
#425=AXIS2_PLACEMENT_3D('',#643,#523,#524);
#426=AXIS2_PLACEMENT_3D('',#644,#525,#526);
#427=AXIS2_PLACEMENT_3D('',#646,#527,#528);
#428=AXIS2_PLACEMENT_3D('',#649,#530,#531);
#429=AXIS2_PLACEMENT_3D('',#650,#532,#533);
#430=AXIS2_PLACEMENT_3D('',#652,#534,#535);
#431=AXIS2_PLACEMENT_3D('',#653,#536,#537);
#432=AXIS2_PLACEMENT_3D('',#654,#538,#539);
#433=AXIS2_PLACEMENT_3D('',#656,#541,#542);
#434=AXIS2_PLACEMENT_3D('',#658,#543,#544);
#435=AXIS2_PLACEMENT_3D('',#661,#546,#547);
#436=AXIS2_PLACEMENT_3D('',#662,#548,#549);
#437=AXIS2_PLACEMENT_3D('',#664,#550,#551);
#438=AXIS2_PLACEMENT_3D('',#665,#552,#553);
#439=AXIS2_PLACEMENT_3D('',#666,#554,#555);
#440=AXIS2_PLACEMENT_3D('',#668,#557,#558);
#441=AXIS2_PLACEMENT_3D('',#670,#559,#560);
#442=AXIS2_PLACEMENT_3D('',#673,#562,#563);
#443=AXIS2_PLACEMENT_3D('',#674,#564,#565);
#444=AXIS2_PLACEMENT_3D('',#676,#566,#567);
#445=AXIS2_PLACEMENT_3D('',#677,#568,#569);
#446=AXIS2_PLACEMENT_3D('',#678,#570,#571);
#447=DIRECTION('axis',(0.,0.,1.));
#448=DIRECTION('refdir',(1.,0.,0.));
#449=DIRECTION('center_axis',(0.,0.,1.));
#450=DIRECTION('ref_axis',(-0.707106781186548,-0.707106781186548,0.));
#451=DIRECTION('center_axis',(0.,0.,-1.));
#452=DIRECTION('ref_axis',(-0.707106781186548,-0.707106781186548,0.));
#453=DIRECTION('',(0.,0.,-1.));
#454=DIRECTION('center_axis',(0.,0.,1.));
#455=DIRECTION('ref_axis',(-0.707106781186548,-0.707106781186548,0.));
#456=DIRECTION('',(0.,0.,1.));
#457=DIRECTION('center_axis',(0.,-1.,0.));
#458=DIRECTION('ref_axis',(1.,0.,0.));
#459=DIRECTION('',(-1.,0.,0.));
#460=DIRECTION('',(0.,0.,-1.));
#461=DIRECTION('',(1.,0.,0.));
#462=DIRECTION('center_axis',(0.,0.,1.));
#463=DIRECTION('ref_axis',(-1.,0.,0.));
#464=DIRECTION('',(0.,1.,0.));
#465=DIRECTION('center_axis',(0.,0.,1.));
#466=DIRECTION('ref_axis',(-0.707106781186548,0.707106781186548,0.));
#467=DIRECTION('',(1.,0.,0.));
#468=DIRECTION('center_axis',(0.,0.,1.));
#469=DIRECTION('ref_axis',(0.707106781186546,0.707106781186549,0.));
#470=DIRECTION('',(0.,-1.,0.));
#471=DIRECTION('center_axis',(0.,0.,1.));
#472=DIRECTION('ref_axis',(0.707106781186549,-0.707106781186546,0.));
#473=DIRECTION('center_axis',(0.,0.,1.));
#474=DIRECTION('ref_axis',(-1.,0.,0.));
#475=DIRECTION('center_axis',(0.,0.,1.));
#476=DIRECTION('ref_axis',(-1.,0.,0.));
#477=DIRECTION('center_axis',(0.,0.,1.));
#478=DIRECTION('ref_axis',(-1.,0.,0.));
#479=DIRECTION('center_axis',(0.,0.,1.));
#480=DIRECTION('ref_axis',(-1.,0.,0.));
#481=DIRECTION('center_axis',(0.,0.,1.));
#482=DIRECTION('ref_axis',(0.707106781186549,-0.707106781186546,0.));
#483=DIRECTION('center_axis',(0.,0.,-1.));
#484=DIRECTION('ref_axis',(0.707106781186549,-0.707106781186546,0.));
#485=DIRECTION('',(0.,0.,1.));
#486=DIRECTION('center_axis',(1.,0.,0.));
#487=DIRECTION('ref_axis',(0.,1.,0.));
#488=DIRECTION('',(0.,0.,-1.));
#489=DIRECTION('',(0.,1.,0.));
#490=DIRECTION('center_axis',(0.,0.,1.));
#491=DIRECTION('ref_axis',(-0.707106781186548,0.707106781186548,0.));
#492=DIRECTION('center_axis',(0.,0.,-1.));
#493=DIRECTION('ref_axis',(-0.707106781186548,0.707106781186548,0.));
#494=DIRECTION('',(0.,0.,-1.));
#495=DIRECTION('',(0.,0.,1.));
#496=DIRECTION('center_axis',(0.,1.,0.));
#497=DIRECTION('ref_axis',(-1.,0.,0.));
#498=DIRECTION('',(-1.,0.,0.));
#499=DIRECTION('',(0.,0.,1.));
#500=DIRECTION('center_axis',(0.,0.,1.));
#501=DIRECTION('ref_axis',(0.707106781186546,0.707106781186549,0.));
#502=DIRECTION('center_axis',(0.,0.,-1.));
#503=DIRECTION('ref_axis',(0.707106781186546,0.707106781186549,0.));
#504=DIRECTION('center_axis',(0.,0.,-1.));
#505=DIRECTION('ref_axis',(-1.,0.,0.));
#506=DIRECTION('center_axis',(0.,0.,-1.));
#507=DIRECTION('ref_axis',(-1.,0.,0.));
#508=DIRECTION('',(0.,0.,1.));
#509=DIRECTION('center_axis',(0.,0.,1.));
#510=DIRECTION('ref_axis',(-1.,0.,0.));
#511=DIRECTION('center_axis',(0.,0.,1.));
#512=DIRECTION('ref_axis',(-1.,0.,0.));
#513=DIRECTION('center_axis',(0.,0.,-1.));
#514=DIRECTION('ref_axis',(-1.,0.,0.));
#515=DIRECTION('center_axis',(0.,0.,1.));
#516=DIRECTION('ref_axis',(-1.,0.,0.));
#517=DIRECTION('center_axis',(0.,0.,-1.));
#518=DIRECTION('ref_axis',(-1.,0.,0.));
#519=DIRECTION('',(0.,0.,1.));
#520=DIRECTION('center_axis',(-1.,0.,0.));
#521=DIRECTION('ref_axis',(0.,-1.,0.));
#522=DIRECTION('',(0.,-1.,0.));
#523=DIRECTION('center_axis',(0.,0.,1.));
#524=DIRECTION('ref_axis',(1.,0.,0.));
#525=DIRECTION('center_axis',(0.,0.,-1.));
#526=DIRECTION('ref_axis',(-1.,0.,0.));
#527=DIRECTION('center_axis',(0.,0.,-1.));
#528=DIRECTION('ref_axis',(-1.,0.,0.));
#529=DIRECTION('',(0.,0.,1.));
#530=DIRECTION('center_axis',(0.,0.,1.));
#531=DIRECTION('ref_axis',(-1.,0.,0.));
#532=DIRECTION('center_axis',(0.,0.,1.));
#533=DIRECTION('ref_axis',(-1.,0.,0.));
#534=DIRECTION('center_axis',(0.,0.,-1.));
#535=DIRECTION('ref_axis',(-1.,0.,0.));
#536=DIRECTION('center_axis',(0.,0.,1.));
#537=DIRECTION('ref_axis',(-1.,0.,0.));
#538=DIRECTION('center_axis',(0.,0.,-1.));
#539=DIRECTION('ref_axis',(-1.,0.,0.));
#540=DIRECTION('',(0.,0.,1.));
#541=DIRECTION('center_axis',(0.,0.,-1.));
#542=DIRECTION('ref_axis',(-1.,0.,0.));
#543=DIRECTION('center_axis',(0.,0.,-1.));
#544=DIRECTION('ref_axis',(-1.,0.,0.));
#545=DIRECTION('',(0.,0.,1.));
#546=DIRECTION('center_axis',(0.,0.,1.));
#547=DIRECTION('ref_axis',(-1.,0.,0.));
#548=DIRECTION('center_axis',(0.,0.,1.));
#549=DIRECTION('ref_axis',(-1.,0.,0.));
#550=DIRECTION('center_axis',(0.,0.,-1.));
#551=DIRECTION('ref_axis',(-1.,0.,0.));
#552=DIRECTION('center_axis',(0.,0.,1.));
#553=DIRECTION('ref_axis',(-1.,0.,0.));
#554=DIRECTION('center_axis',(0.,0.,-1.));
#555=DIRECTION('ref_axis',(-1.,0.,0.));
#556=DIRECTION('',(0.,0.,1.));
#557=DIRECTION('center_axis',(0.,0.,-1.));
#558=DIRECTION('ref_axis',(-1.,0.,0.));
#559=DIRECTION('center_axis',(0.,0.,-1.));
#560=DIRECTION('ref_axis',(-1.,0.,0.));
#561=DIRECTION('',(0.,0.,1.));
#562=DIRECTION('center_axis',(0.,0.,1.));
#563=DIRECTION('ref_axis',(-1.,0.,0.));
#564=DIRECTION('center_axis',(0.,0.,1.));
#565=DIRECTION('ref_axis',(-1.,0.,0.));
#566=DIRECTION('center_axis',(0.,0.,-1.));
#567=DIRECTION('ref_axis',(-1.,0.,0.));
#568=DIRECTION('center_axis',(0.,0.,1.));
#569=DIRECTION('ref_axis',(-1.,0.,0.));
#570=DIRECTION('center_axis',(0.,0.,-1.));
#571=DIRECTION('ref_axis',(-1.,0.,0.));
#572=DIRECTION('',(0.,0.,1.));
#573=CARTESIAN_POINT('',(0.,0.,0.));
#574=CARTESIAN_POINT('Origin',(59.,-61.,55.));
#575=CARTESIAN_POINT('',(59.,-65.,60.));
#576=CARTESIAN_POINT('',(55.,-61.,60.));
#577=CARTESIAN_POINT('Origin',(59.,-61.,60.));
#578=CARTESIAN_POINT('',(55.,-61.,55.));
#579=CARTESIAN_POINT('',(55.,-61.,55.));
#580=CARTESIAN_POINT('',(59.,-65.,55.));
#581=CARTESIAN_POINT('Origin',(59.,-61.,55.));
#582=CARTESIAN_POINT('',(59.,-65.,55.));
#583=CARTESIAN_POINT('Origin',(55.,-65.,55.));
#584=CARTESIAN_POINT('',(151.,-65.,55.));
#585=CARTESIAN_POINT('',(155.,-65.,55.));
#586=CARTESIAN_POINT('',(151.,-65.,60.));
#587=CARTESIAN_POINT('',(151.,-65.,55.));
#588=CARTESIAN_POINT('',(155.,-65.,60.));
#589=CARTESIAN_POINT('Origin',(105.,0.,55.));
#590=CARTESIAN_POINT('',(55.,61.,55.));
#591=CARTESIAN_POINT('',(55.,-65.,55.));
#592=CARTESIAN_POINT('',(59.,65.,55.));
#593=CARTESIAN_POINT('Origin',(59.,61.,55.));
#594=CARTESIAN_POINT('',(151.,65.,55.));
#595=CARTESIAN_POINT('',(55.,65.,55.));
#596=CARTESIAN_POINT('',(155.,61.,55.));
#597=CARTESIAN_POINT('Origin',(151.,61.,55.));
#598=CARTESIAN_POINT('',(155.,-61.,55.));
#599=CARTESIAN_POINT('',(155.,65.,55.));
#600=CARTESIAN_POINT('Origin',(151.,-61.,55.));
#601=CARTESIAN_POINT('',(153.5,62.5,55.));
#602=CARTESIAN_POINT('Origin',(152.5,62.5,55.));
#603=CARTESIAN_POINT('',(58.5,-62.5,55.));
#604=CARTESIAN_POINT('Origin',(57.5,-62.5,55.));
#605=CARTESIAN_POINT('',(58.5,62.5,55.));
#606=CARTESIAN_POINT('Origin',(57.5,62.5,55.));
#607=CARTESIAN_POINT('',(153.5,-62.5,55.));
#608=CARTESIAN_POINT('Origin',(152.5,-62.5,55.));
#609=CARTESIAN_POINT('Origin',(151.,-61.,55.));
#610=CARTESIAN_POINT('',(155.,-61.,60.));
#611=CARTESIAN_POINT('Origin',(151.,-61.,60.));
#612=CARTESIAN_POINT('',(155.,-61.,55.));
#613=CARTESIAN_POINT('Origin',(155.,-65.,55.));
#614=CARTESIAN_POINT('',(155.,61.,60.));
#615=CARTESIAN_POINT('',(155.,61.,55.));
#616=CARTESIAN_POINT('',(155.,65.,60.));
#617=CARTESIAN_POINT('Origin',(59.,61.,55.));
#618=CARTESIAN_POINT('',(55.,61.,60.));
#619=CARTESIAN_POINT('',(59.,65.,60.));
#620=CARTESIAN_POINT('Origin',(59.,61.,60.));
#621=CARTESIAN_POINT('',(59.,65.,55.));
#622=CARTESIAN_POINT('',(55.,61.,55.));
#623=CARTESIAN_POINT('Origin',(155.,65.,55.));
#624=CARTESIAN_POINT('',(151.,65.,60.));
#625=CARTESIAN_POINT('',(55.,65.,60.));
#626=CARTESIAN_POINT('',(151.,65.,55.));
#627=CARTESIAN_POINT('Origin',(151.,61.,55.));
#628=CARTESIAN_POINT('Origin',(151.,61.,60.));
#629=CARTESIAN_POINT('Origin',(152.5,62.5,53.));
#630=CARTESIAN_POINT('',(154.,62.5,52.));
#631=CARTESIAN_POINT('Origin',(152.5,62.5,52.));
#632=CARTESIAN_POINT('',(154.,62.5,53.));
#633=CARTESIAN_POINT('',(154.,62.5,53.));
#634=CARTESIAN_POINT('Origin',(152.5,62.5,53.));
#635=CARTESIAN_POINT('Origin',(152.5,62.5,53.));
#636=CARTESIAN_POINT('',(153.5,62.5,53.));
#637=CARTESIAN_POINT('Origin',(152.5,62.5,53.));
#638=CARTESIAN_POINT('Origin',(152.5,62.5,52.));
#639=CARTESIAN_POINT('Origin',(152.5,62.5,55.));
#640=CARTESIAN_POINT('',(153.5,62.5,55.));
#641=CARTESIAN_POINT('Origin',(55.,65.,55.));
#642=CARTESIAN_POINT('',(55.,-65.,60.));
#643=CARTESIAN_POINT('Origin',(105.,0.,60.));
#644=CARTESIAN_POINT('Origin',(57.5,-62.5,53.));
#645=CARTESIAN_POINT('',(59.,-62.5,52.));
#646=CARTESIAN_POINT('Origin',(57.5,-62.5,52.));
#647=CARTESIAN_POINT('',(59.,-62.5,53.));
#648=CARTESIAN_POINT('',(59.,-62.5,53.));
#649=CARTESIAN_POINT('Origin',(57.5,-62.5,53.));
#650=CARTESIAN_POINT('Origin',(57.5,-62.5,53.));
#651=CARTESIAN_POINT('',(58.5,-62.5,53.));
#652=CARTESIAN_POINT('Origin',(57.5,-62.5,53.));
#653=CARTESIAN_POINT('Origin',(57.5,-62.5,52.));
#654=CARTESIAN_POINT('Origin',(57.5,-62.5,55.));
#655=CARTESIAN_POINT('',(58.5,-62.5,55.));
#656=CARTESIAN_POINT('Origin',(57.5,62.5,53.));
#657=CARTESIAN_POINT('',(59.,62.5,52.));
#658=CARTESIAN_POINT('Origin',(57.5,62.5,52.));
#659=CARTESIAN_POINT('',(59.,62.5,53.));
#660=CARTESIAN_POINT('',(59.,62.5,53.));
#661=CARTESIAN_POINT('Origin',(57.5,62.5,53.));
#662=CARTESIAN_POINT('Origin',(57.5,62.5,53.));
#663=CARTESIAN_POINT('',(58.5,62.5,53.));
#664=CARTESIAN_POINT('Origin',(57.5,62.5,53.));
#665=CARTESIAN_POINT('Origin',(57.5,62.5,52.));
#666=CARTESIAN_POINT('Origin',(57.5,62.5,55.));
#667=CARTESIAN_POINT('',(58.5,62.5,55.));
#668=CARTESIAN_POINT('Origin',(152.5,-62.5,53.));
#669=CARTESIAN_POINT('',(154.,-62.5,52.));
#670=CARTESIAN_POINT('Origin',(152.5,-62.5,52.));
#671=CARTESIAN_POINT('',(154.,-62.5,53.));
#672=CARTESIAN_POINT('',(154.,-62.5,53.));
#673=CARTESIAN_POINT('Origin',(152.5,-62.5,53.));
#674=CARTESIAN_POINT('Origin',(152.5,-62.5,53.));
#675=CARTESIAN_POINT('',(153.5,-62.5,53.));
#676=CARTESIAN_POINT('Origin',(152.5,-62.5,53.));
#677=CARTESIAN_POINT('Origin',(152.5,-62.5,52.));
#678=CARTESIAN_POINT('Origin',(152.5,-62.5,55.));
#679=CARTESIAN_POINT('',(153.5,-62.5,55.));
#680=UNCERTAINTY_MEASURE_WITH_UNIT(LENGTH_MEASURE(0.01),#684,
'DISTANCE_ACCURACY_VALUE',
'Maximum model space distance between geometric entities at asserted c
onnectivities');
#681=UNCERTAINTY_MEASURE_WITH_UNIT(LENGTH_MEASURE(0.01),#684,
'DISTANCE_ACCURACY_VALUE',
'Maximum model space distance between geometric entities at asserted c
onnectivities');
#682=(
GEOMETRIC_REPRESENTATION_CONTEXT(3)
GLOBAL_UNCERTAINTY_ASSIGNED_CONTEXT((#680))
GLOBAL_UNIT_ASSIGNED_CONTEXT((#684,#686,#687))
REPRESENTATION_CONTEXT('','3D')
);
#683=(
GEOMETRIC_REPRESENTATION_CONTEXT(3)
GLOBAL_UNCERTAINTY_ASSIGNED_CONTEXT((#681))
GLOBAL_UNIT_ASSIGNED_CONTEXT((#684,#686,#687))
REPRESENTATION_CONTEXT('','3D')
);
#684=(
LENGTH_UNIT()
NAMED_UNIT(*)
SI_UNIT(.MILLI.,.METRE.)
);
#685=(
LENGTH_UNIT()
NAMED_UNIT(*)
SI_UNIT($,.METRE.)
);
#686=(
NAMED_UNIT(*)
PLANE_ANGLE_UNIT()
SI_UNIT($,.RADIAN.)
);
#687=(
NAMED_UNIT(*)
SI_UNIT($,.STERADIAN.)
SOLID_ANGLE_UNIT()
);
#688=SHAPE_DEFINITION_REPRESENTATION(#689,#690);
#689=PRODUCT_DEFINITION_SHAPE('',$,#692);
#690=SHAPE_REPRESENTATION('',(#396),#682);
#691=PRODUCT_DEFINITION_CONTEXT('part definition',#696,'design');
#692=PRODUCT_DEFINITION('SEBcover','SEBcover',#693,#691);
#693=PRODUCT_DEFINITION_FORMATION('',$,#698);
#694=PRODUCT_RELATED_PRODUCT_CATEGORY('SEBcover','SEBcover',(#698));
#695=APPLICATION_PROTOCOL_DEFINITION('international standard',
'automotive_design',2009,#696);
#696=APPLICATION_CONTEXT(
'Core Data for Automotive Mechanical Design Process');
#697=PRODUCT_CONTEXT('part definition',#696,'mechanical');
#698=PRODUCT('SEBcover','SEBcover',$,(#697));
#699=PRESENTATION_STYLE_ASSIGNMENT((#700));
#700=SURFACE_STYLE_USAGE(.BOTH.,#701);
#701=SURFACE_SIDE_STYLE('',(#702));
#702=SURFACE_STYLE_FILL_AREA(#703);
#703=FILL_AREA_STYLE('Steel - Satin',(#704));
#704=FILL_AREA_STYLE_COLOUR('Steel - Satin',#705);
#705=COLOUR_RGB('Steel - Satin',0.627450980392157,0.627450980392157,0.627450980392157);
ENDSEC;
END-ISO-10303-21;
